<?xml version="1.0" encoding="UTF-8" standalone="no"?>
<!DOCTYPE svg PUBLIC "-//W3C//DTD SVG 1.1//EN"
 "http://www.w3.org/Graphics/SVG/1.1/DTD/svg11.dtd">
<!-- Generated by graphviz version 2.43.0 (0)
 -->
<!-- Title: NAV::internal::KeyedMatrixCols&lt; Scalar, ColKeyType, Rows, Eigen::Dynamic &gt; Pages: 1 -->
<svg width="170pt" height="417pt"
 viewBox="0.00 0.00 170.00 417.00" xmlns="http://www.w3.org/2000/svg" xmlns:xlink="http://www.w3.org/1999/xlink">
<g id="graph0" class="graph" transform="scale(1 1) rotate(0) translate(4 413)">
<title>NAV::internal::KeyedMatrixCols&lt; Scalar, ColKeyType, Rows, Eigen::Dynamic &gt;</title>
<!-- Node1 -->
<g id="Node000001" class="node">
<title>Node1</title>
<g id="a_Node000001"><a xlink:title="Base class for Keyed matrices with multiple columns of dynamic size.">
<polygon fill="#999999" stroke="transparent" points="151.5,-116 10.5,-116 10.5,0 151.5,0 151.5,-116"/>
<text text-anchor="start" x="16" y="-104" font-family="Helvetica,sans-Serif" font-size="10.00">NAV::internal::KeyedMatrix</text>
<text text-anchor="start" x="16" y="-93" font-family="Helvetica,sans-Serif" font-size="10.00">Cols&lt; Scalar, ColKeyType,</text>
<text text-anchor="start" x="19.5" y="-82" font-family="Helvetica,sans-Serif" font-size="10.00"> Rows, Eigen::Dynamic &gt;</text>
<text text-anchor="start" x="79.5" y="-67" font-family="Helvetica,sans-Serif" font-size="10.00"> </text>
<text text-anchor="start" x="28" y="-52" font-family="Helvetica,sans-Serif" font-size="10.00">+</text>
<text text-anchor="start" x="54" y="-52" font-family="Helvetica,sans-Serif" font-size="10.00">addCol()</text>
<text text-anchor="start" x="28" y="-37" font-family="Helvetica,sans-Serif" font-size="10.00">+</text>
<text text-anchor="start" x="54" y="-37" font-family="Helvetica,sans-Serif" font-size="10.00">addCols()</text>
<text text-anchor="start" x="28" y="-22" font-family="Helvetica,sans-Serif" font-size="10.00">+</text>
<text text-anchor="start" x="54" y="-22" font-family="Helvetica,sans-Serif" font-size="10.00">removeCol()</text>
<text text-anchor="start" x="28" y="-7" font-family="Helvetica,sans-Serif" font-size="10.00">+</text>
<text text-anchor="start" x="54" y="-7" font-family="Helvetica,sans-Serif" font-size="10.00">removeCols()</text>
<polygon fill="#666666" stroke="#666666" points="11,-77 11,-77 152,-77 152,-77 11,-77"/>
<polygon fill="#666666" stroke="#666666" points="11,-62 11,-62 152,-62 152,-62 11,-62"/>
<polygon fill="none" stroke="#666666" points="10.5,0 10.5,-116 151.5,-116 151.5,0 10.5,0"/>
</a>
</g>
</g>
<!-- Node2 -->
<g id="Node000002" class="node">
<title>Node2</title>
<g id="a_Node000002"><a xlink:href="classNAV_1_1internal_1_1KeyedMatrixColsBase.html" target="_top" xlink:title=" ">
<polygon fill="white" stroke="transparent" points="162,-313 0,-313 0,-152 162,-152 162,-313"/>
<text text-anchor="start" x="5" y="-300.5" font-family="Helvetica,sans-Serif" font-size="10.00">NAV::internal::KeyedMatrix</text>
<text text-anchor="start" x="5" y="-289.5" font-family="Helvetica,sans-Serif" font-size="10.00">ColsBase&lt; Scalar, ColKeyType,</text>
<text text-anchor="start" x="19" y="-278.5" font-family="Helvetica,sans-Serif" font-size="10.00"> Rows, Eigen::Dynamic &gt;</text>
<text text-anchor="start" x="22" y="-263.5" font-family="Helvetica,sans-Serif" font-size="10.00">#</text>
<text text-anchor="start" x="53" y="-263.5" font-family="Helvetica,sans-Serif" font-size="10.00">colIndices</text>
<text text-anchor="start" x="22" y="-248.5" font-family="Helvetica,sans-Serif" font-size="10.00">#</text>
<text text-anchor="start" x="53" y="-248.5" font-family="Helvetica,sans-Serif" font-size="10.00">colKeysVector</text>
<text text-anchor="start" x="22" y="-233.5" font-family="Helvetica,sans-Serif" font-size="10.00">#</text>
<text text-anchor="start" x="53" y="-233.5" font-family="Helvetica,sans-Serif" font-size="10.00">colSlice</text>
<text text-anchor="start" x="22" y="-218.5" font-family="Helvetica,sans-Serif" font-size="10.00">+</text>
<text text-anchor="start" x="53" y="-218.5" font-family="Helvetica,sans-Serif" font-size="10.00">colKeys()</text>
<text text-anchor="start" x="22" y="-203.5" font-family="Helvetica,sans-Serif" font-size="10.00">+</text>
<text text-anchor="start" x="53" y="-203.5" font-family="Helvetica,sans-Serif" font-size="10.00">cols()</text>
<text text-anchor="start" x="22" y="-188.5" font-family="Helvetica,sans-Serif" font-size="10.00">+</text>
<text text-anchor="start" x="53" y="-188.5" font-family="Helvetica,sans-Serif" font-size="10.00">hasAnyCols()</text>
<text text-anchor="start" x="22" y="-173.5" font-family="Helvetica,sans-Serif" font-size="10.00">+</text>
<text text-anchor="start" x="53" y="-173.5" font-family="Helvetica,sans-Serif" font-size="10.00">hasCol()</text>
<text text-anchor="start" x="22" y="-158.5" font-family="Helvetica,sans-Serif" font-size="10.00">+</text>
<text text-anchor="start" x="53" y="-158.5" font-family="Helvetica,sans-Serif" font-size="10.00">hasCols()</text>
<polygon fill="#666666" stroke="#666666" points="0,-273.5 0,-273.5 162,-273.5 162,-273.5 0,-273.5"/>
<polygon fill="#666666" stroke="#666666" points="0,-228.5 0,-228.5 51,-228.5 51,-228.5 0,-228.5"/>
<polygon fill="#666666" stroke="#666666" points="51,-228.5 51,-228.5 162,-228.5 162,-228.5 51,-228.5"/>
<polygon fill="none" stroke="#666666" points="0,-152 0,-313 162,-313 162,-152 0,-152"/>
</a>
</g>
</g>
<!-- Node2&#45;&gt;Node1 -->
<g id="edge1_Node000001_Node000002" class="edge">
<title>Node2&#45;&gt;Node1</title>
<g id="a_edge1_Node000001_Node000002"><a xlink:title=" ">
<path fill="none" stroke="#63b8ff" d="M81,-141.66C81,-133.02 81,-124.42 81,-116.22"/>
<polygon fill="none" stroke="#63b8ff" points="77.5,-141.81 81,-151.81 84.5,-141.81 77.5,-141.81"/>
</a>
</g>
</g>
<!-- Node3 -->
<g id="Node000003" class="node">
<title>Node3</title>
<g id="a_Node000003"><a xlink:href="classNAV_1_1internal_1_1KeyedMatrixStorage.html" target="_top" xlink:title="KeyedMatrix storage class.">
<polygon fill="white" stroke="transparent" points="161,-409 1,-409 1,-349 161,-349 161,-409"/>
<text text-anchor="start" x="6" y="-397" font-family="Helvetica,sans-Serif" font-size="10.00">NAV::internal::KeyedMatrix</text>
<text text-anchor="start" x="6" y="-386" font-family="Helvetica,sans-Serif" font-size="10.00">Storage&lt; Scalar, Rows, Cols &gt;</text>
<text text-anchor="start" x="31.5" y="-371" font-family="Helvetica,sans-Serif" font-size="10.00">#</text>
<text text-anchor="start" x="71" y="-371" font-family="Helvetica,sans-Serif" font-size="10.00">matrix</text>
<text text-anchor="start" x="79" y="-356" font-family="Helvetica,sans-Serif" font-size="10.00"> </text>
<polygon fill="#666666" stroke="#666666" points="1,-381 1,-381 161,-381 161,-381 1,-381"/>
<polygon fill="#666666" stroke="#666666" points="1,-366 1,-366 69,-366 69,-366 1,-366"/>
<polygon fill="#666666" stroke="#666666" points="69,-366 69,-366 161,-366 161,-366 69,-366"/>
<polygon fill="none" stroke="#666666" points="1,-349 1,-409 161,-409 161,-349 1,-349"/>
</a>
</g>
</g>
<!-- Node3&#45;&gt;Node2 -->
<g id="edge2_Node000002_Node000003" class="edge">
<title>Node3&#45;&gt;Node2</title>
<g id="a_edge2_Node000002_Node000003"><a xlink:title=" ">
<path fill="none" stroke="#63b8ff" d="M81,-338.7C81,-330.72 81,-322.05 81,-313.24"/>
<polygon fill="none" stroke="#63b8ff" points="77.5,-338.76 81,-348.76 84.5,-338.76 77.5,-338.76"/>
</a>
</g>
</g>
</g>
</svg>
