<?xml version="1.0" encoding="UTF-8" standalone="no"?>
<!DOCTYPE svg PUBLIC "-//W3C//DTD SVG 1.1//EN"
 "http://www.w3.org/Graphics/SVG/1.1/DTD/svg11.dtd">
<!-- Generated by graphviz version 2.43.0 (0)
 -->
<!-- Title: NAV::ImuObs Pages: 1 -->
<svg width="256pt" height="496pt"
 viewBox="0.00 0.00 255.50 496.00" xmlns="http://www.w3.org/2000/svg" xmlns:xlink="http://www.w3.org/1999/xlink">
<g id="graph0" class="graph" transform="scale(1 1) rotate(0) translate(4 492)">
<title>NAV::ImuObs</title>
<!-- Node1 -->
<g id="node1" class="node">
<title>Node1</title>
<g id="a_node1"><a xlink:title="IMU Observation storage class.">
<polygon fill="#999999" stroke="#666666" points="67.5,-149.5 67.5,-316.5 180.5,-316.5 180.5,-149.5 67.5,-149.5"/>
<text text-anchor="middle" x="124" y="-304.5" font-family="Helvetica,sans-Serif" font-size="10.00">NAV::ImuObs</text>
<polyline fill="none" stroke="#666666" points="67.5,-297.5 180.5,-297.5 "/>
<text text-anchor="start" x="75.5" y="-285.5" font-family="Helvetica,sans-Serif" font-size="10.00">+ accelCompXYZ</text>
<text text-anchor="start" x="75.5" y="-274.5" font-family="Helvetica,sans-Serif" font-size="10.00">+ accelUncompXYZ</text>
<text text-anchor="start" x="75.5" y="-263.5" font-family="Helvetica,sans-Serif" font-size="10.00">+ gyroCompXYZ</text>
<text text-anchor="start" x="75.5" y="-252.5" font-family="Helvetica,sans-Serif" font-size="10.00">+ gyroUncompXYZ</text>
<text text-anchor="start" x="75.5" y="-241.5" font-family="Helvetica,sans-Serif" font-size="10.00">+ imuPos</text>
<text text-anchor="start" x="75.5" y="-230.5" font-family="Helvetica,sans-Serif" font-size="10.00">+ magCompXYZ</text>
<text text-anchor="start" x="75.5" y="-219.5" font-family="Helvetica,sans-Serif" font-size="10.00">+ magUncompXYZ</text>
<text text-anchor="start" x="75.5" y="-208.5" font-family="Helvetica,sans-Serif" font-size="10.00">+ temperature</text>
<text text-anchor="start" x="75.5" y="-197.5" font-family="Helvetica,sans-Serif" font-size="10.00">+ timeSinceStartup</text>
<polyline fill="none" stroke="#666666" points="67.5,-190.5 180.5,-190.5 "/>
<text text-anchor="start" x="75.5" y="-178.5" font-family="Helvetica,sans-Serif" font-size="10.00">+ ImuObs()</text>
<text text-anchor="start" x="75.5" y="-167.5" font-family="Helvetica,sans-Serif" font-size="10.00">+ parentTypes()</text>
<text text-anchor="start" x="75.5" y="-156.5" font-family="Helvetica,sans-Serif" font-size="10.00">+ type()</text>
</a>
</g>
</g>
<!-- Node3 -->
<g id="node3" class="node">
<title>Node3</title>
<g id="a_node3"><a xlink:href="classNAV_1_1ImuObsWDelta.html" target="_top" xlink:title="VectorNav Observation storage Class.">
<polygon fill="white" stroke="#666666" points="0,-6 0,-107 116,-107 116,-6 0,-6"/>
<text text-anchor="middle" x="58" y="-95" font-family="Helvetica,sans-Serif" font-size="10.00">NAV::ImuObsWDelta</text>
<polyline fill="none" stroke="#666666" points="0,-88 116,-88 "/>
<text text-anchor="start" x="8" y="-76" font-family="Helvetica,sans-Serif" font-size="10.00">+ dtheta</text>
<text text-anchor="start" x="8" y="-65" font-family="Helvetica,sans-Serif" font-size="10.00">+ dtime</text>
<text text-anchor="start" x="8" y="-54" font-family="Helvetica,sans-Serif" font-size="10.00">+ dvel</text>
<polyline fill="none" stroke="#666666" points="0,-47 116,-47 "/>
<text text-anchor="start" x="8" y="-35" font-family="Helvetica,sans-Serif" font-size="10.00">+ ImuObsWDelta()</text>
<text text-anchor="start" x="8" y="-24" font-family="Helvetica,sans-Serif" font-size="10.00">+ parentTypes()</text>
<text text-anchor="start" x="8" y="-13" font-family="Helvetica,sans-Serif" font-size="10.00">+ type()</text>
</a>
</g>
</g>
<!-- Node1&#45;&gt;Node3 -->
<g id="edge2" class="edge">
<title>Node1&#45;&gt;Node3</title>
<path fill="none" stroke="#63b8ff" d="M89.15,-139.86C84.88,-128.58 80.66,-117.4 76.76,-107.09"/>
<polygon fill="none" stroke="#63b8ff" points="85.93,-141.23 92.74,-149.35 92.48,-138.76 85.93,-141.23"/>
</g>
<!-- Node4 -->
<g id="node4" class="node">
<title>Node4</title>
<g id="a_node4"><a xlink:href="classNAV_1_1KvhObs.html" target="_top" xlink:title="Kvh Observation storage Class.">
<polygon fill="white" stroke="#666666" points="134.5,-0.5 134.5,-112.5 247.5,-112.5 247.5,-0.5 134.5,-0.5"/>
<text text-anchor="middle" x="191" y="-100.5" font-family="Helvetica,sans-Serif" font-size="10.00">NAV::KvhObs</text>
<polyline fill="none" stroke="#666666" points="134.5,-93.5 247.5,-93.5 "/>
<text text-anchor="start" x="142.5" y="-81.5" font-family="Helvetica,sans-Serif" font-size="10.00">+ raw</text>
<text text-anchor="start" x="142.5" y="-70.5" font-family="Helvetica,sans-Serif" font-size="10.00">+ sequenceNumber</text>
<text text-anchor="start" x="142.5" y="-59.5" font-family="Helvetica,sans-Serif" font-size="10.00">+ status</text>
<polyline fill="none" stroke="#666666" points="134.5,-52.5 247.5,-52.5 "/>
<text text-anchor="start" x="142.5" y="-40.5" font-family="Helvetica,sans-Serif" font-size="10.00">+ KvhObs()</text>
<text text-anchor="start" x="142.5" y="-29.5" font-family="Helvetica,sans-Serif" font-size="10.00">+ KvhObs()</text>
<text text-anchor="start" x="142.5" y="-18.5" font-family="Helvetica,sans-Serif" font-size="10.00">+ parentTypes()</text>
<text text-anchor="start" x="142.5" y="-7.5" font-family="Helvetica,sans-Serif" font-size="10.00">+ type()</text>
</a>
</g>
</g>
<!-- Node1&#45;&gt;Node4 -->
<g id="edge3" class="edge">
<title>Node1&#45;&gt;Node4</title>
<path fill="none" stroke="#63b8ff" d="M159.4,-139.8C162.91,-130.65 166.4,-121.57 169.7,-112.97"/>
<polygon fill="none" stroke="#63b8ff" points="156.05,-138.76 155.73,-149.35 162.59,-141.27 156.05,-138.76"/>
</g>
<!-- Node2 -->
<g id="node2" class="node">
<title>Node2</title>
<g id="a_node2"><a xlink:href="classNAV_1_1NodeData.html" target="_top" xlink:title="Parent class for all data transmitted over Flow pins.">
<polygon fill="white" stroke="#666666" points="76.5,-353.5 76.5,-487.5 171.5,-487.5 171.5,-353.5 76.5,-353.5"/>
<text text-anchor="middle" x="124" y="-475.5" font-family="Helvetica,sans-Serif" font-size="10.00">NAV::NodeData</text>
<polyline fill="none" stroke="#666666" points="76.5,-468.5 171.5,-468.5 "/>
<text text-anchor="start" x="84.5" y="-456.5" font-family="Helvetica,sans-Serif" font-size="10.00">+ insTime</text>
<polyline fill="none" stroke="#666666" points="76.5,-449.5 171.5,-449.5 "/>
<text text-anchor="start" x="84.5" y="-437.5" font-family="Helvetica,sans-Serif" font-size="10.00">+ NodeData()</text>
<text text-anchor="start" x="84.5" y="-426.5" font-family="Helvetica,sans-Serif" font-size="10.00">+ NodeData()</text>
<text text-anchor="start" x="84.5" y="-415.5" font-family="Helvetica,sans-Serif" font-size="10.00">+ NodeData()</text>
<text text-anchor="start" x="84.5" y="-404.5" font-family="Helvetica,sans-Serif" font-size="10.00">+ operator=()</text>
<text text-anchor="start" x="84.5" y="-393.5" font-family="Helvetica,sans-Serif" font-size="10.00">+ operator=()</text>
<text text-anchor="start" x="84.5" y="-382.5" font-family="Helvetica,sans-Serif" font-size="10.00">+ ~NodeData()</text>
<text text-anchor="start" x="84.5" y="-371.5" font-family="Helvetica,sans-Serif" font-size="10.00">+ parentTypes()</text>
<text text-anchor="start" x="84.5" y="-360.5" font-family="Helvetica,sans-Serif" font-size="10.00">+ type()</text>
</a>
</g>
</g>
<!-- Node2&#45;&gt;Node1 -->
<g id="edge1" class="edge">
<title>Node2&#45;&gt;Node1</title>
<path fill="none" stroke="#63b8ff" d="M124,-343.18C124,-334.44 124,-325.51 124,-316.7"/>
<polygon fill="none" stroke="#63b8ff" points="120.5,-343.32 124,-353.32 127.5,-343.32 120.5,-343.32"/>
</g>
</g>
</svg>
