<?xml version="1.0" encoding="UTF-8" standalone="no"?>
<!DOCTYPE svg PUBLIC "-//W3C//DTD SVG 1.1//EN"
 "http://www.w3.org/Graphics/SVG/1.1/DTD/svg11.dtd">
<!-- Generated by graphviz version 2.43.0 (0)
 -->
<!-- Title: NAV::RtklibPosObs Pages: 1 -->
<svg width="109pt" height="807pt"
 viewBox="0.00 0.00 109.00 807.00" xmlns="http://www.w3.org/2000/svg" xmlns:xlink="http://www.w3.org/1999/xlink">
<g id="graph0" class="graph" transform="scale(1 1) rotate(0) translate(4 803)">
<title>NAV::RtklibPosObs</title>
<!-- Node1 -->
<g id="Node000001" class="node">
<title>Node1</title>
<g id="a_Node000001"><a xlink:title="RTKLIB Observation Class.">
<polygon fill="#999999" stroke="transparent" points="101,-214 0,-214 0,0 101,0 101,-214"/>
<text text-anchor="start" x="5.5" y="-202" font-family="Helvetica,sans-Serif" font-size="10.00">NAV::RtklibPosObs</text>
<text text-anchor="start" x="6.5" y="-187" font-family="Helvetica,sans-Serif" font-size="10.00">+</text>
<text text-anchor="start" x="21.5" y="-187" font-family="Helvetica,sans-Serif" font-size="10.00">age</text>
<text text-anchor="start" x="6.5" y="-172" font-family="Helvetica,sans-Serif" font-size="10.00">+</text>
<text text-anchor="start" x="21.5" y="-172" font-family="Helvetica,sans-Serif" font-size="10.00">ns</text>
<text text-anchor="start" x="6.5" y="-157" font-family="Helvetica,sans-Serif" font-size="10.00">+</text>
<text text-anchor="start" x="21.5" y="-157" font-family="Helvetica,sans-Serif" font-size="10.00">Q</text>
<text text-anchor="start" x="6.5" y="-142" font-family="Helvetica,sans-Serif" font-size="10.00">+</text>
<text text-anchor="start" x="21.5" y="-142" font-family="Helvetica,sans-Serif" font-size="10.00">ratio</text>
<text text-anchor="start" x="6.5" y="-127" font-family="Helvetica,sans-Serif" font-size="10.00">+</text>
<text text-anchor="start" x="21.5" y="-127" font-family="Helvetica,sans-Serif" font-size="10.00">sddn</text>
<text text-anchor="start" x="6.5" y="-112" font-family="Helvetica,sans-Serif" font-size="10.00">+</text>
<text text-anchor="start" x="21.5" y="-112" font-family="Helvetica,sans-Serif" font-size="10.00">sded</text>
<text text-anchor="start" x="6.5" y="-97" font-family="Helvetica,sans-Serif" font-size="10.00">+</text>
<text text-anchor="start" x="21.5" y="-97" font-family="Helvetica,sans-Serif" font-size="10.00">sdne</text>
<text text-anchor="start" x="6.5" y="-82" font-family="Helvetica,sans-Serif" font-size="10.00">+</text>
<text text-anchor="start" x="21.5" y="-82" font-family="Helvetica,sans-Serif" font-size="10.00">sdNED</text>
<text text-anchor="start" x="6.5" y="-67" font-family="Helvetica,sans-Serif" font-size="10.00">+</text>
<text text-anchor="start" x="21.5" y="-67" font-family="Helvetica,sans-Serif" font-size="10.00">sdvdn</text>
<text text-anchor="start" x="6.5" y="-52" font-family="Helvetica,sans-Serif" font-size="10.00">+</text>
<text text-anchor="start" x="21.5" y="-52" font-family="Helvetica,sans-Serif" font-size="10.00">sdved</text>
<text text-anchor="start" x="21.5" y="-37" font-family="Helvetica,sans-Serif" font-size="10.00">and 10 more...</text>
<text text-anchor="start" x="6.5" y="-22" font-family="Helvetica,sans-Serif" font-size="10.00">+</text>
<text text-anchor="start" x="21.5" y="-22" font-family="Helvetica,sans-Serif" font-size="10.00">parentTypes()</text>
<text text-anchor="start" x="6.5" y="-7" font-family="Helvetica,sans-Serif" font-size="10.00">+</text>
<text text-anchor="start" x="21.5" y="-7" font-family="Helvetica,sans-Serif" font-size="10.00">type()</text>
<polygon fill="#666666" stroke="#666666" points="0.5,-197 0.5,-197 101.5,-197 101.5,-197 0.5,-197"/>
<polygon fill="#666666" stroke="#666666" points="0.5,-32 0.5,-32 19.5,-32 19.5,-32 0.5,-32"/>
<polygon fill="#666666" stroke="#666666" points="19.5,-32 19.5,-32 101.5,-32 101.5,-32 19.5,-32"/>
<polygon fill="none" stroke="#666666" points="0,0 0,-214 101,-214 101,0 0,0"/>
</a>
</g>
</g>
<!-- Node2 -->
<g id="Node000002" class="node">
<title>Node2</title>
<g id="a_Node000002"><a xlink:href="classNAV_1_1PosVel.html" target="_top" xlink:title="Position, Velocity and Attitude Storage Class.">
<polygon fill="white" stroke="transparent" points="97.5,-374 3.5,-374 3.5,-250 97.5,-250 97.5,-374"/>
<text text-anchor="start" x="21.5" y="-362" font-family="Helvetica,sans-Serif" font-size="10.00">NAV::PosVel</text>
<text text-anchor="start" x="48.5" y="-347" font-family="Helvetica,sans-Serif" font-size="10.00"> </text>
<text text-anchor="start" x="7.5" y="-332" font-family="Helvetica,sans-Serif" font-size="10.00">+</text>
<text text-anchor="start" x="20.5" y="-332" font-family="Helvetica,sans-Serif" font-size="10.00">e_velocity()</text>
<text text-anchor="start" x="7.5" y="-317" font-family="Helvetica,sans-Serif" font-size="10.00">+</text>
<text text-anchor="start" x="20.5" y="-317" font-family="Helvetica,sans-Serif" font-size="10.00">n_velocity()</text>
<text text-anchor="start" x="7.5" y="-302" font-family="Helvetica,sans-Serif" font-size="10.00">+</text>
<text text-anchor="start" x="20.5" y="-302" font-family="Helvetica,sans-Serif" font-size="10.00">setVelocity_e()</text>
<text text-anchor="start" x="7.5" y="-287" font-family="Helvetica,sans-Serif" font-size="10.00">+</text>
<text text-anchor="start" x="20.5" y="-287" font-family="Helvetica,sans-Serif" font-size="10.00">setVelocity_n()</text>
<text text-anchor="start" x="7.5" y="-272" font-family="Helvetica,sans-Serif" font-size="10.00">+</text>
<text text-anchor="start" x="20.5" y="-272" font-family="Helvetica,sans-Serif" font-size="10.00">parentTypes()</text>
<text text-anchor="start" x="7.5" y="-257" font-family="Helvetica,sans-Serif" font-size="10.00">+</text>
<text text-anchor="start" x="20.5" y="-257" font-family="Helvetica,sans-Serif" font-size="10.00">type()</text>
<polygon fill="#666666" stroke="#666666" points="3.5,-357 3.5,-357 97.5,-357 97.5,-357 3.5,-357"/>
<polygon fill="#666666" stroke="#666666" points="3.5,-342 3.5,-342 97.5,-342 97.5,-342 3.5,-342"/>
<polygon fill="none" stroke="#666666" points="3.5,-250 3.5,-374 97.5,-374 97.5,-250 3.5,-250"/>
</a>
</g>
</g>
<!-- Node2&#45;&gt;Node1 -->
<g id="edge1_Node000001_Node000002" class="edge">
<title>Node2&#45;&gt;Node1</title>
<g id="a_edge1_Node000001_Node000002"><a xlink:title=" ">
<path fill="none" stroke="#63b8ff" d="M50.5,-239.81C50.5,-231.48 50.5,-222.84 50.5,-214.16"/>
<polygon fill="none" stroke="#63b8ff" points="47,-239.82 50.5,-249.82 54,-239.82 47,-239.82"/>
</a>
</g>
</g>
<!-- Node3 -->
<g id="Node000003" class="node">
<title>Node3</title>
<g id="a_Node000003"><a xlink:href="classNAV_1_1Pos.html" target="_top" xlink:title="Position, Velocity and Attitude Storage Class.">
<polygon fill="white" stroke="transparent" points="100.5,-609 0.5,-609 0.5,-410 100.5,-410 100.5,-609"/>
<text text-anchor="start" x="29" y="-596.5" font-family="Helvetica,sans-Serif" font-size="10.00">NAV::Pos</text>
<text text-anchor="start" x="48.5" y="-581.5" font-family="Helvetica,sans-Serif" font-size="10.00"> </text>
<text text-anchor="start" x="4.5" y="-566.5" font-family="Helvetica,sans-Serif" font-size="10.00">+</text>
<text text-anchor="start" x="17.5" y="-566.5" font-family="Helvetica,sans-Serif" font-size="10.00">altitude()</text>
<text text-anchor="start" x="4.5" y="-551.5" font-family="Helvetica,sans-Serif" font-size="10.00">+</text>
<text text-anchor="start" x="17.5" y="-551.5" font-family="Helvetica,sans-Serif" font-size="10.00">e_position()</text>
<text text-anchor="start" x="4.5" y="-536.5" font-family="Helvetica,sans-Serif" font-size="10.00">+</text>
<text text-anchor="start" x="17.5" y="-536.5" font-family="Helvetica,sans-Serif" font-size="10.00">e_Quat_n()</text>
<text text-anchor="start" x="4.5" y="-521.5" font-family="Helvetica,sans-Serif" font-size="10.00">+</text>
<text text-anchor="start" x="17.5" y="-521.5" font-family="Helvetica,sans-Serif" font-size="10.00">latitude()</text>
<text text-anchor="start" x="4.5" y="-506.5" font-family="Helvetica,sans-Serif" font-size="10.00">+</text>
<text text-anchor="start" x="17.5" y="-506.5" font-family="Helvetica,sans-Serif" font-size="10.00">lla_position()</text>
<text text-anchor="start" x="4.5" y="-491.5" font-family="Helvetica,sans-Serif" font-size="10.00">+</text>
<text text-anchor="start" x="17.5" y="-491.5" font-family="Helvetica,sans-Serif" font-size="10.00">longitude()</text>
<text text-anchor="start" x="4.5" y="-476.5" font-family="Helvetica,sans-Serif" font-size="10.00">+</text>
<text text-anchor="start" x="17.5" y="-476.5" font-family="Helvetica,sans-Serif" font-size="10.00">n_Quat_e()</text>
<text text-anchor="start" x="4.5" y="-461.5" font-family="Helvetica,sans-Serif" font-size="10.00">+</text>
<text text-anchor="start" x="17.5" y="-461.5" font-family="Helvetica,sans-Serif" font-size="10.00">setPosition_e()</text>
<text text-anchor="start" x="4.5" y="-446.5" font-family="Helvetica,sans-Serif" font-size="10.00">+</text>
<text text-anchor="start" x="17.5" y="-446.5" font-family="Helvetica,sans-Serif" font-size="10.00">setPosition_lla()</text>
<text text-anchor="start" x="4.5" y="-431.5" font-family="Helvetica,sans-Serif" font-size="10.00">+</text>
<text text-anchor="start" x="17.5" y="-431.5" font-family="Helvetica,sans-Serif" font-size="10.00">parentTypes()</text>
<text text-anchor="start" x="4.5" y="-416.5" font-family="Helvetica,sans-Serif" font-size="10.00">+</text>
<text text-anchor="start" x="17.5" y="-416.5" font-family="Helvetica,sans-Serif" font-size="10.00">type()</text>
<polygon fill="#666666" stroke="#666666" points="0.5,-591.5 0.5,-591.5 100.5,-591.5 100.5,-591.5 0.5,-591.5"/>
<polygon fill="#666666" stroke="#666666" points="0.5,-576.5 0.5,-576.5 100.5,-576.5 100.5,-576.5 0.5,-576.5"/>
<polygon fill="none" stroke="#666666" points="0.5,-410 0.5,-609 100.5,-609 100.5,-410 0.5,-410"/>
</a>
</g>
</g>
<!-- Node3&#45;&gt;Node2 -->
<g id="edge2_Node000002_Node000003" class="edge">
<title>Node3&#45;&gt;Node2</title>
<g id="a_edge2_Node000002_Node000003"><a xlink:title=" ">
<path fill="none" stroke="#63b8ff" d="M50.5,-399.66C50.5,-390.98 50.5,-382.42 50.5,-374.25"/>
<polygon fill="none" stroke="#63b8ff" points="47,-399.89 50.5,-409.89 54,-399.89 47,-399.89"/>
</a>
</g>
</g>
<!-- Node4 -->
<g id="Node000004" class="node">
<title>Node4</title>
<g id="a_Node000004"><a xlink:href="classNAV_1_1NodeData.html" target="_top" xlink:title="Parent class for all data transmitted over Flow pins.">
<polygon fill="white" stroke="transparent" points="94.5,-799 6.5,-799 6.5,-645 94.5,-645 94.5,-799"/>
<text text-anchor="start" x="13" y="-787" font-family="Helvetica,sans-Serif" font-size="10.00">NAV::NodeData</text>
<text text-anchor="start" x="10.5" y="-772" font-family="Helvetica,sans-Serif" font-size="10.00">+</text>
<text text-anchor="start" x="23.5" y="-772" font-family="Helvetica,sans-Serif" font-size="10.00">insTime</text>
<text text-anchor="start" x="10.5" y="-757" font-family="Helvetica,sans-Serif" font-size="10.00">+</text>
<text text-anchor="start" x="23.5" y="-757" font-family="Helvetica,sans-Serif" font-size="10.00">NodeData()</text>
<text text-anchor="start" x="10.5" y="-742" font-family="Helvetica,sans-Serif" font-size="10.00">+</text>
<text text-anchor="start" x="23.5" y="-742" font-family="Helvetica,sans-Serif" font-size="10.00">NodeData()</text>
<text text-anchor="start" x="10.5" y="-727" font-family="Helvetica,sans-Serif" font-size="10.00">+</text>
<text text-anchor="start" x="23.5" y="-727" font-family="Helvetica,sans-Serif" font-size="10.00">NodeData()</text>
<text text-anchor="start" x="10.5" y="-712" font-family="Helvetica,sans-Serif" font-size="10.00">+</text>
<text text-anchor="start" x="23.5" y="-712" font-family="Helvetica,sans-Serif" font-size="10.00">operator=()</text>
<text text-anchor="start" x="10.5" y="-697" font-family="Helvetica,sans-Serif" font-size="10.00">+</text>
<text text-anchor="start" x="23.5" y="-697" font-family="Helvetica,sans-Serif" font-size="10.00">operator=()</text>
<text text-anchor="start" x="10.5" y="-682" font-family="Helvetica,sans-Serif" font-size="10.00">+</text>
<text text-anchor="start" x="23.5" y="-682" font-family="Helvetica,sans-Serif" font-size="10.00">~NodeData()</text>
<text text-anchor="start" x="10.5" y="-667" font-family="Helvetica,sans-Serif" font-size="10.00">+</text>
<text text-anchor="start" x="23.5" y="-667" font-family="Helvetica,sans-Serif" font-size="10.00">parentTypes()</text>
<text text-anchor="start" x="10.5" y="-652" font-family="Helvetica,sans-Serif" font-size="10.00">+</text>
<text text-anchor="start" x="23.5" y="-652" font-family="Helvetica,sans-Serif" font-size="10.00">type()</text>
<polygon fill="#666666" stroke="#666666" points="6.5,-782 6.5,-782 94.5,-782 94.5,-782 6.5,-782"/>
<polygon fill="#666666" stroke="#666666" points="6.5,-767 6.5,-767 21.5,-767 21.5,-767 6.5,-767"/>
<polygon fill="#666666" stroke="#666666" points="21.5,-767 21.5,-767 94.5,-767 94.5,-767 21.5,-767"/>
<polygon fill="none" stroke="#666666" points="6.5,-645 6.5,-799 94.5,-799 94.5,-645 6.5,-645"/>
</a>
</g>
</g>
<!-- Node4&#45;&gt;Node3 -->
<g id="edge3_Node000003_Node000004" class="edge">
<title>Node4&#45;&gt;Node3</title>
<g id="a_edge3_Node000003_Node000004"><a xlink:title=" ">
<path fill="none" stroke="#63b8ff" d="M50.5,-634.6C50.5,-626.23 50.5,-617.7 50.5,-609.22"/>
<polygon fill="none" stroke="#63b8ff" points="47,-634.71 50.5,-644.71 54,-634.71 47,-634.71"/>
</a>
</g>
</g>
</g>
</svg>
