<?xml version="1.0" encoding="UTF-8" standalone="no"?>
<!DOCTYPE svg PUBLIC "-//W3C//DTD SVG 1.1//EN"
 "http://www.w3.org/Graphics/SVG/1.1/DTD/svg11.dtd">
<!-- Generated by graphviz version 2.43.0 (0)
 -->
<!-- Title: NAV::VectorNavSensor Pages: 1 -->
<svg width="278pt" height="872pt"
 viewBox="0.00 0.00 278.00 872.00" xmlns="http://www.w3.org/2000/svg" xmlns:xlink="http://www.w3.org/1999/xlink">
<g id="graph0" class="graph" transform="scale(1 1) rotate(0) translate(4 868)">
<title>NAV::VectorNavSensor</title>
<!-- Node1 -->
<g id="Node000001" class="node">
<title>Node1</title>
<g id="a_Node000001"><a xlink:title="Vector Nav Sensor Class.">
<polygon fill="#999999" stroke="transparent" points="206.5,-244 85.5,-244 85.5,0 206.5,0 206.5,-244"/>
<text text-anchor="start" x="92" y="-232" font-family="Helvetica,sans-Serif" font-size="10.00">NAV::VectorNavSensor</text>
<text text-anchor="start" x="90" y="-217" font-family="Helvetica,sans-Serif" font-size="10.00">+</text>
<text text-anchor="start" x="103" y="-217" font-family="Helvetica,sans-Serif" font-size="10.00">lastGnssTime</text>
<text text-anchor="start" x="90" y="-202" font-family="Helvetica,sans-Serif" font-size="10.00">+</text>
<text text-anchor="start" x="103" y="-202" font-family="Helvetica,sans-Serif" font-size="10.00">timeSinceStartup</text>
<text text-anchor="start" x="90" y="-187" font-family="Helvetica,sans-Serif" font-size="10.00">+</text>
<text text-anchor="start" x="103" y="-187" font-family="Helvetica,sans-Serif" font-size="10.00">guiConfig()</text>
<text text-anchor="start" x="90" y="-172" font-family="Helvetica,sans-Serif" font-size="10.00">+</text>
<text text-anchor="start" x="103" y="-172" font-family="Helvetica,sans-Serif" font-size="10.00">operator=()</text>
<text text-anchor="start" x="90" y="-157" font-family="Helvetica,sans-Serif" font-size="10.00">+</text>
<text text-anchor="start" x="103" y="-157" font-family="Helvetica,sans-Serif" font-size="10.00">operator=()</text>
<text text-anchor="start" x="90" y="-142" font-family="Helvetica,sans-Serif" font-size="10.00">+</text>
<text text-anchor="start" x="103" y="-142" font-family="Helvetica,sans-Serif" font-size="10.00">resetNode()</text>
<text text-anchor="start" x="90" y="-127" font-family="Helvetica,sans-Serif" font-size="10.00">+</text>
<text text-anchor="start" x="103" y="-127" font-family="Helvetica,sans-Serif" font-size="10.00">restore()</text>
<text text-anchor="start" x="90" y="-112" font-family="Helvetica,sans-Serif" font-size="10.00">+</text>
<text text-anchor="start" x="103" y="-112" font-family="Helvetica,sans-Serif" font-size="10.00">save()</text>
<text text-anchor="start" x="90" y="-97" font-family="Helvetica,sans-Serif" font-size="10.00">+</text>
<text text-anchor="start" x="103" y="-97" font-family="Helvetica,sans-Serif" font-size="10.00">type()</text>
<text text-anchor="start" x="90" y="-82" font-family="Helvetica,sans-Serif" font-size="10.00">+</text>
<text text-anchor="start" x="103" y="-82" font-family="Helvetica,sans-Serif" font-size="10.00">VectorNavSensor()</text>
<text text-anchor="start" x="90" y="-67" font-family="Helvetica,sans-Serif" font-size="10.00">+</text>
<text text-anchor="start" x="103" y="-67" font-family="Helvetica,sans-Serif" font-size="10.00">VectorNavSensor()</text>
<text text-anchor="start" x="90" y="-52" font-family="Helvetica,sans-Serif" font-size="10.00">+</text>
<text text-anchor="start" x="103" y="-52" font-family="Helvetica,sans-Serif" font-size="10.00">VectorNavSensor()</text>
<text text-anchor="start" x="90" y="-37" font-family="Helvetica,sans-Serif" font-size="10.00">+</text>
<text text-anchor="start" x="103" y="-37" font-family="Helvetica,sans-Serif" font-size="10.00">~VectorNavSensor()</text>
<text text-anchor="start" x="90" y="-22" font-family="Helvetica,sans-Serif" font-size="10.00">+</text>
<text text-anchor="start" x="103" y="-22" font-family="Helvetica,sans-Serif" font-size="10.00">category()</text>
<text text-anchor="start" x="90" y="-7" font-family="Helvetica,sans-Serif" font-size="10.00">+</text>
<text text-anchor="start" x="103" y="-7" font-family="Helvetica,sans-Serif" font-size="10.00">typeStatic()</text>
<polygon fill="#666666" stroke="#666666" points="86,-227 86,-227 207,-227 207,-227 86,-227"/>
<polygon fill="#666666" stroke="#666666" points="86,-197 86,-197 101,-197 101,-197 86,-197"/>
<polygon fill="#666666" stroke="#666666" points="101,-197 101,-197 207,-197 207,-197 101,-197"/>
<polygon fill="none" stroke="#666666" points="85.5,0 85.5,-244 206.5,-244 206.5,0 85.5,0"/>
</a>
</g>
</g>
<!-- Node2 -->
<g id="Node000002" class="node">
<title>Node2</title>
<g id="a_Node000002"><a xlink:href="classNAV_1_1Imu.html" target="_top" xlink:title="Abstract IMU Class.">
<polygon fill="white" stroke="transparent" points="127.5,-471.5 40.5,-471.5 40.5,-287.5 127.5,-287.5 127.5,-471.5"/>
<text text-anchor="start" x="62" y="-459.5" font-family="Helvetica,sans-Serif" font-size="10.00">NAV::Imu</text>
<text text-anchor="start" x="45" y="-444.5" font-family="Helvetica,sans-Serif" font-size="10.00">#</text>
<text text-anchor="start" x="58" y="-444.5" font-family="Helvetica,sans-Serif" font-size="10.00">_imuPos</text>
<text text-anchor="start" x="45" y="-429.5" font-family="Helvetica,sans-Serif" font-size="10.00">+</text>
<text text-anchor="start" x="58" y="-429.5" font-family="Helvetica,sans-Serif" font-size="10.00">guiConfig()</text>
<text text-anchor="start" x="45" y="-414.5" font-family="Helvetica,sans-Serif" font-size="10.00">+</text>
<text text-anchor="start" x="58" y="-414.5" font-family="Helvetica,sans-Serif" font-size="10.00">Imu()</text>
<text text-anchor="start" x="45" y="-399.5" font-family="Helvetica,sans-Serif" font-size="10.00">+</text>
<text text-anchor="start" x="58" y="-399.5" font-family="Helvetica,sans-Serif" font-size="10.00">Imu()</text>
<text text-anchor="start" x="45" y="-384.5" font-family="Helvetica,sans-Serif" font-size="10.00">+</text>
<text text-anchor="start" x="58" y="-384.5" font-family="Helvetica,sans-Serif" font-size="10.00">imuPosition()</text>
<text text-anchor="start" x="45" y="-369.5" font-family="Helvetica,sans-Serif" font-size="10.00">+</text>
<text text-anchor="start" x="58" y="-369.5" font-family="Helvetica,sans-Serif" font-size="10.00">operator=()</text>
<text text-anchor="start" x="45" y="-354.5" font-family="Helvetica,sans-Serif" font-size="10.00">+</text>
<text text-anchor="start" x="58" y="-354.5" font-family="Helvetica,sans-Serif" font-size="10.00">operator=()</text>
<text text-anchor="start" x="45" y="-339.5" font-family="Helvetica,sans-Serif" font-size="10.00">+</text>
<text text-anchor="start" x="58" y="-339.5" font-family="Helvetica,sans-Serif" font-size="10.00">restore()</text>
<text text-anchor="start" x="45" y="-324.5" font-family="Helvetica,sans-Serif" font-size="10.00">+</text>
<text text-anchor="start" x="58" y="-324.5" font-family="Helvetica,sans-Serif" font-size="10.00">save()</text>
<text text-anchor="start" x="45" y="-309.5" font-family="Helvetica,sans-Serif" font-size="10.00">+</text>
<text text-anchor="start" x="58" y="-309.5" font-family="Helvetica,sans-Serif" font-size="10.00">~Imu()</text>
<text text-anchor="start" x="45" y="-294.5" font-family="Helvetica,sans-Serif" font-size="10.00">#</text>
<text text-anchor="start" x="58" y="-294.5" font-family="Helvetica,sans-Serif" font-size="10.00">Imu()</text>
<polygon fill="#666666" stroke="#666666" points="41,-454.5 41,-454.5 128,-454.5 128,-454.5 41,-454.5"/>
<polygon fill="#666666" stroke="#666666" points="41,-439.5 41,-439.5 56,-439.5 56,-439.5 41,-439.5"/>
<polygon fill="#666666" stroke="#666666" points="56,-439.5 56,-439.5 128,-439.5 128,-439.5 56,-439.5"/>
<polygon fill="none" stroke="#666666" points="40.5,-287.5 40.5,-471.5 127.5,-471.5 127.5,-287.5 40.5,-287.5"/>
</a>
</g>
</g>
<!-- Node2&#45;&gt;Node1 -->
<g id="edge1_Node000001_Node000002" class="edge">
<title>Node2&#45;&gt;Node1</title>
<g id="a_edge1_Node000001_Node000002"><a xlink:title=" ">
<path fill="none" stroke="#63b8ff" d="M108.54,-277.37C111.2,-266.42 113.92,-255.19 116.63,-244.03"/>
<polygon fill="none" stroke="#63b8ff" points="105.08,-276.8 106.12,-287.34 111.88,-278.45 105.08,-276.8"/>
</a>
</g>
</g>
<!-- Node3 -->
<g id="Node000003" class="node">
<title>Node3</title>
<g id="a_Node000003"><a xlink:href="classNAV_1_1Node.html" target="_top" xlink:title="Abstract parent class for all nodes.">
<polygon fill="white" stroke="transparent" points="168,-864 0,-864 0,-515 168,-515 168,-864"/>
<text text-anchor="start" x="58" y="-851.5" font-family="Helvetica,sans-Serif" font-size="10.00">NAV::Node</text>
<text text-anchor="start" x="4" y="-836.5" font-family="Helvetica,sans-Serif" font-size="10.00">+</text>
<text text-anchor="start" x="17" y="-836.5" font-family="Helvetica,sans-Serif" font-size="10.00">callbacksEnabled</text>
<text text-anchor="start" x="4" y="-821.5" font-family="Helvetica,sans-Serif" font-size="10.00">+</text>
<text text-anchor="start" x="17" y="-821.5" font-family="Helvetica,sans-Serif" font-size="10.00">id</text>
<text text-anchor="start" x="4" y="-806.5" font-family="Helvetica,sans-Serif" font-size="10.00">+</text>
<text text-anchor="start" x="17" y="-806.5" font-family="Helvetica,sans-Serif" font-size="10.00">inputPins</text>
<text text-anchor="start" x="4" y="-791.5" font-family="Helvetica,sans-Serif" font-size="10.00">+</text>
<text text-anchor="start" x="17" y="-791.5" font-family="Helvetica,sans-Serif" font-size="10.00">kind</text>
<text text-anchor="start" x="4" y="-776.5" font-family="Helvetica,sans-Serif" font-size="10.00">+</text>
<text text-anchor="start" x="17" y="-776.5" font-family="Helvetica,sans-Serif" font-size="10.00">name</text>
<text text-anchor="start" x="4" y="-761.5" font-family="Helvetica,sans-Serif" font-size="10.00">+</text>
<text text-anchor="start" x="17" y="-761.5" font-family="Helvetica,sans-Serif" font-size="10.00">outputPins</text>
<text text-anchor="start" x="4" y="-746.5" font-family="Helvetica,sans-Serif" font-size="10.00">+</text>
<text text-anchor="start" x="17" y="-746.5" font-family="Helvetica,sans-Serif" font-size="10.00">pollEvents</text>
<text text-anchor="start" x="4" y="-731.5" font-family="Helvetica,sans-Serif" font-size="10.00">#</text>
<text text-anchor="start" x="17" y="-731.5" font-family="Helvetica,sans-Serif" font-size="10.00">_guiConfigDefaultWindowSize</text>
<text text-anchor="start" x="4" y="-716.5" font-family="Helvetica,sans-Serif" font-size="10.00">#</text>
<text text-anchor="start" x="17" y="-716.5" font-family="Helvetica,sans-Serif" font-size="10.00">_hasConfig</text>
<text text-anchor="start" x="4" y="-701.5" font-family="Helvetica,sans-Serif" font-size="10.00">#</text>
<text text-anchor="start" x="17" y="-701.5" font-family="Helvetica,sans-Serif" font-size="10.00">_lockConfigDuringRun</text>
<text text-anchor="start" x="4" y="-686.5" font-family="Helvetica,sans-Serif" font-size="10.00">+</text>
<text text-anchor="start" x="17" y="-686.5" font-family="Helvetica,sans-Serif" font-size="10.00">afterCreateLink()</text>
<text text-anchor="start" x="4" y="-671.5" font-family="Helvetica,sans-Serif" font-size="10.00">+</text>
<text text-anchor="start" x="17" y="-671.5" font-family="Helvetica,sans-Serif" font-size="10.00">afterDeleteLink()</text>
<text text-anchor="start" x="4" y="-656.5" font-family="Helvetica,sans-Serif" font-size="10.00">+</text>
<text text-anchor="start" x="17" y="-656.5" font-family="Helvetica,sans-Serif" font-size="10.00">deinitialize()</text>
<text text-anchor="start" x="4" y="-641.5" font-family="Helvetica,sans-Serif" font-size="10.00">+</text>
<text text-anchor="start" x="17" y="-641.5" font-family="Helvetica,sans-Serif" font-size="10.00">doDeinitialize()</text>
<text text-anchor="start" x="4" y="-626.5" font-family="Helvetica,sans-Serif" font-size="10.00">+</text>
<text text-anchor="start" x="17" y="-626.5" font-family="Helvetica,sans-Serif" font-size="10.00">doDisable()</text>
<text text-anchor="start" x="4" y="-611.5" font-family="Helvetica,sans-Serif" font-size="10.00">+</text>
<text text-anchor="start" x="17" y="-611.5" font-family="Helvetica,sans-Serif" font-size="10.00">doEnable()</text>
<text text-anchor="start" x="4" y="-596.5" font-family="Helvetica,sans-Serif" font-size="10.00">+</text>
<text text-anchor="start" x="17" y="-596.5" font-family="Helvetica,sans-Serif" font-size="10.00">doInitialize()</text>
<text text-anchor="start" x="4" y="-581.5" font-family="Helvetica,sans-Serif" font-size="10.00">+</text>
<text text-anchor="start" x="17" y="-581.5" font-family="Helvetica,sans-Serif" font-size="10.00">doReinitialize()</text>
<text text-anchor="start" x="4" y="-566.5" font-family="Helvetica,sans-Serif" font-size="10.00">+</text>
<text text-anchor="start" x="17" y="-566.5" font-family="Helvetica,sans-Serif" font-size="10.00">flush()</text>
<text text-anchor="start" x="4" y="-551.5" font-family="Helvetica,sans-Serif" font-size="10.00">+</text>
<text text-anchor="start" x="17" y="-551.5" font-family="Helvetica,sans-Serif" font-size="10.00">getInputValue()</text>
<text text-anchor="start" x="17" y="-536.5" font-family="Helvetica,sans-Serif" font-size="10.00">and 32 more...</text>
<text text-anchor="start" x="4" y="-521.5" font-family="Helvetica,sans-Serif" font-size="10.00">+</text>
<text text-anchor="start" x="17" y="-521.5" font-family="Helvetica,sans-Serif" font-size="10.00">toString()</text>
<polygon fill="#666666" stroke="#666666" points="0,-846.5 0,-846.5 168,-846.5 168,-846.5 0,-846.5"/>
<polygon fill="#666666" stroke="#666666" points="0,-696.5 0,-696.5 15,-696.5 15,-696.5 0,-696.5"/>
<polygon fill="#666666" stroke="#666666" points="15,-696.5 15,-696.5 168,-696.5 168,-696.5 15,-696.5"/>
<polygon fill="none" stroke="#666666" points="0,-515 0,-864 168,-864 168,-515 0,-515"/>
</a>
</g>
</g>
<!-- Node3&#45;&gt;Node2 -->
<g id="edge2_Node000002_Node000003" class="edge">
<title>Node3&#45;&gt;Node2</title>
<g id="a_edge2_Node000002_Node000003"><a xlink:title=" ">
<path fill="none" stroke="#63b8ff" d="M84,-504.38C84,-493.21 84,-482.26 84,-471.78"/>
<polygon fill="none" stroke="#63b8ff" points="80.5,-504.7 84,-514.7 87.5,-504.7 80.5,-504.7"/>
</a>
</g>
</g>
<!-- Node4 -->
<g id="Node000004" class="node">
<title>Node4</title>
<g id="a_Node000004"><a xlink:href="classNAV_1_1UartSensor.html" target="_top" xlink:title="Abstract Uart Sensor Class.">
<polygon fill="white" stroke="transparent" points="270,-479 146,-479 146,-280 270,-280 270,-479"/>
<text text-anchor="start" x="168" y="-466.5" font-family="Helvetica,sans-Serif" font-size="10.00">NAV::UartSensor</text>
<text text-anchor="start" x="150" y="-451.5" font-family="Helvetica,sans-Serif" font-size="10.00">#</text>
<text text-anchor="start" x="163" y="-451.5" font-family="Helvetica,sans-Serif" font-size="10.00">_selectedBaudrate</text>
<text text-anchor="start" x="150" y="-436.5" font-family="Helvetica,sans-Serif" font-size="10.00">#</text>
<text text-anchor="start" x="163" y="-436.5" font-family="Helvetica,sans-Serif" font-size="10.00">_sensorPort</text>
<text text-anchor="start" x="150" y="-421.5" font-family="Helvetica,sans-Serif" font-size="10.00">+</text>
<text text-anchor="start" x="163" y="-421.5" font-family="Helvetica,sans-Serif" font-size="10.00">operator=()</text>
<text text-anchor="start" x="150" y="-406.5" font-family="Helvetica,sans-Serif" font-size="10.00">+</text>
<text text-anchor="start" x="163" y="-406.5" font-family="Helvetica,sans-Serif" font-size="10.00">operator=()</text>
<text text-anchor="start" x="150" y="-391.5" font-family="Helvetica,sans-Serif" font-size="10.00">+</text>
<text text-anchor="start" x="163" y="-391.5" font-family="Helvetica,sans-Serif" font-size="10.00">UartSensor()</text>
<text text-anchor="start" x="150" y="-376.5" font-family="Helvetica,sans-Serif" font-size="10.00">+</text>
<text text-anchor="start" x="163" y="-376.5" font-family="Helvetica,sans-Serif" font-size="10.00">UartSensor()</text>
<text text-anchor="start" x="150" y="-361.5" font-family="Helvetica,sans-Serif" font-size="10.00">+</text>
<text text-anchor="start" x="163" y="-361.5" font-family="Helvetica,sans-Serif" font-size="10.00">~UartSensor()</text>
<text text-anchor="start" x="150" y="-346.5" font-family="Helvetica,sans-Serif" font-size="10.00">#</text>
<text text-anchor="start" x="163" y="-346.5" font-family="Helvetica,sans-Serif" font-size="10.00">restore()</text>
<text text-anchor="start" x="150" y="-331.5" font-family="Helvetica,sans-Serif" font-size="10.00">#</text>
<text text-anchor="start" x="163" y="-331.5" font-family="Helvetica,sans-Serif" font-size="10.00">save()</text>
<text text-anchor="start" x="150" y="-316.5" font-family="Helvetica,sans-Serif" font-size="10.00">#</text>
<text text-anchor="start" x="163" y="-316.5" font-family="Helvetica,sans-Serif" font-size="10.00">sensorBaudrate()</text>
<text text-anchor="start" x="150" y="-301.5" font-family="Helvetica,sans-Serif" font-size="10.00">#</text>
<text text-anchor="start" x="163" y="-301.5" font-family="Helvetica,sans-Serif" font-size="10.00">UartSensor()</text>
<text text-anchor="start" x="150" y="-286.5" font-family="Helvetica,sans-Serif" font-size="10.00">#</text>
<text text-anchor="start" x="163" y="-286.5" font-family="Helvetica,sans-Serif" font-size="10.00">baudrate2Selection()</text>
<polygon fill="#666666" stroke="#666666" points="146,-461.5 146,-461.5 270,-461.5 270,-461.5 146,-461.5"/>
<polygon fill="#666666" stroke="#666666" points="146,-431.5 146,-431.5 161,-431.5 161,-431.5 146,-431.5"/>
<polygon fill="#666666" stroke="#666666" points="161,-431.5 161,-431.5 270,-431.5 270,-431.5 161,-431.5"/>
<polygon fill="none" stroke="#666666" points="146,-280 146,-479 270,-479 270,-280 146,-280"/>
</a>
</g>
</g>
<!-- Node4&#45;&gt;Node1 -->
<g id="edge3_Node000001_Node000004" class="edge">
<title>Node4&#45;&gt;Node1</title>
<g id="a_edge3_Node000001_Node000004"><a xlink:title=" ">
<path fill="none" stroke="#63b8ff" d="M181.63,-269.81C179.57,-261.32 177.48,-252.71 175.4,-244.15"/>
<polygon fill="none" stroke="#63b8ff" points="178.27,-270.82 184.03,-279.72 185.07,-269.17 178.27,-270.82"/>
</a>
</g>
</g>
</g>
</svg>
