<?xml version="1.0" encoding="UTF-8" standalone="no"?>
<!DOCTYPE svg PUBLIC "-//W3C//DTD SVG 1.1//EN"
 "http://www.w3.org/Graphics/SVG/1.1/DTD/svg11.dtd">
<!-- Generated by graphviz version 2.43.0 (0)
 -->
<!-- Title: NAV::ImuObsWDelta Pages: 1 -->
<svg width="124pt" height="485pt"
 viewBox="0.00 0.00 124.00 485.00" xmlns="http://www.w3.org/2000/svg" xmlns:xlink="http://www.w3.org/1999/xlink">
<g id="graph0" class="graph" transform="scale(1 1) rotate(0) translate(4 481)">
<title>NAV::ImuObsWDelta</title>
<!-- Node1 -->
<g id="node1" class="node">
<title>Node1</title>
<g id="a_node1"><a xlink:title="VectorNav Observation storage Class.">
<polygon fill="#999999" stroke="#666666" points="0,-0.5 0,-101.5 116,-101.5 116,-0.5 0,-0.5"/>
<text text-anchor="middle" x="58" y="-89.5" font-family="Helvetica,sans-Serif" font-size="10.00">NAV::ImuObsWDelta</text>
<polyline fill="none" stroke="#666666" points="0,-82.5 116,-82.5 "/>
<text text-anchor="start" x="8" y="-70.5" font-family="Helvetica,sans-Serif" font-size="10.00">+ dtheta</text>
<text text-anchor="start" x="8" y="-59.5" font-family="Helvetica,sans-Serif" font-size="10.00">+ dtime</text>
<text text-anchor="start" x="8" y="-48.5" font-family="Helvetica,sans-Serif" font-size="10.00">+ dvel</text>
<polyline fill="none" stroke="#666666" points="0,-41.5 116,-41.5 "/>
<text text-anchor="start" x="8" y="-29.5" font-family="Helvetica,sans-Serif" font-size="10.00">+ ImuObsWDelta()</text>
<text text-anchor="start" x="8" y="-18.5" font-family="Helvetica,sans-Serif" font-size="10.00">+ parentTypes()</text>
<text text-anchor="start" x="8" y="-7.5" font-family="Helvetica,sans-Serif" font-size="10.00">+ type()</text>
</a>
</g>
</g>
<!-- Node2 -->
<g id="node2" class="node">
<title>Node2</title>
<g id="a_node2"><a xlink:href="classNAV_1_1ImuObs.html" target="_top" xlink:title="IMU Observation storage class.">
<polygon fill="white" stroke="#666666" points="1.5,-138.5 1.5,-305.5 114.5,-305.5 114.5,-138.5 1.5,-138.5"/>
<text text-anchor="middle" x="58" y="-293.5" font-family="Helvetica,sans-Serif" font-size="10.00">NAV::ImuObs</text>
<polyline fill="none" stroke="#666666" points="1.5,-286.5 114.5,-286.5 "/>
<text text-anchor="start" x="9.5" y="-274.5" font-family="Helvetica,sans-Serif" font-size="10.00">+ accelCompXYZ</text>
<text text-anchor="start" x="9.5" y="-263.5" font-family="Helvetica,sans-Serif" font-size="10.00">+ accelUncompXYZ</text>
<text text-anchor="start" x="9.5" y="-252.5" font-family="Helvetica,sans-Serif" font-size="10.00">+ gyroCompXYZ</text>
<text text-anchor="start" x="9.5" y="-241.5" font-family="Helvetica,sans-Serif" font-size="10.00">+ gyroUncompXYZ</text>
<text text-anchor="start" x="9.5" y="-230.5" font-family="Helvetica,sans-Serif" font-size="10.00">+ imuPos</text>
<text text-anchor="start" x="9.5" y="-219.5" font-family="Helvetica,sans-Serif" font-size="10.00">+ magCompXYZ</text>
<text text-anchor="start" x="9.5" y="-208.5" font-family="Helvetica,sans-Serif" font-size="10.00">+ magUncompXYZ</text>
<text text-anchor="start" x="9.5" y="-197.5" font-family="Helvetica,sans-Serif" font-size="10.00">+ temperature</text>
<text text-anchor="start" x="9.5" y="-186.5" font-family="Helvetica,sans-Serif" font-size="10.00">+ timeSinceStartup</text>
<polyline fill="none" stroke="#666666" points="1.5,-179.5 114.5,-179.5 "/>
<text text-anchor="start" x="9.5" y="-167.5" font-family="Helvetica,sans-Serif" font-size="10.00">+ ImuObs()</text>
<text text-anchor="start" x="9.5" y="-156.5" font-family="Helvetica,sans-Serif" font-size="10.00">+ parentTypes()</text>
<text text-anchor="start" x="9.5" y="-145.5" font-family="Helvetica,sans-Serif" font-size="10.00">+ type()</text>
</a>
</g>
</g>
<!-- Node2&#45;&gt;Node1 -->
<g id="edge1" class="edge">
<title>Node2&#45;&gt;Node1</title>
<path fill="none" stroke="#63b8ff" d="M58,-128.47C58,-119.28 58,-110.21 58,-101.71"/>
<polygon fill="none" stroke="#63b8ff" points="54.5,-128.48 58,-138.48 61.5,-128.48 54.5,-128.48"/>
</g>
<!-- Node3 -->
<g id="node3" class="node">
<title>Node3</title>
<g id="a_node3"><a xlink:href="classNAV_1_1NodeData.html" target="_top" xlink:title="Parent class for all data transmitted over Flow pins.">
<polygon fill="white" stroke="#666666" points="10.5,-342.5 10.5,-476.5 105.5,-476.5 105.5,-342.5 10.5,-342.5"/>
<text text-anchor="middle" x="58" y="-464.5" font-family="Helvetica,sans-Serif" font-size="10.00">NAV::NodeData</text>
<polyline fill="none" stroke="#666666" points="10.5,-457.5 105.5,-457.5 "/>
<text text-anchor="start" x="18.5" y="-445.5" font-family="Helvetica,sans-Serif" font-size="10.00">+ insTime</text>
<polyline fill="none" stroke="#666666" points="10.5,-438.5 105.5,-438.5 "/>
<text text-anchor="start" x="18.5" y="-426.5" font-family="Helvetica,sans-Serif" font-size="10.00">+ NodeData()</text>
<text text-anchor="start" x="18.5" y="-415.5" font-family="Helvetica,sans-Serif" font-size="10.00">+ NodeData()</text>
<text text-anchor="start" x="18.5" y="-404.5" font-family="Helvetica,sans-Serif" font-size="10.00">+ NodeData()</text>
<text text-anchor="start" x="18.5" y="-393.5" font-family="Helvetica,sans-Serif" font-size="10.00">+ operator=()</text>
<text text-anchor="start" x="18.5" y="-382.5" font-family="Helvetica,sans-Serif" font-size="10.00">+ operator=()</text>
<text text-anchor="start" x="18.5" y="-371.5" font-family="Helvetica,sans-Serif" font-size="10.00">+ ~NodeData()</text>
<text text-anchor="start" x="18.5" y="-360.5" font-family="Helvetica,sans-Serif" font-size="10.00">+ parentTypes()</text>
<text text-anchor="start" x="18.5" y="-349.5" font-family="Helvetica,sans-Serif" font-size="10.00">+ type()</text>
</a>
</g>
</g>
<!-- Node3&#45;&gt;Node2 -->
<g id="edge2" class="edge">
<title>Node3&#45;&gt;Node2</title>
<path fill="none" stroke="#63b8ff" d="M58,-332.18C58,-323.44 58,-314.51 58,-305.7"/>
<polygon fill="none" stroke="#63b8ff" points="54.5,-332.32 58,-342.32 61.5,-332.32 54.5,-332.32"/>
</g>
</g>
</svg>
