<?xml version="1.0" encoding="UTF-8" standalone="no"?>
<!DOCTYPE svg PUBLIC "-//W3C//DTD SVG 1.1//EN"
 "http://www.w3.org/Graphics/SVG/1.1/DTD/svg11.dtd">
<!-- Generated by graphviz version 2.43.0 (0)
 -->
<!-- Title: NAV::SinglePointPositioning Pages: 1 -->
<svg width="176pt" height="607pt"
 viewBox="0.00 0.00 176.00 607.00" xmlns="http://www.w3.org/2000/svg" xmlns:xlink="http://www.w3.org/1999/xlink">
<g id="graph0" class="graph" transform="scale(1 1) rotate(0) translate(4 603)">
<title>NAV::SinglePointPositioning</title>
<!-- Node1 -->
<g id="Node000001" class="node">
<title>Node1</title>
<g id="a_Node000001"><a xlink:title="Numerically integrates Imu data.">
<polygon fill="#999999" stroke="transparent" points="157,-214 11,-214 11,0 157,0 157,-214"/>
<text text-anchor="start" x="16.5" y="-202" font-family="Helvetica,sans-Serif" font-size="10.00">NAV::SinglePointPositioning</text>
<text text-anchor="start" x="82" y="-187" font-family="Helvetica,sans-Serif" font-size="10.00"> </text>
<text text-anchor="start" x="15" y="-172" font-family="Helvetica,sans-Serif" font-size="10.00">+</text>
<text text-anchor="start" x="28" y="-172" font-family="Helvetica,sans-Serif" font-size="10.00">guiConfig()</text>
<text text-anchor="start" x="15" y="-157" font-family="Helvetica,sans-Serif" font-size="10.00">+</text>
<text text-anchor="start" x="28" y="-157" font-family="Helvetica,sans-Serif" font-size="10.00">operator=()</text>
<text text-anchor="start" x="15" y="-142" font-family="Helvetica,sans-Serif" font-size="10.00">+</text>
<text text-anchor="start" x="28" y="-142" font-family="Helvetica,sans-Serif" font-size="10.00">operator=()</text>
<text text-anchor="start" x="15" y="-127" font-family="Helvetica,sans-Serif" font-size="10.00">+</text>
<text text-anchor="start" x="28" y="-127" font-family="Helvetica,sans-Serif" font-size="10.00">restore()</text>
<text text-anchor="start" x="15" y="-112" font-family="Helvetica,sans-Serif" font-size="10.00">+</text>
<text text-anchor="start" x="28" y="-112" font-family="Helvetica,sans-Serif" font-size="10.00">save()</text>
<text text-anchor="start" x="15" y="-97" font-family="Helvetica,sans-Serif" font-size="10.00">+</text>
<text text-anchor="start" x="28" y="-97" font-family="Helvetica,sans-Serif" font-size="10.00">SinglePointPositioning()</text>
<text text-anchor="start" x="15" y="-82" font-family="Helvetica,sans-Serif" font-size="10.00">+</text>
<text text-anchor="start" x="28" y="-82" font-family="Helvetica,sans-Serif" font-size="10.00">SinglePointPositioning()</text>
<text text-anchor="start" x="15" y="-67" font-family="Helvetica,sans-Serif" font-size="10.00">+</text>
<text text-anchor="start" x="28" y="-67" font-family="Helvetica,sans-Serif" font-size="10.00">SinglePointPositioning()</text>
<text text-anchor="start" x="15" y="-52" font-family="Helvetica,sans-Serif" font-size="10.00">+</text>
<text text-anchor="start" x="28" y="-52" font-family="Helvetica,sans-Serif" font-size="10.00">type()</text>
<text text-anchor="start" x="15" y="-37" font-family="Helvetica,sans-Serif" font-size="10.00">+</text>
<text text-anchor="start" x="28" y="-37" font-family="Helvetica,sans-Serif" font-size="10.00">~SinglePointPositioning()</text>
<text text-anchor="start" x="15" y="-22" font-family="Helvetica,sans-Serif" font-size="10.00">+</text>
<text text-anchor="start" x="28" y="-22" font-family="Helvetica,sans-Serif" font-size="10.00">category()</text>
<text text-anchor="start" x="15" y="-7" font-family="Helvetica,sans-Serif" font-size="10.00">+</text>
<text text-anchor="start" x="28" y="-7" font-family="Helvetica,sans-Serif" font-size="10.00">typeStatic()</text>
<polygon fill="#666666" stroke="#666666" points="11,-197 11,-197 157,-197 157,-197 11,-197"/>
<polygon fill="#666666" stroke="#666666" points="11,-182 11,-182 157,-182 157,-182 11,-182"/>
<polygon fill="none" stroke="#666666" points="11,0 11,-214 157,-214 157,0 11,0"/>
</a>
</g>
</g>
<!-- Node2 -->
<g id="Node000002" class="node">
<title>Node2</title>
<g id="a_Node000002"><a xlink:href="classNAV_1_1Node.html" target="_top" xlink:title="Abstract parent class for all nodes.">
<polygon fill="white" stroke="transparent" points="168,-599 0,-599 0,-250 168,-250 168,-599"/>
<text text-anchor="start" x="58" y="-586.5" font-family="Helvetica,sans-Serif" font-size="10.00">NAV::Node</text>
<text text-anchor="start" x="4" y="-571.5" font-family="Helvetica,sans-Serif" font-size="10.00">+</text>
<text text-anchor="start" x="17" y="-571.5" font-family="Helvetica,sans-Serif" font-size="10.00">callbacksEnabled</text>
<text text-anchor="start" x="4" y="-556.5" font-family="Helvetica,sans-Serif" font-size="10.00">+</text>
<text text-anchor="start" x="17" y="-556.5" font-family="Helvetica,sans-Serif" font-size="10.00">id</text>
<text text-anchor="start" x="4" y="-541.5" font-family="Helvetica,sans-Serif" font-size="10.00">+</text>
<text text-anchor="start" x="17" y="-541.5" font-family="Helvetica,sans-Serif" font-size="10.00">inputPins</text>
<text text-anchor="start" x="4" y="-526.5" font-family="Helvetica,sans-Serif" font-size="10.00">+</text>
<text text-anchor="start" x="17" y="-526.5" font-family="Helvetica,sans-Serif" font-size="10.00">kind</text>
<text text-anchor="start" x="4" y="-511.5" font-family="Helvetica,sans-Serif" font-size="10.00">+</text>
<text text-anchor="start" x="17" y="-511.5" font-family="Helvetica,sans-Serif" font-size="10.00">name</text>
<text text-anchor="start" x="4" y="-496.5" font-family="Helvetica,sans-Serif" font-size="10.00">+</text>
<text text-anchor="start" x="17" y="-496.5" font-family="Helvetica,sans-Serif" font-size="10.00">outputPins</text>
<text text-anchor="start" x="4" y="-481.5" font-family="Helvetica,sans-Serif" font-size="10.00">+</text>
<text text-anchor="start" x="17" y="-481.5" font-family="Helvetica,sans-Serif" font-size="10.00">pollEvents</text>
<text text-anchor="start" x="4" y="-466.5" font-family="Helvetica,sans-Serif" font-size="10.00">#</text>
<text text-anchor="start" x="17" y="-466.5" font-family="Helvetica,sans-Serif" font-size="10.00">_guiConfigDefaultWindowSize</text>
<text text-anchor="start" x="4" y="-451.5" font-family="Helvetica,sans-Serif" font-size="10.00">#</text>
<text text-anchor="start" x="17" y="-451.5" font-family="Helvetica,sans-Serif" font-size="10.00">_hasConfig</text>
<text text-anchor="start" x="4" y="-436.5" font-family="Helvetica,sans-Serif" font-size="10.00">#</text>
<text text-anchor="start" x="17" y="-436.5" font-family="Helvetica,sans-Serif" font-size="10.00">_lockConfigDuringRun</text>
<text text-anchor="start" x="4" y="-421.5" font-family="Helvetica,sans-Serif" font-size="10.00">+</text>
<text text-anchor="start" x="17" y="-421.5" font-family="Helvetica,sans-Serif" font-size="10.00">afterCreateLink()</text>
<text text-anchor="start" x="4" y="-406.5" font-family="Helvetica,sans-Serif" font-size="10.00">+</text>
<text text-anchor="start" x="17" y="-406.5" font-family="Helvetica,sans-Serif" font-size="10.00">afterDeleteLink()</text>
<text text-anchor="start" x="4" y="-391.5" font-family="Helvetica,sans-Serif" font-size="10.00">+</text>
<text text-anchor="start" x="17" y="-391.5" font-family="Helvetica,sans-Serif" font-size="10.00">deinitialize()</text>
<text text-anchor="start" x="4" y="-376.5" font-family="Helvetica,sans-Serif" font-size="10.00">+</text>
<text text-anchor="start" x="17" y="-376.5" font-family="Helvetica,sans-Serif" font-size="10.00">doDeinitialize()</text>
<text text-anchor="start" x="4" y="-361.5" font-family="Helvetica,sans-Serif" font-size="10.00">+</text>
<text text-anchor="start" x="17" y="-361.5" font-family="Helvetica,sans-Serif" font-size="10.00">doDisable()</text>
<text text-anchor="start" x="4" y="-346.5" font-family="Helvetica,sans-Serif" font-size="10.00">+</text>
<text text-anchor="start" x="17" y="-346.5" font-family="Helvetica,sans-Serif" font-size="10.00">doEnable()</text>
<text text-anchor="start" x="4" y="-331.5" font-family="Helvetica,sans-Serif" font-size="10.00">+</text>
<text text-anchor="start" x="17" y="-331.5" font-family="Helvetica,sans-Serif" font-size="10.00">doInitialize()</text>
<text text-anchor="start" x="4" y="-316.5" font-family="Helvetica,sans-Serif" font-size="10.00">+</text>
<text text-anchor="start" x="17" y="-316.5" font-family="Helvetica,sans-Serif" font-size="10.00">doReinitialize()</text>
<text text-anchor="start" x="4" y="-301.5" font-family="Helvetica,sans-Serif" font-size="10.00">+</text>
<text text-anchor="start" x="17" y="-301.5" font-family="Helvetica,sans-Serif" font-size="10.00">flush()</text>
<text text-anchor="start" x="4" y="-286.5" font-family="Helvetica,sans-Serif" font-size="10.00">+</text>
<text text-anchor="start" x="17" y="-286.5" font-family="Helvetica,sans-Serif" font-size="10.00">getInputValue()</text>
<text text-anchor="start" x="17" y="-271.5" font-family="Helvetica,sans-Serif" font-size="10.00">and 32 more...</text>
<text text-anchor="start" x="4" y="-256.5" font-family="Helvetica,sans-Serif" font-size="10.00">+</text>
<text text-anchor="start" x="17" y="-256.5" font-family="Helvetica,sans-Serif" font-size="10.00">toString()</text>
<polygon fill="#666666" stroke="#666666" points="0,-581.5 0,-581.5 168,-581.5 168,-581.5 0,-581.5"/>
<polygon fill="#666666" stroke="#666666" points="0,-431.5 0,-431.5 15,-431.5 15,-431.5 0,-431.5"/>
<polygon fill="#666666" stroke="#666666" points="15,-431.5 15,-431.5 168,-431.5 168,-431.5 15,-431.5"/>
<polygon fill="none" stroke="#666666" points="0,-250 0,-599 168,-599 168,-250 0,-250"/>
</a>
</g>
</g>
<!-- Node2&#45;&gt;Node1 -->
<g id="edge1_Node000001_Node000002" class="edge">
<title>Node2&#45;&gt;Node1</title>
<g id="a_edge1_Node000001_Node000002"><a xlink:title=" ">
<path fill="none" stroke="#63b8ff" d="M84,-239.51C84,-230.95 84,-222.5 84,-214.26"/>
<polygon fill="none" stroke="#63b8ff" points="80.5,-239.6 84,-249.6 87.5,-239.6 80.5,-239.6"/>
</a>
</g>
</g>
</g>
</svg>
