<?xml version="1.0" encoding="UTF-8" standalone="no"?>
<!DOCTYPE svg PUBLIC "-//W3C//DTD SVG 1.1//EN"
 "http://www.w3.org/Graphics/SVG/1.1/DTD/svg11.dtd">
<!-- Generated by graphviz version 2.43.0 (0)
 -->
<!-- Title: NAV::KeyedVector&lt; Scalar, RowKeyType, Eigen::Dynamic &gt; Pages: 1 -->
<svg width="181pt" height="901pt"
 viewBox="0.00 0.00 181.00 901.00" xmlns="http://www.w3.org/2000/svg" xmlns:xlink="http://www.w3.org/1999/xlink">
<g id="graph0" class="graph" transform="scale(1 1) rotate(0) translate(4 897)">
<title>NAV::KeyedVector&lt; Scalar, RowKeyType, Eigen::Dynamic &gt;</title>
<!-- Node1 -->
<g id="Node000001" class="node">
<title>Node1</title>
<g id="a_Node000001"><a xlink:title="Dynamic sized KeyedVector.">
<polygon fill="#999999" stroke="transparent" points="171,-225 2,-225 2,0 171,0 171,-225"/>
<text text-anchor="start" x="7.5" y="-212.5" font-family="Helvetica,sans-Serif" font-size="10.00">NAV::KeyedVector&lt; Scalar,</text>
<text text-anchor="start" x="7.5" y="-201.5" font-family="Helvetica,sans-Serif" font-size="10.00"> RowKeyType, Eigen::Dynamic &gt;</text>
<text text-anchor="start" x="85" y="-186.5" font-family="Helvetica,sans-Serif" font-size="10.00"> </text>
<text text-anchor="start" x="24" y="-171.5" font-family="Helvetica,sans-Serif" font-size="10.00">+</text>
<text text-anchor="start" x="54.5" y="-171.5" font-family="Helvetica,sans-Serif" font-size="10.00">KeyedVector()</text>
<text text-anchor="start" x="24" y="-156.5" font-family="Helvetica,sans-Serif" font-size="10.00">+</text>
<text text-anchor="start" x="54.5" y="-156.5" font-family="Helvetica,sans-Serif" font-size="10.00">KeyedVector()</text>
<text text-anchor="start" x="24" y="-141.5" font-family="Helvetica,sans-Serif" font-size="10.00">+</text>
<text text-anchor="start" x="54.5" y="-141.5" font-family="Helvetica,sans-Serif" font-size="10.00">KeyedVector()</text>
<text text-anchor="start" x="24" y="-126.5" font-family="Helvetica,sans-Serif" font-size="10.00">+</text>
<text text-anchor="start" x="54.5" y="-126.5" font-family="Helvetica,sans-Serif" font-size="10.00">KeyedVector()</text>
<text text-anchor="start" x="24" y="-111.5" font-family="Helvetica,sans-Serif" font-size="10.00">+</text>
<text text-anchor="start" x="54.5" y="-111.5" font-family="Helvetica,sans-Serif" font-size="10.00">KeyedVector()</text>
<text text-anchor="start" x="24" y="-96.5" font-family="Helvetica,sans-Serif" font-size="10.00">+</text>
<text text-anchor="start" x="54.5" y="-96.5" font-family="Helvetica,sans-Serif" font-size="10.00">KeyedVector()</text>
<text text-anchor="start" x="24" y="-81.5" font-family="Helvetica,sans-Serif" font-size="10.00">+</text>
<text text-anchor="start" x="54.5" y="-81.5" font-family="Helvetica,sans-Serif" font-size="10.00">operator=()</text>
<text text-anchor="start" x="24" y="-66.5" font-family="Helvetica,sans-Serif" font-size="10.00">+</text>
<text text-anchor="start" x="54.5" y="-66.5" font-family="Helvetica,sans-Serif" font-size="10.00">operator=()</text>
<text text-anchor="start" x="24" y="-51.5" font-family="Helvetica,sans-Serif" font-size="10.00">+</text>
<text text-anchor="start" x="54.5" y="-51.5" font-family="Helvetica,sans-Serif" font-size="10.00">operator=()</text>
<text text-anchor="start" x="24" y="-36.5" font-family="Helvetica,sans-Serif" font-size="10.00">+</text>
<text text-anchor="start" x="54.5" y="-36.5" font-family="Helvetica,sans-Serif" font-size="10.00">operator=()</text>
<text text-anchor="start" x="24" y="-21.5" font-family="Helvetica,sans-Serif" font-size="10.00">+</text>
<text text-anchor="start" x="54.5" y="-21.5" font-family="Helvetica,sans-Serif" font-size="10.00">transposed()</text>
<text text-anchor="start" x="24" y="-6.5" font-family="Helvetica,sans-Serif" font-size="10.00">+</text>
<text text-anchor="start" x="54.5" y="-6.5" font-family="Helvetica,sans-Serif" font-size="10.00">~KeyedVector()</text>
<polygon fill="#666666" stroke="#666666" points="2.5,-196.5 2.5,-196.5 171.5,-196.5 171.5,-196.5 2.5,-196.5"/>
<polygon fill="#666666" stroke="#666666" points="2.5,-181.5 2.5,-181.5 171.5,-181.5 171.5,-181.5 2.5,-181.5"/>
<polygon fill="none" stroke="#666666" points="2,0 2,-225 171,-225 171,0 2,0"/>
</a>
</g>
</g>
<!-- Node2 -->
<g id="Node000002" class="node">
<title>Node2</title>
<g id="a_Node000002"><a xlink:href="classNAV_1_1internal_1_1KeyedVectorBase.html" target="_top" xlink:title=" ">
<polygon fill="white" stroke="transparent" points="159.5,-493 13.5,-493 13.5,-261 159.5,-261 159.5,-493"/>
<text text-anchor="start" x="18.5" y="-481" font-family="Helvetica,sans-Serif" font-size="10.00">NAV::internal::KeyedVector</text>
<text text-anchor="start" x="18.5" y="-470" font-family="Helvetica,sans-Serif" font-size="10.00">Base&lt; Scalar, RowKeyType,</text>
<text text-anchor="start" x="41" y="-459" font-family="Helvetica,sans-Serif" font-size="10.00"> Eigen::Dynamic &gt;</text>
<text text-anchor="start" x="84.5" y="-444" font-family="Helvetica,sans-Serif" font-size="10.00"> </text>
<text text-anchor="start" x="21.5" y="-429" font-family="Helvetica,sans-Serif" font-size="10.00">+</text>
<text text-anchor="start" x="38.5" y="-429" font-family="Helvetica,sans-Serif" font-size="10.00">KeyedVectorBase()</text>
<text text-anchor="start" x="21.5" y="-414" font-family="Helvetica,sans-Serif" font-size="10.00">+</text>
<text text-anchor="start" x="38.5" y="-414" font-family="Helvetica,sans-Serif" font-size="10.00">KeyedVectorBase()</text>
<text text-anchor="start" x="21.5" y="-399" font-family="Helvetica,sans-Serif" font-size="10.00">+</text>
<text text-anchor="start" x="38.5" y="-399" font-family="Helvetica,sans-Serif" font-size="10.00">KeyedVectorBase()</text>
<text text-anchor="start" x="21.5" y="-384" font-family="Helvetica,sans-Serif" font-size="10.00">+</text>
<text text-anchor="start" x="38.5" y="-384" font-family="Helvetica,sans-Serif" font-size="10.00">KeyedVectorBase()</text>
<text text-anchor="start" x="21.5" y="-369" font-family="Helvetica,sans-Serif" font-size="10.00">+</text>
<text text-anchor="start" x="38.5" y="-369" font-family="Helvetica,sans-Serif" font-size="10.00">KeyedVectorBase()</text>
<text text-anchor="start" x="21.5" y="-354" font-family="Helvetica,sans-Serif" font-size="10.00">+</text>
<text text-anchor="start" x="38.5" y="-354" font-family="Helvetica,sans-Serif" font-size="10.00">KeyedVectorBase()</text>
<text text-anchor="start" x="21.5" y="-339" font-family="Helvetica,sans-Serif" font-size="10.00">+</text>
<text text-anchor="start" x="38.5" y="-339" font-family="Helvetica,sans-Serif" font-size="10.00">operator Eigen::Vector</text>
<text text-anchor="start" x="38.5" y="-328" font-family="Helvetica,sans-Serif" font-size="10.00">&lt; Scalar, Rows &gt;()</text>
<text text-anchor="start" x="21.5" y="-313" font-family="Helvetica,sans-Serif" font-size="10.00">+</text>
<text text-anchor="start" x="38.5" y="-313" font-family="Helvetica,sans-Serif" font-size="10.00">operator()()</text>
<text text-anchor="start" x="21.5" y="-298" font-family="Helvetica,sans-Serif" font-size="10.00">+</text>
<text text-anchor="start" x="38.5" y="-298" font-family="Helvetica,sans-Serif" font-size="10.00">operator()()</text>
<text text-anchor="start" x="21.5" y="-283" font-family="Helvetica,sans-Serif" font-size="10.00">+</text>
<text text-anchor="start" x="38.5" y="-283" font-family="Helvetica,sans-Serif" font-size="10.00">operator()()</text>
<text text-anchor="start" x="38.5" y="-268" font-family="Helvetica,sans-Serif" font-size="10.00">and 13 more...</text>
<polygon fill="#666666" stroke="#666666" points="13.5,-454 13.5,-454 159.5,-454 159.5,-454 13.5,-454"/>
<polygon fill="#666666" stroke="#666666" points="13.5,-439 13.5,-439 159.5,-439 159.5,-439 13.5,-439"/>
<polygon fill="none" stroke="#666666" points="13.5,-261 13.5,-493 159.5,-493 159.5,-261 13.5,-261"/>
</a>
</g>
</g>
<!-- Node2&#45;&gt;Node1 -->
<g id="edge1_Node000001_Node000002" class="edge">
<title>Node2&#45;&gt;Node1</title>
<g id="a_edge1_Node000001_Node000002"><a xlink:title=" ">
<path fill="none" stroke="#63b8ff" d="M86.5,-250.83C86.5,-242.27 86.5,-233.67 86.5,-225.18"/>
<polygon fill="none" stroke="#63b8ff" points="83,-250.86 86.5,-260.86 90,-250.86 83,-250.86"/>
</a>
</g>
</g>
<!-- Node3 -->
<g id="Node000003" class="node">
<title>Node3</title>
<g id="a_Node000003"><a xlink:href="classNAV_1_1internal_1_1KeyedMatrixRows.html" target="_top" xlink:title=" ">
<polygon fill="white" stroke="transparent" points="161,-600 12,-600 12,-529 161,-529 161,-600"/>
<text text-anchor="start" x="17.5" y="-587.5" font-family="Helvetica,sans-Serif" font-size="10.00">NAV::internal::KeyedMatrix</text>
<text text-anchor="start" x="17.5" y="-576.5" font-family="Helvetica,sans-Serif" font-size="10.00">Rows&lt; Scalar, RowKeyType,</text>
<text text-anchor="start" x="60.5" y="-565.5" font-family="Helvetica,sans-Serif" font-size="10.00"> Rows, 1 &gt;</text>
<text text-anchor="start" x="85" y="-550.5" font-family="Helvetica,sans-Serif" font-size="10.00"> </text>
<text text-anchor="start" x="85" y="-535.5" font-family="Helvetica,sans-Serif" font-size="10.00"> </text>
<polygon fill="#666666" stroke="#666666" points="12.5,-560.5 12.5,-560.5 161.5,-560.5 161.5,-560.5 12.5,-560.5"/>
<polygon fill="#666666" stroke="#666666" points="12.5,-545.5 12.5,-545.5 161.5,-545.5 161.5,-545.5 12.5,-545.5"/>
<polygon fill="none" stroke="#666666" points="12,-529 12,-600 161,-600 161,-529 12,-529"/>
</a>
</g>
</g>
<!-- Node3&#45;&gt;Node2 -->
<g id="edge2_Node000002_Node000003" class="edge">
<title>Node3&#45;&gt;Node2</title>
<g id="a_edge2_Node000002_Node000003"><a xlink:title=" ">
<path fill="none" stroke="#63b8ff" d="M86.5,-518.59C86.5,-510.66 86.5,-502.09 86.5,-493.23"/>
<polygon fill="none" stroke="#63b8ff" points="83,-518.61 86.5,-528.61 90,-518.61 83,-518.61"/>
</a>
</g>
</g>
<!-- Node4 -->
<g id="Node000004" class="node">
<title>Node4</title>
<g id="a_Node000004"><a xlink:href="classNAV_1_1internal_1_1KeyedMatrixRowsBase.html" target="_top" xlink:title="Base class for Keyed matrices with multiple rows.">
<polygon fill="white" stroke="transparent" points="173,-797 0,-797 0,-636 173,-636 173,-797"/>
<text text-anchor="start" x="5.5" y="-784.5" font-family="Helvetica,sans-Serif" font-size="10.00">NAV::internal::KeyedMatrix</text>
<text text-anchor="start" x="5.5" y="-773.5" font-family="Helvetica,sans-Serif" font-size="10.00">RowsBase&lt; Scalar, RowKeyType,</text>
<text text-anchor="start" x="53" y="-762.5" font-family="Helvetica,sans-Serif" font-size="10.00"> Rows, Cols &gt;</text>
<text text-anchor="start" x="24" y="-747.5" font-family="Helvetica,sans-Serif" font-size="10.00">#</text>
<text text-anchor="start" x="56.5" y="-747.5" font-family="Helvetica,sans-Serif" font-size="10.00">rowIndices</text>
<text text-anchor="start" x="24" y="-732.5" font-family="Helvetica,sans-Serif" font-size="10.00">#</text>
<text text-anchor="start" x="56.5" y="-732.5" font-family="Helvetica,sans-Serif" font-size="10.00">rowKeysVector</text>
<text text-anchor="start" x="24" y="-717.5" font-family="Helvetica,sans-Serif" font-size="10.00">#</text>
<text text-anchor="start" x="56.5" y="-717.5" font-family="Helvetica,sans-Serif" font-size="10.00">rowSlice</text>
<text text-anchor="start" x="24" y="-702.5" font-family="Helvetica,sans-Serif" font-size="10.00">+</text>
<text text-anchor="start" x="56.5" y="-702.5" font-family="Helvetica,sans-Serif" font-size="10.00">hasAnyRows()</text>
<text text-anchor="start" x="24" y="-687.5" font-family="Helvetica,sans-Serif" font-size="10.00">+</text>
<text text-anchor="start" x="56.5" y="-687.5" font-family="Helvetica,sans-Serif" font-size="10.00">hasRow()</text>
<text text-anchor="start" x="24" y="-672.5" font-family="Helvetica,sans-Serif" font-size="10.00">+</text>
<text text-anchor="start" x="56.5" y="-672.5" font-family="Helvetica,sans-Serif" font-size="10.00">hasRows()</text>
<text text-anchor="start" x="24" y="-657.5" font-family="Helvetica,sans-Serif" font-size="10.00">+</text>
<text text-anchor="start" x="56.5" y="-657.5" font-family="Helvetica,sans-Serif" font-size="10.00">rowKeys()</text>
<text text-anchor="start" x="24" y="-642.5" font-family="Helvetica,sans-Serif" font-size="10.00">+</text>
<text text-anchor="start" x="56.5" y="-642.5" font-family="Helvetica,sans-Serif" font-size="10.00">rows()</text>
<polygon fill="#666666" stroke="#666666" points="0.5,-757.5 0.5,-757.5 173.5,-757.5 173.5,-757.5 0.5,-757.5"/>
<polygon fill="#666666" stroke="#666666" points="0.5,-712.5 0.5,-712.5 54.5,-712.5 54.5,-712.5 0.5,-712.5"/>
<polygon fill="#666666" stroke="#666666" points="54.5,-712.5 54.5,-712.5 173.5,-712.5 173.5,-712.5 54.5,-712.5"/>
<polygon fill="none" stroke="#666666" points="0,-636 0,-797 173,-797 173,-636 0,-636"/>
</a>
</g>
</g>
<!-- Node4&#45;&gt;Node3 -->
<g id="edge3_Node000003_Node000004" class="edge">
<title>Node4&#45;&gt;Node3</title>
<g id="a_edge3_Node000003_Node000004"><a xlink:title=" ">
<path fill="none" stroke="#63b8ff" d="M86.5,-625.52C86.5,-616.62 86.5,-608.01 86.5,-600.22"/>
<polygon fill="none" stroke="#63b8ff" points="83,-625.67 86.5,-635.67 90,-625.67 83,-625.67"/>
</a>
</g>
</g>
<!-- Node5 -->
<g id="Node000005" class="node">
<title>Node5</title>
<g id="a_Node000005"><a xlink:href="classNAV_1_1internal_1_1KeyedMatrixStorage.html" target="_top" xlink:title="KeyedMatrix storage class.">
<polygon fill="white" stroke="transparent" points="166.5,-893 6.5,-893 6.5,-833 166.5,-833 166.5,-893"/>
<text text-anchor="start" x="11.5" y="-881" font-family="Helvetica,sans-Serif" font-size="10.00">NAV::internal::KeyedMatrix</text>
<text text-anchor="start" x="11.5" y="-870" font-family="Helvetica,sans-Serif" font-size="10.00">Storage&lt; Scalar, Rows, Cols &gt;</text>
<text text-anchor="start" x="37" y="-855" font-family="Helvetica,sans-Serif" font-size="10.00">#</text>
<text text-anchor="start" x="76.5" y="-855" font-family="Helvetica,sans-Serif" font-size="10.00">matrix</text>
<text text-anchor="start" x="84.5" y="-840" font-family="Helvetica,sans-Serif" font-size="10.00"> </text>
<polygon fill="#666666" stroke="#666666" points="6.5,-865 6.5,-865 166.5,-865 166.5,-865 6.5,-865"/>
<polygon fill="#666666" stroke="#666666" points="6.5,-850 6.5,-850 74.5,-850 74.5,-850 6.5,-850"/>
<polygon fill="#666666" stroke="#666666" points="74.5,-850 74.5,-850 166.5,-850 166.5,-850 74.5,-850"/>
<polygon fill="none" stroke="#666666" points="6.5,-833 6.5,-893 166.5,-893 166.5,-833 6.5,-833"/>
</a>
</g>
</g>
<!-- Node5&#45;&gt;Node4 -->
<g id="edge4_Node000004_Node000005" class="edge">
<title>Node5&#45;&gt;Node4</title>
<g id="a_edge4_Node000004_Node000005"><a xlink:title=" ">
<path fill="none" stroke="#63b8ff" d="M86.5,-822.7C86.5,-814.72 86.5,-806.05 86.5,-797.24"/>
<polygon fill="none" stroke="#63b8ff" points="83,-822.76 86.5,-832.76 90,-822.76 83,-822.76"/>
</a>
</g>
</g>
</g>
</svg>
