<?xml version="1.0" encoding="UTF-8" standalone="no"?>
<!DOCTYPE svg PUBLIC "-//W3C//DTD SVG 1.1//EN"
 "http://www.w3.org/Graphics/SVG/1.1/DTD/svg11.dtd">
<!-- Generated by graphviz version 2.43.0 (0)
 -->
<!-- Title: NAV::internal::KeyedMatrixRows&lt; Scalar, RowKeyType, Eigen::Dynamic, Cols &gt; Pages: 1 -->
<svg width="181pt" height="417pt"
 viewBox="0.00 0.00 181.00 417.00" xmlns="http://www.w3.org/2000/svg" xmlns:xlink="http://www.w3.org/1999/xlink">
<g id="graph0" class="graph" transform="scale(1 1) rotate(0) translate(4 413)">
<title>NAV::internal::KeyedMatrixRows&lt; Scalar, RowKeyType, Eigen::Dynamic, Cols &gt;</title>
<!-- Node1 -->
<g id="Node000001" class="node">
<title>Node1</title>
<g id="a_Node000001"><a xlink:title="Base class for Keyed matrices with multiple rows of dynamic size.">
<polygon fill="#999999" stroke="transparent" points="161,-116 12,-116 12,0 161,0 161,-116"/>
<text text-anchor="start" x="17.5" y="-104" font-family="Helvetica,sans-Serif" font-size="10.00">NAV::internal::KeyedMatrix</text>
<text text-anchor="start" x="17.5" y="-93" font-family="Helvetica,sans-Serif" font-size="10.00">Rows&lt; Scalar, RowKeyType,</text>
<text text-anchor="start" x="28" y="-82" font-family="Helvetica,sans-Serif" font-size="10.00"> Eigen::Dynamic, Cols &gt;</text>
<text text-anchor="start" x="85" y="-67" font-family="Helvetica,sans-Serif" font-size="10.00"> </text>
<text text-anchor="start" x="30.5" y="-52" font-family="Helvetica,sans-Serif" font-size="10.00">+</text>
<text text-anchor="start" x="57.5" y="-52" font-family="Helvetica,sans-Serif" font-size="10.00">addRow()</text>
<text text-anchor="start" x="30.5" y="-37" font-family="Helvetica,sans-Serif" font-size="10.00">+</text>
<text text-anchor="start" x="57.5" y="-37" font-family="Helvetica,sans-Serif" font-size="10.00">addRows()</text>
<text text-anchor="start" x="30.5" y="-22" font-family="Helvetica,sans-Serif" font-size="10.00">+</text>
<text text-anchor="start" x="57.5" y="-22" font-family="Helvetica,sans-Serif" font-size="10.00">removeRow()</text>
<text text-anchor="start" x="30.5" y="-7" font-family="Helvetica,sans-Serif" font-size="10.00">+</text>
<text text-anchor="start" x="57.5" y="-7" font-family="Helvetica,sans-Serif" font-size="10.00">removeRows()</text>
<polygon fill="#666666" stroke="#666666" points="12.5,-77 12.5,-77 161.5,-77 161.5,-77 12.5,-77"/>
<polygon fill="#666666" stroke="#666666" points="12.5,-62 12.5,-62 161.5,-62 161.5,-62 12.5,-62"/>
<polygon fill="none" stroke="#666666" points="12,0 12,-116 161,-116 161,0 12,0"/>
</a>
</g>
</g>
<!-- Node2 -->
<g id="Node000002" class="node">
<title>Node2</title>
<g id="a_Node000002"><a xlink:href="classNAV_1_1internal_1_1KeyedMatrixRowsBase.html" target="_top" xlink:title=" ">
<polygon fill="white" stroke="transparent" points="173,-313 0,-313 0,-152 173,-152 173,-313"/>
<text text-anchor="start" x="5.5" y="-300.5" font-family="Helvetica,sans-Serif" font-size="10.00">NAV::internal::KeyedMatrix</text>
<text text-anchor="start" x="5.5" y="-289.5" font-family="Helvetica,sans-Serif" font-size="10.00">RowsBase&lt; Scalar, RowKeyType,</text>
<text text-anchor="start" x="28" y="-278.5" font-family="Helvetica,sans-Serif" font-size="10.00"> Eigen::Dynamic, Cols &gt;</text>
<text text-anchor="start" x="24" y="-263.5" font-family="Helvetica,sans-Serif" font-size="10.00">#</text>
<text text-anchor="start" x="56.5" y="-263.5" font-family="Helvetica,sans-Serif" font-size="10.00">rowIndices</text>
<text text-anchor="start" x="24" y="-248.5" font-family="Helvetica,sans-Serif" font-size="10.00">#</text>
<text text-anchor="start" x="56.5" y="-248.5" font-family="Helvetica,sans-Serif" font-size="10.00">rowKeysVector</text>
<text text-anchor="start" x="24" y="-233.5" font-family="Helvetica,sans-Serif" font-size="10.00">#</text>
<text text-anchor="start" x="56.5" y="-233.5" font-family="Helvetica,sans-Serif" font-size="10.00">rowSlice</text>
<text text-anchor="start" x="24" y="-218.5" font-family="Helvetica,sans-Serif" font-size="10.00">+</text>
<text text-anchor="start" x="56.5" y="-218.5" font-family="Helvetica,sans-Serif" font-size="10.00">hasAnyRows()</text>
<text text-anchor="start" x="24" y="-203.5" font-family="Helvetica,sans-Serif" font-size="10.00">+</text>
<text text-anchor="start" x="56.5" y="-203.5" font-family="Helvetica,sans-Serif" font-size="10.00">hasRow()</text>
<text text-anchor="start" x="24" y="-188.5" font-family="Helvetica,sans-Serif" font-size="10.00">+</text>
<text text-anchor="start" x="56.5" y="-188.5" font-family="Helvetica,sans-Serif" font-size="10.00">hasRows()</text>
<text text-anchor="start" x="24" y="-173.5" font-family="Helvetica,sans-Serif" font-size="10.00">+</text>
<text text-anchor="start" x="56.5" y="-173.5" font-family="Helvetica,sans-Serif" font-size="10.00">rowKeys()</text>
<text text-anchor="start" x="24" y="-158.5" font-family="Helvetica,sans-Serif" font-size="10.00">+</text>
<text text-anchor="start" x="56.5" y="-158.5" font-family="Helvetica,sans-Serif" font-size="10.00">rows()</text>
<polygon fill="#666666" stroke="#666666" points="0.5,-273.5 0.5,-273.5 173.5,-273.5 173.5,-273.5 0.5,-273.5"/>
<polygon fill="#666666" stroke="#666666" points="0.5,-228.5 0.5,-228.5 54.5,-228.5 54.5,-228.5 0.5,-228.5"/>
<polygon fill="#666666" stroke="#666666" points="54.5,-228.5 54.5,-228.5 173.5,-228.5 173.5,-228.5 54.5,-228.5"/>
<polygon fill="none" stroke="#666666" points="0,-152 0,-313 173,-313 173,-152 0,-152"/>
</a>
</g>
</g>
<!-- Node2&#45;&gt;Node1 -->
<g id="edge1_Node000001_Node000002" class="edge">
<title>Node2&#45;&gt;Node1</title>
<g id="a_edge1_Node000001_Node000002"><a xlink:title=" ">
<path fill="none" stroke="#63b8ff" d="M86.5,-141.66C86.5,-133.02 86.5,-124.42 86.5,-116.22"/>
<polygon fill="none" stroke="#63b8ff" points="83,-141.81 86.5,-151.81 90,-141.81 83,-141.81"/>
</a>
</g>
</g>
<!-- Node3 -->
<g id="Node000003" class="node">
<title>Node3</title>
<g id="a_Node000003"><a xlink:href="classNAV_1_1internal_1_1KeyedMatrixStorage.html" target="_top" xlink:title="KeyedMatrix storage class.">
<polygon fill="white" stroke="transparent" points="166.5,-409 6.5,-409 6.5,-349 166.5,-349 166.5,-409"/>
<text text-anchor="start" x="11.5" y="-397" font-family="Helvetica,sans-Serif" font-size="10.00">NAV::internal::KeyedMatrix</text>
<text text-anchor="start" x="11.5" y="-386" font-family="Helvetica,sans-Serif" font-size="10.00">Storage&lt; Scalar, Rows, Cols &gt;</text>
<text text-anchor="start" x="37" y="-371" font-family="Helvetica,sans-Serif" font-size="10.00">#</text>
<text text-anchor="start" x="76.5" y="-371" font-family="Helvetica,sans-Serif" font-size="10.00">matrix</text>
<text text-anchor="start" x="84.5" y="-356" font-family="Helvetica,sans-Serif" font-size="10.00"> </text>
<polygon fill="#666666" stroke="#666666" points="6.5,-381 6.5,-381 166.5,-381 166.5,-381 6.5,-381"/>
<polygon fill="#666666" stroke="#666666" points="6.5,-366 6.5,-366 74.5,-366 74.5,-366 6.5,-366"/>
<polygon fill="#666666" stroke="#666666" points="74.5,-366 74.5,-366 166.5,-366 166.5,-366 74.5,-366"/>
<polygon fill="none" stroke="#666666" points="6.5,-349 6.5,-409 166.5,-409 166.5,-349 6.5,-349"/>
</a>
</g>
</g>
<!-- Node3&#45;&gt;Node2 -->
<g id="edge2_Node000002_Node000003" class="edge">
<title>Node3&#45;&gt;Node2</title>
<g id="a_edge2_Node000002_Node000003"><a xlink:title=" ">
<path fill="none" stroke="#63b8ff" d="M86.5,-338.7C86.5,-330.72 86.5,-322.05 86.5,-313.24"/>
<polygon fill="none" stroke="#63b8ff" points="83,-338.76 86.5,-348.76 90,-338.76 83,-338.76"/>
</a>
</g>
</g>
</g>
</svg>
