<?xml version="1.0" encoding="UTF-8" standalone="no"?>
<!DOCTYPE svg PUBLIC "-//W3C//DTD SVG 1.1//EN"
 "http://www.w3.org/Graphics/SVG/1.1/DTD/svg11.dtd">
<!-- Generated by graphviz version 2.43.0 (0)
 -->
<!-- Title: NAV::FileReader Pages: 1 -->
<svg width="1259pt" height="501pt"
 viewBox="0.00 0.00 1259.00 501.00" xmlns="http://www.w3.org/2000/svg" xmlns:xlink="http://www.w3.org/1999/xlink">
<g id="graph0" class="graph" transform="scale(1 1) rotate(0) translate(4 497)">
<title>NAV::FileReader</title>
<!-- Node1 -->
<g id="node1" class="node">
<title>Node1</title>
<g id="a_node1"><a xlink:title="Abstract File Reader class.">
<polygon fill="#999999" stroke="#666666" points="507.5,-248.5 507.5,-492.5 653.5,-492.5 653.5,-248.5 507.5,-248.5"/>
<text text-anchor="middle" x="580.5" y="-480.5" font-family="Helvetica,sans-Serif" font-size="10.00">NAV::FileReader</text>
<polyline fill="none" stroke="#666666" points="507.5,-473.5 653.5,-473.5 "/>
<text text-anchor="start" x="515.5" y="-461.5" font-family="Helvetica,sans-Serif" font-size="10.00"># _fileType</text>
<text text-anchor="start" x="515.5" y="-450.5" font-family="Helvetica,sans-Serif" font-size="10.00"># _headerColumns</text>
<text text-anchor="start" x="515.5" y="-439.5" font-family="Helvetica,sans-Serif" font-size="10.00"># _path</text>
<polyline fill="none" stroke="#666666" points="507.5,-432.5 653.5,-432.5 "/>
<text text-anchor="start" x="515.5" y="-420.5" font-family="Helvetica,sans-Serif" font-size="10.00">+ FileReader()</text>
<text text-anchor="start" x="515.5" y="-409.5" font-family="Helvetica,sans-Serif" font-size="10.00">+ FileReader()</text>
<text text-anchor="start" x="515.5" y="-398.5" font-family="Helvetica,sans-Serif" font-size="10.00">+ operator=()</text>
<text text-anchor="start" x="515.5" y="-387.5" font-family="Helvetica,sans-Serif" font-size="10.00">+ operator=()</text>
<text text-anchor="start" x="515.5" y="-376.5" font-family="Helvetica,sans-Serif" font-size="10.00">+ ~FileReader()</text>
<text text-anchor="start" x="515.5" y="-365.5" font-family="Helvetica,sans-Serif" font-size="10.00"># deinitialize()</text>
<text text-anchor="start" x="515.5" y="-354.5" font-family="Helvetica,sans-Serif" font-size="10.00"># determineFileType()</text>
<text text-anchor="start" x="515.5" y="-343.5" font-family="Helvetica,sans-Serif" font-size="10.00"># eof()</text>
<text text-anchor="start" x="515.5" y="-332.5" font-family="Helvetica,sans-Serif" font-size="10.00"># FileReader()</text>
<text text-anchor="start" x="515.5" y="-321.5" font-family="Helvetica,sans-Serif" font-size="10.00"># getCurrentLineNumber()</text>
<text text-anchor="start" x="515.5" y="-310.5" font-family="Helvetica,sans-Serif" font-size="10.00"># getFilepath()</text>
<text text-anchor="start" x="515.5" y="-299.5" font-family="Helvetica,sans-Serif" font-size="10.00"># getline()</text>
<text text-anchor="start" x="515.5" y="-288.5" font-family="Helvetica,sans-Serif" font-size="10.00"># good()</text>
<text text-anchor="start" x="515.5" y="-277.5" font-family="Helvetica,sans-Serif" font-size="10.00"># guiConfig()</text>
<text text-anchor="start" x="515.5" y="-266.5" font-family="Helvetica,sans-Serif" font-size="10.00"># ignore()</text>
<text text-anchor="start" x="515.5" y="-255.5" font-family="Helvetica,sans-Serif" font-size="10.00">and 10 more...</text>
</a>
</g>
</g>
<!-- Node2 -->
<g id="node2" class="node">
<title>Node2</title>
<g id="a_node2"><a xlink:href="classNAV_1_1CsvFile.html" target="_top" xlink:title="CSV File reader.">
<polygon fill="white" stroke="#666666" points="0,-17 0,-195 85,-195 85,-17 0,-17"/>
<text text-anchor="middle" x="42.5" y="-183" font-family="Helvetica,sans-Serif" font-size="10.00">NAV::CsvFile</text>
<polyline fill="none" stroke="#666666" points="0,-176 85,-176 "/>
<text text-anchor="middle" x="42.5" y="-164" font-family="Helvetica,sans-Serif" font-size="10.00"> </text>
<polyline fill="none" stroke="#666666" points="0,-157 85,-157 "/>
<text text-anchor="start" x="8" y="-145" font-family="Helvetica,sans-Serif" font-size="10.00">+ CsvFile()</text>
<text text-anchor="start" x="8" y="-134" font-family="Helvetica,sans-Serif" font-size="10.00">+ CsvFile()</text>
<text text-anchor="start" x="8" y="-123" font-family="Helvetica,sans-Serif" font-size="10.00">+ CsvFile()</text>
<text text-anchor="start" x="8" y="-112" font-family="Helvetica,sans-Serif" font-size="10.00">+ guiConfig()</text>
<text text-anchor="start" x="8" y="-101" font-family="Helvetica,sans-Serif" font-size="10.00">+ operator=()</text>
<text text-anchor="start" x="8" y="-90" font-family="Helvetica,sans-Serif" font-size="10.00">+ operator=()</text>
<text text-anchor="start" x="8" y="-79" font-family="Helvetica,sans-Serif" font-size="10.00">+ restore()</text>
<text text-anchor="start" x="8" y="-68" font-family="Helvetica,sans-Serif" font-size="10.00">+ save()</text>
<text text-anchor="start" x="8" y="-57" font-family="Helvetica,sans-Serif" font-size="10.00">+ type()</text>
<text text-anchor="start" x="8" y="-46" font-family="Helvetica,sans-Serif" font-size="10.00">+ ~CsvFile()</text>
<text text-anchor="start" x="8" y="-35" font-family="Helvetica,sans-Serif" font-size="10.00">+ category()</text>
<text text-anchor="start" x="8" y="-24" font-family="Helvetica,sans-Serif" font-size="10.00">+ typeStatic()</text>
</a>
</g>
</g>
<!-- Node1&#45;&gt;Node2 -->
<g id="edge1" class="edge">
<title>Node1&#45;&gt;Node2</title>
<path fill="none" stroke="#8b1a1a" d="M497.44,-362.47C391.98,-349.51 209.78,-313.11 93.5,-212 87.84,-207.08 82.75,-201.39 78.19,-195.25"/>
<polygon fill="none" stroke="#8b1a1a" points="497.06,-365.95 507.41,-363.65 497.89,-359 497.06,-365.95"/>
</g>
<!-- Node3 -->
<g id="node3" class="node">
<title>Node3</title>
<g id="a_node3"><a xlink:href="classNAV_1_1EmlidFile.html" target="_top" xlink:title="File Reader for Emlid log files.">
<polygon fill="white" stroke="#666666" points="103,-11.5 103,-200.5 192,-200.5 192,-11.5 103,-11.5"/>
<text text-anchor="middle" x="147.5" y="-188.5" font-family="Helvetica,sans-Serif" font-size="10.00">NAV::EmlidFile</text>
<polyline fill="none" stroke="#666666" points="103,-181.5 192,-181.5 "/>
<text text-anchor="middle" x="147.5" y="-169.5" font-family="Helvetica,sans-Serif" font-size="10.00"> </text>
<polyline fill="none" stroke="#666666" points="103,-162.5 192,-162.5 "/>
<text text-anchor="start" x="111" y="-150.5" font-family="Helvetica,sans-Serif" font-size="10.00">+ EmlidFile()</text>
<text text-anchor="start" x="111" y="-139.5" font-family="Helvetica,sans-Serif" font-size="10.00">+ EmlidFile()</text>
<text text-anchor="start" x="111" y="-128.5" font-family="Helvetica,sans-Serif" font-size="10.00">+ EmlidFile()</text>
<text text-anchor="start" x="111" y="-117.5" font-family="Helvetica,sans-Serif" font-size="10.00">+ guiConfig()</text>
<text text-anchor="start" x="111" y="-106.5" font-family="Helvetica,sans-Serif" font-size="10.00">+ operator=()</text>
<text text-anchor="start" x="111" y="-95.5" font-family="Helvetica,sans-Serif" font-size="10.00">+ operator=()</text>
<text text-anchor="start" x="111" y="-84.5" font-family="Helvetica,sans-Serif" font-size="10.00">+ resetNode()</text>
<text text-anchor="start" x="111" y="-73.5" font-family="Helvetica,sans-Serif" font-size="10.00">+ restore()</text>
<text text-anchor="start" x="111" y="-62.5" font-family="Helvetica,sans-Serif" font-size="10.00">+ save()</text>
<text text-anchor="start" x="111" y="-51.5" font-family="Helvetica,sans-Serif" font-size="10.00">+ type()</text>
<text text-anchor="start" x="111" y="-40.5" font-family="Helvetica,sans-Serif" font-size="10.00">+ ~EmlidFile()</text>
<text text-anchor="start" x="111" y="-29.5" font-family="Helvetica,sans-Serif" font-size="10.00">+ category()</text>
<text text-anchor="start" x="111" y="-18.5" font-family="Helvetica,sans-Serif" font-size="10.00">+ typeStatic()</text>
</a>
</g>
</g>
<!-- Node1&#45;&gt;Node3 -->
<g id="edge2" class="edge">
<title>Node1&#45;&gt;Node3</title>
<path fill="none" stroke="#63b8ff" d="M497.44,-352.64C413.93,-331.99 285.82,-289.74 201.5,-212 197.73,-208.53 194.19,-204.73 190.85,-200.71"/>
<polygon fill="none" stroke="#63b8ff" points="496.85,-356.1 507.39,-355.05 498.5,-349.29 496.85,-356.1"/>
</g>
<!-- Node4 -->
<g id="node4" class="node">
<title>Node4</title>
<g id="a_node4"><a xlink:href="classNAV_1_1ImuFile.html" target="_top" xlink:title="File Reader for Imu log files.">
<polygon fill="white" stroke="#666666" points="210.5,-11.5 210.5,-200.5 296.5,-200.5 296.5,-11.5 210.5,-11.5"/>
<text text-anchor="middle" x="253.5" y="-188.5" font-family="Helvetica,sans-Serif" font-size="10.00">NAV::ImuFile</text>
<polyline fill="none" stroke="#666666" points="210.5,-181.5 296.5,-181.5 "/>
<text text-anchor="middle" x="253.5" y="-169.5" font-family="Helvetica,sans-Serif" font-size="10.00"> </text>
<polyline fill="none" stroke="#666666" points="210.5,-162.5 296.5,-162.5 "/>
<text text-anchor="start" x="218.5" y="-150.5" font-family="Helvetica,sans-Serif" font-size="10.00">+ guiConfig()</text>
<text text-anchor="start" x="218.5" y="-139.5" font-family="Helvetica,sans-Serif" font-size="10.00">+ ImuFile()</text>
<text text-anchor="start" x="218.5" y="-128.5" font-family="Helvetica,sans-Serif" font-size="10.00">+ ImuFile()</text>
<text text-anchor="start" x="218.5" y="-117.5" font-family="Helvetica,sans-Serif" font-size="10.00">+ ImuFile()</text>
<text text-anchor="start" x="218.5" y="-106.5" font-family="Helvetica,sans-Serif" font-size="10.00">+ operator=()</text>
<text text-anchor="start" x="218.5" y="-95.5" font-family="Helvetica,sans-Serif" font-size="10.00">+ operator=()</text>
<text text-anchor="start" x="218.5" y="-84.5" font-family="Helvetica,sans-Serif" font-size="10.00">+ resetNode()</text>
<text text-anchor="start" x="218.5" y="-73.5" font-family="Helvetica,sans-Serif" font-size="10.00">+ restore()</text>
<text text-anchor="start" x="218.5" y="-62.5" font-family="Helvetica,sans-Serif" font-size="10.00">+ save()</text>
<text text-anchor="start" x="218.5" y="-51.5" font-family="Helvetica,sans-Serif" font-size="10.00">+ type()</text>
<text text-anchor="start" x="218.5" y="-40.5" font-family="Helvetica,sans-Serif" font-size="10.00">+ ~ImuFile()</text>
<text text-anchor="start" x="218.5" y="-29.5" font-family="Helvetica,sans-Serif" font-size="10.00">+ category()</text>
<text text-anchor="start" x="218.5" y="-18.5" font-family="Helvetica,sans-Serif" font-size="10.00">+ typeStatic()</text>
</a>
</g>
</g>
<!-- Node1&#45;&gt;Node4 -->
<g id="edge3" class="edge">
<title>Node1&#45;&gt;Node4</title>
<path fill="none" stroke="#63b8ff" d="M498.11,-337.8C438.5,-311.49 359.29,-269.13 305.5,-212 302.15,-208.45 298.98,-204.63 295.97,-200.65"/>
<polygon fill="none" stroke="#63b8ff" points="496.93,-341.11 507.5,-341.89 499.72,-334.69 496.93,-341.11"/>
</g>
<!-- Node5 -->
<g id="node5" class="node">
<title>Node5</title>
<g id="a_node5"><a xlink:href="classNAV_1_1KvhFile.html" target="_top" xlink:title="File Reader for Kvh log files.">
<polygon fill="white" stroke="#666666" points="314.5,-11.5 314.5,-200.5 400.5,-200.5 400.5,-11.5 314.5,-11.5"/>
<text text-anchor="middle" x="357.5" y="-188.5" font-family="Helvetica,sans-Serif" font-size="10.00">NAV::KvhFile</text>
<polyline fill="none" stroke="#666666" points="314.5,-181.5 400.5,-181.5 "/>
<text text-anchor="middle" x="357.5" y="-169.5" font-family="Helvetica,sans-Serif" font-size="10.00"> </text>
<polyline fill="none" stroke="#666666" points="314.5,-162.5 400.5,-162.5 "/>
<text text-anchor="start" x="322.5" y="-150.5" font-family="Helvetica,sans-Serif" font-size="10.00">+ guiConfig()</text>
<text text-anchor="start" x="322.5" y="-139.5" font-family="Helvetica,sans-Serif" font-size="10.00">+ KvhFile()</text>
<text text-anchor="start" x="322.5" y="-128.5" font-family="Helvetica,sans-Serif" font-size="10.00">+ KvhFile()</text>
<text text-anchor="start" x="322.5" y="-117.5" font-family="Helvetica,sans-Serif" font-size="10.00">+ KvhFile()</text>
<text text-anchor="start" x="322.5" y="-106.5" font-family="Helvetica,sans-Serif" font-size="10.00">+ operator=()</text>
<text text-anchor="start" x="322.5" y="-95.5" font-family="Helvetica,sans-Serif" font-size="10.00">+ operator=()</text>
<text text-anchor="start" x="322.5" y="-84.5" font-family="Helvetica,sans-Serif" font-size="10.00">+ resetNode()</text>
<text text-anchor="start" x="322.5" y="-73.5" font-family="Helvetica,sans-Serif" font-size="10.00">+ restore()</text>
<text text-anchor="start" x="322.5" y="-62.5" font-family="Helvetica,sans-Serif" font-size="10.00">+ save()</text>
<text text-anchor="start" x="322.5" y="-51.5" font-family="Helvetica,sans-Serif" font-size="10.00">+ type()</text>
<text text-anchor="start" x="322.5" y="-40.5" font-family="Helvetica,sans-Serif" font-size="10.00">+ ~KvhFile()</text>
<text text-anchor="start" x="322.5" y="-29.5" font-family="Helvetica,sans-Serif" font-size="10.00">+ category()</text>
<text text-anchor="start" x="322.5" y="-18.5" font-family="Helvetica,sans-Serif" font-size="10.00">+ typeStatic()</text>
</a>
</g>
</g>
<!-- Node1&#45;&gt;Node5 -->
<g id="edge4" class="edge">
<title>Node1&#45;&gt;Node5</title>
<path fill="none" stroke="#63b8ff" d="M499.61,-305.92C468.9,-279.13 435.16,-246.24 409.5,-212 406.45,-207.93 403.5,-203.65 400.66,-199.25"/>
<polygon fill="none" stroke="#63b8ff" points="497.49,-308.71 507.35,-312.6 502.07,-303.41 497.49,-308.71"/>
</g>
<!-- Node6 -->
<g id="node6" class="node">
<title>Node6</title>
<g id="a_node6"><a xlink:href="classNAV_1_1NmeaFile.html" target="_top" xlink:title="File Reader for NMEA log files.">
<polygon fill="white" stroke="#666666" points="418.5,-0.5 418.5,-211.5 508.5,-211.5 508.5,-0.5 418.5,-0.5"/>
<text text-anchor="middle" x="463.5" y="-199.5" font-family="Helvetica,sans-Serif" font-size="10.00">NAV::NmeaFile</text>
<polyline fill="none" stroke="#666666" points="418.5,-192.5 508.5,-192.5 "/>
<text text-anchor="start" x="426.5" y="-180.5" font-family="Helvetica,sans-Serif" font-size="10.00">+ day</text>
<text text-anchor="start" x="426.5" y="-169.5" font-family="Helvetica,sans-Serif" font-size="10.00">+ month</text>
<text text-anchor="start" x="426.5" y="-158.5" font-family="Helvetica,sans-Serif" font-size="10.00">+ year</text>
<polyline fill="none" stroke="#666666" points="418.5,-151.5 508.5,-151.5 "/>
<text text-anchor="start" x="426.5" y="-139.5" font-family="Helvetica,sans-Serif" font-size="10.00">+ guiConfig()</text>
<text text-anchor="start" x="426.5" y="-128.5" font-family="Helvetica,sans-Serif" font-size="10.00">+ NmeaFile()</text>
<text text-anchor="start" x="426.5" y="-117.5" font-family="Helvetica,sans-Serif" font-size="10.00">+ NmeaFile()</text>
<text text-anchor="start" x="426.5" y="-106.5" font-family="Helvetica,sans-Serif" font-size="10.00">+ NmeaFile()</text>
<text text-anchor="start" x="426.5" y="-95.5" font-family="Helvetica,sans-Serif" font-size="10.00">+ operator=()</text>
<text text-anchor="start" x="426.5" y="-84.5" font-family="Helvetica,sans-Serif" font-size="10.00">+ operator=()</text>
<text text-anchor="start" x="426.5" y="-73.5" font-family="Helvetica,sans-Serif" font-size="10.00">+ resetNode()</text>
<text text-anchor="start" x="426.5" y="-62.5" font-family="Helvetica,sans-Serif" font-size="10.00">+ restore()</text>
<text text-anchor="start" x="426.5" y="-51.5" font-family="Helvetica,sans-Serif" font-size="10.00">+ save()</text>
<text text-anchor="start" x="426.5" y="-40.5" font-family="Helvetica,sans-Serif" font-size="10.00">+ type()</text>
<text text-anchor="start" x="426.5" y="-29.5" font-family="Helvetica,sans-Serif" font-size="10.00">+ ~NmeaFile()</text>
<text text-anchor="start" x="426.5" y="-18.5" font-family="Helvetica,sans-Serif" font-size="10.00">+ category()</text>
<text text-anchor="start" x="426.5" y="-7.5" font-family="Helvetica,sans-Serif" font-size="10.00">+ typeStatic()</text>
</a>
</g>
</g>
<!-- Node1&#45;&gt;Node6 -->
<g id="edge5" class="edge">
<title>Node1&#45;&gt;Node6</title>
<path fill="none" stroke="#63b8ff" d="M522.38,-239.09C517.73,-228.68 513.09,-218.25 508.55,-208.08"/>
<polygon fill="none" stroke="#63b8ff" points="519.18,-240.53 526.45,-248.24 525.58,-237.68 519.18,-240.53"/>
</g>
<!-- Node7 -->
<g id="node7" class="node">
<title>Node7</title>
<g id="a_node7"><a xlink:href="classNAV_1_1RinexNavFile.html" target="_top" xlink:title="File reader Node for RINEX Navigation messages.">
<polygon fill="white" stroke="#666666" points="526.5,-11.5 526.5,-200.5 634.5,-200.5 634.5,-11.5 526.5,-11.5"/>
<text text-anchor="middle" x="580.5" y="-188.5" font-family="Helvetica,sans-Serif" font-size="10.00">NAV::RinexNavFile</text>
<polyline fill="none" stroke="#666666" points="526.5,-181.5 634.5,-181.5 "/>
<text text-anchor="middle" x="580.5" y="-169.5" font-family="Helvetica,sans-Serif" font-size="10.00"> </text>
<polyline fill="none" stroke="#666666" points="526.5,-162.5 634.5,-162.5 "/>
<text text-anchor="start" x="534.5" y="-150.5" font-family="Helvetica,sans-Serif" font-size="10.00">+ guiConfig()</text>
<text text-anchor="start" x="534.5" y="-139.5" font-family="Helvetica,sans-Serif" font-size="10.00">+ operator=()</text>
<text text-anchor="start" x="534.5" y="-128.5" font-family="Helvetica,sans-Serif" font-size="10.00">+ operator=()</text>
<text text-anchor="start" x="534.5" y="-117.5" font-family="Helvetica,sans-Serif" font-size="10.00">+ resetNode()</text>
<text text-anchor="start" x="534.5" y="-106.5" font-family="Helvetica,sans-Serif" font-size="10.00">+ restore()</text>
<text text-anchor="start" x="534.5" y="-95.5" font-family="Helvetica,sans-Serif" font-size="10.00">+ RinexNavFile()</text>
<text text-anchor="start" x="534.5" y="-84.5" font-family="Helvetica,sans-Serif" font-size="10.00">+ RinexNavFile()</text>
<text text-anchor="start" x="534.5" y="-73.5" font-family="Helvetica,sans-Serif" font-size="10.00">+ RinexNavFile()</text>
<text text-anchor="start" x="534.5" y="-62.5" font-family="Helvetica,sans-Serif" font-size="10.00">+ save()</text>
<text text-anchor="start" x="534.5" y="-51.5" font-family="Helvetica,sans-Serif" font-size="10.00">+ type()</text>
<text text-anchor="start" x="534.5" y="-40.5" font-family="Helvetica,sans-Serif" font-size="10.00">+ ~RinexNavFile()</text>
<text text-anchor="start" x="534.5" y="-29.5" font-family="Helvetica,sans-Serif" font-size="10.00">+ category()</text>
<text text-anchor="start" x="534.5" y="-18.5" font-family="Helvetica,sans-Serif" font-size="10.00">+ typeStatic()</text>
</a>
</g>
</g>
<!-- Node1&#45;&gt;Node7 -->
<g id="edge6" class="edge">
<title>Node1&#45;&gt;Node7</title>
<path fill="none" stroke="#63b8ff" d="M580.5,-238.11C580.5,-225.46 580.5,-212.81 580.5,-200.64"/>
<polygon fill="none" stroke="#63b8ff" points="577,-238.24 580.5,-248.24 584,-238.24 577,-238.24"/>
</g>
<!-- Node8 -->
<g id="node8" class="node">
<title>Node8</title>
<g id="a_node8"><a xlink:href="classNAV_1_1RinexObsFile.html" target="_top" xlink:title="File reader Node for RINEX Observation messages.">
<polygon fill="white" stroke="#666666" points="653,-11.5 653,-200.5 760,-200.5 760,-11.5 653,-11.5"/>
<text text-anchor="middle" x="706.5" y="-188.5" font-family="Helvetica,sans-Serif" font-size="10.00">NAV::RinexObsFile</text>
<polyline fill="none" stroke="#666666" points="653,-181.5 760,-181.5 "/>
<text text-anchor="middle" x="706.5" y="-169.5" font-family="Helvetica,sans-Serif" font-size="10.00"> </text>
<polyline fill="none" stroke="#666666" points="653,-162.5 760,-162.5 "/>
<text text-anchor="start" x="661" y="-150.5" font-family="Helvetica,sans-Serif" font-size="10.00">+ guiConfig()</text>
<text text-anchor="start" x="661" y="-139.5" font-family="Helvetica,sans-Serif" font-size="10.00">+ operator=()</text>
<text text-anchor="start" x="661" y="-128.5" font-family="Helvetica,sans-Serif" font-size="10.00">+ operator=()</text>
<text text-anchor="start" x="661" y="-117.5" font-family="Helvetica,sans-Serif" font-size="10.00">+ resetNode()</text>
<text text-anchor="start" x="661" y="-106.5" font-family="Helvetica,sans-Serif" font-size="10.00">+ restore()</text>
<text text-anchor="start" x="661" y="-95.5" font-family="Helvetica,sans-Serif" font-size="10.00">+ RinexObsFile()</text>
<text text-anchor="start" x="661" y="-84.5" font-family="Helvetica,sans-Serif" font-size="10.00">+ RinexObsFile()</text>
<text text-anchor="start" x="661" y="-73.5" font-family="Helvetica,sans-Serif" font-size="10.00">+ RinexObsFile()</text>
<text text-anchor="start" x="661" y="-62.5" font-family="Helvetica,sans-Serif" font-size="10.00">+ save()</text>
<text text-anchor="start" x="661" y="-51.5" font-family="Helvetica,sans-Serif" font-size="10.00">+ type()</text>
<text text-anchor="start" x="661" y="-40.5" font-family="Helvetica,sans-Serif" font-size="10.00">+ ~RinexObsFile()</text>
<text text-anchor="start" x="661" y="-29.5" font-family="Helvetica,sans-Serif" font-size="10.00">+ category()</text>
<text text-anchor="start" x="661" y="-18.5" font-family="Helvetica,sans-Serif" font-size="10.00">+ typeStatic()</text>
</a>
</g>
</g>
<!-- Node1&#45;&gt;Node8 -->
<g id="edge7" class="edge">
<title>Node1&#45;&gt;Node8</title>
<path fill="none" stroke="#63b8ff" d="M643.21,-238.86C649.4,-225.96 655.59,-213.06 661.55,-200.64"/>
<polygon fill="none" stroke="#63b8ff" points="639.88,-237.71 638.71,-248.24 646.19,-240.74 639.88,-237.71"/>
</g>
<!-- Node9 -->
<g id="node9" class="node">
<title>Node9</title>
<g id="a_node9"><a xlink:href="classNAV_1_1RtklibPosFile.html" target="_top" xlink:title="File Reader for RTKLIB pos log files.">
<polygon fill="white" stroke="#666666" points="778,-11.5 778,-200.5 885,-200.5 885,-11.5 778,-11.5"/>
<text text-anchor="middle" x="831.5" y="-188.5" font-family="Helvetica,sans-Serif" font-size="10.00">NAV::RtklibPosFile</text>
<polyline fill="none" stroke="#666666" points="778,-181.5 885,-181.5 "/>
<text text-anchor="middle" x="831.5" y="-169.5" font-family="Helvetica,sans-Serif" font-size="10.00"> </text>
<polyline fill="none" stroke="#666666" points="778,-162.5 885,-162.5 "/>
<text text-anchor="start" x="786" y="-150.5" font-family="Helvetica,sans-Serif" font-size="10.00">+ guiConfig()</text>
<text text-anchor="start" x="786" y="-139.5" font-family="Helvetica,sans-Serif" font-size="10.00">+ operator=()</text>
<text text-anchor="start" x="786" y="-128.5" font-family="Helvetica,sans-Serif" font-size="10.00">+ operator=()</text>
<text text-anchor="start" x="786" y="-117.5" font-family="Helvetica,sans-Serif" font-size="10.00">+ resetNode()</text>
<text text-anchor="start" x="786" y="-106.5" font-family="Helvetica,sans-Serif" font-size="10.00">+ restore()</text>
<text text-anchor="start" x="786" y="-95.5" font-family="Helvetica,sans-Serif" font-size="10.00">+ RtklibPosFile()</text>
<text text-anchor="start" x="786" y="-84.5" font-family="Helvetica,sans-Serif" font-size="10.00">+ RtklibPosFile()</text>
<text text-anchor="start" x="786" y="-73.5" font-family="Helvetica,sans-Serif" font-size="10.00">+ RtklibPosFile()</text>
<text text-anchor="start" x="786" y="-62.5" font-family="Helvetica,sans-Serif" font-size="10.00">+ save()</text>
<text text-anchor="start" x="786" y="-51.5" font-family="Helvetica,sans-Serif" font-size="10.00">+ type()</text>
<text text-anchor="start" x="786" y="-40.5" font-family="Helvetica,sans-Serif" font-size="10.00">+ ~RtklibPosFile()</text>
<text text-anchor="start" x="786" y="-29.5" font-family="Helvetica,sans-Serif" font-size="10.00">+ category()</text>
<text text-anchor="start" x="786" y="-18.5" font-family="Helvetica,sans-Serif" font-size="10.00">+ typeStatic()</text>
</a>
</g>
</g>
<!-- Node1&#45;&gt;Node9 -->
<g id="edge8" class="edge">
<title>Node1&#45;&gt;Node9</title>
<path fill="none" stroke="#63b8ff" d="M661.87,-311.7C697.44,-284.03 738.12,-248.91 769.5,-212 772.59,-208.37 775.61,-204.57 778.55,-200.65"/>
<polygon fill="none" stroke="#63b8ff" points="659.68,-308.97 653.89,-317.85 663.95,-314.51 659.68,-308.97"/>
</g>
<!-- Node10 -->
<g id="node10" class="node">
<title>Node10</title>
<g id="a_node10"><a xlink:href="classNAV_1_1UbloxFile.html" target="_top" xlink:title="File Reader for Ublox log files.">
<polygon fill="white" stroke="#666666" points="903,-11.5 903,-200.5 992,-200.5 992,-11.5 903,-11.5"/>
<text text-anchor="middle" x="947.5" y="-188.5" font-family="Helvetica,sans-Serif" font-size="10.00">NAV::UbloxFile</text>
<polyline fill="none" stroke="#666666" points="903,-181.5 992,-181.5 "/>
<text text-anchor="middle" x="947.5" y="-169.5" font-family="Helvetica,sans-Serif" font-size="10.00"> </text>
<polyline fill="none" stroke="#666666" points="903,-162.5 992,-162.5 "/>
<text text-anchor="start" x="911" y="-150.5" font-family="Helvetica,sans-Serif" font-size="10.00">+ guiConfig()</text>
<text text-anchor="start" x="911" y="-139.5" font-family="Helvetica,sans-Serif" font-size="10.00">+ operator=()</text>
<text text-anchor="start" x="911" y="-128.5" font-family="Helvetica,sans-Serif" font-size="10.00">+ operator=()</text>
<text text-anchor="start" x="911" y="-117.5" font-family="Helvetica,sans-Serif" font-size="10.00">+ resetNode()</text>
<text text-anchor="start" x="911" y="-106.5" font-family="Helvetica,sans-Serif" font-size="10.00">+ restore()</text>
<text text-anchor="start" x="911" y="-95.5" font-family="Helvetica,sans-Serif" font-size="10.00">+ save()</text>
<text text-anchor="start" x="911" y="-84.5" font-family="Helvetica,sans-Serif" font-size="10.00">+ type()</text>
<text text-anchor="start" x="911" y="-73.5" font-family="Helvetica,sans-Serif" font-size="10.00">+ UbloxFile()</text>
<text text-anchor="start" x="911" y="-62.5" font-family="Helvetica,sans-Serif" font-size="10.00">+ UbloxFile()</text>
<text text-anchor="start" x="911" y="-51.5" font-family="Helvetica,sans-Serif" font-size="10.00">+ UbloxFile()</text>
<text text-anchor="start" x="911" y="-40.5" font-family="Helvetica,sans-Serif" font-size="10.00">+ ~UbloxFile()</text>
<text text-anchor="start" x="911" y="-29.5" font-family="Helvetica,sans-Serif" font-size="10.00">+ category()</text>
<text text-anchor="start" x="911" y="-18.5" font-family="Helvetica,sans-Serif" font-size="10.00">+ typeStatic()</text>
</a>
</g>
</g>
<!-- Node1&#45;&gt;Node10 -->
<g id="edge9" class="edge">
<title>Node1&#45;&gt;Node10</title>
<path fill="none" stroke="#63b8ff" d="M663.2,-344.41C732.2,-319.95 829.44,-276.89 894.5,-212 897.97,-208.54 901.25,-204.8 904.36,-200.88"/>
<polygon fill="none" stroke="#63b8ff" points="661.94,-341.14 653.65,-347.73 664.25,-347.75 661.94,-341.14"/>
</g>
<!-- Node11 -->
<g id="node11" class="node">
<title>Node11</title>
<g id="a_node11"><a xlink:href="classNAV_1_1UlogFile.html" target="_top" xlink:title="File Reader for ULog files (&#39;.ulg&#39;)">
<polygon fill="white" stroke="#666666" points="1009.5,-6 1009.5,-206 1121.5,-206 1121.5,-6 1009.5,-6"/>
<text text-anchor="middle" x="1065.5" y="-194" font-family="Helvetica,sans-Serif" font-size="10.00">NAV::UlogFile</text>
<polyline fill="none" stroke="#666666" points="1009.5,-187 1121.5,-187 "/>
<text text-anchor="start" x="1017.5" y="-175" font-family="Helvetica,sans-Serif" font-size="10.00">+ gnssTime</text>
<text text-anchor="start" x="1017.5" y="-164" font-family="Helvetica,sans-Serif" font-size="10.00">+ timeSinceStartup</text>
<polyline fill="none" stroke="#666666" points="1009.5,-157 1121.5,-157 "/>
<text text-anchor="start" x="1017.5" y="-145" font-family="Helvetica,sans-Serif" font-size="10.00">+ guiConfig()</text>
<text text-anchor="start" x="1017.5" y="-134" font-family="Helvetica,sans-Serif" font-size="10.00">+ operator=()</text>
<text text-anchor="start" x="1017.5" y="-123" font-family="Helvetica,sans-Serif" font-size="10.00">+ operator=()</text>
<text text-anchor="start" x="1017.5" y="-112" font-family="Helvetica,sans-Serif" font-size="10.00">+ resetNode()</text>
<text text-anchor="start" x="1017.5" y="-101" font-family="Helvetica,sans-Serif" font-size="10.00">+ restore()</text>
<text text-anchor="start" x="1017.5" y="-90" font-family="Helvetica,sans-Serif" font-size="10.00">+ save()</text>
<text text-anchor="start" x="1017.5" y="-79" font-family="Helvetica,sans-Serif" font-size="10.00">+ type()</text>
<text text-anchor="start" x="1017.5" y="-68" font-family="Helvetica,sans-Serif" font-size="10.00">+ UlogFile()</text>
<text text-anchor="start" x="1017.5" y="-57" font-family="Helvetica,sans-Serif" font-size="10.00">+ UlogFile()</text>
<text text-anchor="start" x="1017.5" y="-46" font-family="Helvetica,sans-Serif" font-size="10.00">+ UlogFile()</text>
<text text-anchor="start" x="1017.5" y="-35" font-family="Helvetica,sans-Serif" font-size="10.00">+ ~UlogFile()</text>
<text text-anchor="start" x="1017.5" y="-24" font-family="Helvetica,sans-Serif" font-size="10.00">+ category()</text>
<text text-anchor="start" x="1017.5" y="-13" font-family="Helvetica,sans-Serif" font-size="10.00">+ typeStatic()</text>
</a>
</g>
</g>
<!-- Node1&#45;&gt;Node11 -->
<g id="edge10" class="edge">
<title>Node1&#45;&gt;Node11</title>
<path fill="none" stroke="#63b8ff" d="M663.74,-355.23C755.08,-336.02 901.92,-294.3 1001.5,-212 1004.13,-209.82 1006.69,-207.51 1009.16,-205.08"/>
<polygon fill="none" stroke="#63b8ff" points="662.8,-351.85 653.71,-357.3 664.21,-358.71 662.8,-351.85"/>
</g>
<!-- Node12 -->
<g id="node12" class="node">
<title>Node12</title>
<g id="a_node12"><a xlink:href="classNAV_1_1VectorNavFile.html" target="_top" xlink:title="File Reader for Vector Nav log files.">
<polygon fill="white" stroke="#666666" points="1140,-11.5 1140,-200.5 1251,-200.5 1251,-11.5 1140,-11.5"/>
<text text-anchor="middle" x="1195.5" y="-188.5" font-family="Helvetica,sans-Serif" font-size="10.00">NAV::VectorNavFile</text>
<polyline fill="none" stroke="#666666" points="1140,-181.5 1251,-181.5 "/>
<text text-anchor="middle" x="1195.5" y="-169.5" font-family="Helvetica,sans-Serif" font-size="10.00"> </text>
<polyline fill="none" stroke="#666666" points="1140,-162.5 1251,-162.5 "/>
<text text-anchor="start" x="1148" y="-150.5" font-family="Helvetica,sans-Serif" font-size="10.00">+ guiConfig()</text>
<text text-anchor="start" x="1148" y="-139.5" font-family="Helvetica,sans-Serif" font-size="10.00">+ operator=()</text>
<text text-anchor="start" x="1148" y="-128.5" font-family="Helvetica,sans-Serif" font-size="10.00">+ operator=()</text>
<text text-anchor="start" x="1148" y="-117.5" font-family="Helvetica,sans-Serif" font-size="10.00">+ resetNode()</text>
<text text-anchor="start" x="1148" y="-106.5" font-family="Helvetica,sans-Serif" font-size="10.00">+ restore()</text>
<text text-anchor="start" x="1148" y="-95.5" font-family="Helvetica,sans-Serif" font-size="10.00">+ save()</text>
<text text-anchor="start" x="1148" y="-84.5" font-family="Helvetica,sans-Serif" font-size="10.00">+ type()</text>
<text text-anchor="start" x="1148" y="-73.5" font-family="Helvetica,sans-Serif" font-size="10.00">+ VectorNavFile()</text>
<text text-anchor="start" x="1148" y="-62.5" font-family="Helvetica,sans-Serif" font-size="10.00">+ VectorNavFile()</text>
<text text-anchor="start" x="1148" y="-51.5" font-family="Helvetica,sans-Serif" font-size="10.00">+ VectorNavFile()</text>
<text text-anchor="start" x="1148" y="-40.5" font-family="Helvetica,sans-Serif" font-size="10.00">+ ~VectorNavFile()</text>
<text text-anchor="start" x="1148" y="-29.5" font-family="Helvetica,sans-Serif" font-size="10.00">+ category()</text>
<text text-anchor="start" x="1148" y="-18.5" font-family="Helvetica,sans-Serif" font-size="10.00">+ typeStatic()</text>
</a>
</g>
</g>
<!-- Node1&#45;&gt;Node12 -->
<g id="edge11" class="edge">
<title>Node1&#45;&gt;Node12</title>
<path fill="none" stroke="#63b8ff" d="M664,-364.19C779.54,-353.01 989.79,-318.45 1130.5,-212 1134.95,-208.64 1139.16,-204.87 1143.14,-200.83"/>
<polygon fill="none" stroke="#63b8ff" points="663.43,-360.72 653.8,-365.14 664.08,-367.69 663.43,-360.72"/>
</g>
</g>
</svg>
