<?xml version="1.0" encoding="UTF-8" standalone="no"?>
<!DOCTYPE svg PUBLIC "-//W3C//DTD SVG 1.1//EN"
 "http://www.w3.org/Graphics/SVG/1.1/DTD/svg11.dtd">
<!-- Generated by graphviz version 2.43.0 (0)
 -->
<!-- Title: NAV::UbloxSensor Pages: 1 -->
<svg width="318pt" height="622pt"
 viewBox="0.00 0.00 318.00 622.00" xmlns="http://www.w3.org/2000/svg" xmlns:xlink="http://www.w3.org/1999/xlink">
<g id="graph0" class="graph" transform="scale(1 1) rotate(0) translate(4 618)">
<title>NAV::UbloxSensor</title>
<!-- Node1 -->
<g id="Node000001" class="node">
<title>Node1</title>
<g id="a_Node000001"><a xlink:title="Ublox Sensor Class.">
<polygon fill="#999999" stroke="transparent" points="215.5,-229 116.5,-229 116.5,0 215.5,0 215.5,-229"/>
<text text-anchor="start" x="122.5" y="-216.5" font-family="Helvetica,sans-Serif" font-size="10.00">NAV::UbloxSensor</text>
<text text-anchor="start" x="164.5" y="-201.5" font-family="Helvetica,sans-Serif" font-size="10.00"> </text>
<text text-anchor="start" x="121" y="-186.5" font-family="Helvetica,sans-Serif" font-size="10.00">+</text>
<text text-anchor="start" x="134" y="-186.5" font-family="Helvetica,sans-Serif" font-size="10.00">guiConfig()</text>
<text text-anchor="start" x="121" y="-171.5" font-family="Helvetica,sans-Serif" font-size="10.00">+</text>
<text text-anchor="start" x="134" y="-171.5" font-family="Helvetica,sans-Serif" font-size="10.00">operator=()</text>
<text text-anchor="start" x="121" y="-156.5" font-family="Helvetica,sans-Serif" font-size="10.00">+</text>
<text text-anchor="start" x="134" y="-156.5" font-family="Helvetica,sans-Serif" font-size="10.00">operator=()</text>
<text text-anchor="start" x="121" y="-141.5" font-family="Helvetica,sans-Serif" font-size="10.00">+</text>
<text text-anchor="start" x="134" y="-141.5" font-family="Helvetica,sans-Serif" font-size="10.00">resetNode()</text>
<text text-anchor="start" x="121" y="-126.5" font-family="Helvetica,sans-Serif" font-size="10.00">+</text>
<text text-anchor="start" x="134" y="-126.5" font-family="Helvetica,sans-Serif" font-size="10.00">restore()</text>
<text text-anchor="start" x="121" y="-111.5" font-family="Helvetica,sans-Serif" font-size="10.00">+</text>
<text text-anchor="start" x="134" y="-111.5" font-family="Helvetica,sans-Serif" font-size="10.00">save()</text>
<text text-anchor="start" x="121" y="-96.5" font-family="Helvetica,sans-Serif" font-size="10.00">+</text>
<text text-anchor="start" x="134" y="-96.5" font-family="Helvetica,sans-Serif" font-size="10.00">type()</text>
<text text-anchor="start" x="121" y="-81.5" font-family="Helvetica,sans-Serif" font-size="10.00">+</text>
<text text-anchor="start" x="134" y="-81.5" font-family="Helvetica,sans-Serif" font-size="10.00">UbloxSensor()</text>
<text text-anchor="start" x="121" y="-66.5" font-family="Helvetica,sans-Serif" font-size="10.00">+</text>
<text text-anchor="start" x="134" y="-66.5" font-family="Helvetica,sans-Serif" font-size="10.00">UbloxSensor()</text>
<text text-anchor="start" x="121" y="-51.5" font-family="Helvetica,sans-Serif" font-size="10.00">+</text>
<text text-anchor="start" x="134" y="-51.5" font-family="Helvetica,sans-Serif" font-size="10.00">UbloxSensor()</text>
<text text-anchor="start" x="121" y="-36.5" font-family="Helvetica,sans-Serif" font-size="10.00">+</text>
<text text-anchor="start" x="134" y="-36.5" font-family="Helvetica,sans-Serif" font-size="10.00">~UbloxSensor()</text>
<text text-anchor="start" x="121" y="-21.5" font-family="Helvetica,sans-Serif" font-size="10.00">+</text>
<text text-anchor="start" x="134" y="-21.5" font-family="Helvetica,sans-Serif" font-size="10.00">category()</text>
<text text-anchor="start" x="121" y="-6.5" font-family="Helvetica,sans-Serif" font-size="10.00">+</text>
<text text-anchor="start" x="134" y="-6.5" font-family="Helvetica,sans-Serif" font-size="10.00">typeStatic()</text>
<polygon fill="#666666" stroke="#666666" points="117,-211.5 117,-211.5 216,-211.5 216,-211.5 117,-211.5"/>
<polygon fill="#666666" stroke="#666666" points="117,-196.5 117,-196.5 216,-196.5 216,-196.5 117,-196.5"/>
<polygon fill="none" stroke="#666666" points="116.5,0 116.5,-229 215.5,-229 215.5,0 116.5,0"/>
</a>
</g>
</g>
<!-- Node2 -->
<g id="Node000002" class="node">
<title>Node2</title>
<g id="a_Node000002"><a xlink:href="classNAV_1_1Node.html" target="_top" xlink:title="Abstract parent class for all nodes.">
<polygon fill="white" stroke="transparent" points="168,-614 0,-614 0,-265 168,-265 168,-614"/>
<text text-anchor="start" x="58" y="-601.5" font-family="Helvetica,sans-Serif" font-size="10.00">NAV::Node</text>
<text text-anchor="start" x="4" y="-586.5" font-family="Helvetica,sans-Serif" font-size="10.00">+</text>
<text text-anchor="start" x="17" y="-586.5" font-family="Helvetica,sans-Serif" font-size="10.00">callbacksEnabled</text>
<text text-anchor="start" x="4" y="-571.5" font-family="Helvetica,sans-Serif" font-size="10.00">+</text>
<text text-anchor="start" x="17" y="-571.5" font-family="Helvetica,sans-Serif" font-size="10.00">id</text>
<text text-anchor="start" x="4" y="-556.5" font-family="Helvetica,sans-Serif" font-size="10.00">+</text>
<text text-anchor="start" x="17" y="-556.5" font-family="Helvetica,sans-Serif" font-size="10.00">inputPins</text>
<text text-anchor="start" x="4" y="-541.5" font-family="Helvetica,sans-Serif" font-size="10.00">+</text>
<text text-anchor="start" x="17" y="-541.5" font-family="Helvetica,sans-Serif" font-size="10.00">kind</text>
<text text-anchor="start" x="4" y="-526.5" font-family="Helvetica,sans-Serif" font-size="10.00">+</text>
<text text-anchor="start" x="17" y="-526.5" font-family="Helvetica,sans-Serif" font-size="10.00">name</text>
<text text-anchor="start" x="4" y="-511.5" font-family="Helvetica,sans-Serif" font-size="10.00">+</text>
<text text-anchor="start" x="17" y="-511.5" font-family="Helvetica,sans-Serif" font-size="10.00">outputPins</text>
<text text-anchor="start" x="4" y="-496.5" font-family="Helvetica,sans-Serif" font-size="10.00">+</text>
<text text-anchor="start" x="17" y="-496.5" font-family="Helvetica,sans-Serif" font-size="10.00">pollEvents</text>
<text text-anchor="start" x="4" y="-481.5" font-family="Helvetica,sans-Serif" font-size="10.00">#</text>
<text text-anchor="start" x="17" y="-481.5" font-family="Helvetica,sans-Serif" font-size="10.00">_guiConfigDefaultWindowSize</text>
<text text-anchor="start" x="4" y="-466.5" font-family="Helvetica,sans-Serif" font-size="10.00">#</text>
<text text-anchor="start" x="17" y="-466.5" font-family="Helvetica,sans-Serif" font-size="10.00">_hasConfig</text>
<text text-anchor="start" x="4" y="-451.5" font-family="Helvetica,sans-Serif" font-size="10.00">#</text>
<text text-anchor="start" x="17" y="-451.5" font-family="Helvetica,sans-Serif" font-size="10.00">_lockConfigDuringRun</text>
<text text-anchor="start" x="4" y="-436.5" font-family="Helvetica,sans-Serif" font-size="10.00">+</text>
<text text-anchor="start" x="17" y="-436.5" font-family="Helvetica,sans-Serif" font-size="10.00">afterCreateLink()</text>
<text text-anchor="start" x="4" y="-421.5" font-family="Helvetica,sans-Serif" font-size="10.00">+</text>
<text text-anchor="start" x="17" y="-421.5" font-family="Helvetica,sans-Serif" font-size="10.00">afterDeleteLink()</text>
<text text-anchor="start" x="4" y="-406.5" font-family="Helvetica,sans-Serif" font-size="10.00">+</text>
<text text-anchor="start" x="17" y="-406.5" font-family="Helvetica,sans-Serif" font-size="10.00">deinitialize()</text>
<text text-anchor="start" x="4" y="-391.5" font-family="Helvetica,sans-Serif" font-size="10.00">+</text>
<text text-anchor="start" x="17" y="-391.5" font-family="Helvetica,sans-Serif" font-size="10.00">doDeinitialize()</text>
<text text-anchor="start" x="4" y="-376.5" font-family="Helvetica,sans-Serif" font-size="10.00">+</text>
<text text-anchor="start" x="17" y="-376.5" font-family="Helvetica,sans-Serif" font-size="10.00">doDisable()</text>
<text text-anchor="start" x="4" y="-361.5" font-family="Helvetica,sans-Serif" font-size="10.00">+</text>
<text text-anchor="start" x="17" y="-361.5" font-family="Helvetica,sans-Serif" font-size="10.00">doEnable()</text>
<text text-anchor="start" x="4" y="-346.5" font-family="Helvetica,sans-Serif" font-size="10.00">+</text>
<text text-anchor="start" x="17" y="-346.5" font-family="Helvetica,sans-Serif" font-size="10.00">doInitialize()</text>
<text text-anchor="start" x="4" y="-331.5" font-family="Helvetica,sans-Serif" font-size="10.00">+</text>
<text text-anchor="start" x="17" y="-331.5" font-family="Helvetica,sans-Serif" font-size="10.00">doReinitialize()</text>
<text text-anchor="start" x="4" y="-316.5" font-family="Helvetica,sans-Serif" font-size="10.00">+</text>
<text text-anchor="start" x="17" y="-316.5" font-family="Helvetica,sans-Serif" font-size="10.00">flush()</text>
<text text-anchor="start" x="4" y="-301.5" font-family="Helvetica,sans-Serif" font-size="10.00">+</text>
<text text-anchor="start" x="17" y="-301.5" font-family="Helvetica,sans-Serif" font-size="10.00">getInputValue()</text>
<text text-anchor="start" x="17" y="-286.5" font-family="Helvetica,sans-Serif" font-size="10.00">and 32 more...</text>
<text text-anchor="start" x="4" y="-271.5" font-family="Helvetica,sans-Serif" font-size="10.00">+</text>
<text text-anchor="start" x="17" y="-271.5" font-family="Helvetica,sans-Serif" font-size="10.00">toString()</text>
<polygon fill="#666666" stroke="#666666" points="0,-596.5 0,-596.5 168,-596.5 168,-596.5 0,-596.5"/>
<polygon fill="#666666" stroke="#666666" points="0,-446.5 0,-446.5 15,-446.5 15,-446.5 0,-446.5"/>
<polygon fill="#666666" stroke="#666666" points="15,-446.5 15,-446.5 168,-446.5 168,-446.5 15,-446.5"/>
<polygon fill="none" stroke="#666666" points="0,-265 0,-614 168,-614 168,-265 0,-265"/>
</a>
</g>
</g>
<!-- Node2&#45;&gt;Node1 -->
<g id="edge1_Node000001_Node000002" class="edge">
<title>Node2&#45;&gt;Node1</title>
<g id="a_edge1_Node000001_Node000002"><a xlink:title=" ">
<path fill="none" stroke="#63b8ff" d="M130.6,-254.94C132.79,-246.31 134.96,-237.76 137.08,-229.41"/>
<polygon fill="none" stroke="#63b8ff" points="127.19,-254.16 128.12,-264.71 133.97,-255.88 127.19,-254.16"/>
</a>
</g>
</g>
<!-- Node3 -->
<g id="Node000003" class="node">
<title>Node3</title>
<g id="a_Node000003"><a xlink:href="classNAV_1_1UartSensor.html" target="_top" xlink:title="Abstract Uart Sensor Class.">
<polygon fill="white" stroke="transparent" points="310,-539 186,-539 186,-340 310,-340 310,-539"/>
<text text-anchor="start" x="208" y="-526.5" font-family="Helvetica,sans-Serif" font-size="10.00">NAV::UartSensor</text>
<text text-anchor="start" x="190" y="-511.5" font-family="Helvetica,sans-Serif" font-size="10.00">#</text>
<text text-anchor="start" x="203" y="-511.5" font-family="Helvetica,sans-Serif" font-size="10.00">_selectedBaudrate</text>
<text text-anchor="start" x="190" y="-496.5" font-family="Helvetica,sans-Serif" font-size="10.00">#</text>
<text text-anchor="start" x="203" y="-496.5" font-family="Helvetica,sans-Serif" font-size="10.00">_sensorPort</text>
<text text-anchor="start" x="190" y="-481.5" font-family="Helvetica,sans-Serif" font-size="10.00">+</text>
<text text-anchor="start" x="203" y="-481.5" font-family="Helvetica,sans-Serif" font-size="10.00">operator=()</text>
<text text-anchor="start" x="190" y="-466.5" font-family="Helvetica,sans-Serif" font-size="10.00">+</text>
<text text-anchor="start" x="203" y="-466.5" font-family="Helvetica,sans-Serif" font-size="10.00">operator=()</text>
<text text-anchor="start" x="190" y="-451.5" font-family="Helvetica,sans-Serif" font-size="10.00">+</text>
<text text-anchor="start" x="203" y="-451.5" font-family="Helvetica,sans-Serif" font-size="10.00">UartSensor()</text>
<text text-anchor="start" x="190" y="-436.5" font-family="Helvetica,sans-Serif" font-size="10.00">+</text>
<text text-anchor="start" x="203" y="-436.5" font-family="Helvetica,sans-Serif" font-size="10.00">UartSensor()</text>
<text text-anchor="start" x="190" y="-421.5" font-family="Helvetica,sans-Serif" font-size="10.00">+</text>
<text text-anchor="start" x="203" y="-421.5" font-family="Helvetica,sans-Serif" font-size="10.00">~UartSensor()</text>
<text text-anchor="start" x="190" y="-406.5" font-family="Helvetica,sans-Serif" font-size="10.00">#</text>
<text text-anchor="start" x="203" y="-406.5" font-family="Helvetica,sans-Serif" font-size="10.00">restore()</text>
<text text-anchor="start" x="190" y="-391.5" font-family="Helvetica,sans-Serif" font-size="10.00">#</text>
<text text-anchor="start" x="203" y="-391.5" font-family="Helvetica,sans-Serif" font-size="10.00">save()</text>
<text text-anchor="start" x="190" y="-376.5" font-family="Helvetica,sans-Serif" font-size="10.00">#</text>
<text text-anchor="start" x="203" y="-376.5" font-family="Helvetica,sans-Serif" font-size="10.00">sensorBaudrate()</text>
<text text-anchor="start" x="190" y="-361.5" font-family="Helvetica,sans-Serif" font-size="10.00">#</text>
<text text-anchor="start" x="203" y="-361.5" font-family="Helvetica,sans-Serif" font-size="10.00">UartSensor()</text>
<text text-anchor="start" x="190" y="-346.5" font-family="Helvetica,sans-Serif" font-size="10.00">#</text>
<text text-anchor="start" x="203" y="-346.5" font-family="Helvetica,sans-Serif" font-size="10.00">baudrate2Selection()</text>
<polygon fill="#666666" stroke="#666666" points="186,-521.5 186,-521.5 310,-521.5 310,-521.5 186,-521.5"/>
<polygon fill="#666666" stroke="#666666" points="186,-491.5 186,-491.5 201,-491.5 201,-491.5 186,-491.5"/>
<polygon fill="#666666" stroke="#666666" points="201,-491.5 201,-491.5 310,-491.5 310,-491.5 201,-491.5"/>
<polygon fill="none" stroke="#666666" points="186,-340 186,-539 310,-539 310,-340 186,-340"/>
</a>
</g>
</g>
<!-- Node3&#45;&gt;Node1 -->
<g id="edge2_Node000001_Node000003" class="edge">
<title>Node3&#45;&gt;Node1</title>
<g id="a_edge2_Node000001_Node000003"><a xlink:title=" ">
<path fill="none" stroke="#63b8ff" d="M220.43,-329.88C212.2,-297.46 203.15,-261.85 194.84,-229.12"/>
<polygon fill="none" stroke="#63b8ff" points="217.1,-331 222.95,-339.83 223.88,-329.28 217.1,-331"/>
</a>
</g>
</g>
</g>
</svg>
