<?xml version="1.0" encoding="UTF-8" standalone="no"?>
<!DOCTYPE svg PUBLIC "-//W3C//DTD SVG 1.1//EN"
 "http://www.w3.org/Graphics/SVG/1.1/DTD/svg11.dtd">
<!-- Generated by graphviz version 2.43.0 (0)
 -->
<!-- Title: NAV::NodeData Pages: 1 -->
<svg width="1161pt" height="797pt"
 viewBox="0.00 0.00 1160.50 797.00" xmlns="http://www.w3.org/2000/svg" xmlns:xlink="http://www.w3.org/1999/xlink">
<g id="graph0" class="graph" transform="scale(1 1) rotate(0) translate(4 793)">
<title>NAV::NodeData</title>
<!-- Node1 -->
<g id="node1" class="node">
<title>Node1</title>
<g id="a_node1"><a xlink:title="Parent class for all data transmitted over Flow pins.">
<polygon fill="#999999" stroke="#666666" points="615.5,-789 518.5,-789 518.5,-660 615.5,-660 615.5,-789"/>
<text text-anchor="middle" x="567" y="-777" font-family="Helvetica,sans-Serif" font-size="10.00">{NAV::NodeData</text>
<text text-anchor="start" x="526.5" y="-766" font-family="Helvetica,sans-Serif" font-size="10.00">|+ insTime</text>
<text text-anchor="start" x="526.5" y="-755" font-family="Helvetica,sans-Serif" font-size="10.00">|+ NodeData()</text>
<text text-anchor="start" x="526.5" y="-744" font-family="Helvetica,sans-Serif" font-size="10.00">+ NodeData()</text>
<text text-anchor="start" x="526.5" y="-733" font-family="Helvetica,sans-Serif" font-size="10.00">+ NodeData()</text>
<text text-anchor="start" x="526.5" y="-722" font-family="Helvetica,sans-Serif" font-size="10.00">+ operator=()</text>
<text text-anchor="start" x="526.5" y="-711" font-family="Helvetica,sans-Serif" font-size="10.00">+ operator=()</text>
<text text-anchor="start" x="526.5" y="-700" font-family="Helvetica,sans-Serif" font-size="10.00">+ ~NodeData()</text>
<text text-anchor="start" x="526.5" y="-689" font-family="Helvetica,sans-Serif" font-size="10.00">+ parentTypes()</text>
<text text-anchor="start" x="526.5" y="-678" font-family="Helvetica,sans-Serif" font-size="10.00">+ type()</text>
<text text-anchor="middle" x="567" y="-667" font-family="Helvetica,sans-Serif" font-size="10.00">}</text>
</a>
</g>
</g>
<!-- Node2 -->
<g id="node2" class="node">
<title>Node2</title>
<g id="a_node2"><a xlink:href="classNAV_1_1EmlidObs.html" target="_top" xlink:title="Emlid Observation Class.">
<polygon fill="white" stroke="#666666" points="100,-585.5 0,-585.5 0,-500.5 100,-500.5 100,-585.5"/>
<text text-anchor="middle" x="50" y="-573.5" font-family="Helvetica,sans-Serif" font-size="10.00">{NAV::EmlidObs</text>
<text text-anchor="start" x="8" y="-562.5" font-family="Helvetica,sans-Serif" font-size="10.00">|+ data</text>
<text text-anchor="start" x="8" y="-551.5" font-family="Helvetica,sans-Serif" font-size="10.00">+ msgId</text>
<text text-anchor="start" x="8" y="-540.5" font-family="Helvetica,sans-Serif" font-size="10.00">+ payloadLength</text>
<text text-anchor="start" x="8" y="-529.5" font-family="Helvetica,sans-Serif" font-size="10.00">|+ parentTypes()</text>
<text text-anchor="start" x="8" y="-518.5" font-family="Helvetica,sans-Serif" font-size="10.00">+ type()</text>
<text text-anchor="middle" x="50" y="-507.5" font-family="Helvetica,sans-Serif" font-size="10.00">}</text>
</a>
</g>
</g>
<!-- Node1&#45;&gt;Node2 -->
<g id="edge1" class="edge">
<title>Node1&#45;&gt;Node2</title>
<path fill="none" stroke="#63b8ff" d="M508.02,-723.61C415.65,-721.12 234.45,-705.23 109,-624 94.22,-614.43 81.86,-599.79 72.32,-585.63"/>
<polygon fill="none" stroke="#63b8ff" points="508.22,-727.12 518.3,-723.84 508.38,-720.12 508.22,-727.12"/>
</g>
<!-- Node3 -->
<g id="node3" class="node">
<title>Node3</title>
<g id="a_node3"><a xlink:href="classNAV_1_1GnssObs.html" target="_top" xlink:title="GNSS Observation message information.">
<polygon fill="white" stroke="#666666" points="209.5,-580 118.5,-580 118.5,-506 209.5,-506 209.5,-580"/>
<text text-anchor="middle" x="164" y="-568" font-family="Helvetica,sans-Serif" font-size="10.00">{NAV::GnssObs</text>
<text text-anchor="start" x="126.5" y="-557" font-family="Helvetica,sans-Serif" font-size="10.00">|+ data</text>
<text text-anchor="start" x="126.5" y="-546" font-family="Helvetica,sans-Serif" font-size="10.00">|+ operator()()</text>
<text text-anchor="start" x="126.5" y="-535" font-family="Helvetica,sans-Serif" font-size="10.00">+ operator()()</text>
<text text-anchor="start" x="126.5" y="-524" font-family="Helvetica,sans-Serif" font-size="10.00">+ type()</text>
<text text-anchor="middle" x="164" y="-513" font-family="Helvetica,sans-Serif" font-size="10.00">}</text>
</a>
</g>
</g>
<!-- Node1&#45;&gt;Node3 -->
<g id="edge2" class="edge">
<title>Node1&#45;&gt;Node3</title>
<path fill="none" stroke="#63b8ff" d="M508.39,-719.06C434.41,-710.9 306.17,-687.94 218,-624 202.54,-612.79 190.14,-595.7 181.14,-580.19"/>
<polygon fill="none" stroke="#63b8ff" points="508.15,-722.56 518.46,-720.12 508.88,-715.6 508.15,-722.56"/>
</g>
<!-- Node4 -->
<g id="node4" class="node">
<title>Node4</title>
<g id="a_node4"><a xlink:href="classNAV_1_1ImuObs.html" target="_top" xlink:title="IMU Observation storage class.">
<polygon fill="white" stroke="#666666" points="340.5,-624 227.5,-624 227.5,-462 340.5,-462 340.5,-624"/>
<text text-anchor="middle" x="284" y="-612" font-family="Helvetica,sans-Serif" font-size="10.00">{NAV::ImuObs</text>
<text text-anchor="start" x="235.5" y="-601" font-family="Helvetica,sans-Serif" font-size="10.00">|+ accelCompXYZ</text>
<text text-anchor="start" x="235.5" y="-590" font-family="Helvetica,sans-Serif" font-size="10.00">+ accelUncompXYZ</text>
<text text-anchor="start" x="235.5" y="-579" font-family="Helvetica,sans-Serif" font-size="10.00">+ gyroCompXYZ</text>
<text text-anchor="start" x="235.5" y="-568" font-family="Helvetica,sans-Serif" font-size="10.00">+ gyroUncompXYZ</text>
<text text-anchor="start" x="235.5" y="-557" font-family="Helvetica,sans-Serif" font-size="10.00">+ imuPos</text>
<text text-anchor="start" x="235.5" y="-546" font-family="Helvetica,sans-Serif" font-size="10.00">+ magCompXYZ</text>
<text text-anchor="start" x="235.5" y="-535" font-family="Helvetica,sans-Serif" font-size="10.00">+ magUncompXYZ</text>
<text text-anchor="start" x="235.5" y="-524" font-family="Helvetica,sans-Serif" font-size="10.00">+ temperature</text>
<text text-anchor="start" x="235.5" y="-513" font-family="Helvetica,sans-Serif" font-size="10.00">+ timeSinceStartup</text>
<text text-anchor="start" x="235.5" y="-502" font-family="Helvetica,sans-Serif" font-size="10.00">|+ ImuObs()</text>
<text text-anchor="start" x="235.5" y="-491" font-family="Helvetica,sans-Serif" font-size="10.00">+ parentTypes()</text>
<text text-anchor="start" x="235.5" y="-480" font-family="Helvetica,sans-Serif" font-size="10.00">+ type()</text>
<text text-anchor="middle" x="284" y="-469" font-family="Helvetica,sans-Serif" font-size="10.00">}</text>
</a>
</g>
</g>
<!-- Node1&#45;&gt;Node4 -->
<g id="edge3" class="edge">
<title>Node1&#45;&gt;Node4</title>
<path fill="none" stroke="#63b8ff" d="M508.79,-704.96C462.72,-688.45 398.31,-661.15 350,-624 346.86,-621.59 343.77,-619 340.75,-616.28"/>
<polygon fill="none" stroke="#63b8ff" points="507.73,-708.3 518.33,-708.32 510.06,-701.69 507.73,-708.3"/>
</g>
<!-- Node7 -->
<g id="node7" class="node">
<title>Node7</title>
<g id="a_node7"><a xlink:href="classNAV_1_1LcKfInsGnssErrors.html" target="_top" xlink:title="Loosely&#45;coupled Kalman Filter INS/GNSS errors.">
<polygon fill="white" stroke="#666666" points="495,-602 359,-602 359,-484 495,-484 495,-602"/>
<text text-anchor="middle" x="427" y="-590" font-family="Helvetica,sans-Serif" font-size="10.00">{NAV::LcKfInsGnssErrors</text>
<text text-anchor="start" x="367" y="-579" font-family="Helvetica,sans-Serif" font-size="10.00">|+ attitudeError</text>
<text text-anchor="start" x="367" y="-568" font-family="Helvetica,sans-Serif" font-size="10.00">+ b_biasAccel</text>
<text text-anchor="start" x="367" y="-557" font-family="Helvetica,sans-Serif" font-size="10.00">+ b_biasGyro</text>
<text text-anchor="start" x="367" y="-546" font-family="Helvetica,sans-Serif" font-size="10.00">+ frame</text>
<text text-anchor="start" x="367" y="-535" font-family="Helvetica,sans-Serif" font-size="10.00">+ positionError</text>
<text text-anchor="start" x="367" y="-524" font-family="Helvetica,sans-Serif" font-size="10.00">+ velocityError</text>
<text text-anchor="start" x="367" y="-513" font-family="Helvetica,sans-Serif" font-size="10.00">|+ parentTypes()</text>
<text text-anchor="start" x="367" y="-502" font-family="Helvetica,sans-Serif" font-size="10.00">+ type()</text>
<text text-anchor="middle" x="427" y="-491" font-family="Helvetica,sans-Serif" font-size="10.00">}</text>
</a>
</g>
</g>
<!-- Node1&#45;&gt;Node7 -->
<g id="edge6" class="edge">
<title>Node1&#45;&gt;Node7</title>
<path fill="none" stroke="#63b8ff" d="M512.05,-653.05C498.93,-636.23 485.07,-618.45 472.43,-602.25"/>
<polygon fill="none" stroke="#63b8ff" points="509.52,-655.49 518.43,-661.22 515.04,-651.19 509.52,-655.49"/>
</g>
<!-- Node8 -->
<g id="node8" class="node">
<title>Node8</title>
<g id="a_node8"><a xlink:href="classNAV_1_1Pos.html" target="_top" xlink:title="Position, Velocity and Attitude Storage Class.">
<polygon fill="white" stroke="#666666" points="620.5,-618.5 513.5,-618.5 513.5,-467.5 620.5,-467.5 620.5,-618.5"/>
<text text-anchor="middle" x="567" y="-606.5" font-family="Helvetica,sans-Serif" font-size="10.00">{NAV::Pos</text>
<text text-anchor="start" x="521.5" y="-595.5" font-family="Helvetica,sans-Serif" font-size="10.00">||+ altitude()</text>
<text text-anchor="start" x="521.5" y="-584.5" font-family="Helvetica,sans-Serif" font-size="10.00">+ e_position()</text>
<text text-anchor="start" x="521.5" y="-573.5" font-family="Helvetica,sans-Serif" font-size="10.00">+ e_Quat_n()</text>
<text text-anchor="start" x="521.5" y="-562.5" font-family="Helvetica,sans-Serif" font-size="10.00">+ latitude()</text>
<text text-anchor="start" x="521.5" y="-551.5" font-family="Helvetica,sans-Serif" font-size="10.00">+ lla_position()</text>
<text text-anchor="start" x="521.5" y="-540.5" font-family="Helvetica,sans-Serif" font-size="10.00">+ longitude()</text>
<text text-anchor="start" x="521.5" y="-529.5" font-family="Helvetica,sans-Serif" font-size="10.00">+ n_Quat_e()</text>
<text text-anchor="start" x="521.5" y="-518.5" font-family="Helvetica,sans-Serif" font-size="10.00">+ setPosition_e()</text>
<text text-anchor="start" x="521.5" y="-507.5" font-family="Helvetica,sans-Serif" font-size="10.00">+ setPosition_lla()</text>
<text text-anchor="start" x="521.5" y="-496.5" font-family="Helvetica,sans-Serif" font-size="10.00">+ parentTypes()</text>
<text text-anchor="start" x="521.5" y="-485.5" font-family="Helvetica,sans-Serif" font-size="10.00">+ type()</text>
<text text-anchor="middle" x="567" y="-474.5" font-family="Helvetica,sans-Serif" font-size="10.00">}</text>
</a>
</g>
</g>
<!-- Node1&#45;&gt;Node8 -->
<g id="edge7" class="edge">
<title>Node1&#45;&gt;Node8</title>
<path fill="none" stroke="#63b8ff" d="M567,-649.76C567,-639.45 567,-628.84 567,-618.5"/>
<polygon fill="none" stroke="#63b8ff" points="563.5,-649.96 567,-659.96 570.5,-649.96 563.5,-649.96"/>
</g>
<!-- Node14 -->
<g id="node14" class="node">
<title>Node14</title>
<g id="a_node14"><a xlink:href="classNAV_1_1StringObs.html" target="_top" xlink:title="IMU Observation storage class.">
<polygon fill="white" stroke="#666666" points="733.5,-580 638.5,-580 638.5,-506 733.5,-506 733.5,-580"/>
<text text-anchor="middle" x="686" y="-568" font-family="Helvetica,sans-Serif" font-size="10.00">{NAV::StringObs</text>
<text text-anchor="start" x="646.5" y="-557" font-family="Helvetica,sans-Serif" font-size="10.00">|+ data</text>
<text text-anchor="start" x="646.5" y="-546" font-family="Helvetica,sans-Serif" font-size="10.00">|+ StringObs()</text>
<text text-anchor="start" x="646.5" y="-535" font-family="Helvetica,sans-Serif" font-size="10.00">+ parentTypes()</text>
<text text-anchor="start" x="646.5" y="-524" font-family="Helvetica,sans-Serif" font-size="10.00">+ type()</text>
<text text-anchor="middle" x="686" y="-513" font-family="Helvetica,sans-Serif" font-size="10.00">}</text>
</a>
</g>
</g>
<!-- Node1&#45;&gt;Node14 -->
<g id="edge13" class="edge">
<title>Node1&#45;&gt;Node14</title>
<path fill="none" stroke="#63b8ff" d="M614.82,-651.37C631.08,-626.84 648.56,-600.47 662.13,-580.01"/>
<polygon fill="none" stroke="#63b8ff" points="611.73,-649.69 609.12,-659.96 617.57,-653.56 611.73,-649.69"/>
</g>
<!-- Node15 -->
<g id="node15" class="node">
<title>Node15</title>
<g id="a_node15"><a xlink:href="classNAV_1_1UartPacket.html" target="_top" xlink:title="UART Packet storage class.">
<polygon fill="white" stroke="#666666" points="852.5,-580 751.5,-580 751.5,-506 852.5,-506 852.5,-580"/>
<text text-anchor="middle" x="802" y="-568" font-family="Helvetica,sans-Serif" font-size="10.00">{NAV::UartPacket</text>
<text text-anchor="start" x="759.5" y="-557" font-family="Helvetica,sans-Serif" font-size="10.00">|+ raw</text>
<text text-anchor="start" x="759.5" y="-546" font-family="Helvetica,sans-Serif" font-size="10.00">|+ UartPacket()</text>
<text text-anchor="start" x="759.5" y="-535" font-family="Helvetica,sans-Serif" font-size="10.00">+ parentTypes()</text>
<text text-anchor="start" x="759.5" y="-524" font-family="Helvetica,sans-Serif" font-size="10.00">+ type()</text>
<text text-anchor="middle" x="802" y="-513" font-family="Helvetica,sans-Serif" font-size="10.00">}</text>
</a>
</g>
</g>
<!-- Node1&#45;&gt;Node15 -->
<g id="edge14" class="edge">
<title>Node1&#45;&gt;Node15</title>
<path fill="none" stroke="#63b8ff" d="M625.18,-698.32C661.52,-680.82 707.91,-655.09 743,-624 757.21,-611.41 770.1,-594.87 780.18,-580.1"/>
<polygon fill="none" stroke="#63b8ff" points="623.24,-695.37 615.7,-702.82 626.23,-701.7 623.24,-695.37"/>
</g>
<!-- Node16 -->
<g id="node16" class="node">
<title>Node16</title>
<g id="a_node16"><a xlink:href="classNAV_1_1UbloxObs.html" target="_top" xlink:title="ublox Observation Class">
<polygon fill="white" stroke="#666666" points="971,-591 871,-591 871,-495 971,-495 971,-591"/>
<text text-anchor="middle" x="921" y="-579" font-family="Helvetica,sans-Serif" font-size="10.00">{NAV::UbloxObs</text>
<text text-anchor="start" x="879" y="-568" font-family="Helvetica,sans-Serif" font-size="10.00">|+ data</text>
<text text-anchor="start" x="879" y="-557" font-family="Helvetica,sans-Serif" font-size="10.00">+ msgClass</text>
<text text-anchor="start" x="879" y="-546" font-family="Helvetica,sans-Serif" font-size="10.00">+ msgId</text>
<text text-anchor="start" x="879" y="-535" font-family="Helvetica,sans-Serif" font-size="10.00">+ payloadLength</text>
<text text-anchor="start" x="879" y="-524" font-family="Helvetica,sans-Serif" font-size="10.00">|+ parentTypes()</text>
<text text-anchor="start" x="879" y="-513" font-family="Helvetica,sans-Serif" font-size="10.00">+ type()</text>
<text text-anchor="middle" x="921" y="-502" font-family="Helvetica,sans-Serif" font-size="10.00">}</text>
</a>
</g>
</g>
<!-- Node1&#45;&gt;Node16 -->
<g id="edge15" class="edge">
<title>Node1&#45;&gt;Node16</title>
<path fill="none" stroke="#63b8ff" d="M625.76,-714.5C689.03,-702.5 790.24,-676.36 862,-624 873.99,-615.25 884.58,-603.35 893.36,-591.41"/>
<polygon fill="none" stroke="#63b8ff" points="624.76,-711.13 615.56,-716.38 626.03,-718.01 624.76,-711.13"/>
</g>
<!-- Node17 -->
<g id="node17" class="node">
<title>Node17</title>
<g id="a_node17"><a xlink:href="classNAV_1_1VectorNavBinaryOutput.html" target="_top" xlink:title="IMU Observation storage class.">
<polygon fill="white" stroke="#666666" points="1152.5,-613 989.5,-613 989.5,-473 1152.5,-473 1152.5,-613"/>
<text text-anchor="middle" x="1071" y="-601" font-family="Helvetica,sans-Serif" font-size="10.00">{NAV::VectorNavBinaryOutput</text>
<text text-anchor="start" x="997.5" y="-590" font-family="Helvetica,sans-Serif" font-size="10.00">|+ attitudeOutputs</text>
<text text-anchor="start" x="997.5" y="-579" font-family="Helvetica,sans-Serif" font-size="10.00">+ gnss1Outputs</text>
<text text-anchor="start" x="997.5" y="-568" font-family="Helvetica,sans-Serif" font-size="10.00">+ gnss2Outputs</text>
<text text-anchor="start" x="997.5" y="-557" font-family="Helvetica,sans-Serif" font-size="10.00">+ imuOutputs</text>
<text text-anchor="start" x="997.5" y="-546" font-family="Helvetica,sans-Serif" font-size="10.00">+ imuPos</text>
<text text-anchor="start" x="997.5" y="-535" font-family="Helvetica,sans-Serif" font-size="10.00">+ insOutputs</text>
<text text-anchor="start" x="997.5" y="-524" font-family="Helvetica,sans-Serif" font-size="10.00">+ timeOutputs</text>
<text text-anchor="start" x="997.5" y="-513" font-family="Helvetica,sans-Serif" font-size="10.00">|+ VectorNavBinaryOutput()</text>
<text text-anchor="start" x="997.5" y="-502" font-family="Helvetica,sans-Serif" font-size="10.00">+ parentTypes()</text>
<text text-anchor="start" x="997.5" y="-491" font-family="Helvetica,sans-Serif" font-size="10.00">+ type()</text>
<text text-anchor="middle" x="1071" y="-480" font-family="Helvetica,sans-Serif" font-size="10.00">}</text>
</a>
</g>
</g>
<!-- Node1&#45;&gt;Node17 -->
<g id="edge16" class="edge">
<title>Node1&#45;&gt;Node17</title>
<path fill="none" stroke="#63b8ff" d="M625.77,-718.31C708.79,-709.05 863.28,-684.59 980,-624 986.16,-620.8 992.25,-617.1 998.17,-613.07"/>
<polygon fill="none" stroke="#63b8ff" points="625.33,-714.84 615.76,-719.39 626.08,-721.8 625.33,-714.84"/>
</g>
<!-- Node5 -->
<g id="node5" class="node">
<title>Node5</title>
<g id="a_node5"><a xlink:href="classNAV_1_1ImuObsWDelta.html" target="_top" xlink:title="VectorNav Observation storage Class.">
<polygon fill="white" stroke="#666666" points="277,-420.5 155,-420.5 155,-324.5 277,-324.5 277,-420.5"/>
<text text-anchor="middle" x="216" y="-408.5" font-family="Helvetica,sans-Serif" font-size="10.00">{NAV::ImuObsWDelta</text>
<text text-anchor="start" x="163" y="-397.5" font-family="Helvetica,sans-Serif" font-size="10.00">|+ dtheta</text>
<text text-anchor="start" x="163" y="-386.5" font-family="Helvetica,sans-Serif" font-size="10.00">+ dtime</text>
<text text-anchor="start" x="163" y="-375.5" font-family="Helvetica,sans-Serif" font-size="10.00">+ dvel</text>
<text text-anchor="start" x="163" y="-364.5" font-family="Helvetica,sans-Serif" font-size="10.00">|+ ImuObsWDelta()</text>
<text text-anchor="start" x="163" y="-353.5" font-family="Helvetica,sans-Serif" font-size="10.00">+ parentTypes()</text>
<text text-anchor="start" x="163" y="-342.5" font-family="Helvetica,sans-Serif" font-size="10.00">+ type()</text>
<text text-anchor="middle" x="216" y="-331.5" font-family="Helvetica,sans-Serif" font-size="10.00">}</text>
</a>
</g>
</g>
<!-- Node4&#45;&gt;Node5 -->
<g id="edge4" class="edge">
<title>Node4&#45;&gt;Node5</title>
<path fill="none" stroke="#63b8ff" d="M247.73,-452.13C243.34,-441.26 239.01,-430.51 235.02,-420.62"/>
<polygon fill="none" stroke="#63b8ff" points="244.61,-453.73 251.59,-461.7 251.1,-451.11 244.61,-453.73"/>
</g>
<!-- Node6 -->
<g id="node6" class="node">
<title>Node6</title>
<g id="a_node6"><a xlink:href="classNAV_1_1KvhObs.html" target="_top" xlink:title="Kvh Observation storage Class.">
<polygon fill="white" stroke="#666666" points="408.5,-426 295.5,-426 295.5,-319 408.5,-319 408.5,-426"/>
<text text-anchor="middle" x="352" y="-414" font-family="Helvetica,sans-Serif" font-size="10.00">{NAV::KvhObs</text>
<text text-anchor="start" x="303.5" y="-403" font-family="Helvetica,sans-Serif" font-size="10.00">|+ raw</text>
<text text-anchor="start" x="303.5" y="-392" font-family="Helvetica,sans-Serif" font-size="10.00">+ sequenceNumber</text>
<text text-anchor="start" x="303.5" y="-381" font-family="Helvetica,sans-Serif" font-size="10.00">+ status</text>
<text text-anchor="start" x="303.5" y="-370" font-family="Helvetica,sans-Serif" font-size="10.00">|+ KvhObs()</text>
<text text-anchor="start" x="303.5" y="-359" font-family="Helvetica,sans-Serif" font-size="10.00">+ KvhObs()</text>
<text text-anchor="start" x="303.5" y="-348" font-family="Helvetica,sans-Serif" font-size="10.00">+ parentTypes()</text>
<text text-anchor="start" x="303.5" y="-337" font-family="Helvetica,sans-Serif" font-size="10.00">+ type()</text>
<text text-anchor="middle" x="352" y="-326" font-family="Helvetica,sans-Serif" font-size="10.00">}</text>
</a>
</g>
</g>
<!-- Node4&#45;&gt;Node6 -->
<g id="edge5" class="edge">
<title>Node4&#45;&gt;Node6</title>
<path fill="none" stroke="#63b8ff" d="M320.17,-452.38C323.77,-443.46 327.34,-434.61 330.71,-426.25"/>
<polygon fill="none" stroke="#63b8ff" points="316.9,-451.11 316.41,-461.7 323.39,-453.73 316.9,-451.11"/>
</g>
<!-- Node9 -->
<g id="node9" class="node">
<title>Node9</title>
<g id="a_node9"><a xlink:href="classNAV_1_1PosVel.html" target="_top" xlink:title="Position, Velocity and Attitude Storage Class.">
<polygon fill="white" stroke="#666666" points="617.5,-420.5 516.5,-420.5 516.5,-324.5 617.5,-324.5 617.5,-420.5"/>
<text text-anchor="middle" x="567" y="-408.5" font-family="Helvetica,sans-Serif" font-size="10.00">{NAV::PosVel</text>
<text text-anchor="start" x="524.5" y="-397.5" font-family="Helvetica,sans-Serif" font-size="10.00">||+ e_velocity()</text>
<text text-anchor="start" x="524.5" y="-386.5" font-family="Helvetica,sans-Serif" font-size="10.00">+ n_velocity()</text>
<text text-anchor="start" x="524.5" y="-375.5" font-family="Helvetica,sans-Serif" font-size="10.00">+ setVelocity_e()</text>
<text text-anchor="start" x="524.5" y="-364.5" font-family="Helvetica,sans-Serif" font-size="10.00">+ setVelocity_n()</text>
<text text-anchor="start" x="524.5" y="-353.5" font-family="Helvetica,sans-Serif" font-size="10.00">+ parentTypes()</text>
<text text-anchor="start" x="524.5" y="-342.5" font-family="Helvetica,sans-Serif" font-size="10.00">+ type()</text>
<text text-anchor="middle" x="567" y="-331.5" font-family="Helvetica,sans-Serif" font-size="10.00">}</text>
</a>
</g>
</g>
<!-- Node8&#45;&gt;Node9 -->
<g id="edge8" class="edge">
<title>Node8&#45;&gt;Node9</title>
<path fill="none" stroke="#63b8ff" d="M567,-457.06C567,-444.51 567,-431.98 567,-420.58"/>
<polygon fill="none" stroke="#63b8ff" points="563.5,-457.11 567,-467.11 570.5,-457.11 563.5,-457.11"/>
</g>
<!-- Node10 -->
<g id="node10" class="node">
<title>Node10</title>
<g id="a_node10"><a xlink:href="classNAV_1_1PosVelAtt.html" target="_top" xlink:title="Position, Velocity and Attitude Storage Class.">
<polygon fill="white" stroke="#666666" points="492,-266.5 352,-266.5 352,-115.5 492,-115.5 492,-266.5"/>
<text text-anchor="middle" x="422" y="-254.5" font-family="Helvetica,sans-Serif" font-size="10.00">{NAV::PosVelAtt</text>
<text text-anchor="start" x="360" y="-243.5" font-family="Helvetica,sans-Serif" font-size="10.00">||+ b_Quat_e()</text>
<text text-anchor="start" x="360" y="-232.5" font-family="Helvetica,sans-Serif" font-size="10.00">+ b_Quat_n()</text>
<text text-anchor="start" x="360" y="-221.5" font-family="Helvetica,sans-Serif" font-size="10.00">+ e_Quat_b()</text>
<text text-anchor="start" x="360" y="-210.5" font-family="Helvetica,sans-Serif" font-size="10.00">+ n_Quat_b()</text>
<text text-anchor="start" x="360" y="-199.5" font-family="Helvetica,sans-Serif" font-size="10.00">+ rollPitchYaw()</text>
<text text-anchor="start" x="360" y="-188.5" font-family="Helvetica,sans-Serif" font-size="10.00">+ setAttitude_e_Quat_b()</text>
<text text-anchor="start" x="360" y="-177.5" font-family="Helvetica,sans-Serif" font-size="10.00">+ setAttitude_n_Quat_b()</text>
<text text-anchor="start" x="360" y="-166.5" font-family="Helvetica,sans-Serif" font-size="10.00">+ setState_e()</text>
<text text-anchor="start" x="360" y="-155.5" font-family="Helvetica,sans-Serif" font-size="10.00">+ setState_n()</text>
<text text-anchor="start" x="360" y="-144.5" font-family="Helvetica,sans-Serif" font-size="10.00">+ parentTypes()</text>
<text text-anchor="start" x="360" y="-133.5" font-family="Helvetica,sans-Serif" font-size="10.00">+ type()</text>
<text text-anchor="middle" x="422" y="-122.5" font-family="Helvetica,sans-Serif" font-size="10.00">}</text>
</a>
</g>
</g>
<!-- Node9&#45;&gt;Node10 -->
<g id="edge9" class="edge">
<title>Node9&#45;&gt;Node10</title>
<path fill="none" stroke="#63b8ff" d="M522.41,-316.3C509.73,-300.61 495.72,-283.26 482.28,-266.62"/>
<polygon fill="none" stroke="#63b8ff" points="519.9,-318.76 528.9,-324.34 525.34,-314.36 519.9,-318.76"/>
</g>
<!-- Node12 -->
<g id="node12" class="node">
<title>Node12</title>
<g id="a_node12"><a xlink:href="classNAV_1_1RtklibPosObs.html" target="_top" xlink:title="RTKLIB Observation Class.">
<polygon fill="white" stroke="#666666" points="623.5,-277.5 510.5,-277.5 510.5,-104.5 623.5,-104.5 623.5,-277.5"/>
<text text-anchor="middle" x="567" y="-265.5" font-family="Helvetica,sans-Serif" font-size="10.00">{NAV::RtklibPosObs</text>
<text text-anchor="start" x="518.5" y="-254.5" font-family="Helvetica,sans-Serif" font-size="10.00">|+ age</text>
<text text-anchor="start" x="518.5" y="-243.5" font-family="Helvetica,sans-Serif" font-size="10.00">+ ns</text>
<text text-anchor="start" x="518.5" y="-232.5" font-family="Helvetica,sans-Serif" font-size="10.00">+ Q</text>
<text text-anchor="start" x="518.5" y="-221.5" font-family="Helvetica,sans-Serif" font-size="10.00">+ ratio</text>
<text text-anchor="start" x="518.5" y="-210.5" font-family="Helvetica,sans-Serif" font-size="10.00">+ sddn</text>
<text text-anchor="start" x="518.5" y="-199.5" font-family="Helvetica,sans-Serif" font-size="10.00">+ sded</text>
<text text-anchor="start" x="518.5" y="-188.5" font-family="Helvetica,sans-Serif" font-size="10.00">+ sdne</text>
<text text-anchor="start" x="518.5" y="-177.5" font-family="Helvetica,sans-Serif" font-size="10.00">+ sdNED</text>
<text text-anchor="start" x="518.5" y="-166.5" font-family="Helvetica,sans-Serif" font-size="10.00">+ sdvdn</text>
<text text-anchor="start" x="518.5" y="-155.5" font-family="Helvetica,sans-Serif" font-size="10.00">+ sdved</text>
<text text-anchor="start" x="518.5" y="-144.5" font-family="Helvetica,sans-Serif" font-size="10.00">and 6 more...</text>
<text text-anchor="start" x="518.5" y="-133.5" font-family="Helvetica,sans-Serif" font-size="10.00">|+ parentTypes()</text>
<text text-anchor="start" x="518.5" y="-122.5" font-family="Helvetica,sans-Serif" font-size="10.00">+ type()</text>
<text text-anchor="middle" x="567" y="-111.5" font-family="Helvetica,sans-Serif" font-size="10.00">}</text>
</a>
</g>
</g>
<!-- Node9&#45;&gt;Node12 -->
<g id="edge11" class="edge">
<title>Node9&#45;&gt;Node12</title>
<path fill="none" stroke="#63b8ff" d="M567,-314.33C567,-302.66 567,-290.15 567,-277.73"/>
<polygon fill="none" stroke="#63b8ff" points="563.5,-314.34 567,-324.34 570.5,-314.34 563.5,-314.34"/>
</g>
<!-- Node13 -->
<g id="node13" class="node">
<title>Node13</title>
<g id="a_node13"><a xlink:href="classNAV_1_1SppSolution.html" target="_top" xlink:title="SPP Algorithm output.">
<polygon fill="white" stroke="#666666" points="796.5,-283 641.5,-283 641.5,-99 796.5,-99 796.5,-283"/>
<text text-anchor="middle" x="719" y="-271" font-family="Helvetica,sans-Serif" font-size="10.00">{NAV::SppSolution</text>
<text text-anchor="start" x="649.5" y="-260" font-family="Helvetica,sans-Serif" font-size="10.00">|+ clkBias</text>
<text text-anchor="start" x="649.5" y="-249" font-family="Helvetica,sans-Serif" font-size="10.00">+ clkBiasStdev</text>
<text text-anchor="start" x="649.5" y="-238" font-family="Helvetica,sans-Serif" font-size="10.00">+ clkDrift</text>
<text text-anchor="start" x="649.5" y="-227" font-family="Helvetica,sans-Serif" font-size="10.00">+ clkDriftStdev</text>
<text text-anchor="start" x="649.5" y="-216" font-family="Helvetica,sans-Serif" font-size="10.00">+ nSatellitesPosition</text>
<text text-anchor="start" x="649.5" y="-205" font-family="Helvetica,sans-Serif" font-size="10.00">+ nSatellitesVelocity</text>
<text text-anchor="start" x="649.5" y="-194" font-family="Helvetica,sans-Serif" font-size="10.00">|+ e_positionStdev()</text>
<text text-anchor="start" x="649.5" y="-183" font-family="Helvetica,sans-Serif" font-size="10.00">+ e_velocityStdev()</text>
<text text-anchor="start" x="649.5" y="-172" font-family="Helvetica,sans-Serif" font-size="10.00">+ n_positionStdev()</text>
<text text-anchor="start" x="649.5" y="-161" font-family="Helvetica,sans-Serif" font-size="10.00">+ n_velocityStdev()</text>
<text text-anchor="start" x="649.5" y="-150" font-family="Helvetica,sans-Serif" font-size="10.00">+ setPositionAndStdDev_e()</text>
<text text-anchor="start" x="649.5" y="-139" font-family="Helvetica,sans-Serif" font-size="10.00">+ setVelocityAndStdDev_e()</text>
<text text-anchor="start" x="649.5" y="-128" font-family="Helvetica,sans-Serif" font-size="10.00">+ parentTypes()</text>
<text text-anchor="start" x="649.5" y="-117" font-family="Helvetica,sans-Serif" font-size="10.00">+ type()</text>
<text text-anchor="middle" x="719" y="-106" font-family="Helvetica,sans-Serif" font-size="10.00">}</text>
</a>
</g>
</g>
<!-- Node9&#45;&gt;Node13 -->
<g id="edge12" class="edge">
<title>Node9&#45;&gt;Node13</title>
<path fill="none" stroke="#63b8ff" d="M613.62,-316.45C622.54,-305.92 632.09,-294.63 641.67,-283.32"/>
<polygon fill="none" stroke="#63b8ff" points="610.73,-314.45 606.94,-324.34 616.07,-318.97 610.73,-314.45"/>
</g>
<!-- Node11 -->
<g id="node11" class="node">
<title>Node11</title>
<g id="a_node11"><a xlink:href="classNAV_1_1InertialNavSol.html" target="_top" xlink:title="Position, Velocity and Attitude Storage Class.">
<polygon fill="white" stroke="#666666" points="480.5,-63 363.5,-63 363.5,0 480.5,0 480.5,-63"/>
<text text-anchor="middle" x="422" y="-51" font-family="Helvetica,sans-Serif" font-size="10.00">{NAV::InertialNavSol</text>
<text text-anchor="start" x="371.5" y="-40" font-family="Helvetica,sans-Serif" font-size="10.00">|+ imuObs</text>
<text text-anchor="start" x="371.5" y="-29" font-family="Helvetica,sans-Serif" font-size="10.00">|+ parentTypes()</text>
<text text-anchor="start" x="371.5" y="-18" font-family="Helvetica,sans-Serif" font-size="10.00">+ type()</text>
<text text-anchor="middle" x="422" y="-7" font-family="Helvetica,sans-Serif" font-size="10.00">}</text>
</a>
</g>
</g>
<!-- Node10&#45;&gt;Node11 -->
<g id="edge10" class="edge">
<title>Node10&#45;&gt;Node11</title>
<path fill="none" stroke="#63b8ff" d="M422,-105.02C422,-90.06 422,-75.39 422,-63.21"/>
<polygon fill="none" stroke="#63b8ff" points="418.5,-105.4 422,-115.4 425.5,-105.4 418.5,-105.4"/>
</g>
</g>
</svg>
