<?xml version="1.0" encoding="UTF-8" standalone="no"?>
<!DOCTYPE svg PUBLIC "-//W3C//DTD SVG 1.1//EN"
 "http://www.w3.org/Graphics/SVG/1.1/DTD/svg11.dtd">
<!-- Generated by graphviz version 2.43.0 (0)
 -->
<!-- Title: NAV::KvhFile Pages: 1 -->
<svg width="294pt" height="962pt"
 viewBox="0.00 0.00 294.00 962.00" xmlns="http://www.w3.org/2000/svg" xmlns:xlink="http://www.w3.org/1999/xlink">
<g id="graph0" class="graph" transform="scale(1 1) rotate(0) translate(4 958)">
<title>NAV::KvhFile</title>
<!-- Node1 -->
<g id="Node000001" class="node">
<title>Node1</title>
<g id="a_Node000001"><a xlink:title="File Reader for Kvh log files.">
<polygon fill="#999999" stroke="transparent" points="189.5,-229 110.5,-229 110.5,0 189.5,0 189.5,-229"/>
<text text-anchor="start" x="119.5" y="-216.5" font-family="Helvetica,sans-Serif" font-size="10.00">NAV::KvhFile</text>
<text text-anchor="start" x="148.5" y="-201.5" font-family="Helvetica,sans-Serif" font-size="10.00"> </text>
<text text-anchor="start" x="115" y="-186.5" font-family="Helvetica,sans-Serif" font-size="10.00">+</text>
<text text-anchor="start" x="128" y="-186.5" font-family="Helvetica,sans-Serif" font-size="10.00">guiConfig()</text>
<text text-anchor="start" x="115" y="-171.5" font-family="Helvetica,sans-Serif" font-size="10.00">+</text>
<text text-anchor="start" x="128" y="-171.5" font-family="Helvetica,sans-Serif" font-size="10.00">KvhFile()</text>
<text text-anchor="start" x="115" y="-156.5" font-family="Helvetica,sans-Serif" font-size="10.00">+</text>
<text text-anchor="start" x="128" y="-156.5" font-family="Helvetica,sans-Serif" font-size="10.00">KvhFile()</text>
<text text-anchor="start" x="115" y="-141.5" font-family="Helvetica,sans-Serif" font-size="10.00">+</text>
<text text-anchor="start" x="128" y="-141.5" font-family="Helvetica,sans-Serif" font-size="10.00">KvhFile()</text>
<text text-anchor="start" x="115" y="-126.5" font-family="Helvetica,sans-Serif" font-size="10.00">+</text>
<text text-anchor="start" x="128" y="-126.5" font-family="Helvetica,sans-Serif" font-size="10.00">operator=()</text>
<text text-anchor="start" x="115" y="-111.5" font-family="Helvetica,sans-Serif" font-size="10.00">+</text>
<text text-anchor="start" x="128" y="-111.5" font-family="Helvetica,sans-Serif" font-size="10.00">operator=()</text>
<text text-anchor="start" x="115" y="-96.5" font-family="Helvetica,sans-Serif" font-size="10.00">+</text>
<text text-anchor="start" x="128" y="-96.5" font-family="Helvetica,sans-Serif" font-size="10.00">resetNode()</text>
<text text-anchor="start" x="115" y="-81.5" font-family="Helvetica,sans-Serif" font-size="10.00">+</text>
<text text-anchor="start" x="128" y="-81.5" font-family="Helvetica,sans-Serif" font-size="10.00">restore()</text>
<text text-anchor="start" x="115" y="-66.5" font-family="Helvetica,sans-Serif" font-size="10.00">+</text>
<text text-anchor="start" x="128" y="-66.5" font-family="Helvetica,sans-Serif" font-size="10.00">save()</text>
<text text-anchor="start" x="115" y="-51.5" font-family="Helvetica,sans-Serif" font-size="10.00">+</text>
<text text-anchor="start" x="128" y="-51.5" font-family="Helvetica,sans-Serif" font-size="10.00">type()</text>
<text text-anchor="start" x="115" y="-36.5" font-family="Helvetica,sans-Serif" font-size="10.00">+</text>
<text text-anchor="start" x="128" y="-36.5" font-family="Helvetica,sans-Serif" font-size="10.00">~KvhFile()</text>
<text text-anchor="start" x="115" y="-21.5" font-family="Helvetica,sans-Serif" font-size="10.00">+</text>
<text text-anchor="start" x="128" y="-21.5" font-family="Helvetica,sans-Serif" font-size="10.00">category()</text>
<text text-anchor="start" x="115" y="-6.5" font-family="Helvetica,sans-Serif" font-size="10.00">+</text>
<text text-anchor="start" x="128" y="-6.5" font-family="Helvetica,sans-Serif" font-size="10.00">typeStatic()</text>
<polygon fill="#666666" stroke="#666666" points="111,-211.5 111,-211.5 190,-211.5 190,-211.5 111,-211.5"/>
<polygon fill="#666666" stroke="#666666" points="111,-196.5 111,-196.5 190,-196.5 190,-196.5 111,-196.5"/>
<polygon fill="none" stroke="#666666" points="110.5,0 110.5,-229 189.5,-229 189.5,0 110.5,0"/>
</a>
</g>
</g>
<!-- Node2 -->
<g id="Node000002" class="node">
<title>Node2</title>
<g id="a_Node000002"><a xlink:href="classNAV_1_1Imu.html" target="_top" xlink:title="Abstract IMU Class.">
<polygon fill="white" stroke="transparent" points="127.5,-509 40.5,-509 40.5,-325 127.5,-325 127.5,-509"/>
<text text-anchor="start" x="62" y="-497" font-family="Helvetica,sans-Serif" font-size="10.00">NAV::Imu</text>
<text text-anchor="start" x="45" y="-482" font-family="Helvetica,sans-Serif" font-size="10.00">#</text>
<text text-anchor="start" x="58" y="-482" font-family="Helvetica,sans-Serif" font-size="10.00">_imuPos</text>
<text text-anchor="start" x="45" y="-467" font-family="Helvetica,sans-Serif" font-size="10.00">+</text>
<text text-anchor="start" x="58" y="-467" font-family="Helvetica,sans-Serif" font-size="10.00">guiConfig()</text>
<text text-anchor="start" x="45" y="-452" font-family="Helvetica,sans-Serif" font-size="10.00">+</text>
<text text-anchor="start" x="58" y="-452" font-family="Helvetica,sans-Serif" font-size="10.00">Imu()</text>
<text text-anchor="start" x="45" y="-437" font-family="Helvetica,sans-Serif" font-size="10.00">+</text>
<text text-anchor="start" x="58" y="-437" font-family="Helvetica,sans-Serif" font-size="10.00">Imu()</text>
<text text-anchor="start" x="45" y="-422" font-family="Helvetica,sans-Serif" font-size="10.00">+</text>
<text text-anchor="start" x="58" y="-422" font-family="Helvetica,sans-Serif" font-size="10.00">imuPosition()</text>
<text text-anchor="start" x="45" y="-407" font-family="Helvetica,sans-Serif" font-size="10.00">+</text>
<text text-anchor="start" x="58" y="-407" font-family="Helvetica,sans-Serif" font-size="10.00">operator=()</text>
<text text-anchor="start" x="45" y="-392" font-family="Helvetica,sans-Serif" font-size="10.00">+</text>
<text text-anchor="start" x="58" y="-392" font-family="Helvetica,sans-Serif" font-size="10.00">operator=()</text>
<text text-anchor="start" x="45" y="-377" font-family="Helvetica,sans-Serif" font-size="10.00">+</text>
<text text-anchor="start" x="58" y="-377" font-family="Helvetica,sans-Serif" font-size="10.00">restore()</text>
<text text-anchor="start" x="45" y="-362" font-family="Helvetica,sans-Serif" font-size="10.00">+</text>
<text text-anchor="start" x="58" y="-362" font-family="Helvetica,sans-Serif" font-size="10.00">save()</text>
<text text-anchor="start" x="45" y="-347" font-family="Helvetica,sans-Serif" font-size="10.00">+</text>
<text text-anchor="start" x="58" y="-347" font-family="Helvetica,sans-Serif" font-size="10.00">~Imu()</text>
<text text-anchor="start" x="45" y="-332" font-family="Helvetica,sans-Serif" font-size="10.00">#</text>
<text text-anchor="start" x="58" y="-332" font-family="Helvetica,sans-Serif" font-size="10.00">Imu()</text>
<polygon fill="#666666" stroke="#666666" points="41,-492 41,-492 128,-492 128,-492 41,-492"/>
<polygon fill="#666666" stroke="#666666" points="41,-477 41,-477 56,-477 56,-477 41,-477"/>
<polygon fill="#666666" stroke="#666666" points="56,-477 56,-477 128,-477 128,-477 56,-477"/>
<polygon fill="none" stroke="#666666" points="40.5,-325 40.5,-509 127.5,-509 127.5,-325 40.5,-325"/>
</a>
</g>
</g>
<!-- Node2&#45;&gt;Node1 -->
<g id="edge1_Node000001_Node000002" class="edge">
<title>Node2&#45;&gt;Node1</title>
<g id="a_edge1_Node000001_Node000002"><a xlink:title=" ">
<path fill="none" stroke="#63b8ff" d="M106.27,-314.6C112.31,-287.1 118.89,-257.15 125.07,-229.02"/>
<polygon fill="none" stroke="#63b8ff" points="102.8,-314.1 104.07,-324.62 109.63,-315.6 102.8,-314.1"/>
</a>
</g>
</g>
<!-- Node3 -->
<g id="Node000003" class="node">
<title>Node3</title>
<g id="a_Node000003"><a xlink:href="classNAV_1_1Node.html" target="_top" xlink:title="Abstract parent class for all nodes.">
<polygon fill="white" stroke="transparent" points="168,-954 0,-954 0,-605 168,-605 168,-954"/>
<text text-anchor="start" x="58" y="-941.5" font-family="Helvetica,sans-Serif" font-size="10.00">NAV::Node</text>
<text text-anchor="start" x="4" y="-926.5" font-family="Helvetica,sans-Serif" font-size="10.00">+</text>
<text text-anchor="start" x="17" y="-926.5" font-family="Helvetica,sans-Serif" font-size="10.00">callbacksEnabled</text>
<text text-anchor="start" x="4" y="-911.5" font-family="Helvetica,sans-Serif" font-size="10.00">+</text>
<text text-anchor="start" x="17" y="-911.5" font-family="Helvetica,sans-Serif" font-size="10.00">id</text>
<text text-anchor="start" x="4" y="-896.5" font-family="Helvetica,sans-Serif" font-size="10.00">+</text>
<text text-anchor="start" x="17" y="-896.5" font-family="Helvetica,sans-Serif" font-size="10.00">inputPins</text>
<text text-anchor="start" x="4" y="-881.5" font-family="Helvetica,sans-Serif" font-size="10.00">+</text>
<text text-anchor="start" x="17" y="-881.5" font-family="Helvetica,sans-Serif" font-size="10.00">kind</text>
<text text-anchor="start" x="4" y="-866.5" font-family="Helvetica,sans-Serif" font-size="10.00">+</text>
<text text-anchor="start" x="17" y="-866.5" font-family="Helvetica,sans-Serif" font-size="10.00">name</text>
<text text-anchor="start" x="4" y="-851.5" font-family="Helvetica,sans-Serif" font-size="10.00">+</text>
<text text-anchor="start" x="17" y="-851.5" font-family="Helvetica,sans-Serif" font-size="10.00">outputPins</text>
<text text-anchor="start" x="4" y="-836.5" font-family="Helvetica,sans-Serif" font-size="10.00">+</text>
<text text-anchor="start" x="17" y="-836.5" font-family="Helvetica,sans-Serif" font-size="10.00">pollEvents</text>
<text text-anchor="start" x="4" y="-821.5" font-family="Helvetica,sans-Serif" font-size="10.00">#</text>
<text text-anchor="start" x="17" y="-821.5" font-family="Helvetica,sans-Serif" font-size="10.00">_guiConfigDefaultWindowSize</text>
<text text-anchor="start" x="4" y="-806.5" font-family="Helvetica,sans-Serif" font-size="10.00">#</text>
<text text-anchor="start" x="17" y="-806.5" font-family="Helvetica,sans-Serif" font-size="10.00">_hasConfig</text>
<text text-anchor="start" x="4" y="-791.5" font-family="Helvetica,sans-Serif" font-size="10.00">#</text>
<text text-anchor="start" x="17" y="-791.5" font-family="Helvetica,sans-Serif" font-size="10.00">_lockConfigDuringRun</text>
<text text-anchor="start" x="4" y="-776.5" font-family="Helvetica,sans-Serif" font-size="10.00">+</text>
<text text-anchor="start" x="17" y="-776.5" font-family="Helvetica,sans-Serif" font-size="10.00">afterCreateLink()</text>
<text text-anchor="start" x="4" y="-761.5" font-family="Helvetica,sans-Serif" font-size="10.00">+</text>
<text text-anchor="start" x="17" y="-761.5" font-family="Helvetica,sans-Serif" font-size="10.00">afterDeleteLink()</text>
<text text-anchor="start" x="4" y="-746.5" font-family="Helvetica,sans-Serif" font-size="10.00">+</text>
<text text-anchor="start" x="17" y="-746.5" font-family="Helvetica,sans-Serif" font-size="10.00">deinitialize()</text>
<text text-anchor="start" x="4" y="-731.5" font-family="Helvetica,sans-Serif" font-size="10.00">+</text>
<text text-anchor="start" x="17" y="-731.5" font-family="Helvetica,sans-Serif" font-size="10.00">doDeinitialize()</text>
<text text-anchor="start" x="4" y="-716.5" font-family="Helvetica,sans-Serif" font-size="10.00">+</text>
<text text-anchor="start" x="17" y="-716.5" font-family="Helvetica,sans-Serif" font-size="10.00">doDisable()</text>
<text text-anchor="start" x="4" y="-701.5" font-family="Helvetica,sans-Serif" font-size="10.00">+</text>
<text text-anchor="start" x="17" y="-701.5" font-family="Helvetica,sans-Serif" font-size="10.00">doEnable()</text>
<text text-anchor="start" x="4" y="-686.5" font-family="Helvetica,sans-Serif" font-size="10.00">+</text>
<text text-anchor="start" x="17" y="-686.5" font-family="Helvetica,sans-Serif" font-size="10.00">doInitialize()</text>
<text text-anchor="start" x="4" y="-671.5" font-family="Helvetica,sans-Serif" font-size="10.00">+</text>
<text text-anchor="start" x="17" y="-671.5" font-family="Helvetica,sans-Serif" font-size="10.00">doReinitialize()</text>
<text text-anchor="start" x="4" y="-656.5" font-family="Helvetica,sans-Serif" font-size="10.00">+</text>
<text text-anchor="start" x="17" y="-656.5" font-family="Helvetica,sans-Serif" font-size="10.00">flush()</text>
<text text-anchor="start" x="4" y="-641.5" font-family="Helvetica,sans-Serif" font-size="10.00">+</text>
<text text-anchor="start" x="17" y="-641.5" font-family="Helvetica,sans-Serif" font-size="10.00">getInputValue()</text>
<text text-anchor="start" x="17" y="-626.5" font-family="Helvetica,sans-Serif" font-size="10.00">and 32 more...</text>
<text text-anchor="start" x="4" y="-611.5" font-family="Helvetica,sans-Serif" font-size="10.00">+</text>
<text text-anchor="start" x="17" y="-611.5" font-family="Helvetica,sans-Serif" font-size="10.00">toString()</text>
<polygon fill="#666666" stroke="#666666" points="0,-936.5 0,-936.5 168,-936.5 168,-936.5 0,-936.5"/>
<polygon fill="#666666" stroke="#666666" points="0,-786.5 0,-786.5 15,-786.5 15,-786.5 0,-786.5"/>
<polygon fill="#666666" stroke="#666666" points="15,-786.5 15,-786.5 168,-786.5 168,-786.5 15,-786.5"/>
<polygon fill="none" stroke="#666666" points="0,-605 0,-954 168,-954 168,-605 0,-605"/>
</a>
</g>
</g>
<!-- Node3&#45;&gt;Node2 -->
<g id="edge2_Node000002_Node000003" class="edge">
<title>Node3&#45;&gt;Node2</title>
<g id="a_edge2_Node000002_Node000003"><a xlink:title=" ">
<path fill="none" stroke="#63b8ff" d="M84,-594.8C84,-565.15 84,-535.64 84,-509.45"/>
<polygon fill="none" stroke="#63b8ff" points="80.5,-594.85 84,-604.85 87.5,-594.85 80.5,-594.85"/>
</a>
</g>
</g>
<!-- Node4 -->
<g id="Node000004" class="node">
<title>Node4</title>
<g id="a_Node000004"><a xlink:href="classNAV_1_1FileReader.html" target="_top" xlink:title="Abstract File Reader class.">
<polygon fill="white" stroke="transparent" points="286,-569 146,-569 146,-265 286,-265 286,-569"/>
<text text-anchor="start" x="177" y="-557" font-family="Helvetica,sans-Serif" font-size="10.00">NAV::FileReader</text>
<text text-anchor="start" x="150" y="-542" font-family="Helvetica,sans-Serif" font-size="10.00">#</text>
<text text-anchor="start" x="163" y="-542" font-family="Helvetica,sans-Serif" font-size="10.00">_fileType</text>
<text text-anchor="start" x="150" y="-527" font-family="Helvetica,sans-Serif" font-size="10.00">#</text>
<text text-anchor="start" x="163" y="-527" font-family="Helvetica,sans-Serif" font-size="10.00">_headerColumns</text>
<text text-anchor="start" x="150" y="-512" font-family="Helvetica,sans-Serif" font-size="10.00">#</text>
<text text-anchor="start" x="163" y="-512" font-family="Helvetica,sans-Serif" font-size="10.00">_path</text>
<text text-anchor="start" x="150" y="-497" font-family="Helvetica,sans-Serif" font-size="10.00">+</text>
<text text-anchor="start" x="163" y="-497" font-family="Helvetica,sans-Serif" font-size="10.00">FileReader()</text>
<text text-anchor="start" x="150" y="-482" font-family="Helvetica,sans-Serif" font-size="10.00">+</text>
<text text-anchor="start" x="163" y="-482" font-family="Helvetica,sans-Serif" font-size="10.00">FileReader()</text>
<text text-anchor="start" x="150" y="-467" font-family="Helvetica,sans-Serif" font-size="10.00">+</text>
<text text-anchor="start" x="163" y="-467" font-family="Helvetica,sans-Serif" font-size="10.00">operator=()</text>
<text text-anchor="start" x="150" y="-452" font-family="Helvetica,sans-Serif" font-size="10.00">+</text>
<text text-anchor="start" x="163" y="-452" font-family="Helvetica,sans-Serif" font-size="10.00">operator=()</text>
<text text-anchor="start" x="150" y="-437" font-family="Helvetica,sans-Serif" font-size="10.00">+</text>
<text text-anchor="start" x="163" y="-437" font-family="Helvetica,sans-Serif" font-size="10.00">~FileReader()</text>
<text text-anchor="start" x="150" y="-422" font-family="Helvetica,sans-Serif" font-size="10.00">#</text>
<text text-anchor="start" x="163" y="-422" font-family="Helvetica,sans-Serif" font-size="10.00">deinitialize()</text>
<text text-anchor="start" x="150" y="-407" font-family="Helvetica,sans-Serif" font-size="10.00">#</text>
<text text-anchor="start" x="163" y="-407" font-family="Helvetica,sans-Serif" font-size="10.00">determineFileType()</text>
<text text-anchor="start" x="150" y="-392" font-family="Helvetica,sans-Serif" font-size="10.00">#</text>
<text text-anchor="start" x="163" y="-392" font-family="Helvetica,sans-Serif" font-size="10.00">eof()</text>
<text text-anchor="start" x="150" y="-377" font-family="Helvetica,sans-Serif" font-size="10.00">#</text>
<text text-anchor="start" x="163" y="-377" font-family="Helvetica,sans-Serif" font-size="10.00">FileReader()</text>
<text text-anchor="start" x="150" y="-362" font-family="Helvetica,sans-Serif" font-size="10.00">#</text>
<text text-anchor="start" x="163" y="-362" font-family="Helvetica,sans-Serif" font-size="10.00">getCurrentLineNumber()</text>
<text text-anchor="start" x="150" y="-347" font-family="Helvetica,sans-Serif" font-size="10.00">#</text>
<text text-anchor="start" x="163" y="-347" font-family="Helvetica,sans-Serif" font-size="10.00">getFilepath()</text>
<text text-anchor="start" x="150" y="-332" font-family="Helvetica,sans-Serif" font-size="10.00">#</text>
<text text-anchor="start" x="163" y="-332" font-family="Helvetica,sans-Serif" font-size="10.00">getline()</text>
<text text-anchor="start" x="150" y="-317" font-family="Helvetica,sans-Serif" font-size="10.00">#</text>
<text text-anchor="start" x="163" y="-317" font-family="Helvetica,sans-Serif" font-size="10.00">good()</text>
<text text-anchor="start" x="150" y="-302" font-family="Helvetica,sans-Serif" font-size="10.00">#</text>
<text text-anchor="start" x="163" y="-302" font-family="Helvetica,sans-Serif" font-size="10.00">guiConfig()</text>
<text text-anchor="start" x="150" y="-287" font-family="Helvetica,sans-Serif" font-size="10.00">#</text>
<text text-anchor="start" x="163" y="-287" font-family="Helvetica,sans-Serif" font-size="10.00">ignore()</text>
<text text-anchor="start" x="163" y="-272" font-family="Helvetica,sans-Serif" font-size="10.00">and 10 more...</text>
<polygon fill="#666666" stroke="#666666" points="146,-552 146,-552 286,-552 286,-552 146,-552"/>
<polygon fill="#666666" stroke="#666666" points="146,-507 146,-507 161,-507 161,-507 146,-507"/>
<polygon fill="#666666" stroke="#666666" points="161,-507 161,-507 286,-507 286,-507 161,-507"/>
<polygon fill="none" stroke="#666666" points="146,-265 146,-569 286,-569 286,-265 146,-265"/>
</a>
</g>
</g>
<!-- Node4&#45;&gt;Node1 -->
<g id="edge3_Node000001_Node000004" class="edge">
<title>Node4&#45;&gt;Node1</title>
<g id="a_edge3_Node000001_Node000004"><a xlink:title=" ">
<path fill="none" stroke="#63b8ff" d="M180.65,-255.05C178.74,-246.36 176.84,-237.72 174.98,-229.24"/>
<polygon fill="none" stroke="#63b8ff" points="177.24,-255.85 182.81,-264.87 184.08,-254.35 177.24,-255.85"/>
</a>
</g>
</g>
</g>
</svg>
