<?xml version="1.0" encoding="UTF-8" standalone="no"?>
<!DOCTYPE svg PUBLIC "-//W3C//DTD SVG 1.1//EN"
 "http://www.w3.org/Graphics/SVG/1.1/DTD/svg11.dtd">
<!-- Generated by graphviz version 2.43.0 (0)
 -->
<!-- Title: NAV::KeyedRowVector&lt; Scalar, ColKeyType, Eigen::Dynamic &gt; Pages: 1 -->
<svg width="170pt" height="912pt"
 viewBox="0.00 0.00 170.00 912.00" xmlns="http://www.w3.org/2000/svg" xmlns:xlink="http://www.w3.org/1999/xlink">
<g id="graph0" class="graph" transform="scale(1 1) rotate(0) translate(4 908)">
<title>NAV::KeyedRowVector&lt; Scalar, ColKeyType, Eigen::Dynamic &gt;</title>
<!-- Node1 -->
<g id="Node000001" class="node">
<title>Node1</title>
<g id="a_Node000001"><a xlink:title="Dynamic sized KeyedRowVector.">
<polygon fill="#999999" stroke="transparent" points="140.5,-236 21.5,-236 21.5,0 140.5,0 140.5,-236"/>
<text text-anchor="start" x="27.5" y="-224" font-family="Helvetica,sans-Serif" font-size="10.00">NAV::KeyedRowVector</text>
<text text-anchor="start" x="27.5" y="-213" font-family="Helvetica,sans-Serif" font-size="10.00">&lt; Scalar, ColKeyType,</text>
<text text-anchor="start" x="36" y="-202" font-family="Helvetica,sans-Serif" font-size="10.00"> Eigen::Dynamic &gt;</text>
<text text-anchor="start" x="79.5" y="-187" font-family="Helvetica,sans-Serif" font-size="10.00"> </text>
<text text-anchor="start" x="26" y="-172" font-family="Helvetica,sans-Serif" font-size="10.00">+</text>
<text text-anchor="start" x="39" y="-172" font-family="Helvetica,sans-Serif" font-size="10.00">KeyedRowVector()</text>
<text text-anchor="start" x="26" y="-157" font-family="Helvetica,sans-Serif" font-size="10.00">+</text>
<text text-anchor="start" x="39" y="-157" font-family="Helvetica,sans-Serif" font-size="10.00">KeyedRowVector()</text>
<text text-anchor="start" x="26" y="-142" font-family="Helvetica,sans-Serif" font-size="10.00">+</text>
<text text-anchor="start" x="39" y="-142" font-family="Helvetica,sans-Serif" font-size="10.00">KeyedRowVector()</text>
<text text-anchor="start" x="26" y="-127" font-family="Helvetica,sans-Serif" font-size="10.00">+</text>
<text text-anchor="start" x="39" y="-127" font-family="Helvetica,sans-Serif" font-size="10.00">KeyedRowVector()</text>
<text text-anchor="start" x="26" y="-112" font-family="Helvetica,sans-Serif" font-size="10.00">+</text>
<text text-anchor="start" x="39" y="-112" font-family="Helvetica,sans-Serif" font-size="10.00">KeyedRowVector()</text>
<text text-anchor="start" x="26" y="-97" font-family="Helvetica,sans-Serif" font-size="10.00">+</text>
<text text-anchor="start" x="39" y="-97" font-family="Helvetica,sans-Serif" font-size="10.00">KeyedRowVector()</text>
<text text-anchor="start" x="26" y="-82" font-family="Helvetica,sans-Serif" font-size="10.00">+</text>
<text text-anchor="start" x="39" y="-82" font-family="Helvetica,sans-Serif" font-size="10.00">operator=()</text>
<text text-anchor="start" x="26" y="-67" font-family="Helvetica,sans-Serif" font-size="10.00">+</text>
<text text-anchor="start" x="39" y="-67" font-family="Helvetica,sans-Serif" font-size="10.00">operator=()</text>
<text text-anchor="start" x="26" y="-52" font-family="Helvetica,sans-Serif" font-size="10.00">+</text>
<text text-anchor="start" x="39" y="-52" font-family="Helvetica,sans-Serif" font-size="10.00">operator=()</text>
<text text-anchor="start" x="26" y="-37" font-family="Helvetica,sans-Serif" font-size="10.00">+</text>
<text text-anchor="start" x="39" y="-37" font-family="Helvetica,sans-Serif" font-size="10.00">operator=()</text>
<text text-anchor="start" x="26" y="-22" font-family="Helvetica,sans-Serif" font-size="10.00">+</text>
<text text-anchor="start" x="39" y="-22" font-family="Helvetica,sans-Serif" font-size="10.00">transposed()</text>
<text text-anchor="start" x="26" y="-7" font-family="Helvetica,sans-Serif" font-size="10.00">+</text>
<text text-anchor="start" x="39" y="-7" font-family="Helvetica,sans-Serif" font-size="10.00">~KeyedRowVector()</text>
<polygon fill="#666666" stroke="#666666" points="22,-197 22,-197 141,-197 141,-197 22,-197"/>
<polygon fill="#666666" stroke="#666666" points="22,-182 22,-182 141,-182 141,-182 22,-182"/>
<polygon fill="none" stroke="#666666" points="21.5,0 21.5,-236 140.5,-236 140.5,0 21.5,0"/>
</a>
</g>
</g>
<!-- Node2 -->
<g id="Node000002" class="node">
<title>Node2</title>
<g id="a_Node000002"><a xlink:href="classNAV_1_1internal_1_1KeyedRowVectorBase.html" target="_top" xlink:title=" ">
<polygon fill="white" stroke="transparent" points="161.5,-504 0.5,-504 0.5,-272 161.5,-272 161.5,-504"/>
<text text-anchor="start" x="6" y="-492" font-family="Helvetica,sans-Serif" font-size="10.00">NAV::internal::KeyedRowVector</text>
<text text-anchor="start" x="6" y="-481" font-family="Helvetica,sans-Serif" font-size="10.00">Base&lt; Scalar, ColKeyType,</text>
<text text-anchor="start" x="36" y="-470" font-family="Helvetica,sans-Serif" font-size="10.00"> Eigen::Dynamic &gt;</text>
<text text-anchor="start" x="79.5" y="-455" font-family="Helvetica,sans-Serif" font-size="10.00"> </text>
<text text-anchor="start" x="7.5" y="-440" font-family="Helvetica,sans-Serif" font-size="10.00">+</text>
<text text-anchor="start" x="23" y="-440" font-family="Helvetica,sans-Serif" font-size="10.00">KeyedRowVectorBase()</text>
<text text-anchor="start" x="7.5" y="-425" font-family="Helvetica,sans-Serif" font-size="10.00">+</text>
<text text-anchor="start" x="23" y="-425" font-family="Helvetica,sans-Serif" font-size="10.00">KeyedRowVectorBase()</text>
<text text-anchor="start" x="7.5" y="-410" font-family="Helvetica,sans-Serif" font-size="10.00">+</text>
<text text-anchor="start" x="23" y="-410" font-family="Helvetica,sans-Serif" font-size="10.00">KeyedRowVectorBase()</text>
<text text-anchor="start" x="7.5" y="-395" font-family="Helvetica,sans-Serif" font-size="10.00">+</text>
<text text-anchor="start" x="23" y="-395" font-family="Helvetica,sans-Serif" font-size="10.00">KeyedRowVectorBase()</text>
<text text-anchor="start" x="7.5" y="-380" font-family="Helvetica,sans-Serif" font-size="10.00">+</text>
<text text-anchor="start" x="23" y="-380" font-family="Helvetica,sans-Serif" font-size="10.00">KeyedRowVectorBase()</text>
<text text-anchor="start" x="7.5" y="-365" font-family="Helvetica,sans-Serif" font-size="10.00">+</text>
<text text-anchor="start" x="23" y="-365" font-family="Helvetica,sans-Serif" font-size="10.00">KeyedRowVectorBase()</text>
<text text-anchor="start" x="7.5" y="-350" font-family="Helvetica,sans-Serif" font-size="10.00">+</text>
<text text-anchor="start" x="23" y="-350" font-family="Helvetica,sans-Serif" font-size="10.00">operator Eigen::RowVector</text>
<text text-anchor="start" x="23" y="-339" font-family="Helvetica,sans-Serif" font-size="10.00">&lt; Scalar, Cols &gt;()</text>
<text text-anchor="start" x="7.5" y="-324" font-family="Helvetica,sans-Serif" font-size="10.00">+</text>
<text text-anchor="start" x="23" y="-324" font-family="Helvetica,sans-Serif" font-size="10.00">operator()()</text>
<text text-anchor="start" x="7.5" y="-309" font-family="Helvetica,sans-Serif" font-size="10.00">+</text>
<text text-anchor="start" x="23" y="-309" font-family="Helvetica,sans-Serif" font-size="10.00">operator()()</text>
<text text-anchor="start" x="7.5" y="-294" font-family="Helvetica,sans-Serif" font-size="10.00">+</text>
<text text-anchor="start" x="23" y="-294" font-family="Helvetica,sans-Serif" font-size="10.00">operator()()</text>
<text text-anchor="start" x="23" y="-279" font-family="Helvetica,sans-Serif" font-size="10.00">and 13 more...</text>
<polygon fill="#666666" stroke="#666666" points="1,-465 1,-465 162,-465 162,-465 1,-465"/>
<polygon fill="#666666" stroke="#666666" points="1,-450 1,-450 162,-450 162,-450 1,-450"/>
<polygon fill="none" stroke="#666666" points="0.5,-272 0.5,-504 161.5,-504 161.5,-272 0.5,-272"/>
</a>
</g>
</g>
<!-- Node2&#45;&gt;Node1 -->
<g id="edge1_Node000001_Node000002" class="edge">
<title>Node2&#45;&gt;Node1</title>
<g id="a_edge1_Node000001_Node000002"><a xlink:title=" ">
<path fill="none" stroke="#63b8ff" d="M81,-261.54C81,-253.11 81,-244.63 81,-236.24"/>
<polygon fill="none" stroke="#63b8ff" points="77.5,-261.79 81,-271.79 84.5,-261.79 77.5,-261.79"/>
</a>
</g>
</g>
<!-- Node3 -->
<g id="Node000003" class="node">
<title>Node3</title>
<g id="a_Node000003"><a xlink:href="classNAV_1_1internal_1_1KeyedMatrixCols.html" target="_top" xlink:title=" ">
<polygon fill="white" stroke="transparent" points="151.5,-611 10.5,-611 10.5,-540 151.5,-540 151.5,-611"/>
<text text-anchor="start" x="16" y="-598.5" font-family="Helvetica,sans-Serif" font-size="10.00">NAV::internal::KeyedMatrix</text>
<text text-anchor="start" x="16" y="-587.5" font-family="Helvetica,sans-Serif" font-size="10.00">Cols&lt; Scalar, ColKeyType,</text>
<text text-anchor="start" x="57.5" y="-576.5" font-family="Helvetica,sans-Serif" font-size="10.00"> 1, Cols &gt;</text>
<text text-anchor="start" x="79.5" y="-561.5" font-family="Helvetica,sans-Serif" font-size="10.00"> </text>
<text text-anchor="start" x="79.5" y="-546.5" font-family="Helvetica,sans-Serif" font-size="10.00"> </text>
<polygon fill="#666666" stroke="#666666" points="11,-571.5 11,-571.5 152,-571.5 152,-571.5 11,-571.5"/>
<polygon fill="#666666" stroke="#666666" points="11,-556.5 11,-556.5 152,-556.5 152,-556.5 11,-556.5"/>
<polygon fill="none" stroke="#666666" points="10.5,-540 10.5,-611 151.5,-611 151.5,-540 10.5,-540"/>
</a>
</g>
</g>
<!-- Node3&#45;&gt;Node2 -->
<g id="edge2_Node000002_Node000003" class="edge">
<title>Node3&#45;&gt;Node2</title>
<g id="a_edge2_Node000002_Node000003"><a xlink:title=" ">
<path fill="none" stroke="#63b8ff" d="M81,-529.59C81,-521.66 81,-513.09 81,-504.23"/>
<polygon fill="none" stroke="#63b8ff" points="77.5,-529.61 81,-539.61 84.5,-529.61 77.5,-529.61"/>
</a>
</g>
</g>
<!-- Node4 -->
<g id="Node000004" class="node">
<title>Node4</title>
<g id="a_Node000004"><a xlink:href="classNAV_1_1internal_1_1KeyedMatrixColsBase.html" target="_top" xlink:title="Base class for Keyed matrices with multiple columns.">
<polygon fill="white" stroke="transparent" points="162,-808 0,-808 0,-647 162,-647 162,-808"/>
<text text-anchor="start" x="5" y="-795.5" font-family="Helvetica,sans-Serif" font-size="10.00">NAV::internal::KeyedMatrix</text>
<text text-anchor="start" x="5" y="-784.5" font-family="Helvetica,sans-Serif" font-size="10.00">ColsBase&lt; Scalar, ColKeyType,</text>
<text text-anchor="start" x="47" y="-773.5" font-family="Helvetica,sans-Serif" font-size="10.00"> Rows, Cols &gt;</text>
<text text-anchor="start" x="22" y="-758.5" font-family="Helvetica,sans-Serif" font-size="10.00">#</text>
<text text-anchor="start" x="53" y="-758.5" font-family="Helvetica,sans-Serif" font-size="10.00">colIndices</text>
<text text-anchor="start" x="22" y="-743.5" font-family="Helvetica,sans-Serif" font-size="10.00">#</text>
<text text-anchor="start" x="53" y="-743.5" font-family="Helvetica,sans-Serif" font-size="10.00">colKeysVector</text>
<text text-anchor="start" x="22" y="-728.5" font-family="Helvetica,sans-Serif" font-size="10.00">#</text>
<text text-anchor="start" x="53" y="-728.5" font-family="Helvetica,sans-Serif" font-size="10.00">colSlice</text>
<text text-anchor="start" x="22" y="-713.5" font-family="Helvetica,sans-Serif" font-size="10.00">+</text>
<text text-anchor="start" x="53" y="-713.5" font-family="Helvetica,sans-Serif" font-size="10.00">colKeys()</text>
<text text-anchor="start" x="22" y="-698.5" font-family="Helvetica,sans-Serif" font-size="10.00">+</text>
<text text-anchor="start" x="53" y="-698.5" font-family="Helvetica,sans-Serif" font-size="10.00">cols()</text>
<text text-anchor="start" x="22" y="-683.5" font-family="Helvetica,sans-Serif" font-size="10.00">+</text>
<text text-anchor="start" x="53" y="-683.5" font-family="Helvetica,sans-Serif" font-size="10.00">hasAnyCols()</text>
<text text-anchor="start" x="22" y="-668.5" font-family="Helvetica,sans-Serif" font-size="10.00">+</text>
<text text-anchor="start" x="53" y="-668.5" font-family="Helvetica,sans-Serif" font-size="10.00">hasCol()</text>
<text text-anchor="start" x="22" y="-653.5" font-family="Helvetica,sans-Serif" font-size="10.00">+</text>
<text text-anchor="start" x="53" y="-653.5" font-family="Helvetica,sans-Serif" font-size="10.00">hasCols()</text>
<polygon fill="#666666" stroke="#666666" points="0,-768.5 0,-768.5 162,-768.5 162,-768.5 0,-768.5"/>
<polygon fill="#666666" stroke="#666666" points="0,-723.5 0,-723.5 51,-723.5 51,-723.5 0,-723.5"/>
<polygon fill="#666666" stroke="#666666" points="51,-723.5 51,-723.5 162,-723.5 162,-723.5 51,-723.5"/>
<polygon fill="none" stroke="#666666" points="0,-647 0,-808 162,-808 162,-647 0,-647"/>
</a>
</g>
</g>
<!-- Node4&#45;&gt;Node3 -->
<g id="edge3_Node000003_Node000004" class="edge">
<title>Node4&#45;&gt;Node3</title>
<g id="a_edge3_Node000003_Node000004"><a xlink:title=" ">
<path fill="none" stroke="#63b8ff" d="M81,-636.52C81,-627.62 81,-619.01 81,-611.22"/>
<polygon fill="none" stroke="#63b8ff" points="77.5,-636.67 81,-646.67 84.5,-636.67 77.5,-636.67"/>
</a>
</g>
</g>
<!-- Node5 -->
<g id="Node000005" class="node">
<title>Node5</title>
<g id="a_Node000005"><a xlink:href="classNAV_1_1internal_1_1KeyedMatrixStorage.html" target="_top" xlink:title="KeyedMatrix storage class.">
<polygon fill="white" stroke="transparent" points="161,-904 1,-904 1,-844 161,-844 161,-904"/>
<text text-anchor="start" x="6" y="-892" font-family="Helvetica,sans-Serif" font-size="10.00">NAV::internal::KeyedMatrix</text>
<text text-anchor="start" x="6" y="-881" font-family="Helvetica,sans-Serif" font-size="10.00">Storage&lt; Scalar, Rows, Cols &gt;</text>
<text text-anchor="start" x="31.5" y="-866" font-family="Helvetica,sans-Serif" font-size="10.00">#</text>
<text text-anchor="start" x="71" y="-866" font-family="Helvetica,sans-Serif" font-size="10.00">matrix</text>
<text text-anchor="start" x="79" y="-851" font-family="Helvetica,sans-Serif" font-size="10.00"> </text>
<polygon fill="#666666" stroke="#666666" points="1,-876 1,-876 161,-876 161,-876 1,-876"/>
<polygon fill="#666666" stroke="#666666" points="1,-861 1,-861 69,-861 69,-861 1,-861"/>
<polygon fill="#666666" stroke="#666666" points="69,-861 69,-861 161,-861 161,-861 69,-861"/>
<polygon fill="none" stroke="#666666" points="1,-844 1,-904 161,-904 161,-844 1,-844"/>
</a>
</g>
</g>
<!-- Node5&#45;&gt;Node4 -->
<g id="edge4_Node000004_Node000005" class="edge">
<title>Node5&#45;&gt;Node4</title>
<g id="a_edge4_Node000004_Node000005"><a xlink:title=" ">
<path fill="none" stroke="#63b8ff" d="M81,-833.7C81,-825.72 81,-817.05 81,-808.24"/>
<polygon fill="none" stroke="#63b8ff" points="77.5,-833.76 81,-843.76 84.5,-833.76 77.5,-833.76"/>
</a>
</g>
</g>
</g>
</svg>
