<?xml version="1.0" encoding="UTF-8" standalone="no"?>
<!DOCTYPE svg PUBLIC "-//W3C//DTD SVG 1.1//EN"
 "http://www.w3.org/Graphics/SVG/1.1/DTD/svg11.dtd">
<!-- Generated by graphviz version 2.43.0 (0)
 -->
<!-- Title: NAV::TcKfInsGnssErrors Pages: 1 -->
<svg width="132pt" height="452pt"
 viewBox="0.00 0.00 132.00 452.00" xmlns="http://www.w3.org/2000/svg" xmlns:xlink="http://www.w3.org/1999/xlink">
<g id="graph0" class="graph" transform="scale(1 1) rotate(0) translate(4 448)">
<title>NAV::TcKfInsGnssErrors</title>
<!-- Node1 -->
<g id="Node000001" class="node">
<title>Node1</title>
<g id="a_Node000001"><a xlink:title="Tightly&#45;coupled Kalman Filter INS/GNSS errors.">
<polygon fill="#999999" stroke="transparent" points="123.5,-79 0.5,-79 0.5,0 123.5,0 123.5,-79"/>
<text text-anchor="start" x="6" y="-66.5" font-family="Helvetica,sans-Serif" font-size="10.00">NAV::TcKfInsGnssErrors</text>
<text text-anchor="start" x="13.5" y="-51.5" font-family="Helvetica,sans-Serif" font-size="10.00">+</text>
<text text-anchor="start" x="35" y="-51.5" font-family="Helvetica,sans-Serif" font-size="10.00">recvClkDrift</text>
<text text-anchor="start" x="13.5" y="-36.5" font-family="Helvetica,sans-Serif" font-size="10.00">+</text>
<text text-anchor="start" x="35" y="-36.5" font-family="Helvetica,sans-Serif" font-size="10.00">recvClkOffset</text>
<text text-anchor="start" x="13.5" y="-21.5" font-family="Helvetica,sans-Serif" font-size="10.00">+</text>
<text text-anchor="start" x="35" y="-21.5" font-family="Helvetica,sans-Serif" font-size="10.00">parentTypes()</text>
<text text-anchor="start" x="13.5" y="-6.5" font-family="Helvetica,sans-Serif" font-size="10.00">+</text>
<text text-anchor="start" x="35" y="-6.5" font-family="Helvetica,sans-Serif" font-size="10.00">type()</text>
<polygon fill="#666666" stroke="#666666" points="1,-61.5 1,-61.5 124,-61.5 124,-61.5 1,-61.5"/>
<polygon fill="#666666" stroke="#666666" points="1,-31.5 1,-31.5 33,-31.5 33,-31.5 1,-31.5"/>
<polygon fill="#666666" stroke="#666666" points="33,-31.5 33,-31.5 124,-31.5 124,-31.5 33,-31.5"/>
<polygon fill="none" stroke="#666666" points="0.5,0 0.5,-79 123.5,-79 123.5,0 0.5,0"/>
</a>
</g>
</g>
<!-- Node2 -->
<g id="Node000002" class="node">
<title>Node2</title>
<g id="a_Node000002"><a xlink:href="classNAV_1_1LcKfInsGnssErrors.html" target="_top" xlink:title="Loosely&#45;coupled Kalman Filter INS/GNSS errors.">
<polygon fill="white" stroke="transparent" points="124,-254 0,-254 0,-115 124,-115 124,-254"/>
<text text-anchor="start" x="5" y="-241.5" font-family="Helvetica,sans-Serif" font-size="10.00">NAV::LcKfInsGnssErrors</text>
<text text-anchor="start" x="13" y="-226.5" font-family="Helvetica,sans-Serif" font-size="10.00">+</text>
<text text-anchor="start" x="35" y="-226.5" font-family="Helvetica,sans-Serif" font-size="10.00">attitudeError</text>
<text text-anchor="start" x="13" y="-211.5" font-family="Helvetica,sans-Serif" font-size="10.00">+</text>
<text text-anchor="start" x="35" y="-211.5" font-family="Helvetica,sans-Serif" font-size="10.00">b_biasAccel</text>
<text text-anchor="start" x="13" y="-196.5" font-family="Helvetica,sans-Serif" font-size="10.00">+</text>
<text text-anchor="start" x="35" y="-196.5" font-family="Helvetica,sans-Serif" font-size="10.00">b_biasGyro</text>
<text text-anchor="start" x="13" y="-181.5" font-family="Helvetica,sans-Serif" font-size="10.00">+</text>
<text text-anchor="start" x="35" y="-181.5" font-family="Helvetica,sans-Serif" font-size="10.00">frame</text>
<text text-anchor="start" x="13" y="-166.5" font-family="Helvetica,sans-Serif" font-size="10.00">+</text>
<text text-anchor="start" x="35" y="-166.5" font-family="Helvetica,sans-Serif" font-size="10.00">positionError</text>
<text text-anchor="start" x="13" y="-151.5" font-family="Helvetica,sans-Serif" font-size="10.00">+</text>
<text text-anchor="start" x="35" y="-151.5" font-family="Helvetica,sans-Serif" font-size="10.00">velocityError</text>
<text text-anchor="start" x="13" y="-136.5" font-family="Helvetica,sans-Serif" font-size="10.00">+</text>
<text text-anchor="start" x="35" y="-136.5" font-family="Helvetica,sans-Serif" font-size="10.00">parentTypes()</text>
<text text-anchor="start" x="13" y="-121.5" font-family="Helvetica,sans-Serif" font-size="10.00">+</text>
<text text-anchor="start" x="35" y="-121.5" font-family="Helvetica,sans-Serif" font-size="10.00">type()</text>
<polygon fill="#666666" stroke="#666666" points="0,-236.5 0,-236.5 124,-236.5 124,-236.5 0,-236.5"/>
<polygon fill="#666666" stroke="#666666" points="0,-146.5 0,-146.5 33,-146.5 33,-146.5 0,-146.5"/>
<polygon fill="#666666" stroke="#666666" points="33,-146.5 33,-146.5 124,-146.5 124,-146.5 33,-146.5"/>
<polygon fill="none" stroke="#666666" points="0,-115 0,-254 124,-254 124,-115 0,-115"/>
</a>
</g>
</g>
<!-- Node2&#45;&gt;Node1 -->
<g id="edge1_Node000001_Node000002" class="edge">
<title>Node2&#45;&gt;Node1</title>
<g id="a_edge1_Node000001_Node000002"><a xlink:title=" ">
<path fill="none" stroke="#63b8ff" d="M62,-104.82C62,-95.9 62,-87.12 62,-79.07"/>
<polygon fill="none" stroke="#63b8ff" points="58.5,-104.93 62,-114.93 65.5,-104.93 58.5,-104.93"/>
</a>
</g>
</g>
<!-- Node3 -->
<g id="Node000003" class="node">
<title>Node3</title>
<g id="a_Node000003"><a xlink:href="classNAV_1_1NodeData.html" target="_top" xlink:title="Parent class for all data transmitted over Flow pins.">
<polygon fill="white" stroke="transparent" points="106,-444 18,-444 18,-290 106,-290 106,-444"/>
<text text-anchor="start" x="24.5" y="-432" font-family="Helvetica,sans-Serif" font-size="10.00">NAV::NodeData</text>
<text text-anchor="start" x="22" y="-417" font-family="Helvetica,sans-Serif" font-size="10.00">+</text>
<text text-anchor="start" x="35" y="-417" font-family="Helvetica,sans-Serif" font-size="10.00">insTime</text>
<text text-anchor="start" x="22" y="-402" font-family="Helvetica,sans-Serif" font-size="10.00">+</text>
<text text-anchor="start" x="35" y="-402" font-family="Helvetica,sans-Serif" font-size="10.00">NodeData()</text>
<text text-anchor="start" x="22" y="-387" font-family="Helvetica,sans-Serif" font-size="10.00">+</text>
<text text-anchor="start" x="35" y="-387" font-family="Helvetica,sans-Serif" font-size="10.00">NodeData()</text>
<text text-anchor="start" x="22" y="-372" font-family="Helvetica,sans-Serif" font-size="10.00">+</text>
<text text-anchor="start" x="35" y="-372" font-family="Helvetica,sans-Serif" font-size="10.00">NodeData()</text>
<text text-anchor="start" x="22" y="-357" font-family="Helvetica,sans-Serif" font-size="10.00">+</text>
<text text-anchor="start" x="35" y="-357" font-family="Helvetica,sans-Serif" font-size="10.00">operator=()</text>
<text text-anchor="start" x="22" y="-342" font-family="Helvetica,sans-Serif" font-size="10.00">+</text>
<text text-anchor="start" x="35" y="-342" font-family="Helvetica,sans-Serif" font-size="10.00">operator=()</text>
<text text-anchor="start" x="22" y="-327" font-family="Helvetica,sans-Serif" font-size="10.00">+</text>
<text text-anchor="start" x="35" y="-327" font-family="Helvetica,sans-Serif" font-size="10.00">~NodeData()</text>
<text text-anchor="start" x="22" y="-312" font-family="Helvetica,sans-Serif" font-size="10.00">+</text>
<text text-anchor="start" x="35" y="-312" font-family="Helvetica,sans-Serif" font-size="10.00">parentTypes()</text>
<text text-anchor="start" x="22" y="-297" font-family="Helvetica,sans-Serif" font-size="10.00">+</text>
<text text-anchor="start" x="35" y="-297" font-family="Helvetica,sans-Serif" font-size="10.00">type()</text>
<polygon fill="#666666" stroke="#666666" points="18,-427 18,-427 106,-427 106,-427 18,-427"/>
<polygon fill="#666666" stroke="#666666" points="18,-412 18,-412 33,-412 33,-412 18,-412"/>
<polygon fill="#666666" stroke="#666666" points="33,-412 33,-412 106,-412 106,-412 33,-412"/>
<polygon fill="none" stroke="#666666" points="18,-290 18,-444 106,-444 106,-290 18,-290"/>
</a>
</g>
</g>
<!-- Node3&#45;&gt;Node2 -->
<g id="edge2_Node000002_Node000003" class="edge">
<title>Node3&#45;&gt;Node2</title>
<g id="a_edge2_Node000002_Node000003"><a xlink:title=" ">
<path fill="none" stroke="#63b8ff" d="M62,-279.92C62,-271.31 62,-262.65 62,-254.26"/>
<polygon fill="none" stroke="#63b8ff" points="58.5,-279.97 62,-289.97 65.5,-279.97 58.5,-279.97"/>
</a>
</g>
</g>
</g>
</svg>
