<?xml version="1.0" encoding="UTF-8" standalone="no"?>
<!DOCTYPE svg PUBLIC "-//W3C//DTD SVG 1.1//EN"
 "http://www.w3.org/Graphics/SVG/1.1/DTD/svg11.dtd">
<!-- Generated by graphviz version 2.43.0 (0)
 -->
<!-- Title: NAV::NodeData Pages: 1 -->
<svg width="1147pt" height="816pt"
 viewBox="0.00 0.00 1146.50 816.00" xmlns="http://www.w3.org/2000/svg" xmlns:xlink="http://www.w3.org/1999/xlink">
<g id="graph0" class="graph" transform="scale(1 1) rotate(0) translate(4 812)">
<title>NAV::NodeData</title>
<!-- Node1 -->
<g id="node1" class="node">
<title>Node1</title>
<g id="a_node1"><a xlink:title="Parent class for all data transmitted over Flow pins.">
<polygon fill="#999999" stroke="#666666" points="517.5,-673.5 517.5,-807.5 612.5,-807.5 612.5,-673.5 517.5,-673.5"/>
<text text-anchor="middle" x="565" y="-795.5" font-family="Helvetica,sans-Serif" font-size="10.00">NAV::NodeData</text>
<polyline fill="none" stroke="#666666" points="517.5,-788.5 612.5,-788.5 "/>
<text text-anchor="start" x="525.5" y="-776.5" font-family="Helvetica,sans-Serif" font-size="10.00">+ insTime</text>
<polyline fill="none" stroke="#666666" points="517.5,-769.5 612.5,-769.5 "/>
<text text-anchor="start" x="525.5" y="-757.5" font-family="Helvetica,sans-Serif" font-size="10.00">+ NodeData()</text>
<text text-anchor="start" x="525.5" y="-746.5" font-family="Helvetica,sans-Serif" font-size="10.00">+ NodeData()</text>
<text text-anchor="start" x="525.5" y="-735.5" font-family="Helvetica,sans-Serif" font-size="10.00">+ NodeData()</text>
<text text-anchor="start" x="525.5" y="-724.5" font-family="Helvetica,sans-Serif" font-size="10.00">+ operator=()</text>
<text text-anchor="start" x="525.5" y="-713.5" font-family="Helvetica,sans-Serif" font-size="10.00">+ operator=()</text>
<text text-anchor="start" x="525.5" y="-702.5" font-family="Helvetica,sans-Serif" font-size="10.00">+ ~NodeData()</text>
<text text-anchor="start" x="525.5" y="-691.5" font-family="Helvetica,sans-Serif" font-size="10.00">+ parentTypes()</text>
<text text-anchor="start" x="525.5" y="-680.5" font-family="Helvetica,sans-Serif" font-size="10.00">+ type()</text>
</a>
</g>
</g>
<!-- Node2 -->
<g id="node2" class="node">
<title>Node2</title>
<g id="a_node2"><a xlink:href="classNAV_1_1EmlidObs.html" target="_top" xlink:title="Emlid Observation Class.">
<polygon fill="white" stroke="#666666" points="0,-508 0,-598 100,-598 100,-508 0,-508"/>
<text text-anchor="middle" x="50" y="-586" font-family="Helvetica,sans-Serif" font-size="10.00">NAV::EmlidObs</text>
<polyline fill="none" stroke="#666666" points="0,-579 100,-579 "/>
<text text-anchor="start" x="8" y="-567" font-family="Helvetica,sans-Serif" font-size="10.00">+ data</text>
<text text-anchor="start" x="8" y="-556" font-family="Helvetica,sans-Serif" font-size="10.00">+ msgId</text>
<text text-anchor="start" x="8" y="-545" font-family="Helvetica,sans-Serif" font-size="10.00">+ payloadLength</text>
<polyline fill="none" stroke="#666666" points="0,-538 100,-538 "/>
<text text-anchor="start" x="8" y="-526" font-family="Helvetica,sans-Serif" font-size="10.00">+ parentTypes()</text>
<text text-anchor="start" x="8" y="-515" font-family="Helvetica,sans-Serif" font-size="10.00">+ type()</text>
</a>
</g>
</g>
<!-- Node1&#45;&gt;Node2 -->
<g id="edge1" class="edge">
<title>Node1&#45;&gt;Node2</title>
<path fill="none" stroke="#63b8ff" d="M507.17,-739.38C415.27,-736.54 233.58,-719.87 109,-637 94.43,-627.31 82.3,-612.7 72.91,-598.42"/>
<polygon fill="none" stroke="#63b8ff" points="507.3,-742.88 517.38,-739.65 507.48,-735.88 507.3,-742.88"/>
</g>
<!-- Node3 -->
<g id="node3" class="node">
<title>Node3</title>
<g id="a_node3"><a xlink:href="classNAV_1_1GnssObs.html" target="_top" xlink:title="GNSS Observation message information.">
<polygon fill="white" stroke="#666666" points="118.5,-502.5 118.5,-603.5 213.5,-603.5 213.5,-502.5 118.5,-502.5"/>
<text text-anchor="middle" x="166" y="-591.5" font-family="Helvetica,sans-Serif" font-size="10.00">NAV::GnssObs</text>
<polyline fill="none" stroke="#666666" points="118.5,-584.5 213.5,-584.5 "/>
<text text-anchor="start" x="126.5" y="-572.5" font-family="Helvetica,sans-Serif" font-size="10.00">+ data</text>
<polyline fill="none" stroke="#666666" points="118.5,-565.5 213.5,-565.5 "/>
<text text-anchor="start" x="126.5" y="-553.5" font-family="Helvetica,sans-Serif" font-size="10.00">+ contains()</text>
<text text-anchor="start" x="126.5" y="-542.5" font-family="Helvetica,sans-Serif" font-size="10.00">+ operator()()</text>
<text text-anchor="start" x="126.5" y="-531.5" font-family="Helvetica,sans-Serif" font-size="10.00">+ operator()()</text>
<text text-anchor="start" x="126.5" y="-520.5" font-family="Helvetica,sans-Serif" font-size="10.00">+ parentTypes()</text>
<text text-anchor="start" x="126.5" y="-509.5" font-family="Helvetica,sans-Serif" font-size="10.00">+ type()</text>
</a>
</g>
</g>
<!-- Node1&#45;&gt;Node3 -->
<g id="edge2" class="edge">
<title>Node1&#45;&gt;Node3</title>
<path fill="none" stroke="#63b8ff" d="M506.92,-734.17C434.11,-724.96 308.39,-700.5 222,-637 210.09,-628.25 199.92,-616.16 191.64,-603.91"/>
<polygon fill="none" stroke="#63b8ff" points="506.92,-737.69 517.27,-735.42 507.76,-730.74 506.92,-737.69"/>
</g>
<!-- Node4 -->
<g id="node4" class="node">
<title>Node4</title>
<g id="a_node4"><a xlink:href="classNAV_1_1ImuObs.html" target="_top" xlink:title="IMU Observation storage class.">
<polygon fill="white" stroke="#666666" points="231.5,-469.5 231.5,-636.5 344.5,-636.5 344.5,-469.5 231.5,-469.5"/>
<text text-anchor="middle" x="288" y="-624.5" font-family="Helvetica,sans-Serif" font-size="10.00">NAV::ImuObs</text>
<polyline fill="none" stroke="#666666" points="231.5,-617.5 344.5,-617.5 "/>
<text text-anchor="start" x="239.5" y="-605.5" font-family="Helvetica,sans-Serif" font-size="10.00">+ accelCompXYZ</text>
<text text-anchor="start" x="239.5" y="-594.5" font-family="Helvetica,sans-Serif" font-size="10.00">+ accelUncompXYZ</text>
<text text-anchor="start" x="239.5" y="-583.5" font-family="Helvetica,sans-Serif" font-size="10.00">+ gyroCompXYZ</text>
<text text-anchor="start" x="239.5" y="-572.5" font-family="Helvetica,sans-Serif" font-size="10.00">+ gyroUncompXYZ</text>
<text text-anchor="start" x="239.5" y="-561.5" font-family="Helvetica,sans-Serif" font-size="10.00">+ imuPos</text>
<text text-anchor="start" x="239.5" y="-550.5" font-family="Helvetica,sans-Serif" font-size="10.00">+ magCompXYZ</text>
<text text-anchor="start" x="239.5" y="-539.5" font-family="Helvetica,sans-Serif" font-size="10.00">+ magUncompXYZ</text>
<text text-anchor="start" x="239.5" y="-528.5" font-family="Helvetica,sans-Serif" font-size="10.00">+ temperature</text>
<text text-anchor="start" x="239.5" y="-517.5" font-family="Helvetica,sans-Serif" font-size="10.00">+ timeSinceStartup</text>
<polyline fill="none" stroke="#666666" points="231.5,-510.5 344.5,-510.5 "/>
<text text-anchor="start" x="239.5" y="-498.5" font-family="Helvetica,sans-Serif" font-size="10.00">+ ImuObs()</text>
<text text-anchor="start" x="239.5" y="-487.5" font-family="Helvetica,sans-Serif" font-size="10.00">+ parentTypes()</text>
<text text-anchor="start" x="239.5" y="-476.5" font-family="Helvetica,sans-Serif" font-size="10.00">+ type()</text>
</a>
</g>
</g>
<!-- Node1&#45;&gt;Node4 -->
<g id="edge3" class="edge">
<title>Node1&#45;&gt;Node4</title>
<path fill="none" stroke="#63b8ff" d="M507.55,-719.68C462.73,-702.4 400.48,-674.25 354,-637 350.84,-634.47 347.73,-631.76 344.7,-628.92"/>
<polygon fill="none" stroke="#63b8ff" points="506.53,-723.04 517.12,-723.31 509.01,-716.49 506.53,-723.04"/>
</g>
<!-- Node7 -->
<g id="node7" class="node">
<title>Node7</title>
<g id="a_node7"><a xlink:href="classNAV_1_1LcKfInsGnssErrors.html" target="_top" xlink:title="Loosely&#45;coupled Kalman Filter INS/GNSS errors.">
<polygon fill="white" stroke="#666666" points="363,-491.5 363,-614.5 493,-614.5 493,-491.5 363,-491.5"/>
<text text-anchor="middle" x="428" y="-602.5" font-family="Helvetica,sans-Serif" font-size="10.00">NAV::LcKfInsGnssErrors</text>
<polyline fill="none" stroke="#666666" points="363,-595.5 493,-595.5 "/>
<text text-anchor="start" x="371" y="-583.5" font-family="Helvetica,sans-Serif" font-size="10.00">+ attitudeError</text>
<text text-anchor="start" x="371" y="-572.5" font-family="Helvetica,sans-Serif" font-size="10.00">+ b_biasAccel</text>
<text text-anchor="start" x="371" y="-561.5" font-family="Helvetica,sans-Serif" font-size="10.00">+ b_biasGyro</text>
<text text-anchor="start" x="371" y="-550.5" font-family="Helvetica,sans-Serif" font-size="10.00">+ frame</text>
<text text-anchor="start" x="371" y="-539.5" font-family="Helvetica,sans-Serif" font-size="10.00">+ positionError</text>
<text text-anchor="start" x="371" y="-528.5" font-family="Helvetica,sans-Serif" font-size="10.00">+ velocityError</text>
<polyline fill="none" stroke="#666666" points="363,-521.5 493,-521.5 "/>
<text text-anchor="start" x="371" y="-509.5" font-family="Helvetica,sans-Serif" font-size="10.00">+ parentTypes()</text>
<text text-anchor="start" x="371" y="-498.5" font-family="Helvetica,sans-Serif" font-size="10.00">+ type()</text>
</a>
</g>
</g>
<!-- Node1&#45;&gt;Node7 -->
<g id="edge6" class="edge">
<title>Node1&#45;&gt;Node7</title>
<path fill="none" stroke="#63b8ff" d="M511.26,-666.74C498.49,-649.45 485,-631.18 472.68,-614.5"/>
<polygon fill="none" stroke="#63b8ff" points="508.71,-669.18 517.47,-675.14 514.34,-665.02 508.71,-669.18"/>
</g>
<!-- Node8 -->
<g id="node8" class="node">
<title>Node8</title>
<g id="a_node8"><a xlink:href="classNAV_1_1Pos.html" target="_top" xlink:title="Position, Velocity and Attitude Storage Class.">
<polygon fill="white" stroke="#666666" points="511.5,-469.5 511.5,-636.5 618.5,-636.5 618.5,-469.5 511.5,-469.5"/>
<text text-anchor="middle" x="565" y="-624.5" font-family="Helvetica,sans-Serif" font-size="10.00">NAV::Pos</text>
<polyline fill="none" stroke="#666666" points="511.5,-617.5 618.5,-617.5 "/>
<text text-anchor="middle" x="565" y="-605.5" font-family="Helvetica,sans-Serif" font-size="10.00"> </text>
<polyline fill="none" stroke="#666666" points="511.5,-598.5 618.5,-598.5 "/>
<text text-anchor="start" x="519.5" y="-586.5" font-family="Helvetica,sans-Serif" font-size="10.00">+ altitude()</text>
<text text-anchor="start" x="519.5" y="-575.5" font-family="Helvetica,sans-Serif" font-size="10.00">+ e_position()</text>
<text text-anchor="start" x="519.5" y="-564.5" font-family="Helvetica,sans-Serif" font-size="10.00">+ e_Quat_n()</text>
<text text-anchor="start" x="519.5" y="-553.5" font-family="Helvetica,sans-Serif" font-size="10.00">+ latitude()</text>
<text text-anchor="start" x="519.5" y="-542.5" font-family="Helvetica,sans-Serif" font-size="10.00">+ lla_position()</text>
<text text-anchor="start" x="519.5" y="-531.5" font-family="Helvetica,sans-Serif" font-size="10.00">+ longitude()</text>
<text text-anchor="start" x="519.5" y="-520.5" font-family="Helvetica,sans-Serif" font-size="10.00">+ n_Quat_e()</text>
<text text-anchor="start" x="519.5" y="-509.5" font-family="Helvetica,sans-Serif" font-size="10.00">+ setPosition_e()</text>
<text text-anchor="start" x="519.5" y="-498.5" font-family="Helvetica,sans-Serif" font-size="10.00">+ setPosition_lla()</text>
<text text-anchor="start" x="519.5" y="-487.5" font-family="Helvetica,sans-Serif" font-size="10.00">+ parentTypes()</text>
<text text-anchor="start" x="519.5" y="-476.5" font-family="Helvetica,sans-Serif" font-size="10.00">+ type()</text>
</a>
</g>
</g>
<!-- Node1&#45;&gt;Node8 -->
<g id="edge7" class="edge">
<title>Node1&#45;&gt;Node8</title>
<path fill="none" stroke="#63b8ff" d="M565,-663.18C565,-654.44 565,-645.51 565,-636.7"/>
<polygon fill="none" stroke="#63b8ff" points="561.5,-663.32 565,-673.32 568.5,-663.32 561.5,-663.32"/>
</g>
<!-- Node14 -->
<g id="node14" class="node">
<title>Node14</title>
<g id="a_node14"><a xlink:href="classNAV_1_1StringObs.html" target="_top" xlink:title="IMU Observation storage class.">
<polygon fill="white" stroke="#666666" points="636.5,-513.5 636.5,-592.5 731.5,-592.5 731.5,-513.5 636.5,-513.5"/>
<text text-anchor="middle" x="684" y="-580.5" font-family="Helvetica,sans-Serif" font-size="10.00">NAV::StringObs</text>
<polyline fill="none" stroke="#666666" points="636.5,-573.5 731.5,-573.5 "/>
<text text-anchor="start" x="644.5" y="-561.5" font-family="Helvetica,sans-Serif" font-size="10.00">+ data</text>
<polyline fill="none" stroke="#666666" points="636.5,-554.5 731.5,-554.5 "/>
<text text-anchor="start" x="644.5" y="-542.5" font-family="Helvetica,sans-Serif" font-size="10.00">+ StringObs()</text>
<text text-anchor="start" x="644.5" y="-531.5" font-family="Helvetica,sans-Serif" font-size="10.00">+ parentTypes()</text>
<text text-anchor="start" x="644.5" y="-520.5" font-family="Helvetica,sans-Serif" font-size="10.00">+ type()</text>
</a>
</g>
</g>
<!-- Node1&#45;&gt;Node14 -->
<g id="edge13" class="edge">
<title>Node1&#45;&gt;Node14</title>
<path fill="none" stroke="#63b8ff" d="M613.01,-664.66C628.87,-639.94 645.86,-613.46 659.24,-592.6"/>
<polygon fill="none" stroke="#63b8ff" points="609.91,-663.01 607.46,-673.32 615.8,-666.79 609.91,-663.01"/>
</g>
<!-- Node15 -->
<g id="node15" class="node">
<title>Node15</title>
<g id="a_node15"><a xlink:href="classNAV_1_1UartPacket.html" target="_top" xlink:title="UART Packet storage class.">
<polygon fill="white" stroke="#666666" points="749.5,-513.5 749.5,-592.5 844.5,-592.5 844.5,-513.5 749.5,-513.5"/>
<text text-anchor="middle" x="797" y="-580.5" font-family="Helvetica,sans-Serif" font-size="10.00">NAV::UartPacket</text>
<polyline fill="none" stroke="#666666" points="749.5,-573.5 844.5,-573.5 "/>
<text text-anchor="start" x="757.5" y="-561.5" font-family="Helvetica,sans-Serif" font-size="10.00">+ raw</text>
<polyline fill="none" stroke="#666666" points="749.5,-554.5 844.5,-554.5 "/>
<text text-anchor="start" x="757.5" y="-542.5" font-family="Helvetica,sans-Serif" font-size="10.00">+ UartPacket()</text>
<text text-anchor="start" x="757.5" y="-531.5" font-family="Helvetica,sans-Serif" font-size="10.00">+ parentTypes()</text>
<text text-anchor="start" x="757.5" y="-520.5" font-family="Helvetica,sans-Serif" font-size="10.00">+ type()</text>
</a>
</g>
</g>
<!-- Node1&#45;&gt;Node15 -->
<g id="edge14" class="edge">
<title>Node1&#45;&gt;Node15</title>
<path fill="none" stroke="#63b8ff" d="M621.64,-714.7C658.43,-696.73 705.9,-669.86 741,-637 754.58,-624.29 766.59,-607.71 775.97,-592.7"/>
<polygon fill="none" stroke="#63b8ff" points="620.02,-711.59 612.53,-719.08 623.06,-717.9 620.02,-711.59"/>
</g>
<!-- Node16 -->
<g id="node16" class="node">
<title>Node16</title>
<g id="a_node16"><a xlink:href="classNAV_1_1UbloxObs.html" target="_top" xlink:title="ublox Observation Class">
<polygon fill="white" stroke="#666666" points="863,-502.5 863,-603.5 963,-603.5 963,-502.5 863,-502.5"/>
<text text-anchor="middle" x="913" y="-591.5" font-family="Helvetica,sans-Serif" font-size="10.00">NAV::UbloxObs</text>
<polyline fill="none" stroke="#666666" points="863,-584.5 963,-584.5 "/>
<text text-anchor="start" x="871" y="-572.5" font-family="Helvetica,sans-Serif" font-size="10.00">+ data</text>
<text text-anchor="start" x="871" y="-561.5" font-family="Helvetica,sans-Serif" font-size="10.00">+ msgClass</text>
<text text-anchor="start" x="871" y="-550.5" font-family="Helvetica,sans-Serif" font-size="10.00">+ msgId</text>
<text text-anchor="start" x="871" y="-539.5" font-family="Helvetica,sans-Serif" font-size="10.00">+ payloadLength</text>
<polyline fill="none" stroke="#666666" points="863,-532.5 963,-532.5 "/>
<text text-anchor="start" x="871" y="-520.5" font-family="Helvetica,sans-Serif" font-size="10.00">+ parentTypes()</text>
<text text-anchor="start" x="871" y="-509.5" font-family="Helvetica,sans-Serif" font-size="10.00">+ type()</text>
</a>
</g>
</g>
<!-- Node1&#45;&gt;Node16 -->
<g id="edge15" class="edge">
<title>Node1&#45;&gt;Node16</title>
<path fill="none" stroke="#63b8ff" d="M622.75,-729.77C684.9,-717 784.18,-689.73 854,-637 865.99,-627.94 876.52,-615.75 885.25,-603.5"/>
<polygon fill="none" stroke="#63b8ff" points="621.85,-726.38 612.73,-731.77 623.22,-733.24 621.85,-726.38"/>
</g>
<!-- Node17 -->
<g id="node17" class="node">
<title>Node17</title>
<g id="a_node17"><a xlink:href="classNAV_1_1VectorNavBinaryOutput.html" target="_top" xlink:title="IMU Observation storage class.">
<polygon fill="white" stroke="#666666" points="981.5,-480.5 981.5,-625.5 1138.5,-625.5 1138.5,-480.5 981.5,-480.5"/>
<text text-anchor="middle" x="1060" y="-613.5" font-family="Helvetica,sans-Serif" font-size="10.00">NAV::VectorNavBinaryOutput</text>
<polyline fill="none" stroke="#666666" points="981.5,-606.5 1138.5,-606.5 "/>
<text text-anchor="start" x="989.5" y="-594.5" font-family="Helvetica,sans-Serif" font-size="10.00">+ attitudeOutputs</text>
<text text-anchor="start" x="989.5" y="-583.5" font-family="Helvetica,sans-Serif" font-size="10.00">+ gnss1Outputs</text>
<text text-anchor="start" x="989.5" y="-572.5" font-family="Helvetica,sans-Serif" font-size="10.00">+ gnss2Outputs</text>
<text text-anchor="start" x="989.5" y="-561.5" font-family="Helvetica,sans-Serif" font-size="10.00">+ imuOutputs</text>
<text text-anchor="start" x="989.5" y="-550.5" font-family="Helvetica,sans-Serif" font-size="10.00">+ imuPos</text>
<text text-anchor="start" x="989.5" y="-539.5" font-family="Helvetica,sans-Serif" font-size="10.00">+ insOutputs</text>
<text text-anchor="start" x="989.5" y="-528.5" font-family="Helvetica,sans-Serif" font-size="10.00">+ timeOutputs</text>
<polyline fill="none" stroke="#666666" points="981.5,-521.5 1138.5,-521.5 "/>
<text text-anchor="start" x="989.5" y="-509.5" font-family="Helvetica,sans-Serif" font-size="10.00">+ VectorNavBinaryOutput()</text>
<text text-anchor="start" x="989.5" y="-498.5" font-family="Helvetica,sans-Serif" font-size="10.00">+ parentTypes()</text>
<text text-anchor="start" x="989.5" y="-487.5" font-family="Helvetica,sans-Serif" font-size="10.00">+ type()</text>
</a>
</g>
</g>
<!-- Node1&#45;&gt;Node17 -->
<g id="edge16" class="edge">
<title>Node1&#45;&gt;Node17</title>
<path fill="none" stroke="#63b8ff" d="M622.81,-734.21C704.88,-724.72 857.88,-699.56 972,-637 978.08,-633.67 984.05,-629.82 989.84,-625.63"/>
<polygon fill="none" stroke="#63b8ff" points="622.22,-730.76 612.67,-735.35 623,-737.71 622.22,-730.76"/>
</g>
<!-- Node5 -->
<g id="node5" class="node">
<title>Node5</title>
<g id="a_node5"><a xlink:href="classNAV_1_1ImuObsWDelta.html" target="_top" xlink:title="VectorNav Observation storage Class.">
<polygon fill="white" stroke="#666666" points="164,-326 164,-427 280,-427 280,-326 164,-326"/>
<text text-anchor="middle" x="222" y="-415" font-family="Helvetica,sans-Serif" font-size="10.00">NAV::ImuObsWDelta</text>
<polyline fill="none" stroke="#666666" points="164,-408 280,-408 "/>
<text text-anchor="start" x="172" y="-396" font-family="Helvetica,sans-Serif" font-size="10.00">+ dtheta</text>
<text text-anchor="start" x="172" y="-385" font-family="Helvetica,sans-Serif" font-size="10.00">+ dtime</text>
<text text-anchor="start" x="172" y="-374" font-family="Helvetica,sans-Serif" font-size="10.00">+ dvel</text>
<polyline fill="none" stroke="#666666" points="164,-367 280,-367 "/>
<text text-anchor="start" x="172" y="-355" font-family="Helvetica,sans-Serif" font-size="10.00">+ ImuObsWDelta()</text>
<text text-anchor="start" x="172" y="-344" font-family="Helvetica,sans-Serif" font-size="10.00">+ parentTypes()</text>
<text text-anchor="start" x="172" y="-333" font-family="Helvetica,sans-Serif" font-size="10.00">+ type()</text>
</a>
</g>
</g>
<!-- Node4&#45;&gt;Node5 -->
<g id="edge4" class="edge">
<title>Node4&#45;&gt;Node5</title>
<path fill="none" stroke="#63b8ff" d="M253.15,-459.86C248.88,-448.58 244.66,-437.4 240.76,-427.09"/>
<polygon fill="none" stroke="#63b8ff" points="249.93,-461.23 256.74,-469.35 256.48,-458.76 249.93,-461.23"/>
</g>
<!-- Node6 -->
<g id="node6" class="node">
<title>Node6</title>
<g id="a_node6"><a xlink:href="classNAV_1_1KvhObs.html" target="_top" xlink:title="Kvh Observation storage Class.">
<polygon fill="white" stroke="#666666" points="298.5,-320.5 298.5,-432.5 411.5,-432.5 411.5,-320.5 298.5,-320.5"/>
<text text-anchor="middle" x="355" y="-420.5" font-family="Helvetica,sans-Serif" font-size="10.00">NAV::KvhObs</text>
<polyline fill="none" stroke="#666666" points="298.5,-413.5 411.5,-413.5 "/>
<text text-anchor="start" x="306.5" y="-401.5" font-family="Helvetica,sans-Serif" font-size="10.00">+ raw</text>
<text text-anchor="start" x="306.5" y="-390.5" font-family="Helvetica,sans-Serif" font-size="10.00">+ sequenceNumber</text>
<text text-anchor="start" x="306.5" y="-379.5" font-family="Helvetica,sans-Serif" font-size="10.00">+ status</text>
<polyline fill="none" stroke="#666666" points="298.5,-372.5 411.5,-372.5 "/>
<text text-anchor="start" x="306.5" y="-360.5" font-family="Helvetica,sans-Serif" font-size="10.00">+ KvhObs()</text>
<text text-anchor="start" x="306.5" y="-349.5" font-family="Helvetica,sans-Serif" font-size="10.00">+ KvhObs()</text>
<text text-anchor="start" x="306.5" y="-338.5" font-family="Helvetica,sans-Serif" font-size="10.00">+ parentTypes()</text>
<text text-anchor="start" x="306.5" y="-327.5" font-family="Helvetica,sans-Serif" font-size="10.00">+ type()</text>
</a>
</g>
</g>
<!-- Node4&#45;&gt;Node6 -->
<g id="edge5" class="edge">
<title>Node4&#45;&gt;Node6</title>
<path fill="none" stroke="#63b8ff" d="M323.4,-459.8C326.91,-450.65 330.4,-441.57 333.7,-432.97"/>
<polygon fill="none" stroke="#63b8ff" points="320.05,-458.76 319.73,-469.35 326.59,-461.27 320.05,-458.76"/>
</g>
<!-- Node9 -->
<g id="node9" class="node">
<title>Node9</title>
<g id="a_node9"><a xlink:href="classNAV_1_1PosVel.html" target="_top" xlink:title="Position, Velocity and Attitude Storage Class.">
<polygon fill="white" stroke="#666666" points="514.5,-320.5 514.5,-432.5 615.5,-432.5 615.5,-320.5 514.5,-320.5"/>
<text text-anchor="middle" x="565" y="-420.5" font-family="Helvetica,sans-Serif" font-size="10.00">NAV::PosVel</text>
<polyline fill="none" stroke="#666666" points="514.5,-413.5 615.5,-413.5 "/>
<text text-anchor="middle" x="565" y="-401.5" font-family="Helvetica,sans-Serif" font-size="10.00"> </text>
<polyline fill="none" stroke="#666666" points="514.5,-394.5 615.5,-394.5 "/>
<text text-anchor="start" x="522.5" y="-382.5" font-family="Helvetica,sans-Serif" font-size="10.00">+ e_velocity()</text>
<text text-anchor="start" x="522.5" y="-371.5" font-family="Helvetica,sans-Serif" font-size="10.00">+ n_velocity()</text>
<text text-anchor="start" x="522.5" y="-360.5" font-family="Helvetica,sans-Serif" font-size="10.00">+ setVelocity_e()</text>
<text text-anchor="start" x="522.5" y="-349.5" font-family="Helvetica,sans-Serif" font-size="10.00">+ setVelocity_n()</text>
<text text-anchor="start" x="522.5" y="-338.5" font-family="Helvetica,sans-Serif" font-size="10.00">+ parentTypes()</text>
<text text-anchor="start" x="522.5" y="-327.5" font-family="Helvetica,sans-Serif" font-size="10.00">+ type()</text>
</a>
</g>
</g>
<!-- Node8&#45;&gt;Node9 -->
<g id="edge8" class="edge">
<title>Node8&#45;&gt;Node9</title>
<path fill="none" stroke="#63b8ff" d="M565,-459.23C565,-450.27 565,-441.39 565,-432.97"/>
<polygon fill="none" stroke="#63b8ff" points="561.5,-459.35 565,-469.35 568.5,-459.35 561.5,-459.35"/>
</g>
<!-- Node10 -->
<g id="node10" class="node">
<title>Node10</title>
<g id="a_node10"><a xlink:href="classNAV_1_1PosVelAtt.html" target="_top" xlink:title="Position, Velocity and Attitude Storage Class.">
<polygon fill="white" stroke="#666666" points="353,-111 353,-278 493,-278 493,-111 353,-111"/>
<text text-anchor="middle" x="423" y="-266" font-family="Helvetica,sans-Serif" font-size="10.00">NAV::PosVelAtt</text>
<polyline fill="none" stroke="#666666" points="353,-259 493,-259 "/>
<text text-anchor="middle" x="423" y="-247" font-family="Helvetica,sans-Serif" font-size="10.00"> </text>
<polyline fill="none" stroke="#666666" points="353,-240 493,-240 "/>
<text text-anchor="start" x="361" y="-228" font-family="Helvetica,sans-Serif" font-size="10.00">+ b_Quat_e()</text>
<text text-anchor="start" x="361" y="-217" font-family="Helvetica,sans-Serif" font-size="10.00">+ b_Quat_n()</text>
<text text-anchor="start" x="361" y="-206" font-family="Helvetica,sans-Serif" font-size="10.00">+ e_Quat_b()</text>
<text text-anchor="start" x="361" y="-195" font-family="Helvetica,sans-Serif" font-size="10.00">+ n_Quat_b()</text>
<text text-anchor="start" x="361" y="-184" font-family="Helvetica,sans-Serif" font-size="10.00">+ rollPitchYaw()</text>
<text text-anchor="start" x="361" y="-173" font-family="Helvetica,sans-Serif" font-size="10.00">+ setAttitude_e_Quat_b()</text>
<text text-anchor="start" x="361" y="-162" font-family="Helvetica,sans-Serif" font-size="10.00">+ setAttitude_n_Quat_b()</text>
<text text-anchor="start" x="361" y="-151" font-family="Helvetica,sans-Serif" font-size="10.00">+ setState_e()</text>
<text text-anchor="start" x="361" y="-140" font-family="Helvetica,sans-Serif" font-size="10.00">+ setState_n()</text>
<text text-anchor="start" x="361" y="-129" font-family="Helvetica,sans-Serif" font-size="10.00">+ parentTypes()</text>
<text text-anchor="start" x="361" y="-118" font-family="Helvetica,sans-Serif" font-size="10.00">+ type()</text>
</a>
</g>
</g>
<!-- Node9&#45;&gt;Node10 -->
<g id="edge9" class="edge">
<title>Node9&#45;&gt;Node10</title>
<path fill="none" stroke="#63b8ff" d="M515.03,-312.15C506.38,-301.19 497.27,-289.65 488.29,-278.26"/>
<polygon fill="none" stroke="#63b8ff" points="512.3,-314.34 521.24,-320.03 517.79,-310.01 512.3,-314.34"/>
</g>
<!-- Node12 -->
<g id="node12" class="node">
<title>Node12</title>
<g id="a_node12"><a xlink:href="classNAV_1_1RtklibPosObs.html" target="_top" xlink:title="RTKLIB Observation Class.">
<polygon fill="white" stroke="#666666" points="511.5,-105.5 511.5,-283.5 618.5,-283.5 618.5,-105.5 511.5,-105.5"/>
<text text-anchor="middle" x="565" y="-271.5" font-family="Helvetica,sans-Serif" font-size="10.00">NAV::RtklibPosObs</text>
<polyline fill="none" stroke="#666666" points="511.5,-264.5 618.5,-264.5 "/>
<text text-anchor="start" x="519.5" y="-252.5" font-family="Helvetica,sans-Serif" font-size="10.00">+ age</text>
<text text-anchor="start" x="519.5" y="-241.5" font-family="Helvetica,sans-Serif" font-size="10.00">+ ns</text>
<text text-anchor="start" x="519.5" y="-230.5" font-family="Helvetica,sans-Serif" font-size="10.00">+ Q</text>
<text text-anchor="start" x="519.5" y="-219.5" font-family="Helvetica,sans-Serif" font-size="10.00">+ ratio</text>
<text text-anchor="start" x="519.5" y="-208.5" font-family="Helvetica,sans-Serif" font-size="10.00">+ sddn</text>
<text text-anchor="start" x="519.5" y="-197.5" font-family="Helvetica,sans-Serif" font-size="10.00">+ sded</text>
<text text-anchor="start" x="519.5" y="-186.5" font-family="Helvetica,sans-Serif" font-size="10.00">+ sdne</text>
<text text-anchor="start" x="519.5" y="-175.5" font-family="Helvetica,sans-Serif" font-size="10.00">+ sdNED</text>
<text text-anchor="start" x="519.5" y="-164.5" font-family="Helvetica,sans-Serif" font-size="10.00">+ sdvdn</text>
<text text-anchor="start" x="519.5" y="-153.5" font-family="Helvetica,sans-Serif" font-size="10.00">+ sdved</text>
<text text-anchor="start" x="519.5" y="-142.5" font-family="Helvetica,sans-Serif" font-size="10.00">and 6 more...</text>
<polyline fill="none" stroke="#666666" points="511.5,-135.5 618.5,-135.5 "/>
<text text-anchor="start" x="519.5" y="-123.5" font-family="Helvetica,sans-Serif" font-size="10.00">+ parentTypes()</text>
<text text-anchor="start" x="519.5" y="-112.5" font-family="Helvetica,sans-Serif" font-size="10.00">+ type()</text>
</a>
</g>
</g>
<!-- Node9&#45;&gt;Node12 -->
<g id="edge11" class="edge">
<title>Node9&#45;&gt;Node12</title>
<path fill="none" stroke="#63b8ff" d="M565,-309.79C565,-301.25 565,-292.4 565,-283.57"/>
<polygon fill="none" stroke="#63b8ff" points="561.5,-310.03 565,-320.03 568.5,-310.03 561.5,-310.03"/>
</g>
<!-- Node13 -->
<g id="node13" class="node">
<title>Node13</title>
<g id="a_node13"><a xlink:href="classNAV_1_1SppSolution.html" target="_top" xlink:title="SPP Algorithm output.">
<polygon fill="white" stroke="#666666" points="636.5,-116.5 636.5,-272.5 791.5,-272.5 791.5,-116.5 636.5,-116.5"/>
<text text-anchor="middle" x="714" y="-260.5" font-family="Helvetica,sans-Serif" font-size="10.00">NAV::SppSolution</text>
<polyline fill="none" stroke="#666666" points="636.5,-253.5 791.5,-253.5 "/>
<text text-anchor="start" x="644.5" y="-241.5" font-family="Helvetica,sans-Serif" font-size="10.00">+ nSatellitesPosition</text>
<text text-anchor="start" x="644.5" y="-230.5" font-family="Helvetica,sans-Serif" font-size="10.00">+ nSatellitesVelocity</text>
<text text-anchor="start" x="644.5" y="-219.5" font-family="Helvetica,sans-Serif" font-size="10.00">+ recvClk</text>
<polyline fill="none" stroke="#666666" points="636.5,-212.5 791.5,-212.5 "/>
<text text-anchor="start" x="644.5" y="-200.5" font-family="Helvetica,sans-Serif" font-size="10.00">+ e_positionStdev()</text>
<text text-anchor="start" x="644.5" y="-189.5" font-family="Helvetica,sans-Serif" font-size="10.00">+ e_velocityStdev()</text>
<text text-anchor="start" x="644.5" y="-178.5" font-family="Helvetica,sans-Serif" font-size="10.00">+ n_positionStdev()</text>
<text text-anchor="start" x="644.5" y="-167.5" font-family="Helvetica,sans-Serif" font-size="10.00">+ n_velocityStdev()</text>
<text text-anchor="start" x="644.5" y="-156.5" font-family="Helvetica,sans-Serif" font-size="10.00">+ setPositionAndStdDev_e()</text>
<text text-anchor="start" x="644.5" y="-145.5" font-family="Helvetica,sans-Serif" font-size="10.00">+ setVelocityAndStdDev_e()</text>
<text text-anchor="start" x="644.5" y="-134.5" font-family="Helvetica,sans-Serif" font-size="10.00">+ parentTypes()</text>
<text text-anchor="start" x="644.5" y="-123.5" font-family="Helvetica,sans-Serif" font-size="10.00">+ type()</text>
</a>
</g>
</g>
<!-- Node9&#45;&gt;Node13 -->
<g id="edge12" class="edge">
<title>Node9&#45;&gt;Node13</title>
<path fill="none" stroke="#63b8ff" d="M617.42,-312.18C628,-299.4 639.23,-285.83 650.15,-272.63"/>
<polygon fill="none" stroke="#63b8ff" points="614.6,-310.09 610.92,-320.03 619.99,-314.55 614.6,-310.09"/>
</g>
<!-- Node11 -->
<g id="node11" class="node">
<title>Node11</title>
<g id="a_node11"><a xlink:href="classNAV_1_1InertialNavSol.html" target="_top" xlink:title="Position, Velocity and Attitude Storage Class.">
<polygon fill="white" stroke="#666666" points="367.5,-0.5 367.5,-68.5 478.5,-68.5 478.5,-0.5 367.5,-0.5"/>
<text text-anchor="middle" x="423" y="-56.5" font-family="Helvetica,sans-Serif" font-size="10.00">NAV::InertialNavSol</text>
<polyline fill="none" stroke="#666666" points="367.5,-49.5 478.5,-49.5 "/>
<text text-anchor="start" x="375.5" y="-37.5" font-family="Helvetica,sans-Serif" font-size="10.00">+ imuObs</text>
<polyline fill="none" stroke="#666666" points="367.5,-30.5 478.5,-30.5 "/>
<text text-anchor="start" x="375.5" y="-18.5" font-family="Helvetica,sans-Serif" font-size="10.00">+ parentTypes()</text>
<text text-anchor="start" x="375.5" y="-7.5" font-family="Helvetica,sans-Serif" font-size="10.00">+ type()</text>
</a>
</g>
</g>
<!-- Node10&#45;&gt;Node11 -->
<g id="edge10" class="edge">
<title>Node10&#45;&gt;Node11</title>
<path fill="none" stroke="#63b8ff" d="M423,-100.7C423,-89.3 423,-78.29 423,-68.67"/>
<polygon fill="none" stroke="#63b8ff" points="419.5,-100.8 423,-110.8 426.5,-100.8 419.5,-100.8"/>
</g>
</g>
</svg>
