<?xml version="1.0" encoding="UTF-8" standalone="no"?>
<!DOCTYPE svg PUBLIC "-//W3C//DTD SVG 1.1//EN"
 "http://www.w3.org/Graphics/SVG/1.1/DTD/svg11.dtd">
<!-- Generated by graphviz version 2.43.0 (0)
 -->
<!-- Title: NAV::ImuObs Pages: 1 -->
<svg width="244pt" height="557pt"
 viewBox="0.00 0.00 243.50 557.00" xmlns="http://www.w3.org/2000/svg" xmlns:xlink="http://www.w3.org/1999/xlink">
<g id="graph0" class="graph" transform="scale(1 1) rotate(0) translate(4 553)">
<title>NAV::ImuObs</title>
<!-- Node1 -->
<g id="Node000001" class="node">
<title>Node1</title>
<g id="a_Node000001"><a xlink:title="IMU Observation storage class.">
<polygon fill="#999999" stroke="transparent" points="171.5,-359 64.5,-359 64.5,-160 171.5,-160 171.5,-359"/>
<text text-anchor="start" x="86.5" y="-346.5" font-family="Helvetica,sans-Serif" font-size="10.00">NAV::ImuObs</text>
<text text-anchor="start" x="69" y="-331.5" font-family="Helvetica,sans-Serif" font-size="10.00">+</text>
<text text-anchor="start" x="82" y="-331.5" font-family="Helvetica,sans-Serif" font-size="10.00">accelCompXYZ</text>
<text text-anchor="start" x="69" y="-316.5" font-family="Helvetica,sans-Serif" font-size="10.00">+</text>
<text text-anchor="start" x="82" y="-316.5" font-family="Helvetica,sans-Serif" font-size="10.00">accelUncompXYZ</text>
<text text-anchor="start" x="69" y="-301.5" font-family="Helvetica,sans-Serif" font-size="10.00">+</text>
<text text-anchor="start" x="82" y="-301.5" font-family="Helvetica,sans-Serif" font-size="10.00">gyroCompXYZ</text>
<text text-anchor="start" x="69" y="-286.5" font-family="Helvetica,sans-Serif" font-size="10.00">+</text>
<text text-anchor="start" x="82" y="-286.5" font-family="Helvetica,sans-Serif" font-size="10.00">gyroUncompXYZ</text>
<text text-anchor="start" x="69" y="-271.5" font-family="Helvetica,sans-Serif" font-size="10.00">+</text>
<text text-anchor="start" x="82" y="-271.5" font-family="Helvetica,sans-Serif" font-size="10.00">imuPos</text>
<text text-anchor="start" x="69" y="-256.5" font-family="Helvetica,sans-Serif" font-size="10.00">+</text>
<text text-anchor="start" x="82" y="-256.5" font-family="Helvetica,sans-Serif" font-size="10.00">magCompXYZ</text>
<text text-anchor="start" x="69" y="-241.5" font-family="Helvetica,sans-Serif" font-size="10.00">+</text>
<text text-anchor="start" x="82" y="-241.5" font-family="Helvetica,sans-Serif" font-size="10.00">magUncompXYZ</text>
<text text-anchor="start" x="69" y="-226.5" font-family="Helvetica,sans-Serif" font-size="10.00">+</text>
<text text-anchor="start" x="82" y="-226.5" font-family="Helvetica,sans-Serif" font-size="10.00">temperature</text>
<text text-anchor="start" x="69" y="-211.5" font-family="Helvetica,sans-Serif" font-size="10.00">+</text>
<text text-anchor="start" x="82" y="-211.5" font-family="Helvetica,sans-Serif" font-size="10.00">timeSinceStartup</text>
<text text-anchor="start" x="69" y="-196.5" font-family="Helvetica,sans-Serif" font-size="10.00">+</text>
<text text-anchor="start" x="82" y="-196.5" font-family="Helvetica,sans-Serif" font-size="10.00">ImuObs()</text>
<text text-anchor="start" x="69" y="-181.5" font-family="Helvetica,sans-Serif" font-size="10.00">+</text>
<text text-anchor="start" x="82" y="-181.5" font-family="Helvetica,sans-Serif" font-size="10.00">parentTypes()</text>
<text text-anchor="start" x="69" y="-166.5" font-family="Helvetica,sans-Serif" font-size="10.00">+</text>
<text text-anchor="start" x="82" y="-166.5" font-family="Helvetica,sans-Serif" font-size="10.00">type()</text>
<polygon fill="#666666" stroke="#666666" points="65,-341.5 65,-341.5 172,-341.5 172,-341.5 65,-341.5"/>
<polygon fill="#666666" stroke="#666666" points="65,-206.5 65,-206.5 80,-206.5 80,-206.5 65,-206.5"/>
<polygon fill="#666666" stroke="#666666" points="80,-206.5 80,-206.5 172,-206.5 172,-206.5 80,-206.5"/>
<polygon fill="none" stroke="#666666" points="64.5,-160 64.5,-359 171.5,-359 171.5,-160 64.5,-160"/>
</a>
</g>
</g>
<!-- Node3 -->
<g id="Node000003" class="node">
<title>Node3</title>
<g id="a_Node000003"><a xlink:href="classNAV_1_1ImuObsWDelta.html" target="_top" xlink:title="VectorNav Observation storage Class.">
<polygon fill="white" stroke="transparent" points="110,-116.5 0,-116.5 0,-7.5 110,-7.5 110,-116.5"/>
<text text-anchor="start" x="5" y="-104" font-family="Helvetica,sans-Serif" font-size="10.00">NAV::ImuObsWDelta</text>
<text text-anchor="start" x="5.5" y="-89" font-family="Helvetica,sans-Serif" font-size="10.00">+</text>
<text text-anchor="start" x="20" y="-89" font-family="Helvetica,sans-Serif" font-size="10.00">dtheta</text>
<text text-anchor="start" x="5.5" y="-74" font-family="Helvetica,sans-Serif" font-size="10.00">+</text>
<text text-anchor="start" x="20" y="-74" font-family="Helvetica,sans-Serif" font-size="10.00">dtime</text>
<text text-anchor="start" x="5.5" y="-59" font-family="Helvetica,sans-Serif" font-size="10.00">+</text>
<text text-anchor="start" x="20" y="-59" font-family="Helvetica,sans-Serif" font-size="10.00">dvel</text>
<text text-anchor="start" x="5.5" y="-44" font-family="Helvetica,sans-Serif" font-size="10.00">+</text>
<text text-anchor="start" x="20" y="-44" font-family="Helvetica,sans-Serif" font-size="10.00">ImuObsWDelta()</text>
<text text-anchor="start" x="5.5" y="-29" font-family="Helvetica,sans-Serif" font-size="10.00">+</text>
<text text-anchor="start" x="20" y="-29" font-family="Helvetica,sans-Serif" font-size="10.00">parentTypes()</text>
<text text-anchor="start" x="5.5" y="-14" font-family="Helvetica,sans-Serif" font-size="10.00">+</text>
<text text-anchor="start" x="20" y="-14" font-family="Helvetica,sans-Serif" font-size="10.00">type()</text>
<polygon fill="#666666" stroke="#666666" points="0,-99 0,-99 110,-99 110,-99 0,-99"/>
<polygon fill="#666666" stroke="#666666" points="0,-54 0,-54 18,-54 18,-54 0,-54"/>
<polygon fill="#666666" stroke="#666666" points="18,-54 18,-54 110,-54 110,-54 18,-54"/>
<polygon fill="none" stroke="#666666" points="0,-7.5 0,-116.5 110,-116.5 110,-7.5 0,-7.5"/>
</a>
</g>
</g>
<!-- Node1&#45;&gt;Node3 -->
<g id="edge2_Node000001_Node000003" class="edge">
<title>Node1&#45;&gt;Node3</title>
<g id="a_edge2_Node000001_Node000003"><a xlink:title=" ">
<path fill="none" stroke="#63b8ff" d="M83.08,-150.13C79.35,-138.55 75.68,-127.18 72.29,-116.66"/>
<polygon fill="none" stroke="#63b8ff" points="79.82,-151.45 86.22,-159.89 86.49,-149.3 79.82,-151.45"/>
</a>
</g>
</g>
<!-- Node4 -->
<g id="Node000004" class="node">
<title>Node4</title>
<g id="a_Node000004"><a xlink:href="classNAV_1_1KvhObs.html" target="_top" xlink:title="Kvh Observation storage Class.">
<polygon fill="white" stroke="transparent" points="235.5,-124 128.5,-124 128.5,0 235.5,0 235.5,-124"/>
<text text-anchor="start" x="150.5" y="-112" font-family="Helvetica,sans-Serif" font-size="10.00">NAV::KvhObs</text>
<text text-anchor="start" x="133" y="-97" font-family="Helvetica,sans-Serif" font-size="10.00">+</text>
<text text-anchor="start" x="146" y="-97" font-family="Helvetica,sans-Serif" font-size="10.00">raw</text>
<text text-anchor="start" x="133" y="-82" font-family="Helvetica,sans-Serif" font-size="10.00">+</text>
<text text-anchor="start" x="146" y="-82" font-family="Helvetica,sans-Serif" font-size="10.00">sequenceNumber</text>
<text text-anchor="start" x="133" y="-67" font-family="Helvetica,sans-Serif" font-size="10.00">+</text>
<text text-anchor="start" x="146" y="-67" font-family="Helvetica,sans-Serif" font-size="10.00">status</text>
<text text-anchor="start" x="133" y="-52" font-family="Helvetica,sans-Serif" font-size="10.00">+</text>
<text text-anchor="start" x="146" y="-52" font-family="Helvetica,sans-Serif" font-size="10.00">KvhObs()</text>
<text text-anchor="start" x="133" y="-37" font-family="Helvetica,sans-Serif" font-size="10.00">+</text>
<text text-anchor="start" x="146" y="-37" font-family="Helvetica,sans-Serif" font-size="10.00">KvhObs()</text>
<text text-anchor="start" x="133" y="-22" font-family="Helvetica,sans-Serif" font-size="10.00">+</text>
<text text-anchor="start" x="146" y="-22" font-family="Helvetica,sans-Serif" font-size="10.00">parentTypes()</text>
<text text-anchor="start" x="133" y="-7" font-family="Helvetica,sans-Serif" font-size="10.00">+</text>
<text text-anchor="start" x="146" y="-7" font-family="Helvetica,sans-Serif" font-size="10.00">type()</text>
<polygon fill="#666666" stroke="#666666" points="129,-107 129,-107 236,-107 236,-107 129,-107"/>
<polygon fill="#666666" stroke="#666666" points="129,-62 129,-62 144,-62 144,-62 129,-62"/>
<polygon fill="#666666" stroke="#666666" points="144,-62 144,-62 236,-62 236,-62 144,-62"/>
<polygon fill="none" stroke="#666666" points="128.5,0 128.5,-124 235.5,-124 235.5,0 128.5,0"/>
</a>
</g>
</g>
<!-- Node1&#45;&gt;Node4 -->
<g id="edge3_Node000001_Node000004" class="edge">
<title>Node1&#45;&gt;Node4</title>
<g id="a_edge3_Node000001_Node000004"><a xlink:title=" ">
<path fill="none" stroke="#63b8ff" d="M153.44,-150.23C156.35,-141.35 159.22,-132.6 161.95,-124.25"/>
<polygon fill="none" stroke="#63b8ff" points="150.07,-149.3 150.28,-159.89 156.72,-151.48 150.07,-149.3"/>
</a>
</g>
</g>
<!-- Node2 -->
<g id="Node000002" class="node">
<title>Node2</title>
<g id="a_Node000002"><a xlink:href="classNAV_1_1NodeData.html" target="_top" xlink:title="Parent class for all data transmitted over Flow pins.">
<polygon fill="white" stroke="transparent" points="162,-549 74,-549 74,-395 162,-395 162,-549"/>
<text text-anchor="start" x="80.5" y="-537" font-family="Helvetica,sans-Serif" font-size="10.00">NAV::NodeData</text>
<text text-anchor="start" x="78" y="-522" font-family="Helvetica,sans-Serif" font-size="10.00">+</text>
<text text-anchor="start" x="91" y="-522" font-family="Helvetica,sans-Serif" font-size="10.00">insTime</text>
<text text-anchor="start" x="78" y="-507" font-family="Helvetica,sans-Serif" font-size="10.00">+</text>
<text text-anchor="start" x="91" y="-507" font-family="Helvetica,sans-Serif" font-size="10.00">NodeData()</text>
<text text-anchor="start" x="78" y="-492" font-family="Helvetica,sans-Serif" font-size="10.00">+</text>
<text text-anchor="start" x="91" y="-492" font-family="Helvetica,sans-Serif" font-size="10.00">NodeData()</text>
<text text-anchor="start" x="78" y="-477" font-family="Helvetica,sans-Serif" font-size="10.00">+</text>
<text text-anchor="start" x="91" y="-477" font-family="Helvetica,sans-Serif" font-size="10.00">NodeData()</text>
<text text-anchor="start" x="78" y="-462" font-family="Helvetica,sans-Serif" font-size="10.00">+</text>
<text text-anchor="start" x="91" y="-462" font-family="Helvetica,sans-Serif" font-size="10.00">operator=()</text>
<text text-anchor="start" x="78" y="-447" font-family="Helvetica,sans-Serif" font-size="10.00">+</text>
<text text-anchor="start" x="91" y="-447" font-family="Helvetica,sans-Serif" font-size="10.00">operator=()</text>
<text text-anchor="start" x="78" y="-432" font-family="Helvetica,sans-Serif" font-size="10.00">+</text>
<text text-anchor="start" x="91" y="-432" font-family="Helvetica,sans-Serif" font-size="10.00">~NodeData()</text>
<text text-anchor="start" x="78" y="-417" font-family="Helvetica,sans-Serif" font-size="10.00">+</text>
<text text-anchor="start" x="91" y="-417" font-family="Helvetica,sans-Serif" font-size="10.00">parentTypes()</text>
<text text-anchor="start" x="78" y="-402" font-family="Helvetica,sans-Serif" font-size="10.00">+</text>
<text text-anchor="start" x="91" y="-402" font-family="Helvetica,sans-Serif" font-size="10.00">type()</text>
<polygon fill="#666666" stroke="#666666" points="74,-532 74,-532 162,-532 162,-532 74,-532"/>
<polygon fill="#666666" stroke="#666666" points="74,-517 74,-517 89,-517 89,-517 74,-517"/>
<polygon fill="#666666" stroke="#666666" points="89,-517 89,-517 162,-517 162,-517 89,-517"/>
<polygon fill="none" stroke="#666666" points="74,-395 74,-549 162,-549 162,-395 74,-395"/>
</a>
</g>
</g>
<!-- Node2&#45;&gt;Node1 -->
<g id="edge1_Node000001_Node000002" class="edge">
<title>Node2&#45;&gt;Node1</title>
<g id="a_edge1_Node000001_Node000002"><a xlink:title=" ">
<path fill="none" stroke="#63b8ff" d="M118,-384.6C118,-376.23 118,-367.7 118,-359.22"/>
<polygon fill="none" stroke="#63b8ff" points="114.5,-384.71 118,-394.71 121.5,-384.71 114.5,-384.71"/>
</a>
</g>
</g>
</g>
</svg>
