<?xml version="1.0" encoding="UTF-8" standalone="no"?>
<!DOCTYPE svg PUBLIC "-//W3C//DTD SVG 1.1//EN"
 "http://www.w3.org/Graphics/SVG/1.1/DTD/svg11.dtd">
<!-- Generated by graphviz version 2.43.0 (0)
 -->
<!-- Title: NAV::internal::KeyedVectorBase&lt; Scalar, RowKeyType, Rows &gt; Pages: 1 -->
<svg width="856pt" height="912pt"
 viewBox="0.00 0.00 855.50 912.00" xmlns="http://www.w3.org/2000/svg" xmlns:xlink="http://www.w3.org/1999/xlink">
<g id="graph0" class="graph" transform="scale(1 1) rotate(0) translate(4 908)">
<title>NAV::internal::KeyedVectorBase&lt; Scalar, RowKeyType, Rows &gt;</title>
<!-- Node1 -->
<g id="Node000001" class="node">
<title>Node1</title>
<g id="a_Node000001"><a xlink:title="Class to inherit common methods for static and dynamic sized vectors.">
<polygon fill="#999999" stroke="transparent" points="504,-504 358,-504 358,-272 504,-272 504,-504"/>
<text text-anchor="start" x="363" y="-492" font-family="Helvetica,sans-Serif" font-size="10.00">NAV::internal::KeyedVector</text>
<text text-anchor="start" x="363" y="-481" font-family="Helvetica,sans-Serif" font-size="10.00">Base&lt; Scalar, RowKeyType,</text>
<text text-anchor="start" x="410.5" y="-470" font-family="Helvetica,sans-Serif" font-size="10.00"> Rows &gt;</text>
<text text-anchor="start" x="429" y="-455" font-family="Helvetica,sans-Serif" font-size="10.00"> </text>
<text text-anchor="start" x="366" y="-440" font-family="Helvetica,sans-Serif" font-size="10.00">+</text>
<text text-anchor="start" x="383" y="-440" font-family="Helvetica,sans-Serif" font-size="10.00">KeyedVectorBase()</text>
<text text-anchor="start" x="366" y="-425" font-family="Helvetica,sans-Serif" font-size="10.00">+</text>
<text text-anchor="start" x="383" y="-425" font-family="Helvetica,sans-Serif" font-size="10.00">KeyedVectorBase()</text>
<text text-anchor="start" x="366" y="-410" font-family="Helvetica,sans-Serif" font-size="10.00">+</text>
<text text-anchor="start" x="383" y="-410" font-family="Helvetica,sans-Serif" font-size="10.00">KeyedVectorBase()</text>
<text text-anchor="start" x="366" y="-395" font-family="Helvetica,sans-Serif" font-size="10.00">+</text>
<text text-anchor="start" x="383" y="-395" font-family="Helvetica,sans-Serif" font-size="10.00">KeyedVectorBase()</text>
<text text-anchor="start" x="366" y="-380" font-family="Helvetica,sans-Serif" font-size="10.00">+</text>
<text text-anchor="start" x="383" y="-380" font-family="Helvetica,sans-Serif" font-size="10.00">KeyedVectorBase()</text>
<text text-anchor="start" x="366" y="-365" font-family="Helvetica,sans-Serif" font-size="10.00">+</text>
<text text-anchor="start" x="383" y="-365" font-family="Helvetica,sans-Serif" font-size="10.00">KeyedVectorBase()</text>
<text text-anchor="start" x="366" y="-350" font-family="Helvetica,sans-Serif" font-size="10.00">+</text>
<text text-anchor="start" x="383" y="-350" font-family="Helvetica,sans-Serif" font-size="10.00">operator Eigen::Vector</text>
<text text-anchor="start" x="383" y="-339" font-family="Helvetica,sans-Serif" font-size="10.00">&lt; Scalar, Rows &gt;()</text>
<text text-anchor="start" x="366" y="-324" font-family="Helvetica,sans-Serif" font-size="10.00">+</text>
<text text-anchor="start" x="383" y="-324" font-family="Helvetica,sans-Serif" font-size="10.00">operator()()</text>
<text text-anchor="start" x="366" y="-309" font-family="Helvetica,sans-Serif" font-size="10.00">+</text>
<text text-anchor="start" x="383" y="-309" font-family="Helvetica,sans-Serif" font-size="10.00">operator()()</text>
<text text-anchor="start" x="366" y="-294" font-family="Helvetica,sans-Serif" font-size="10.00">+</text>
<text text-anchor="start" x="383" y="-294" font-family="Helvetica,sans-Serif" font-size="10.00">operator()()</text>
<text text-anchor="start" x="383" y="-279" font-family="Helvetica,sans-Serif" font-size="10.00">and 13 more...</text>
<polygon fill="#666666" stroke="#666666" points="358,-465 358,-465 504,-465 504,-465 358,-465"/>
<polygon fill="#666666" stroke="#666666" points="358,-450 358,-450 504,-450 504,-450 358,-450"/>
<polygon fill="none" stroke="#666666" points="358,-272 358,-504 504,-504 504,-272 358,-272"/>
</a>
</g>
</g>
<!-- Node5 -->
<g id="Node000005" class="node">
<title>Node5</title>
<g id="a_Node000005"><a xlink:href="classNAV_1_1KeyedVector_3_01Scalar_00_01RowKeyType_00_01Eigen_1_1Dynamic_01_4.html" target="_top" xlink:title=" ">
<polygon fill="white" stroke="transparent" points="158,-236 0,-236 0,0 158,0 158,-236"/>
<text text-anchor="start" x="5" y="-224" font-family="Helvetica,sans-Serif" font-size="10.00">NAV::KeyedVector&lt; Scalar,</text>
<text text-anchor="start" x="5" y="-213" font-family="Helvetica,sans-Serif" font-size="10.00"> RowKeyType, Eigen::Dynamic</text>
<text text-anchor="start" x="11" y="-202" font-family="Helvetica,sans-Serif" font-size="10.00"> &gt;&lt; Scalar, StateKeyType &gt;</text>
<text text-anchor="start" x="77" y="-187" font-family="Helvetica,sans-Serif" font-size="10.00"> </text>
<text text-anchor="start" x="19" y="-172" font-family="Helvetica,sans-Serif" font-size="10.00">+</text>
<text text-anchor="start" x="47" y="-172" font-family="Helvetica,sans-Serif" font-size="10.00">KeyedVector()</text>
<text text-anchor="start" x="19" y="-157" font-family="Helvetica,sans-Serif" font-size="10.00">+</text>
<text text-anchor="start" x="47" y="-157" font-family="Helvetica,sans-Serif" font-size="10.00">KeyedVector()</text>
<text text-anchor="start" x="19" y="-142" font-family="Helvetica,sans-Serif" font-size="10.00">+</text>
<text text-anchor="start" x="47" y="-142" font-family="Helvetica,sans-Serif" font-size="10.00">KeyedVector()</text>
<text text-anchor="start" x="19" y="-127" font-family="Helvetica,sans-Serif" font-size="10.00">+</text>
<text text-anchor="start" x="47" y="-127" font-family="Helvetica,sans-Serif" font-size="10.00">KeyedVector()</text>
<text text-anchor="start" x="19" y="-112" font-family="Helvetica,sans-Serif" font-size="10.00">+</text>
<text text-anchor="start" x="47" y="-112" font-family="Helvetica,sans-Serif" font-size="10.00">KeyedVector()</text>
<text text-anchor="start" x="19" y="-97" font-family="Helvetica,sans-Serif" font-size="10.00">+</text>
<text text-anchor="start" x="47" y="-97" font-family="Helvetica,sans-Serif" font-size="10.00">KeyedVector()</text>
<text text-anchor="start" x="19" y="-82" font-family="Helvetica,sans-Serif" font-size="10.00">+</text>
<text text-anchor="start" x="47" y="-82" font-family="Helvetica,sans-Serif" font-size="10.00">operator=()</text>
<text text-anchor="start" x="19" y="-67" font-family="Helvetica,sans-Serif" font-size="10.00">+</text>
<text text-anchor="start" x="47" y="-67" font-family="Helvetica,sans-Serif" font-size="10.00">operator=()</text>
<text text-anchor="start" x="19" y="-52" font-family="Helvetica,sans-Serif" font-size="10.00">+</text>
<text text-anchor="start" x="47" y="-52" font-family="Helvetica,sans-Serif" font-size="10.00">operator=()</text>
<text text-anchor="start" x="19" y="-37" font-family="Helvetica,sans-Serif" font-size="10.00">+</text>
<text text-anchor="start" x="47" y="-37" font-family="Helvetica,sans-Serif" font-size="10.00">operator=()</text>
<text text-anchor="start" x="19" y="-22" font-family="Helvetica,sans-Serif" font-size="10.00">+</text>
<text text-anchor="start" x="47" y="-22" font-family="Helvetica,sans-Serif" font-size="10.00">transposed()</text>
<text text-anchor="start" x="19" y="-7" font-family="Helvetica,sans-Serif" font-size="10.00">+</text>
<text text-anchor="start" x="47" y="-7" font-family="Helvetica,sans-Serif" font-size="10.00">~KeyedVector()</text>
<polygon fill="#666666" stroke="#666666" points="0,-197 0,-197 158,-197 158,-197 0,-197"/>
<polygon fill="#666666" stroke="#666666" points="0,-182 0,-182 158,-182 158,-182 0,-182"/>
<polygon fill="none" stroke="#666666" points="0,0 0,-236 158,-236 158,0 0,0"/>
</a>
</g>
</g>
<!-- Node1&#45;&gt;Node5 -->
<g id="edge4_Node000001_Node000005" class="edge">
<title>Node1&#45;&gt;Node5</title>
<g id="a_edge4_Node000001_Node000005"><a xlink:title=" ">
<path fill="none" stroke="#63b8ff" d="M348.78,-350.81C293.66,-324.07 221.49,-284.05 167,-236 164.05,-233.39 161.13,-230.68 158.25,-227.87"/>
<polygon fill="none" stroke="#63b8ff" points="347.29,-353.98 357.82,-355.15 350.32,-347.67 347.29,-353.98"/>
</a>
</g>
</g>
<!-- Node6 -->
<g id="Node000006" class="node">
<title>Node6</title>
<g id="a_Node000006"><a xlink:href="classNAV_1_1KeyedVector_3_01Scalar_00_01RowKeyType_00_01Eigen_1_1Dynamic_01_4.html" target="_top" xlink:title=" ">
<polygon fill="white" stroke="transparent" points="334,-236 176,-236 176,0 334,0 334,-236"/>
<text text-anchor="start" x="181" y="-224" font-family="Helvetica,sans-Serif" font-size="10.00">NAV::KeyedVector&lt; Scalar,</text>
<text text-anchor="start" x="181" y="-213" font-family="Helvetica,sans-Serif" font-size="10.00"> RowKeyType, Eigen::Dynamic</text>
<text text-anchor="start" x="186.5" y="-202" font-family="Helvetica,sans-Serif" font-size="10.00"> &gt;&lt; Scalar, MeasKeyType &gt;</text>
<text text-anchor="start" x="253" y="-187" font-family="Helvetica,sans-Serif" font-size="10.00"> </text>
<text text-anchor="start" x="195" y="-172" font-family="Helvetica,sans-Serif" font-size="10.00">+</text>
<text text-anchor="start" x="223" y="-172" font-family="Helvetica,sans-Serif" font-size="10.00">KeyedVector()</text>
<text text-anchor="start" x="195" y="-157" font-family="Helvetica,sans-Serif" font-size="10.00">+</text>
<text text-anchor="start" x="223" y="-157" font-family="Helvetica,sans-Serif" font-size="10.00">KeyedVector()</text>
<text text-anchor="start" x="195" y="-142" font-family="Helvetica,sans-Serif" font-size="10.00">+</text>
<text text-anchor="start" x="223" y="-142" font-family="Helvetica,sans-Serif" font-size="10.00">KeyedVector()</text>
<text text-anchor="start" x="195" y="-127" font-family="Helvetica,sans-Serif" font-size="10.00">+</text>
<text text-anchor="start" x="223" y="-127" font-family="Helvetica,sans-Serif" font-size="10.00">KeyedVector()</text>
<text text-anchor="start" x="195" y="-112" font-family="Helvetica,sans-Serif" font-size="10.00">+</text>
<text text-anchor="start" x="223" y="-112" font-family="Helvetica,sans-Serif" font-size="10.00">KeyedVector()</text>
<text text-anchor="start" x="195" y="-97" font-family="Helvetica,sans-Serif" font-size="10.00">+</text>
<text text-anchor="start" x="223" y="-97" font-family="Helvetica,sans-Serif" font-size="10.00">KeyedVector()</text>
<text text-anchor="start" x="195" y="-82" font-family="Helvetica,sans-Serif" font-size="10.00">+</text>
<text text-anchor="start" x="223" y="-82" font-family="Helvetica,sans-Serif" font-size="10.00">operator=()</text>
<text text-anchor="start" x="195" y="-67" font-family="Helvetica,sans-Serif" font-size="10.00">+</text>
<text text-anchor="start" x="223" y="-67" font-family="Helvetica,sans-Serif" font-size="10.00">operator=()</text>
<text text-anchor="start" x="195" y="-52" font-family="Helvetica,sans-Serif" font-size="10.00">+</text>
<text text-anchor="start" x="223" y="-52" font-family="Helvetica,sans-Serif" font-size="10.00">operator=()</text>
<text text-anchor="start" x="195" y="-37" font-family="Helvetica,sans-Serif" font-size="10.00">+</text>
<text text-anchor="start" x="223" y="-37" font-family="Helvetica,sans-Serif" font-size="10.00">operator=()</text>
<text text-anchor="start" x="195" y="-22" font-family="Helvetica,sans-Serif" font-size="10.00">+</text>
<text text-anchor="start" x="223" y="-22" font-family="Helvetica,sans-Serif" font-size="10.00">transposed()</text>
<text text-anchor="start" x="195" y="-7" font-family="Helvetica,sans-Serif" font-size="10.00">+</text>
<text text-anchor="start" x="223" y="-7" font-family="Helvetica,sans-Serif" font-size="10.00">~KeyedVector()</text>
<polygon fill="#666666" stroke="#666666" points="176,-197 176,-197 334,-197 334,-197 176,-197"/>
<polygon fill="#666666" stroke="#666666" points="176,-182 176,-182 334,-182 334,-182 176,-182"/>
<polygon fill="none" stroke="#666666" points="176,0 176,-236 334,-236 334,0 176,0"/>
</a>
</g>
</g>
<!-- Node1&#45;&gt;Node6 -->
<g id="edge5_Node000001_Node000006" class="edge">
<title>Node1&#45;&gt;Node6</title>
<g id="a_edge5_Node000001_Node000006"><a xlink:title=" ">
<path fill="none" stroke="#63b8ff" d="M352.22,-267.05C345.46,-256.74 338.61,-246.32 331.86,-236.04"/>
<polygon fill="none" stroke="#63b8ff" points="349.47,-269.23 357.89,-275.67 355.33,-265.39 349.47,-269.23"/>
</a>
</g>
</g>
<!-- Node7 -->
<g id="Node000007" class="node">
<title>Node7</title>
<g id="a_Node000007"><a xlink:href="classNAV_1_1KeyedVector_3_01Scalar_00_01RowKeyType_00_01Eigen_1_1Dynamic_01_4.html" target="_top" xlink:title=" ">
<polygon fill="white" stroke="transparent" points="510,-236 352,-236 352,0 510,0 510,-236"/>
<text text-anchor="start" x="357" y="-224" font-family="Helvetica,sans-Serif" font-size="10.00">NAV::KeyedVector&lt; Scalar,</text>
<text text-anchor="start" x="357" y="-213" font-family="Helvetica,sans-Serif" font-size="10.00"> RowKeyType, Eigen::Dynamic</text>
<text text-anchor="start" x="370" y="-202" font-family="Helvetica,sans-Serif" font-size="10.00"> &gt;&lt; KFStates, KFMeas &gt;</text>
<text text-anchor="start" x="429" y="-187" font-family="Helvetica,sans-Serif" font-size="10.00"> </text>
<text text-anchor="start" x="371" y="-172" font-family="Helvetica,sans-Serif" font-size="10.00">+</text>
<text text-anchor="start" x="399" y="-172" font-family="Helvetica,sans-Serif" font-size="10.00">KeyedVector()</text>
<text text-anchor="start" x="371" y="-157" font-family="Helvetica,sans-Serif" font-size="10.00">+</text>
<text text-anchor="start" x="399" y="-157" font-family="Helvetica,sans-Serif" font-size="10.00">KeyedVector()</text>
<text text-anchor="start" x="371" y="-142" font-family="Helvetica,sans-Serif" font-size="10.00">+</text>
<text text-anchor="start" x="399" y="-142" font-family="Helvetica,sans-Serif" font-size="10.00">KeyedVector()</text>
<text text-anchor="start" x="371" y="-127" font-family="Helvetica,sans-Serif" font-size="10.00">+</text>
<text text-anchor="start" x="399" y="-127" font-family="Helvetica,sans-Serif" font-size="10.00">KeyedVector()</text>
<text text-anchor="start" x="371" y="-112" font-family="Helvetica,sans-Serif" font-size="10.00">+</text>
<text text-anchor="start" x="399" y="-112" font-family="Helvetica,sans-Serif" font-size="10.00">KeyedVector()</text>
<text text-anchor="start" x="371" y="-97" font-family="Helvetica,sans-Serif" font-size="10.00">+</text>
<text text-anchor="start" x="399" y="-97" font-family="Helvetica,sans-Serif" font-size="10.00">KeyedVector()</text>
<text text-anchor="start" x="371" y="-82" font-family="Helvetica,sans-Serif" font-size="10.00">+</text>
<text text-anchor="start" x="399" y="-82" font-family="Helvetica,sans-Serif" font-size="10.00">operator=()</text>
<text text-anchor="start" x="371" y="-67" font-family="Helvetica,sans-Serif" font-size="10.00">+</text>
<text text-anchor="start" x="399" y="-67" font-family="Helvetica,sans-Serif" font-size="10.00">operator=()</text>
<text text-anchor="start" x="371" y="-52" font-family="Helvetica,sans-Serif" font-size="10.00">+</text>
<text text-anchor="start" x="399" y="-52" font-family="Helvetica,sans-Serif" font-size="10.00">operator=()</text>
<text text-anchor="start" x="371" y="-37" font-family="Helvetica,sans-Serif" font-size="10.00">+</text>
<text text-anchor="start" x="399" y="-37" font-family="Helvetica,sans-Serif" font-size="10.00">operator=()</text>
<text text-anchor="start" x="371" y="-22" font-family="Helvetica,sans-Serif" font-size="10.00">+</text>
<text text-anchor="start" x="399" y="-22" font-family="Helvetica,sans-Serif" font-size="10.00">transposed()</text>
<text text-anchor="start" x="371" y="-7" font-family="Helvetica,sans-Serif" font-size="10.00">+</text>
<text text-anchor="start" x="399" y="-7" font-family="Helvetica,sans-Serif" font-size="10.00">~KeyedVector()</text>
<polygon fill="#666666" stroke="#666666" points="352,-197 352,-197 510,-197 510,-197 352,-197"/>
<polygon fill="#666666" stroke="#666666" points="352,-182 352,-182 510,-182 510,-182 352,-182"/>
<polygon fill="none" stroke="#666666" points="352,0 352,-236 510,-236 510,0 352,0"/>
</a>
</g>
</g>
<!-- Node1&#45;&gt;Node7 -->
<g id="edge6_Node000001_Node000007" class="edge">
<title>Node1&#45;&gt;Node7</title>
<g id="a_edge6_Node000001_Node000007"><a xlink:title=" ">
<path fill="none" stroke="#63b8ff" d="M431,-261.54C431,-253.11 431,-244.63 431,-236.24"/>
<polygon fill="none" stroke="#63b8ff" points="427.5,-261.79 431,-271.79 434.5,-261.79 427.5,-261.79"/>
</a>
</g>
</g>
<!-- Node8 -->
<g id="Node000008" class="node">
<title>Node8</title>
<g id="a_Node000008"><a xlink:href="classNAV_1_1KeyedVector_3_01Scalar_00_01RowKeyType_00_01Eigen_1_1Dynamic_01_4.html" target="_top" xlink:title=" ">
<polygon fill="white" stroke="transparent" points="688,-236 528,-236 528,0 688,0 688,-236"/>
<text text-anchor="start" x="533" y="-224" font-family="Helvetica,sans-Serif" font-size="10.00">NAV::KeyedVector&lt; Scalar,</text>
<text text-anchor="start" x="533" y="-213" font-family="Helvetica,sans-Serif" font-size="10.00"> RowKeyType, Eigen::Dynamic</text>
<text text-anchor="start" x="533" y="-202" font-family="Helvetica,sans-Serif" font-size="10.00"> &gt;&lt; KFStates, MeasKeyType &gt;</text>
<text text-anchor="start" x="606" y="-187" font-family="Helvetica,sans-Serif" font-size="10.00"> </text>
<text text-anchor="start" x="547.5" y="-172" font-family="Helvetica,sans-Serif" font-size="10.00">+</text>
<text text-anchor="start" x="576" y="-172" font-family="Helvetica,sans-Serif" font-size="10.00">KeyedVector()</text>
<text text-anchor="start" x="547.5" y="-157" font-family="Helvetica,sans-Serif" font-size="10.00">+</text>
<text text-anchor="start" x="576" y="-157" font-family="Helvetica,sans-Serif" font-size="10.00">KeyedVector()</text>
<text text-anchor="start" x="547.5" y="-142" font-family="Helvetica,sans-Serif" font-size="10.00">+</text>
<text text-anchor="start" x="576" y="-142" font-family="Helvetica,sans-Serif" font-size="10.00">KeyedVector()</text>
<text text-anchor="start" x="547.5" y="-127" font-family="Helvetica,sans-Serif" font-size="10.00">+</text>
<text text-anchor="start" x="576" y="-127" font-family="Helvetica,sans-Serif" font-size="10.00">KeyedVector()</text>
<text text-anchor="start" x="547.5" y="-112" font-family="Helvetica,sans-Serif" font-size="10.00">+</text>
<text text-anchor="start" x="576" y="-112" font-family="Helvetica,sans-Serif" font-size="10.00">KeyedVector()</text>
<text text-anchor="start" x="547.5" y="-97" font-family="Helvetica,sans-Serif" font-size="10.00">+</text>
<text text-anchor="start" x="576" y="-97" font-family="Helvetica,sans-Serif" font-size="10.00">KeyedVector()</text>
<text text-anchor="start" x="547.5" y="-82" font-family="Helvetica,sans-Serif" font-size="10.00">+</text>
<text text-anchor="start" x="576" y="-82" font-family="Helvetica,sans-Serif" font-size="10.00">operator=()</text>
<text text-anchor="start" x="547.5" y="-67" font-family="Helvetica,sans-Serif" font-size="10.00">+</text>
<text text-anchor="start" x="576" y="-67" font-family="Helvetica,sans-Serif" font-size="10.00">operator=()</text>
<text text-anchor="start" x="547.5" y="-52" font-family="Helvetica,sans-Serif" font-size="10.00">+</text>
<text text-anchor="start" x="576" y="-52" font-family="Helvetica,sans-Serif" font-size="10.00">operator=()</text>
<text text-anchor="start" x="547.5" y="-37" font-family="Helvetica,sans-Serif" font-size="10.00">+</text>
<text text-anchor="start" x="576" y="-37" font-family="Helvetica,sans-Serif" font-size="10.00">operator=()</text>
<text text-anchor="start" x="547.5" y="-22" font-family="Helvetica,sans-Serif" font-size="10.00">+</text>
<text text-anchor="start" x="576" y="-22" font-family="Helvetica,sans-Serif" font-size="10.00">transposed()</text>
<text text-anchor="start" x="547.5" y="-7" font-family="Helvetica,sans-Serif" font-size="10.00">+</text>
<text text-anchor="start" x="576" y="-7" font-family="Helvetica,sans-Serif" font-size="10.00">~KeyedVector()</text>
<polygon fill="#666666" stroke="#666666" points="528,-197 528,-197 688,-197 688,-197 528,-197"/>
<polygon fill="#666666" stroke="#666666" points="528,-182 528,-182 688,-182 688,-182 528,-182"/>
<polygon fill="none" stroke="#666666" points="528,0 528,-236 688,-236 688,0 528,0"/>
</a>
</g>
</g>
<!-- Node1&#45;&gt;Node8 -->
<g id="edge7_Node000001_Node000008" class="edge">
<title>Node1&#45;&gt;Node8</title>
<g id="a_edge7_Node000001_Node000008"><a xlink:title=" ">
<path fill="none" stroke="#63b8ff" d="M509.58,-268.02C516.55,-257.46 523.61,-246.78 530.57,-236.24"/>
<polygon fill="none" stroke="#63b8ff" points="506.61,-266.17 504.01,-276.45 512.45,-270.03 506.61,-266.17"/>
</a>
</g>
</g>
<!-- Node9 -->
<g id="Node000009" class="node">
<title>Node9</title>
<g id="a_Node000009"><a xlink:href="classNAV_1_1KeyedVector.html" target="_top" xlink:title="Static sized KeyedVector.">
<polygon fill="white" stroke="transparent" points="847.5,-223 706.5,-223 706.5,-13 847.5,-13 847.5,-223"/>
<text text-anchor="start" x="712" y="-211" font-family="Helvetica,sans-Serif" font-size="10.00">NAV::KeyedVector&lt; Scalar,</text>
<text text-anchor="start" x="723" y="-200" font-family="Helvetica,sans-Serif" font-size="10.00"> RowKeyType, Rows &gt;</text>
<text text-anchor="start" x="775.5" y="-185" font-family="Helvetica,sans-Serif" font-size="10.00"> </text>
<text text-anchor="start" x="721.5" y="-170" font-family="Helvetica,sans-Serif" font-size="10.00">+</text>
<text text-anchor="start" x="745" y="-170" font-family="Helvetica,sans-Serif" font-size="10.00">KeyedVector()</text>
<text text-anchor="start" x="721.5" y="-155" font-family="Helvetica,sans-Serif" font-size="10.00">+</text>
<text text-anchor="start" x="745" y="-155" font-family="Helvetica,sans-Serif" font-size="10.00">KeyedVector()</text>
<text text-anchor="start" x="721.5" y="-140" font-family="Helvetica,sans-Serif" font-size="10.00">+</text>
<text text-anchor="start" x="745" y="-140" font-family="Helvetica,sans-Serif" font-size="10.00">KeyedVector()</text>
<text text-anchor="start" x="721.5" y="-125" font-family="Helvetica,sans-Serif" font-size="10.00">+</text>
<text text-anchor="start" x="745" y="-125" font-family="Helvetica,sans-Serif" font-size="10.00">KeyedVector()</text>
<text text-anchor="start" x="721.5" y="-110" font-family="Helvetica,sans-Serif" font-size="10.00">+</text>
<text text-anchor="start" x="745" y="-110" font-family="Helvetica,sans-Serif" font-size="10.00">KeyedVector()</text>
<text text-anchor="start" x="721.5" y="-95" font-family="Helvetica,sans-Serif" font-size="10.00">+</text>
<text text-anchor="start" x="745" y="-95" font-family="Helvetica,sans-Serif" font-size="10.00">operator=()</text>
<text text-anchor="start" x="721.5" y="-80" font-family="Helvetica,sans-Serif" font-size="10.00">+</text>
<text text-anchor="start" x="745" y="-80" font-family="Helvetica,sans-Serif" font-size="10.00">operator=()</text>
<text text-anchor="start" x="721.5" y="-65" font-family="Helvetica,sans-Serif" font-size="10.00">+</text>
<text text-anchor="start" x="745" y="-65" font-family="Helvetica,sans-Serif" font-size="10.00">operator=()</text>
<text text-anchor="start" x="721.5" y="-50" font-family="Helvetica,sans-Serif" font-size="10.00">+</text>
<text text-anchor="start" x="745" y="-50" font-family="Helvetica,sans-Serif" font-size="10.00">operator=()</text>
<text text-anchor="start" x="721.5" y="-35" font-family="Helvetica,sans-Serif" font-size="10.00">+</text>
<text text-anchor="start" x="745" y="-35" font-family="Helvetica,sans-Serif" font-size="10.00">transposed()</text>
<text text-anchor="start" x="721.5" y="-20" font-family="Helvetica,sans-Serif" font-size="10.00">+</text>
<text text-anchor="start" x="745" y="-20" font-family="Helvetica,sans-Serif" font-size="10.00">~KeyedVector()</text>
<polygon fill="#666666" stroke="#666666" points="707,-195 707,-195 848,-195 848,-195 707,-195"/>
<polygon fill="#666666" stroke="#666666" points="707,-180 707,-180 848,-180 848,-180 707,-180"/>
<polygon fill="none" stroke="#666666" points="706.5,-13 706.5,-223 847.5,-223 847.5,-13 706.5,-13"/>
</a>
</g>
</g>
<!-- Node1&#45;&gt;Node9 -->
<g id="edge8_Node000001_Node000009" class="edge">
<title>Node1&#45;&gt;Node9</title>
<g id="a_edge8_Node000001_Node000009"><a xlink:title=" ">
<path fill="none" stroke="#63b8ff" d="M513.42,-352.26C569.41,-325.93 642.86,-285.8 697,-236 701.35,-232 705.58,-227.73 709.69,-223.26"/>
<polygon fill="none" stroke="#63b8ff" points="511.83,-349.14 504.23,-356.53 514.78,-355.49 511.83,-349.14"/>
</a>
</g>
</g>
<!-- Node2 -->
<g id="Node000002" class="node">
<title>Node2</title>
<g id="a_Node000002"><a xlink:href="classNAV_1_1internal_1_1KeyedMatrixRows.html" target="_top" xlink:title=" ">
<polygon fill="white" stroke="transparent" points="505.5,-611 356.5,-611 356.5,-540 505.5,-540 505.5,-611"/>
<text text-anchor="start" x="362" y="-598.5" font-family="Helvetica,sans-Serif" font-size="10.00">NAV::internal::KeyedMatrix</text>
<text text-anchor="start" x="362" y="-587.5" font-family="Helvetica,sans-Serif" font-size="10.00">Rows&lt; Scalar, RowKeyType,</text>
<text text-anchor="start" x="405" y="-576.5" font-family="Helvetica,sans-Serif" font-size="10.00"> Rows, 1 &gt;</text>
<text text-anchor="start" x="429.5" y="-561.5" font-family="Helvetica,sans-Serif" font-size="10.00"> </text>
<text text-anchor="start" x="429.5" y="-546.5" font-family="Helvetica,sans-Serif" font-size="10.00"> </text>
<polygon fill="#666666" stroke="#666666" points="357,-571.5 357,-571.5 506,-571.5 506,-571.5 357,-571.5"/>
<polygon fill="#666666" stroke="#666666" points="357,-556.5 357,-556.5 506,-556.5 506,-556.5 357,-556.5"/>
<polygon fill="none" stroke="#666666" points="356.5,-540 356.5,-611 505.5,-611 505.5,-540 356.5,-540"/>
</a>
</g>
</g>
<!-- Node2&#45;&gt;Node1 -->
<g id="edge1_Node000001_Node000002" class="edge">
<title>Node2&#45;&gt;Node1</title>
<g id="a_edge1_Node000001_Node000002"><a xlink:title=" ">
<path fill="none" stroke="#63b8ff" d="M431,-529.59C431,-521.66 431,-513.09 431,-504.23"/>
<polygon fill="none" stroke="#63b8ff" points="427.5,-529.61 431,-539.61 434.5,-529.61 427.5,-529.61"/>
</a>
</g>
</g>
<!-- Node3 -->
<g id="Node000003" class="node">
<title>Node3</title>
<g id="a_Node000003"><a xlink:href="classNAV_1_1internal_1_1KeyedMatrixRowsBase.html" target="_top" xlink:title="Base class for Keyed matrices with multiple rows.">
<polygon fill="white" stroke="transparent" points="517.5,-808 344.5,-808 344.5,-647 517.5,-647 517.5,-808"/>
<text text-anchor="start" x="350" y="-795.5" font-family="Helvetica,sans-Serif" font-size="10.00">NAV::internal::KeyedMatrix</text>
<text text-anchor="start" x="350" y="-784.5" font-family="Helvetica,sans-Serif" font-size="10.00">RowsBase&lt; Scalar, RowKeyType,</text>
<text text-anchor="start" x="397.5" y="-773.5" font-family="Helvetica,sans-Serif" font-size="10.00"> Rows, Cols &gt;</text>
<text text-anchor="start" x="368.5" y="-758.5" font-family="Helvetica,sans-Serif" font-size="10.00">#</text>
<text text-anchor="start" x="401" y="-758.5" font-family="Helvetica,sans-Serif" font-size="10.00">rowIndices</text>
<text text-anchor="start" x="368.5" y="-743.5" font-family="Helvetica,sans-Serif" font-size="10.00">#</text>
<text text-anchor="start" x="401" y="-743.5" font-family="Helvetica,sans-Serif" font-size="10.00">rowKeysVector</text>
<text text-anchor="start" x="368.5" y="-728.5" font-family="Helvetica,sans-Serif" font-size="10.00">#</text>
<text text-anchor="start" x="401" y="-728.5" font-family="Helvetica,sans-Serif" font-size="10.00">rowSlice</text>
<text text-anchor="start" x="368.5" y="-713.5" font-family="Helvetica,sans-Serif" font-size="10.00">+</text>
<text text-anchor="start" x="401" y="-713.5" font-family="Helvetica,sans-Serif" font-size="10.00">hasAnyRows()</text>
<text text-anchor="start" x="368.5" y="-698.5" font-family="Helvetica,sans-Serif" font-size="10.00">+</text>
<text text-anchor="start" x="401" y="-698.5" font-family="Helvetica,sans-Serif" font-size="10.00">hasRow()</text>
<text text-anchor="start" x="368.5" y="-683.5" font-family="Helvetica,sans-Serif" font-size="10.00">+</text>
<text text-anchor="start" x="401" y="-683.5" font-family="Helvetica,sans-Serif" font-size="10.00">hasRows()</text>
<text text-anchor="start" x="368.5" y="-668.5" font-family="Helvetica,sans-Serif" font-size="10.00">+</text>
<text text-anchor="start" x="401" y="-668.5" font-family="Helvetica,sans-Serif" font-size="10.00">rowKeys()</text>
<text text-anchor="start" x="368.5" y="-653.5" font-family="Helvetica,sans-Serif" font-size="10.00">+</text>
<text text-anchor="start" x="401" y="-653.5" font-family="Helvetica,sans-Serif" font-size="10.00">rows()</text>
<polygon fill="#666666" stroke="#666666" points="345,-768.5 345,-768.5 518,-768.5 518,-768.5 345,-768.5"/>
<polygon fill="#666666" stroke="#666666" points="345,-723.5 345,-723.5 399,-723.5 399,-723.5 345,-723.5"/>
<polygon fill="#666666" stroke="#666666" points="399,-723.5 399,-723.5 518,-723.5 518,-723.5 399,-723.5"/>
<polygon fill="none" stroke="#666666" points="344.5,-647 344.5,-808 517.5,-808 517.5,-647 344.5,-647"/>
</a>
</g>
</g>
<!-- Node3&#45;&gt;Node2 -->
<g id="edge2_Node000002_Node000003" class="edge">
<title>Node3&#45;&gt;Node2</title>
<g id="a_edge2_Node000002_Node000003"><a xlink:title=" ">
<path fill="none" stroke="#63b8ff" d="M431,-636.52C431,-627.62 431,-619.01 431,-611.22"/>
<polygon fill="none" stroke="#63b8ff" points="427.5,-636.67 431,-646.67 434.5,-636.67 427.5,-636.67"/>
</a>
</g>
</g>
<!-- Node4 -->
<g id="Node000004" class="node">
<title>Node4</title>
<g id="a_Node000004"><a xlink:href="classNAV_1_1internal_1_1KeyedMatrixStorage.html" target="_top" xlink:title="KeyedMatrix storage class.">
<polygon fill="white" stroke="transparent" points="511,-904 351,-904 351,-844 511,-844 511,-904"/>
<text text-anchor="start" x="356" y="-892" font-family="Helvetica,sans-Serif" font-size="10.00">NAV::internal::KeyedMatrix</text>
<text text-anchor="start" x="356" y="-881" font-family="Helvetica,sans-Serif" font-size="10.00">Storage&lt; Scalar, Rows, Cols &gt;</text>
<text text-anchor="start" x="381.5" y="-866" font-family="Helvetica,sans-Serif" font-size="10.00">#</text>
<text text-anchor="start" x="421" y="-866" font-family="Helvetica,sans-Serif" font-size="10.00">matrix</text>
<text text-anchor="start" x="429" y="-851" font-family="Helvetica,sans-Serif" font-size="10.00"> </text>
<polygon fill="#666666" stroke="#666666" points="351,-876 351,-876 511,-876 511,-876 351,-876"/>
<polygon fill="#666666" stroke="#666666" points="351,-861 351,-861 419,-861 419,-861 351,-861"/>
<polygon fill="#666666" stroke="#666666" points="419,-861 419,-861 511,-861 511,-861 419,-861"/>
<polygon fill="none" stroke="#666666" points="351,-844 351,-904 511,-904 511,-844 351,-844"/>
</a>
</g>
</g>
<!-- Node4&#45;&gt;Node3 -->
<g id="edge3_Node000003_Node000004" class="edge">
<title>Node4&#45;&gt;Node3</title>
<g id="a_edge3_Node000003_Node000004"><a xlink:title=" ">
<path fill="none" stroke="#63b8ff" d="M431,-833.7C431,-825.72 431,-817.05 431,-808.24"/>
<polygon fill="none" stroke="#63b8ff" points="427.5,-833.76 431,-843.76 434.5,-833.76 427.5,-833.76"/>
</a>
</g>
</g>
</g>
</svg>
