<?xml version="1.0" encoding="UTF-8" standalone="no"?>
<!DOCTYPE svg PUBLIC "-//W3C//DTD SVG 1.1//EN"
 "http://www.w3.org/Graphics/SVG/1.1/DTD/svg11.dtd">
<!-- Generated by graphviz version 2.43.0 (0)
 -->
<!-- Title: NAV::Pos Pages: 1 -->
<svg width="428pt" height="907pt"
 viewBox="0.00 0.00 428.00 907.00" xmlns="http://www.w3.org/2000/svg" xmlns:xlink="http://www.w3.org/1999/xlink">
<g id="graph0" class="graph" transform="scale(1 1) rotate(0) translate(4 903)">
<title>NAV::Pos</title>
<!-- Node1 -->
<g id="Node000001" class="node">
<title>Node1</title>
<g id="a_Node000001"><a xlink:title="Position, Velocity and Attitude Storage Class.">
<polygon fill="#999999" stroke="transparent" points="253,-709 153,-709 153,-510 253,-510 253,-709"/>
<text text-anchor="start" x="181.5" y="-696.5" font-family="Helvetica,sans-Serif" font-size="10.00">NAV::Pos</text>
<text text-anchor="start" x="201" y="-681.5" font-family="Helvetica,sans-Serif" font-size="10.00"> </text>
<text text-anchor="start" x="157" y="-666.5" font-family="Helvetica,sans-Serif" font-size="10.00">+</text>
<text text-anchor="start" x="170" y="-666.5" font-family="Helvetica,sans-Serif" font-size="10.00">altitude()</text>
<text text-anchor="start" x="157" y="-651.5" font-family="Helvetica,sans-Serif" font-size="10.00">+</text>
<text text-anchor="start" x="170" y="-651.5" font-family="Helvetica,sans-Serif" font-size="10.00">e_position()</text>
<text text-anchor="start" x="157" y="-636.5" font-family="Helvetica,sans-Serif" font-size="10.00">+</text>
<text text-anchor="start" x="170" y="-636.5" font-family="Helvetica,sans-Serif" font-size="10.00">e_Quat_n()</text>
<text text-anchor="start" x="157" y="-621.5" font-family="Helvetica,sans-Serif" font-size="10.00">+</text>
<text text-anchor="start" x="170" y="-621.5" font-family="Helvetica,sans-Serif" font-size="10.00">latitude()</text>
<text text-anchor="start" x="157" y="-606.5" font-family="Helvetica,sans-Serif" font-size="10.00">+</text>
<text text-anchor="start" x="170" y="-606.5" font-family="Helvetica,sans-Serif" font-size="10.00">lla_position()</text>
<text text-anchor="start" x="157" y="-591.5" font-family="Helvetica,sans-Serif" font-size="10.00">+</text>
<text text-anchor="start" x="170" y="-591.5" font-family="Helvetica,sans-Serif" font-size="10.00">longitude()</text>
<text text-anchor="start" x="157" y="-576.5" font-family="Helvetica,sans-Serif" font-size="10.00">+</text>
<text text-anchor="start" x="170" y="-576.5" font-family="Helvetica,sans-Serif" font-size="10.00">n_Quat_e()</text>
<text text-anchor="start" x="157" y="-561.5" font-family="Helvetica,sans-Serif" font-size="10.00">+</text>
<text text-anchor="start" x="170" y="-561.5" font-family="Helvetica,sans-Serif" font-size="10.00">setPosition_e()</text>
<text text-anchor="start" x="157" y="-546.5" font-family="Helvetica,sans-Serif" font-size="10.00">+</text>
<text text-anchor="start" x="170" y="-546.5" font-family="Helvetica,sans-Serif" font-size="10.00">setPosition_lla()</text>
<text text-anchor="start" x="157" y="-531.5" font-family="Helvetica,sans-Serif" font-size="10.00">+</text>
<text text-anchor="start" x="170" y="-531.5" font-family="Helvetica,sans-Serif" font-size="10.00">parentTypes()</text>
<text text-anchor="start" x="157" y="-516.5" font-family="Helvetica,sans-Serif" font-size="10.00">+</text>
<text text-anchor="start" x="170" y="-516.5" font-family="Helvetica,sans-Serif" font-size="10.00">type()</text>
<polygon fill="#666666" stroke="#666666" points="153,-691.5 153,-691.5 253,-691.5 253,-691.5 153,-691.5"/>
<polygon fill="#666666" stroke="#666666" points="153,-676.5 153,-676.5 253,-676.5 253,-676.5 153,-676.5"/>
<polygon fill="none" stroke="#666666" points="153,-510 153,-709 253,-709 253,-510 153,-510"/>
</a>
</g>
</g>
<!-- Node3 -->
<g id="Node000003" class="node">
<title>Node3</title>
<g id="a_Node000003"><a xlink:href="classNAV_1_1PosVel.html" target="_top" xlink:title="Position, Velocity and Attitude Storage Class.">
<polygon fill="white" stroke="transparent" points="250,-474 156,-474 156,-350 250,-350 250,-474"/>
<text text-anchor="start" x="174" y="-462" font-family="Helvetica,sans-Serif" font-size="10.00">NAV::PosVel</text>
<text text-anchor="start" x="201" y="-447" font-family="Helvetica,sans-Serif" font-size="10.00"> </text>
<text text-anchor="start" x="160" y="-432" font-family="Helvetica,sans-Serif" font-size="10.00">+</text>
<text text-anchor="start" x="173" y="-432" font-family="Helvetica,sans-Serif" font-size="10.00">e_velocity()</text>
<text text-anchor="start" x="160" y="-417" font-family="Helvetica,sans-Serif" font-size="10.00">+</text>
<text text-anchor="start" x="173" y="-417" font-family="Helvetica,sans-Serif" font-size="10.00">n_velocity()</text>
<text text-anchor="start" x="160" y="-402" font-family="Helvetica,sans-Serif" font-size="10.00">+</text>
<text text-anchor="start" x="173" y="-402" font-family="Helvetica,sans-Serif" font-size="10.00">setVelocity_e()</text>
<text text-anchor="start" x="160" y="-387" font-family="Helvetica,sans-Serif" font-size="10.00">+</text>
<text text-anchor="start" x="173" y="-387" font-family="Helvetica,sans-Serif" font-size="10.00">setVelocity_n()</text>
<text text-anchor="start" x="160" y="-372" font-family="Helvetica,sans-Serif" font-size="10.00">+</text>
<text text-anchor="start" x="173" y="-372" font-family="Helvetica,sans-Serif" font-size="10.00">parentTypes()</text>
<text text-anchor="start" x="160" y="-357" font-family="Helvetica,sans-Serif" font-size="10.00">+</text>
<text text-anchor="start" x="173" y="-357" font-family="Helvetica,sans-Serif" font-size="10.00">type()</text>
<polygon fill="#666666" stroke="#666666" points="156,-457 156,-457 250,-457 250,-457 156,-457"/>
<polygon fill="#666666" stroke="#666666" points="156,-442 156,-442 250,-442 250,-442 156,-442"/>
<polygon fill="none" stroke="#666666" points="156,-350 156,-474 250,-474 250,-350 156,-350"/>
</a>
</g>
</g>
<!-- Node1&#45;&gt;Node3 -->
<g id="edge2_Node000001_Node000003" class="edge">
<title>Node1&#45;&gt;Node3</title>
<g id="a_edge2_Node000001_Node000003"><a xlink:title=" ">
<path fill="none" stroke="#63b8ff" d="M203,-499.66C203,-490.98 203,-482.42 203,-474.25"/>
<polygon fill="none" stroke="#63b8ff" points="199.5,-499.89 203,-509.89 206.5,-499.89 199.5,-499.89"/>
</a>
</g>
</g>
<!-- Node2 -->
<g id="Node000002" class="node">
<title>Node2</title>
<g id="a_Node000002"><a xlink:href="classNAV_1_1NodeData.html" target="_top" xlink:title="Parent class for all data transmitted over Flow pins.">
<polygon fill="white" stroke="transparent" points="247,-899 159,-899 159,-745 247,-745 247,-899"/>
<text text-anchor="start" x="165.5" y="-887" font-family="Helvetica,sans-Serif" font-size="10.00">NAV::NodeData</text>
<text text-anchor="start" x="163" y="-872" font-family="Helvetica,sans-Serif" font-size="10.00">+</text>
<text text-anchor="start" x="176" y="-872" font-family="Helvetica,sans-Serif" font-size="10.00">insTime</text>
<text text-anchor="start" x="163" y="-857" font-family="Helvetica,sans-Serif" font-size="10.00">+</text>
<text text-anchor="start" x="176" y="-857" font-family="Helvetica,sans-Serif" font-size="10.00">NodeData()</text>
<text text-anchor="start" x="163" y="-842" font-family="Helvetica,sans-Serif" font-size="10.00">+</text>
<text text-anchor="start" x="176" y="-842" font-family="Helvetica,sans-Serif" font-size="10.00">NodeData()</text>
<text text-anchor="start" x="163" y="-827" font-family="Helvetica,sans-Serif" font-size="10.00">+</text>
<text text-anchor="start" x="176" y="-827" font-family="Helvetica,sans-Serif" font-size="10.00">NodeData()</text>
<text text-anchor="start" x="163" y="-812" font-family="Helvetica,sans-Serif" font-size="10.00">+</text>
<text text-anchor="start" x="176" y="-812" font-family="Helvetica,sans-Serif" font-size="10.00">operator=()</text>
<text text-anchor="start" x="163" y="-797" font-family="Helvetica,sans-Serif" font-size="10.00">+</text>
<text text-anchor="start" x="176" y="-797" font-family="Helvetica,sans-Serif" font-size="10.00">operator=()</text>
<text text-anchor="start" x="163" y="-782" font-family="Helvetica,sans-Serif" font-size="10.00">+</text>
<text text-anchor="start" x="176" y="-782" font-family="Helvetica,sans-Serif" font-size="10.00">~NodeData()</text>
<text text-anchor="start" x="163" y="-767" font-family="Helvetica,sans-Serif" font-size="10.00">+</text>
<text text-anchor="start" x="176" y="-767" font-family="Helvetica,sans-Serif" font-size="10.00">parentTypes()</text>
<text text-anchor="start" x="163" y="-752" font-family="Helvetica,sans-Serif" font-size="10.00">+</text>
<text text-anchor="start" x="176" y="-752" font-family="Helvetica,sans-Serif" font-size="10.00">type()</text>
<polygon fill="#666666" stroke="#666666" points="159,-882 159,-882 247,-882 247,-882 159,-882"/>
<polygon fill="#666666" stroke="#666666" points="159,-867 159,-867 174,-867 174,-867 159,-867"/>
<polygon fill="#666666" stroke="#666666" points="174,-867 174,-867 247,-867 247,-867 174,-867"/>
<polygon fill="none" stroke="#666666" points="159,-745 159,-899 247,-899 247,-745 159,-745"/>
</a>
</g>
</g>
<!-- Node2&#45;&gt;Node1 -->
<g id="edge1_Node000001_Node000002" class="edge">
<title>Node2&#45;&gt;Node1</title>
<g id="a_edge1_Node000001_Node000002"><a xlink:title=" ">
<path fill="none" stroke="#63b8ff" d="M203,-734.6C203,-726.23 203,-717.7 203,-709.22"/>
<polygon fill="none" stroke="#63b8ff" points="199.5,-734.71 203,-744.71 206.5,-734.71 199.5,-734.71"/>
</a>
</g>
</g>
<!-- Node4 -->
<g id="Node000004" class="node">
<title>Node4</title>
<g id="a_Node000004"><a xlink:href="classNAV_1_1PosVelAtt.html" target="_top" xlink:title="Position, Velocity and Attitude Storage Class.">
<polygon fill="white" stroke="transparent" points="134,-306.5 0,-306.5 0,-107.5 134,-107.5 134,-306.5"/>
<text text-anchor="start" x="30.5" y="-294" font-family="Helvetica,sans-Serif" font-size="10.00">NAV::PosVelAtt</text>
<text text-anchor="start" x="65" y="-279" font-family="Helvetica,sans-Serif" font-size="10.00"> </text>
<text text-anchor="start" x="4" y="-264" font-family="Helvetica,sans-Serif" font-size="10.00">+</text>
<text text-anchor="start" x="17" y="-264" font-family="Helvetica,sans-Serif" font-size="10.00">b_Quat_e()</text>
<text text-anchor="start" x="4" y="-249" font-family="Helvetica,sans-Serif" font-size="10.00">+</text>
<text text-anchor="start" x="17" y="-249" font-family="Helvetica,sans-Serif" font-size="10.00">b_Quat_n()</text>
<text text-anchor="start" x="4" y="-234" font-family="Helvetica,sans-Serif" font-size="10.00">+</text>
<text text-anchor="start" x="17" y="-234" font-family="Helvetica,sans-Serif" font-size="10.00">e_Quat_b()</text>
<text text-anchor="start" x="4" y="-219" font-family="Helvetica,sans-Serif" font-size="10.00">+</text>
<text text-anchor="start" x="17" y="-219" font-family="Helvetica,sans-Serif" font-size="10.00">n_Quat_b()</text>
<text text-anchor="start" x="4" y="-204" font-family="Helvetica,sans-Serif" font-size="10.00">+</text>
<text text-anchor="start" x="17" y="-204" font-family="Helvetica,sans-Serif" font-size="10.00">rollPitchYaw()</text>
<text text-anchor="start" x="4" y="-189" font-family="Helvetica,sans-Serif" font-size="10.00">+</text>
<text text-anchor="start" x="17" y="-189" font-family="Helvetica,sans-Serif" font-size="10.00">setAttitude_e_Quat_b()</text>
<text text-anchor="start" x="4" y="-174" font-family="Helvetica,sans-Serif" font-size="10.00">+</text>
<text text-anchor="start" x="17" y="-174" font-family="Helvetica,sans-Serif" font-size="10.00">setAttitude_n_Quat_b()</text>
<text text-anchor="start" x="4" y="-159" font-family="Helvetica,sans-Serif" font-size="10.00">+</text>
<text text-anchor="start" x="17" y="-159" font-family="Helvetica,sans-Serif" font-size="10.00">setState_e()</text>
<text text-anchor="start" x="4" y="-144" font-family="Helvetica,sans-Serif" font-size="10.00">+</text>
<text text-anchor="start" x="17" y="-144" font-family="Helvetica,sans-Serif" font-size="10.00">setState_n()</text>
<text text-anchor="start" x="4" y="-129" font-family="Helvetica,sans-Serif" font-size="10.00">+</text>
<text text-anchor="start" x="17" y="-129" font-family="Helvetica,sans-Serif" font-size="10.00">parentTypes()</text>
<text text-anchor="start" x="4" y="-114" font-family="Helvetica,sans-Serif" font-size="10.00">+</text>
<text text-anchor="start" x="17" y="-114" font-family="Helvetica,sans-Serif" font-size="10.00">type()</text>
<polygon fill="#666666" stroke="#666666" points="0,-289 0,-289 134,-289 134,-289 0,-289"/>
<polygon fill="#666666" stroke="#666666" points="0,-274 0,-274 134,-274 134,-274 0,-274"/>
<polygon fill="none" stroke="#666666" points="0,-107.5 0,-306.5 134,-306.5 134,-107.5 0,-107.5"/>
</a>
</g>
</g>
<!-- Node3&#45;&gt;Node4 -->
<g id="edge3_Node000003_Node000004" class="edge">
<title>Node3&#45;&gt;Node4</title>
<g id="a_edge3_Node000003_Node000004"><a xlink:title=" ">
<path fill="none" stroke="#63b8ff" d="M156.35,-341.36C148.83,-330.14 140.92,-318.34 133.06,-306.6"/>
<polygon fill="none" stroke="#63b8ff" points="153.54,-343.46 162.01,-349.82 159.35,-339.56 153.54,-343.46"/>
</a>
</g>
</g>
<!-- Node6 -->
<g id="Node000006" class="node">
<title>Node6</title>
<g id="a_Node000006"><a xlink:href="classNAV_1_1RtklibPosObs.html" target="_top" xlink:title="RTKLIB Observation Class.">
<polygon fill="white" stroke="transparent" points="253.5,-314 152.5,-314 152.5,-100 253.5,-100 253.5,-314"/>
<text text-anchor="start" x="158" y="-302" font-family="Helvetica,sans-Serif" font-size="10.00">NAV::RtklibPosObs</text>
<text text-anchor="start" x="159" y="-287" font-family="Helvetica,sans-Serif" font-size="10.00">+</text>
<text text-anchor="start" x="174" y="-287" font-family="Helvetica,sans-Serif" font-size="10.00">age</text>
<text text-anchor="start" x="159" y="-272" font-family="Helvetica,sans-Serif" font-size="10.00">+</text>
<text text-anchor="start" x="174" y="-272" font-family="Helvetica,sans-Serif" font-size="10.00">ns</text>
<text text-anchor="start" x="159" y="-257" font-family="Helvetica,sans-Serif" font-size="10.00">+</text>
<text text-anchor="start" x="174" y="-257" font-family="Helvetica,sans-Serif" font-size="10.00">Q</text>
<text text-anchor="start" x="159" y="-242" font-family="Helvetica,sans-Serif" font-size="10.00">+</text>
<text text-anchor="start" x="174" y="-242" font-family="Helvetica,sans-Serif" font-size="10.00">ratio</text>
<text text-anchor="start" x="159" y="-227" font-family="Helvetica,sans-Serif" font-size="10.00">+</text>
<text text-anchor="start" x="174" y="-227" font-family="Helvetica,sans-Serif" font-size="10.00">sddn</text>
<text text-anchor="start" x="159" y="-212" font-family="Helvetica,sans-Serif" font-size="10.00">+</text>
<text text-anchor="start" x="174" y="-212" font-family="Helvetica,sans-Serif" font-size="10.00">sded</text>
<text text-anchor="start" x="159" y="-197" font-family="Helvetica,sans-Serif" font-size="10.00">+</text>
<text text-anchor="start" x="174" y="-197" font-family="Helvetica,sans-Serif" font-size="10.00">sdne</text>
<text text-anchor="start" x="159" y="-182" font-family="Helvetica,sans-Serif" font-size="10.00">+</text>
<text text-anchor="start" x="174" y="-182" font-family="Helvetica,sans-Serif" font-size="10.00">sdNED</text>
<text text-anchor="start" x="159" y="-167" font-family="Helvetica,sans-Serif" font-size="10.00">+</text>
<text text-anchor="start" x="174" y="-167" font-family="Helvetica,sans-Serif" font-size="10.00">sdvdn</text>
<text text-anchor="start" x="159" y="-152" font-family="Helvetica,sans-Serif" font-size="10.00">+</text>
<text text-anchor="start" x="174" y="-152" font-family="Helvetica,sans-Serif" font-size="10.00">sdved</text>
<text text-anchor="start" x="174" y="-137" font-family="Helvetica,sans-Serif" font-size="10.00">and 10 more...</text>
<text text-anchor="start" x="159" y="-122" font-family="Helvetica,sans-Serif" font-size="10.00">+</text>
<text text-anchor="start" x="174" y="-122" font-family="Helvetica,sans-Serif" font-size="10.00">parentTypes()</text>
<text text-anchor="start" x="159" y="-107" font-family="Helvetica,sans-Serif" font-size="10.00">+</text>
<text text-anchor="start" x="174" y="-107" font-family="Helvetica,sans-Serif" font-size="10.00">type()</text>
<polygon fill="#666666" stroke="#666666" points="153,-297 153,-297 254,-297 254,-297 153,-297"/>
<polygon fill="#666666" stroke="#666666" points="153,-132 153,-132 172,-132 172,-132 153,-132"/>
<polygon fill="#666666" stroke="#666666" points="172,-132 172,-132 254,-132 254,-132 172,-132"/>
<polygon fill="none" stroke="#666666" points="152.5,-100 152.5,-314 253.5,-314 253.5,-100 152.5,-100"/>
</a>
</g>
</g>
<!-- Node3&#45;&gt;Node6 -->
<g id="edge5_Node000003_Node000006" class="edge">
<title>Node3&#45;&gt;Node6</title>
<g id="a_edge5_Node000003_Node000006"><a xlink:title=" ">
<path fill="none" stroke="#63b8ff" d="M203,-339.81C203,-331.48 203,-322.84 203,-314.16"/>
<polygon fill="none" stroke="#63b8ff" points="199.5,-339.82 203,-349.82 206.5,-339.82 199.5,-339.82"/>
</a>
</g>
</g>
<!-- Node7 -->
<g id="Node000007" class="node">
<title>Node7</title>
<g id="a_Node000007"><a xlink:href="classNAV_1_1SppSolution.html" target="_top" xlink:title="SPP Algorithm output.">
<polygon fill="white" stroke="transparent" points="420,-299 272,-299 272,-115 420,-115 420,-299"/>
<text text-anchor="start" x="304" y="-287" font-family="Helvetica,sans-Serif" font-size="10.00">NAV::SppSolution</text>
<text text-anchor="start" x="276" y="-272" font-family="Helvetica,sans-Serif" font-size="10.00">+</text>
<text text-anchor="start" x="289" y="-272" font-family="Helvetica,sans-Serif" font-size="10.00">nSatellitesPosition</text>
<text text-anchor="start" x="276" y="-257" font-family="Helvetica,sans-Serif" font-size="10.00">+</text>
<text text-anchor="start" x="289" y="-257" font-family="Helvetica,sans-Serif" font-size="10.00">nSatellitesVelocity</text>
<text text-anchor="start" x="276" y="-242" font-family="Helvetica,sans-Serif" font-size="10.00">+</text>
<text text-anchor="start" x="289" y="-242" font-family="Helvetica,sans-Serif" font-size="10.00">recvClk</text>
<text text-anchor="start" x="276" y="-227" font-family="Helvetica,sans-Serif" font-size="10.00">+</text>
<text text-anchor="start" x="289" y="-227" font-family="Helvetica,sans-Serif" font-size="10.00">e_positionStdev()</text>
<text text-anchor="start" x="276" y="-212" font-family="Helvetica,sans-Serif" font-size="10.00">+</text>
<text text-anchor="start" x="289" y="-212" font-family="Helvetica,sans-Serif" font-size="10.00">e_velocityStdev()</text>
<text text-anchor="start" x="276" y="-197" font-family="Helvetica,sans-Serif" font-size="10.00">+</text>
<text text-anchor="start" x="289" y="-197" font-family="Helvetica,sans-Serif" font-size="10.00">n_positionStdev()</text>
<text text-anchor="start" x="276" y="-182" font-family="Helvetica,sans-Serif" font-size="10.00">+</text>
<text text-anchor="start" x="289" y="-182" font-family="Helvetica,sans-Serif" font-size="10.00">n_velocityStdev()</text>
<text text-anchor="start" x="276" y="-167" font-family="Helvetica,sans-Serif" font-size="10.00">+</text>
<text text-anchor="start" x="289" y="-167" font-family="Helvetica,sans-Serif" font-size="10.00">setPositionAndStdDev_e()</text>
<text text-anchor="start" x="276" y="-152" font-family="Helvetica,sans-Serif" font-size="10.00">+</text>
<text text-anchor="start" x="289" y="-152" font-family="Helvetica,sans-Serif" font-size="10.00">setVelocityAndStdDev_e()</text>
<text text-anchor="start" x="276" y="-137" font-family="Helvetica,sans-Serif" font-size="10.00">+</text>
<text text-anchor="start" x="289" y="-137" font-family="Helvetica,sans-Serif" font-size="10.00">parentTypes()</text>
<text text-anchor="start" x="276" y="-122" font-family="Helvetica,sans-Serif" font-size="10.00">+</text>
<text text-anchor="start" x="289" y="-122" font-family="Helvetica,sans-Serif" font-size="10.00">type()</text>
<polygon fill="#666666" stroke="#666666" points="272,-282 272,-282 420,-282 420,-282 272,-282"/>
<polygon fill="#666666" stroke="#666666" points="272,-237 272,-237 287,-237 287,-237 272,-237"/>
<polygon fill="#666666" stroke="#666666" points="287,-237 287,-237 420,-237 420,-237 287,-237"/>
<polygon fill="none" stroke="#666666" points="272,-115 272,-299 420,-299 420,-115 272,-115"/>
</a>
</g>
</g>
<!-- Node3&#45;&gt;Node7 -->
<g id="edge6_Node000003_Node000007" class="edge">
<title>Node3&#45;&gt;Node7</title>
<g id="a_edge6_Node000003_Node000007"><a xlink:title=" ">
<path fill="none" stroke="#63b8ff" d="M252,-341.44C261.62,-327.79 271.84,-313.28 281.86,-299.05"/>
<polygon fill="none" stroke="#63b8ff" points="249,-339.63 246.1,-349.82 254.72,-343.66 249,-339.63"/>
</a>
</g>
</g>
<!-- Node5 -->
<g id="Node000005" class="node">
<title>Node5</title>
<g id="a_Node000005"><a xlink:href="classNAV_1_1InertialNavSol.html" target="_top" xlink:title="Position, Velocity and Attitude Storage Class.">
<polygon fill="white" stroke="transparent" points="119.5,-64 14.5,-64 14.5,0 119.5,0 119.5,-64"/>
<text text-anchor="start" x="20" y="-52" font-family="Helvetica,sans-Serif" font-size="10.00">NAV::InertialNavSol</text>
<text text-anchor="start" x="23" y="-37" font-family="Helvetica,sans-Serif" font-size="10.00">+</text>
<text text-anchor="start" x="40" y="-37" font-family="Helvetica,sans-Serif" font-size="10.00">imuObs</text>
<text text-anchor="start" x="23" y="-22" font-family="Helvetica,sans-Serif" font-size="10.00">+</text>
<text text-anchor="start" x="40" y="-22" font-family="Helvetica,sans-Serif" font-size="10.00">parentTypes()</text>
<text text-anchor="start" x="23" y="-7" font-family="Helvetica,sans-Serif" font-size="10.00">+</text>
<text text-anchor="start" x="40" y="-7" font-family="Helvetica,sans-Serif" font-size="10.00">type()</text>
<polygon fill="#666666" stroke="#666666" points="15,-47 15,-47 120,-47 120,-47 15,-47"/>
<polygon fill="#666666" stroke="#666666" points="15,-32 15,-32 38,-32 38,-32 15,-32"/>
<polygon fill="#666666" stroke="#666666" points="38,-32 38,-32 120,-32 120,-32 38,-32"/>
<polygon fill="none" stroke="#666666" points="14.5,0 14.5,-64 119.5,-64 119.5,0 14.5,0"/>
</a>
</g>
</g>
<!-- Node4&#45;&gt;Node5 -->
<g id="edge4_Node000004_Node000005" class="edge">
<title>Node4&#45;&gt;Node5</title>
<g id="a_edge4_Node000004_Node000005"><a xlink:title=" ">
<path fill="none" stroke="#63b8ff" d="M67,-97.21C67,-85.26 67,-73.92 67,-64.19"/>
<polygon fill="none" stroke="#63b8ff" points="63.5,-97.37 67,-107.37 70.5,-97.37 63.5,-97.37"/>
</a>
</g>
</g>
</g>
</svg>
