<?xml version="1.0" encoding="UTF-8" standalone="no"?>
<!DOCTYPE svg PUBLIC "-//W3C//DTD SVG 1.1//EN"
 "http://www.w3.org/Graphics/SVG/1.1/DTD/svg11.dtd">
<!-- Generated by graphviz version 2.43.0 (0)
 -->
<!-- Title: NAV::PosVel Pages: 1 -->
<svg width="447pt" height="816pt"
 viewBox="0.00 0.00 446.50 816.00" xmlns="http://www.w3.org/2000/svg" xmlns:xlink="http://www.w3.org/1999/xlink">
<g id="graph0" class="graph" transform="scale(1 1) rotate(0) translate(4 812)">
<title>NAV::PosVel</title>
<!-- Node1 -->
<g id="node1" class="node">
<title>Node1</title>
<g id="a_node1"><a xlink:title="Position, Velocity and Attitude Storage Class.">
<polygon fill="#999999" stroke="#666666" points="161.5,-320.5 161.5,-432.5 262.5,-432.5 262.5,-320.5 161.5,-320.5"/>
<text text-anchor="middle" x="212" y="-420.5" font-family="Helvetica,sans-Serif" font-size="10.00">NAV::PosVel</text>
<polyline fill="none" stroke="#666666" points="161.5,-413.5 262.5,-413.5 "/>
<text text-anchor="middle" x="212" y="-401.5" font-family="Helvetica,sans-Serif" font-size="10.00"> </text>
<polyline fill="none" stroke="#666666" points="161.5,-394.5 262.5,-394.5 "/>
<text text-anchor="start" x="169.5" y="-382.5" font-family="Helvetica,sans-Serif" font-size="10.00">+ e_velocity()</text>
<text text-anchor="start" x="169.5" y="-371.5" font-family="Helvetica,sans-Serif" font-size="10.00">+ n_velocity()</text>
<text text-anchor="start" x="169.5" y="-360.5" font-family="Helvetica,sans-Serif" font-size="10.00">+ setVelocity_e()</text>
<text text-anchor="start" x="169.5" y="-349.5" font-family="Helvetica,sans-Serif" font-size="10.00">+ setVelocity_n()</text>
<text text-anchor="start" x="169.5" y="-338.5" font-family="Helvetica,sans-Serif" font-size="10.00">+ parentTypes()</text>
<text text-anchor="start" x="169.5" y="-327.5" font-family="Helvetica,sans-Serif" font-size="10.00">+ type()</text>
</a>
</g>
</g>
<!-- Node4 -->
<g id="node4" class="node">
<title>Node4</title>
<g id="a_node4"><a xlink:href="classNAV_1_1PosVelAtt.html" target="_top" xlink:title="Position, Velocity and Attitude Storage Class.">
<polygon fill="white" stroke="#666666" points="0,-111 0,-278 140,-278 140,-111 0,-111"/>
<text text-anchor="middle" x="70" y="-266" font-family="Helvetica,sans-Serif" font-size="10.00">NAV::PosVelAtt</text>
<polyline fill="none" stroke="#666666" points="0,-259 140,-259 "/>
<text text-anchor="middle" x="70" y="-247" font-family="Helvetica,sans-Serif" font-size="10.00"> </text>
<polyline fill="none" stroke="#666666" points="0,-240 140,-240 "/>
<text text-anchor="start" x="8" y="-228" font-family="Helvetica,sans-Serif" font-size="10.00">+ b_Quat_e()</text>
<text text-anchor="start" x="8" y="-217" font-family="Helvetica,sans-Serif" font-size="10.00">+ b_Quat_n()</text>
<text text-anchor="start" x="8" y="-206" font-family="Helvetica,sans-Serif" font-size="10.00">+ e_Quat_b()</text>
<text text-anchor="start" x="8" y="-195" font-family="Helvetica,sans-Serif" font-size="10.00">+ n_Quat_b()</text>
<text text-anchor="start" x="8" y="-184" font-family="Helvetica,sans-Serif" font-size="10.00">+ rollPitchYaw()</text>
<text text-anchor="start" x="8" y="-173" font-family="Helvetica,sans-Serif" font-size="10.00">+ setAttitude_e_Quat_b()</text>
<text text-anchor="start" x="8" y="-162" font-family="Helvetica,sans-Serif" font-size="10.00">+ setAttitude_n_Quat_b()</text>
<text text-anchor="start" x="8" y="-151" font-family="Helvetica,sans-Serif" font-size="10.00">+ setState_e()</text>
<text text-anchor="start" x="8" y="-140" font-family="Helvetica,sans-Serif" font-size="10.00">+ setState_n()</text>
<text text-anchor="start" x="8" y="-129" font-family="Helvetica,sans-Serif" font-size="10.00">+ parentTypes()</text>
<text text-anchor="start" x="8" y="-118" font-family="Helvetica,sans-Serif" font-size="10.00">+ type()</text>
</a>
</g>
</g>
<!-- Node1&#45;&gt;Node4 -->
<g id="edge3" class="edge">
<title>Node1&#45;&gt;Node4</title>
<path fill="none" stroke="#63b8ff" d="M162.03,-312.15C153.38,-301.19 144.27,-289.65 135.29,-278.26"/>
<polygon fill="none" stroke="#63b8ff" points="159.3,-314.34 168.24,-320.03 164.79,-310.01 159.3,-314.34"/>
</g>
<!-- Node6 -->
<g id="node6" class="node">
<title>Node6</title>
<g id="a_node6"><a xlink:href="classNAV_1_1RtklibPosObs.html" target="_top" xlink:title="RTKLIB Observation Class.">
<polygon fill="white" stroke="#666666" points="158.5,-105.5 158.5,-283.5 265.5,-283.5 265.5,-105.5 158.5,-105.5"/>
<text text-anchor="middle" x="212" y="-271.5" font-family="Helvetica,sans-Serif" font-size="10.00">NAV::RtklibPosObs</text>
<polyline fill="none" stroke="#666666" points="158.5,-264.5 265.5,-264.5 "/>
<text text-anchor="start" x="166.5" y="-252.5" font-family="Helvetica,sans-Serif" font-size="10.00">+ age</text>
<text text-anchor="start" x="166.5" y="-241.5" font-family="Helvetica,sans-Serif" font-size="10.00">+ ns</text>
<text text-anchor="start" x="166.5" y="-230.5" font-family="Helvetica,sans-Serif" font-size="10.00">+ Q</text>
<text text-anchor="start" x="166.5" y="-219.5" font-family="Helvetica,sans-Serif" font-size="10.00">+ ratio</text>
<text text-anchor="start" x="166.5" y="-208.5" font-family="Helvetica,sans-Serif" font-size="10.00">+ sddn</text>
<text text-anchor="start" x="166.5" y="-197.5" font-family="Helvetica,sans-Serif" font-size="10.00">+ sded</text>
<text text-anchor="start" x="166.5" y="-186.5" font-family="Helvetica,sans-Serif" font-size="10.00">+ sdne</text>
<text text-anchor="start" x="166.5" y="-175.5" font-family="Helvetica,sans-Serif" font-size="10.00">+ sdNED</text>
<text text-anchor="start" x="166.5" y="-164.5" font-family="Helvetica,sans-Serif" font-size="10.00">+ sdvdn</text>
<text text-anchor="start" x="166.5" y="-153.5" font-family="Helvetica,sans-Serif" font-size="10.00">+ sdved</text>
<text text-anchor="start" x="166.5" y="-142.5" font-family="Helvetica,sans-Serif" font-size="10.00">and 6 more...</text>
<polyline fill="none" stroke="#666666" points="158.5,-135.5 265.5,-135.5 "/>
<text text-anchor="start" x="166.5" y="-123.5" font-family="Helvetica,sans-Serif" font-size="10.00">+ parentTypes()</text>
<text text-anchor="start" x="166.5" y="-112.5" font-family="Helvetica,sans-Serif" font-size="10.00">+ type()</text>
</a>
</g>
</g>
<!-- Node1&#45;&gt;Node6 -->
<g id="edge5" class="edge">
<title>Node1&#45;&gt;Node6</title>
<path fill="none" stroke="#63b8ff" d="M212,-309.79C212,-301.25 212,-292.4 212,-283.57"/>
<polygon fill="none" stroke="#63b8ff" points="208.5,-310.03 212,-320.03 215.5,-310.03 208.5,-310.03"/>
</g>
<!-- Node7 -->
<g id="node7" class="node">
<title>Node7</title>
<g id="a_node7"><a xlink:href="classNAV_1_1SppSolution.html" target="_top" xlink:title="SPP Algorithm output.">
<polygon fill="white" stroke="#666666" points="283.5,-116.5 283.5,-272.5 438.5,-272.5 438.5,-116.5 283.5,-116.5"/>
<text text-anchor="middle" x="361" y="-260.5" font-family="Helvetica,sans-Serif" font-size="10.00">NAV::SppSolution</text>
<polyline fill="none" stroke="#666666" points="283.5,-253.5 438.5,-253.5 "/>
<text text-anchor="start" x="291.5" y="-241.5" font-family="Helvetica,sans-Serif" font-size="10.00">+ nSatellitesPosition</text>
<text text-anchor="start" x="291.5" y="-230.5" font-family="Helvetica,sans-Serif" font-size="10.00">+ nSatellitesVelocity</text>
<text text-anchor="start" x="291.5" y="-219.5" font-family="Helvetica,sans-Serif" font-size="10.00">+ recvClk</text>
<polyline fill="none" stroke="#666666" points="283.5,-212.5 438.5,-212.5 "/>
<text text-anchor="start" x="291.5" y="-200.5" font-family="Helvetica,sans-Serif" font-size="10.00">+ e_positionStdev()</text>
<text text-anchor="start" x="291.5" y="-189.5" font-family="Helvetica,sans-Serif" font-size="10.00">+ e_velocityStdev()</text>
<text text-anchor="start" x="291.5" y="-178.5" font-family="Helvetica,sans-Serif" font-size="10.00">+ n_positionStdev()</text>
<text text-anchor="start" x="291.5" y="-167.5" font-family="Helvetica,sans-Serif" font-size="10.00">+ n_velocityStdev()</text>
<text text-anchor="start" x="291.5" y="-156.5" font-family="Helvetica,sans-Serif" font-size="10.00">+ setPositionAndStdDev_e()</text>
<text text-anchor="start" x="291.5" y="-145.5" font-family="Helvetica,sans-Serif" font-size="10.00">+ setVelocityAndStdDev_e()</text>
<text text-anchor="start" x="291.5" y="-134.5" font-family="Helvetica,sans-Serif" font-size="10.00">+ parentTypes()</text>
<text text-anchor="start" x="291.5" y="-123.5" font-family="Helvetica,sans-Serif" font-size="10.00">+ type()</text>
</a>
</g>
</g>
<!-- Node1&#45;&gt;Node7 -->
<g id="edge6" class="edge">
<title>Node1&#45;&gt;Node7</title>
<path fill="none" stroke="#63b8ff" d="M264.42,-312.18C275,-299.4 286.23,-285.83 297.15,-272.63"/>
<polygon fill="none" stroke="#63b8ff" points="261.6,-310.09 257.92,-320.03 266.99,-314.55 261.6,-310.09"/>
</g>
<!-- Node2 -->
<g id="node2" class="node">
<title>Node2</title>
<g id="a_node2"><a xlink:href="classNAV_1_1Pos.html" target="_top" xlink:title="Position, Velocity and Attitude Storage Class.">
<polygon fill="white" stroke="#666666" points="158.5,-469.5 158.5,-636.5 265.5,-636.5 265.5,-469.5 158.5,-469.5"/>
<text text-anchor="middle" x="212" y="-624.5" font-family="Helvetica,sans-Serif" font-size="10.00">NAV::Pos</text>
<polyline fill="none" stroke="#666666" points="158.5,-617.5 265.5,-617.5 "/>
<text text-anchor="middle" x="212" y="-605.5" font-family="Helvetica,sans-Serif" font-size="10.00"> </text>
<polyline fill="none" stroke="#666666" points="158.5,-598.5 265.5,-598.5 "/>
<text text-anchor="start" x="166.5" y="-586.5" font-family="Helvetica,sans-Serif" font-size="10.00">+ altitude()</text>
<text text-anchor="start" x="166.5" y="-575.5" font-family="Helvetica,sans-Serif" font-size="10.00">+ e_position()</text>
<text text-anchor="start" x="166.5" y="-564.5" font-family="Helvetica,sans-Serif" font-size="10.00">+ e_Quat_n()</text>
<text text-anchor="start" x="166.5" y="-553.5" font-family="Helvetica,sans-Serif" font-size="10.00">+ latitude()</text>
<text text-anchor="start" x="166.5" y="-542.5" font-family="Helvetica,sans-Serif" font-size="10.00">+ lla_position()</text>
<text text-anchor="start" x="166.5" y="-531.5" font-family="Helvetica,sans-Serif" font-size="10.00">+ longitude()</text>
<text text-anchor="start" x="166.5" y="-520.5" font-family="Helvetica,sans-Serif" font-size="10.00">+ n_Quat_e()</text>
<text text-anchor="start" x="166.5" y="-509.5" font-family="Helvetica,sans-Serif" font-size="10.00">+ setPosition_e()</text>
<text text-anchor="start" x="166.5" y="-498.5" font-family="Helvetica,sans-Serif" font-size="10.00">+ setPosition_lla()</text>
<text text-anchor="start" x="166.5" y="-487.5" font-family="Helvetica,sans-Serif" font-size="10.00">+ parentTypes()</text>
<text text-anchor="start" x="166.5" y="-476.5" font-family="Helvetica,sans-Serif" font-size="10.00">+ type()</text>
</a>
</g>
</g>
<!-- Node2&#45;&gt;Node1 -->
<g id="edge1" class="edge">
<title>Node2&#45;&gt;Node1</title>
<path fill="none" stroke="#63b8ff" d="M212,-459.23C212,-450.27 212,-441.39 212,-432.97"/>
<polygon fill="none" stroke="#63b8ff" points="208.5,-459.35 212,-469.35 215.5,-459.35 208.5,-459.35"/>
</g>
<!-- Node3 -->
<g id="node3" class="node">
<title>Node3</title>
<g id="a_node3"><a xlink:href="classNAV_1_1NodeData.html" target="_top" xlink:title="Parent class for all data transmitted over Flow pins.">
<polygon fill="white" stroke="#666666" points="164.5,-673.5 164.5,-807.5 259.5,-807.5 259.5,-673.5 164.5,-673.5"/>
<text text-anchor="middle" x="212" y="-795.5" font-family="Helvetica,sans-Serif" font-size="10.00">NAV::NodeData</text>
<polyline fill="none" stroke="#666666" points="164.5,-788.5 259.5,-788.5 "/>
<text text-anchor="start" x="172.5" y="-776.5" font-family="Helvetica,sans-Serif" font-size="10.00">+ insTime</text>
<polyline fill="none" stroke="#666666" points="164.5,-769.5 259.5,-769.5 "/>
<text text-anchor="start" x="172.5" y="-757.5" font-family="Helvetica,sans-Serif" font-size="10.00">+ NodeData()</text>
<text text-anchor="start" x="172.5" y="-746.5" font-family="Helvetica,sans-Serif" font-size="10.00">+ NodeData()</text>
<text text-anchor="start" x="172.5" y="-735.5" font-family="Helvetica,sans-Serif" font-size="10.00">+ NodeData()</text>
<text text-anchor="start" x="172.5" y="-724.5" font-family="Helvetica,sans-Serif" font-size="10.00">+ operator=()</text>
<text text-anchor="start" x="172.5" y="-713.5" font-family="Helvetica,sans-Serif" font-size="10.00">+ operator=()</text>
<text text-anchor="start" x="172.5" y="-702.5" font-family="Helvetica,sans-Serif" font-size="10.00">+ ~NodeData()</text>
<text text-anchor="start" x="172.5" y="-691.5" font-family="Helvetica,sans-Serif" font-size="10.00">+ parentTypes()</text>
<text text-anchor="start" x="172.5" y="-680.5" font-family="Helvetica,sans-Serif" font-size="10.00">+ type()</text>
</a>
</g>
</g>
<!-- Node3&#45;&gt;Node2 -->
<g id="edge2" class="edge">
<title>Node3&#45;&gt;Node2</title>
<path fill="none" stroke="#63b8ff" d="M212,-663.18C212,-654.44 212,-645.51 212,-636.7"/>
<polygon fill="none" stroke="#63b8ff" points="208.5,-663.32 212,-673.32 215.5,-663.32 208.5,-663.32"/>
</g>
<!-- Node5 -->
<g id="node5" class="node">
<title>Node5</title>
<g id="a_node5"><a xlink:href="classNAV_1_1InertialNavSol.html" target="_top" xlink:title="Position, Velocity and Attitude Storage Class.">
<polygon fill="white" stroke="#666666" points="14.5,-0.5 14.5,-68.5 125.5,-68.5 125.5,-0.5 14.5,-0.5"/>
<text text-anchor="middle" x="70" y="-56.5" font-family="Helvetica,sans-Serif" font-size="10.00">NAV::InertialNavSol</text>
<polyline fill="none" stroke="#666666" points="14.5,-49.5 125.5,-49.5 "/>
<text text-anchor="start" x="22.5" y="-37.5" font-family="Helvetica,sans-Serif" font-size="10.00">+ imuObs</text>
<polyline fill="none" stroke="#666666" points="14.5,-30.5 125.5,-30.5 "/>
<text text-anchor="start" x="22.5" y="-18.5" font-family="Helvetica,sans-Serif" font-size="10.00">+ parentTypes()</text>
<text text-anchor="start" x="22.5" y="-7.5" font-family="Helvetica,sans-Serif" font-size="10.00">+ type()</text>
</a>
</g>
</g>
<!-- Node4&#45;&gt;Node5 -->
<g id="edge4" class="edge">
<title>Node4&#45;&gt;Node5</title>
<path fill="none" stroke="#63b8ff" d="M70,-100.7C70,-89.3 70,-78.29 70,-68.67"/>
<polygon fill="none" stroke="#63b8ff" points="66.5,-100.8 70,-110.8 73.5,-100.8 66.5,-100.8"/>
</g>
</g>
</svg>
