<?xml version="1.0" encoding="UTF-8" standalone="no"?>
<!DOCTYPE svg PUBLIC "-//W3C//DTD SVG 1.1//EN"
 "http://www.w3.org/Graphics/SVG/1.1/DTD/svg11.dtd">
<!-- Generated by graphviz version 2.43.0 (0)
 -->
<!-- Title: NAV::SppSolution Pages: 1 -->
<svg width="156pt" height="777pt"
 viewBox="0.00 0.00 156.00 777.00" xmlns="http://www.w3.org/2000/svg" xmlns:xlink="http://www.w3.org/1999/xlink">
<g id="graph0" class="graph" transform="scale(1 1) rotate(0) translate(4 773)">
<title>NAV::SppSolution</title>
<!-- Node1 -->
<g id="Node000001" class="node">
<title>Node1</title>
<g id="a_Node000001"><a xlink:title="SPP Algorithm output.">
<polygon fill="#999999" stroke="transparent" points="148,-184 0,-184 0,0 148,0 148,-184"/>
<text text-anchor="start" x="32" y="-172" font-family="Helvetica,sans-Serif" font-size="10.00">NAV::SppSolution</text>
<text text-anchor="start" x="4" y="-157" font-family="Helvetica,sans-Serif" font-size="10.00">+</text>
<text text-anchor="start" x="17" y="-157" font-family="Helvetica,sans-Serif" font-size="10.00">nSatellitesPosition</text>
<text text-anchor="start" x="4" y="-142" font-family="Helvetica,sans-Serif" font-size="10.00">+</text>
<text text-anchor="start" x="17" y="-142" font-family="Helvetica,sans-Serif" font-size="10.00">nSatellitesVelocity</text>
<text text-anchor="start" x="4" y="-127" font-family="Helvetica,sans-Serif" font-size="10.00">+</text>
<text text-anchor="start" x="17" y="-127" font-family="Helvetica,sans-Serif" font-size="10.00">recvClk</text>
<text text-anchor="start" x="4" y="-112" font-family="Helvetica,sans-Serif" font-size="10.00">+</text>
<text text-anchor="start" x="17" y="-112" font-family="Helvetica,sans-Serif" font-size="10.00">e_positionStdev()</text>
<text text-anchor="start" x="4" y="-97" font-family="Helvetica,sans-Serif" font-size="10.00">+</text>
<text text-anchor="start" x="17" y="-97" font-family="Helvetica,sans-Serif" font-size="10.00">e_velocityStdev()</text>
<text text-anchor="start" x="4" y="-82" font-family="Helvetica,sans-Serif" font-size="10.00">+</text>
<text text-anchor="start" x="17" y="-82" font-family="Helvetica,sans-Serif" font-size="10.00">n_positionStdev()</text>
<text text-anchor="start" x="4" y="-67" font-family="Helvetica,sans-Serif" font-size="10.00">+</text>
<text text-anchor="start" x="17" y="-67" font-family="Helvetica,sans-Serif" font-size="10.00">n_velocityStdev()</text>
<text text-anchor="start" x="4" y="-52" font-family="Helvetica,sans-Serif" font-size="10.00">+</text>
<text text-anchor="start" x="17" y="-52" font-family="Helvetica,sans-Serif" font-size="10.00">setPositionAndStdDev_e()</text>
<text text-anchor="start" x="4" y="-37" font-family="Helvetica,sans-Serif" font-size="10.00">+</text>
<text text-anchor="start" x="17" y="-37" font-family="Helvetica,sans-Serif" font-size="10.00">setVelocityAndStdDev_e()</text>
<text text-anchor="start" x="4" y="-22" font-family="Helvetica,sans-Serif" font-size="10.00">+</text>
<text text-anchor="start" x="17" y="-22" font-family="Helvetica,sans-Serif" font-size="10.00">parentTypes()</text>
<text text-anchor="start" x="4" y="-7" font-family="Helvetica,sans-Serif" font-size="10.00">+</text>
<text text-anchor="start" x="17" y="-7" font-family="Helvetica,sans-Serif" font-size="10.00">type()</text>
<polygon fill="#666666" stroke="#666666" points="0,-167 0,-167 148,-167 148,-167 0,-167"/>
<polygon fill="#666666" stroke="#666666" points="0,-122 0,-122 15,-122 15,-122 0,-122"/>
<polygon fill="#666666" stroke="#666666" points="15,-122 15,-122 148,-122 148,-122 15,-122"/>
<polygon fill="none" stroke="#666666" points="0,0 0,-184 148,-184 148,0 0,0"/>
</a>
</g>
</g>
<!-- Node2 -->
<g id="Node000002" class="node">
<title>Node2</title>
<g id="a_Node000002"><a xlink:href="classNAV_1_1PosVel.html" target="_top" xlink:title="Position, Velocity and Attitude Storage Class.">
<polygon fill="white" stroke="transparent" points="121,-344 27,-344 27,-220 121,-220 121,-344"/>
<text text-anchor="start" x="45" y="-332" font-family="Helvetica,sans-Serif" font-size="10.00">NAV::PosVel</text>
<text text-anchor="start" x="72" y="-317" font-family="Helvetica,sans-Serif" font-size="10.00"> </text>
<text text-anchor="start" x="31" y="-302" font-family="Helvetica,sans-Serif" font-size="10.00">+</text>
<text text-anchor="start" x="44" y="-302" font-family="Helvetica,sans-Serif" font-size="10.00">e_velocity()</text>
<text text-anchor="start" x="31" y="-287" font-family="Helvetica,sans-Serif" font-size="10.00">+</text>
<text text-anchor="start" x="44" y="-287" font-family="Helvetica,sans-Serif" font-size="10.00">n_velocity()</text>
<text text-anchor="start" x="31" y="-272" font-family="Helvetica,sans-Serif" font-size="10.00">+</text>
<text text-anchor="start" x="44" y="-272" font-family="Helvetica,sans-Serif" font-size="10.00">setVelocity_e()</text>
<text text-anchor="start" x="31" y="-257" font-family="Helvetica,sans-Serif" font-size="10.00">+</text>
<text text-anchor="start" x="44" y="-257" font-family="Helvetica,sans-Serif" font-size="10.00">setVelocity_n()</text>
<text text-anchor="start" x="31" y="-242" font-family="Helvetica,sans-Serif" font-size="10.00">+</text>
<text text-anchor="start" x="44" y="-242" font-family="Helvetica,sans-Serif" font-size="10.00">parentTypes()</text>
<text text-anchor="start" x="31" y="-227" font-family="Helvetica,sans-Serif" font-size="10.00">+</text>
<text text-anchor="start" x="44" y="-227" font-family="Helvetica,sans-Serif" font-size="10.00">type()</text>
<polygon fill="#666666" stroke="#666666" points="27,-327 27,-327 121,-327 121,-327 27,-327"/>
<polygon fill="#666666" stroke="#666666" points="27,-312 27,-312 121,-312 121,-312 27,-312"/>
<polygon fill="none" stroke="#666666" points="27,-220 27,-344 121,-344 121,-220 27,-220"/>
</a>
</g>
</g>
<!-- Node2&#45;&gt;Node1 -->
<g id="edge1_Node000001_Node000002" class="edge">
<title>Node2&#45;&gt;Node1</title>
<g id="a_edge1_Node000001_Node000002"><a xlink:title=" ">
<path fill="none" stroke="#63b8ff" d="M74,-209.84C74,-201.43 74,-192.75 74,-184.11"/>
<polygon fill="none" stroke="#63b8ff" points="70.5,-209.96 74,-219.96 77.5,-209.96 70.5,-209.96"/>
</a>
</g>
</g>
<!-- Node3 -->
<g id="Node000003" class="node">
<title>Node3</title>
<g id="a_Node000003"><a xlink:href="classNAV_1_1Pos.html" target="_top" xlink:title="Position, Velocity and Attitude Storage Class.">
<polygon fill="white" stroke="transparent" points="124,-579 24,-579 24,-380 124,-380 124,-579"/>
<text text-anchor="start" x="52.5" y="-566.5" font-family="Helvetica,sans-Serif" font-size="10.00">NAV::Pos</text>
<text text-anchor="start" x="72" y="-551.5" font-family="Helvetica,sans-Serif" font-size="10.00"> </text>
<text text-anchor="start" x="28" y="-536.5" font-family="Helvetica,sans-Serif" font-size="10.00">+</text>
<text text-anchor="start" x="41" y="-536.5" font-family="Helvetica,sans-Serif" font-size="10.00">altitude()</text>
<text text-anchor="start" x="28" y="-521.5" font-family="Helvetica,sans-Serif" font-size="10.00">+</text>
<text text-anchor="start" x="41" y="-521.5" font-family="Helvetica,sans-Serif" font-size="10.00">e_position()</text>
<text text-anchor="start" x="28" y="-506.5" font-family="Helvetica,sans-Serif" font-size="10.00">+</text>
<text text-anchor="start" x="41" y="-506.5" font-family="Helvetica,sans-Serif" font-size="10.00">e_Quat_n()</text>
<text text-anchor="start" x="28" y="-491.5" font-family="Helvetica,sans-Serif" font-size="10.00">+</text>
<text text-anchor="start" x="41" y="-491.5" font-family="Helvetica,sans-Serif" font-size="10.00">latitude()</text>
<text text-anchor="start" x="28" y="-476.5" font-family="Helvetica,sans-Serif" font-size="10.00">+</text>
<text text-anchor="start" x="41" y="-476.5" font-family="Helvetica,sans-Serif" font-size="10.00">lla_position()</text>
<text text-anchor="start" x="28" y="-461.5" font-family="Helvetica,sans-Serif" font-size="10.00">+</text>
<text text-anchor="start" x="41" y="-461.5" font-family="Helvetica,sans-Serif" font-size="10.00">longitude()</text>
<text text-anchor="start" x="28" y="-446.5" font-family="Helvetica,sans-Serif" font-size="10.00">+</text>
<text text-anchor="start" x="41" y="-446.5" font-family="Helvetica,sans-Serif" font-size="10.00">n_Quat_e()</text>
<text text-anchor="start" x="28" y="-431.5" font-family="Helvetica,sans-Serif" font-size="10.00">+</text>
<text text-anchor="start" x="41" y="-431.5" font-family="Helvetica,sans-Serif" font-size="10.00">setPosition_e()</text>
<text text-anchor="start" x="28" y="-416.5" font-family="Helvetica,sans-Serif" font-size="10.00">+</text>
<text text-anchor="start" x="41" y="-416.5" font-family="Helvetica,sans-Serif" font-size="10.00">setPosition_lla()</text>
<text text-anchor="start" x="28" y="-401.5" font-family="Helvetica,sans-Serif" font-size="10.00">+</text>
<text text-anchor="start" x="41" y="-401.5" font-family="Helvetica,sans-Serif" font-size="10.00">parentTypes()</text>
<text text-anchor="start" x="28" y="-386.5" font-family="Helvetica,sans-Serif" font-size="10.00">+</text>
<text text-anchor="start" x="41" y="-386.5" font-family="Helvetica,sans-Serif" font-size="10.00">type()</text>
<polygon fill="#666666" stroke="#666666" points="24,-561.5 24,-561.5 124,-561.5 124,-561.5 24,-561.5"/>
<polygon fill="#666666" stroke="#666666" points="24,-546.5 24,-546.5 124,-546.5 124,-546.5 24,-546.5"/>
<polygon fill="none" stroke="#666666" points="24,-380 24,-579 124,-579 124,-380 24,-380"/>
</a>
</g>
</g>
<!-- Node3&#45;&gt;Node2 -->
<g id="edge2_Node000002_Node000003" class="edge">
<title>Node3&#45;&gt;Node2</title>
<g id="a_edge2_Node000002_Node000003"><a xlink:title=" ">
<path fill="none" stroke="#63b8ff" d="M74,-369.66C74,-360.98 74,-352.42 74,-344.25"/>
<polygon fill="none" stroke="#63b8ff" points="70.5,-369.89 74,-379.89 77.5,-369.89 70.5,-369.89"/>
</a>
</g>
</g>
<!-- Node4 -->
<g id="Node000004" class="node">
<title>Node4</title>
<g id="a_Node000004"><a xlink:href="classNAV_1_1NodeData.html" target="_top" xlink:title="Parent class for all data transmitted over Flow pins.">
<polygon fill="white" stroke="transparent" points="118,-769 30,-769 30,-615 118,-615 118,-769"/>
<text text-anchor="start" x="36.5" y="-757" font-family="Helvetica,sans-Serif" font-size="10.00">NAV::NodeData</text>
<text text-anchor="start" x="34" y="-742" font-family="Helvetica,sans-Serif" font-size="10.00">+</text>
<text text-anchor="start" x="47" y="-742" font-family="Helvetica,sans-Serif" font-size="10.00">insTime</text>
<text text-anchor="start" x="34" y="-727" font-family="Helvetica,sans-Serif" font-size="10.00">+</text>
<text text-anchor="start" x="47" y="-727" font-family="Helvetica,sans-Serif" font-size="10.00">NodeData()</text>
<text text-anchor="start" x="34" y="-712" font-family="Helvetica,sans-Serif" font-size="10.00">+</text>
<text text-anchor="start" x="47" y="-712" font-family="Helvetica,sans-Serif" font-size="10.00">NodeData()</text>
<text text-anchor="start" x="34" y="-697" font-family="Helvetica,sans-Serif" font-size="10.00">+</text>
<text text-anchor="start" x="47" y="-697" font-family="Helvetica,sans-Serif" font-size="10.00">NodeData()</text>
<text text-anchor="start" x="34" y="-682" font-family="Helvetica,sans-Serif" font-size="10.00">+</text>
<text text-anchor="start" x="47" y="-682" font-family="Helvetica,sans-Serif" font-size="10.00">operator=()</text>
<text text-anchor="start" x="34" y="-667" font-family="Helvetica,sans-Serif" font-size="10.00">+</text>
<text text-anchor="start" x="47" y="-667" font-family="Helvetica,sans-Serif" font-size="10.00">operator=()</text>
<text text-anchor="start" x="34" y="-652" font-family="Helvetica,sans-Serif" font-size="10.00">+</text>
<text text-anchor="start" x="47" y="-652" font-family="Helvetica,sans-Serif" font-size="10.00">~NodeData()</text>
<text text-anchor="start" x="34" y="-637" font-family="Helvetica,sans-Serif" font-size="10.00">+</text>
<text text-anchor="start" x="47" y="-637" font-family="Helvetica,sans-Serif" font-size="10.00">parentTypes()</text>
<text text-anchor="start" x="34" y="-622" font-family="Helvetica,sans-Serif" font-size="10.00">+</text>
<text text-anchor="start" x="47" y="-622" font-family="Helvetica,sans-Serif" font-size="10.00">type()</text>
<polygon fill="#666666" stroke="#666666" points="30,-752 30,-752 118,-752 118,-752 30,-752"/>
<polygon fill="#666666" stroke="#666666" points="30,-737 30,-737 45,-737 45,-737 30,-737"/>
<polygon fill="#666666" stroke="#666666" points="45,-737 45,-737 118,-737 118,-737 45,-737"/>
<polygon fill="none" stroke="#666666" points="30,-615 30,-769 118,-769 118,-615 30,-615"/>
</a>
</g>
</g>
<!-- Node4&#45;&gt;Node3 -->
<g id="edge3_Node000003_Node000004" class="edge">
<title>Node4&#45;&gt;Node3</title>
<g id="a_edge3_Node000003_Node000004"><a xlink:title=" ">
<path fill="none" stroke="#63b8ff" d="M74,-604.6C74,-596.23 74,-587.7 74,-579.22"/>
<polygon fill="none" stroke="#63b8ff" points="70.5,-604.71 74,-614.71 77.5,-604.71 70.5,-604.71"/>
</a>
</g>
</g>
</g>
</svg>
