<?xml version="1.0" encoding="UTF-8" standalone="no"?>
<!DOCTYPE svg PUBLIC "-//W3C//DTD SVG 1.1//EN"
 "http://www.w3.org/Graphics/SVG/1.1/DTD/svg11.dtd">
<!-- Generated by graphviz version 2.43.0 (0)
 -->
<!-- Title: NAV::FileWriter Pages: 1 -->
<svg width="1120pt" height="547pt"
 viewBox="0.00 0.00 1120.00 547.00" xmlns="http://www.w3.org/2000/svg" xmlns:xlink="http://www.w3.org/1999/xlink">
<g id="graph0" class="graph" transform="scale(1 1) rotate(0) translate(4 543)">
<title>NAV::FileWriter</title>
<!-- Node1 -->
<g id="Node000001" class="node">
<title>Node1</title>
<g id="a_Node000001"><a xlink:title="Parent class for other data loggers which manages the output filestream.">
<polygon fill="#999999" stroke="transparent" points="589.5,-539 504.5,-539 504.5,-280 589.5,-280 589.5,-539"/>
<text text-anchor="start" x="511" y="-526.5" font-family="Helvetica,sans-Serif" font-size="10.00">NAV::FileWriter</text>
<text text-anchor="start" x="509" y="-511.5" font-family="Helvetica,sans-Serif" font-size="10.00">#</text>
<text text-anchor="start" x="522" y="-511.5" font-family="Helvetica,sans-Serif" font-size="10.00">_filestream</text>
<text text-anchor="start" x="509" y="-496.5" font-family="Helvetica,sans-Serif" font-size="10.00">#</text>
<text text-anchor="start" x="522" y="-496.5" font-family="Helvetica,sans-Serif" font-size="10.00">_fileType</text>
<text text-anchor="start" x="509" y="-481.5" font-family="Helvetica,sans-Serif" font-size="10.00">#</text>
<text text-anchor="start" x="522" y="-481.5" font-family="Helvetica,sans-Serif" font-size="10.00">_path</text>
<text text-anchor="start" x="509" y="-466.5" font-family="Helvetica,sans-Serif" font-size="10.00">+</text>
<text text-anchor="start" x="522" y="-466.5" font-family="Helvetica,sans-Serif" font-size="10.00">FileWriter()</text>
<text text-anchor="start" x="509" y="-451.5" font-family="Helvetica,sans-Serif" font-size="10.00">+</text>
<text text-anchor="start" x="522" y="-451.5" font-family="Helvetica,sans-Serif" font-size="10.00">FileWriter()</text>
<text text-anchor="start" x="509" y="-436.5" font-family="Helvetica,sans-Serif" font-size="10.00">+</text>
<text text-anchor="start" x="522" y="-436.5" font-family="Helvetica,sans-Serif" font-size="10.00">operator=()</text>
<text text-anchor="start" x="509" y="-421.5" font-family="Helvetica,sans-Serif" font-size="10.00">+</text>
<text text-anchor="start" x="522" y="-421.5" font-family="Helvetica,sans-Serif" font-size="10.00">operator=()</text>
<text text-anchor="start" x="509" y="-406.5" font-family="Helvetica,sans-Serif" font-size="10.00">+</text>
<text text-anchor="start" x="522" y="-406.5" font-family="Helvetica,sans-Serif" font-size="10.00">~FileWriter()</text>
<text text-anchor="start" x="509" y="-391.5" font-family="Helvetica,sans-Serif" font-size="10.00">+</text>
<text text-anchor="start" x="522" y="-391.5" font-family="Helvetica,sans-Serif" font-size="10.00">to_string()</text>
<text text-anchor="start" x="509" y="-376.5" font-family="Helvetica,sans-Serif" font-size="10.00">#</text>
<text text-anchor="start" x="522" y="-376.5" font-family="Helvetica,sans-Serif" font-size="10.00">deinitialize()</text>
<text text-anchor="start" x="509" y="-361.5" font-family="Helvetica,sans-Serif" font-size="10.00">#</text>
<text text-anchor="start" x="522" y="-361.5" font-family="Helvetica,sans-Serif" font-size="10.00">FileWriter()</text>
<text text-anchor="start" x="509" y="-346.5" font-family="Helvetica,sans-Serif" font-size="10.00">#</text>
<text text-anchor="start" x="522" y="-346.5" font-family="Helvetica,sans-Serif" font-size="10.00">getFilepath()</text>
<text text-anchor="start" x="509" y="-331.5" font-family="Helvetica,sans-Serif" font-size="10.00">#</text>
<text text-anchor="start" x="522" y="-331.5" font-family="Helvetica,sans-Serif" font-size="10.00">guiConfig()</text>
<text text-anchor="start" x="509" y="-316.5" font-family="Helvetica,sans-Serif" font-size="10.00">#</text>
<text text-anchor="start" x="522" y="-316.5" font-family="Helvetica,sans-Serif" font-size="10.00">initialize()</text>
<text text-anchor="start" x="509" y="-301.5" font-family="Helvetica,sans-Serif" font-size="10.00">#</text>
<text text-anchor="start" x="522" y="-301.5" font-family="Helvetica,sans-Serif" font-size="10.00">restore()</text>
<text text-anchor="start" x="509" y="-286.5" font-family="Helvetica,sans-Serif" font-size="10.00">#</text>
<text text-anchor="start" x="522" y="-286.5" font-family="Helvetica,sans-Serif" font-size="10.00">save()</text>
<polygon fill="#666666" stroke="#666666" points="505,-521.5 505,-521.5 590,-521.5 590,-521.5 505,-521.5"/>
<polygon fill="#666666" stroke="#666666" points="505,-476.5 505,-476.5 520,-476.5 520,-476.5 505,-476.5"/>
<polygon fill="#666666" stroke="#666666" points="520,-476.5 520,-476.5 590,-476.5 590,-476.5 520,-476.5"/>
<polygon fill="none" stroke="#666666" points="504.5,-280 504.5,-539 589.5,-539 589.5,-280 504.5,-280"/>
</a>
</g>
</g>
<!-- Node2 -->
<g id="Node000002" class="node">
<title>Node2</title>
<g id="a_Node000002"><a xlink:href="classNAV_1_1ImuDataLogger.html" target="_top" xlink:title="Data Logger for IMU observations.">
<polygon fill="white" stroke="transparent" points="112,-236.5 0,-236.5 0,-7.5 112,-7.5 112,-236.5"/>
<text text-anchor="start" x="5.5" y="-224" font-family="Helvetica,sans-Serif" font-size="10.00">NAV::ImuDataLogger</text>
<text text-anchor="start" x="54" y="-209" font-family="Helvetica,sans-Serif" font-size="10.00"> </text>
<text text-anchor="start" x="4" y="-194" font-family="Helvetica,sans-Serif" font-size="10.00">+</text>
<text text-anchor="start" x="17" y="-194" font-family="Helvetica,sans-Serif" font-size="10.00">flush()</text>
<text text-anchor="start" x="4" y="-179" font-family="Helvetica,sans-Serif" font-size="10.00">+</text>
<text text-anchor="start" x="17" y="-179" font-family="Helvetica,sans-Serif" font-size="10.00">guiConfig()</text>
<text text-anchor="start" x="4" y="-164" font-family="Helvetica,sans-Serif" font-size="10.00">+</text>
<text text-anchor="start" x="17" y="-164" font-family="Helvetica,sans-Serif" font-size="10.00">ImuDataLogger()</text>
<text text-anchor="start" x="4" y="-149" font-family="Helvetica,sans-Serif" font-size="10.00">+</text>
<text text-anchor="start" x="17" y="-149" font-family="Helvetica,sans-Serif" font-size="10.00">ImuDataLogger()</text>
<text text-anchor="start" x="4" y="-134" font-family="Helvetica,sans-Serif" font-size="10.00">+</text>
<text text-anchor="start" x="17" y="-134" font-family="Helvetica,sans-Serif" font-size="10.00">ImuDataLogger()</text>
<text text-anchor="start" x="4" y="-119" font-family="Helvetica,sans-Serif" font-size="10.00">+</text>
<text text-anchor="start" x="17" y="-119" font-family="Helvetica,sans-Serif" font-size="10.00">operator=()</text>
<text text-anchor="start" x="4" y="-104" font-family="Helvetica,sans-Serif" font-size="10.00">+</text>
<text text-anchor="start" x="17" y="-104" font-family="Helvetica,sans-Serif" font-size="10.00">operator=()</text>
<text text-anchor="start" x="4" y="-89" font-family="Helvetica,sans-Serif" font-size="10.00">+</text>
<text text-anchor="start" x="17" y="-89" font-family="Helvetica,sans-Serif" font-size="10.00">restore()</text>
<text text-anchor="start" x="4" y="-74" font-family="Helvetica,sans-Serif" font-size="10.00">+</text>
<text text-anchor="start" x="17" y="-74" font-family="Helvetica,sans-Serif" font-size="10.00">save()</text>
<text text-anchor="start" x="4" y="-59" font-family="Helvetica,sans-Serif" font-size="10.00">+</text>
<text text-anchor="start" x="17" y="-59" font-family="Helvetica,sans-Serif" font-size="10.00">type()</text>
<text text-anchor="start" x="4" y="-44" font-family="Helvetica,sans-Serif" font-size="10.00">+</text>
<text text-anchor="start" x="17" y="-44" font-family="Helvetica,sans-Serif" font-size="10.00">~ImuDataLogger()</text>
<text text-anchor="start" x="4" y="-29" font-family="Helvetica,sans-Serif" font-size="10.00">+</text>
<text text-anchor="start" x="17" y="-29" font-family="Helvetica,sans-Serif" font-size="10.00">category()</text>
<text text-anchor="start" x="4" y="-14" font-family="Helvetica,sans-Serif" font-size="10.00">+</text>
<text text-anchor="start" x="17" y="-14" font-family="Helvetica,sans-Serif" font-size="10.00">typeStatic()</text>
<polygon fill="#666666" stroke="#666666" points="0,-219 0,-219 112,-219 112,-219 0,-219"/>
<polygon fill="#666666" stroke="#666666" points="0,-204 0,-204 112,-204 112,-204 0,-204"/>
<polygon fill="none" stroke="#666666" points="0,-7.5 0,-236.5 112,-236.5 112,-7.5 0,-7.5"/>
</a>
</g>
</g>
<!-- Node1&#45;&gt;Node2 -->
<g id="edge1_Node000001_Node000002" class="edge">
<title>Node1&#45;&gt;Node2</title>
<g id="a_edge1_Node000001_Node000002"><a xlink:title=" ">
<path fill="none" stroke="#63b8ff" d="M494.52,-400.37C407.49,-384.49 231.92,-341.91 121,-244 117.96,-241.32 115.04,-238.46 112.23,-235.46"/>
<polygon fill="none" stroke="#63b8ff" points="493.97,-403.83 504.43,-402.14 495.2,-396.94 493.97,-403.83"/>
</a>
</g>
</g>
<!-- Node3 -->
<g id="Node000003" class="node">
<title>Node3</title>
<g id="a_Node000003"><a xlink:href="classNAV_1_1KvhDataLogger.html" target="_top" xlink:title="Data Logger for KVH observations.">
<polygon fill="white" stroke="transparent" points="242,-236.5 130,-236.5 130,-7.5 242,-7.5 242,-236.5"/>
<text text-anchor="start" x="135.5" y="-224" font-family="Helvetica,sans-Serif" font-size="10.00">NAV::KvhDataLogger</text>
<text text-anchor="start" x="184" y="-209" font-family="Helvetica,sans-Serif" font-size="10.00"> </text>
<text text-anchor="start" x="134" y="-194" font-family="Helvetica,sans-Serif" font-size="10.00">+</text>
<text text-anchor="start" x="147" y="-194" font-family="Helvetica,sans-Serif" font-size="10.00">flush()</text>
<text text-anchor="start" x="134" y="-179" font-family="Helvetica,sans-Serif" font-size="10.00">+</text>
<text text-anchor="start" x="147" y="-179" font-family="Helvetica,sans-Serif" font-size="10.00">guiConfig()</text>
<text text-anchor="start" x="134" y="-164" font-family="Helvetica,sans-Serif" font-size="10.00">+</text>
<text text-anchor="start" x="147" y="-164" font-family="Helvetica,sans-Serif" font-size="10.00">KvhDataLogger()</text>
<text text-anchor="start" x="134" y="-149" font-family="Helvetica,sans-Serif" font-size="10.00">+</text>
<text text-anchor="start" x="147" y="-149" font-family="Helvetica,sans-Serif" font-size="10.00">KvhDataLogger()</text>
<text text-anchor="start" x="134" y="-134" font-family="Helvetica,sans-Serif" font-size="10.00">+</text>
<text text-anchor="start" x="147" y="-134" font-family="Helvetica,sans-Serif" font-size="10.00">KvhDataLogger()</text>
<text text-anchor="start" x="134" y="-119" font-family="Helvetica,sans-Serif" font-size="10.00">+</text>
<text text-anchor="start" x="147" y="-119" font-family="Helvetica,sans-Serif" font-size="10.00">operator=()</text>
<text text-anchor="start" x="134" y="-104" font-family="Helvetica,sans-Serif" font-size="10.00">+</text>
<text text-anchor="start" x="147" y="-104" font-family="Helvetica,sans-Serif" font-size="10.00">operator=()</text>
<text text-anchor="start" x="134" y="-89" font-family="Helvetica,sans-Serif" font-size="10.00">+</text>
<text text-anchor="start" x="147" y="-89" font-family="Helvetica,sans-Serif" font-size="10.00">restore()</text>
<text text-anchor="start" x="134" y="-74" font-family="Helvetica,sans-Serif" font-size="10.00">+</text>
<text text-anchor="start" x="147" y="-74" font-family="Helvetica,sans-Serif" font-size="10.00">save()</text>
<text text-anchor="start" x="134" y="-59" font-family="Helvetica,sans-Serif" font-size="10.00">+</text>
<text text-anchor="start" x="147" y="-59" font-family="Helvetica,sans-Serif" font-size="10.00">type()</text>
<text text-anchor="start" x="134" y="-44" font-family="Helvetica,sans-Serif" font-size="10.00">+</text>
<text text-anchor="start" x="147" y="-44" font-family="Helvetica,sans-Serif" font-size="10.00">~KvhDataLogger()</text>
<text text-anchor="start" x="134" y="-29" font-family="Helvetica,sans-Serif" font-size="10.00">+</text>
<text text-anchor="start" x="147" y="-29" font-family="Helvetica,sans-Serif" font-size="10.00">category()</text>
<text text-anchor="start" x="134" y="-14" font-family="Helvetica,sans-Serif" font-size="10.00">+</text>
<text text-anchor="start" x="147" y="-14" font-family="Helvetica,sans-Serif" font-size="10.00">typeStatic()</text>
<polygon fill="#666666" stroke="#666666" points="130,-219 130,-219 242,-219 242,-219 130,-219"/>
<polygon fill="#666666" stroke="#666666" points="130,-204 130,-204 242,-204 242,-204 130,-204"/>
<polygon fill="none" stroke="#666666" points="130,-7.5 130,-236.5 242,-236.5 242,-7.5 130,-7.5"/>
</a>
</g>
</g>
<!-- Node1&#45;&gt;Node3 -->
<g id="edge2_Node000001_Node000003" class="edge">
<title>Node1&#45;&gt;Node3</title>
<g id="a_edge2_Node000001_Node000003"><a xlink:title=" ">
<path fill="none" stroke="#63b8ff" d="M494.89,-390.11C430.81,-365.34 321.86,-315.88 251,-244 247.9,-240.86 244.91,-237.54 242.03,-234.08"/>
<polygon fill="none" stroke="#63b8ff" points="493.8,-393.44 504.39,-393.73 496.29,-386.9 493.8,-393.44"/>
</a>
</g>
</g>
<!-- Node4 -->
<g id="Node000004" class="node">
<title>Node4</title>
<g id="a_Node000004"><a xlink:href="classNAV_1_1LcKfInsGnssErrorLogger.html" target="_top" xlink:title="Data Logger for INS/GNSS LCKF Errors.">
<polygon fill="white" stroke="transparent" points="413.5,-236.5 260.5,-236.5 260.5,-7.5 413.5,-7.5 413.5,-236.5"/>
<text text-anchor="start" x="266.5" y="-224" font-family="Helvetica,sans-Serif" font-size="10.00">NAV::LcKfInsGnssErrorLogger</text>
<text text-anchor="start" x="335.5" y="-209" font-family="Helvetica,sans-Serif" font-size="10.00"> </text>
<text text-anchor="start" x="265" y="-194" font-family="Helvetica,sans-Serif" font-size="10.00">+</text>
<text text-anchor="start" x="278" y="-194" font-family="Helvetica,sans-Serif" font-size="10.00">flush()</text>
<text text-anchor="start" x="265" y="-179" font-family="Helvetica,sans-Serif" font-size="10.00">+</text>
<text text-anchor="start" x="278" y="-179" font-family="Helvetica,sans-Serif" font-size="10.00">guiConfig()</text>
<text text-anchor="start" x="265" y="-164" font-family="Helvetica,sans-Serif" font-size="10.00">+</text>
<text text-anchor="start" x="278" y="-164" font-family="Helvetica,sans-Serif" font-size="10.00">LcKfInsGnssErrorLogger()</text>
<text text-anchor="start" x="265" y="-149" font-family="Helvetica,sans-Serif" font-size="10.00">+</text>
<text text-anchor="start" x="278" y="-149" font-family="Helvetica,sans-Serif" font-size="10.00">LcKfInsGnssErrorLogger()</text>
<text text-anchor="start" x="265" y="-134" font-family="Helvetica,sans-Serif" font-size="10.00">+</text>
<text text-anchor="start" x="278" y="-134" font-family="Helvetica,sans-Serif" font-size="10.00">LcKfInsGnssErrorLogger()</text>
<text text-anchor="start" x="265" y="-119" font-family="Helvetica,sans-Serif" font-size="10.00">+</text>
<text text-anchor="start" x="278" y="-119" font-family="Helvetica,sans-Serif" font-size="10.00">operator=()</text>
<text text-anchor="start" x="265" y="-104" font-family="Helvetica,sans-Serif" font-size="10.00">+</text>
<text text-anchor="start" x="278" y="-104" font-family="Helvetica,sans-Serif" font-size="10.00">operator=()</text>
<text text-anchor="start" x="265" y="-89" font-family="Helvetica,sans-Serif" font-size="10.00">+</text>
<text text-anchor="start" x="278" y="-89" font-family="Helvetica,sans-Serif" font-size="10.00">restore()</text>
<text text-anchor="start" x="265" y="-74" font-family="Helvetica,sans-Serif" font-size="10.00">+</text>
<text text-anchor="start" x="278" y="-74" font-family="Helvetica,sans-Serif" font-size="10.00">save()</text>
<text text-anchor="start" x="265" y="-59" font-family="Helvetica,sans-Serif" font-size="10.00">+</text>
<text text-anchor="start" x="278" y="-59" font-family="Helvetica,sans-Serif" font-size="10.00">type()</text>
<text text-anchor="start" x="265" y="-44" font-family="Helvetica,sans-Serif" font-size="10.00">+</text>
<text text-anchor="start" x="278" y="-44" font-family="Helvetica,sans-Serif" font-size="10.00">~LcKfInsGnssErrorLogger()</text>
<text text-anchor="start" x="265" y="-29" font-family="Helvetica,sans-Serif" font-size="10.00">+</text>
<text text-anchor="start" x="278" y="-29" font-family="Helvetica,sans-Serif" font-size="10.00">category()</text>
<text text-anchor="start" x="265" y="-14" font-family="Helvetica,sans-Serif" font-size="10.00">+</text>
<text text-anchor="start" x="278" y="-14" font-family="Helvetica,sans-Serif" font-size="10.00">typeStatic()</text>
<polygon fill="#666666" stroke="#666666" points="261,-219 261,-219 414,-219 414,-219 261,-219"/>
<polygon fill="#666666" stroke="#666666" points="261,-204 261,-204 414,-204 414,-204 261,-204"/>
<polygon fill="none" stroke="#666666" points="260.5,-7.5 260.5,-236.5 413.5,-236.5 413.5,-7.5 260.5,-7.5"/>
</a>
</g>
</g>
<!-- Node1&#45;&gt;Node4 -->
<g id="edge3_Node000001_Node000004" class="edge">
<title>Node1&#45;&gt;Node4</title>
<g id="a_edge3_Node000001_Node000004"><a xlink:title=" ">
<path fill="none" stroke="#63b8ff" d="M498.37,-344.85C475.32,-314.47 447.53,-277.51 423,-244 419.88,-239.74 416.71,-235.38 413.51,-230.97"/>
<polygon fill="none" stroke="#63b8ff" points="495.59,-346.98 504.43,-352.83 501.17,-342.75 495.59,-346.98"/>
</a>
</g>
</g>
<!-- Node5 -->
<g id="Node000005" class="node">
<title>Node5</title>
<g id="a_Node000005"><a xlink:href="classNAV_1_1MatrixLogger.html" target="_top" xlink:title="Data Logger for PosVelAtt observations.">
<polygon fill="white" stroke="transparent" points="534,-236.5 432,-236.5 432,-7.5 534,-7.5 534,-236.5"/>
<text text-anchor="start" x="437.5" y="-224" font-family="Helvetica,sans-Serif" font-size="10.00">NAV::MatrixLogger</text>
<text text-anchor="start" x="481" y="-209" font-family="Helvetica,sans-Serif" font-size="10.00"> </text>
<text text-anchor="start" x="436" y="-194" font-family="Helvetica,sans-Serif" font-size="10.00">+</text>
<text text-anchor="start" x="449" y="-194" font-family="Helvetica,sans-Serif" font-size="10.00">flush()</text>
<text text-anchor="start" x="436" y="-179" font-family="Helvetica,sans-Serif" font-size="10.00">+</text>
<text text-anchor="start" x="449" y="-179" font-family="Helvetica,sans-Serif" font-size="10.00">guiConfig()</text>
<text text-anchor="start" x="436" y="-164" font-family="Helvetica,sans-Serif" font-size="10.00">+</text>
<text text-anchor="start" x="449" y="-164" font-family="Helvetica,sans-Serif" font-size="10.00">MatrixLogger()</text>
<text text-anchor="start" x="436" y="-149" font-family="Helvetica,sans-Serif" font-size="10.00">+</text>
<text text-anchor="start" x="449" y="-149" font-family="Helvetica,sans-Serif" font-size="10.00">MatrixLogger()</text>
<text text-anchor="start" x="436" y="-134" font-family="Helvetica,sans-Serif" font-size="10.00">+</text>
<text text-anchor="start" x="449" y="-134" font-family="Helvetica,sans-Serif" font-size="10.00">MatrixLogger()</text>
<text text-anchor="start" x="436" y="-119" font-family="Helvetica,sans-Serif" font-size="10.00">+</text>
<text text-anchor="start" x="449" y="-119" font-family="Helvetica,sans-Serif" font-size="10.00">operator=()</text>
<text text-anchor="start" x="436" y="-104" font-family="Helvetica,sans-Serif" font-size="10.00">+</text>
<text text-anchor="start" x="449" y="-104" font-family="Helvetica,sans-Serif" font-size="10.00">operator=()</text>
<text text-anchor="start" x="436" y="-89" font-family="Helvetica,sans-Serif" font-size="10.00">+</text>
<text text-anchor="start" x="449" y="-89" font-family="Helvetica,sans-Serif" font-size="10.00">restore()</text>
<text text-anchor="start" x="436" y="-74" font-family="Helvetica,sans-Serif" font-size="10.00">+</text>
<text text-anchor="start" x="449" y="-74" font-family="Helvetica,sans-Serif" font-size="10.00">save()</text>
<text text-anchor="start" x="436" y="-59" font-family="Helvetica,sans-Serif" font-size="10.00">+</text>
<text text-anchor="start" x="449" y="-59" font-family="Helvetica,sans-Serif" font-size="10.00">type()</text>
<text text-anchor="start" x="436" y="-44" font-family="Helvetica,sans-Serif" font-size="10.00">+</text>
<text text-anchor="start" x="449" y="-44" font-family="Helvetica,sans-Serif" font-size="10.00">~MatrixLogger()</text>
<text text-anchor="start" x="436" y="-29" font-family="Helvetica,sans-Serif" font-size="10.00">+</text>
<text text-anchor="start" x="449" y="-29" font-family="Helvetica,sans-Serif" font-size="10.00">category()</text>
<text text-anchor="start" x="436" y="-14" font-family="Helvetica,sans-Serif" font-size="10.00">+</text>
<text text-anchor="start" x="449" y="-14" font-family="Helvetica,sans-Serif" font-size="10.00">typeStatic()</text>
<polygon fill="#666666" stroke="#666666" points="432,-219 432,-219 534,-219 534,-219 432,-219"/>
<polygon fill="#666666" stroke="#666666" points="432,-204 432,-204 534,-204 534,-204 432,-204"/>
<polygon fill="none" stroke="#666666" points="432,-7.5 432,-236.5 534,-236.5 534,-7.5 432,-7.5"/>
</a>
</g>
</g>
<!-- Node1&#45;&gt;Node5 -->
<g id="edge4_Node000001_Node000005" class="edge">
<title>Node1&#45;&gt;Node5</title>
<g id="a_edge4_Node000001_Node000005"><a xlink:title=" ">
<path fill="none" stroke="#63b8ff" d="M515.99,-270.17C513.49,-259.02 510.98,-247.83 508.53,-236.89"/>
<polygon fill="none" stroke="#63b8ff" points="512.58,-270.96 518.18,-279.95 519.41,-269.42 512.58,-270.96"/>
</a>
</g>
</g>
<!-- Node6 -->
<g id="Node000006" class="node">
<title>Node6</title>
<g id="a_Node000006"><a xlink:href="classNAV_1_1PosVelAttLogger.html" target="_top" xlink:title="Data Logger for PosVelAtt observations.">
<polygon fill="white" stroke="transparent" points="669.5,-236.5 552.5,-236.5 552.5,-7.5 669.5,-7.5 669.5,-236.5"/>
<text text-anchor="start" x="558.5" y="-224" font-family="Helvetica,sans-Serif" font-size="10.00">NAV::PosVelAttLogger</text>
<text text-anchor="start" x="609.5" y="-209" font-family="Helvetica,sans-Serif" font-size="10.00"> </text>
<text text-anchor="start" x="557" y="-194" font-family="Helvetica,sans-Serif" font-size="10.00">+</text>
<text text-anchor="start" x="570" y="-194" font-family="Helvetica,sans-Serif" font-size="10.00">flush()</text>
<text text-anchor="start" x="557" y="-179" font-family="Helvetica,sans-Serif" font-size="10.00">+</text>
<text text-anchor="start" x="570" y="-179" font-family="Helvetica,sans-Serif" font-size="10.00">guiConfig()</text>
<text text-anchor="start" x="557" y="-164" font-family="Helvetica,sans-Serif" font-size="10.00">+</text>
<text text-anchor="start" x="570" y="-164" font-family="Helvetica,sans-Serif" font-size="10.00">operator=()</text>
<text text-anchor="start" x="557" y="-149" font-family="Helvetica,sans-Serif" font-size="10.00">+</text>
<text text-anchor="start" x="570" y="-149" font-family="Helvetica,sans-Serif" font-size="10.00">operator=()</text>
<text text-anchor="start" x="557" y="-134" font-family="Helvetica,sans-Serif" font-size="10.00">+</text>
<text text-anchor="start" x="570" y="-134" font-family="Helvetica,sans-Serif" font-size="10.00">PosVelAttLogger()</text>
<text text-anchor="start" x="557" y="-119" font-family="Helvetica,sans-Serif" font-size="10.00">+</text>
<text text-anchor="start" x="570" y="-119" font-family="Helvetica,sans-Serif" font-size="10.00">PosVelAttLogger()</text>
<text text-anchor="start" x="557" y="-104" font-family="Helvetica,sans-Serif" font-size="10.00">+</text>
<text text-anchor="start" x="570" y="-104" font-family="Helvetica,sans-Serif" font-size="10.00">PosVelAttLogger()</text>
<text text-anchor="start" x="557" y="-89" font-family="Helvetica,sans-Serif" font-size="10.00">+</text>
<text text-anchor="start" x="570" y="-89" font-family="Helvetica,sans-Serif" font-size="10.00">restore()</text>
<text text-anchor="start" x="557" y="-74" font-family="Helvetica,sans-Serif" font-size="10.00">+</text>
<text text-anchor="start" x="570" y="-74" font-family="Helvetica,sans-Serif" font-size="10.00">save()</text>
<text text-anchor="start" x="557" y="-59" font-family="Helvetica,sans-Serif" font-size="10.00">+</text>
<text text-anchor="start" x="570" y="-59" font-family="Helvetica,sans-Serif" font-size="10.00">type()</text>
<text text-anchor="start" x="557" y="-44" font-family="Helvetica,sans-Serif" font-size="10.00">+</text>
<text text-anchor="start" x="570" y="-44" font-family="Helvetica,sans-Serif" font-size="10.00">~PosVelAttLogger()</text>
<text text-anchor="start" x="557" y="-29" font-family="Helvetica,sans-Serif" font-size="10.00">+</text>
<text text-anchor="start" x="570" y="-29" font-family="Helvetica,sans-Serif" font-size="10.00">category()</text>
<text text-anchor="start" x="557" y="-14" font-family="Helvetica,sans-Serif" font-size="10.00">+</text>
<text text-anchor="start" x="570" y="-14" font-family="Helvetica,sans-Serif" font-size="10.00">typeStatic()</text>
<polygon fill="#666666" stroke="#666666" points="553,-219 553,-219 670,-219 670,-219 553,-219"/>
<polygon fill="#666666" stroke="#666666" points="553,-204 553,-204 670,-204 670,-204 553,-204"/>
<polygon fill="none" stroke="#666666" points="552.5,-7.5 552.5,-236.5 669.5,-236.5 669.5,-7.5 552.5,-7.5"/>
</a>
</g>
</g>
<!-- Node1&#45;&gt;Node6 -->
<g id="edge5_Node000001_Node000006" class="edge">
<title>Node1&#45;&gt;Node6</title>
<g id="a_edge5_Node000001_Node000006"><a xlink:title=" ">
<path fill="none" stroke="#63b8ff" d="M578.01,-270.17C580.51,-259.02 583.02,-247.83 585.47,-236.89"/>
<polygon fill="none" stroke="#63b8ff" points="574.59,-269.42 575.82,-279.95 581.42,-270.96 574.59,-269.42"/>
</a>
</g>
</g>
<!-- Node7 -->
<g id="Node000007" class="node">
<title>Node7</title>
<g id="a_Node000007"><a xlink:href="classNAV_1_1SppSolutionLogger.html" target="_top" xlink:title="Data Logger for SppSolution observations.">
<polygon fill="white" stroke="transparent" points="816,-236.5 688,-236.5 688,-7.5 816,-7.5 816,-236.5"/>
<text text-anchor="start" x="693.5" y="-224" font-family="Helvetica,sans-Serif" font-size="10.00">NAV::SppSolutionLogger</text>
<text text-anchor="start" x="750" y="-209" font-family="Helvetica,sans-Serif" font-size="10.00"> </text>
<text text-anchor="start" x="692" y="-194" font-family="Helvetica,sans-Serif" font-size="10.00">+</text>
<text text-anchor="start" x="705" y="-194" font-family="Helvetica,sans-Serif" font-size="10.00">flush()</text>
<text text-anchor="start" x="692" y="-179" font-family="Helvetica,sans-Serif" font-size="10.00">+</text>
<text text-anchor="start" x="705" y="-179" font-family="Helvetica,sans-Serif" font-size="10.00">guiConfig()</text>
<text text-anchor="start" x="692" y="-164" font-family="Helvetica,sans-Serif" font-size="10.00">+</text>
<text text-anchor="start" x="705" y="-164" font-family="Helvetica,sans-Serif" font-size="10.00">operator=()</text>
<text text-anchor="start" x="692" y="-149" font-family="Helvetica,sans-Serif" font-size="10.00">+</text>
<text text-anchor="start" x="705" y="-149" font-family="Helvetica,sans-Serif" font-size="10.00">operator=()</text>
<text text-anchor="start" x="692" y="-134" font-family="Helvetica,sans-Serif" font-size="10.00">+</text>
<text text-anchor="start" x="705" y="-134" font-family="Helvetica,sans-Serif" font-size="10.00">restore()</text>
<text text-anchor="start" x="692" y="-119" font-family="Helvetica,sans-Serif" font-size="10.00">+</text>
<text text-anchor="start" x="705" y="-119" font-family="Helvetica,sans-Serif" font-size="10.00">save()</text>
<text text-anchor="start" x="692" y="-104" font-family="Helvetica,sans-Serif" font-size="10.00">+</text>
<text text-anchor="start" x="705" y="-104" font-family="Helvetica,sans-Serif" font-size="10.00">SppSolutionLogger()</text>
<text text-anchor="start" x="692" y="-89" font-family="Helvetica,sans-Serif" font-size="10.00">+</text>
<text text-anchor="start" x="705" y="-89" font-family="Helvetica,sans-Serif" font-size="10.00">SppSolutionLogger()</text>
<text text-anchor="start" x="692" y="-74" font-family="Helvetica,sans-Serif" font-size="10.00">+</text>
<text text-anchor="start" x="705" y="-74" font-family="Helvetica,sans-Serif" font-size="10.00">SppSolutionLogger()</text>
<text text-anchor="start" x="692" y="-59" font-family="Helvetica,sans-Serif" font-size="10.00">+</text>
<text text-anchor="start" x="705" y="-59" font-family="Helvetica,sans-Serif" font-size="10.00">type()</text>
<text text-anchor="start" x="692" y="-44" font-family="Helvetica,sans-Serif" font-size="10.00">+</text>
<text text-anchor="start" x="705" y="-44" font-family="Helvetica,sans-Serif" font-size="10.00">~SppSolutionLogger()</text>
<text text-anchor="start" x="692" y="-29" font-family="Helvetica,sans-Serif" font-size="10.00">+</text>
<text text-anchor="start" x="705" y="-29" font-family="Helvetica,sans-Serif" font-size="10.00">category()</text>
<text text-anchor="start" x="692" y="-14" font-family="Helvetica,sans-Serif" font-size="10.00">+</text>
<text text-anchor="start" x="705" y="-14" font-family="Helvetica,sans-Serif" font-size="10.00">typeStatic()</text>
<polygon fill="#666666" stroke="#666666" points="688,-219 688,-219 816,-219 816,-219 688,-219"/>
<polygon fill="#666666" stroke="#666666" points="688,-204 688,-204 816,-204 816,-204 688,-204"/>
<polygon fill="none" stroke="#666666" points="688,-7.5 688,-236.5 816,-236.5 816,-7.5 688,-7.5"/>
</a>
</g>
</g>
<!-- Node1&#45;&gt;Node7 -->
<g id="edge6_Node000001_Node000007" class="edge">
<title>Node1&#45;&gt;Node7</title>
<g id="a_edge6_Node000001_Node000007"><a xlink:title=" ">
<path fill="none" stroke="#63b8ff" d="M595.94,-351.39C621.7,-320.39 653.2,-280.95 679,-244 681.95,-239.78 684.91,-235.43 687.85,-231.01"/>
<polygon fill="none" stroke="#63b8ff" points="593.24,-349.16 589.52,-359.08 598.62,-353.64 593.24,-349.16"/>
</a>
</g>
</g>
<!-- Node8 -->
<g id="Node000008" class="node">
<title>Node8</title>
<g id="a_Node000008"><a xlink:href="classNAV_1_1UartDataLogger.html" target="_top" xlink:title="Data Logger for Ublox observations.">
<polygon fill="white" stroke="transparent" points="949.5,-236.5 834.5,-236.5 834.5,-7.5 949.5,-7.5 949.5,-236.5"/>
<text text-anchor="start" x="841" y="-224" font-family="Helvetica,sans-Serif" font-size="10.00">NAV::UartDataLogger</text>
<text text-anchor="start" x="890.5" y="-209" font-family="Helvetica,sans-Serif" font-size="10.00"> </text>
<text text-anchor="start" x="839" y="-194" font-family="Helvetica,sans-Serif" font-size="10.00">+</text>
<text text-anchor="start" x="852" y="-194" font-family="Helvetica,sans-Serif" font-size="10.00">flush()</text>
<text text-anchor="start" x="839" y="-179" font-family="Helvetica,sans-Serif" font-size="10.00">+</text>
<text text-anchor="start" x="852" y="-179" font-family="Helvetica,sans-Serif" font-size="10.00">guiConfig()</text>
<text text-anchor="start" x="839" y="-164" font-family="Helvetica,sans-Serif" font-size="10.00">+</text>
<text text-anchor="start" x="852" y="-164" font-family="Helvetica,sans-Serif" font-size="10.00">operator=()</text>
<text text-anchor="start" x="839" y="-149" font-family="Helvetica,sans-Serif" font-size="10.00">+</text>
<text text-anchor="start" x="852" y="-149" font-family="Helvetica,sans-Serif" font-size="10.00">operator=()</text>
<text text-anchor="start" x="839" y="-134" font-family="Helvetica,sans-Serif" font-size="10.00">+</text>
<text text-anchor="start" x="852" y="-134" font-family="Helvetica,sans-Serif" font-size="10.00">restore()</text>
<text text-anchor="start" x="839" y="-119" font-family="Helvetica,sans-Serif" font-size="10.00">+</text>
<text text-anchor="start" x="852" y="-119" font-family="Helvetica,sans-Serif" font-size="10.00">save()</text>
<text text-anchor="start" x="839" y="-104" font-family="Helvetica,sans-Serif" font-size="10.00">+</text>
<text text-anchor="start" x="852" y="-104" font-family="Helvetica,sans-Serif" font-size="10.00">type()</text>
<text text-anchor="start" x="839" y="-89" font-family="Helvetica,sans-Serif" font-size="10.00">+</text>
<text text-anchor="start" x="852" y="-89" font-family="Helvetica,sans-Serif" font-size="10.00">UartDataLogger()</text>
<text text-anchor="start" x="839" y="-74" font-family="Helvetica,sans-Serif" font-size="10.00">+</text>
<text text-anchor="start" x="852" y="-74" font-family="Helvetica,sans-Serif" font-size="10.00">UartDataLogger()</text>
<text text-anchor="start" x="839" y="-59" font-family="Helvetica,sans-Serif" font-size="10.00">+</text>
<text text-anchor="start" x="852" y="-59" font-family="Helvetica,sans-Serif" font-size="10.00">UartDataLogger()</text>
<text text-anchor="start" x="839" y="-44" font-family="Helvetica,sans-Serif" font-size="10.00">+</text>
<text text-anchor="start" x="852" y="-44" font-family="Helvetica,sans-Serif" font-size="10.00">~UartDataLogger()</text>
<text text-anchor="start" x="839" y="-29" font-family="Helvetica,sans-Serif" font-size="10.00">+</text>
<text text-anchor="start" x="852" y="-29" font-family="Helvetica,sans-Serif" font-size="10.00">category()</text>
<text text-anchor="start" x="839" y="-14" font-family="Helvetica,sans-Serif" font-size="10.00">+</text>
<text text-anchor="start" x="852" y="-14" font-family="Helvetica,sans-Serif" font-size="10.00">typeStatic()</text>
<polygon fill="#666666" stroke="#666666" points="835,-219 835,-219 950,-219 950,-219 835,-219"/>
<polygon fill="#666666" stroke="#666666" points="835,-204 835,-204 950,-204 950,-204 835,-204"/>
<polygon fill="none" stroke="#666666" points="834.5,-7.5 834.5,-236.5 949.5,-236.5 949.5,-7.5 834.5,-7.5"/>
</a>
</g>
</g>
<!-- Node1&#45;&gt;Node8 -->
<g id="edge7_Node000001_Node000008" class="edge">
<title>Node1&#45;&gt;Node8</title>
<g id="a_edge7_Node000001_Node000008"><a xlink:title=" ">
<path fill="none" stroke="#63b8ff" d="M599.16,-387.73C659.56,-361.58 759.15,-311.76 825,-244 828.26,-240.64 831.42,-237.09 834.46,-233.4"/>
<polygon fill="none" stroke="#63b8ff" points="597.64,-384.57 589.82,-391.72 600.39,-391.01 597.64,-384.57"/>
</a>
</g>
</g>
<!-- Node9 -->
<g id="Node000009" class="node">
<title>Node9</title>
<g id="a_Node000009"><a xlink:href="classNAV_1_1VectorNavDataLogger.html" target="_top" xlink:title="Data Logger for VectorNav observations.">
<polygon fill="white" stroke="transparent" points="1112,-244 968,-244 968,0 1112,0 1112,-244"/>
<text text-anchor="start" x="973.5" y="-232" font-family="Helvetica,sans-Serif" font-size="10.00">NAV::VectorNavDataLogger</text>
<text text-anchor="start" x="1038" y="-217" font-family="Helvetica,sans-Serif" font-size="10.00"> </text>
<text text-anchor="start" x="972" y="-202" font-family="Helvetica,sans-Serif" font-size="10.00">+</text>
<text text-anchor="start" x="985" y="-202" font-family="Helvetica,sans-Serif" font-size="10.00">flush()</text>
<text text-anchor="start" x="972" y="-187" font-family="Helvetica,sans-Serif" font-size="10.00">+</text>
<text text-anchor="start" x="985" y="-187" font-family="Helvetica,sans-Serif" font-size="10.00">guiConfig()</text>
<text text-anchor="start" x="972" y="-172" font-family="Helvetica,sans-Serif" font-size="10.00">+</text>
<text text-anchor="start" x="985" y="-172" font-family="Helvetica,sans-Serif" font-size="10.00">onCreateLink()</text>
<text text-anchor="start" x="972" y="-157" font-family="Helvetica,sans-Serif" font-size="10.00">+</text>
<text text-anchor="start" x="985" y="-157" font-family="Helvetica,sans-Serif" font-size="10.00">operator=()</text>
<text text-anchor="start" x="972" y="-142" font-family="Helvetica,sans-Serif" font-size="10.00">+</text>
<text text-anchor="start" x="985" y="-142" font-family="Helvetica,sans-Serif" font-size="10.00">operator=()</text>
<text text-anchor="start" x="972" y="-127" font-family="Helvetica,sans-Serif" font-size="10.00">+</text>
<text text-anchor="start" x="985" y="-127" font-family="Helvetica,sans-Serif" font-size="10.00">restore()</text>
<text text-anchor="start" x="972" y="-112" font-family="Helvetica,sans-Serif" font-size="10.00">+</text>
<text text-anchor="start" x="985" y="-112" font-family="Helvetica,sans-Serif" font-size="10.00">save()</text>
<text text-anchor="start" x="972" y="-97" font-family="Helvetica,sans-Serif" font-size="10.00">+</text>
<text text-anchor="start" x="985" y="-97" font-family="Helvetica,sans-Serif" font-size="10.00">type()</text>
<text text-anchor="start" x="972" y="-82" font-family="Helvetica,sans-Serif" font-size="10.00">+</text>
<text text-anchor="start" x="985" y="-82" font-family="Helvetica,sans-Serif" font-size="10.00">VectorNavDataLogger()</text>
<text text-anchor="start" x="972" y="-67" font-family="Helvetica,sans-Serif" font-size="10.00">+</text>
<text text-anchor="start" x="985" y="-67" font-family="Helvetica,sans-Serif" font-size="10.00">VectorNavDataLogger()</text>
<text text-anchor="start" x="972" y="-52" font-family="Helvetica,sans-Serif" font-size="10.00">+</text>
<text text-anchor="start" x="985" y="-52" font-family="Helvetica,sans-Serif" font-size="10.00">VectorNavDataLogger()</text>
<text text-anchor="start" x="972" y="-37" font-family="Helvetica,sans-Serif" font-size="10.00">+</text>
<text text-anchor="start" x="985" y="-37" font-family="Helvetica,sans-Serif" font-size="10.00">~VectorNavDataLogger()</text>
<text text-anchor="start" x="972" y="-22" font-family="Helvetica,sans-Serif" font-size="10.00">+</text>
<text text-anchor="start" x="985" y="-22" font-family="Helvetica,sans-Serif" font-size="10.00">category()</text>
<text text-anchor="start" x="972" y="-7" font-family="Helvetica,sans-Serif" font-size="10.00">+</text>
<text text-anchor="start" x="985" y="-7" font-family="Helvetica,sans-Serif" font-size="10.00">typeStatic()</text>
<polygon fill="#666666" stroke="#666666" points="968,-227 968,-227 1112,-227 1112,-227 968,-227"/>
<polygon fill="#666666" stroke="#666666" points="968,-212 968,-212 1112,-212 1112,-212 968,-212"/>
<polygon fill="none" stroke="#666666" points="968,0 968,-244 1112,-244 1112,0 968,0"/>
</a>
</g>
</g>
<!-- Node1&#45;&gt;Node9 -->
<g id="edge8_Node000001_Node000009" class="edge">
<title>Node1&#45;&gt;Node9</title>
<g id="a_edge8_Node000001_Node000009"><a xlink:title=" ">
<path fill="none" stroke="#63b8ff" d="M599.29,-398.16C682.87,-379.5 848.4,-333.51 959,-244 962.05,-241.54 965.02,-238.92 967.92,-236.2"/>
<polygon fill="none" stroke="#63b8ff" points="598.53,-394.75 589.51,-400.31 600.03,-401.59 598.53,-394.75"/>
</a>
</g>
</g>
</g>
</svg>
