<?xml version="1.0" encoding="UTF-8" standalone="no"?>
<!DOCTYPE svg PUBLIC "-//W3C//DTD SVG 1.1//EN"
 "http://www.w3.org/Graphics/SVG/1.1/DTD/svg11.dtd">
<!-- Generated by graphviz version 2.43.0 (0)
 -->
<!-- Title: NAV::Demo Pages: 1 -->
<svg width="176pt" height="652pt"
 viewBox="0.00 0.00 176.00 652.00" xmlns="http://www.w3.org/2000/svg" xmlns:xlink="http://www.w3.org/1999/xlink">
<g id="graph0" class="graph" transform="scale(1 1) rotate(0) translate(4 648)">
<title>NAV::Demo</title>
<!-- Node1 -->
<g id="Node000001" class="node">
<title>Node1</title>
<g id="a_Node000001"><a xlink:title="Demonstrates the basic GUI functionality of nodes.">
<polygon fill="#999999" stroke="transparent" points="131,-259 37,-259 37,0 131,0 131,-259"/>
<text text-anchor="start" x="56.5" y="-246.5" font-family="Helvetica,sans-Serif" font-size="10.00">NAV::Demo</text>
<text text-anchor="start" x="82" y="-231.5" font-family="Helvetica,sans-Serif" font-size="10.00"> </text>
<text text-anchor="start" x="41" y="-216.5" font-family="Helvetica,sans-Serif" font-size="10.00">+</text>
<text text-anchor="start" x="54" y="-216.5" font-family="Helvetica,sans-Serif" font-size="10.00">Demo()</text>
<text text-anchor="start" x="41" y="-201.5" font-family="Helvetica,sans-Serif" font-size="10.00">+</text>
<text text-anchor="start" x="54" y="-201.5" font-family="Helvetica,sans-Serif" font-size="10.00">Demo()</text>
<text text-anchor="start" x="41" y="-186.5" font-family="Helvetica,sans-Serif" font-size="10.00">+</text>
<text text-anchor="start" x="54" y="-186.5" font-family="Helvetica,sans-Serif" font-size="10.00">Demo()</text>
<text text-anchor="start" x="41" y="-171.5" font-family="Helvetica,sans-Serif" font-size="10.00">+</text>
<text text-anchor="start" x="54" y="-171.5" font-family="Helvetica,sans-Serif" font-size="10.00">guiConfig()</text>
<text text-anchor="start" x="41" y="-156.5" font-family="Helvetica,sans-Serif" font-size="10.00">+</text>
<text text-anchor="start" x="54" y="-156.5" font-family="Helvetica,sans-Serif" font-size="10.00">onCreateLink()</text>
<text text-anchor="start" x="41" y="-141.5" font-family="Helvetica,sans-Serif" font-size="10.00">+</text>
<text text-anchor="start" x="54" y="-141.5" font-family="Helvetica,sans-Serif" font-size="10.00">onDeleteLink()</text>
<text text-anchor="start" x="41" y="-126.5" font-family="Helvetica,sans-Serif" font-size="10.00">+</text>
<text text-anchor="start" x="54" y="-126.5" font-family="Helvetica,sans-Serif" font-size="10.00">operator=()</text>
<text text-anchor="start" x="41" y="-111.5" font-family="Helvetica,sans-Serif" font-size="10.00">+</text>
<text text-anchor="start" x="54" y="-111.5" font-family="Helvetica,sans-Serif" font-size="10.00">operator=()</text>
<text text-anchor="start" x="41" y="-96.5" font-family="Helvetica,sans-Serif" font-size="10.00">+</text>
<text text-anchor="start" x="54" y="-96.5" font-family="Helvetica,sans-Serif" font-size="10.00">resetNode()</text>
<text text-anchor="start" x="41" y="-81.5" font-family="Helvetica,sans-Serif" font-size="10.00">+</text>
<text text-anchor="start" x="54" y="-81.5" font-family="Helvetica,sans-Serif" font-size="10.00">restore()</text>
<text text-anchor="start" x="41" y="-66.5" font-family="Helvetica,sans-Serif" font-size="10.00">+</text>
<text text-anchor="start" x="54" y="-66.5" font-family="Helvetica,sans-Serif" font-size="10.00">save()</text>
<text text-anchor="start" x="41" y="-51.5" font-family="Helvetica,sans-Serif" font-size="10.00">+</text>
<text text-anchor="start" x="54" y="-51.5" font-family="Helvetica,sans-Serif" font-size="10.00">type()</text>
<text text-anchor="start" x="41" y="-36.5" font-family="Helvetica,sans-Serif" font-size="10.00">+</text>
<text text-anchor="start" x="54" y="-36.5" font-family="Helvetica,sans-Serif" font-size="10.00">~Demo()</text>
<text text-anchor="start" x="41" y="-21.5" font-family="Helvetica,sans-Serif" font-size="10.00">+</text>
<text text-anchor="start" x="54" y="-21.5" font-family="Helvetica,sans-Serif" font-size="10.00">category()</text>
<text text-anchor="start" x="41" y="-6.5" font-family="Helvetica,sans-Serif" font-size="10.00">+</text>
<text text-anchor="start" x="54" y="-6.5" font-family="Helvetica,sans-Serif" font-size="10.00">typeStatic()</text>
<polygon fill="#666666" stroke="#666666" points="37,-241.5 37,-241.5 131,-241.5 131,-241.5 37,-241.5"/>
<polygon fill="#666666" stroke="#666666" points="37,-226.5 37,-226.5 131,-226.5 131,-226.5 37,-226.5"/>
<polygon fill="none" stroke="#666666" points="37,0 37,-259 131,-259 131,0 37,0"/>
</a>
</g>
</g>
<!-- Node2 -->
<g id="Node000002" class="node">
<title>Node2</title>
<g id="a_Node000002"><a xlink:href="classNAV_1_1Node.html" target="_top" xlink:title="Abstract parent class for all nodes.">
<polygon fill="white" stroke="transparent" points="168,-644 0,-644 0,-295 168,-295 168,-644"/>
<text text-anchor="start" x="58" y="-631.5" font-family="Helvetica,sans-Serif" font-size="10.00">NAV::Node</text>
<text text-anchor="start" x="4" y="-616.5" font-family="Helvetica,sans-Serif" font-size="10.00">+</text>
<text text-anchor="start" x="17" y="-616.5" font-family="Helvetica,sans-Serif" font-size="10.00">callbacksEnabled</text>
<text text-anchor="start" x="4" y="-601.5" font-family="Helvetica,sans-Serif" font-size="10.00">+</text>
<text text-anchor="start" x="17" y="-601.5" font-family="Helvetica,sans-Serif" font-size="10.00">id</text>
<text text-anchor="start" x="4" y="-586.5" font-family="Helvetica,sans-Serif" font-size="10.00">+</text>
<text text-anchor="start" x="17" y="-586.5" font-family="Helvetica,sans-Serif" font-size="10.00">inputPins</text>
<text text-anchor="start" x="4" y="-571.5" font-family="Helvetica,sans-Serif" font-size="10.00">+</text>
<text text-anchor="start" x="17" y="-571.5" font-family="Helvetica,sans-Serif" font-size="10.00">kind</text>
<text text-anchor="start" x="4" y="-556.5" font-family="Helvetica,sans-Serif" font-size="10.00">+</text>
<text text-anchor="start" x="17" y="-556.5" font-family="Helvetica,sans-Serif" font-size="10.00">name</text>
<text text-anchor="start" x="4" y="-541.5" font-family="Helvetica,sans-Serif" font-size="10.00">+</text>
<text text-anchor="start" x="17" y="-541.5" font-family="Helvetica,sans-Serif" font-size="10.00">outputPins</text>
<text text-anchor="start" x="4" y="-526.5" font-family="Helvetica,sans-Serif" font-size="10.00">+</text>
<text text-anchor="start" x="17" y="-526.5" font-family="Helvetica,sans-Serif" font-size="10.00">pollEvents</text>
<text text-anchor="start" x="4" y="-511.5" font-family="Helvetica,sans-Serif" font-size="10.00">#</text>
<text text-anchor="start" x="17" y="-511.5" font-family="Helvetica,sans-Serif" font-size="10.00">_guiConfigDefaultWindowSize</text>
<text text-anchor="start" x="4" y="-496.5" font-family="Helvetica,sans-Serif" font-size="10.00">#</text>
<text text-anchor="start" x="17" y="-496.5" font-family="Helvetica,sans-Serif" font-size="10.00">_hasConfig</text>
<text text-anchor="start" x="4" y="-481.5" font-family="Helvetica,sans-Serif" font-size="10.00">#</text>
<text text-anchor="start" x="17" y="-481.5" font-family="Helvetica,sans-Serif" font-size="10.00">_lockConfigDuringRun</text>
<text text-anchor="start" x="4" y="-466.5" font-family="Helvetica,sans-Serif" font-size="10.00">+</text>
<text text-anchor="start" x="17" y="-466.5" font-family="Helvetica,sans-Serif" font-size="10.00">afterCreateLink()</text>
<text text-anchor="start" x="4" y="-451.5" font-family="Helvetica,sans-Serif" font-size="10.00">+</text>
<text text-anchor="start" x="17" y="-451.5" font-family="Helvetica,sans-Serif" font-size="10.00">afterDeleteLink()</text>
<text text-anchor="start" x="4" y="-436.5" font-family="Helvetica,sans-Serif" font-size="10.00">+</text>
<text text-anchor="start" x="17" y="-436.5" font-family="Helvetica,sans-Serif" font-size="10.00">deinitialize()</text>
<text text-anchor="start" x="4" y="-421.5" font-family="Helvetica,sans-Serif" font-size="10.00">+</text>
<text text-anchor="start" x="17" y="-421.5" font-family="Helvetica,sans-Serif" font-size="10.00">doDeinitialize()</text>
<text text-anchor="start" x="4" y="-406.5" font-family="Helvetica,sans-Serif" font-size="10.00">+</text>
<text text-anchor="start" x="17" y="-406.5" font-family="Helvetica,sans-Serif" font-size="10.00">doDisable()</text>
<text text-anchor="start" x="4" y="-391.5" font-family="Helvetica,sans-Serif" font-size="10.00">+</text>
<text text-anchor="start" x="17" y="-391.5" font-family="Helvetica,sans-Serif" font-size="10.00">doEnable()</text>
<text text-anchor="start" x="4" y="-376.5" font-family="Helvetica,sans-Serif" font-size="10.00">+</text>
<text text-anchor="start" x="17" y="-376.5" font-family="Helvetica,sans-Serif" font-size="10.00">doInitialize()</text>
<text text-anchor="start" x="4" y="-361.5" font-family="Helvetica,sans-Serif" font-size="10.00">+</text>
<text text-anchor="start" x="17" y="-361.5" font-family="Helvetica,sans-Serif" font-size="10.00">doReinitialize()</text>
<text text-anchor="start" x="4" y="-346.5" font-family="Helvetica,sans-Serif" font-size="10.00">+</text>
<text text-anchor="start" x="17" y="-346.5" font-family="Helvetica,sans-Serif" font-size="10.00">flush()</text>
<text text-anchor="start" x="4" y="-331.5" font-family="Helvetica,sans-Serif" font-size="10.00">+</text>
<text text-anchor="start" x="17" y="-331.5" font-family="Helvetica,sans-Serif" font-size="10.00">getInputValue()</text>
<text text-anchor="start" x="17" y="-316.5" font-family="Helvetica,sans-Serif" font-size="10.00">and 32 more...</text>
<text text-anchor="start" x="4" y="-301.5" font-family="Helvetica,sans-Serif" font-size="10.00">+</text>
<text text-anchor="start" x="17" y="-301.5" font-family="Helvetica,sans-Serif" font-size="10.00">toString()</text>
<polygon fill="#666666" stroke="#666666" points="0,-626.5 0,-626.5 168,-626.5 168,-626.5 0,-626.5"/>
<polygon fill="#666666" stroke="#666666" points="0,-476.5 0,-476.5 15,-476.5 15,-476.5 0,-476.5"/>
<polygon fill="#666666" stroke="#666666" points="15,-476.5 15,-476.5 168,-476.5 168,-476.5 15,-476.5"/>
<polygon fill="none" stroke="#666666" points="0,-295 0,-644 168,-644 168,-295 0,-295"/>
</a>
</g>
</g>
<!-- Node2&#45;&gt;Node1 -->
<g id="edge1_Node000001_Node000002" class="edge">
<title>Node2&#45;&gt;Node1</title>
<g id="a_edge1_Node000001_Node000002"><a xlink:title=" ">
<path fill="none" stroke="#63b8ff" d="M84,-284.32C84,-275.96 84,-267.64 84,-259.45"/>
<polygon fill="none" stroke="#63b8ff" points="80.5,-284.55 84,-294.55 87.5,-284.55 80.5,-284.55"/>
</a>
</g>
</g>
</g>
</svg>
