<?xml version="1.0" encoding="UTF-8" standalone="no"?>
<!DOCTYPE svg PUBLIC "-//W3C//DTD SVG 1.1//EN"
 "http://www.w3.org/Graphics/SVG/1.1/DTD/svg11.dtd">
<!-- Generated by graphviz version 2.43.0 (0)
 -->
<!-- Title: NAV::Pos Pages: 1 -->
<svg width="447pt" height="827pt"
 viewBox="0.00 0.00 446.50 827.00" xmlns="http://www.w3.org/2000/svg" xmlns:xlink="http://www.w3.org/1999/xlink">
<g id="graph0" class="graph" transform="scale(1 1) rotate(0) translate(4 823)">
<title>NAV::Pos</title>
<!-- Node1 -->
<g id="node1" class="node">
<title>Node1</title>
<g id="a_node1"><a xlink:title="Position, Velocity and Attitude Storage Class.">
<polygon fill="#999999" stroke="#666666" points="158.5,-480.5 158.5,-647.5 265.5,-647.5 265.5,-480.5 158.5,-480.5"/>
<text text-anchor="middle" x="212" y="-635.5" font-family="Helvetica,sans-Serif" font-size="10.00">NAV::Pos</text>
<polyline fill="none" stroke="#666666" points="158.5,-628.5 265.5,-628.5 "/>
<text text-anchor="middle" x="212" y="-616.5" font-family="Helvetica,sans-Serif" font-size="10.00"> </text>
<polyline fill="none" stroke="#666666" points="158.5,-609.5 265.5,-609.5 "/>
<text text-anchor="start" x="166.5" y="-597.5" font-family="Helvetica,sans-Serif" font-size="10.00">+ altitude()</text>
<text text-anchor="start" x="166.5" y="-586.5" font-family="Helvetica,sans-Serif" font-size="10.00">+ e_position()</text>
<text text-anchor="start" x="166.5" y="-575.5" font-family="Helvetica,sans-Serif" font-size="10.00">+ e_Quat_n()</text>
<text text-anchor="start" x="166.5" y="-564.5" font-family="Helvetica,sans-Serif" font-size="10.00">+ latitude()</text>
<text text-anchor="start" x="166.5" y="-553.5" font-family="Helvetica,sans-Serif" font-size="10.00">+ lla_position()</text>
<text text-anchor="start" x="166.5" y="-542.5" font-family="Helvetica,sans-Serif" font-size="10.00">+ longitude()</text>
<text text-anchor="start" x="166.5" y="-531.5" font-family="Helvetica,sans-Serif" font-size="10.00">+ n_Quat_e()</text>
<text text-anchor="start" x="166.5" y="-520.5" font-family="Helvetica,sans-Serif" font-size="10.00">+ setPosition_e()</text>
<text text-anchor="start" x="166.5" y="-509.5" font-family="Helvetica,sans-Serif" font-size="10.00">+ setPosition_lla()</text>
<text text-anchor="start" x="166.5" y="-498.5" font-family="Helvetica,sans-Serif" font-size="10.00">+ parentTypes()</text>
<text text-anchor="start" x="166.5" y="-487.5" font-family="Helvetica,sans-Serif" font-size="10.00">+ type()</text>
</a>
</g>
</g>
<!-- Node3 -->
<g id="node3" class="node">
<title>Node3</title>
<g id="a_node3"><a xlink:href="classNAV_1_1PosVel.html" target="_top" xlink:title="Position, Velocity and Attitude Storage Class.">
<polygon fill="white" stroke="#666666" points="161.5,-331.5 161.5,-443.5 262.5,-443.5 262.5,-331.5 161.5,-331.5"/>
<text text-anchor="middle" x="212" y="-431.5" font-family="Helvetica,sans-Serif" font-size="10.00">NAV::PosVel</text>
<polyline fill="none" stroke="#666666" points="161.5,-424.5 262.5,-424.5 "/>
<text text-anchor="middle" x="212" y="-412.5" font-family="Helvetica,sans-Serif" font-size="10.00"> </text>
<polyline fill="none" stroke="#666666" points="161.5,-405.5 262.5,-405.5 "/>
<text text-anchor="start" x="169.5" y="-393.5" font-family="Helvetica,sans-Serif" font-size="10.00">+ e_velocity()</text>
<text text-anchor="start" x="169.5" y="-382.5" font-family="Helvetica,sans-Serif" font-size="10.00">+ n_velocity()</text>
<text text-anchor="start" x="169.5" y="-371.5" font-family="Helvetica,sans-Serif" font-size="10.00">+ setVelocity_e()</text>
<text text-anchor="start" x="169.5" y="-360.5" font-family="Helvetica,sans-Serif" font-size="10.00">+ setVelocity_n()</text>
<text text-anchor="start" x="169.5" y="-349.5" font-family="Helvetica,sans-Serif" font-size="10.00">+ parentTypes()</text>
<text text-anchor="start" x="169.5" y="-338.5" font-family="Helvetica,sans-Serif" font-size="10.00">+ type()</text>
</a>
</g>
</g>
<!-- Node1&#45;&gt;Node3 -->
<g id="edge2" class="edge">
<title>Node1&#45;&gt;Node3</title>
<path fill="none" stroke="#63b8ff" d="M212,-470.23C212,-461.27 212,-452.39 212,-443.97"/>
<polygon fill="none" stroke="#63b8ff" points="208.5,-470.35 212,-480.35 215.5,-470.35 208.5,-470.35"/>
</g>
<!-- Node2 -->
<g id="node2" class="node">
<title>Node2</title>
<g id="a_node2"><a xlink:href="classNAV_1_1NodeData.html" target="_top" xlink:title="Parent class for all data transmitted over Flow pins.">
<polygon fill="white" stroke="#666666" points="164.5,-684.5 164.5,-818.5 259.5,-818.5 259.5,-684.5 164.5,-684.5"/>
<text text-anchor="middle" x="212" y="-806.5" font-family="Helvetica,sans-Serif" font-size="10.00">NAV::NodeData</text>
<polyline fill="none" stroke="#666666" points="164.5,-799.5 259.5,-799.5 "/>
<text text-anchor="start" x="172.5" y="-787.5" font-family="Helvetica,sans-Serif" font-size="10.00">+ insTime</text>
<polyline fill="none" stroke="#666666" points="164.5,-780.5 259.5,-780.5 "/>
<text text-anchor="start" x="172.5" y="-768.5" font-family="Helvetica,sans-Serif" font-size="10.00">+ NodeData()</text>
<text text-anchor="start" x="172.5" y="-757.5" font-family="Helvetica,sans-Serif" font-size="10.00">+ NodeData()</text>
<text text-anchor="start" x="172.5" y="-746.5" font-family="Helvetica,sans-Serif" font-size="10.00">+ NodeData()</text>
<text text-anchor="start" x="172.5" y="-735.5" font-family="Helvetica,sans-Serif" font-size="10.00">+ operator=()</text>
<text text-anchor="start" x="172.5" y="-724.5" font-family="Helvetica,sans-Serif" font-size="10.00">+ operator=()</text>
<text text-anchor="start" x="172.5" y="-713.5" font-family="Helvetica,sans-Serif" font-size="10.00">+ ~NodeData()</text>
<text text-anchor="start" x="172.5" y="-702.5" font-family="Helvetica,sans-Serif" font-size="10.00">+ parentTypes()</text>
<text text-anchor="start" x="172.5" y="-691.5" font-family="Helvetica,sans-Serif" font-size="10.00">+ type()</text>
</a>
</g>
</g>
<!-- Node2&#45;&gt;Node1 -->
<g id="edge1" class="edge">
<title>Node2&#45;&gt;Node1</title>
<path fill="none" stroke="#63b8ff" d="M212,-674.18C212,-665.44 212,-656.51 212,-647.7"/>
<polygon fill="none" stroke="#63b8ff" points="208.5,-674.32 212,-684.32 215.5,-674.32 208.5,-674.32"/>
</g>
<!-- Node4 -->
<g id="node4" class="node">
<title>Node4</title>
<g id="a_node4"><a xlink:href="classNAV_1_1PosVelAtt.html" target="_top" xlink:title="Position, Velocity and Attitude Storage Class.">
<polygon fill="white" stroke="#666666" points="0,-116.5 0,-283.5 140,-283.5 140,-116.5 0,-116.5"/>
<text text-anchor="middle" x="70" y="-271.5" font-family="Helvetica,sans-Serif" font-size="10.00">NAV::PosVelAtt</text>
<polyline fill="none" stroke="#666666" points="0,-264.5 140,-264.5 "/>
<text text-anchor="middle" x="70" y="-252.5" font-family="Helvetica,sans-Serif" font-size="10.00"> </text>
<polyline fill="none" stroke="#666666" points="0,-245.5 140,-245.5 "/>
<text text-anchor="start" x="8" y="-233.5" font-family="Helvetica,sans-Serif" font-size="10.00">+ b_Quat_e()</text>
<text text-anchor="start" x="8" y="-222.5" font-family="Helvetica,sans-Serif" font-size="10.00">+ b_Quat_n()</text>
<text text-anchor="start" x="8" y="-211.5" font-family="Helvetica,sans-Serif" font-size="10.00">+ e_Quat_b()</text>
<text text-anchor="start" x="8" y="-200.5" font-family="Helvetica,sans-Serif" font-size="10.00">+ n_Quat_b()</text>
<text text-anchor="start" x="8" y="-189.5" font-family="Helvetica,sans-Serif" font-size="10.00">+ rollPitchYaw()</text>
<text text-anchor="start" x="8" y="-178.5" font-family="Helvetica,sans-Serif" font-size="10.00">+ setAttitude_e_Quat_b()</text>
<text text-anchor="start" x="8" y="-167.5" font-family="Helvetica,sans-Serif" font-size="10.00">+ setAttitude_n_Quat_b()</text>
<text text-anchor="start" x="8" y="-156.5" font-family="Helvetica,sans-Serif" font-size="10.00">+ setState_e()</text>
<text text-anchor="start" x="8" y="-145.5" font-family="Helvetica,sans-Serif" font-size="10.00">+ setState_n()</text>
<text text-anchor="start" x="8" y="-134.5" font-family="Helvetica,sans-Serif" font-size="10.00">+ parentTypes()</text>
<text text-anchor="start" x="8" y="-123.5" font-family="Helvetica,sans-Serif" font-size="10.00">+ type()</text>
</a>
</g>
</g>
<!-- Node3&#45;&gt;Node4 -->
<g id="edge3" class="edge">
<title>Node3&#45;&gt;Node4</title>
<path fill="none" stroke="#63b8ff" d="M163.5,-323.15C153.8,-310.47 143.47,-296.98 133.35,-283.76"/>
<polygon fill="none" stroke="#63b8ff" points="160.92,-325.53 169.78,-331.35 166.48,-321.28 160.92,-325.53"/>
</g>
<!-- Node6 -->
<g id="node6" class="node">
<title>Node6</title>
<g id="a_node6"><a xlink:href="classNAV_1_1RtklibPosObs.html" target="_top" xlink:title="RTKLIB Observation Class.">
<polygon fill="white" stroke="#666666" points="158.5,-111 158.5,-289 265.5,-289 265.5,-111 158.5,-111"/>
<text text-anchor="middle" x="212" y="-277" font-family="Helvetica,sans-Serif" font-size="10.00">NAV::RtklibPosObs</text>
<polyline fill="none" stroke="#666666" points="158.5,-270 265.5,-270 "/>
<text text-anchor="start" x="166.5" y="-258" font-family="Helvetica,sans-Serif" font-size="10.00">+ age</text>
<text text-anchor="start" x="166.5" y="-247" font-family="Helvetica,sans-Serif" font-size="10.00">+ ns</text>
<text text-anchor="start" x="166.5" y="-236" font-family="Helvetica,sans-Serif" font-size="10.00">+ Q</text>
<text text-anchor="start" x="166.5" y="-225" font-family="Helvetica,sans-Serif" font-size="10.00">+ ratio</text>
<text text-anchor="start" x="166.5" y="-214" font-family="Helvetica,sans-Serif" font-size="10.00">+ sddn</text>
<text text-anchor="start" x="166.5" y="-203" font-family="Helvetica,sans-Serif" font-size="10.00">+ sded</text>
<text text-anchor="start" x="166.5" y="-192" font-family="Helvetica,sans-Serif" font-size="10.00">+ sdne</text>
<text text-anchor="start" x="166.5" y="-181" font-family="Helvetica,sans-Serif" font-size="10.00">+ sdNED</text>
<text text-anchor="start" x="166.5" y="-170" font-family="Helvetica,sans-Serif" font-size="10.00">+ sdvdn</text>
<text text-anchor="start" x="166.5" y="-159" font-family="Helvetica,sans-Serif" font-size="10.00">+ sdved</text>
<text text-anchor="start" x="166.5" y="-148" font-family="Helvetica,sans-Serif" font-size="10.00">and 6 more...</text>
<polyline fill="none" stroke="#666666" points="158.5,-141 265.5,-141 "/>
<text text-anchor="start" x="166.5" y="-129" font-family="Helvetica,sans-Serif" font-size="10.00">+ parentTypes()</text>
<text text-anchor="start" x="166.5" y="-118" font-family="Helvetica,sans-Serif" font-size="10.00">+ type()</text>
</a>
</g>
</g>
<!-- Node3&#45;&gt;Node6 -->
<g id="edge5" class="edge">
<title>Node3&#45;&gt;Node6</title>
<path fill="none" stroke="#63b8ff" d="M212,-321.2C212,-310.88 212,-300.05 212,-289.3"/>
<polygon fill="none" stroke="#63b8ff" points="208.5,-321.35 212,-331.35 215.5,-321.35 208.5,-321.35"/>
</g>
<!-- Node7 -->
<g id="node7" class="node">
<title>Node7</title>
<g id="a_node7"><a xlink:href="classNAV_1_1SppSolution.html" target="_top" xlink:title="SPP Algorithm output.">
<polygon fill="white" stroke="#666666" points="283.5,-105.5 283.5,-294.5 438.5,-294.5 438.5,-105.5 283.5,-105.5"/>
<text text-anchor="middle" x="361" y="-282.5" font-family="Helvetica,sans-Serif" font-size="10.00">NAV::SppSolution</text>
<polyline fill="none" stroke="#666666" points="283.5,-275.5 438.5,-275.5 "/>
<text text-anchor="start" x="291.5" y="-263.5" font-family="Helvetica,sans-Serif" font-size="10.00">+ clkBias</text>
<text text-anchor="start" x="291.5" y="-252.5" font-family="Helvetica,sans-Serif" font-size="10.00">+ clkBiasStdev</text>
<text text-anchor="start" x="291.5" y="-241.5" font-family="Helvetica,sans-Serif" font-size="10.00">+ clkDrift</text>
<text text-anchor="start" x="291.5" y="-230.5" font-family="Helvetica,sans-Serif" font-size="10.00">+ clkDriftStdev</text>
<text text-anchor="start" x="291.5" y="-219.5" font-family="Helvetica,sans-Serif" font-size="10.00">+ nSatellitesPosition</text>
<text text-anchor="start" x="291.5" y="-208.5" font-family="Helvetica,sans-Serif" font-size="10.00">+ nSatellitesVelocity</text>
<polyline fill="none" stroke="#666666" points="283.5,-201.5 438.5,-201.5 "/>
<text text-anchor="start" x="291.5" y="-189.5" font-family="Helvetica,sans-Serif" font-size="10.00">+ e_positionStdev()</text>
<text text-anchor="start" x="291.5" y="-178.5" font-family="Helvetica,sans-Serif" font-size="10.00">+ e_velocityStdev()</text>
<text text-anchor="start" x="291.5" y="-167.5" font-family="Helvetica,sans-Serif" font-size="10.00">+ n_positionStdev()</text>
<text text-anchor="start" x="291.5" y="-156.5" font-family="Helvetica,sans-Serif" font-size="10.00">+ n_velocityStdev()</text>
<text text-anchor="start" x="291.5" y="-145.5" font-family="Helvetica,sans-Serif" font-size="10.00">+ setPositionAndStdDev_e()</text>
<text text-anchor="start" x="291.5" y="-134.5" font-family="Helvetica,sans-Serif" font-size="10.00">+ setVelocityAndStdDev_e()</text>
<text text-anchor="start" x="291.5" y="-123.5" font-family="Helvetica,sans-Serif" font-size="10.00">+ parentTypes()</text>
<text text-anchor="start" x="291.5" y="-112.5" font-family="Helvetica,sans-Serif" font-size="10.00">+ type()</text>
</a>
</g>
</g>
<!-- Node3&#45;&gt;Node7 -->
<g id="edge6" class="edge">
<title>Node3&#45;&gt;Node7</title>
<path fill="none" stroke="#63b8ff" d="M262.77,-323.3C270.24,-314 278.06,-304.26 285.9,-294.5"/>
<polygon fill="none" stroke="#63b8ff" points="259.84,-321.36 256.3,-331.35 265.29,-325.74 259.84,-321.36"/>
</g>
<!-- Node5 -->
<g id="node5" class="node">
<title>Node5</title>
<g id="a_node5"><a xlink:href="classNAV_1_1InertialNavSol.html" target="_top" xlink:title="Position, Velocity and Attitude Storage Class.">
<polygon fill="white" stroke="#666666" points="14.5,-0.5 14.5,-68.5 125.5,-68.5 125.5,-0.5 14.5,-0.5"/>
<text text-anchor="middle" x="70" y="-56.5" font-family="Helvetica,sans-Serif" font-size="10.00">NAV::InertialNavSol</text>
<polyline fill="none" stroke="#666666" points="14.5,-49.5 125.5,-49.5 "/>
<text text-anchor="start" x="22.5" y="-37.5" font-family="Helvetica,sans-Serif" font-size="10.00">+ imuObs</text>
<polyline fill="none" stroke="#666666" points="14.5,-30.5 125.5,-30.5 "/>
<text text-anchor="start" x="22.5" y="-18.5" font-family="Helvetica,sans-Serif" font-size="10.00">+ parentTypes()</text>
<text text-anchor="start" x="22.5" y="-7.5" font-family="Helvetica,sans-Serif" font-size="10.00">+ type()</text>
</a>
</g>
</g>
<!-- Node4&#45;&gt;Node5 -->
<g id="edge4" class="edge">
<title>Node4&#45;&gt;Node5</title>
<path fill="none" stroke="#63b8ff" d="M70,-105.99C70,-92.6 70,-79.62 70,-68.52"/>
<polygon fill="none" stroke="#63b8ff" points="66.5,-106.29 70,-116.29 73.5,-106.29 66.5,-106.29"/>
</g>
</g>
</svg>
