<?xml version="1.0" encoding="UTF-8" standalone="no"?>
<!DOCTYPE svg PUBLIC "-//W3C//DTD SVG 1.1//EN"
 "http://www.w3.org/Graphics/SVG/1.1/DTD/svg11.dtd">
<!-- Generated by graphviz version 2.43.0 (0)
 -->
<!-- Title: NAV::Clock Pages: 1 -->
<svg width="742pt" height="692pt"
 viewBox="0.00 0.00 742.00 692.00" xmlns="http://www.w3.org/2000/svg" xmlns:xlink="http://www.w3.org/1999/xlink">
<g id="graph0" class="graph" transform="scale(1 1) rotate(0) translate(4 688)">
<title>NAV::Clock</title>
<!-- Node1 -->
<g id="Node000001" class="node">
<title>Node1</title>
<g id="a_Node000001"><a xlink:title="Abstract satellite clock information.">
<polygon fill="#999999" stroke="transparent" points="432.5,-684 301.5,-684 301.5,-545 432.5,-545 432.5,-684"/>
<text text-anchor="start" x="341" y="-671.5" font-family="Helvetica,sans-Serif" font-size="10.00">NAV::Clock</text>
<text text-anchor="start" x="365.5" y="-656.5" font-family="Helvetica,sans-Serif" font-size="10.00"> </text>
<text text-anchor="start" x="306" y="-641.5" font-family="Helvetica,sans-Serif" font-size="10.00">+</text>
<text text-anchor="start" x="319" y="-641.5" font-family="Helvetica,sans-Serif" font-size="10.00">calcClockCorrections()</text>
<text text-anchor="start" x="306" y="-626.5" font-family="Helvetica,sans-Serif" font-size="10.00">+</text>
<text text-anchor="start" x="319" y="-626.5" font-family="Helvetica,sans-Serif" font-size="10.00">Clock()</text>
<text text-anchor="start" x="306" y="-611.5" font-family="Helvetica,sans-Serif" font-size="10.00">+</text>
<text text-anchor="start" x="319" y="-611.5" font-family="Helvetica,sans-Serif" font-size="10.00">Clock()</text>
<text text-anchor="start" x="306" y="-596.5" font-family="Helvetica,sans-Serif" font-size="10.00">+</text>
<text text-anchor="start" x="319" y="-596.5" font-family="Helvetica,sans-Serif" font-size="10.00">Clock()</text>
<text text-anchor="start" x="306" y="-581.5" font-family="Helvetica,sans-Serif" font-size="10.00">+</text>
<text text-anchor="start" x="319" y="-581.5" font-family="Helvetica,sans-Serif" font-size="10.00">operator=()</text>
<text text-anchor="start" x="306" y="-566.5" font-family="Helvetica,sans-Serif" font-size="10.00">+</text>
<text text-anchor="start" x="319" y="-566.5" font-family="Helvetica,sans-Serif" font-size="10.00">operator=()</text>
<text text-anchor="start" x="306" y="-551.5" font-family="Helvetica,sans-Serif" font-size="10.00">+</text>
<text text-anchor="start" x="319" y="-551.5" font-family="Helvetica,sans-Serif" font-size="10.00">~Clock()</text>
<polygon fill="#666666" stroke="#666666" points="302,-666.5 302,-666.5 433,-666.5 433,-666.5 302,-666.5"/>
<polygon fill="#666666" stroke="#666666" points="302,-651.5 302,-651.5 433,-651.5 433,-651.5 302,-651.5"/>
<polygon fill="none" stroke="#666666" points="301.5,-545 301.5,-684 432.5,-684 432.5,-545 301.5,-545"/>
</a>
</g>
</g>
<!-- Node2 -->
<g id="Node000002" class="node">
<title>Node2</title>
<g id="a_Node000002"><a xlink:href="classNAV_1_1SatNavData.html" target="_top" xlink:title="Satellite Navigation data (to calculate SatNavData and clock)">
<polygon fill="white" stroke="transparent" points="415,-509 319,-509 319,-355 415,-355 415,-509"/>
<text text-anchor="start" x="324.5" y="-497" font-family="Helvetica,sans-Serif" font-size="10.00">NAV::SatNavData</text>
<text text-anchor="start" x="323" y="-482" font-family="Helvetica,sans-Serif" font-size="10.00">+</text>
<text text-anchor="start" x="336" y="-482" font-family="Helvetica,sans-Serif" font-size="10.00">refTime</text>
<text text-anchor="start" x="323" y="-467" font-family="Helvetica,sans-Serif" font-size="10.00">+</text>
<text text-anchor="start" x="336" y="-467" font-family="Helvetica,sans-Serif" font-size="10.00">type</text>
<text text-anchor="start" x="323" y="-452" font-family="Helvetica,sans-Serif" font-size="10.00">+</text>
<text text-anchor="start" x="336" y="-452" font-family="Helvetica,sans-Serif" font-size="10.00">isHealthy()</text>
<text text-anchor="start" x="323" y="-437" font-family="Helvetica,sans-Serif" font-size="10.00">+</text>
<text text-anchor="start" x="336" y="-437" font-family="Helvetica,sans-Serif" font-size="10.00">operator=()</text>
<text text-anchor="start" x="323" y="-422" font-family="Helvetica,sans-Serif" font-size="10.00">+</text>
<text text-anchor="start" x="336" y="-422" font-family="Helvetica,sans-Serif" font-size="10.00">operator=()</text>
<text text-anchor="start" x="323" y="-407" font-family="Helvetica,sans-Serif" font-size="10.00">+</text>
<text text-anchor="start" x="336" y="-407" font-family="Helvetica,sans-Serif" font-size="10.00">SatNavData()</text>
<text text-anchor="start" x="323" y="-392" font-family="Helvetica,sans-Serif" font-size="10.00">+</text>
<text text-anchor="start" x="336" y="-392" font-family="Helvetica,sans-Serif" font-size="10.00">SatNavData()</text>
<text text-anchor="start" x="323" y="-377" font-family="Helvetica,sans-Serif" font-size="10.00">+</text>
<text text-anchor="start" x="336" y="-377" font-family="Helvetica,sans-Serif" font-size="10.00">SatNavData()</text>
<text text-anchor="start" x="323" y="-362" font-family="Helvetica,sans-Serif" font-size="10.00">+</text>
<text text-anchor="start" x="336" y="-362" font-family="Helvetica,sans-Serif" font-size="10.00">~SatNavData()</text>
<polygon fill="#666666" stroke="#666666" points="319,-492 319,-492 415,-492 415,-492 319,-492"/>
<polygon fill="#666666" stroke="#666666" points="319,-462 319,-462 334,-462 334,-462 319,-462"/>
<polygon fill="#666666" stroke="#666666" points="334,-462 334,-462 415,-462 415,-462 334,-462"/>
<polygon fill="none" stroke="#666666" points="319,-355 319,-509 415,-509 415,-355 319,-355"/>
</a>
</g>
</g>
<!-- Node1&#45;&gt;Node2 -->
<g id="edge1_Node000001_Node000002" class="edge">
<title>Node1&#45;&gt;Node2</title>
<g id="a_edge1_Node000001_Node000002"><a xlink:title=" ">
<path fill="none" stroke="#63b8ff" d="M367,-534.53C367,-526.08 367,-517.5 367,-509.09"/>
<polygon fill="none" stroke="#63b8ff" points="363.5,-534.75 367,-544.75 370.5,-534.75 363.5,-534.75"/>
</a>
</g>
</g>
<!-- Node3 -->
<g id="Node000003" class="node">
<title>Node3</title>
<g id="a_Node000003"><a xlink:href="classNAV_1_1BDSEphemeris.html" target="_top" xlink:title="Broadcasted ephemeris message data.">
<polygon fill="white" stroke="transparent" points="170,-319 0,-319 0,0 170,0 170,-319"/>
<text text-anchor="start" x="36" y="-306.5" font-family="Helvetica,sans-Serif" font-size="10.00">NAV::BDSEphemeris</text>
<text text-anchor="start" x="4" y="-291.5" font-family="Helvetica,sans-Serif" font-size="10.00">+</text>
<text text-anchor="start" x="17" y="-291.5" font-family="Helvetica,sans-Serif" font-size="10.00">a</text>
<text text-anchor="start" x="4" y="-276.5" font-family="Helvetica,sans-Serif" font-size="10.00">+</text>
<text text-anchor="start" x="17" y="-276.5" font-family="Helvetica,sans-Serif" font-size="10.00">AODC</text>
<text text-anchor="start" x="4" y="-261.5" font-family="Helvetica,sans-Serif" font-size="10.00">+</text>
<text text-anchor="start" x="17" y="-261.5" font-family="Helvetica,sans-Serif" font-size="10.00">AODE</text>
<text text-anchor="start" x="4" y="-246.5" font-family="Helvetica,sans-Serif" font-size="10.00">+</text>
<text text-anchor="start" x="17" y="-246.5" font-family="Helvetica,sans-Serif" font-size="10.00">Cic</text>
<text text-anchor="start" x="4" y="-231.5" font-family="Helvetica,sans-Serif" font-size="10.00">+</text>
<text text-anchor="start" x="17" y="-231.5" font-family="Helvetica,sans-Serif" font-size="10.00">Cis</text>
<text text-anchor="start" x="4" y="-216.5" font-family="Helvetica,sans-Serif" font-size="10.00">+</text>
<text text-anchor="start" x="17" y="-216.5" font-family="Helvetica,sans-Serif" font-size="10.00">Crc</text>
<text text-anchor="start" x="4" y="-201.5" font-family="Helvetica,sans-Serif" font-size="10.00">+</text>
<text text-anchor="start" x="17" y="-201.5" font-family="Helvetica,sans-Serif" font-size="10.00">Crs</text>
<text text-anchor="start" x="4" y="-186.5" font-family="Helvetica,sans-Serif" font-size="10.00">+</text>
<text text-anchor="start" x="17" y="-186.5" font-family="Helvetica,sans-Serif" font-size="10.00">Cuc</text>
<text text-anchor="start" x="4" y="-171.5" font-family="Helvetica,sans-Serif" font-size="10.00">+</text>
<text text-anchor="start" x="17" y="-171.5" font-family="Helvetica,sans-Serif" font-size="10.00">Cus</text>
<text text-anchor="start" x="4" y="-156.5" font-family="Helvetica,sans-Serif" font-size="10.00">+</text>
<text text-anchor="start" x="17" y="-156.5" font-family="Helvetica,sans-Serif" font-size="10.00">delta_n</text>
<text text-anchor="start" x="17" y="-141.5" font-family="Helvetica,sans-Serif" font-size="10.00">and 14 more...</text>
<text text-anchor="start" x="4" y="-126.5" font-family="Helvetica,sans-Serif" font-size="10.00">+</text>
<text text-anchor="start" x="17" y="-126.5" font-family="Helvetica,sans-Serif" font-size="10.00">BDSEphemeris()</text>
<text text-anchor="start" x="4" y="-111.5" font-family="Helvetica,sans-Serif" font-size="10.00">+</text>
<text text-anchor="start" x="17" y="-111.5" font-family="Helvetica,sans-Serif" font-size="10.00">BDSEphemeris()</text>
<text text-anchor="start" x="4" y="-96.5" font-family="Helvetica,sans-Serif" font-size="10.00">+</text>
<text text-anchor="start" x="17" y="-96.5" font-family="Helvetica,sans-Serif" font-size="10.00">BDSEphemeris()</text>
<text text-anchor="start" x="4" y="-81.5" font-family="Helvetica,sans-Serif" font-size="10.00">+</text>
<text text-anchor="start" x="17" y="-81.5" font-family="Helvetica,sans-Serif" font-size="10.00">calcClockCorrections()</text>
<text text-anchor="start" x="4" y="-66.5" font-family="Helvetica,sans-Serif" font-size="10.00">+</text>
<text text-anchor="start" x="17" y="-66.5" font-family="Helvetica,sans-Serif" font-size="10.00">calcSatellitePositionVariance()</text>
<text text-anchor="start" x="4" y="-51.5" font-family="Helvetica,sans-Serif" font-size="10.00">+</text>
<text text-anchor="start" x="17" y="-51.5" font-family="Helvetica,sans-Serif" font-size="10.00">isHealthy()</text>
<text text-anchor="start" x="4" y="-36.5" font-family="Helvetica,sans-Serif" font-size="10.00">+</text>
<text text-anchor="start" x="17" y="-36.5" font-family="Helvetica,sans-Serif" font-size="10.00">operator=()</text>
<text text-anchor="start" x="4" y="-21.5" font-family="Helvetica,sans-Serif" font-size="10.00">+</text>
<text text-anchor="start" x="17" y="-21.5" font-family="Helvetica,sans-Serif" font-size="10.00">operator=()</text>
<text text-anchor="start" x="4" y="-6.5" font-family="Helvetica,sans-Serif" font-size="10.00">+</text>
<text text-anchor="start" x="17" y="-6.5" font-family="Helvetica,sans-Serif" font-size="10.00">~BDSEphemeris()</text>
<polygon fill="#666666" stroke="#666666" points="0,-301.5 0,-301.5 170,-301.5 170,-301.5 0,-301.5"/>
<polygon fill="#666666" stroke="#666666" points="0,-136.5 0,-136.5 15,-136.5 15,-136.5 0,-136.5"/>
<polygon fill="#666666" stroke="#666666" points="15,-136.5 15,-136.5 170,-136.5 170,-136.5 15,-136.5"/>
<polygon fill="none" stroke="#666666" points="0,0 0,-319 170,-319 170,0 0,0"/>
</a>
</g>
</g>
<!-- Node2&#45;&gt;Node3 -->
<g id="edge2_Node000002_Node000003" class="edge">
<title>Node2&#45;&gt;Node3</title>
<g id="a_edge2_Node000002_Node000003"><a xlink:title=" ">
<path fill="none" stroke="#63b8ff" d="M309.8,-406.27C269.69,-386.85 216.72,-356.8 179,-319 175.95,-315.94 172.96,-312.77 170.03,-309.49"/>
<polygon fill="none" stroke="#63b8ff" points="308.39,-409.48 318.92,-410.61 311.4,-403.16 308.39,-409.48"/>
</a>
</g>
</g>
<!-- Node4 -->
<g id="Node000004" class="node">
<title>Node4</title>
<g id="a_Node000004"><a xlink:href="classNAV_1_1GLONASSEphemeris.html" target="_top" xlink:title="Broadcasted ephemeris message data.">
<polygon fill="white" stroke="transparent" points="358,-304 188,-304 188,-15 358,-15 358,-304"/>
<text text-anchor="start" x="211" y="-291.5" font-family="Helvetica,sans-Serif" font-size="10.00">NAV::GLONASSEphemeris</text>
<text text-anchor="start" x="192" y="-276.5" font-family="Helvetica,sans-Serif" font-size="10.00">+</text>
<text text-anchor="start" x="205" y="-276.5" font-family="Helvetica,sans-Serif" font-size="10.00">frequencyNumber</text>
<text text-anchor="start" x="192" y="-261.5" font-family="Helvetica,sans-Serif" font-size="10.00">+</text>
<text text-anchor="start" x="205" y="-261.5" font-family="Helvetica,sans-Serif" font-size="10.00">gamma_n</text>
<text text-anchor="start" x="192" y="-246.5" font-family="Helvetica,sans-Serif" font-size="10.00">+</text>
<text text-anchor="start" x="205" y="-246.5" font-family="Helvetica,sans-Serif" font-size="10.00">health</text>
<text text-anchor="start" x="192" y="-231.5" font-family="Helvetica,sans-Serif" font-size="10.00">+</text>
<text text-anchor="start" x="205" y="-231.5" font-family="Helvetica,sans-Serif" font-size="10.00">PZ90_accelLuniSolar</text>
<text text-anchor="start" x="192" y="-216.5" font-family="Helvetica,sans-Serif" font-size="10.00">+</text>
<text text-anchor="start" x="205" y="-216.5" font-family="Helvetica,sans-Serif" font-size="10.00">PZ90_pos</text>
<text text-anchor="start" x="192" y="-201.5" font-family="Helvetica,sans-Serif" font-size="10.00">+</text>
<text text-anchor="start" x="205" y="-201.5" font-family="Helvetica,sans-Serif" font-size="10.00">PZ90_vel</text>
<text text-anchor="start" x="192" y="-186.5" font-family="Helvetica,sans-Serif" font-size="10.00">+</text>
<text text-anchor="start" x="205" y="-186.5" font-family="Helvetica,sans-Serif" font-size="10.00">tau_c</text>
<text text-anchor="start" x="192" y="-171.5" font-family="Helvetica,sans-Serif" font-size="10.00">+</text>
<text text-anchor="start" x="205" y="-171.5" font-family="Helvetica,sans-Serif" font-size="10.00">tau_n</text>
<text text-anchor="start" x="192" y="-156.5" font-family="Helvetica,sans-Serif" font-size="10.00">+</text>
<text text-anchor="start" x="205" y="-156.5" font-family="Helvetica,sans-Serif" font-size="10.00">toc</text>
<text text-anchor="start" x="192" y="-141.5" font-family="Helvetica,sans-Serif" font-size="10.00">+</text>
<text text-anchor="start" x="205" y="-141.5" font-family="Helvetica,sans-Serif" font-size="10.00">calcClockCorrections()</text>
<text text-anchor="start" x="192" y="-126.5" font-family="Helvetica,sans-Serif" font-size="10.00">+</text>
<text text-anchor="start" x="205" y="-126.5" font-family="Helvetica,sans-Serif" font-size="10.00">calcSatellitePositionVariance()</text>
<text text-anchor="start" x="192" y="-111.5" font-family="Helvetica,sans-Serif" font-size="10.00">+</text>
<text text-anchor="start" x="205" y="-111.5" font-family="Helvetica,sans-Serif" font-size="10.00">GLONASSEphemeris()</text>
<text text-anchor="start" x="192" y="-96.5" font-family="Helvetica,sans-Serif" font-size="10.00">+</text>
<text text-anchor="start" x="205" y="-96.5" font-family="Helvetica,sans-Serif" font-size="10.00">GLONASSEphemeris()</text>
<text text-anchor="start" x="192" y="-81.5" font-family="Helvetica,sans-Serif" font-size="10.00">+</text>
<text text-anchor="start" x="205" y="-81.5" font-family="Helvetica,sans-Serif" font-size="10.00">GLONASSEphemeris()</text>
<text text-anchor="start" x="192" y="-66.5" font-family="Helvetica,sans-Serif" font-size="10.00">+</text>
<text text-anchor="start" x="205" y="-66.5" font-family="Helvetica,sans-Serif" font-size="10.00">isHealthy()</text>
<text text-anchor="start" x="192" y="-51.5" font-family="Helvetica,sans-Serif" font-size="10.00">+</text>
<text text-anchor="start" x="205" y="-51.5" font-family="Helvetica,sans-Serif" font-size="10.00">operator=()</text>
<text text-anchor="start" x="192" y="-36.5" font-family="Helvetica,sans-Serif" font-size="10.00">+</text>
<text text-anchor="start" x="205" y="-36.5" font-family="Helvetica,sans-Serif" font-size="10.00">operator=()</text>
<text text-anchor="start" x="192" y="-21.5" font-family="Helvetica,sans-Serif" font-size="10.00">+</text>
<text text-anchor="start" x="205" y="-21.5" font-family="Helvetica,sans-Serif" font-size="10.00">~GLONASSEphemeris()</text>
<polygon fill="#666666" stroke="#666666" points="188,-286.5 188,-286.5 358,-286.5 358,-286.5 188,-286.5"/>
<polygon fill="#666666" stroke="#666666" points="188,-151.5 188,-151.5 203,-151.5 203,-151.5 188,-151.5"/>
<polygon fill="#666666" stroke="#666666" points="203,-151.5 203,-151.5 358,-151.5 358,-151.5 203,-151.5"/>
<polygon fill="none" stroke="#666666" points="188,-15 188,-304 358,-304 358,-15 188,-15"/>
</a>
</g>
</g>
<!-- Node2&#45;&gt;Node4 -->
<g id="edge3_Node000002_Node000004" class="edge">
<title>Node2&#45;&gt;Node4</title>
<g id="a_edge3_Node000002_Node000004"><a xlink:title=" ">
<path fill="none" stroke="#63b8ff" d="M337.27,-345.44C332.68,-332.22 327.83,-318.27 322.93,-304.19"/>
<polygon fill="none" stroke="#63b8ff" points="333.98,-346.63 340.57,-354.93 340.59,-344.34 333.98,-346.63"/>
</a>
</g>
</g>
<!-- Node5 -->
<g id="Node000005" class="node">
<title>Node5</title>
<g id="a_Node000005"><a xlink:href="classNAV_1_1GPSEphemeris.html" target="_top" xlink:title="Broadcasted ephemeris message data.">
<polygon fill="white" stroke="transparent" points="546,-319 376,-319 376,0 546,0 546,-319"/>
<text text-anchor="start" x="412.5" y="-306.5" font-family="Helvetica,sans-Serif" font-size="10.00">NAV::GPSEphemeris</text>
<text text-anchor="start" x="380" y="-291.5" font-family="Helvetica,sans-Serif" font-size="10.00">+</text>
<text text-anchor="start" x="393" y="-291.5" font-family="Helvetica,sans-Serif" font-size="10.00">a</text>
<text text-anchor="start" x="380" y="-276.5" font-family="Helvetica,sans-Serif" font-size="10.00">+</text>
<text text-anchor="start" x="393" y="-276.5" font-family="Helvetica,sans-Serif" font-size="10.00">Cic</text>
<text text-anchor="start" x="380" y="-261.5" font-family="Helvetica,sans-Serif" font-size="10.00">+</text>
<text text-anchor="start" x="393" y="-261.5" font-family="Helvetica,sans-Serif" font-size="10.00">Cis</text>
<text text-anchor="start" x="380" y="-246.5" font-family="Helvetica,sans-Serif" font-size="10.00">+</text>
<text text-anchor="start" x="393" y="-246.5" font-family="Helvetica,sans-Serif" font-size="10.00">Crc</text>
<text text-anchor="start" x="380" y="-231.5" font-family="Helvetica,sans-Serif" font-size="10.00">+</text>
<text text-anchor="start" x="393" y="-231.5" font-family="Helvetica,sans-Serif" font-size="10.00">Crs</text>
<text text-anchor="start" x="380" y="-216.5" font-family="Helvetica,sans-Serif" font-size="10.00">+</text>
<text text-anchor="start" x="393" y="-216.5" font-family="Helvetica,sans-Serif" font-size="10.00">Cuc</text>
<text text-anchor="start" x="380" y="-201.5" font-family="Helvetica,sans-Serif" font-size="10.00">+</text>
<text text-anchor="start" x="393" y="-201.5" font-family="Helvetica,sans-Serif" font-size="10.00">Cus</text>
<text text-anchor="start" x="380" y="-186.5" font-family="Helvetica,sans-Serif" font-size="10.00">+</text>
<text text-anchor="start" x="393" y="-186.5" font-family="Helvetica,sans-Serif" font-size="10.00">delta_n</text>
<text text-anchor="start" x="380" y="-171.5" font-family="Helvetica,sans-Serif" font-size="10.00">+</text>
<text text-anchor="start" x="393" y="-171.5" font-family="Helvetica,sans-Serif" font-size="10.00">e</text>
<text text-anchor="start" x="380" y="-156.5" font-family="Helvetica,sans-Serif" font-size="10.00">+</text>
<text text-anchor="start" x="393" y="-156.5" font-family="Helvetica,sans-Serif" font-size="10.00">fitInterval</text>
<text text-anchor="start" x="393" y="-141.5" font-family="Helvetica,sans-Serif" font-size="10.00">and 16 more...</text>
<text text-anchor="start" x="380" y="-126.5" font-family="Helvetica,sans-Serif" font-size="10.00">+</text>
<text text-anchor="start" x="393" y="-126.5" font-family="Helvetica,sans-Serif" font-size="10.00">calcClockCorrections()</text>
<text text-anchor="start" x="380" y="-111.5" font-family="Helvetica,sans-Serif" font-size="10.00">+</text>
<text text-anchor="start" x="393" y="-111.5" font-family="Helvetica,sans-Serif" font-size="10.00">calcSatellitePositionVariance()</text>
<text text-anchor="start" x="380" y="-96.5" font-family="Helvetica,sans-Serif" font-size="10.00">+</text>
<text text-anchor="start" x="393" y="-96.5" font-family="Helvetica,sans-Serif" font-size="10.00">GPSEphemeris()</text>
<text text-anchor="start" x="380" y="-81.5" font-family="Helvetica,sans-Serif" font-size="10.00">+</text>
<text text-anchor="start" x="393" y="-81.5" font-family="Helvetica,sans-Serif" font-size="10.00">GPSEphemeris()</text>
<text text-anchor="start" x="380" y="-66.5" font-family="Helvetica,sans-Serif" font-size="10.00">+</text>
<text text-anchor="start" x="393" y="-66.5" font-family="Helvetica,sans-Serif" font-size="10.00">GPSEphemeris()</text>
<text text-anchor="start" x="380" y="-51.5" font-family="Helvetica,sans-Serif" font-size="10.00">+</text>
<text text-anchor="start" x="393" y="-51.5" font-family="Helvetica,sans-Serif" font-size="10.00">isHealthy()</text>
<text text-anchor="start" x="380" y="-36.5" font-family="Helvetica,sans-Serif" font-size="10.00">+</text>
<text text-anchor="start" x="393" y="-36.5" font-family="Helvetica,sans-Serif" font-size="10.00">operator=()</text>
<text text-anchor="start" x="380" y="-21.5" font-family="Helvetica,sans-Serif" font-size="10.00">+</text>
<text text-anchor="start" x="393" y="-21.5" font-family="Helvetica,sans-Serif" font-size="10.00">operator=()</text>
<text text-anchor="start" x="380" y="-6.5" font-family="Helvetica,sans-Serif" font-size="10.00">+</text>
<text text-anchor="start" x="393" y="-6.5" font-family="Helvetica,sans-Serif" font-size="10.00">~GPSEphemeris()</text>
<polygon fill="#666666" stroke="#666666" points="376,-301.5 376,-301.5 546,-301.5 546,-301.5 376,-301.5"/>
<polygon fill="#666666" stroke="#666666" points="376,-136.5 376,-136.5 391,-136.5 391,-136.5 376,-136.5"/>
<polygon fill="#666666" stroke="#666666" points="391,-136.5 391,-136.5 546,-136.5 546,-136.5 391,-136.5"/>
<polygon fill="none" stroke="#666666" points="376,0 376,-319 546,-319 546,0 376,0"/>
</a>
</g>
</g>
<!-- Node2&#45;&gt;Node5 -->
<g id="edge4_Node000002_Node000005" class="edge">
<title>Node2&#45;&gt;Node5</title>
<g id="a_edge4_Node000002_Node000005"><a xlink:title=" ">
<path fill="none" stroke="#63b8ff" d="M396.74,-345.43C399.71,-336.88 402.78,-328.03 405.91,-319.04"/>
<polygon fill="none" stroke="#63b8ff" points="393.41,-344.34 393.43,-354.93 400.02,-346.63 393.41,-344.34"/>
</a>
</g>
</g>
<!-- Node6 -->
<g id="Node000006" class="node">
<title>Node6</title>
<g id="a_Node000006"><a xlink:href="classNAV_1_1GalileoEphemeris.html" target="_top" xlink:title="Broadcasted ephemeris message data.">
<polygon fill="white" stroke="transparent" points="734,-319 564,-319 564,0 734,0 734,-319"/>
<text text-anchor="start" x="593" y="-306.5" font-family="Helvetica,sans-Serif" font-size="10.00">NAV::GalileoEphemeris</text>
<text text-anchor="start" x="568" y="-291.5" font-family="Helvetica,sans-Serif" font-size="10.00">+</text>
<text text-anchor="start" x="581" y="-291.5" font-family="Helvetica,sans-Serif" font-size="10.00">a</text>
<text text-anchor="start" x="568" y="-276.5" font-family="Helvetica,sans-Serif" font-size="10.00">+</text>
<text text-anchor="start" x="581" y="-276.5" font-family="Helvetica,sans-Serif" font-size="10.00">BGD_E1_E5a</text>
<text text-anchor="start" x="568" y="-261.5" font-family="Helvetica,sans-Serif" font-size="10.00">+</text>
<text text-anchor="start" x="581" y="-261.5" font-family="Helvetica,sans-Serif" font-size="10.00">BGD_E1_E5b</text>
<text text-anchor="start" x="568" y="-246.5" font-family="Helvetica,sans-Serif" font-size="10.00">+</text>
<text text-anchor="start" x="581" y="-246.5" font-family="Helvetica,sans-Serif" font-size="10.00">Cic</text>
<text text-anchor="start" x="568" y="-231.5" font-family="Helvetica,sans-Serif" font-size="10.00">+</text>
<text text-anchor="start" x="581" y="-231.5" font-family="Helvetica,sans-Serif" font-size="10.00">Cis</text>
<text text-anchor="start" x="568" y="-216.5" font-family="Helvetica,sans-Serif" font-size="10.00">+</text>
<text text-anchor="start" x="581" y="-216.5" font-family="Helvetica,sans-Serif" font-size="10.00">Crc</text>
<text text-anchor="start" x="568" y="-201.5" font-family="Helvetica,sans-Serif" font-size="10.00">+</text>
<text text-anchor="start" x="581" y="-201.5" font-family="Helvetica,sans-Serif" font-size="10.00">Crs</text>
<text text-anchor="start" x="568" y="-186.5" font-family="Helvetica,sans-Serif" font-size="10.00">+</text>
<text text-anchor="start" x="581" y="-186.5" font-family="Helvetica,sans-Serif" font-size="10.00">Cuc</text>
<text text-anchor="start" x="568" y="-171.5" font-family="Helvetica,sans-Serif" font-size="10.00">+</text>
<text text-anchor="start" x="581" y="-171.5" font-family="Helvetica,sans-Serif" font-size="10.00">Cus</text>
<text text-anchor="start" x="568" y="-156.5" font-family="Helvetica,sans-Serif" font-size="10.00">+</text>
<text text-anchor="start" x="581" y="-156.5" font-family="Helvetica,sans-Serif" font-size="10.00">dataSource</text>
<text text-anchor="start" x="581" y="-141.5" font-family="Helvetica,sans-Serif" font-size="10.00">and 14 more...</text>
<text text-anchor="start" x="568" y="-126.5" font-family="Helvetica,sans-Serif" font-size="10.00">+</text>
<text text-anchor="start" x="581" y="-126.5" font-family="Helvetica,sans-Serif" font-size="10.00">calcClockCorrections()</text>
<text text-anchor="start" x="568" y="-111.5" font-family="Helvetica,sans-Serif" font-size="10.00">+</text>
<text text-anchor="start" x="581" y="-111.5" font-family="Helvetica,sans-Serif" font-size="10.00">calcSatellitePositionVariance()</text>
<text text-anchor="start" x="568" y="-96.5" font-family="Helvetica,sans-Serif" font-size="10.00">+</text>
<text text-anchor="start" x="581" y="-96.5" font-family="Helvetica,sans-Serif" font-size="10.00">GalileoEphemeris()</text>
<text text-anchor="start" x="568" y="-81.5" font-family="Helvetica,sans-Serif" font-size="10.00">+</text>
<text text-anchor="start" x="581" y="-81.5" font-family="Helvetica,sans-Serif" font-size="10.00">GalileoEphemeris()</text>
<text text-anchor="start" x="568" y="-66.5" font-family="Helvetica,sans-Serif" font-size="10.00">+</text>
<text text-anchor="start" x="581" y="-66.5" font-family="Helvetica,sans-Serif" font-size="10.00">GalileoEphemeris()</text>
<text text-anchor="start" x="568" y="-51.5" font-family="Helvetica,sans-Serif" font-size="10.00">+</text>
<text text-anchor="start" x="581" y="-51.5" font-family="Helvetica,sans-Serif" font-size="10.00">isHealthy()</text>
<text text-anchor="start" x="568" y="-36.5" font-family="Helvetica,sans-Serif" font-size="10.00">+</text>
<text text-anchor="start" x="581" y="-36.5" font-family="Helvetica,sans-Serif" font-size="10.00">operator=()</text>
<text text-anchor="start" x="568" y="-21.5" font-family="Helvetica,sans-Serif" font-size="10.00">+</text>
<text text-anchor="start" x="581" y="-21.5" font-family="Helvetica,sans-Serif" font-size="10.00">operator=()</text>
<text text-anchor="start" x="568" y="-6.5" font-family="Helvetica,sans-Serif" font-size="10.00">+</text>
<text text-anchor="start" x="581" y="-6.5" font-family="Helvetica,sans-Serif" font-size="10.00">~GalileoEphemeris()</text>
<polygon fill="#666666" stroke="#666666" points="564,-301.5 564,-301.5 734,-301.5 734,-301.5 564,-301.5"/>
<polygon fill="#666666" stroke="#666666" points="564,-136.5 564,-136.5 579,-136.5 579,-136.5 564,-136.5"/>
<polygon fill="#666666" stroke="#666666" points="579,-136.5 579,-136.5 734,-136.5 734,-136.5 579,-136.5"/>
<polygon fill="none" stroke="#666666" points="564,0 564,-319 734,-319 734,0 564,0"/>
</a>
</g>
</g>
<!-- Node2&#45;&gt;Node6 -->
<g id="edge5_Node000002_Node000006" class="edge">
<title>Node2&#45;&gt;Node6</title>
<g id="a_edge5_Node000002_Node000006"><a xlink:title=" ">
<path fill="none" stroke="#63b8ff" d="M424.2,-406.27C464.31,-386.85 517.28,-356.8 555,-319 558.05,-315.94 561.04,-312.77 563.97,-309.49"/>
<polygon fill="none" stroke="#63b8ff" points="422.6,-403.16 415.08,-410.61 425.61,-409.48 422.6,-403.16"/>
</a>
</g>
</g>
</g>
</svg>
