<?xml version="1.0" encoding="UTF-8" standalone="no"?>
<!DOCTYPE svg PUBLIC "-//W3C//DTD SVG 1.1//EN"
 "http://www.w3.org/Graphics/SVG/1.1/DTD/svg11.dtd">
<!-- Generated by graphviz version 2.43.0 (0)
 -->
<!-- Title: NAV::SppSolution Pages: 1 -->
<svg width="163pt" height="722pt"
 viewBox="0.00 0.00 163.00 722.00" xmlns="http://www.w3.org/2000/svg" xmlns:xlink="http://www.w3.org/1999/xlink">
<g id="graph0" class="graph" transform="scale(1 1) rotate(0) translate(4 718)">
<title>NAV::SppSolution</title>
<!-- Node1 -->
<g id="node1" class="node">
<title>Node1</title>
<g id="a_node1"><a xlink:title="SPP Algorithm output.">
<polygon fill="#999999" stroke="#666666" points="0,-0.5 0,-189.5 155,-189.5 155,-0.5 0,-0.5"/>
<text text-anchor="middle" x="77.5" y="-177.5" font-family="Helvetica,sans-Serif" font-size="10.00">NAV::SppSolution</text>
<polyline fill="none" stroke="#666666" points="0,-170.5 155,-170.5 "/>
<text text-anchor="start" x="8" y="-158.5" font-family="Helvetica,sans-Serif" font-size="10.00">+ clkBias</text>
<text text-anchor="start" x="8" y="-147.5" font-family="Helvetica,sans-Serif" font-size="10.00">+ clkBiasStdev</text>
<text text-anchor="start" x="8" y="-136.5" font-family="Helvetica,sans-Serif" font-size="10.00">+ clkDrift</text>
<text text-anchor="start" x="8" y="-125.5" font-family="Helvetica,sans-Serif" font-size="10.00">+ clkDriftStdev</text>
<text text-anchor="start" x="8" y="-114.5" font-family="Helvetica,sans-Serif" font-size="10.00">+ nSatellitesPosition</text>
<text text-anchor="start" x="8" y="-103.5" font-family="Helvetica,sans-Serif" font-size="10.00">+ nSatellitesVelocity</text>
<polyline fill="none" stroke="#666666" points="0,-96.5 155,-96.5 "/>
<text text-anchor="start" x="8" y="-84.5" font-family="Helvetica,sans-Serif" font-size="10.00">+ e_positionStdev()</text>
<text text-anchor="start" x="8" y="-73.5" font-family="Helvetica,sans-Serif" font-size="10.00">+ e_velocityStdev()</text>
<text text-anchor="start" x="8" y="-62.5" font-family="Helvetica,sans-Serif" font-size="10.00">+ n_positionStdev()</text>
<text text-anchor="start" x="8" y="-51.5" font-family="Helvetica,sans-Serif" font-size="10.00">+ n_velocityStdev()</text>
<text text-anchor="start" x="8" y="-40.5" font-family="Helvetica,sans-Serif" font-size="10.00">+ setPositionAndStdDev_e()</text>
<text text-anchor="start" x="8" y="-29.5" font-family="Helvetica,sans-Serif" font-size="10.00">+ setVelocityAndStdDev_e()</text>
<text text-anchor="start" x="8" y="-18.5" font-family="Helvetica,sans-Serif" font-size="10.00">+ parentTypes()</text>
<text text-anchor="start" x="8" y="-7.5" font-family="Helvetica,sans-Serif" font-size="10.00">+ type()</text>
</a>
</g>
</g>
<!-- Node2 -->
<g id="node2" class="node">
<title>Node2</title>
<g id="a_node2"><a xlink:href="classNAV_1_1PosVel.html" target="_top" xlink:title="Position, Velocity and Attitude Storage Class.">
<polygon fill="white" stroke="#666666" points="27,-226.5 27,-338.5 128,-338.5 128,-226.5 27,-226.5"/>
<text text-anchor="middle" x="77.5" y="-326.5" font-family="Helvetica,sans-Serif" font-size="10.00">NAV::PosVel</text>
<polyline fill="none" stroke="#666666" points="27,-319.5 128,-319.5 "/>
<text text-anchor="middle" x="77.5" y="-307.5" font-family="Helvetica,sans-Serif" font-size="10.00"> </text>
<polyline fill="none" stroke="#666666" points="27,-300.5 128,-300.5 "/>
<text text-anchor="start" x="35" y="-288.5" font-family="Helvetica,sans-Serif" font-size="10.00">+ e_velocity()</text>
<text text-anchor="start" x="35" y="-277.5" font-family="Helvetica,sans-Serif" font-size="10.00">+ n_velocity()</text>
<text text-anchor="start" x="35" y="-266.5" font-family="Helvetica,sans-Serif" font-size="10.00">+ setVelocity_e()</text>
<text text-anchor="start" x="35" y="-255.5" font-family="Helvetica,sans-Serif" font-size="10.00">+ setVelocity_n()</text>
<text text-anchor="start" x="35" y="-244.5" font-family="Helvetica,sans-Serif" font-size="10.00">+ parentTypes()</text>
<text text-anchor="start" x="35" y="-233.5" font-family="Helvetica,sans-Serif" font-size="10.00">+ type()</text>
</a>
</g>
</g>
<!-- Node2&#45;&gt;Node1 -->
<g id="edge1" class="edge">
<title>Node2&#45;&gt;Node1</title>
<path fill="none" stroke="#63b8ff" d="M77.5,-216.32C77.5,-207.62 77.5,-198.57 77.5,-189.5"/>
<polygon fill="none" stroke="#63b8ff" points="74,-216.35 77.5,-226.35 81,-216.35 74,-216.35"/>
</g>
<!-- Node3 -->
<g id="node3" class="node">
<title>Node3</title>
<g id="a_node3"><a xlink:href="classNAV_1_1Pos.html" target="_top" xlink:title="Position, Velocity and Attitude Storage Class.">
<polygon fill="white" stroke="#666666" points="24,-375.5 24,-542.5 131,-542.5 131,-375.5 24,-375.5"/>
<text text-anchor="middle" x="77.5" y="-530.5" font-family="Helvetica,sans-Serif" font-size="10.00">NAV::Pos</text>
<polyline fill="none" stroke="#666666" points="24,-523.5 131,-523.5 "/>
<text text-anchor="middle" x="77.5" y="-511.5" font-family="Helvetica,sans-Serif" font-size="10.00"> </text>
<polyline fill="none" stroke="#666666" points="24,-504.5 131,-504.5 "/>
<text text-anchor="start" x="32" y="-492.5" font-family="Helvetica,sans-Serif" font-size="10.00">+ altitude()</text>
<text text-anchor="start" x="32" y="-481.5" font-family="Helvetica,sans-Serif" font-size="10.00">+ e_position()</text>
<text text-anchor="start" x="32" y="-470.5" font-family="Helvetica,sans-Serif" font-size="10.00">+ e_Quat_n()</text>
<text text-anchor="start" x="32" y="-459.5" font-family="Helvetica,sans-Serif" font-size="10.00">+ latitude()</text>
<text text-anchor="start" x="32" y="-448.5" font-family="Helvetica,sans-Serif" font-size="10.00">+ lla_position()</text>
<text text-anchor="start" x="32" y="-437.5" font-family="Helvetica,sans-Serif" font-size="10.00">+ longitude()</text>
<text text-anchor="start" x="32" y="-426.5" font-family="Helvetica,sans-Serif" font-size="10.00">+ n_Quat_e()</text>
<text text-anchor="start" x="32" y="-415.5" font-family="Helvetica,sans-Serif" font-size="10.00">+ setPosition_e()</text>
<text text-anchor="start" x="32" y="-404.5" font-family="Helvetica,sans-Serif" font-size="10.00">+ setPosition_lla()</text>
<text text-anchor="start" x="32" y="-393.5" font-family="Helvetica,sans-Serif" font-size="10.00">+ parentTypes()</text>
<text text-anchor="start" x="32" y="-382.5" font-family="Helvetica,sans-Serif" font-size="10.00">+ type()</text>
</a>
</g>
</g>
<!-- Node3&#45;&gt;Node2 -->
<g id="edge2" class="edge">
<title>Node3&#45;&gt;Node2</title>
<path fill="none" stroke="#63b8ff" d="M77.5,-365.23C77.5,-356.27 77.5,-347.39 77.5,-338.97"/>
<polygon fill="none" stroke="#63b8ff" points="74,-365.35 77.5,-375.35 81,-365.35 74,-365.35"/>
</g>
<!-- Node4 -->
<g id="node4" class="node">
<title>Node4</title>
<g id="a_node4"><a xlink:href="classNAV_1_1NodeData.html" target="_top" xlink:title="Parent class for all data transmitted over Flow pins.">
<polygon fill="white" stroke="#666666" points="30,-579.5 30,-713.5 125,-713.5 125,-579.5 30,-579.5"/>
<text text-anchor="middle" x="77.5" y="-701.5" font-family="Helvetica,sans-Serif" font-size="10.00">NAV::NodeData</text>
<polyline fill="none" stroke="#666666" points="30,-694.5 125,-694.5 "/>
<text text-anchor="start" x="38" y="-682.5" font-family="Helvetica,sans-Serif" font-size="10.00">+ insTime</text>
<polyline fill="none" stroke="#666666" points="30,-675.5 125,-675.5 "/>
<text text-anchor="start" x="38" y="-663.5" font-family="Helvetica,sans-Serif" font-size="10.00">+ NodeData()</text>
<text text-anchor="start" x="38" y="-652.5" font-family="Helvetica,sans-Serif" font-size="10.00">+ NodeData()</text>
<text text-anchor="start" x="38" y="-641.5" font-family="Helvetica,sans-Serif" font-size="10.00">+ NodeData()</text>
<text text-anchor="start" x="38" y="-630.5" font-family="Helvetica,sans-Serif" font-size="10.00">+ operator=()</text>
<text text-anchor="start" x="38" y="-619.5" font-family="Helvetica,sans-Serif" font-size="10.00">+ operator=()</text>
<text text-anchor="start" x="38" y="-608.5" font-family="Helvetica,sans-Serif" font-size="10.00">+ ~NodeData()</text>
<text text-anchor="start" x="38" y="-597.5" font-family="Helvetica,sans-Serif" font-size="10.00">+ parentTypes()</text>
<text text-anchor="start" x="38" y="-586.5" font-family="Helvetica,sans-Serif" font-size="10.00">+ type()</text>
</a>
</g>
</g>
<!-- Node4&#45;&gt;Node3 -->
<g id="edge3" class="edge">
<title>Node4&#45;&gt;Node3</title>
<path fill="none" stroke="#63b8ff" d="M77.5,-569.18C77.5,-560.44 77.5,-551.51 77.5,-542.7"/>
<polygon fill="none" stroke="#63b8ff" points="74,-569.32 77.5,-579.32 81,-569.32 74,-569.32"/>
</g>
</g>
</svg>
