<?xml version="1.0" encoding="UTF-8" standalone="no"?>
<!DOCTYPE svg PUBLIC "-//W3C//DTD SVG 1.1//EN"
 "http://www.w3.org/Graphics/SVG/1.1/DTD/svg11.dtd">
<!-- Generated by graphviz version 2.43.0 (0)
 -->
<!-- Title: NAV::Imu Pages: 1 -->
<svg width="1144pt" height="771pt"
 viewBox="0.00 0.00 1143.50 771.00" xmlns="http://www.w3.org/2000/svg" xmlns:xlink="http://www.w3.org/1999/xlink">
<g id="graph0" class="graph" transform="scale(1 1) rotate(0) translate(4 767)">
<title>NAV::Imu</title>
<!-- Node1 -->
<g id="node1" class="node">
<title>Node1</title>
<g id="a_node1"><a xlink:title="Abstract IMU Class.">
<polygon fill="#999999" stroke="#666666" points="458.5,-292.5 458.5,-448.5 551.5,-448.5 551.5,-292.5 458.5,-292.5"/>
<text text-anchor="middle" x="505" y="-436.5" font-family="Helvetica,sans-Serif" font-size="10.00">NAV::Imu</text>
<polyline fill="none" stroke="#666666" points="458.5,-429.5 551.5,-429.5 "/>
<text text-anchor="start" x="466.5" y="-417.5" font-family="Helvetica,sans-Serif" font-size="10.00"># _imuPos</text>
<polyline fill="none" stroke="#666666" points="458.5,-410.5 551.5,-410.5 "/>
<text text-anchor="start" x="466.5" y="-398.5" font-family="Helvetica,sans-Serif" font-size="10.00">+ guiConfig()</text>
<text text-anchor="start" x="466.5" y="-387.5" font-family="Helvetica,sans-Serif" font-size="10.00">+ Imu()</text>
<text text-anchor="start" x="466.5" y="-376.5" font-family="Helvetica,sans-Serif" font-size="10.00">+ Imu()</text>
<text text-anchor="start" x="466.5" y="-365.5" font-family="Helvetica,sans-Serif" font-size="10.00">+ imuPosition()</text>
<text text-anchor="start" x="466.5" y="-354.5" font-family="Helvetica,sans-Serif" font-size="10.00">+ operator=()</text>
<text text-anchor="start" x="466.5" y="-343.5" font-family="Helvetica,sans-Serif" font-size="10.00">+ operator=()</text>
<text text-anchor="start" x="466.5" y="-332.5" font-family="Helvetica,sans-Serif" font-size="10.00">+ restore()</text>
<text text-anchor="start" x="466.5" y="-321.5" font-family="Helvetica,sans-Serif" font-size="10.00">+ save()</text>
<text text-anchor="start" x="466.5" y="-310.5" font-family="Helvetica,sans-Serif" font-size="10.00">+ ~Imu()</text>
<text text-anchor="start" x="466.5" y="-299.5" font-family="Helvetica,sans-Serif" font-size="10.00"># Imu()</text>
</a>
</g>
</g>
<!-- Node3 -->
<g id="node3" class="node">
<title>Node3</title>
<g id="a_node3"><a xlink:href="classNAV_1_1ImuFile.html" target="_top" xlink:title="File Reader for Imu log files.">
<polygon fill="white" stroke="#666666" points="0,-33.5 0,-222.5 86,-222.5 86,-33.5 0,-33.5"/>
<text text-anchor="middle" x="43" y="-210.5" font-family="Helvetica,sans-Serif" font-size="10.00">NAV::ImuFile</text>
<polyline fill="none" stroke="#666666" points="0,-203.5 86,-203.5 "/>
<text text-anchor="middle" x="43" y="-191.5" font-family="Helvetica,sans-Serif" font-size="10.00"> </text>
<polyline fill="none" stroke="#666666" points="0,-184.5 86,-184.5 "/>
<text text-anchor="start" x="8" y="-172.5" font-family="Helvetica,sans-Serif" font-size="10.00">+ guiConfig()</text>
<text text-anchor="start" x="8" y="-161.5" font-family="Helvetica,sans-Serif" font-size="10.00">+ ImuFile()</text>
<text text-anchor="start" x="8" y="-150.5" font-family="Helvetica,sans-Serif" font-size="10.00">+ ImuFile()</text>
<text text-anchor="start" x="8" y="-139.5" font-family="Helvetica,sans-Serif" font-size="10.00">+ ImuFile()</text>
<text text-anchor="start" x="8" y="-128.5" font-family="Helvetica,sans-Serif" font-size="10.00">+ operator=()</text>
<text text-anchor="start" x="8" y="-117.5" font-family="Helvetica,sans-Serif" font-size="10.00">+ operator=()</text>
<text text-anchor="start" x="8" y="-106.5" font-family="Helvetica,sans-Serif" font-size="10.00">+ resetNode()</text>
<text text-anchor="start" x="8" y="-95.5" font-family="Helvetica,sans-Serif" font-size="10.00">+ restore()</text>
<text text-anchor="start" x="8" y="-84.5" font-family="Helvetica,sans-Serif" font-size="10.00">+ save()</text>
<text text-anchor="start" x="8" y="-73.5" font-family="Helvetica,sans-Serif" font-size="10.00">+ type()</text>
<text text-anchor="start" x="8" y="-62.5" font-family="Helvetica,sans-Serif" font-size="10.00">+ ~ImuFile()</text>
<text text-anchor="start" x="8" y="-51.5" font-family="Helvetica,sans-Serif" font-size="10.00">+ category()</text>
<text text-anchor="start" x="8" y="-40.5" font-family="Helvetica,sans-Serif" font-size="10.00">+ typeStatic()</text>
</a>
</g>
</g>
<!-- Node1&#45;&gt;Node3 -->
<g id="edge2" class="edge">
<title>Node1&#45;&gt;Node3</title>
<path fill="none" stroke="#63b8ff" d="M448.05,-368.94C361.38,-365.09 195.83,-345.54 95,-256 84.58,-246.75 76.2,-235.09 69.49,-222.61"/>
<polygon fill="none" stroke="#63b8ff" points="448.09,-372.45 458.22,-369.34 448.36,-365.45 448.09,-372.45"/>
</g>
<!-- Node4 -->
<g id="node4" class="node">
<title>Node4</title>
<g id="a_node4"><a xlink:href="classNAV_1_1ImuSimulator.html" target="_top" xlink:title="Imu Observation Simulator.">
<polygon fill="white" stroke="#666666" points="104,-0.5 104,-255.5 214,-255.5 214,-0.5 104,-0.5"/>
<text text-anchor="middle" x="159" y="-243.5" font-family="Helvetica,sans-Serif" font-size="10.00">NAV::ImuSimulator</text>
<polyline fill="none" stroke="#666666" points="104,-236.5 214,-236.5 "/>
<text text-anchor="start" x="112" y="-224.5" font-family="Helvetica,sans-Serif" font-size="10.00">+ pitch</text>
<text text-anchor="start" x="112" y="-213.5" font-family="Helvetica,sans-Serif" font-size="10.00">+ roll</text>
<text text-anchor="start" x="112" y="-202.5" font-family="Helvetica,sans-Serif" font-size="10.00">+ sampleInterval</text>
<text text-anchor="start" x="112" y="-191.5" font-family="Helvetica,sans-Serif" font-size="10.00">+ x</text>
<text text-anchor="start" x="112" y="-180.5" font-family="Helvetica,sans-Serif" font-size="10.00">+ y</text>
<text text-anchor="start" x="112" y="-169.5" font-family="Helvetica,sans-Serif" font-size="10.00">+ yaw</text>
<text text-anchor="start" x="112" y="-158.5" font-family="Helvetica,sans-Serif" font-size="10.00">+ z</text>
<polyline fill="none" stroke="#666666" points="104,-151.5 214,-151.5 "/>
<text text-anchor="start" x="112" y="-139.5" font-family="Helvetica,sans-Serif" font-size="10.00">+ guiConfig()</text>
<text text-anchor="start" x="112" y="-128.5" font-family="Helvetica,sans-Serif" font-size="10.00">+ ImuSimulator()</text>
<text text-anchor="start" x="112" y="-117.5" font-family="Helvetica,sans-Serif" font-size="10.00">+ ImuSimulator()</text>
<text text-anchor="start" x="112" y="-106.5" font-family="Helvetica,sans-Serif" font-size="10.00">+ ImuSimulator()</text>
<text text-anchor="start" x="112" y="-95.5" font-family="Helvetica,sans-Serif" font-size="10.00">+ operator=()</text>
<text text-anchor="start" x="112" y="-84.5" font-family="Helvetica,sans-Serif" font-size="10.00">+ operator=()</text>
<text text-anchor="start" x="112" y="-73.5" font-family="Helvetica,sans-Serif" font-size="10.00">+ resetNode()</text>
<text text-anchor="start" x="112" y="-62.5" font-family="Helvetica,sans-Serif" font-size="10.00">+ restore()</text>
<text text-anchor="start" x="112" y="-51.5" font-family="Helvetica,sans-Serif" font-size="10.00">+ save()</text>
<text text-anchor="start" x="112" y="-40.5" font-family="Helvetica,sans-Serif" font-size="10.00">+ type()</text>
<text text-anchor="start" x="112" y="-29.5" font-family="Helvetica,sans-Serif" font-size="10.00">+ ~ImuSimulator()</text>
<text text-anchor="start" x="112" y="-18.5" font-family="Helvetica,sans-Serif" font-size="10.00">+ category()</text>
<text text-anchor="start" x="112" y="-7.5" font-family="Helvetica,sans-Serif" font-size="10.00">+ typeStatic()</text>
</a>
</g>
</g>
<!-- Node1&#45;&gt;Node4 -->
<g id="edge3" class="edge">
<title>Node1&#45;&gt;Node4</title>
<path fill="none" stroke="#63b8ff" d="M448.34,-359.15C386.37,-345.24 287.32,-315.12 223,-256 219.91,-253.16 216.95,-250.14 214.11,-246.97"/>
<polygon fill="none" stroke="#63b8ff" points="447.82,-362.61 458.33,-361.32 449.3,-355.77 447.82,-362.61"/>
</g>
<!-- Node5 -->
<g id="node5" class="node">
<title>Node5</title>
<g id="a_node5"><a xlink:href="classNAV_1_1KvhFile.html" target="_top" xlink:title="File Reader for Kvh log files.">
<polygon fill="white" stroke="#666666" points="232,-33.5 232,-222.5 318,-222.5 318,-33.5 232,-33.5"/>
<text text-anchor="middle" x="275" y="-210.5" font-family="Helvetica,sans-Serif" font-size="10.00">NAV::KvhFile</text>
<polyline fill="none" stroke="#666666" points="232,-203.5 318,-203.5 "/>
<text text-anchor="middle" x="275" y="-191.5" font-family="Helvetica,sans-Serif" font-size="10.00"> </text>
<polyline fill="none" stroke="#666666" points="232,-184.5 318,-184.5 "/>
<text text-anchor="start" x="240" y="-172.5" font-family="Helvetica,sans-Serif" font-size="10.00">+ guiConfig()</text>
<text text-anchor="start" x="240" y="-161.5" font-family="Helvetica,sans-Serif" font-size="10.00">+ KvhFile()</text>
<text text-anchor="start" x="240" y="-150.5" font-family="Helvetica,sans-Serif" font-size="10.00">+ KvhFile()</text>
<text text-anchor="start" x="240" y="-139.5" font-family="Helvetica,sans-Serif" font-size="10.00">+ KvhFile()</text>
<text text-anchor="start" x="240" y="-128.5" font-family="Helvetica,sans-Serif" font-size="10.00">+ operator=()</text>
<text text-anchor="start" x="240" y="-117.5" font-family="Helvetica,sans-Serif" font-size="10.00">+ operator=()</text>
<text text-anchor="start" x="240" y="-106.5" font-family="Helvetica,sans-Serif" font-size="10.00">+ resetNode()</text>
<text text-anchor="start" x="240" y="-95.5" font-family="Helvetica,sans-Serif" font-size="10.00">+ restore()</text>
<text text-anchor="start" x="240" y="-84.5" font-family="Helvetica,sans-Serif" font-size="10.00">+ save()</text>
<text text-anchor="start" x="240" y="-73.5" font-family="Helvetica,sans-Serif" font-size="10.00">+ type()</text>
<text text-anchor="start" x="240" y="-62.5" font-family="Helvetica,sans-Serif" font-size="10.00">+ ~KvhFile()</text>
<text text-anchor="start" x="240" y="-51.5" font-family="Helvetica,sans-Serif" font-size="10.00">+ category()</text>
<text text-anchor="start" x="240" y="-40.5" font-family="Helvetica,sans-Serif" font-size="10.00">+ typeStatic()</text>
</a>
</g>
</g>
<!-- Node1&#45;&gt;Node5 -->
<g id="edge4" class="edge">
<title>Node1&#45;&gt;Node5</title>
<path fill="none" stroke="#63b8ff" d="M449.34,-345.26C410.56,-325.94 360.06,-295.58 327,-256 318.68,-246.03 311.54,-234.56 305.46,-222.66"/>
<polygon fill="none" stroke="#63b8ff" points="447.9,-348.45 458.42,-349.69 450.97,-342.16 447.9,-348.45"/>
</g>
<!-- Node6 -->
<g id="node6" class="node">
<title>Node6</title>
<g id="a_node6"><a xlink:href="classNAV_1_1KvhSensor.html" target="_top" xlink:title="KVH Sensor Class.">
<polygon fill="white" stroke="#666666" points="336.5,-33.5 336.5,-222.5 431.5,-222.5 431.5,-33.5 336.5,-33.5"/>
<text text-anchor="middle" x="384" y="-210.5" font-family="Helvetica,sans-Serif" font-size="10.00">NAV::KvhSensor</text>
<polyline fill="none" stroke="#666666" points="336.5,-203.5 431.5,-203.5 "/>
<text text-anchor="middle" x="384" y="-191.5" font-family="Helvetica,sans-Serif" font-size="10.00"> </text>
<polyline fill="none" stroke="#666666" points="336.5,-184.5 431.5,-184.5 "/>
<text text-anchor="start" x="344.5" y="-172.5" font-family="Helvetica,sans-Serif" font-size="10.00">+ guiConfig()</text>
<text text-anchor="start" x="344.5" y="-161.5" font-family="Helvetica,sans-Serif" font-size="10.00">+ KvhSensor()</text>
<text text-anchor="start" x="344.5" y="-150.5" font-family="Helvetica,sans-Serif" font-size="10.00">+ KvhSensor()</text>
<text text-anchor="start" x="344.5" y="-139.5" font-family="Helvetica,sans-Serif" font-size="10.00">+ KvhSensor()</text>
<text text-anchor="start" x="344.5" y="-128.5" font-family="Helvetica,sans-Serif" font-size="10.00">+ operator=()</text>
<text text-anchor="start" x="344.5" y="-117.5" font-family="Helvetica,sans-Serif" font-size="10.00">+ operator=()</text>
<text text-anchor="start" x="344.5" y="-106.5" font-family="Helvetica,sans-Serif" font-size="10.00">+ resetNode()</text>
<text text-anchor="start" x="344.5" y="-95.5" font-family="Helvetica,sans-Serif" font-size="10.00">+ restore()</text>
<text text-anchor="start" x="344.5" y="-84.5" font-family="Helvetica,sans-Serif" font-size="10.00">+ save()</text>
<text text-anchor="start" x="344.5" y="-73.5" font-family="Helvetica,sans-Serif" font-size="10.00">+ type()</text>
<text text-anchor="start" x="344.5" y="-62.5" font-family="Helvetica,sans-Serif" font-size="10.00">+ ~KvhSensor()</text>
<text text-anchor="start" x="344.5" y="-51.5" font-family="Helvetica,sans-Serif" font-size="10.00">+ category()</text>
<text text-anchor="start" x="344.5" y="-40.5" font-family="Helvetica,sans-Serif" font-size="10.00">+ typeStatic()</text>
</a>
</g>
</g>
<!-- Node1&#45;&gt;Node6 -->
<g id="edge5" class="edge">
<title>Node1&#45;&gt;Node6</title>
<path fill="none" stroke="#63b8ff" d="M455.49,-283.63C450.48,-274.37 445.56,-265.03 441,-256 435.61,-245.32 430.17,-234.02 424.9,-222.75"/>
<polygon fill="none" stroke="#63b8ff" points="452.46,-285.37 460.32,-292.47 458.6,-282.02 452.46,-285.37"/>
</g>
<!-- Node7 -->
<g id="node7" class="node">
<title>Node7</title>
<g id="a_node7"><a xlink:href="classNAV_1_1Navio2Sensor.html" target="_top" xlink:title="Navio2Sensor Sensor Class.">
<polygon fill="white" stroke="#666666" points="449.5,-33.5 449.5,-222.5 560.5,-222.5 560.5,-33.5 449.5,-33.5"/>
<text text-anchor="middle" x="505" y="-210.5" font-family="Helvetica,sans-Serif" font-size="10.00">NAV::Navio2Sensor</text>
<polyline fill="none" stroke="#666666" points="449.5,-203.5 560.5,-203.5 "/>
<text text-anchor="middle" x="505" y="-191.5" font-family="Helvetica,sans-Serif" font-size="10.00"> </text>
<polyline fill="none" stroke="#666666" points="449.5,-184.5 560.5,-184.5 "/>
<text text-anchor="start" x="457.5" y="-172.5" font-family="Helvetica,sans-Serif" font-size="10.00">+ guiConfig()</text>
<text text-anchor="start" x="457.5" y="-161.5" font-family="Helvetica,sans-Serif" font-size="10.00">+ Navio2Sensor()</text>
<text text-anchor="start" x="457.5" y="-150.5" font-family="Helvetica,sans-Serif" font-size="10.00">+ Navio2Sensor()</text>
<text text-anchor="start" x="457.5" y="-139.5" font-family="Helvetica,sans-Serif" font-size="10.00">+ Navio2Sensor()</text>
<text text-anchor="start" x="457.5" y="-128.5" font-family="Helvetica,sans-Serif" font-size="10.00">+ operator=()</text>
<text text-anchor="start" x="457.5" y="-117.5" font-family="Helvetica,sans-Serif" font-size="10.00">+ operator=()</text>
<text text-anchor="start" x="457.5" y="-106.5" font-family="Helvetica,sans-Serif" font-size="10.00">+ resetNode()</text>
<text text-anchor="start" x="457.5" y="-95.5" font-family="Helvetica,sans-Serif" font-size="10.00">+ restore()</text>
<text text-anchor="start" x="457.5" y="-84.5" font-family="Helvetica,sans-Serif" font-size="10.00">+ save()</text>
<text text-anchor="start" x="457.5" y="-73.5" font-family="Helvetica,sans-Serif" font-size="10.00">+ type()</text>
<text text-anchor="start" x="457.5" y="-62.5" font-family="Helvetica,sans-Serif" font-size="10.00">+ ~Navio2Sensor()</text>
<text text-anchor="start" x="457.5" y="-51.5" font-family="Helvetica,sans-Serif" font-size="10.00">+ category()</text>
<text text-anchor="start" x="457.5" y="-40.5" font-family="Helvetica,sans-Serif" font-size="10.00">+ typeStatic()</text>
</a>
</g>
</g>
<!-- Node1&#45;&gt;Node7 -->
<g id="edge6" class="edge">
<title>Node1&#45;&gt;Node7</title>
<path fill="none" stroke="#63b8ff" d="M505,-282.16C505,-262.9 505,-242.42 505,-222.91"/>
<polygon fill="none" stroke="#63b8ff" points="501.5,-282.41 505,-292.41 508.5,-282.41 501.5,-282.41"/>
</g>
<!-- Node8 -->
<g id="node8" class="node">
<title>Node8</title>
<g id="a_node8"><a xlink:href="classNAV_1_1SkydelNetworkStream.html" target="_top" xlink:title="SkydelNetworkStream Sensor Class.">
<polygon fill="white" stroke="#666666" points="579,-44.5 579,-211.5 731,-211.5 731,-44.5 579,-44.5"/>
<text text-anchor="middle" x="655" y="-199.5" font-family="Helvetica,sans-Serif" font-size="10.00">NAV::SkydelNetworkStream</text>
<polyline fill="none" stroke="#666666" points="579,-192.5 731,-192.5 "/>
<text text-anchor="middle" x="655" y="-180.5" font-family="Helvetica,sans-Serif" font-size="10.00"> </text>
<polyline fill="none" stroke="#666666" points="579,-173.5 731,-173.5 "/>
<text text-anchor="start" x="587" y="-161.5" font-family="Helvetica,sans-Serif" font-size="10.00">+ guiConfig()</text>
<text text-anchor="start" x="587" y="-150.5" font-family="Helvetica,sans-Serif" font-size="10.00">+ operator=()</text>
<text text-anchor="start" x="587" y="-139.5" font-family="Helvetica,sans-Serif" font-size="10.00">+ operator=()</text>
<text text-anchor="start" x="587" y="-128.5" font-family="Helvetica,sans-Serif" font-size="10.00">+ resetNode()</text>
<text text-anchor="start" x="587" y="-117.5" font-family="Helvetica,sans-Serif" font-size="10.00">+ SkydelNetworkStream()</text>
<text text-anchor="start" x="587" y="-106.5" font-family="Helvetica,sans-Serif" font-size="10.00">+ SkydelNetworkStream()</text>
<text text-anchor="start" x="587" y="-95.5" font-family="Helvetica,sans-Serif" font-size="10.00">+ SkydelNetworkStream()</text>
<text text-anchor="start" x="587" y="-84.5" font-family="Helvetica,sans-Serif" font-size="10.00">+ type()</text>
<text text-anchor="start" x="587" y="-73.5" font-family="Helvetica,sans-Serif" font-size="10.00">+ ~SkydelNetworkStream()</text>
<text text-anchor="start" x="587" y="-62.5" font-family="Helvetica,sans-Serif" font-size="10.00">+ category()</text>
<text text-anchor="start" x="587" y="-51.5" font-family="Helvetica,sans-Serif" font-size="10.00">+ typeStatic()</text>
</a>
</g>
</g>
<!-- Node1&#45;&gt;Node8 -->
<g id="edge7" class="edge">
<title>Node1&#45;&gt;Node8</title>
<path fill="none" stroke="#63b8ff" d="M557.1,-285.97C572.1,-261.91 588.46,-235.69 603.43,-211.68"/>
<polygon fill="none" stroke="#63b8ff" points="553.96,-284.39 551.64,-294.72 559.9,-288.09 553.96,-284.39"/>
</g>
<!-- Node9 -->
<g id="node9" class="node">
<title>Node9</title>
<g id="a_node9"><a xlink:href="classNAV_1_1UlogFile.html" target="_top" xlink:title="File Reader for ULog files (&#39;.ulg&#39;)">
<polygon fill="white" stroke="#666666" points="749,-28 749,-228 861,-228 861,-28 749,-28"/>
<text text-anchor="middle" x="805" y="-216" font-family="Helvetica,sans-Serif" font-size="10.00">NAV::UlogFile</text>
<polyline fill="none" stroke="#666666" points="749,-209 861,-209 "/>
<text text-anchor="start" x="757" y="-197" font-family="Helvetica,sans-Serif" font-size="10.00">+ gnssTime</text>
<text text-anchor="start" x="757" y="-186" font-family="Helvetica,sans-Serif" font-size="10.00">+ timeSinceStartup</text>
<polyline fill="none" stroke="#666666" points="749,-179 861,-179 "/>
<text text-anchor="start" x="757" y="-167" font-family="Helvetica,sans-Serif" font-size="10.00">+ guiConfig()</text>
<text text-anchor="start" x="757" y="-156" font-family="Helvetica,sans-Serif" font-size="10.00">+ operator=()</text>
<text text-anchor="start" x="757" y="-145" font-family="Helvetica,sans-Serif" font-size="10.00">+ operator=()</text>
<text text-anchor="start" x="757" y="-134" font-family="Helvetica,sans-Serif" font-size="10.00">+ resetNode()</text>
<text text-anchor="start" x="757" y="-123" font-family="Helvetica,sans-Serif" font-size="10.00">+ restore()</text>
<text text-anchor="start" x="757" y="-112" font-family="Helvetica,sans-Serif" font-size="10.00">+ save()</text>
<text text-anchor="start" x="757" y="-101" font-family="Helvetica,sans-Serif" font-size="10.00">+ type()</text>
<text text-anchor="start" x="757" y="-90" font-family="Helvetica,sans-Serif" font-size="10.00">+ UlogFile()</text>
<text text-anchor="start" x="757" y="-79" font-family="Helvetica,sans-Serif" font-size="10.00">+ UlogFile()</text>
<text text-anchor="start" x="757" y="-68" font-family="Helvetica,sans-Serif" font-size="10.00">+ UlogFile()</text>
<text text-anchor="start" x="757" y="-57" font-family="Helvetica,sans-Serif" font-size="10.00">+ ~UlogFile()</text>
<text text-anchor="start" x="757" y="-46" font-family="Helvetica,sans-Serif" font-size="10.00">+ category()</text>
<text text-anchor="start" x="757" y="-35" font-family="Helvetica,sans-Serif" font-size="10.00">+ typeStatic()</text>
</a>
</g>
</g>
<!-- Node1&#45;&gt;Node9 -->
<g id="edge8" class="edge">
<title>Node1&#45;&gt;Node9</title>
<path fill="none" stroke="#63b8ff" d="M561.47,-353.67C613.29,-336.72 689.46,-305.38 740,-256 748.41,-247.78 755.94,-238.23 762.63,-228.14"/>
<polygon fill="none" stroke="#63b8ff" points="560.23,-350.39 551.77,-356.77 562.36,-357.06 560.23,-350.39"/>
</g>
<!-- Node10 -->
<g id="node10" class="node">
<title>Node10</title>
<g id="a_node10"><a xlink:href="classNAV_1_1VectorNavFile.html" target="_top" xlink:title="File Reader for Vector Nav log files.">
<polygon fill="white" stroke="#666666" points="879.5,-33.5 879.5,-222.5 990.5,-222.5 990.5,-33.5 879.5,-33.5"/>
<text text-anchor="middle" x="935" y="-210.5" font-family="Helvetica,sans-Serif" font-size="10.00">NAV::VectorNavFile</text>
<polyline fill="none" stroke="#666666" points="879.5,-203.5 990.5,-203.5 "/>
<text text-anchor="middle" x="935" y="-191.5" font-family="Helvetica,sans-Serif" font-size="10.00"> </text>
<polyline fill="none" stroke="#666666" points="879.5,-184.5 990.5,-184.5 "/>
<text text-anchor="start" x="887.5" y="-172.5" font-family="Helvetica,sans-Serif" font-size="10.00">+ guiConfig()</text>
<text text-anchor="start" x="887.5" y="-161.5" font-family="Helvetica,sans-Serif" font-size="10.00">+ operator=()</text>
<text text-anchor="start" x="887.5" y="-150.5" font-family="Helvetica,sans-Serif" font-size="10.00">+ operator=()</text>
<text text-anchor="start" x="887.5" y="-139.5" font-family="Helvetica,sans-Serif" font-size="10.00">+ resetNode()</text>
<text text-anchor="start" x="887.5" y="-128.5" font-family="Helvetica,sans-Serif" font-size="10.00">+ restore()</text>
<text text-anchor="start" x="887.5" y="-117.5" font-family="Helvetica,sans-Serif" font-size="10.00">+ save()</text>
<text text-anchor="start" x="887.5" y="-106.5" font-family="Helvetica,sans-Serif" font-size="10.00">+ type()</text>
<text text-anchor="start" x="887.5" y="-95.5" font-family="Helvetica,sans-Serif" font-size="10.00">+ VectorNavFile()</text>
<text text-anchor="start" x="887.5" y="-84.5" font-family="Helvetica,sans-Serif" font-size="10.00">+ VectorNavFile()</text>
<text text-anchor="start" x="887.5" y="-73.5" font-family="Helvetica,sans-Serif" font-size="10.00">+ VectorNavFile()</text>
<text text-anchor="start" x="887.5" y="-62.5" font-family="Helvetica,sans-Serif" font-size="10.00">+ ~VectorNavFile()</text>
<text text-anchor="start" x="887.5" y="-51.5" font-family="Helvetica,sans-Serif" font-size="10.00">+ category()</text>
<text text-anchor="start" x="887.5" y="-40.5" font-family="Helvetica,sans-Serif" font-size="10.00">+ typeStatic()</text>
</a>
</g>
</g>
<!-- Node1&#45;&gt;Node10 -->
<g id="edge9" class="edge">
<title>Node1&#45;&gt;Node10</title>
<path fill="none" stroke="#63b8ff" d="M561.77,-365.39C639.59,-357.02 779.99,-331.76 870,-256 880.99,-246.75 890.34,-235.17 898.22,-222.8"/>
<polygon fill="none" stroke="#63b8ff" points="561.27,-361.93 551.67,-366.42 561.98,-368.89 561.27,-361.93"/>
</g>
<!-- Node11 -->
<g id="node11" class="node">
<title>Node11</title>
<g id="a_node11"><a xlink:href="classNAV_1_1VectorNavSensor.html" target="_top" xlink:title="Vector Nav Sensor Class.">
<polygon fill="white" stroke="#666666" points="1008.5,-28 1008.5,-228 1135.5,-228 1135.5,-28 1008.5,-28"/>
<text text-anchor="middle" x="1072" y="-216" font-family="Helvetica,sans-Serif" font-size="10.00">NAV::VectorNavSensor</text>
<polyline fill="none" stroke="#666666" points="1008.5,-209 1135.5,-209 "/>
<text text-anchor="start" x="1016.5" y="-197" font-family="Helvetica,sans-Serif" font-size="10.00">+ lastGnssTime</text>
<text text-anchor="start" x="1016.5" y="-186" font-family="Helvetica,sans-Serif" font-size="10.00">+ timeSinceStartup</text>
<polyline fill="none" stroke="#666666" points="1008.5,-179 1135.5,-179 "/>
<text text-anchor="start" x="1016.5" y="-167" font-family="Helvetica,sans-Serif" font-size="10.00">+ guiConfig()</text>
<text text-anchor="start" x="1016.5" y="-156" font-family="Helvetica,sans-Serif" font-size="10.00">+ operator=()</text>
<text text-anchor="start" x="1016.5" y="-145" font-family="Helvetica,sans-Serif" font-size="10.00">+ operator=()</text>
<text text-anchor="start" x="1016.5" y="-134" font-family="Helvetica,sans-Serif" font-size="10.00">+ resetNode()</text>
<text text-anchor="start" x="1016.5" y="-123" font-family="Helvetica,sans-Serif" font-size="10.00">+ restore()</text>
<text text-anchor="start" x="1016.5" y="-112" font-family="Helvetica,sans-Serif" font-size="10.00">+ save()</text>
<text text-anchor="start" x="1016.5" y="-101" font-family="Helvetica,sans-Serif" font-size="10.00">+ type()</text>
<text text-anchor="start" x="1016.5" y="-90" font-family="Helvetica,sans-Serif" font-size="10.00">+ VectorNavSensor()</text>
<text text-anchor="start" x="1016.5" y="-79" font-family="Helvetica,sans-Serif" font-size="10.00">+ VectorNavSensor()</text>
<text text-anchor="start" x="1016.5" y="-68" font-family="Helvetica,sans-Serif" font-size="10.00">+ VectorNavSensor()</text>
<text text-anchor="start" x="1016.5" y="-57" font-family="Helvetica,sans-Serif" font-size="10.00">+ ~VectorNavSensor()</text>
<text text-anchor="start" x="1016.5" y="-46" font-family="Helvetica,sans-Serif" font-size="10.00">+ category()</text>
<text text-anchor="start" x="1016.5" y="-35" font-family="Helvetica,sans-Serif" font-size="10.00">+ typeStatic()</text>
</a>
</g>
</g>
<!-- Node1&#45;&gt;Node11 -->
<g id="edge10" class="edge">
<title>Node1&#45;&gt;Node11</title>
<path fill="none" stroke="#63b8ff" d="M561.84,-362.3C676.52,-346.86 930.59,-307.7 1000,-256 1010.37,-248.28 1019.46,-238.59 1027.38,-228.03"/>
<polygon fill="none" stroke="#63b8ff" points="561.29,-358.84 551.84,-363.63 562.22,-365.78 561.29,-358.84"/>
</g>
<!-- Node2 -->
<g id="node2" class="node">
<title>Node2</title>
<g id="a_node2"><a xlink:href="classNAV_1_1Node.html" target="_top" xlink:title="Abstract parent class for all nodes.">
<polygon fill="white" stroke="#666666" points="418,-485.5 418,-762.5 592,-762.5 592,-485.5 418,-485.5"/>
<text text-anchor="middle" x="505" y="-750.5" font-family="Helvetica,sans-Serif" font-size="10.00">NAV::Node</text>
<polyline fill="none" stroke="#666666" points="418,-743.5 592,-743.5 "/>
<text text-anchor="start" x="426" y="-731.5" font-family="Helvetica,sans-Serif" font-size="10.00">+ callbacksEnabled</text>
<text text-anchor="start" x="426" y="-720.5" font-family="Helvetica,sans-Serif" font-size="10.00">+ id</text>
<text text-anchor="start" x="426" y="-709.5" font-family="Helvetica,sans-Serif" font-size="10.00">+ inputPins</text>
<text text-anchor="start" x="426" y="-698.5" font-family="Helvetica,sans-Serif" font-size="10.00">+ kind</text>
<text text-anchor="start" x="426" y="-687.5" font-family="Helvetica,sans-Serif" font-size="10.00">+ name</text>
<text text-anchor="start" x="426" y="-676.5" font-family="Helvetica,sans-Serif" font-size="10.00">+ outputPins</text>
<text text-anchor="start" x="426" y="-665.5" font-family="Helvetica,sans-Serif" font-size="10.00">+ pollEvents</text>
<text text-anchor="start" x="426" y="-654.5" font-family="Helvetica,sans-Serif" font-size="10.00"># _guiConfigDefaultWindowSize</text>
<text text-anchor="start" x="426" y="-643.5" font-family="Helvetica,sans-Serif" font-size="10.00"># _hasConfig</text>
<text text-anchor="start" x="426" y="-632.5" font-family="Helvetica,sans-Serif" font-size="10.00"># _lockConfigDuringRun</text>
<polyline fill="none" stroke="#666666" points="418,-625.5 592,-625.5 "/>
<text text-anchor="start" x="426" y="-613.5" font-family="Helvetica,sans-Serif" font-size="10.00">+ afterCreateLink()</text>
<text text-anchor="start" x="426" y="-602.5" font-family="Helvetica,sans-Serif" font-size="10.00">+ afterDeleteLink()</text>
<text text-anchor="start" x="426" y="-591.5" font-family="Helvetica,sans-Serif" font-size="10.00">+ deinitialize()</text>
<text text-anchor="start" x="426" y="-580.5" font-family="Helvetica,sans-Serif" font-size="10.00">+ doDeinitialize()</text>
<text text-anchor="start" x="426" y="-569.5" font-family="Helvetica,sans-Serif" font-size="10.00">+ doDisable()</text>
<text text-anchor="start" x="426" y="-558.5" font-family="Helvetica,sans-Serif" font-size="10.00">+ doEnable()</text>
<text text-anchor="start" x="426" y="-547.5" font-family="Helvetica,sans-Serif" font-size="10.00">+ doInitialize()</text>
<text text-anchor="start" x="426" y="-536.5" font-family="Helvetica,sans-Serif" font-size="10.00">+ doReinitialize()</text>
<text text-anchor="start" x="426" y="-525.5" font-family="Helvetica,sans-Serif" font-size="10.00">+ flush()</text>
<text text-anchor="start" x="426" y="-514.5" font-family="Helvetica,sans-Serif" font-size="10.00">+ getInputValue()</text>
<text text-anchor="start" x="426" y="-503.5" font-family="Helvetica,sans-Serif" font-size="10.00">and 32 more...</text>
<text text-anchor="start" x="426" y="-492.5" font-family="Helvetica,sans-Serif" font-size="10.00">+ toString()</text>
</a>
</g>
</g>
<!-- Node2&#45;&gt;Node1 -->
<g id="edge1" class="edge">
<title>Node2&#45;&gt;Node1</title>
<path fill="none" stroke="#63b8ff" d="M505,-475.47C505,-466.29 505,-457.28 505,-448.62"/>
<polygon fill="none" stroke="#63b8ff" points="501.5,-475.48 505,-485.48 508.5,-475.48 501.5,-475.48"/>
</g>
</g>
</svg>
