<?xml version="1.0" encoding="UTF-8" standalone="no"?>
<!DOCTYPE svg PUBLIC "-//W3C//DTD SVG 1.1//EN"
 "http://www.w3.org/Graphics/SVG/1.1/DTD/svg11.dtd">
<!-- Generated by graphviz version 2.43.0 (0)
 -->
<!-- Title: NAV::KeyedVector&lt; Scalar, RowKeyType, Rows &gt; Pages: 1 -->
<svg width="181pt" height="886pt"
 viewBox="0.00 0.00 181.00 886.00" xmlns="http://www.w3.org/2000/svg" xmlns:xlink="http://www.w3.org/1999/xlink">
<g id="graph0" class="graph" transform="scale(1 1) rotate(0) translate(4 882)">
<title>NAV::KeyedVector&lt; Scalar, RowKeyType, Rows &gt;</title>
<!-- Node1 -->
<g id="Node000001" class="node">
<title>Node1</title>
<g id="a_Node000001"><a xlink:title="Static sized KeyedVector.">
<polygon fill="#999999" stroke="transparent" points="157,-210 16,-210 16,0 157,0 157,-210"/>
<text text-anchor="start" x="21.5" y="-198" font-family="Helvetica,sans-Serif" font-size="10.00">NAV::KeyedVector&lt; Scalar,</text>
<text text-anchor="start" x="32.5" y="-187" font-family="Helvetica,sans-Serif" font-size="10.00"> RowKeyType, Rows &gt;</text>
<text text-anchor="start" x="85" y="-172" font-family="Helvetica,sans-Serif" font-size="10.00"> </text>
<text text-anchor="start" x="31" y="-157" font-family="Helvetica,sans-Serif" font-size="10.00">+</text>
<text text-anchor="start" x="54.5" y="-157" font-family="Helvetica,sans-Serif" font-size="10.00">KeyedVector()</text>
<text text-anchor="start" x="31" y="-142" font-family="Helvetica,sans-Serif" font-size="10.00">+</text>
<text text-anchor="start" x="54.5" y="-142" font-family="Helvetica,sans-Serif" font-size="10.00">KeyedVector()</text>
<text text-anchor="start" x="31" y="-127" font-family="Helvetica,sans-Serif" font-size="10.00">+</text>
<text text-anchor="start" x="54.5" y="-127" font-family="Helvetica,sans-Serif" font-size="10.00">KeyedVector()</text>
<text text-anchor="start" x="31" y="-112" font-family="Helvetica,sans-Serif" font-size="10.00">+</text>
<text text-anchor="start" x="54.5" y="-112" font-family="Helvetica,sans-Serif" font-size="10.00">KeyedVector()</text>
<text text-anchor="start" x="31" y="-97" font-family="Helvetica,sans-Serif" font-size="10.00">+</text>
<text text-anchor="start" x="54.5" y="-97" font-family="Helvetica,sans-Serif" font-size="10.00">KeyedVector()</text>
<text text-anchor="start" x="31" y="-82" font-family="Helvetica,sans-Serif" font-size="10.00">+</text>
<text text-anchor="start" x="54.5" y="-82" font-family="Helvetica,sans-Serif" font-size="10.00">operator=()</text>
<text text-anchor="start" x="31" y="-67" font-family="Helvetica,sans-Serif" font-size="10.00">+</text>
<text text-anchor="start" x="54.5" y="-67" font-family="Helvetica,sans-Serif" font-size="10.00">operator=()</text>
<text text-anchor="start" x="31" y="-52" font-family="Helvetica,sans-Serif" font-size="10.00">+</text>
<text text-anchor="start" x="54.5" y="-52" font-family="Helvetica,sans-Serif" font-size="10.00">operator=()</text>
<text text-anchor="start" x="31" y="-37" font-family="Helvetica,sans-Serif" font-size="10.00">+</text>
<text text-anchor="start" x="54.5" y="-37" font-family="Helvetica,sans-Serif" font-size="10.00">operator=()</text>
<text text-anchor="start" x="31" y="-22" font-family="Helvetica,sans-Serif" font-size="10.00">+</text>
<text text-anchor="start" x="54.5" y="-22" font-family="Helvetica,sans-Serif" font-size="10.00">transposed()</text>
<text text-anchor="start" x="31" y="-7" font-family="Helvetica,sans-Serif" font-size="10.00">+</text>
<text text-anchor="start" x="54.5" y="-7" font-family="Helvetica,sans-Serif" font-size="10.00">~KeyedVector()</text>
<polygon fill="#666666" stroke="#666666" points="16.5,-182 16.5,-182 157.5,-182 157.5,-182 16.5,-182"/>
<polygon fill="#666666" stroke="#666666" points="16.5,-167 16.5,-167 157.5,-167 157.5,-167 16.5,-167"/>
<polygon fill="none" stroke="#666666" points="16,0 16,-210 157,-210 157,0 16,0"/>
</a>
</g>
</g>
<!-- Node2 -->
<g id="Node000002" class="node">
<title>Node2</title>
<g id="a_Node000002"><a xlink:href="classNAV_1_1internal_1_1KeyedVectorBase.html" target="_top" xlink:title="Class to inherit common methods for static and dynamic sized vectors.">
<polygon fill="white" stroke="transparent" points="159.5,-478 13.5,-478 13.5,-246 159.5,-246 159.5,-478"/>
<text text-anchor="start" x="18.5" y="-466" font-family="Helvetica,sans-Serif" font-size="10.00">NAV::internal::KeyedVector</text>
<text text-anchor="start" x="18.5" y="-455" font-family="Helvetica,sans-Serif" font-size="10.00">Base&lt; Scalar, RowKeyType,</text>
<text text-anchor="start" x="66" y="-444" font-family="Helvetica,sans-Serif" font-size="10.00"> Rows &gt;</text>
<text text-anchor="start" x="84.5" y="-429" font-family="Helvetica,sans-Serif" font-size="10.00"> </text>
<text text-anchor="start" x="21.5" y="-414" font-family="Helvetica,sans-Serif" font-size="10.00">+</text>
<text text-anchor="start" x="38.5" y="-414" font-family="Helvetica,sans-Serif" font-size="10.00">KeyedVectorBase()</text>
<text text-anchor="start" x="21.5" y="-399" font-family="Helvetica,sans-Serif" font-size="10.00">+</text>
<text text-anchor="start" x="38.5" y="-399" font-family="Helvetica,sans-Serif" font-size="10.00">KeyedVectorBase()</text>
<text text-anchor="start" x="21.5" y="-384" font-family="Helvetica,sans-Serif" font-size="10.00">+</text>
<text text-anchor="start" x="38.5" y="-384" font-family="Helvetica,sans-Serif" font-size="10.00">KeyedVectorBase()</text>
<text text-anchor="start" x="21.5" y="-369" font-family="Helvetica,sans-Serif" font-size="10.00">+</text>
<text text-anchor="start" x="38.5" y="-369" font-family="Helvetica,sans-Serif" font-size="10.00">KeyedVectorBase()</text>
<text text-anchor="start" x="21.5" y="-354" font-family="Helvetica,sans-Serif" font-size="10.00">+</text>
<text text-anchor="start" x="38.5" y="-354" font-family="Helvetica,sans-Serif" font-size="10.00">KeyedVectorBase()</text>
<text text-anchor="start" x="21.5" y="-339" font-family="Helvetica,sans-Serif" font-size="10.00">+</text>
<text text-anchor="start" x="38.5" y="-339" font-family="Helvetica,sans-Serif" font-size="10.00">KeyedVectorBase()</text>
<text text-anchor="start" x="21.5" y="-324" font-family="Helvetica,sans-Serif" font-size="10.00">+</text>
<text text-anchor="start" x="38.5" y="-324" font-family="Helvetica,sans-Serif" font-size="10.00">operator Eigen::Vector</text>
<text text-anchor="start" x="38.5" y="-313" font-family="Helvetica,sans-Serif" font-size="10.00">&lt; Scalar, Rows &gt;()</text>
<text text-anchor="start" x="21.5" y="-298" font-family="Helvetica,sans-Serif" font-size="10.00">+</text>
<text text-anchor="start" x="38.5" y="-298" font-family="Helvetica,sans-Serif" font-size="10.00">operator()()</text>
<text text-anchor="start" x="21.5" y="-283" font-family="Helvetica,sans-Serif" font-size="10.00">+</text>
<text text-anchor="start" x="38.5" y="-283" font-family="Helvetica,sans-Serif" font-size="10.00">operator()()</text>
<text text-anchor="start" x="21.5" y="-268" font-family="Helvetica,sans-Serif" font-size="10.00">+</text>
<text text-anchor="start" x="38.5" y="-268" font-family="Helvetica,sans-Serif" font-size="10.00">operator()()</text>
<text text-anchor="start" x="38.5" y="-253" font-family="Helvetica,sans-Serif" font-size="10.00">and 13 more...</text>
<polygon fill="#666666" stroke="#666666" points="13.5,-439 13.5,-439 159.5,-439 159.5,-439 13.5,-439"/>
<polygon fill="#666666" stroke="#666666" points="13.5,-424 13.5,-424 159.5,-424 159.5,-424 13.5,-424"/>
<polygon fill="none" stroke="#666666" points="13.5,-246 13.5,-478 159.5,-478 159.5,-246 13.5,-246"/>
</a>
</g>
</g>
<!-- Node2&#45;&gt;Node1 -->
<g id="edge1_Node000001_Node000002" class="edge">
<title>Node2&#45;&gt;Node1</title>
<g id="a_edge1_Node000001_Node000002"><a xlink:title=" ">
<path fill="none" stroke="#63b8ff" d="M86.5,-235.76C86.5,-227.19 86.5,-218.6 86.5,-210.16"/>
<polygon fill="none" stroke="#63b8ff" points="83,-235.81 86.5,-245.81 90,-235.81 83,-235.81"/>
</a>
</g>
</g>
<!-- Node3 -->
<g id="Node000003" class="node">
<title>Node3</title>
<g id="a_Node000003"><a xlink:href="classNAV_1_1internal_1_1KeyedMatrixRows.html" target="_top" xlink:title=" ">
<polygon fill="white" stroke="transparent" points="161,-585 12,-585 12,-514 161,-514 161,-585"/>
<text text-anchor="start" x="17.5" y="-572.5" font-family="Helvetica,sans-Serif" font-size="10.00">NAV::internal::KeyedMatrix</text>
<text text-anchor="start" x="17.5" y="-561.5" font-family="Helvetica,sans-Serif" font-size="10.00">Rows&lt; Scalar, RowKeyType,</text>
<text text-anchor="start" x="60.5" y="-550.5" font-family="Helvetica,sans-Serif" font-size="10.00"> Rows, 1 &gt;</text>
<text text-anchor="start" x="85" y="-535.5" font-family="Helvetica,sans-Serif" font-size="10.00"> </text>
<text text-anchor="start" x="85" y="-520.5" font-family="Helvetica,sans-Serif" font-size="10.00"> </text>
<polygon fill="#666666" stroke="#666666" points="12.5,-545.5 12.5,-545.5 161.5,-545.5 161.5,-545.5 12.5,-545.5"/>
<polygon fill="#666666" stroke="#666666" points="12.5,-530.5 12.5,-530.5 161.5,-530.5 161.5,-530.5 12.5,-530.5"/>
<polygon fill="none" stroke="#666666" points="12,-514 12,-585 161,-585 161,-514 12,-514"/>
</a>
</g>
</g>
<!-- Node3&#45;&gt;Node2 -->
<g id="edge2_Node000002_Node000003" class="edge">
<title>Node3&#45;&gt;Node2</title>
<g id="a_edge2_Node000002_Node000003"><a xlink:title=" ">
<path fill="none" stroke="#63b8ff" d="M86.5,-503.59C86.5,-495.66 86.5,-487.09 86.5,-478.23"/>
<polygon fill="none" stroke="#63b8ff" points="83,-503.61 86.5,-513.61 90,-503.61 83,-503.61"/>
</a>
</g>
</g>
<!-- Node4 -->
<g id="Node000004" class="node">
<title>Node4</title>
<g id="a_Node000004"><a xlink:href="classNAV_1_1internal_1_1KeyedMatrixRowsBase.html" target="_top" xlink:title="Base class for Keyed matrices with multiple rows.">
<polygon fill="white" stroke="transparent" points="173,-782 0,-782 0,-621 173,-621 173,-782"/>
<text text-anchor="start" x="5.5" y="-769.5" font-family="Helvetica,sans-Serif" font-size="10.00">NAV::internal::KeyedMatrix</text>
<text text-anchor="start" x="5.5" y="-758.5" font-family="Helvetica,sans-Serif" font-size="10.00">RowsBase&lt; Scalar, RowKeyType,</text>
<text text-anchor="start" x="53" y="-747.5" font-family="Helvetica,sans-Serif" font-size="10.00"> Rows, Cols &gt;</text>
<text text-anchor="start" x="24" y="-732.5" font-family="Helvetica,sans-Serif" font-size="10.00">#</text>
<text text-anchor="start" x="56.5" y="-732.5" font-family="Helvetica,sans-Serif" font-size="10.00">rowIndices</text>
<text text-anchor="start" x="24" y="-717.5" font-family="Helvetica,sans-Serif" font-size="10.00">#</text>
<text text-anchor="start" x="56.5" y="-717.5" font-family="Helvetica,sans-Serif" font-size="10.00">rowKeysVector</text>
<text text-anchor="start" x="24" y="-702.5" font-family="Helvetica,sans-Serif" font-size="10.00">#</text>
<text text-anchor="start" x="56.5" y="-702.5" font-family="Helvetica,sans-Serif" font-size="10.00">rowSlice</text>
<text text-anchor="start" x="24" y="-687.5" font-family="Helvetica,sans-Serif" font-size="10.00">+</text>
<text text-anchor="start" x="56.5" y="-687.5" font-family="Helvetica,sans-Serif" font-size="10.00">hasAnyRows()</text>
<text text-anchor="start" x="24" y="-672.5" font-family="Helvetica,sans-Serif" font-size="10.00">+</text>
<text text-anchor="start" x="56.5" y="-672.5" font-family="Helvetica,sans-Serif" font-size="10.00">hasRow()</text>
<text text-anchor="start" x="24" y="-657.5" font-family="Helvetica,sans-Serif" font-size="10.00">+</text>
<text text-anchor="start" x="56.5" y="-657.5" font-family="Helvetica,sans-Serif" font-size="10.00">hasRows()</text>
<text text-anchor="start" x="24" y="-642.5" font-family="Helvetica,sans-Serif" font-size="10.00">+</text>
<text text-anchor="start" x="56.5" y="-642.5" font-family="Helvetica,sans-Serif" font-size="10.00">rowKeys()</text>
<text text-anchor="start" x="24" y="-627.5" font-family="Helvetica,sans-Serif" font-size="10.00">+</text>
<text text-anchor="start" x="56.5" y="-627.5" font-family="Helvetica,sans-Serif" font-size="10.00">rows()</text>
<polygon fill="#666666" stroke="#666666" points="0.5,-742.5 0.5,-742.5 173.5,-742.5 173.5,-742.5 0.5,-742.5"/>
<polygon fill="#666666" stroke="#666666" points="0.5,-697.5 0.5,-697.5 54.5,-697.5 54.5,-697.5 0.5,-697.5"/>
<polygon fill="#666666" stroke="#666666" points="54.5,-697.5 54.5,-697.5 173.5,-697.5 173.5,-697.5 54.5,-697.5"/>
<polygon fill="none" stroke="#666666" points="0,-621 0,-782 173,-782 173,-621 0,-621"/>
</a>
</g>
</g>
<!-- Node4&#45;&gt;Node3 -->
<g id="edge3_Node000003_Node000004" class="edge">
<title>Node4&#45;&gt;Node3</title>
<g id="a_edge3_Node000003_Node000004"><a xlink:title=" ">
<path fill="none" stroke="#63b8ff" d="M86.5,-610.52C86.5,-601.62 86.5,-593.01 86.5,-585.22"/>
<polygon fill="none" stroke="#63b8ff" points="83,-610.67 86.5,-620.67 90,-610.67 83,-610.67"/>
</a>
</g>
</g>
<!-- Node5 -->
<g id="Node000005" class="node">
<title>Node5</title>
<g id="a_Node000005"><a xlink:href="classNAV_1_1internal_1_1KeyedMatrixStorage.html" target="_top" xlink:title="KeyedMatrix storage class.">
<polygon fill="white" stroke="transparent" points="166.5,-878 6.5,-878 6.5,-818 166.5,-818 166.5,-878"/>
<text text-anchor="start" x="11.5" y="-866" font-family="Helvetica,sans-Serif" font-size="10.00">NAV::internal::KeyedMatrix</text>
<text text-anchor="start" x="11.5" y="-855" font-family="Helvetica,sans-Serif" font-size="10.00">Storage&lt; Scalar, Rows, Cols &gt;</text>
<text text-anchor="start" x="37" y="-840" font-family="Helvetica,sans-Serif" font-size="10.00">#</text>
<text text-anchor="start" x="76.5" y="-840" font-family="Helvetica,sans-Serif" font-size="10.00">matrix</text>
<text text-anchor="start" x="84.5" y="-825" font-family="Helvetica,sans-Serif" font-size="10.00"> </text>
<polygon fill="#666666" stroke="#666666" points="6.5,-850 6.5,-850 166.5,-850 166.5,-850 6.5,-850"/>
<polygon fill="#666666" stroke="#666666" points="6.5,-835 6.5,-835 74.5,-835 74.5,-835 6.5,-835"/>
<polygon fill="#666666" stroke="#666666" points="74.5,-835 74.5,-835 166.5,-835 166.5,-835 74.5,-835"/>
<polygon fill="none" stroke="#666666" points="6.5,-818 6.5,-878 166.5,-878 166.5,-818 6.5,-818"/>
</a>
</g>
</g>
<!-- Node5&#45;&gt;Node4 -->
<g id="edge4_Node000004_Node000005" class="edge">
<title>Node5&#45;&gt;Node4</title>
<g id="a_edge4_Node000004_Node000005"><a xlink:title=" ">
<path fill="none" stroke="#63b8ff" d="M86.5,-807.7C86.5,-799.72 86.5,-791.05 86.5,-782.24"/>
<polygon fill="none" stroke="#63b8ff" points="83,-807.76 86.5,-817.76 90,-807.76 83,-807.76"/>
</a>
</g>
</g>
</g>
</svg>
