<?xml version="1.0" encoding="UTF-8" standalone="no"?>
<!DOCTYPE svg PUBLIC "-//W3C//DTD SVG 1.1//EN"
 "http://www.w3.org/Graphics/SVG/1.1/DTD/svg11.dtd">
<!-- Generated by graphviz version 2.43.0 (0)
 -->
<!-- Title: NAV::KeyedMatrix&lt; Scalar, RowKeyType, ColKeyType, Eigen::Dynamic, Eigen::Dynamic &gt; Pages: 1 -->
<svg width="362pt" height="908pt"
 viewBox="0.00 0.00 361.50 908.00" xmlns="http://www.w3.org/2000/svg" xmlns:xlink="http://www.w3.org/1999/xlink">
<g id="graph0" class="graph" transform="scale(1 1) rotate(0) translate(4 904)">
<title>NAV::KeyedMatrix&lt; Scalar, RowKeyType, ColKeyType, Eigen::Dynamic, Eigen::Dynamic &gt;</title>
<!-- Node1 -->
<g id="Node000001" class="node">
<title>Node1</title>
<g id="a_Node000001"><a xlink:title="Dynamic sized KeyedMatrix.">
<polygon fill="#999999" stroke="transparent" points="249.5,-232 107.5,-232 107.5,0 249.5,0 249.5,-232"/>
<text text-anchor="start" x="112.5" y="-220" font-family="Helvetica,sans-Serif" font-size="10.00">NAV::KeyedMatrix&lt; Scalar,</text>
<text text-anchor="start" x="112.5" y="-209" font-family="Helvetica,sans-Serif" font-size="10.00"> RowKeyType, ColKeyType,</text>
<text text-anchor="start" x="112.5" y="-198" font-family="Helvetica,sans-Serif" font-size="10.00"> Eigen::Dynamic, Eigen::</text>
<text text-anchor="start" x="151" y="-187" font-family="Helvetica,sans-Serif" font-size="10.00">Dynamic &gt;</text>
<text text-anchor="start" x="176.5" y="-172" font-family="Helvetica,sans-Serif" font-size="10.00"> </text>
<text text-anchor="start" x="123.5" y="-157" font-family="Helvetica,sans-Serif" font-size="10.00">+</text>
<text text-anchor="start" x="148.5" y="-157" font-family="Helvetica,sans-Serif" font-size="10.00">addRowsCols()</text>
<text text-anchor="start" x="123.5" y="-142" font-family="Helvetica,sans-Serif" font-size="10.00">+</text>
<text text-anchor="start" x="148.5" y="-142" font-family="Helvetica,sans-Serif" font-size="10.00">getSubMatrix()</text>
<text text-anchor="start" x="123.5" y="-127" font-family="Helvetica,sans-Serif" font-size="10.00">+</text>
<text text-anchor="start" x="148.5" y="-127" font-family="Helvetica,sans-Serif" font-size="10.00">inverse()</text>
<text text-anchor="start" x="123.5" y="-112" font-family="Helvetica,sans-Serif" font-size="10.00">+</text>
<text text-anchor="start" x="148.5" y="-112" font-family="Helvetica,sans-Serif" font-size="10.00">KeyedMatrix()</text>
<text text-anchor="start" x="123.5" y="-97" font-family="Helvetica,sans-Serif" font-size="10.00">+</text>
<text text-anchor="start" x="148.5" y="-97" font-family="Helvetica,sans-Serif" font-size="10.00">KeyedMatrix()</text>
<text text-anchor="start" x="123.5" y="-82" font-family="Helvetica,sans-Serif" font-size="10.00">+</text>
<text text-anchor="start" x="148.5" y="-82" font-family="Helvetica,sans-Serif" font-size="10.00">KeyedMatrix()</text>
<text text-anchor="start" x="123.5" y="-67" font-family="Helvetica,sans-Serif" font-size="10.00">+</text>
<text text-anchor="start" x="148.5" y="-67" font-family="Helvetica,sans-Serif" font-size="10.00">KeyedMatrix()</text>
<text text-anchor="start" x="123.5" y="-52" font-family="Helvetica,sans-Serif" font-size="10.00">+</text>
<text text-anchor="start" x="148.5" y="-52" font-family="Helvetica,sans-Serif" font-size="10.00">KeyedMatrix()</text>
<text text-anchor="start" x="123.5" y="-37" font-family="Helvetica,sans-Serif" font-size="10.00">+</text>
<text text-anchor="start" x="148.5" y="-37" font-family="Helvetica,sans-Serif" font-size="10.00">KeyedMatrix()</text>
<text text-anchor="start" x="123.5" y="-22" font-family="Helvetica,sans-Serif" font-size="10.00">+</text>
<text text-anchor="start" x="148.5" y="-22" font-family="Helvetica,sans-Serif" font-size="10.00">KeyedMatrix()</text>
<text text-anchor="start" x="148.5" y="-7" font-family="Helvetica,sans-Serif" font-size="10.00">and 7 more...</text>
<polygon fill="#666666" stroke="#666666" points="107.5,-182 107.5,-182 249.5,-182 249.5,-182 107.5,-182"/>
<polygon fill="#666666" stroke="#666666" points="107.5,-167 107.5,-167 249.5,-167 249.5,-167 107.5,-167"/>
<polygon fill="none" stroke="#666666" points="107.5,0 107.5,-232 249.5,-232 249.5,0 107.5,0"/>
</a>
</g>
</g>
<!-- Node2 -->
<g id="Node000002" class="node">
<title>Node2</title>
<g id="a_Node000002"><a xlink:href="classNAV_1_1internal_1_1KeyedMatrixBase.html" target="_top" xlink:title=" ">
<polygon fill="white" stroke="transparent" points="256,-500 101,-500 101,-268 256,-268 256,-500"/>
<text text-anchor="start" x="106.5" y="-488" font-family="Helvetica,sans-Serif" font-size="10.00">NAV::internal::KeyedMatrix</text>
<text text-anchor="start" x="106.5" y="-477" font-family="Helvetica,sans-Serif" font-size="10.00">Base&lt; Scalar, RowKeyType,</text>
<text text-anchor="start" x="106.5" y="-466" font-family="Helvetica,sans-Serif" font-size="10.00"> ColKeyType, Eigen::Dynamic,</text>
<text text-anchor="start" x="133.5" y="-455" font-family="Helvetica,sans-Serif" font-size="10.00"> Eigen::Dynamic &gt;</text>
<text text-anchor="start" x="177" y="-440" font-family="Helvetica,sans-Serif" font-size="10.00"> </text>
<text text-anchor="start" x="121" y="-425" font-family="Helvetica,sans-Serif" font-size="10.00">+</text>
<text text-anchor="start" x="149.5" y="-425" font-family="Helvetica,sans-Serif" font-size="10.00">block()</text>
<text text-anchor="start" x="121" y="-410" font-family="Helvetica,sans-Serif" font-size="10.00">+</text>
<text text-anchor="start" x="149.5" y="-410" font-family="Helvetica,sans-Serif" font-size="10.00">block()</text>
<text text-anchor="start" x="121" y="-395" font-family="Helvetica,sans-Serif" font-size="10.00">+</text>
<text text-anchor="start" x="149.5" y="-395" font-family="Helvetica,sans-Serif" font-size="10.00">block()</text>
<text text-anchor="start" x="121" y="-380" font-family="Helvetica,sans-Serif" font-size="10.00">+</text>
<text text-anchor="start" x="149.5" y="-380" font-family="Helvetica,sans-Serif" font-size="10.00">block()</text>
<text text-anchor="start" x="121" y="-365" font-family="Helvetica,sans-Serif" font-size="10.00">+</text>
<text text-anchor="start" x="149.5" y="-365" font-family="Helvetica,sans-Serif" font-size="10.00">block()</text>
<text text-anchor="start" x="121" y="-350" font-family="Helvetica,sans-Serif" font-size="10.00">+</text>
<text text-anchor="start" x="149.5" y="-350" font-family="Helvetica,sans-Serif" font-size="10.00">block()</text>
<text text-anchor="start" x="121" y="-335" font-family="Helvetica,sans-Serif" font-size="10.00">+</text>
<text text-anchor="start" x="149.5" y="-335" font-family="Helvetica,sans-Serif" font-size="10.00">block()</text>
<text text-anchor="start" x="121" y="-320" font-family="Helvetica,sans-Serif" font-size="10.00">+</text>
<text text-anchor="start" x="149.5" y="-320" font-family="Helvetica,sans-Serif" font-size="10.00">block()</text>
<text text-anchor="start" x="121" y="-305" font-family="Helvetica,sans-Serif" font-size="10.00">+</text>
<text text-anchor="start" x="149.5" y="-305" font-family="Helvetica,sans-Serif" font-size="10.00">block()</text>
<text text-anchor="start" x="121" y="-290" font-family="Helvetica,sans-Serif" font-size="10.00">+</text>
<text text-anchor="start" x="149.5" y="-290" font-family="Helvetica,sans-Serif" font-size="10.00">block()</text>
<text text-anchor="start" x="149.5" y="-275" font-family="Helvetica,sans-Serif" font-size="10.00">and 48 more...</text>
<polygon fill="#666666" stroke="#666666" points="101.5,-450 101.5,-450 256.5,-450 256.5,-450 101.5,-450"/>
<polygon fill="#666666" stroke="#666666" points="101.5,-435 101.5,-435 256.5,-435 256.5,-435 101.5,-435"/>
<polygon fill="none" stroke="#666666" points="101,-268 101,-500 256,-500 256,-268 101,-268"/>
</a>
</g>
</g>
<!-- Node2&#45;&gt;Node1 -->
<g id="edge1_Node000001_Node000002" class="edge">
<title>Node2&#45;&gt;Node1</title>
<g id="a_edge1_Node000001_Node000002"><a xlink:title=" ">
<path fill="none" stroke="#63b8ff" d="M178.5,-257.61C178.5,-249.17 178.5,-240.69 178.5,-232.3"/>
<polygon fill="none" stroke="#63b8ff" points="175,-257.88 178.5,-267.88 182,-257.88 175,-257.88"/>
</a>
</g>
</g>
<!-- Node3 -->
<g id="Node000003" class="node">
<title>Node3</title>
<g id="a_Node000003"><a xlink:href="classNAV_1_1internal_1_1KeyedMatrixRows.html" target="_top" xlink:title="Base class for Keyed matrices with multiple rows of static size.">
<polygon fill="white" stroke="transparent" points="172,-607 23,-607 23,-536 172,-536 172,-607"/>
<text text-anchor="start" x="28.5" y="-594.5" font-family="Helvetica,sans-Serif" font-size="10.00">NAV::internal::KeyedMatrix</text>
<text text-anchor="start" x="28.5" y="-583.5" font-family="Helvetica,sans-Serif" font-size="10.00">Rows&lt; Scalar, RowKeyType,</text>
<text text-anchor="start" x="64" y="-572.5" font-family="Helvetica,sans-Serif" font-size="10.00"> Rows, Cols &gt;</text>
<text text-anchor="start" x="96" y="-557.5" font-family="Helvetica,sans-Serif" font-size="10.00"> </text>
<text text-anchor="start" x="96" y="-542.5" font-family="Helvetica,sans-Serif" font-size="10.00"> </text>
<polygon fill="#666666" stroke="#666666" points="23.5,-567.5 23.5,-567.5 172.5,-567.5 172.5,-567.5 23.5,-567.5"/>
<polygon fill="#666666" stroke="#666666" points="23.5,-552.5 23.5,-552.5 172.5,-552.5 172.5,-552.5 23.5,-552.5"/>
<polygon fill="none" stroke="#666666" points="23,-536 23,-607 172,-607 172,-536 23,-536"/>
</a>
</g>
</g>
<!-- Node3&#45;&gt;Node2 -->
<g id="edge2_Node000002_Node000003" class="edge">
<title>Node3&#45;&gt;Node2</title>
<g id="a_edge2_Node000002_Node000003"><a xlink:title=" ">
<path fill="none" stroke="#63b8ff" d="M116.76,-526.39C120.32,-518.24 124.18,-509.39 128.18,-500.23"/>
<polygon fill="none" stroke="#63b8ff" points="113.53,-525.04 112.74,-535.61 119.94,-527.85 113.53,-525.04"/>
</a>
</g>
</g>
<!-- Node4 -->
<g id="Node000004" class="node">
<title>Node4</title>
<g id="a_Node000004"><a xlink:href="classNAV_1_1internal_1_1KeyedMatrixRowsBase.html" target="_top" xlink:title="Base class for Keyed matrices with multiple rows.">
<polygon fill="white" stroke="transparent" points="173,-804 0,-804 0,-643 173,-643 173,-804"/>
<text text-anchor="start" x="5.5" y="-791.5" font-family="Helvetica,sans-Serif" font-size="10.00">NAV::internal::KeyedMatrix</text>
<text text-anchor="start" x="5.5" y="-780.5" font-family="Helvetica,sans-Serif" font-size="10.00">RowsBase&lt; Scalar, RowKeyType,</text>
<text text-anchor="start" x="53" y="-769.5" font-family="Helvetica,sans-Serif" font-size="10.00"> Rows, Cols &gt;</text>
<text text-anchor="start" x="24" y="-754.5" font-family="Helvetica,sans-Serif" font-size="10.00">#</text>
<text text-anchor="start" x="56.5" y="-754.5" font-family="Helvetica,sans-Serif" font-size="10.00">rowIndices</text>
<text text-anchor="start" x="24" y="-739.5" font-family="Helvetica,sans-Serif" font-size="10.00">#</text>
<text text-anchor="start" x="56.5" y="-739.5" font-family="Helvetica,sans-Serif" font-size="10.00">rowKeysVector</text>
<text text-anchor="start" x="24" y="-724.5" font-family="Helvetica,sans-Serif" font-size="10.00">#</text>
<text text-anchor="start" x="56.5" y="-724.5" font-family="Helvetica,sans-Serif" font-size="10.00">rowSlice</text>
<text text-anchor="start" x="24" y="-709.5" font-family="Helvetica,sans-Serif" font-size="10.00">+</text>
<text text-anchor="start" x="56.5" y="-709.5" font-family="Helvetica,sans-Serif" font-size="10.00">hasAnyRows()</text>
<text text-anchor="start" x="24" y="-694.5" font-family="Helvetica,sans-Serif" font-size="10.00">+</text>
<text text-anchor="start" x="56.5" y="-694.5" font-family="Helvetica,sans-Serif" font-size="10.00">hasRow()</text>
<text text-anchor="start" x="24" y="-679.5" font-family="Helvetica,sans-Serif" font-size="10.00">+</text>
<text text-anchor="start" x="56.5" y="-679.5" font-family="Helvetica,sans-Serif" font-size="10.00">hasRows()</text>
<text text-anchor="start" x="24" y="-664.5" font-family="Helvetica,sans-Serif" font-size="10.00">+</text>
<text text-anchor="start" x="56.5" y="-664.5" font-family="Helvetica,sans-Serif" font-size="10.00">rowKeys()</text>
<text text-anchor="start" x="24" y="-649.5" font-family="Helvetica,sans-Serif" font-size="10.00">+</text>
<text text-anchor="start" x="56.5" y="-649.5" font-family="Helvetica,sans-Serif" font-size="10.00">rows()</text>
<polygon fill="#666666" stroke="#666666" points="0.5,-764.5 0.5,-764.5 173.5,-764.5 173.5,-764.5 0.5,-764.5"/>
<polygon fill="#666666" stroke="#666666" points="0.5,-719.5 0.5,-719.5 54.5,-719.5 54.5,-719.5 0.5,-719.5"/>
<polygon fill="#666666" stroke="#666666" points="54.5,-719.5 54.5,-719.5 173.5,-719.5 173.5,-719.5 54.5,-719.5"/>
<polygon fill="none" stroke="#666666" points="0,-643 0,-804 173,-804 173,-643 0,-643"/>
</a>
</g>
</g>
<!-- Node4&#45;&gt;Node3 -->
<g id="edge3_Node000003_Node000004" class="edge">
<title>Node4&#45;&gt;Node3</title>
<g id="a_edge3_Node000003_Node000004"><a xlink:title=" ">
<path fill="none" stroke="#63b8ff" d="M93.1,-632.52C93.75,-623.62 94.38,-615.01 94.95,-607.22"/>
<polygon fill="none" stroke="#63b8ff" points="89.6,-632.44 92.35,-642.67 96.58,-632.95 89.6,-632.44"/>
</a>
</g>
</g>
<!-- Node5 -->
<g id="Node000005" class="node">
<title>Node5</title>
<g id="a_Node000005"><a xlink:href="classNAV_1_1internal_1_1KeyedMatrixStorage.html" target="_top" xlink:title="KeyedMatrix storage class.">
<polygon fill="white" stroke="transparent" points="259.5,-900 99.5,-900 99.5,-840 259.5,-840 259.5,-900"/>
<text text-anchor="start" x="104.5" y="-888" font-family="Helvetica,sans-Serif" font-size="10.00">NAV::internal::KeyedMatrix</text>
<text text-anchor="start" x="104.5" y="-877" font-family="Helvetica,sans-Serif" font-size="10.00">Storage&lt; Scalar, Rows, Cols &gt;</text>
<text text-anchor="start" x="130" y="-862" font-family="Helvetica,sans-Serif" font-size="10.00">#</text>
<text text-anchor="start" x="169.5" y="-862" font-family="Helvetica,sans-Serif" font-size="10.00">matrix</text>
<text text-anchor="start" x="177.5" y="-847" font-family="Helvetica,sans-Serif" font-size="10.00"> </text>
<polygon fill="#666666" stroke="#666666" points="99.5,-872 99.5,-872 259.5,-872 259.5,-872 99.5,-872"/>
<polygon fill="#666666" stroke="#666666" points="99.5,-857 99.5,-857 167.5,-857 167.5,-857 99.5,-857"/>
<polygon fill="#666666" stroke="#666666" points="167.5,-857 167.5,-857 259.5,-857 259.5,-857 167.5,-857"/>
<polygon fill="none" stroke="#666666" points="99.5,-840 99.5,-900 259.5,-900 259.5,-840 99.5,-840"/>
</a>
</g>
</g>
<!-- Node5&#45;&gt;Node4 -->
<g id="edge4_Node000004_Node000005" class="edge">
<title>Node5&#45;&gt;Node4</title>
<g id="a_edge4_Node000004_Node000005"><a xlink:title=" ">
<path fill="none" stroke="#63b8ff" d="M155.24,-831.31C149.82,-822.89 143.87,-813.65 137.82,-804.24"/>
<polygon fill="none" stroke="#63b8ff" points="152.32,-833.24 160.68,-839.76 158.21,-829.46 152.32,-833.24"/>
</a>
</g>
</g>
<!-- Node7 -->
<g id="Node000007" class="node">
<title>Node7</title>
<g id="a_Node000007"><a xlink:href="classNAV_1_1internal_1_1KeyedMatrixColsBase.html" target="_top" xlink:title="Base class for Keyed matrices with multiple columns.">
<polygon fill="white" stroke="transparent" points="353.5,-804 191.5,-804 191.5,-643 353.5,-643 353.5,-804"/>
<text text-anchor="start" x="196.5" y="-791.5" font-family="Helvetica,sans-Serif" font-size="10.00">NAV::internal::KeyedMatrix</text>
<text text-anchor="start" x="196.5" y="-780.5" font-family="Helvetica,sans-Serif" font-size="10.00">ColsBase&lt; Scalar, ColKeyType,</text>
<text text-anchor="start" x="238.5" y="-769.5" font-family="Helvetica,sans-Serif" font-size="10.00"> Rows, Cols &gt;</text>
<text text-anchor="start" x="213.5" y="-754.5" font-family="Helvetica,sans-Serif" font-size="10.00">#</text>
<text text-anchor="start" x="244.5" y="-754.5" font-family="Helvetica,sans-Serif" font-size="10.00">colIndices</text>
<text text-anchor="start" x="213.5" y="-739.5" font-family="Helvetica,sans-Serif" font-size="10.00">#</text>
<text text-anchor="start" x="244.5" y="-739.5" font-family="Helvetica,sans-Serif" font-size="10.00">colKeysVector</text>
<text text-anchor="start" x="213.5" y="-724.5" font-family="Helvetica,sans-Serif" font-size="10.00">#</text>
<text text-anchor="start" x="244.5" y="-724.5" font-family="Helvetica,sans-Serif" font-size="10.00">colSlice</text>
<text text-anchor="start" x="213.5" y="-709.5" font-family="Helvetica,sans-Serif" font-size="10.00">+</text>
<text text-anchor="start" x="244.5" y="-709.5" font-family="Helvetica,sans-Serif" font-size="10.00">colKeys()</text>
<text text-anchor="start" x="213.5" y="-694.5" font-family="Helvetica,sans-Serif" font-size="10.00">+</text>
<text text-anchor="start" x="244.5" y="-694.5" font-family="Helvetica,sans-Serif" font-size="10.00">cols()</text>
<text text-anchor="start" x="213.5" y="-679.5" font-family="Helvetica,sans-Serif" font-size="10.00">+</text>
<text text-anchor="start" x="244.5" y="-679.5" font-family="Helvetica,sans-Serif" font-size="10.00">hasAnyCols()</text>
<text text-anchor="start" x="213.5" y="-664.5" font-family="Helvetica,sans-Serif" font-size="10.00">+</text>
<text text-anchor="start" x="244.5" y="-664.5" font-family="Helvetica,sans-Serif" font-size="10.00">hasCol()</text>
<text text-anchor="start" x="213.5" y="-649.5" font-family="Helvetica,sans-Serif" font-size="10.00">+</text>
<text text-anchor="start" x="244.5" y="-649.5" font-family="Helvetica,sans-Serif" font-size="10.00">hasCols()</text>
<polygon fill="#666666" stroke="#666666" points="191.5,-764.5 191.5,-764.5 353.5,-764.5 353.5,-764.5 191.5,-764.5"/>
<polygon fill="#666666" stroke="#666666" points="191.5,-719.5 191.5,-719.5 242.5,-719.5 242.5,-719.5 191.5,-719.5"/>
<polygon fill="#666666" stroke="#666666" points="242.5,-719.5 242.5,-719.5 353.5,-719.5 353.5,-719.5 242.5,-719.5"/>
<polygon fill="none" stroke="#666666" points="191.5,-643 191.5,-804 353.5,-804 353.5,-643 191.5,-643"/>
</a>
</g>
</g>
<!-- Node5&#45;&gt;Node7 -->
<g id="edge7_Node000007_Node000005" class="edge">
<title>Node5&#45;&gt;Node7</title>
<g id="a_edge7_Node000007_Node000005"><a xlink:title=" ">
<path fill="none" stroke="#63b8ff" d="M203.76,-831.31C209.18,-822.89 215.13,-813.65 221.18,-804.24"/>
<polygon fill="none" stroke="#63b8ff" points="200.79,-829.46 198.32,-839.76 206.68,-833.24 200.79,-829.46"/>
</a>
</g>
</g>
<!-- Node6 -->
<g id="Node000006" class="node">
<title>Node6</title>
<g id="a_Node000006"><a xlink:href="classNAV_1_1internal_1_1KeyedMatrixCols.html" target="_top" xlink:title="Base class for Keyed matrices with multiple columns of static size.">
<polygon fill="white" stroke="transparent" points="337,-607 196,-607 196,-536 337,-536 337,-607"/>
<text text-anchor="start" x="201.5" y="-594.5" font-family="Helvetica,sans-Serif" font-size="10.00">NAV::internal::KeyedMatrix</text>
<text text-anchor="start" x="201.5" y="-583.5" font-family="Helvetica,sans-Serif" font-size="10.00">Cols&lt; Scalar, ColKeyType,</text>
<text text-anchor="start" x="233" y="-572.5" font-family="Helvetica,sans-Serif" font-size="10.00"> Rows, Cols &gt;</text>
<text text-anchor="start" x="265" y="-557.5" font-family="Helvetica,sans-Serif" font-size="10.00"> </text>
<text text-anchor="start" x="265" y="-542.5" font-family="Helvetica,sans-Serif" font-size="10.00"> </text>
<polygon fill="#666666" stroke="#666666" points="196.5,-567.5 196.5,-567.5 337.5,-567.5 337.5,-567.5 196.5,-567.5"/>
<polygon fill="#666666" stroke="#666666" points="196.5,-552.5 196.5,-552.5 337.5,-552.5 337.5,-552.5 196.5,-552.5"/>
<polygon fill="none" stroke="#666666" points="196,-536 196,-607 337,-607 337,-536 196,-536"/>
</a>
</g>
</g>
<!-- Node6&#45;&gt;Node2 -->
<g id="edge5_Node000002_Node000006" class="edge">
<title>Node6&#45;&gt;Node2</title>
<g id="a_edge5_Node000002_Node000006"><a xlink:title=" ">
<path fill="none" stroke="#63b8ff" d="M245.57,-526.39C241.71,-518.24 237.51,-509.39 233.16,-500.23"/>
<polygon fill="none" stroke="#63b8ff" points="242.5,-528.07 249.95,-535.61 248.82,-525.07 242.5,-528.07"/>
</a>
</g>
</g>
<!-- Node7&#45;&gt;Node6 -->
<g id="edge6_Node000006_Node000007" class="edge">
<title>Node7&#45;&gt;Node6</title>
<g id="a_edge6_Node000006_Node000007"><a xlink:title=" ">
<path fill="none" stroke="#63b8ff" d="M268.9,-632.52C268.54,-623.62 268.2,-615.01 267.89,-607.22"/>
<polygon fill="none" stroke="#63b8ff" points="265.41,-632.82 269.31,-642.67 272.4,-632.54 265.41,-632.82"/>
</a>
</g>
</g>
</g>
</svg>
