<?xml version="1.0" encoding="UTF-8" standalone="no"?>
<!DOCTYPE svg PUBLIC "-//W3C//DTD SVG 1.1//EN"
 "http://www.w3.org/Graphics/SVG/1.1/DTD/svg11.dtd">
<!-- Generated by graphviz version 2.43.0 (0)
 -->
<!-- Title: NAV::CommonLog Pages: 1 -->
<svg width="986pt" height="412pt"
 viewBox="0.00 0.00 986.00 412.00" xmlns="http://www.w3.org/2000/svg" xmlns:xlink="http://www.w3.org/1999/xlink">
<g id="graph0" class="graph" transform="scale(1 1) rotate(0) translate(4 408)">
<title>NAV::CommonLog</title>
<!-- Node1 -->
<g id="Node000001" class="node">
<title>Node1</title>
<g id="a_Node000001"><a xlink:title="Common logging variables like time into run and local positions.">
<polygon fill="#999999" stroke="transparent" points="539.5,-404 426.5,-404 426.5,-280 539.5,-280 539.5,-404"/>
<text text-anchor="start" x="439.5" y="-392" font-family="Helvetica,sans-Serif" font-size="10.00">NAV::CommonLog</text>
<text text-anchor="start" x="431" y="-377" font-family="Helvetica,sans-Serif" font-size="10.00">#</text>
<text text-anchor="start" x="444" y="-377" font-family="Helvetica,sans-Serif" font-size="10.00">_originLatitude</text>
<text text-anchor="start" x="431" y="-362" font-family="Helvetica,sans-Serif" font-size="10.00">#</text>
<text text-anchor="start" x="444" y="-362" font-family="Helvetica,sans-Serif" font-size="10.00">_originLongitude</text>
<text text-anchor="start" x="431" y="-347" font-family="Helvetica,sans-Serif" font-size="10.00">#</text>
<text text-anchor="start" x="444" y="-347" font-family="Helvetica,sans-Serif" font-size="10.00">_startTime</text>
<text text-anchor="start" x="431" y="-332" font-family="Helvetica,sans-Serif" font-size="10.00">+</text>
<text text-anchor="start" x="444" y="-332" font-family="Helvetica,sans-Serif" font-size="10.00">calcLocalPosition()</text>
<text text-anchor="start" x="431" y="-317" font-family="Helvetica,sans-Serif" font-size="10.00">+</text>
<text text-anchor="start" x="444" y="-317" font-family="Helvetica,sans-Serif" font-size="10.00">calcTimeIntoRun()</text>
<text text-anchor="start" x="431" y="-302" font-family="Helvetica,sans-Serif" font-size="10.00">+</text>
<text text-anchor="start" x="444" y="-302" font-family="Helvetica,sans-Serif" font-size="10.00">initialize()</text>
<text text-anchor="start" x="431" y="-287" font-family="Helvetica,sans-Serif" font-size="10.00">#</text>
<text text-anchor="start" x="444" y="-287" font-family="Helvetica,sans-Serif" font-size="10.00">CommonLog()</text>
<polygon fill="#666666" stroke="#666666" points="427,-387 427,-387 540,-387 540,-387 427,-387"/>
<polygon fill="#666666" stroke="#666666" points="427,-342 427,-342 442,-342 442,-342 427,-342"/>
<polygon fill="#666666" stroke="#666666" points="442,-342 442,-342 540,-342 540,-342 442,-342"/>
<polygon fill="none" stroke="#666666" points="426.5,-280 426.5,-404 539.5,-404 539.5,-280 426.5,-280"/>
</a>
</g>
</g>
<!-- Node2 -->
<g id="Node000002" class="node">
<title>Node2</title>
<g id="a_Node000002"><a xlink:href="classNAV_1_1ImuDataLogger.html" target="_top" xlink:title="Data Logger for IMU observations.">
<polygon fill="white" stroke="transparent" points="112,-236.5 0,-236.5 0,-7.5 112,-7.5 112,-236.5"/>
<text text-anchor="start" x="5.5" y="-224" font-family="Helvetica,sans-Serif" font-size="10.00">NAV::ImuDataLogger</text>
<text text-anchor="start" x="54" y="-209" font-family="Helvetica,sans-Serif" font-size="10.00"> </text>
<text text-anchor="start" x="4" y="-194" font-family="Helvetica,sans-Serif" font-size="10.00">+</text>
<text text-anchor="start" x="17" y="-194" font-family="Helvetica,sans-Serif" font-size="10.00">flush()</text>
<text text-anchor="start" x="4" y="-179" font-family="Helvetica,sans-Serif" font-size="10.00">+</text>
<text text-anchor="start" x="17" y="-179" font-family="Helvetica,sans-Serif" font-size="10.00">guiConfig()</text>
<text text-anchor="start" x="4" y="-164" font-family="Helvetica,sans-Serif" font-size="10.00">+</text>
<text text-anchor="start" x="17" y="-164" font-family="Helvetica,sans-Serif" font-size="10.00">ImuDataLogger()</text>
<text text-anchor="start" x="4" y="-149" font-family="Helvetica,sans-Serif" font-size="10.00">+</text>
<text text-anchor="start" x="17" y="-149" font-family="Helvetica,sans-Serif" font-size="10.00">ImuDataLogger()</text>
<text text-anchor="start" x="4" y="-134" font-family="Helvetica,sans-Serif" font-size="10.00">+</text>
<text text-anchor="start" x="17" y="-134" font-family="Helvetica,sans-Serif" font-size="10.00">ImuDataLogger()</text>
<text text-anchor="start" x="4" y="-119" font-family="Helvetica,sans-Serif" font-size="10.00">+</text>
<text text-anchor="start" x="17" y="-119" font-family="Helvetica,sans-Serif" font-size="10.00">operator=()</text>
<text text-anchor="start" x="4" y="-104" font-family="Helvetica,sans-Serif" font-size="10.00">+</text>
<text text-anchor="start" x="17" y="-104" font-family="Helvetica,sans-Serif" font-size="10.00">operator=()</text>
<text text-anchor="start" x="4" y="-89" font-family="Helvetica,sans-Serif" font-size="10.00">+</text>
<text text-anchor="start" x="17" y="-89" font-family="Helvetica,sans-Serif" font-size="10.00">restore()</text>
<text text-anchor="start" x="4" y="-74" font-family="Helvetica,sans-Serif" font-size="10.00">+</text>
<text text-anchor="start" x="17" y="-74" font-family="Helvetica,sans-Serif" font-size="10.00">save()</text>
<text text-anchor="start" x="4" y="-59" font-family="Helvetica,sans-Serif" font-size="10.00">+</text>
<text text-anchor="start" x="17" y="-59" font-family="Helvetica,sans-Serif" font-size="10.00">type()</text>
<text text-anchor="start" x="4" y="-44" font-family="Helvetica,sans-Serif" font-size="10.00">+</text>
<text text-anchor="start" x="17" y="-44" font-family="Helvetica,sans-Serif" font-size="10.00">~ImuDataLogger()</text>
<text text-anchor="start" x="4" y="-29" font-family="Helvetica,sans-Serif" font-size="10.00">+</text>
<text text-anchor="start" x="17" y="-29" font-family="Helvetica,sans-Serif" font-size="10.00">category()</text>
<text text-anchor="start" x="4" y="-14" font-family="Helvetica,sans-Serif" font-size="10.00">+</text>
<text text-anchor="start" x="17" y="-14" font-family="Helvetica,sans-Serif" font-size="10.00">typeStatic()</text>
<polygon fill="#666666" stroke="#666666" points="0,-219 0,-219 112,-219 112,-219 0,-219"/>
<polygon fill="#666666" stroke="#666666" points="0,-204 0,-204 112,-204 112,-204 0,-204"/>
<polygon fill="none" stroke="#666666" points="0,-7.5 0,-236.5 112,-236.5 112,-7.5 0,-7.5"/>
</a>
</g>
</g>
<!-- Node1&#45;&gt;Node2 -->
<g id="edge1_Node000001_Node000002" class="edge">
<title>Node1&#45;&gt;Node2</title>
<g id="a_edge1_Node000001_Node000002"><a xlink:title=" ">
<path fill="none" stroke="#63b8ff" d="M416.07,-338.68C337.59,-332.71 207.28,-312.33 121,-244 117.92,-241.56 114.96,-238.93 112.13,-236.14"/>
<polygon fill="none" stroke="#63b8ff" points="416.1,-342.19 426.32,-339.39 416.59,-335.2 416.1,-342.19"/>
</a>
</g>
</g>
<!-- Node3 -->
<g id="Node000003" class="node">
<title>Node3</title>
<g id="a_Node000003"><a xlink:href="classNAV_1_1KvhDataLogger.html" target="_top" xlink:title="Data Logger for KVH observations.">
<polygon fill="white" stroke="transparent" points="242,-236.5 130,-236.5 130,-7.5 242,-7.5 242,-236.5"/>
<text text-anchor="start" x="135.5" y="-224" font-family="Helvetica,sans-Serif" font-size="10.00">NAV::KvhDataLogger</text>
<text text-anchor="start" x="184" y="-209" font-family="Helvetica,sans-Serif" font-size="10.00"> </text>
<text text-anchor="start" x="134" y="-194" font-family="Helvetica,sans-Serif" font-size="10.00">+</text>
<text text-anchor="start" x="147" y="-194" font-family="Helvetica,sans-Serif" font-size="10.00">flush()</text>
<text text-anchor="start" x="134" y="-179" font-family="Helvetica,sans-Serif" font-size="10.00">+</text>
<text text-anchor="start" x="147" y="-179" font-family="Helvetica,sans-Serif" font-size="10.00">guiConfig()</text>
<text text-anchor="start" x="134" y="-164" font-family="Helvetica,sans-Serif" font-size="10.00">+</text>
<text text-anchor="start" x="147" y="-164" font-family="Helvetica,sans-Serif" font-size="10.00">KvhDataLogger()</text>
<text text-anchor="start" x="134" y="-149" font-family="Helvetica,sans-Serif" font-size="10.00">+</text>
<text text-anchor="start" x="147" y="-149" font-family="Helvetica,sans-Serif" font-size="10.00">KvhDataLogger()</text>
<text text-anchor="start" x="134" y="-134" font-family="Helvetica,sans-Serif" font-size="10.00">+</text>
<text text-anchor="start" x="147" y="-134" font-family="Helvetica,sans-Serif" font-size="10.00">KvhDataLogger()</text>
<text text-anchor="start" x="134" y="-119" font-family="Helvetica,sans-Serif" font-size="10.00">+</text>
<text text-anchor="start" x="147" y="-119" font-family="Helvetica,sans-Serif" font-size="10.00">operator=()</text>
<text text-anchor="start" x="134" y="-104" font-family="Helvetica,sans-Serif" font-size="10.00">+</text>
<text text-anchor="start" x="147" y="-104" font-family="Helvetica,sans-Serif" font-size="10.00">operator=()</text>
<text text-anchor="start" x="134" y="-89" font-family="Helvetica,sans-Serif" font-size="10.00">+</text>
<text text-anchor="start" x="147" y="-89" font-family="Helvetica,sans-Serif" font-size="10.00">restore()</text>
<text text-anchor="start" x="134" y="-74" font-family="Helvetica,sans-Serif" font-size="10.00">+</text>
<text text-anchor="start" x="147" y="-74" font-family="Helvetica,sans-Serif" font-size="10.00">save()</text>
<text text-anchor="start" x="134" y="-59" font-family="Helvetica,sans-Serif" font-size="10.00">+</text>
<text text-anchor="start" x="147" y="-59" font-family="Helvetica,sans-Serif" font-size="10.00">type()</text>
<text text-anchor="start" x="134" y="-44" font-family="Helvetica,sans-Serif" font-size="10.00">+</text>
<text text-anchor="start" x="147" y="-44" font-family="Helvetica,sans-Serif" font-size="10.00">~KvhDataLogger()</text>
<text text-anchor="start" x="134" y="-29" font-family="Helvetica,sans-Serif" font-size="10.00">+</text>
<text text-anchor="start" x="147" y="-29" font-family="Helvetica,sans-Serif" font-size="10.00">category()</text>
<text text-anchor="start" x="134" y="-14" font-family="Helvetica,sans-Serif" font-size="10.00">+</text>
<text text-anchor="start" x="147" y="-14" font-family="Helvetica,sans-Serif" font-size="10.00">typeStatic()</text>
<polygon fill="#666666" stroke="#666666" points="130,-219 130,-219 242,-219 242,-219 130,-219"/>
<polygon fill="#666666" stroke="#666666" points="130,-204 130,-204 242,-204 242,-204 130,-204"/>
<polygon fill="none" stroke="#666666" points="130,-7.5 130,-236.5 242,-236.5 242,-7.5 130,-7.5"/>
</a>
</g>
</g>
<!-- Node1&#45;&gt;Node3 -->
<g id="edge2_Node000001_Node000003" class="edge">
<title>Node1&#45;&gt;Node3</title>
<g id="a_edge2_Node000001_Node000003"><a xlink:title=" ">
<path fill="none" stroke="#63b8ff" d="M416.25,-326.05C365.93,-311.95 297.83,-286.49 251,-244 247.91,-241.2 244.94,-238.21 242.08,-235.08"/>
<polygon fill="none" stroke="#63b8ff" points="415.5,-329.47 426.06,-328.72 417.33,-322.72 415.5,-329.47"/>
</a>
</g>
</g>
<!-- Node4 -->
<g id="Node000004" class="node">
<title>Node4</title>
<g id="a_Node000004"><a xlink:href="classNAV_1_1LcKfInsGnssErrorLogger.html" target="_top" xlink:title="Data Logger for INS/GNSS LCKF Errors.">
<polygon fill="white" stroke="transparent" points="413.5,-236.5 260.5,-236.5 260.5,-7.5 413.5,-7.5 413.5,-236.5"/>
<text text-anchor="start" x="266.5" y="-224" font-family="Helvetica,sans-Serif" font-size="10.00">NAV::LcKfInsGnssErrorLogger</text>
<text text-anchor="start" x="335.5" y="-209" font-family="Helvetica,sans-Serif" font-size="10.00"> </text>
<text text-anchor="start" x="265" y="-194" font-family="Helvetica,sans-Serif" font-size="10.00">+</text>
<text text-anchor="start" x="278" y="-194" font-family="Helvetica,sans-Serif" font-size="10.00">flush()</text>
<text text-anchor="start" x="265" y="-179" font-family="Helvetica,sans-Serif" font-size="10.00">+</text>
<text text-anchor="start" x="278" y="-179" font-family="Helvetica,sans-Serif" font-size="10.00">guiConfig()</text>
<text text-anchor="start" x="265" y="-164" font-family="Helvetica,sans-Serif" font-size="10.00">+</text>
<text text-anchor="start" x="278" y="-164" font-family="Helvetica,sans-Serif" font-size="10.00">LcKfInsGnssErrorLogger()</text>
<text text-anchor="start" x="265" y="-149" font-family="Helvetica,sans-Serif" font-size="10.00">+</text>
<text text-anchor="start" x="278" y="-149" font-family="Helvetica,sans-Serif" font-size="10.00">LcKfInsGnssErrorLogger()</text>
<text text-anchor="start" x="265" y="-134" font-family="Helvetica,sans-Serif" font-size="10.00">+</text>
<text text-anchor="start" x="278" y="-134" font-family="Helvetica,sans-Serif" font-size="10.00">LcKfInsGnssErrorLogger()</text>
<text text-anchor="start" x="265" y="-119" font-family="Helvetica,sans-Serif" font-size="10.00">+</text>
<text text-anchor="start" x="278" y="-119" font-family="Helvetica,sans-Serif" font-size="10.00">operator=()</text>
<text text-anchor="start" x="265" y="-104" font-family="Helvetica,sans-Serif" font-size="10.00">+</text>
<text text-anchor="start" x="278" y="-104" font-family="Helvetica,sans-Serif" font-size="10.00">operator=()</text>
<text text-anchor="start" x="265" y="-89" font-family="Helvetica,sans-Serif" font-size="10.00">+</text>
<text text-anchor="start" x="278" y="-89" font-family="Helvetica,sans-Serif" font-size="10.00">restore()</text>
<text text-anchor="start" x="265" y="-74" font-family="Helvetica,sans-Serif" font-size="10.00">+</text>
<text text-anchor="start" x="278" y="-74" font-family="Helvetica,sans-Serif" font-size="10.00">save()</text>
<text text-anchor="start" x="265" y="-59" font-family="Helvetica,sans-Serif" font-size="10.00">+</text>
<text text-anchor="start" x="278" y="-59" font-family="Helvetica,sans-Serif" font-size="10.00">type()</text>
<text text-anchor="start" x="265" y="-44" font-family="Helvetica,sans-Serif" font-size="10.00">+</text>
<text text-anchor="start" x="278" y="-44" font-family="Helvetica,sans-Serif" font-size="10.00">~LcKfInsGnssErrorLogger()</text>
<text text-anchor="start" x="265" y="-29" font-family="Helvetica,sans-Serif" font-size="10.00">+</text>
<text text-anchor="start" x="278" y="-29" font-family="Helvetica,sans-Serif" font-size="10.00">category()</text>
<text text-anchor="start" x="265" y="-14" font-family="Helvetica,sans-Serif" font-size="10.00">+</text>
<text text-anchor="start" x="278" y="-14" font-family="Helvetica,sans-Serif" font-size="10.00">typeStatic()</text>
<polygon fill="#666666" stroke="#666666" points="261,-219 261,-219 414,-219 414,-219 261,-219"/>
<polygon fill="#666666" stroke="#666666" points="261,-204 261,-204 414,-204 414,-204 261,-204"/>
<polygon fill="none" stroke="#666666" points="260.5,-7.5 260.5,-236.5 413.5,-236.5 413.5,-7.5 260.5,-7.5"/>
</a>
</g>
</g>
<!-- Node1&#45;&gt;Node4 -->
<g id="edge3_Node000001_Node000004" class="edge">
<title>Node1&#45;&gt;Node4</title>
<g id="a_edge3_Node000001_Node000004"><a xlink:title=" ">
<path fill="none" stroke="#63b8ff" d="M436.49,-271.55C428.98,-260.34 421.04,-248.49 413.06,-236.57"/>
<polygon fill="none" stroke="#63b8ff" points="433.66,-273.62 442.14,-279.98 439.48,-269.73 433.66,-273.62"/>
</a>
</g>
</g>
<!-- Node5 -->
<g id="Node000005" class="node">
<title>Node5</title>
<g id="a_Node000005"><a xlink:href="classNAV_1_1MatrixLogger.html" target="_top" xlink:title="Data Logger for PosVelAtt observations.">
<polygon fill="white" stroke="transparent" points="534,-236.5 432,-236.5 432,-7.5 534,-7.5 534,-236.5"/>
<text text-anchor="start" x="437.5" y="-224" font-family="Helvetica,sans-Serif" font-size="10.00">NAV::MatrixLogger</text>
<text text-anchor="start" x="481" y="-209" font-family="Helvetica,sans-Serif" font-size="10.00"> </text>
<text text-anchor="start" x="436" y="-194" font-family="Helvetica,sans-Serif" font-size="10.00">+</text>
<text text-anchor="start" x="449" y="-194" font-family="Helvetica,sans-Serif" font-size="10.00">flush()</text>
<text text-anchor="start" x="436" y="-179" font-family="Helvetica,sans-Serif" font-size="10.00">+</text>
<text text-anchor="start" x="449" y="-179" font-family="Helvetica,sans-Serif" font-size="10.00">guiConfig()</text>
<text text-anchor="start" x="436" y="-164" font-family="Helvetica,sans-Serif" font-size="10.00">+</text>
<text text-anchor="start" x="449" y="-164" font-family="Helvetica,sans-Serif" font-size="10.00">MatrixLogger()</text>
<text text-anchor="start" x="436" y="-149" font-family="Helvetica,sans-Serif" font-size="10.00">+</text>
<text text-anchor="start" x="449" y="-149" font-family="Helvetica,sans-Serif" font-size="10.00">MatrixLogger()</text>
<text text-anchor="start" x="436" y="-134" font-family="Helvetica,sans-Serif" font-size="10.00">+</text>
<text text-anchor="start" x="449" y="-134" font-family="Helvetica,sans-Serif" font-size="10.00">MatrixLogger()</text>
<text text-anchor="start" x="436" y="-119" font-family="Helvetica,sans-Serif" font-size="10.00">+</text>
<text text-anchor="start" x="449" y="-119" font-family="Helvetica,sans-Serif" font-size="10.00">operator=()</text>
<text text-anchor="start" x="436" y="-104" font-family="Helvetica,sans-Serif" font-size="10.00">+</text>
<text text-anchor="start" x="449" y="-104" font-family="Helvetica,sans-Serif" font-size="10.00">operator=()</text>
<text text-anchor="start" x="436" y="-89" font-family="Helvetica,sans-Serif" font-size="10.00">+</text>
<text text-anchor="start" x="449" y="-89" font-family="Helvetica,sans-Serif" font-size="10.00">restore()</text>
<text text-anchor="start" x="436" y="-74" font-family="Helvetica,sans-Serif" font-size="10.00">+</text>
<text text-anchor="start" x="449" y="-74" font-family="Helvetica,sans-Serif" font-size="10.00">save()</text>
<text text-anchor="start" x="436" y="-59" font-family="Helvetica,sans-Serif" font-size="10.00">+</text>
<text text-anchor="start" x="449" y="-59" font-family="Helvetica,sans-Serif" font-size="10.00">type()</text>
<text text-anchor="start" x="436" y="-44" font-family="Helvetica,sans-Serif" font-size="10.00">+</text>
<text text-anchor="start" x="449" y="-44" font-family="Helvetica,sans-Serif" font-size="10.00">~MatrixLogger()</text>
<text text-anchor="start" x="436" y="-29" font-family="Helvetica,sans-Serif" font-size="10.00">+</text>
<text text-anchor="start" x="449" y="-29" font-family="Helvetica,sans-Serif" font-size="10.00">category()</text>
<text text-anchor="start" x="436" y="-14" font-family="Helvetica,sans-Serif" font-size="10.00">+</text>
<text text-anchor="start" x="449" y="-14" font-family="Helvetica,sans-Serif" font-size="10.00">typeStatic()</text>
<polygon fill="#666666" stroke="#666666" points="432,-219 432,-219 534,-219 534,-219 432,-219"/>
<polygon fill="#666666" stroke="#666666" points="432,-204 432,-204 534,-204 534,-204 432,-204"/>
<polygon fill="none" stroke="#666666" points="432,-7.5 432,-236.5 534,-236.5 534,-7.5 432,-7.5"/>
</a>
</g>
</g>
<!-- Node1&#45;&gt;Node5 -->
<g id="edge4_Node000001_Node000005" class="edge">
<title>Node1&#45;&gt;Node5</title>
<g id="a_edge4_Node000001_Node000005"><a xlink:title=" ">
<path fill="none" stroke="#63b8ff" d="M483,-269.9C483,-259.18 483,-247.91 483,-236.57"/>
<polygon fill="none" stroke="#63b8ff" points="479.5,-269.98 483,-279.98 486.5,-269.99 479.5,-269.98"/>
</a>
</g>
</g>
<!-- Node6 -->
<g id="Node000006" class="node">
<title>Node6</title>
<g id="a_Node000006"><a xlink:href="classNAV_1_1PosVelAttLogger.html" target="_top" xlink:title="Data Logger for PosVelAtt observations.">
<polygon fill="white" stroke="transparent" points="669.5,-236.5 552.5,-236.5 552.5,-7.5 669.5,-7.5 669.5,-236.5"/>
<text text-anchor="start" x="558.5" y="-224" font-family="Helvetica,sans-Serif" font-size="10.00">NAV::PosVelAttLogger</text>
<text text-anchor="start" x="609.5" y="-209" font-family="Helvetica,sans-Serif" font-size="10.00"> </text>
<text text-anchor="start" x="557" y="-194" font-family="Helvetica,sans-Serif" font-size="10.00">+</text>
<text text-anchor="start" x="570" y="-194" font-family="Helvetica,sans-Serif" font-size="10.00">flush()</text>
<text text-anchor="start" x="557" y="-179" font-family="Helvetica,sans-Serif" font-size="10.00">+</text>
<text text-anchor="start" x="570" y="-179" font-family="Helvetica,sans-Serif" font-size="10.00">guiConfig()</text>
<text text-anchor="start" x="557" y="-164" font-family="Helvetica,sans-Serif" font-size="10.00">+</text>
<text text-anchor="start" x="570" y="-164" font-family="Helvetica,sans-Serif" font-size="10.00">operator=()</text>
<text text-anchor="start" x="557" y="-149" font-family="Helvetica,sans-Serif" font-size="10.00">+</text>
<text text-anchor="start" x="570" y="-149" font-family="Helvetica,sans-Serif" font-size="10.00">operator=()</text>
<text text-anchor="start" x="557" y="-134" font-family="Helvetica,sans-Serif" font-size="10.00">+</text>
<text text-anchor="start" x="570" y="-134" font-family="Helvetica,sans-Serif" font-size="10.00">PosVelAttLogger()</text>
<text text-anchor="start" x="557" y="-119" font-family="Helvetica,sans-Serif" font-size="10.00">+</text>
<text text-anchor="start" x="570" y="-119" font-family="Helvetica,sans-Serif" font-size="10.00">PosVelAttLogger()</text>
<text text-anchor="start" x="557" y="-104" font-family="Helvetica,sans-Serif" font-size="10.00">+</text>
<text text-anchor="start" x="570" y="-104" font-family="Helvetica,sans-Serif" font-size="10.00">PosVelAttLogger()</text>
<text text-anchor="start" x="557" y="-89" font-family="Helvetica,sans-Serif" font-size="10.00">+</text>
<text text-anchor="start" x="570" y="-89" font-family="Helvetica,sans-Serif" font-size="10.00">restore()</text>
<text text-anchor="start" x="557" y="-74" font-family="Helvetica,sans-Serif" font-size="10.00">+</text>
<text text-anchor="start" x="570" y="-74" font-family="Helvetica,sans-Serif" font-size="10.00">save()</text>
<text text-anchor="start" x="557" y="-59" font-family="Helvetica,sans-Serif" font-size="10.00">+</text>
<text text-anchor="start" x="570" y="-59" font-family="Helvetica,sans-Serif" font-size="10.00">type()</text>
<text text-anchor="start" x="557" y="-44" font-family="Helvetica,sans-Serif" font-size="10.00">+</text>
<text text-anchor="start" x="570" y="-44" font-family="Helvetica,sans-Serif" font-size="10.00">~PosVelAttLogger()</text>
<text text-anchor="start" x="557" y="-29" font-family="Helvetica,sans-Serif" font-size="10.00">+</text>
<text text-anchor="start" x="570" y="-29" font-family="Helvetica,sans-Serif" font-size="10.00">category()</text>
<text text-anchor="start" x="557" y="-14" font-family="Helvetica,sans-Serif" font-size="10.00">+</text>
<text text-anchor="start" x="570" y="-14" font-family="Helvetica,sans-Serif" font-size="10.00">typeStatic()</text>
<polygon fill="#666666" stroke="#666666" points="553,-219 553,-219 670,-219 670,-219 553,-219"/>
<polygon fill="#666666" stroke="#666666" points="553,-204 553,-204 670,-204 670,-204 553,-204"/>
<polygon fill="none" stroke="#666666" points="552.5,-7.5 552.5,-236.5 669.5,-236.5 669.5,-7.5 552.5,-7.5"/>
</a>
</g>
</g>
<!-- Node1&#45;&gt;Node6 -->
<g id="edge5_Node000001_Node000006" class="edge">
<title>Node1&#45;&gt;Node6</title>
<g id="a_edge5_Node000001_Node000006"><a xlink:title=" ">
<path fill="none" stroke="#63b8ff" d="M526.64,-271.23C532.21,-262.1 537.78,-252.85 543,-244 546.12,-238.71 549.3,-233.27 552.48,-227.77"/>
<polygon fill="none" stroke="#63b8ff" points="523.56,-269.56 521.32,-279.92 529.53,-273.22 523.56,-269.56"/>
</a>
</g>
</g>
<!-- Node7 -->
<g id="Node000007" class="node">
<title>Node7</title>
<g id="a_Node000007"><a xlink:href="classNAV_1_1SppSolutionLogger.html" target="_top" xlink:title="Data Logger for SppSolution observations.">
<polygon fill="white" stroke="transparent" points="816,-236.5 688,-236.5 688,-7.5 816,-7.5 816,-236.5"/>
<text text-anchor="start" x="693.5" y="-224" font-family="Helvetica,sans-Serif" font-size="10.00">NAV::SppSolutionLogger</text>
<text text-anchor="start" x="750" y="-209" font-family="Helvetica,sans-Serif" font-size="10.00"> </text>
<text text-anchor="start" x="692" y="-194" font-family="Helvetica,sans-Serif" font-size="10.00">+</text>
<text text-anchor="start" x="705" y="-194" font-family="Helvetica,sans-Serif" font-size="10.00">flush()</text>
<text text-anchor="start" x="692" y="-179" font-family="Helvetica,sans-Serif" font-size="10.00">+</text>
<text text-anchor="start" x="705" y="-179" font-family="Helvetica,sans-Serif" font-size="10.00">guiConfig()</text>
<text text-anchor="start" x="692" y="-164" font-family="Helvetica,sans-Serif" font-size="10.00">+</text>
<text text-anchor="start" x="705" y="-164" font-family="Helvetica,sans-Serif" font-size="10.00">operator=()</text>
<text text-anchor="start" x="692" y="-149" font-family="Helvetica,sans-Serif" font-size="10.00">+</text>
<text text-anchor="start" x="705" y="-149" font-family="Helvetica,sans-Serif" font-size="10.00">operator=()</text>
<text text-anchor="start" x="692" y="-134" font-family="Helvetica,sans-Serif" font-size="10.00">+</text>
<text text-anchor="start" x="705" y="-134" font-family="Helvetica,sans-Serif" font-size="10.00">restore()</text>
<text text-anchor="start" x="692" y="-119" font-family="Helvetica,sans-Serif" font-size="10.00">+</text>
<text text-anchor="start" x="705" y="-119" font-family="Helvetica,sans-Serif" font-size="10.00">save()</text>
<text text-anchor="start" x="692" y="-104" font-family="Helvetica,sans-Serif" font-size="10.00">+</text>
<text text-anchor="start" x="705" y="-104" font-family="Helvetica,sans-Serif" font-size="10.00">SppSolutionLogger()</text>
<text text-anchor="start" x="692" y="-89" font-family="Helvetica,sans-Serif" font-size="10.00">+</text>
<text text-anchor="start" x="705" y="-89" font-family="Helvetica,sans-Serif" font-size="10.00">SppSolutionLogger()</text>
<text text-anchor="start" x="692" y="-74" font-family="Helvetica,sans-Serif" font-size="10.00">+</text>
<text text-anchor="start" x="705" y="-74" font-family="Helvetica,sans-Serif" font-size="10.00">SppSolutionLogger()</text>
<text text-anchor="start" x="692" y="-59" font-family="Helvetica,sans-Serif" font-size="10.00">+</text>
<text text-anchor="start" x="705" y="-59" font-family="Helvetica,sans-Serif" font-size="10.00">type()</text>
<text text-anchor="start" x="692" y="-44" font-family="Helvetica,sans-Serif" font-size="10.00">+</text>
<text text-anchor="start" x="705" y="-44" font-family="Helvetica,sans-Serif" font-size="10.00">~SppSolutionLogger()</text>
<text text-anchor="start" x="692" y="-29" font-family="Helvetica,sans-Serif" font-size="10.00">+</text>
<text text-anchor="start" x="705" y="-29" font-family="Helvetica,sans-Serif" font-size="10.00">category()</text>
<text text-anchor="start" x="692" y="-14" font-family="Helvetica,sans-Serif" font-size="10.00">+</text>
<text text-anchor="start" x="705" y="-14" font-family="Helvetica,sans-Serif" font-size="10.00">typeStatic()</text>
<polygon fill="#666666" stroke="#666666" points="688,-219 688,-219 816,-219 816,-219 688,-219"/>
<polygon fill="#666666" stroke="#666666" points="688,-204 688,-204 816,-204 816,-204 688,-204"/>
<polygon fill="none" stroke="#666666" points="688,-7.5 688,-236.5 816,-236.5 816,-7.5 688,-7.5"/>
</a>
</g>
</g>
<!-- Node1&#45;&gt;Node7 -->
<g id="edge6_Node000001_Node000007" class="edge">
<title>Node1&#45;&gt;Node7</title>
<g id="a_edge6_Node000001_Node000007"><a xlink:title=" ">
<path fill="none" stroke="#63b8ff" d="M548.98,-319.23C589.93,-303.26 641.67,-278.34 679,-244 682.07,-241.18 685.05,-238.19 687.95,-235.09"/>
<polygon fill="none" stroke="#63b8ff" points="547.71,-315.97 539.62,-322.8 550.21,-322.51 547.71,-315.97"/>
</a>
</g>
</g>
<!-- Node8 -->
<g id="Node000008" class="node">
<title>Node8</title>
<g id="a_Node000008"><a xlink:href="classNAV_1_1VectorNavDataLogger.html" target="_top" xlink:title="Data Logger for VectorNav observations.">
<polygon fill="white" stroke="transparent" points="978,-244 834,-244 834,0 978,0 978,-244"/>
<text text-anchor="start" x="839.5" y="-232" font-family="Helvetica,sans-Serif" font-size="10.00">NAV::VectorNavDataLogger</text>
<text text-anchor="start" x="904" y="-217" font-family="Helvetica,sans-Serif" font-size="10.00"> </text>
<text text-anchor="start" x="838" y="-202" font-family="Helvetica,sans-Serif" font-size="10.00">+</text>
<text text-anchor="start" x="851" y="-202" font-family="Helvetica,sans-Serif" font-size="10.00">flush()</text>
<text text-anchor="start" x="838" y="-187" font-family="Helvetica,sans-Serif" font-size="10.00">+</text>
<text text-anchor="start" x="851" y="-187" font-family="Helvetica,sans-Serif" font-size="10.00">guiConfig()</text>
<text text-anchor="start" x="838" y="-172" font-family="Helvetica,sans-Serif" font-size="10.00">+</text>
<text text-anchor="start" x="851" y="-172" font-family="Helvetica,sans-Serif" font-size="10.00">onCreateLink()</text>
<text text-anchor="start" x="838" y="-157" font-family="Helvetica,sans-Serif" font-size="10.00">+</text>
<text text-anchor="start" x="851" y="-157" font-family="Helvetica,sans-Serif" font-size="10.00">operator=()</text>
<text text-anchor="start" x="838" y="-142" font-family="Helvetica,sans-Serif" font-size="10.00">+</text>
<text text-anchor="start" x="851" y="-142" font-family="Helvetica,sans-Serif" font-size="10.00">operator=()</text>
<text text-anchor="start" x="838" y="-127" font-family="Helvetica,sans-Serif" font-size="10.00">+</text>
<text text-anchor="start" x="851" y="-127" font-family="Helvetica,sans-Serif" font-size="10.00">restore()</text>
<text text-anchor="start" x="838" y="-112" font-family="Helvetica,sans-Serif" font-size="10.00">+</text>
<text text-anchor="start" x="851" y="-112" font-family="Helvetica,sans-Serif" font-size="10.00">save()</text>
<text text-anchor="start" x="838" y="-97" font-family="Helvetica,sans-Serif" font-size="10.00">+</text>
<text text-anchor="start" x="851" y="-97" font-family="Helvetica,sans-Serif" font-size="10.00">type()</text>
<text text-anchor="start" x="838" y="-82" font-family="Helvetica,sans-Serif" font-size="10.00">+</text>
<text text-anchor="start" x="851" y="-82" font-family="Helvetica,sans-Serif" font-size="10.00">VectorNavDataLogger()</text>
<text text-anchor="start" x="838" y="-67" font-family="Helvetica,sans-Serif" font-size="10.00">+</text>
<text text-anchor="start" x="851" y="-67" font-family="Helvetica,sans-Serif" font-size="10.00">VectorNavDataLogger()</text>
<text text-anchor="start" x="838" y="-52" font-family="Helvetica,sans-Serif" font-size="10.00">+</text>
<text text-anchor="start" x="851" y="-52" font-family="Helvetica,sans-Serif" font-size="10.00">VectorNavDataLogger()</text>
<text text-anchor="start" x="838" y="-37" font-family="Helvetica,sans-Serif" font-size="10.00">+</text>
<text text-anchor="start" x="851" y="-37" font-family="Helvetica,sans-Serif" font-size="10.00">~VectorNavDataLogger()</text>
<text text-anchor="start" x="838" y="-22" font-family="Helvetica,sans-Serif" font-size="10.00">+</text>
<text text-anchor="start" x="851" y="-22" font-family="Helvetica,sans-Serif" font-size="10.00">category()</text>
<text text-anchor="start" x="838" y="-7" font-family="Helvetica,sans-Serif" font-size="10.00">+</text>
<text text-anchor="start" x="851" y="-7" font-family="Helvetica,sans-Serif" font-size="10.00">typeStatic()</text>
<polygon fill="#666666" stroke="#666666" points="834,-227 834,-227 978,-227 978,-227 834,-227"/>
<polygon fill="#666666" stroke="#666666" points="834,-212 834,-212 978,-212 978,-212 834,-212"/>
<polygon fill="none" stroke="#666666" points="834,0 834,-244 978,-244 978,0 834,0"/>
</a>
</g>
</g>
<!-- Node1&#45;&gt;Node8 -->
<g id="edge7_Node000001_Node000008" class="edge">
<title>Node1&#45;&gt;Node8</title>
<g id="a_edge7_Node000001_Node000008"><a xlink:title=" ">
<path fill="none" stroke="#63b8ff" d="M549.75,-335.75C623.36,-327.06 742.28,-304.14 825,-244 828.07,-241.77 831.05,-239.39 833.96,-236.87"/>
<polygon fill="none" stroke="#63b8ff" points="549.22,-332.29 539.68,-336.89 550.01,-339.25 549.22,-332.29"/>
</a>
</g>
</g>
</g>
</svg>
