<?xml version="1.0" encoding="UTF-8" standalone="no"?>
<!DOCTYPE svg PUBLIC "-//W3C//DTD SVG 1.1//EN"
 "http://www.w3.org/Graphics/SVG/1.1/DTD/svg11.dtd">
<!-- Generated by graphviz version 2.43.0 (0)
 -->
<!-- Title: NAV::InertialNavSol Pages: 1 -->
<svg width="148pt" height="805pt"
 viewBox="0.00 0.00 148.00 805.00" xmlns="http://www.w3.org/2000/svg" xmlns:xlink="http://www.w3.org/1999/xlink">
<g id="graph0" class="graph" transform="scale(1 1) rotate(0) translate(4 801)">
<title>NAV::InertialNavSol</title>
<!-- Node1 -->
<g id="node1" class="node">
<title>Node1</title>
<g id="a_node1"><a xlink:title="Position, Velocity and Attitude Storage Class.">
<polygon fill="#999999" stroke="#666666" points="14.5,-0.5 14.5,-68.5 125.5,-68.5 125.5,-0.5 14.5,-0.5"/>
<text text-anchor="middle" x="70" y="-56.5" font-family="Helvetica,sans-Serif" font-size="10.00">NAV::InertialNavSol</text>
<polyline fill="none" stroke="#666666" points="14.5,-49.5 125.5,-49.5 "/>
<text text-anchor="start" x="22.5" y="-37.5" font-family="Helvetica,sans-Serif" font-size="10.00">+ imuObs</text>
<polyline fill="none" stroke="#666666" points="14.5,-30.5 125.5,-30.5 "/>
<text text-anchor="start" x="22.5" y="-18.5" font-family="Helvetica,sans-Serif" font-size="10.00">+ parentTypes()</text>
<text text-anchor="start" x="22.5" y="-7.5" font-family="Helvetica,sans-Serif" font-size="10.00">+ type()</text>
</a>
</g>
</g>
<!-- Node2 -->
<g id="node2" class="node">
<title>Node2</title>
<g id="a_node2"><a xlink:href="classNAV_1_1PosVelAtt.html" target="_top" xlink:title="Position, Velocity and Attitude Storage Class.">
<polygon fill="white" stroke="#666666" points="0,-105.5 0,-272.5 140,-272.5 140,-105.5 0,-105.5"/>
<text text-anchor="middle" x="70" y="-260.5" font-family="Helvetica,sans-Serif" font-size="10.00">NAV::PosVelAtt</text>
<polyline fill="none" stroke="#666666" points="0,-253.5 140,-253.5 "/>
<text text-anchor="middle" x="70" y="-241.5" font-family="Helvetica,sans-Serif" font-size="10.00"> </text>
<polyline fill="none" stroke="#666666" points="0,-234.5 140,-234.5 "/>
<text text-anchor="start" x="8" y="-222.5" font-family="Helvetica,sans-Serif" font-size="10.00">+ b_Quat_e()</text>
<text text-anchor="start" x="8" y="-211.5" font-family="Helvetica,sans-Serif" font-size="10.00">+ b_Quat_n()</text>
<text text-anchor="start" x="8" y="-200.5" font-family="Helvetica,sans-Serif" font-size="10.00">+ e_Quat_b()</text>
<text text-anchor="start" x="8" y="-189.5" font-family="Helvetica,sans-Serif" font-size="10.00">+ n_Quat_b()</text>
<text text-anchor="start" x="8" y="-178.5" font-family="Helvetica,sans-Serif" font-size="10.00">+ rollPitchYaw()</text>
<text text-anchor="start" x="8" y="-167.5" font-family="Helvetica,sans-Serif" font-size="10.00">+ setAttitude_e_Quat_b()</text>
<text text-anchor="start" x="8" y="-156.5" font-family="Helvetica,sans-Serif" font-size="10.00">+ setAttitude_n_Quat_b()</text>
<text text-anchor="start" x="8" y="-145.5" font-family="Helvetica,sans-Serif" font-size="10.00">+ setState_e()</text>
<text text-anchor="start" x="8" y="-134.5" font-family="Helvetica,sans-Serif" font-size="10.00">+ setState_n()</text>
<text text-anchor="start" x="8" y="-123.5" font-family="Helvetica,sans-Serif" font-size="10.00">+ parentTypes()</text>
<text text-anchor="start" x="8" y="-112.5" font-family="Helvetica,sans-Serif" font-size="10.00">+ type()</text>
</a>
</g>
</g>
<!-- Node2&#45;&gt;Node1 -->
<g id="edge1" class="edge">
<title>Node2&#45;&gt;Node1</title>
<path fill="none" stroke="#63b8ff" d="M70,-94.89C70,-85.63 70,-76.72 70,-68.74"/>
<polygon fill="none" stroke="#63b8ff" points="66.5,-95.06 70,-105.06 73.5,-95.06 66.5,-95.06"/>
</g>
<!-- Node3 -->
<g id="node3" class="node">
<title>Node3</title>
<g id="a_node3"><a xlink:href="classNAV_1_1PosVel.html" target="_top" xlink:title="Position, Velocity and Attitude Storage Class.">
<polygon fill="white" stroke="#666666" points="19.5,-309.5 19.5,-421.5 120.5,-421.5 120.5,-309.5 19.5,-309.5"/>
<text text-anchor="middle" x="70" y="-409.5" font-family="Helvetica,sans-Serif" font-size="10.00">NAV::PosVel</text>
<polyline fill="none" stroke="#666666" points="19.5,-402.5 120.5,-402.5 "/>
<text text-anchor="middle" x="70" y="-390.5" font-family="Helvetica,sans-Serif" font-size="10.00"> </text>
<polyline fill="none" stroke="#666666" points="19.5,-383.5 120.5,-383.5 "/>
<text text-anchor="start" x="27.5" y="-371.5" font-family="Helvetica,sans-Serif" font-size="10.00">+ e_velocity()</text>
<text text-anchor="start" x="27.5" y="-360.5" font-family="Helvetica,sans-Serif" font-size="10.00">+ n_velocity()</text>
<text text-anchor="start" x="27.5" y="-349.5" font-family="Helvetica,sans-Serif" font-size="10.00">+ setVelocity_e()</text>
<text text-anchor="start" x="27.5" y="-338.5" font-family="Helvetica,sans-Serif" font-size="10.00">+ setVelocity_n()</text>
<text text-anchor="start" x="27.5" y="-327.5" font-family="Helvetica,sans-Serif" font-size="10.00">+ parentTypes()</text>
<text text-anchor="start" x="27.5" y="-316.5" font-family="Helvetica,sans-Serif" font-size="10.00">+ type()</text>
</a>
</g>
</g>
<!-- Node3&#45;&gt;Node2 -->
<g id="edge2" class="edge">
<title>Node3&#45;&gt;Node2</title>
<path fill="none" stroke="#63b8ff" d="M70,-299.24C70,-290.54 70,-281.53 70,-272.59"/>
<polygon fill="none" stroke="#63b8ff" points="66.5,-299.29 70,-309.29 73.5,-299.29 66.5,-299.29"/>
</g>
<!-- Node4 -->
<g id="node4" class="node">
<title>Node4</title>
<g id="a_node4"><a xlink:href="classNAV_1_1Pos.html" target="_top" xlink:title="Position, Velocity and Attitude Storage Class.">
<polygon fill="white" stroke="#666666" points="16.5,-458.5 16.5,-625.5 123.5,-625.5 123.5,-458.5 16.5,-458.5"/>
<text text-anchor="middle" x="70" y="-613.5" font-family="Helvetica,sans-Serif" font-size="10.00">NAV::Pos</text>
<polyline fill="none" stroke="#666666" points="16.5,-606.5 123.5,-606.5 "/>
<text text-anchor="middle" x="70" y="-594.5" font-family="Helvetica,sans-Serif" font-size="10.00"> </text>
<polyline fill="none" stroke="#666666" points="16.5,-587.5 123.5,-587.5 "/>
<text text-anchor="start" x="24.5" y="-575.5" font-family="Helvetica,sans-Serif" font-size="10.00">+ altitude()</text>
<text text-anchor="start" x="24.5" y="-564.5" font-family="Helvetica,sans-Serif" font-size="10.00">+ e_position()</text>
<text text-anchor="start" x="24.5" y="-553.5" font-family="Helvetica,sans-Serif" font-size="10.00">+ e_Quat_n()</text>
<text text-anchor="start" x="24.5" y="-542.5" font-family="Helvetica,sans-Serif" font-size="10.00">+ latitude()</text>
<text text-anchor="start" x="24.5" y="-531.5" font-family="Helvetica,sans-Serif" font-size="10.00">+ lla_position()</text>
<text text-anchor="start" x="24.5" y="-520.5" font-family="Helvetica,sans-Serif" font-size="10.00">+ longitude()</text>
<text text-anchor="start" x="24.5" y="-509.5" font-family="Helvetica,sans-Serif" font-size="10.00">+ n_Quat_e()</text>
<text text-anchor="start" x="24.5" y="-498.5" font-family="Helvetica,sans-Serif" font-size="10.00">+ setPosition_e()</text>
<text text-anchor="start" x="24.5" y="-487.5" font-family="Helvetica,sans-Serif" font-size="10.00">+ setPosition_lla()</text>
<text text-anchor="start" x="24.5" y="-476.5" font-family="Helvetica,sans-Serif" font-size="10.00">+ parentTypes()</text>
<text text-anchor="start" x="24.5" y="-465.5" font-family="Helvetica,sans-Serif" font-size="10.00">+ type()</text>
</a>
</g>
</g>
<!-- Node4&#45;&gt;Node3 -->
<g id="edge3" class="edge">
<title>Node4&#45;&gt;Node3</title>
<path fill="none" stroke="#63b8ff" d="M70,-448.23C70,-439.27 70,-430.39 70,-421.97"/>
<polygon fill="none" stroke="#63b8ff" points="66.5,-448.35 70,-458.35 73.5,-448.35 66.5,-448.35"/>
</g>
<!-- Node5 -->
<g id="node5" class="node">
<title>Node5</title>
<g id="a_node5"><a xlink:href="classNAV_1_1NodeData.html" target="_top" xlink:title="Parent class for all data transmitted over Flow pins.">
<polygon fill="white" stroke="#666666" points="22.5,-662.5 22.5,-796.5 117.5,-796.5 117.5,-662.5 22.5,-662.5"/>
<text text-anchor="middle" x="70" y="-784.5" font-family="Helvetica,sans-Serif" font-size="10.00">NAV::NodeData</text>
<polyline fill="none" stroke="#666666" points="22.5,-777.5 117.5,-777.5 "/>
<text text-anchor="start" x="30.5" y="-765.5" font-family="Helvetica,sans-Serif" font-size="10.00">+ insTime</text>
<polyline fill="none" stroke="#666666" points="22.5,-758.5 117.5,-758.5 "/>
<text text-anchor="start" x="30.5" y="-746.5" font-family="Helvetica,sans-Serif" font-size="10.00">+ NodeData()</text>
<text text-anchor="start" x="30.5" y="-735.5" font-family="Helvetica,sans-Serif" font-size="10.00">+ NodeData()</text>
<text text-anchor="start" x="30.5" y="-724.5" font-family="Helvetica,sans-Serif" font-size="10.00">+ NodeData()</text>
<text text-anchor="start" x="30.5" y="-713.5" font-family="Helvetica,sans-Serif" font-size="10.00">+ operator=()</text>
<text text-anchor="start" x="30.5" y="-702.5" font-family="Helvetica,sans-Serif" font-size="10.00">+ operator=()</text>
<text text-anchor="start" x="30.5" y="-691.5" font-family="Helvetica,sans-Serif" font-size="10.00">+ ~NodeData()</text>
<text text-anchor="start" x="30.5" y="-680.5" font-family="Helvetica,sans-Serif" font-size="10.00">+ parentTypes()</text>
<text text-anchor="start" x="30.5" y="-669.5" font-family="Helvetica,sans-Serif" font-size="10.00">+ type()</text>
</a>
</g>
</g>
<!-- Node5&#45;&gt;Node4 -->
<g id="edge4" class="edge">
<title>Node5&#45;&gt;Node4</title>
<path fill="none" stroke="#63b8ff" d="M70,-652.18C70,-643.44 70,-634.51 70,-625.7"/>
<polygon fill="none" stroke="#63b8ff" points="66.5,-652.32 70,-662.32 73.5,-652.32 66.5,-652.32"/>
</g>
</g>
</svg>
