<?xml version="1.0" encoding="UTF-8" standalone="no"?>
<!DOCTYPE svg PUBLIC "-//W3C//DTD SVG 1.1//EN"
 "http://www.w3.org/Graphics/SVG/1.1/DTD/svg11.dtd">
<!-- Generated by graphviz version 2.43.0 (0)
 -->
<!-- Title: NAV::PosVelAtt Pages: 1 -->
<svg width="142pt" height="892pt"
 viewBox="0.00 0.00 142.00 892.00" xmlns="http://www.w3.org/2000/svg" xmlns:xlink="http://www.w3.org/1999/xlink">
<g id="graph0" class="graph" transform="scale(1 1) rotate(0) translate(4 888)">
<title>NAV::PosVelAtt</title>
<!-- Node1 -->
<g id="Node000001" class="node">
<title>Node1</title>
<g id="a_Node000001"><a xlink:title="Position, Velocity and Attitude Storage Class.">
<polygon fill="#999999" stroke="transparent" points="134,-299 0,-299 0,-100 134,-100 134,-299"/>
<text text-anchor="start" x="30.5" y="-286.5" font-family="Helvetica,sans-Serif" font-size="10.00">NAV::PosVelAtt</text>
<text text-anchor="start" x="65" y="-271.5" font-family="Helvetica,sans-Serif" font-size="10.00"> </text>
<text text-anchor="start" x="4" y="-256.5" font-family="Helvetica,sans-Serif" font-size="10.00">+</text>
<text text-anchor="start" x="17" y="-256.5" font-family="Helvetica,sans-Serif" font-size="10.00">b_Quat_e()</text>
<text text-anchor="start" x="4" y="-241.5" font-family="Helvetica,sans-Serif" font-size="10.00">+</text>
<text text-anchor="start" x="17" y="-241.5" font-family="Helvetica,sans-Serif" font-size="10.00">b_Quat_n()</text>
<text text-anchor="start" x="4" y="-226.5" font-family="Helvetica,sans-Serif" font-size="10.00">+</text>
<text text-anchor="start" x="17" y="-226.5" font-family="Helvetica,sans-Serif" font-size="10.00">e_Quat_b()</text>
<text text-anchor="start" x="4" y="-211.5" font-family="Helvetica,sans-Serif" font-size="10.00">+</text>
<text text-anchor="start" x="17" y="-211.5" font-family="Helvetica,sans-Serif" font-size="10.00">n_Quat_b()</text>
<text text-anchor="start" x="4" y="-196.5" font-family="Helvetica,sans-Serif" font-size="10.00">+</text>
<text text-anchor="start" x="17" y="-196.5" font-family="Helvetica,sans-Serif" font-size="10.00">rollPitchYaw()</text>
<text text-anchor="start" x="4" y="-181.5" font-family="Helvetica,sans-Serif" font-size="10.00">+</text>
<text text-anchor="start" x="17" y="-181.5" font-family="Helvetica,sans-Serif" font-size="10.00">setAttitude_e_Quat_b()</text>
<text text-anchor="start" x="4" y="-166.5" font-family="Helvetica,sans-Serif" font-size="10.00">+</text>
<text text-anchor="start" x="17" y="-166.5" font-family="Helvetica,sans-Serif" font-size="10.00">setAttitude_n_Quat_b()</text>
<text text-anchor="start" x="4" y="-151.5" font-family="Helvetica,sans-Serif" font-size="10.00">+</text>
<text text-anchor="start" x="17" y="-151.5" font-family="Helvetica,sans-Serif" font-size="10.00">setState_e()</text>
<text text-anchor="start" x="4" y="-136.5" font-family="Helvetica,sans-Serif" font-size="10.00">+</text>
<text text-anchor="start" x="17" y="-136.5" font-family="Helvetica,sans-Serif" font-size="10.00">setState_n()</text>
<text text-anchor="start" x="4" y="-121.5" font-family="Helvetica,sans-Serif" font-size="10.00">+</text>
<text text-anchor="start" x="17" y="-121.5" font-family="Helvetica,sans-Serif" font-size="10.00">parentTypes()</text>
<text text-anchor="start" x="4" y="-106.5" font-family="Helvetica,sans-Serif" font-size="10.00">+</text>
<text text-anchor="start" x="17" y="-106.5" font-family="Helvetica,sans-Serif" font-size="10.00">type()</text>
<polygon fill="#666666" stroke="#666666" points="0,-281.5 0,-281.5 134,-281.5 134,-281.5 0,-281.5"/>
<polygon fill="#666666" stroke="#666666" points="0,-266.5 0,-266.5 134,-266.5 134,-266.5 0,-266.5"/>
<polygon fill="none" stroke="#666666" points="0,-100 0,-299 134,-299 134,-100 0,-100"/>
</a>
</g>
</g>
<!-- Node5 -->
<g id="Node000005" class="node">
<title>Node5</title>
<g id="a_Node000005"><a xlink:href="classNAV_1_1InertialNavSol.html" target="_top" xlink:title="Position, Velocity and Attitude Storage Class.">
<polygon fill="white" stroke="transparent" points="119.5,-64 14.5,-64 14.5,0 119.5,0 119.5,-64"/>
<text text-anchor="start" x="20" y="-52" font-family="Helvetica,sans-Serif" font-size="10.00">NAV::InertialNavSol</text>
<text text-anchor="start" x="23" y="-37" font-family="Helvetica,sans-Serif" font-size="10.00">+</text>
<text text-anchor="start" x="40" y="-37" font-family="Helvetica,sans-Serif" font-size="10.00">imuObs</text>
<text text-anchor="start" x="23" y="-22" font-family="Helvetica,sans-Serif" font-size="10.00">+</text>
<text text-anchor="start" x="40" y="-22" font-family="Helvetica,sans-Serif" font-size="10.00">parentTypes()</text>
<text text-anchor="start" x="23" y="-7" font-family="Helvetica,sans-Serif" font-size="10.00">+</text>
<text text-anchor="start" x="40" y="-7" font-family="Helvetica,sans-Serif" font-size="10.00">type()</text>
<polygon fill="#666666" stroke="#666666" points="15,-47 15,-47 120,-47 120,-47 15,-47"/>
<polygon fill="#666666" stroke="#666666" points="15,-32 15,-32 38,-32 38,-32 15,-32"/>
<polygon fill="#666666" stroke="#666666" points="38,-32 38,-32 120,-32 120,-32 38,-32"/>
<polygon fill="none" stroke="#666666" points="14.5,0 14.5,-64 119.5,-64 119.5,0 14.5,0"/>
</a>
</g>
</g>
<!-- Node1&#45;&gt;Node5 -->
<g id="edge4_Node000001_Node000005" class="edge">
<title>Node1&#45;&gt;Node5</title>
<g id="a_edge4_Node000001_Node000005"><a xlink:title=" ">
<path fill="none" stroke="#63b8ff" d="M67,-89.72C67,-80.54 67,-71.83 67,-64.12"/>
<polygon fill="none" stroke="#63b8ff" points="63.5,-89.84 67,-99.84 70.5,-89.84 63.5,-89.84"/>
</a>
</g>
</g>
<!-- Node2 -->
<g id="Node000002" class="node">
<title>Node2</title>
<g id="a_Node000002"><a xlink:href="classNAV_1_1PosVel.html" target="_top" xlink:title="Position, Velocity and Attitude Storage Class.">
<polygon fill="white" stroke="transparent" points="114,-459 20,-459 20,-335 114,-335 114,-459"/>
<text text-anchor="start" x="38" y="-447" font-family="Helvetica,sans-Serif" font-size="10.00">NAV::PosVel</text>
<text text-anchor="start" x="65" y="-432" font-family="Helvetica,sans-Serif" font-size="10.00"> </text>
<text text-anchor="start" x="24" y="-417" font-family="Helvetica,sans-Serif" font-size="10.00">+</text>
<text text-anchor="start" x="37" y="-417" font-family="Helvetica,sans-Serif" font-size="10.00">e_velocity()</text>
<text text-anchor="start" x="24" y="-402" font-family="Helvetica,sans-Serif" font-size="10.00">+</text>
<text text-anchor="start" x="37" y="-402" font-family="Helvetica,sans-Serif" font-size="10.00">n_velocity()</text>
<text text-anchor="start" x="24" y="-387" font-family="Helvetica,sans-Serif" font-size="10.00">+</text>
<text text-anchor="start" x="37" y="-387" font-family="Helvetica,sans-Serif" font-size="10.00">setVelocity_e()</text>
<text text-anchor="start" x="24" y="-372" font-family="Helvetica,sans-Serif" font-size="10.00">+</text>
<text text-anchor="start" x="37" y="-372" font-family="Helvetica,sans-Serif" font-size="10.00">setVelocity_n()</text>
<text text-anchor="start" x="24" y="-357" font-family="Helvetica,sans-Serif" font-size="10.00">+</text>
<text text-anchor="start" x="37" y="-357" font-family="Helvetica,sans-Serif" font-size="10.00">parentTypes()</text>
<text text-anchor="start" x="24" y="-342" font-family="Helvetica,sans-Serif" font-size="10.00">+</text>
<text text-anchor="start" x="37" y="-342" font-family="Helvetica,sans-Serif" font-size="10.00">type()</text>
<polygon fill="#666666" stroke="#666666" points="20,-442 20,-442 114,-442 114,-442 20,-442"/>
<polygon fill="#666666" stroke="#666666" points="20,-427 20,-427 114,-427 114,-427 20,-427"/>
<polygon fill="none" stroke="#666666" points="20,-335 20,-459 114,-459 114,-335 20,-335"/>
</a>
</g>
</g>
<!-- Node2&#45;&gt;Node1 -->
<g id="edge1_Node000001_Node000002" class="edge">
<title>Node2&#45;&gt;Node1</title>
<g id="a_edge1_Node000001_Node000002"><a xlink:title=" ">
<path fill="none" stroke="#63b8ff" d="M67,-324.86C67,-316.46 67,-307.77 67,-299.08"/>
<polygon fill="none" stroke="#63b8ff" points="63.5,-324.95 67,-334.95 70.5,-324.95 63.5,-324.95"/>
</a>
</g>
</g>
<!-- Node3 -->
<g id="Node000003" class="node">
<title>Node3</title>
<g id="a_Node000003"><a xlink:href="classNAV_1_1Pos.html" target="_top" xlink:title="Position, Velocity and Attitude Storage Class.">
<polygon fill="white" stroke="transparent" points="117,-694 17,-694 17,-495 117,-495 117,-694"/>
<text text-anchor="start" x="45.5" y="-681.5" font-family="Helvetica,sans-Serif" font-size="10.00">NAV::Pos</text>
<text text-anchor="start" x="65" y="-666.5" font-family="Helvetica,sans-Serif" font-size="10.00"> </text>
<text text-anchor="start" x="21" y="-651.5" font-family="Helvetica,sans-Serif" font-size="10.00">+</text>
<text text-anchor="start" x="34" y="-651.5" font-family="Helvetica,sans-Serif" font-size="10.00">altitude()</text>
<text text-anchor="start" x="21" y="-636.5" font-family="Helvetica,sans-Serif" font-size="10.00">+</text>
<text text-anchor="start" x="34" y="-636.5" font-family="Helvetica,sans-Serif" font-size="10.00">e_position()</text>
<text text-anchor="start" x="21" y="-621.5" font-family="Helvetica,sans-Serif" font-size="10.00">+</text>
<text text-anchor="start" x="34" y="-621.5" font-family="Helvetica,sans-Serif" font-size="10.00">e_Quat_n()</text>
<text text-anchor="start" x="21" y="-606.5" font-family="Helvetica,sans-Serif" font-size="10.00">+</text>
<text text-anchor="start" x="34" y="-606.5" font-family="Helvetica,sans-Serif" font-size="10.00">latitude()</text>
<text text-anchor="start" x="21" y="-591.5" font-family="Helvetica,sans-Serif" font-size="10.00">+</text>
<text text-anchor="start" x="34" y="-591.5" font-family="Helvetica,sans-Serif" font-size="10.00">lla_position()</text>
<text text-anchor="start" x="21" y="-576.5" font-family="Helvetica,sans-Serif" font-size="10.00">+</text>
<text text-anchor="start" x="34" y="-576.5" font-family="Helvetica,sans-Serif" font-size="10.00">longitude()</text>
<text text-anchor="start" x="21" y="-561.5" font-family="Helvetica,sans-Serif" font-size="10.00">+</text>
<text text-anchor="start" x="34" y="-561.5" font-family="Helvetica,sans-Serif" font-size="10.00">n_Quat_e()</text>
<text text-anchor="start" x="21" y="-546.5" font-family="Helvetica,sans-Serif" font-size="10.00">+</text>
<text text-anchor="start" x="34" y="-546.5" font-family="Helvetica,sans-Serif" font-size="10.00">setPosition_e()</text>
<text text-anchor="start" x="21" y="-531.5" font-family="Helvetica,sans-Serif" font-size="10.00">+</text>
<text text-anchor="start" x="34" y="-531.5" font-family="Helvetica,sans-Serif" font-size="10.00">setPosition_lla()</text>
<text text-anchor="start" x="21" y="-516.5" font-family="Helvetica,sans-Serif" font-size="10.00">+</text>
<text text-anchor="start" x="34" y="-516.5" font-family="Helvetica,sans-Serif" font-size="10.00">parentTypes()</text>
<text text-anchor="start" x="21" y="-501.5" font-family="Helvetica,sans-Serif" font-size="10.00">+</text>
<text text-anchor="start" x="34" y="-501.5" font-family="Helvetica,sans-Serif" font-size="10.00">type()</text>
<polygon fill="#666666" stroke="#666666" points="17,-676.5 17,-676.5 117,-676.5 117,-676.5 17,-676.5"/>
<polygon fill="#666666" stroke="#666666" points="17,-661.5 17,-661.5 117,-661.5 117,-661.5 17,-661.5"/>
<polygon fill="none" stroke="#666666" points="17,-495 17,-694 117,-694 117,-495 17,-495"/>
</a>
</g>
</g>
<!-- Node3&#45;&gt;Node2 -->
<g id="edge2_Node000002_Node000003" class="edge">
<title>Node3&#45;&gt;Node2</title>
<g id="a_edge2_Node000002_Node000003"><a xlink:title=" ">
<path fill="none" stroke="#63b8ff" d="M67,-484.66C67,-475.98 67,-467.42 67,-459.25"/>
<polygon fill="none" stroke="#63b8ff" points="63.5,-484.89 67,-494.89 70.5,-484.89 63.5,-484.89"/>
</a>
</g>
</g>
<!-- Node4 -->
<g id="Node000004" class="node">
<title>Node4</title>
<g id="a_Node000004"><a xlink:href="classNAV_1_1NodeData.html" target="_top" xlink:title="Parent class for all data transmitted over Flow pins.">
<polygon fill="white" stroke="transparent" points="111,-884 23,-884 23,-730 111,-730 111,-884"/>
<text text-anchor="start" x="29.5" y="-872" font-family="Helvetica,sans-Serif" font-size="10.00">NAV::NodeData</text>
<text text-anchor="start" x="27" y="-857" font-family="Helvetica,sans-Serif" font-size="10.00">+</text>
<text text-anchor="start" x="40" y="-857" font-family="Helvetica,sans-Serif" font-size="10.00">insTime</text>
<text text-anchor="start" x="27" y="-842" font-family="Helvetica,sans-Serif" font-size="10.00">+</text>
<text text-anchor="start" x="40" y="-842" font-family="Helvetica,sans-Serif" font-size="10.00">NodeData()</text>
<text text-anchor="start" x="27" y="-827" font-family="Helvetica,sans-Serif" font-size="10.00">+</text>
<text text-anchor="start" x="40" y="-827" font-family="Helvetica,sans-Serif" font-size="10.00">NodeData()</text>
<text text-anchor="start" x="27" y="-812" font-family="Helvetica,sans-Serif" font-size="10.00">+</text>
<text text-anchor="start" x="40" y="-812" font-family="Helvetica,sans-Serif" font-size="10.00">NodeData()</text>
<text text-anchor="start" x="27" y="-797" font-family="Helvetica,sans-Serif" font-size="10.00">+</text>
<text text-anchor="start" x="40" y="-797" font-family="Helvetica,sans-Serif" font-size="10.00">operator=()</text>
<text text-anchor="start" x="27" y="-782" font-family="Helvetica,sans-Serif" font-size="10.00">+</text>
<text text-anchor="start" x="40" y="-782" font-family="Helvetica,sans-Serif" font-size="10.00">operator=()</text>
<text text-anchor="start" x="27" y="-767" font-family="Helvetica,sans-Serif" font-size="10.00">+</text>
<text text-anchor="start" x="40" y="-767" font-family="Helvetica,sans-Serif" font-size="10.00">~NodeData()</text>
<text text-anchor="start" x="27" y="-752" font-family="Helvetica,sans-Serif" font-size="10.00">+</text>
<text text-anchor="start" x="40" y="-752" font-family="Helvetica,sans-Serif" font-size="10.00">parentTypes()</text>
<text text-anchor="start" x="27" y="-737" font-family="Helvetica,sans-Serif" font-size="10.00">+</text>
<text text-anchor="start" x="40" y="-737" font-family="Helvetica,sans-Serif" font-size="10.00">type()</text>
<polygon fill="#666666" stroke="#666666" points="23,-867 23,-867 111,-867 111,-867 23,-867"/>
<polygon fill="#666666" stroke="#666666" points="23,-852 23,-852 38,-852 38,-852 23,-852"/>
<polygon fill="#666666" stroke="#666666" points="38,-852 38,-852 111,-852 111,-852 38,-852"/>
<polygon fill="none" stroke="#666666" points="23,-730 23,-884 111,-884 111,-730 23,-730"/>
</a>
</g>
</g>
<!-- Node4&#45;&gt;Node3 -->
<g id="edge3_Node000003_Node000004" class="edge">
<title>Node4&#45;&gt;Node3</title>
<g id="a_edge3_Node000003_Node000004"><a xlink:title=" ">
<path fill="none" stroke="#63b8ff" d="M67,-719.6C67,-711.23 67,-702.7 67,-694.22"/>
<polygon fill="none" stroke="#63b8ff" points="63.5,-719.71 67,-729.71 70.5,-719.71 63.5,-719.71"/>
</a>
</g>
</g>
</g>
</svg>
