<?xml version="1.0" encoding="UTF-8" standalone="no"?>
<!DOCTYPE svg PUBLIC "-//W3C//DTD SVG 1.1//EN"
 "http://www.w3.org/Graphics/SVG/1.1/DTD/svg11.dtd">
<!-- Generated by graphviz version 2.43.0 (0)
 -->
<!-- Title: NAV::Pin Pages: 1 -->
<svg width="368pt" height="607pt"
 viewBox="0.00 0.00 368.00 607.00" xmlns="http://www.w3.org/2000/svg" xmlns:xlink="http://www.w3.org/1999/xlink">
<g id="graph0" class="graph" transform="scale(1 1) rotate(0) translate(4 603)">
<title>NAV::Pin</title>
<!-- Node1 -->
<g id="Node000001" class="node">
<title>Node1</title>
<g id="a_Node000001"><a xlink:title="Pins in the GUI for information exchange.">
<polygon fill="#999999" stroke="transparent" points="265.5,-599 101.5,-599 101.5,-355 265.5,-355 265.5,-599"/>
<text text-anchor="start" x="163" y="-587" font-family="Helvetica,sans-Serif" font-size="10.00">NAV::Pin</text>
<text text-anchor="start" x="105.5" y="-572" font-family="Helvetica,sans-Serif" font-size="10.00">+</text>
<text text-anchor="start" x="118.5" y="-572" font-family="Helvetica,sans-Serif" font-size="10.00">dataIdentifier</text>
<text text-anchor="start" x="105.5" y="-557" font-family="Helvetica,sans-Serif" font-size="10.00">+</text>
<text text-anchor="start" x="118.5" y="-557" font-family="Helvetica,sans-Serif" font-size="10.00">id</text>
<text text-anchor="start" x="105.5" y="-542" font-family="Helvetica,sans-Serif" font-size="10.00">+</text>
<text text-anchor="start" x="118.5" y="-542" font-family="Helvetica,sans-Serif" font-size="10.00">kind</text>
<text text-anchor="start" x="105.5" y="-527" font-family="Helvetica,sans-Serif" font-size="10.00">+</text>
<text text-anchor="start" x="118.5" y="-527" font-family="Helvetica,sans-Serif" font-size="10.00">name</text>
<text text-anchor="start" x="105.5" y="-512" font-family="Helvetica,sans-Serif" font-size="10.00">+</text>
<text text-anchor="start" x="118.5" y="-512" font-family="Helvetica,sans-Serif" font-size="10.00">parentNode</text>
<text text-anchor="start" x="105.5" y="-497" font-family="Helvetica,sans-Serif" font-size="10.00">+</text>
<text text-anchor="start" x="118.5" y="-497" font-family="Helvetica,sans-Serif" font-size="10.00">type</text>
<text text-anchor="start" x="105.5" y="-482" font-family="Helvetica,sans-Serif" font-size="10.00">+</text>
<text text-anchor="start" x="118.5" y="-482" font-family="Helvetica,sans-Serif" font-size="10.00">drawPinIcon()</text>
<text text-anchor="start" x="105.5" y="-467" font-family="Helvetica,sans-Serif" font-size="10.00">+</text>
<text text-anchor="start" x="118.5" y="-467" font-family="Helvetica,sans-Serif" font-size="10.00">getIconColor()</text>
<text text-anchor="start" x="105.5" y="-452" font-family="Helvetica,sans-Serif" font-size="10.00">+</text>
<text text-anchor="start" x="118.5" y="-452" font-family="Helvetica,sans-Serif" font-size="10.00">Pin()</text>
<text text-anchor="start" x="105.5" y="-437" font-family="Helvetica,sans-Serif" font-size="10.00">+</text>
<text text-anchor="start" x="118.5" y="-437" font-family="Helvetica,sans-Serif" font-size="10.00">canCreateLink()</text>
<text text-anchor="start" x="105.5" y="-422" font-family="Helvetica,sans-Serif" font-size="10.00">+</text>
<text text-anchor="start" x="118.5" y="-422" font-family="Helvetica,sans-Serif" font-size="10.00">dataIdentifierHaveCommon()</text>
<text text-anchor="start" x="105.5" y="-407" font-family="Helvetica,sans-Serif" font-size="10.00">#</text>
<text text-anchor="start" x="118.5" y="-407" font-family="Helvetica,sans-Serif" font-size="10.00">Pin()</text>
<text text-anchor="start" x="105.5" y="-392" font-family="Helvetica,sans-Serif" font-size="10.00">#</text>
<text text-anchor="start" x="118.5" y="-392" font-family="Helvetica,sans-Serif" font-size="10.00">createLink()</text>
<text text-anchor="start" x="105.5" y="-377" font-family="Helvetica,sans-Serif" font-size="10.00">#</text>
<text text-anchor="start" x="118.5" y="-377" font-family="Helvetica,sans-Serif" font-size="10.00">deleteLink()</text>
<text text-anchor="start" x="105.5" y="-362" font-family="Helvetica,sans-Serif" font-size="10.00">#</text>
<text text-anchor="start" x="118.5" y="-362" font-family="Helvetica,sans-Serif" font-size="10.00">recreateLink()</text>
<polygon fill="#666666" stroke="#666666" points="101.5,-582 101.5,-582 265.5,-582 265.5,-582 101.5,-582"/>
<polygon fill="#666666" stroke="#666666" points="101.5,-492 101.5,-492 116.5,-492 116.5,-492 101.5,-492"/>
<polygon fill="#666666" stroke="#666666" points="116.5,-492 116.5,-492 265.5,-492 265.5,-492 116.5,-492"/>
<polygon fill="none" stroke="#666666" points="101.5,-355 101.5,-599 265.5,-599 265.5,-355 101.5,-355"/>
</a>
</g>
</g>
<!-- Node2 -->
<g id="Node000002" class="node">
<title>Node2</title>
<g id="a_Node000002"><a xlink:href="classNAV_1_1InputPin.html" target="_top" xlink:title="Input pins of nodes.">
<polygon fill="white" stroke="transparent" points="179,-319 0,-319 0,0 179,0 179,-319"/>
<text text-anchor="start" x="57" y="-306.5" font-family="Helvetica,sans-Serif" font-size="10.00">NAV::InputPin</text>
<text text-anchor="start" x="4.5" y="-291.5" font-family="Helvetica,sans-Serif" font-size="10.00">+</text>
<text text-anchor="start" x="17.5" y="-291.5" font-family="Helvetica,sans-Serif" font-size="10.00">callback</text>
<text text-anchor="start" x="4.5" y="-276.5" font-family="Helvetica,sans-Serif" font-size="10.00">+</text>
<text text-anchor="start" x="17.5" y="-276.5" font-family="Helvetica,sans-Serif" font-size="10.00">dropQueueIfNotFirable</text>
<text text-anchor="start" x="4.5" y="-261.5" font-family="Helvetica,sans-Serif" font-size="10.00">+</text>
<text text-anchor="start" x="17.5" y="-261.5" font-family="Helvetica,sans-Serif" font-size="10.00">firable</text>
<text text-anchor="start" x="4.5" y="-246.5" font-family="Helvetica,sans-Serif" font-size="10.00">+</text>
<text text-anchor="start" x="17.5" y="-246.5" font-family="Helvetica,sans-Serif" font-size="10.00">link</text>
<text text-anchor="start" x="4.5" y="-231.5" font-family="Helvetica,sans-Serif" font-size="10.00">+</text>
<text text-anchor="start" x="17.5" y="-231.5" font-family="Helvetica,sans-Serif" font-size="10.00">neededForTemporalQueueCheck</text>
<text text-anchor="start" x="4.5" y="-216.5" font-family="Helvetica,sans-Serif" font-size="10.00">+</text>
<text text-anchor="start" x="17.5" y="-216.5" font-family="Helvetica,sans-Serif" font-size="10.00">priority</text>
<text text-anchor="start" x="4.5" y="-201.5" font-family="Helvetica,sans-Serif" font-size="10.00">+</text>
<text text-anchor="start" x="17.5" y="-201.5" font-family="Helvetica,sans-Serif" font-size="10.00">queue</text>
<text text-anchor="start" x="4.5" y="-186.5" font-family="Helvetica,sans-Serif" font-size="10.00">+</text>
<text text-anchor="start" x="17.5" y="-186.5" font-family="Helvetica,sans-Serif" font-size="10.00">queueBlocked</text>
<text text-anchor="start" x="4.5" y="-171.5" font-family="Helvetica,sans-Serif" font-size="10.00">+</text>
<text text-anchor="start" x="17.5" y="-171.5" font-family="Helvetica,sans-Serif" font-size="10.00">canCreateLink()</text>
<text text-anchor="start" x="4.5" y="-156.5" font-family="Helvetica,sans-Serif" font-size="10.00">+</text>
<text text-anchor="start" x="17.5" y="-156.5" font-family="Helvetica,sans-Serif" font-size="10.00">createLink()</text>
<text text-anchor="start" x="4.5" y="-141.5" font-family="Helvetica,sans-Serif" font-size="10.00">+</text>
<text text-anchor="start" x="17.5" y="-141.5" font-family="Helvetica,sans-Serif" font-size="10.00">deleteLink()</text>
<text text-anchor="start" x="4.5" y="-126.5" font-family="Helvetica,sans-Serif" font-size="10.00">+</text>
<text text-anchor="start" x="17.5" y="-126.5" font-family="Helvetica,sans-Serif" font-size="10.00">InputPin()</text>
<text text-anchor="start" x="4.5" y="-111.5" font-family="Helvetica,sans-Serif" font-size="10.00">+</text>
<text text-anchor="start" x="17.5" y="-111.5" font-family="Helvetica,sans-Serif" font-size="10.00">InputPin()</text>
<text text-anchor="start" x="4.5" y="-96.5" font-family="Helvetica,sans-Serif" font-size="10.00">+</text>
<text text-anchor="start" x="17.5" y="-96.5" font-family="Helvetica,sans-Serif" font-size="10.00">InputPin()</text>
<text text-anchor="start" x="4.5" y="-81.5" font-family="Helvetica,sans-Serif" font-size="10.00">+</text>
<text text-anchor="start" x="17.5" y="-81.5" font-family="Helvetica,sans-Serif" font-size="10.00">InputPin()</text>
<text text-anchor="start" x="4.5" y="-66.5" font-family="Helvetica,sans-Serif" font-size="10.00">+</text>
<text text-anchor="start" x="17.5" y="-66.5" font-family="Helvetica,sans-Serif" font-size="10.00">isPinLinked()</text>
<text text-anchor="start" x="4.5" y="-51.5" font-family="Helvetica,sans-Serif" font-size="10.00">+</text>
<text text-anchor="start" x="17.5" y="-51.5" font-family="Helvetica,sans-Serif" font-size="10.00">operator=()</text>
<text text-anchor="start" x="4.5" y="-36.5" font-family="Helvetica,sans-Serif" font-size="10.00">+</text>
<text text-anchor="start" x="17.5" y="-36.5" font-family="Helvetica,sans-Serif" font-size="10.00">operator=()</text>
<text text-anchor="start" x="4.5" y="-21.5" font-family="Helvetica,sans-Serif" font-size="10.00">+</text>
<text text-anchor="start" x="17.5" y="-21.5" font-family="Helvetica,sans-Serif" font-size="10.00">recreateLink()</text>
<text text-anchor="start" x="4.5" y="-6.5" font-family="Helvetica,sans-Serif" font-size="10.00">+</text>
<text text-anchor="start" x="17.5" y="-6.5" font-family="Helvetica,sans-Serif" font-size="10.00">~InputPin()</text>
<polygon fill="#666666" stroke="#666666" points="0.5,-301.5 0.5,-301.5 179.5,-301.5 179.5,-301.5 0.5,-301.5"/>
<polygon fill="#666666" stroke="#666666" points="0.5,-181.5 0.5,-181.5 15.5,-181.5 15.5,-181.5 0.5,-181.5"/>
<polygon fill="#666666" stroke="#666666" points="15.5,-181.5 15.5,-181.5 179.5,-181.5 179.5,-181.5 15.5,-181.5"/>
<polygon fill="none" stroke="#666666" points="0,0 0,-319 179,-319 179,0 0,0"/>
</a>
</g>
</g>
<!-- Node1&#45;&gt;Node2 -->
<g id="edge1_Node000001_Node000002" class="edge">
<title>Node1&#45;&gt;Node2</title>
<g id="a_edge1_Node000001_Node000002"><a xlink:title=" ">
<path fill="none" stroke="#63b8ff" d="M144.54,-345.24C141.97,-336.62 139.37,-327.89 136.77,-319.15"/>
<polygon fill="none" stroke="#63b8ff" points="141.22,-346.34 147.43,-354.92 147.92,-344.34 141.22,-346.34"/>
</a>
</g>
</g>
<!-- Node3 -->
<g id="Node000003" class="node">
<title>Node3</title>
<g id="a_Node000003"><a xlink:href="classNAV_1_1OutputPin.html" target="_top" xlink:title="Output pins of nodes.">
<polygon fill="white" stroke="transparent" points="360,-319 197,-319 197,0 360,0 360,-319"/>
<text text-anchor="start" x="242" y="-306.5" font-family="Helvetica,sans-Serif" font-size="10.00">NAV::OutputPin</text>
<text text-anchor="start" x="201.5" y="-291.5" font-family="Helvetica,sans-Serif" font-size="10.00">+</text>
<text text-anchor="start" x="214.5" y="-291.5" font-family="Helvetica,sans-Serif" font-size="10.00">data</text>
<text text-anchor="start" x="201.5" y="-276.5" font-family="Helvetica,sans-Serif" font-size="10.00">+</text>
<text text-anchor="start" x="214.5" y="-276.5" font-family="Helvetica,sans-Serif" font-size="10.00">dataAccessConditionVariable</text>
<text text-anchor="start" x="201.5" y="-261.5" font-family="Helvetica,sans-Serif" font-size="10.00">+</text>
<text text-anchor="start" x="214.5" y="-261.5" font-family="Helvetica,sans-Serif" font-size="10.00">dataAccessCounter</text>
<text text-anchor="start" x="201.5" y="-246.5" font-family="Helvetica,sans-Serif" font-size="10.00">+</text>
<text text-anchor="start" x="214.5" y="-246.5" font-family="Helvetica,sans-Serif" font-size="10.00">dataAccessMutex</text>
<text text-anchor="start" x="201.5" y="-231.5" font-family="Helvetica,sans-Serif" font-size="10.00">+</text>
<text text-anchor="start" x="214.5" y="-231.5" font-family="Helvetica,sans-Serif" font-size="10.00">links</text>
<text text-anchor="start" x="201.5" y="-216.5" font-family="Helvetica,sans-Serif" font-size="10.00">+</text>
<text text-anchor="start" x="214.5" y="-216.5" font-family="Helvetica,sans-Serif" font-size="10.00">mode</text>
<text text-anchor="start" x="201.5" y="-201.5" font-family="Helvetica,sans-Serif" font-size="10.00">+</text>
<text text-anchor="start" x="214.5" y="-201.5" font-family="Helvetica,sans-Serif" font-size="10.00">canCreateLink()</text>
<text text-anchor="start" x="201.5" y="-186.5" font-family="Helvetica,sans-Serif" font-size="10.00">+</text>
<text text-anchor="start" x="214.5" y="-186.5" font-family="Helvetica,sans-Serif" font-size="10.00">createLink()</text>
<text text-anchor="start" x="201.5" y="-171.5" font-family="Helvetica,sans-Serif" font-size="10.00">+</text>
<text text-anchor="start" x="214.5" y="-171.5" font-family="Helvetica,sans-Serif" font-size="10.00">deleteLink()</text>
<text text-anchor="start" x="201.5" y="-156.5" font-family="Helvetica,sans-Serif" font-size="10.00">+</text>
<text text-anchor="start" x="214.5" y="-156.5" font-family="Helvetica,sans-Serif" font-size="10.00">deleteLinks()</text>
<text text-anchor="start" x="201.5" y="-141.5" font-family="Helvetica,sans-Serif" font-size="10.00">+</text>
<text text-anchor="start" x="214.5" y="-141.5" font-family="Helvetica,sans-Serif" font-size="10.00">isPinLinked()</text>
<text text-anchor="start" x="201.5" y="-126.5" font-family="Helvetica,sans-Serif" font-size="10.00">+</text>
<text text-anchor="start" x="214.5" y="-126.5" font-family="Helvetica,sans-Serif" font-size="10.00">isPinLinked()</text>
<text text-anchor="start" x="201.5" y="-111.5" font-family="Helvetica,sans-Serif" font-size="10.00">+</text>
<text text-anchor="start" x="214.5" y="-111.5" font-family="Helvetica,sans-Serif" font-size="10.00">operator=()</text>
<text text-anchor="start" x="201.5" y="-96.5" font-family="Helvetica,sans-Serif" font-size="10.00">+</text>
<text text-anchor="start" x="214.5" y="-96.5" font-family="Helvetica,sans-Serif" font-size="10.00">operator=()</text>
<text text-anchor="start" x="201.5" y="-81.5" font-family="Helvetica,sans-Serif" font-size="10.00">+</text>
<text text-anchor="start" x="214.5" y="-81.5" font-family="Helvetica,sans-Serif" font-size="10.00">OutputPin()</text>
<text text-anchor="start" x="201.5" y="-66.5" font-family="Helvetica,sans-Serif" font-size="10.00">+</text>
<text text-anchor="start" x="214.5" y="-66.5" font-family="Helvetica,sans-Serif" font-size="10.00">OutputPin()</text>
<text text-anchor="start" x="201.5" y="-51.5" font-family="Helvetica,sans-Serif" font-size="10.00">+</text>
<text text-anchor="start" x="214.5" y="-51.5" font-family="Helvetica,sans-Serif" font-size="10.00">OutputPin()</text>
<text text-anchor="start" x="201.5" y="-36.5" font-family="Helvetica,sans-Serif" font-size="10.00">+</text>
<text text-anchor="start" x="214.5" y="-36.5" font-family="Helvetica,sans-Serif" font-size="10.00">OutputPin()</text>
<text text-anchor="start" x="201.5" y="-21.5" font-family="Helvetica,sans-Serif" font-size="10.00">+</text>
<text text-anchor="start" x="214.5" y="-21.5" font-family="Helvetica,sans-Serif" font-size="10.00">recreateLink()</text>
<text text-anchor="start" x="201.5" y="-6.5" font-family="Helvetica,sans-Serif" font-size="10.00">+</text>
<text text-anchor="start" x="214.5" y="-6.5" font-family="Helvetica,sans-Serif" font-size="10.00">~OutputPin()</text>
<polygon fill="#666666" stroke="#666666" points="197.5,-301.5 197.5,-301.5 360.5,-301.5 360.5,-301.5 197.5,-301.5"/>
<polygon fill="#666666" stroke="#666666" points="197.5,-211.5 197.5,-211.5 212.5,-211.5 212.5,-211.5 197.5,-211.5"/>
<polygon fill="#666666" stroke="#666666" points="212.5,-211.5 212.5,-211.5 360.5,-211.5 360.5,-211.5 212.5,-211.5"/>
<polygon fill="none" stroke="#666666" points="197,0 197,-319 360,-319 360,0 197,0"/>
</a>
</g>
</g>
<!-- Node1&#45;&gt;Node3 -->
<g id="edge2_Node000001_Node000003" class="edge">
<title>Node1&#45;&gt;Node3</title>
<g id="a_edge2_Node000001_Node000003"><a xlink:title=" ">
<path fill="none" stroke="#63b8ff" d="M222.87,-345.24C225.47,-336.62 228.1,-327.89 230.73,-319.15"/>
<polygon fill="none" stroke="#63b8ff" points="219.49,-344.34 219.96,-354.92 226.19,-346.36 219.49,-344.34"/>
</a>
</g>
</g>
</g>
</svg>
