<?xml version="1.0" encoding="UTF-8" standalone="no"?>
<!DOCTYPE svg PUBLIC "-//W3C//DTD SVG 1.1//EN"
 "http://www.w3.org/Graphics/SVG/1.1/DTD/svg11.dtd">
<!-- Generated by graphviz version 2.43.0 (0)
 -->
<!-- Title: NAV::GLONASSEphemeris Pages: 1 -->
<svg width="328pt" height="722pt"
 viewBox="0.00 0.00 327.50 722.00" xmlns="http://www.w3.org/2000/svg" xmlns:xlink="http://www.w3.org/1999/xlink">
<g id="graph0" class="graph" transform="scale(1 1) rotate(0) translate(4 718)">
<title>NAV::GLONASSEphemeris</title>
<!-- Node1 -->
<g id="Node000001" class="node">
<title>Node1</title>
<g id="a_Node000001"><a xlink:title="Broadcasted ephemeris message data.">
<polygon fill="#999999" stroke="transparent" points="234.5,-289 64.5,-289 64.5,0 234.5,0 234.5,-289"/>
<text text-anchor="start" x="87.5" y="-276.5" font-family="Helvetica,sans-Serif" font-size="10.00">NAV::GLONASSEphemeris</text>
<text text-anchor="start" x="68.5" y="-261.5" font-family="Helvetica,sans-Serif" font-size="10.00">+</text>
<text text-anchor="start" x="81.5" y="-261.5" font-family="Helvetica,sans-Serif" font-size="10.00">frequencyNumber</text>
<text text-anchor="start" x="68.5" y="-246.5" font-family="Helvetica,sans-Serif" font-size="10.00">+</text>
<text text-anchor="start" x="81.5" y="-246.5" font-family="Helvetica,sans-Serif" font-size="10.00">gamma_n</text>
<text text-anchor="start" x="68.5" y="-231.5" font-family="Helvetica,sans-Serif" font-size="10.00">+</text>
<text text-anchor="start" x="81.5" y="-231.5" font-family="Helvetica,sans-Serif" font-size="10.00">health</text>
<text text-anchor="start" x="68.5" y="-216.5" font-family="Helvetica,sans-Serif" font-size="10.00">+</text>
<text text-anchor="start" x="81.5" y="-216.5" font-family="Helvetica,sans-Serif" font-size="10.00">PZ90_accelLuniSolar</text>
<text text-anchor="start" x="68.5" y="-201.5" font-family="Helvetica,sans-Serif" font-size="10.00">+</text>
<text text-anchor="start" x="81.5" y="-201.5" font-family="Helvetica,sans-Serif" font-size="10.00">PZ90_pos</text>
<text text-anchor="start" x="68.5" y="-186.5" font-family="Helvetica,sans-Serif" font-size="10.00">+</text>
<text text-anchor="start" x="81.5" y="-186.5" font-family="Helvetica,sans-Serif" font-size="10.00">PZ90_vel</text>
<text text-anchor="start" x="68.5" y="-171.5" font-family="Helvetica,sans-Serif" font-size="10.00">+</text>
<text text-anchor="start" x="81.5" y="-171.5" font-family="Helvetica,sans-Serif" font-size="10.00">tau_c</text>
<text text-anchor="start" x="68.5" y="-156.5" font-family="Helvetica,sans-Serif" font-size="10.00">+</text>
<text text-anchor="start" x="81.5" y="-156.5" font-family="Helvetica,sans-Serif" font-size="10.00">tau_n</text>
<text text-anchor="start" x="68.5" y="-141.5" font-family="Helvetica,sans-Serif" font-size="10.00">+</text>
<text text-anchor="start" x="81.5" y="-141.5" font-family="Helvetica,sans-Serif" font-size="10.00">toc</text>
<text text-anchor="start" x="68.5" y="-126.5" font-family="Helvetica,sans-Serif" font-size="10.00">+</text>
<text text-anchor="start" x="81.5" y="-126.5" font-family="Helvetica,sans-Serif" font-size="10.00">calcClockCorrections()</text>
<text text-anchor="start" x="68.5" y="-111.5" font-family="Helvetica,sans-Serif" font-size="10.00">+</text>
<text text-anchor="start" x="81.5" y="-111.5" font-family="Helvetica,sans-Serif" font-size="10.00">calcSatellitePositionVariance()</text>
<text text-anchor="start" x="68.5" y="-96.5" font-family="Helvetica,sans-Serif" font-size="10.00">+</text>
<text text-anchor="start" x="81.5" y="-96.5" font-family="Helvetica,sans-Serif" font-size="10.00">GLONASSEphemeris()</text>
<text text-anchor="start" x="68.5" y="-81.5" font-family="Helvetica,sans-Serif" font-size="10.00">+</text>
<text text-anchor="start" x="81.5" y="-81.5" font-family="Helvetica,sans-Serif" font-size="10.00">GLONASSEphemeris()</text>
<text text-anchor="start" x="68.5" y="-66.5" font-family="Helvetica,sans-Serif" font-size="10.00">+</text>
<text text-anchor="start" x="81.5" y="-66.5" font-family="Helvetica,sans-Serif" font-size="10.00">GLONASSEphemeris()</text>
<text text-anchor="start" x="68.5" y="-51.5" font-family="Helvetica,sans-Serif" font-size="10.00">+</text>
<text text-anchor="start" x="81.5" y="-51.5" font-family="Helvetica,sans-Serif" font-size="10.00">isHealthy()</text>
<text text-anchor="start" x="68.5" y="-36.5" font-family="Helvetica,sans-Serif" font-size="10.00">+</text>
<text text-anchor="start" x="81.5" y="-36.5" font-family="Helvetica,sans-Serif" font-size="10.00">operator=()</text>
<text text-anchor="start" x="68.5" y="-21.5" font-family="Helvetica,sans-Serif" font-size="10.00">+</text>
<text text-anchor="start" x="81.5" y="-21.5" font-family="Helvetica,sans-Serif" font-size="10.00">operator=()</text>
<text text-anchor="start" x="68.5" y="-6.5" font-family="Helvetica,sans-Serif" font-size="10.00">+</text>
<text text-anchor="start" x="81.5" y="-6.5" font-family="Helvetica,sans-Serif" font-size="10.00">~GLONASSEphemeris()</text>
<polygon fill="#666666" stroke="#666666" points="64.5,-271.5 64.5,-271.5 234.5,-271.5 234.5,-271.5 64.5,-271.5"/>
<polygon fill="#666666" stroke="#666666" points="64.5,-136.5 64.5,-136.5 79.5,-136.5 79.5,-136.5 64.5,-136.5"/>
<polygon fill="#666666" stroke="#666666" points="79.5,-136.5 79.5,-136.5 234.5,-136.5 234.5,-136.5 79.5,-136.5"/>
<polygon fill="none" stroke="#666666" points="64.5,0 64.5,-289 234.5,-289 234.5,0 64.5,0"/>
</a>
</g>
</g>
<!-- Node2 -->
<g id="Node000002" class="node">
<title>Node2</title>
<g id="a_Node000002"><a xlink:href="classNAV_1_1SatNavData.html" target="_top" xlink:title="Satellite Navigation data (to calculate SatNavData and clock)">
<polygon fill="white" stroke="transparent" points="197.5,-479 101.5,-479 101.5,-325 197.5,-325 197.5,-479"/>
<text text-anchor="start" x="107" y="-467" font-family="Helvetica,sans-Serif" font-size="10.00">NAV::SatNavData</text>
<text text-anchor="start" x="105.5" y="-452" font-family="Helvetica,sans-Serif" font-size="10.00">+</text>
<text text-anchor="start" x="118.5" y="-452" font-family="Helvetica,sans-Serif" font-size="10.00">refTime</text>
<text text-anchor="start" x="105.5" y="-437" font-family="Helvetica,sans-Serif" font-size="10.00">+</text>
<text text-anchor="start" x="118.5" y="-437" font-family="Helvetica,sans-Serif" font-size="10.00">type</text>
<text text-anchor="start" x="105.5" y="-422" font-family="Helvetica,sans-Serif" font-size="10.00">+</text>
<text text-anchor="start" x="118.5" y="-422" font-family="Helvetica,sans-Serif" font-size="10.00">isHealthy()</text>
<text text-anchor="start" x="105.5" y="-407" font-family="Helvetica,sans-Serif" font-size="10.00">+</text>
<text text-anchor="start" x="118.5" y="-407" font-family="Helvetica,sans-Serif" font-size="10.00">operator=()</text>
<text text-anchor="start" x="105.5" y="-392" font-family="Helvetica,sans-Serif" font-size="10.00">+</text>
<text text-anchor="start" x="118.5" y="-392" font-family="Helvetica,sans-Serif" font-size="10.00">operator=()</text>
<text text-anchor="start" x="105.5" y="-377" font-family="Helvetica,sans-Serif" font-size="10.00">+</text>
<text text-anchor="start" x="118.5" y="-377" font-family="Helvetica,sans-Serif" font-size="10.00">SatNavData()</text>
<text text-anchor="start" x="105.5" y="-362" font-family="Helvetica,sans-Serif" font-size="10.00">+</text>
<text text-anchor="start" x="118.5" y="-362" font-family="Helvetica,sans-Serif" font-size="10.00">SatNavData()</text>
<text text-anchor="start" x="105.5" y="-347" font-family="Helvetica,sans-Serif" font-size="10.00">+</text>
<text text-anchor="start" x="118.5" y="-347" font-family="Helvetica,sans-Serif" font-size="10.00">SatNavData()</text>
<text text-anchor="start" x="105.5" y="-332" font-family="Helvetica,sans-Serif" font-size="10.00">+</text>
<text text-anchor="start" x="118.5" y="-332" font-family="Helvetica,sans-Serif" font-size="10.00">~SatNavData()</text>
<polygon fill="#666666" stroke="#666666" points="101.5,-462 101.5,-462 197.5,-462 197.5,-462 101.5,-462"/>
<polygon fill="#666666" stroke="#666666" points="101.5,-432 101.5,-432 116.5,-432 116.5,-432 101.5,-432"/>
<polygon fill="#666666" stroke="#666666" points="116.5,-432 116.5,-432 197.5,-432 197.5,-432 116.5,-432"/>
<polygon fill="none" stroke="#666666" points="101.5,-325 101.5,-479 197.5,-479 197.5,-325 101.5,-325"/>
</a>
</g>
</g>
<!-- Node2&#45;&gt;Node1 -->
<g id="edge1_Node000001_Node000002" class="edge">
<title>Node2&#45;&gt;Node1</title>
<g id="a_edge1_Node000001_Node000002"><a xlink:title=" ">
<path fill="none" stroke="#63b8ff" d="M149.5,-314.44C149.5,-306.24 149.5,-297.78 149.5,-289.23"/>
<polygon fill="none" stroke="#63b8ff" points="146,-314.69 149.5,-324.69 153,-314.69 146,-314.69"/>
</a>
</g>
</g>
<!-- Node3 -->
<g id="Node000003" class="node">
<title>Node3</title>
<g id="a_Node000003"><a xlink:href="classNAV_1_1Clock.html" target="_top" xlink:title="Abstract satellite clock information.">
<polygon fill="white" stroke="transparent" points="131,-684 0,-684 0,-545 131,-545 131,-684"/>
<text text-anchor="start" x="39.5" y="-671.5" font-family="Helvetica,sans-Serif" font-size="10.00">NAV::Clock</text>
<text text-anchor="start" x="64" y="-656.5" font-family="Helvetica,sans-Serif" font-size="10.00"> </text>
<text text-anchor="start" x="4.5" y="-641.5" font-family="Helvetica,sans-Serif" font-size="10.00">+</text>
<text text-anchor="start" x="17.5" y="-641.5" font-family="Helvetica,sans-Serif" font-size="10.00">calcClockCorrections()</text>
<text text-anchor="start" x="4.5" y="-626.5" font-family="Helvetica,sans-Serif" font-size="10.00">+</text>
<text text-anchor="start" x="17.5" y="-626.5" font-family="Helvetica,sans-Serif" font-size="10.00">Clock()</text>
<text text-anchor="start" x="4.5" y="-611.5" font-family="Helvetica,sans-Serif" font-size="10.00">+</text>
<text text-anchor="start" x="17.5" y="-611.5" font-family="Helvetica,sans-Serif" font-size="10.00">Clock()</text>
<text text-anchor="start" x="4.5" y="-596.5" font-family="Helvetica,sans-Serif" font-size="10.00">+</text>
<text text-anchor="start" x="17.5" y="-596.5" font-family="Helvetica,sans-Serif" font-size="10.00">Clock()</text>
<text text-anchor="start" x="4.5" y="-581.5" font-family="Helvetica,sans-Serif" font-size="10.00">+</text>
<text text-anchor="start" x="17.5" y="-581.5" font-family="Helvetica,sans-Serif" font-size="10.00">operator=()</text>
<text text-anchor="start" x="4.5" y="-566.5" font-family="Helvetica,sans-Serif" font-size="10.00">+</text>
<text text-anchor="start" x="17.5" y="-566.5" font-family="Helvetica,sans-Serif" font-size="10.00">operator=()</text>
<text text-anchor="start" x="4.5" y="-551.5" font-family="Helvetica,sans-Serif" font-size="10.00">+</text>
<text text-anchor="start" x="17.5" y="-551.5" font-family="Helvetica,sans-Serif" font-size="10.00">~Clock()</text>
<polygon fill="#666666" stroke="#666666" points="0.5,-666.5 0.5,-666.5 131.5,-666.5 131.5,-666.5 0.5,-666.5"/>
<polygon fill="#666666" stroke="#666666" points="0.5,-651.5 0.5,-651.5 131.5,-651.5 131.5,-651.5 0.5,-651.5"/>
<polygon fill="none" stroke="#666666" points="0,-545 0,-684 131,-684 131,-545 0,-545"/>
</a>
</g>
</g>
<!-- Node3&#45;&gt;Node2 -->
<g id="edge2_Node000002_Node000003" class="edge">
<title>Node3&#45;&gt;Node2</title>
<g id="a_edge2_Node000002_Node000003"><a xlink:title=" ">
<path fill="none" stroke="#63b8ff" d="M96.67,-535.38C104,-517.02 111.8,-497.47 119.1,-479.19"/>
<polygon fill="none" stroke="#63b8ff" points="93.34,-534.28 92.89,-544.87 99.85,-536.88 93.34,-534.28"/>
</a>
</g>
</g>
<!-- Node4 -->
<g id="Node000004" class="node">
<title>Node4</title>
<g id="a_Node000004"><a xlink:href="classNAV_1_1Orbit.html" target="_top" xlink:title="Abstract satellite orbit information.">
<polygon fill="white" stroke="transparent" points="319.5,-714 149.5,-714 149.5,-515 319.5,-515 319.5,-714"/>
<text text-anchor="start" x="209.5" y="-701.5" font-family="Helvetica,sans-Serif" font-size="10.00">NAV::Orbit</text>
<text text-anchor="start" x="232.5" y="-686.5" font-family="Helvetica,sans-Serif" font-size="10.00"> </text>
<text text-anchor="start" x="153.5" y="-671.5" font-family="Helvetica,sans-Serif" font-size="10.00">+</text>
<text text-anchor="start" x="166.5" y="-671.5" font-family="Helvetica,sans-Serif" font-size="10.00">calcSatellitePos()</text>
<text text-anchor="start" x="153.5" y="-656.5" font-family="Helvetica,sans-Serif" font-size="10.00">+</text>
<text text-anchor="start" x="166.5" y="-656.5" font-family="Helvetica,sans-Serif" font-size="10.00">calcSatellitePositionVariance()</text>
<text text-anchor="start" x="153.5" y="-641.5" font-family="Helvetica,sans-Serif" font-size="10.00">+</text>
<text text-anchor="start" x="166.5" y="-641.5" font-family="Helvetica,sans-Serif" font-size="10.00">calcSatellitePosVel()</text>
<text text-anchor="start" x="153.5" y="-626.5" font-family="Helvetica,sans-Serif" font-size="10.00">+</text>
<text text-anchor="start" x="166.5" y="-626.5" font-family="Helvetica,sans-Serif" font-size="10.00">calcSatellitePosVelAccel()</text>
<text text-anchor="start" x="153.5" y="-611.5" font-family="Helvetica,sans-Serif" font-size="10.00">+</text>
<text text-anchor="start" x="166.5" y="-611.5" font-family="Helvetica,sans-Serif" font-size="10.00">operator=()</text>
<text text-anchor="start" x="153.5" y="-596.5" font-family="Helvetica,sans-Serif" font-size="10.00">+</text>
<text text-anchor="start" x="166.5" y="-596.5" font-family="Helvetica,sans-Serif" font-size="10.00">operator=()</text>
<text text-anchor="start" x="153.5" y="-581.5" font-family="Helvetica,sans-Serif" font-size="10.00">+</text>
<text text-anchor="start" x="166.5" y="-581.5" font-family="Helvetica,sans-Serif" font-size="10.00">Orbit()</text>
<text text-anchor="start" x="153.5" y="-566.5" font-family="Helvetica,sans-Serif" font-size="10.00">+</text>
<text text-anchor="start" x="166.5" y="-566.5" font-family="Helvetica,sans-Serif" font-size="10.00">Orbit()</text>
<text text-anchor="start" x="153.5" y="-551.5" font-family="Helvetica,sans-Serif" font-size="10.00">+</text>
<text text-anchor="start" x="166.5" y="-551.5" font-family="Helvetica,sans-Serif" font-size="10.00">Orbit()</text>
<text text-anchor="start" x="153.5" y="-536.5" font-family="Helvetica,sans-Serif" font-size="10.00">+</text>
<text text-anchor="start" x="166.5" y="-536.5" font-family="Helvetica,sans-Serif" font-size="10.00">~Orbit()</text>
<text text-anchor="start" x="153.5" y="-521.5" font-family="Helvetica,sans-Serif" font-size="10.00">#</text>
<text text-anchor="start" x="166.5" y="-521.5" font-family="Helvetica,sans-Serif" font-size="10.00">calcSatelliteData()</text>
<polygon fill="#666666" stroke="#666666" points="149.5,-696.5 149.5,-696.5 319.5,-696.5 319.5,-696.5 149.5,-696.5"/>
<polygon fill="#666666" stroke="#666666" points="149.5,-681.5 149.5,-681.5 319.5,-681.5 319.5,-681.5 149.5,-681.5"/>
<polygon fill="none" stroke="#666666" points="149.5,-515 149.5,-714 319.5,-714 319.5,-515 149.5,-515"/>
</a>
</g>
</g>
<!-- Node4&#45;&gt;Node2 -->
<g id="edge3_Node000002_Node000004" class="edge">
<title>Node4&#45;&gt;Node2</title>
<g id="a_edge3_Node000002_Node000004"><a xlink:title=" ">
<path fill="none" stroke="#63b8ff" d="M190.76,-505.18C187.21,-496.38 183.67,-487.61 180.24,-479.12"/>
<polygon fill="none" stroke="#63b8ff" points="187.62,-506.76 194.61,-514.72 194.11,-504.14 187.62,-506.76"/>
</a>
</g>
</g>
</g>
</svg>
