<?xml version="1.0" encoding="UTF-8" standalone="no"?>
<!DOCTYPE svg PUBLIC "-//W3C//DTD SVG 1.1//EN"
 "http://www.w3.org/Graphics/SVG/1.1/DTD/svg11.dtd">
<!-- Generated by graphviz version 2.43.0 (0)
 -->
<!-- Title: NAV::CommonLog Pages: 1 -->
<svg width="1030pt" height="358pt"
 viewBox="0.00 0.00 1029.50 358.00" xmlns="http://www.w3.org/2000/svg" xmlns:xlink="http://www.w3.org/1999/xlink">
<g id="graph0" class="graph" transform="scale(1 1) rotate(0) translate(4 354)">
<title>NAV::CommonLog</title>
<!-- Node1 -->
<g id="node1" class="node">
<title>Node1</title>
<g id="a_node1"><a xlink:title="Common logging variables like time into run and local positions.">
<polygon fill="#999999" stroke="#666666" points="446,-237.5 446,-349.5 565,-349.5 565,-237.5 446,-237.5"/>
<text text-anchor="middle" x="505.5" y="-337.5" font-family="Helvetica,sans-Serif" font-size="10.00">NAV::CommonLog</text>
<polyline fill="none" stroke="#666666" points="446,-330.5 565,-330.5 "/>
<text text-anchor="start" x="454" y="-318.5" font-family="Helvetica,sans-Serif" font-size="10.00"># _originLatitude</text>
<text text-anchor="start" x="454" y="-307.5" font-family="Helvetica,sans-Serif" font-size="10.00"># _originLongitude</text>
<text text-anchor="start" x="454" y="-296.5" font-family="Helvetica,sans-Serif" font-size="10.00"># _startTime</text>
<polyline fill="none" stroke="#666666" points="446,-289.5 565,-289.5 "/>
<text text-anchor="start" x="454" y="-277.5" font-family="Helvetica,sans-Serif" font-size="10.00">+ calcLocalPosition()</text>
<text text-anchor="start" x="454" y="-266.5" font-family="Helvetica,sans-Serif" font-size="10.00">+ calcTimeIntoRun()</text>
<text text-anchor="start" x="454" y="-255.5" font-family="Helvetica,sans-Serif" font-size="10.00">+ initialize()</text>
<text text-anchor="start" x="454" y="-244.5" font-family="Helvetica,sans-Serif" font-size="10.00"># CommonLog()</text>
</a>
</g>
</g>
<!-- Node2 -->
<g id="node2" class="node">
<title>Node2</title>
<g id="a_node2"><a xlink:href="classNAV_1_1ImuDataLogger.html" target="_top" xlink:title="Data Logger for IMU observations.">
<polygon fill="white" stroke="#666666" points="0,-6 0,-195 119,-195 119,-6 0,-6"/>
<text text-anchor="middle" x="59.5" y="-183" font-family="Helvetica,sans-Serif" font-size="10.00">NAV::ImuDataLogger</text>
<polyline fill="none" stroke="#666666" points="0,-176 119,-176 "/>
<text text-anchor="middle" x="59.5" y="-164" font-family="Helvetica,sans-Serif" font-size="10.00"> </text>
<polyline fill="none" stroke="#666666" points="0,-157 119,-157 "/>
<text text-anchor="start" x="8" y="-145" font-family="Helvetica,sans-Serif" font-size="10.00">+ flush()</text>
<text text-anchor="start" x="8" y="-134" font-family="Helvetica,sans-Serif" font-size="10.00">+ guiConfig()</text>
<text text-anchor="start" x="8" y="-123" font-family="Helvetica,sans-Serif" font-size="10.00">+ ImuDataLogger()</text>
<text text-anchor="start" x="8" y="-112" font-family="Helvetica,sans-Serif" font-size="10.00">+ ImuDataLogger()</text>
<text text-anchor="start" x="8" y="-101" font-family="Helvetica,sans-Serif" font-size="10.00">+ ImuDataLogger()</text>
<text text-anchor="start" x="8" y="-90" font-family="Helvetica,sans-Serif" font-size="10.00">+ operator=()</text>
<text text-anchor="start" x="8" y="-79" font-family="Helvetica,sans-Serif" font-size="10.00">+ operator=()</text>
<text text-anchor="start" x="8" y="-68" font-family="Helvetica,sans-Serif" font-size="10.00">+ restore()</text>
<text text-anchor="start" x="8" y="-57" font-family="Helvetica,sans-Serif" font-size="10.00">+ save()</text>
<text text-anchor="start" x="8" y="-46" font-family="Helvetica,sans-Serif" font-size="10.00">+ type()</text>
<text text-anchor="start" x="8" y="-35" font-family="Helvetica,sans-Serif" font-size="10.00">+ ~ImuDataLogger()</text>
<text text-anchor="start" x="8" y="-24" font-family="Helvetica,sans-Serif" font-size="10.00">+ category()</text>
<text text-anchor="start" x="8" y="-13" font-family="Helvetica,sans-Serif" font-size="10.00">+ typeStatic()</text>
</a>
</g>
</g>
<!-- Node1&#45;&gt;Node2 -->
<g id="edge1" class="edge">
<title>Node1&#45;&gt;Node2</title>
<path fill="none" stroke="#63b8ff" d="M435.73,-290.38C354.94,-284.79 221.01,-265.58 127.5,-201 124.75,-199.1 122.07,-197.04 119.47,-194.87"/>
<polygon fill="none" stroke="#63b8ff" points="435.6,-293.88 445.8,-291.02 436.04,-286.89 435.6,-293.88"/>
</g>
<!-- Node3 -->
<g id="node3" class="node">
<title>Node3</title>
<g id="a_node3"><a xlink:href="classNAV_1_1KvhDataLogger.html" target="_top" xlink:title="Data Logger for KVH observations.">
<polygon fill="white" stroke="#666666" points="137,-6 137,-195 256,-195 256,-6 137,-6"/>
<text text-anchor="middle" x="196.5" y="-183" font-family="Helvetica,sans-Serif" font-size="10.00">NAV::KvhDataLogger</text>
<polyline fill="none" stroke="#666666" points="137,-176 256,-176 "/>
<text text-anchor="middle" x="196.5" y="-164" font-family="Helvetica,sans-Serif" font-size="10.00"> </text>
<polyline fill="none" stroke="#666666" points="137,-157 256,-157 "/>
<text text-anchor="start" x="145" y="-145" font-family="Helvetica,sans-Serif" font-size="10.00">+ flush()</text>
<text text-anchor="start" x="145" y="-134" font-family="Helvetica,sans-Serif" font-size="10.00">+ guiConfig()</text>
<text text-anchor="start" x="145" y="-123" font-family="Helvetica,sans-Serif" font-size="10.00">+ KvhDataLogger()</text>
<text text-anchor="start" x="145" y="-112" font-family="Helvetica,sans-Serif" font-size="10.00">+ KvhDataLogger()</text>
<text text-anchor="start" x="145" y="-101" font-family="Helvetica,sans-Serif" font-size="10.00">+ KvhDataLogger()</text>
<text text-anchor="start" x="145" y="-90" font-family="Helvetica,sans-Serif" font-size="10.00">+ operator=()</text>
<text text-anchor="start" x="145" y="-79" font-family="Helvetica,sans-Serif" font-size="10.00">+ operator=()</text>
<text text-anchor="start" x="145" y="-68" font-family="Helvetica,sans-Serif" font-size="10.00">+ restore()</text>
<text text-anchor="start" x="145" y="-57" font-family="Helvetica,sans-Serif" font-size="10.00">+ save()</text>
<text text-anchor="start" x="145" y="-46" font-family="Helvetica,sans-Serif" font-size="10.00">+ type()</text>
<text text-anchor="start" x="145" y="-35" font-family="Helvetica,sans-Serif" font-size="10.00">+ ~KvhDataLogger()</text>
<text text-anchor="start" x="145" y="-24" font-family="Helvetica,sans-Serif" font-size="10.00">+ category()</text>
<text text-anchor="start" x="145" y="-13" font-family="Helvetica,sans-Serif" font-size="10.00">+ typeStatic()</text>
</a>
</g>
</g>
<!-- Node1&#45;&gt;Node3 -->
<g id="edge2" class="edge">
<title>Node1&#45;&gt;Node3</title>
<path fill="none" stroke="#63b8ff" d="M436.27,-278.11C384.8,-264.75 315.04,-240.8 264.5,-201 261.71,-198.8 258.98,-196.45 256.33,-193.99"/>
<polygon fill="none" stroke="#63b8ff" points="435.43,-281.5 445.98,-280.56 437.14,-274.72 435.43,-281.5"/>
</g>
<!-- Node4 -->
<g id="node4" class="node">
<title>Node4</title>
<g id="a_node4"><a xlink:href="classNAV_1_1LcKfInsGnssErrorLogger.html" target="_top" xlink:title="Data Logger for INS/GNSS LCKF Errors.">
<polygon fill="white" stroke="#666666" points="274,-6 274,-195 433,-195 433,-6 274,-6"/>
<text text-anchor="middle" x="353.5" y="-183" font-family="Helvetica,sans-Serif" font-size="10.00">NAV::LcKfInsGnssErrorLogger</text>
<polyline fill="none" stroke="#666666" points="274,-176 433,-176 "/>
<text text-anchor="middle" x="353.5" y="-164" font-family="Helvetica,sans-Serif" font-size="10.00"> </text>
<polyline fill="none" stroke="#666666" points="274,-157 433,-157 "/>
<text text-anchor="start" x="282" y="-145" font-family="Helvetica,sans-Serif" font-size="10.00">+ flush()</text>
<text text-anchor="start" x="282" y="-134" font-family="Helvetica,sans-Serif" font-size="10.00">+ guiConfig()</text>
<text text-anchor="start" x="282" y="-123" font-family="Helvetica,sans-Serif" font-size="10.00">+ LcKfInsGnssErrorLogger()</text>
<text text-anchor="start" x="282" y="-112" font-family="Helvetica,sans-Serif" font-size="10.00">+ LcKfInsGnssErrorLogger()</text>
<text text-anchor="start" x="282" y="-101" font-family="Helvetica,sans-Serif" font-size="10.00">+ LcKfInsGnssErrorLogger()</text>
<text text-anchor="start" x="282" y="-90" font-family="Helvetica,sans-Serif" font-size="10.00">+ operator=()</text>
<text text-anchor="start" x="282" y="-79" font-family="Helvetica,sans-Serif" font-size="10.00">+ operator=()</text>
<text text-anchor="start" x="282" y="-68" font-family="Helvetica,sans-Serif" font-size="10.00">+ restore()</text>
<text text-anchor="start" x="282" y="-57" font-family="Helvetica,sans-Serif" font-size="10.00">+ save()</text>
<text text-anchor="start" x="282" y="-46" font-family="Helvetica,sans-Serif" font-size="10.00">+ type()</text>
<text text-anchor="start" x="282" y="-35" font-family="Helvetica,sans-Serif" font-size="10.00">+ ~LcKfInsGnssErrorLogger()</text>
<text text-anchor="start" x="282" y="-24" font-family="Helvetica,sans-Serif" font-size="10.00">+ category()</text>
<text text-anchor="start" x="282" y="-13" font-family="Helvetica,sans-Serif" font-size="10.00">+ typeStatic()</text>
</a>
</g>
</g>
<!-- Node1&#45;&gt;Node4 -->
<g id="edge3" class="edge">
<title>Node1&#45;&gt;Node4</title>
<path fill="none" stroke="#63b8ff" d="M455.26,-229.37C446.51,-218.38 437.25,-206.74 428.01,-195.13"/>
<polygon fill="none" stroke="#63b8ff" points="452.57,-231.61 461.54,-237.25 458.05,-227.25 452.57,-231.61"/>
</g>
<!-- Node5 -->
<g id="node5" class="node">
<title>Node5</title>
<g id="a_node5"><a xlink:href="classNAV_1_1MatrixLogger.html" target="_top" xlink:title="Data Logger for PosVelAtt observations.">
<polygon fill="white" stroke="#666666" points="451.5,-6 451.5,-195 559.5,-195 559.5,-6 451.5,-6"/>
<text text-anchor="middle" x="505.5" y="-183" font-family="Helvetica,sans-Serif" font-size="10.00">NAV::MatrixLogger</text>
<polyline fill="none" stroke="#666666" points="451.5,-176 559.5,-176 "/>
<text text-anchor="middle" x="505.5" y="-164" font-family="Helvetica,sans-Serif" font-size="10.00"> </text>
<polyline fill="none" stroke="#666666" points="451.5,-157 559.5,-157 "/>
<text text-anchor="start" x="459.5" y="-145" font-family="Helvetica,sans-Serif" font-size="10.00">+ flush()</text>
<text text-anchor="start" x="459.5" y="-134" font-family="Helvetica,sans-Serif" font-size="10.00">+ guiConfig()</text>
<text text-anchor="start" x="459.5" y="-123" font-family="Helvetica,sans-Serif" font-size="10.00">+ MatrixLogger()</text>
<text text-anchor="start" x="459.5" y="-112" font-family="Helvetica,sans-Serif" font-size="10.00">+ MatrixLogger()</text>
<text text-anchor="start" x="459.5" y="-101" font-family="Helvetica,sans-Serif" font-size="10.00">+ MatrixLogger()</text>
<text text-anchor="start" x="459.5" y="-90" font-family="Helvetica,sans-Serif" font-size="10.00">+ operator=()</text>
<text text-anchor="start" x="459.5" y="-79" font-family="Helvetica,sans-Serif" font-size="10.00">+ operator=()</text>
<text text-anchor="start" x="459.5" y="-68" font-family="Helvetica,sans-Serif" font-size="10.00">+ restore()</text>
<text text-anchor="start" x="459.5" y="-57" font-family="Helvetica,sans-Serif" font-size="10.00">+ save()</text>
<text text-anchor="start" x="459.5" y="-46" font-family="Helvetica,sans-Serif" font-size="10.00">+ type()</text>
<text text-anchor="start" x="459.5" y="-35" font-family="Helvetica,sans-Serif" font-size="10.00">+ ~MatrixLogger()</text>
<text text-anchor="start" x="459.5" y="-24" font-family="Helvetica,sans-Serif" font-size="10.00">+ category()</text>
<text text-anchor="start" x="459.5" y="-13" font-family="Helvetica,sans-Serif" font-size="10.00">+ typeStatic()</text>
</a>
</g>
</g>
<!-- Node1&#45;&gt;Node5 -->
<g id="edge4" class="edge">
<title>Node1&#45;&gt;Node5</title>
<path fill="none" stroke="#63b8ff" d="M505.5,-227.12C505.5,-216.8 505.5,-205.95 505.5,-195.13"/>
<polygon fill="none" stroke="#63b8ff" points="502,-227.25 505.5,-237.25 509,-227.25 502,-227.25"/>
</g>
<!-- Node6 -->
<g id="node6" class="node">
<title>Node6</title>
<g id="a_node6"><a xlink:href="classNAV_1_1PosVelAttLogger.html" target="_top" xlink:title="Data Logger for PosVelAtt observations.">
<polygon fill="white" stroke="#666666" points="578,-6 578,-195 701,-195 701,-6 578,-6"/>
<text text-anchor="middle" x="639.5" y="-183" font-family="Helvetica,sans-Serif" font-size="10.00">NAV::PosVelAttLogger</text>
<polyline fill="none" stroke="#666666" points="578,-176 701,-176 "/>
<text text-anchor="middle" x="639.5" y="-164" font-family="Helvetica,sans-Serif" font-size="10.00"> </text>
<polyline fill="none" stroke="#666666" points="578,-157 701,-157 "/>
<text text-anchor="start" x="586" y="-145" font-family="Helvetica,sans-Serif" font-size="10.00">+ flush()</text>
<text text-anchor="start" x="586" y="-134" font-family="Helvetica,sans-Serif" font-size="10.00">+ guiConfig()</text>
<text text-anchor="start" x="586" y="-123" font-family="Helvetica,sans-Serif" font-size="10.00">+ operator=()</text>
<text text-anchor="start" x="586" y="-112" font-family="Helvetica,sans-Serif" font-size="10.00">+ operator=()</text>
<text text-anchor="start" x="586" y="-101" font-family="Helvetica,sans-Serif" font-size="10.00">+ PosVelAttLogger()</text>
<text text-anchor="start" x="586" y="-90" font-family="Helvetica,sans-Serif" font-size="10.00">+ PosVelAttLogger()</text>
<text text-anchor="start" x="586" y="-79" font-family="Helvetica,sans-Serif" font-size="10.00">+ PosVelAttLogger()</text>
<text text-anchor="start" x="586" y="-68" font-family="Helvetica,sans-Serif" font-size="10.00">+ restore()</text>
<text text-anchor="start" x="586" y="-57" font-family="Helvetica,sans-Serif" font-size="10.00">+ save()</text>
<text text-anchor="start" x="586" y="-46" font-family="Helvetica,sans-Serif" font-size="10.00">+ type()</text>
<text text-anchor="start" x="586" y="-35" font-family="Helvetica,sans-Serif" font-size="10.00">+ ~PosVelAttLogger()</text>
<text text-anchor="start" x="586" y="-24" font-family="Helvetica,sans-Serif" font-size="10.00">+ category()</text>
<text text-anchor="start" x="586" y="-13" font-family="Helvetica,sans-Serif" font-size="10.00">+ typeStatic()</text>
</a>
</g>
</g>
<!-- Node1&#45;&gt;Node6 -->
<g id="edge5" class="edge">
<title>Node1&#45;&gt;Node6</title>
<path fill="none" stroke="#63b8ff" d="M550.03,-229.03C558.95,-216.31 568.47,-202.74 577.86,-189.37"/>
<polygon fill="none" stroke="#63b8ff" points="547.14,-227.06 544.26,-237.25 552.87,-231.08 547.14,-227.06"/>
</g>
<!-- Node7 -->
<g id="node7" class="node">
<title>Node7</title>
<g id="a_node7"><a xlink:href="classNAV_1_1SppSolutionLogger.html" target="_top" xlink:title="Data Logger for SppSolution observations.">
<polygon fill="white" stroke="#666666" points="719.5,-6 719.5,-195 853.5,-195 853.5,-6 719.5,-6"/>
<text text-anchor="middle" x="786.5" y="-183" font-family="Helvetica,sans-Serif" font-size="10.00">NAV::SppSolutionLogger</text>
<polyline fill="none" stroke="#666666" points="719.5,-176 853.5,-176 "/>
<text text-anchor="middle" x="786.5" y="-164" font-family="Helvetica,sans-Serif" font-size="10.00"> </text>
<polyline fill="none" stroke="#666666" points="719.5,-157 853.5,-157 "/>
<text text-anchor="start" x="727.5" y="-145" font-family="Helvetica,sans-Serif" font-size="10.00">+ flush()</text>
<text text-anchor="start" x="727.5" y="-134" font-family="Helvetica,sans-Serif" font-size="10.00">+ guiConfig()</text>
<text text-anchor="start" x="727.5" y="-123" font-family="Helvetica,sans-Serif" font-size="10.00">+ operator=()</text>
<text text-anchor="start" x="727.5" y="-112" font-family="Helvetica,sans-Serif" font-size="10.00">+ operator=()</text>
<text text-anchor="start" x="727.5" y="-101" font-family="Helvetica,sans-Serif" font-size="10.00">+ restore()</text>
<text text-anchor="start" x="727.5" y="-90" font-family="Helvetica,sans-Serif" font-size="10.00">+ save()</text>
<text text-anchor="start" x="727.5" y="-79" font-family="Helvetica,sans-Serif" font-size="10.00">+ SppSolutionLogger()</text>
<text text-anchor="start" x="727.5" y="-68" font-family="Helvetica,sans-Serif" font-size="10.00">+ SppSolutionLogger()</text>
<text text-anchor="start" x="727.5" y="-57" font-family="Helvetica,sans-Serif" font-size="10.00">+ SppSolutionLogger()</text>
<text text-anchor="start" x="727.5" y="-46" font-family="Helvetica,sans-Serif" font-size="10.00">+ type()</text>
<text text-anchor="start" x="727.5" y="-35" font-family="Helvetica,sans-Serif" font-size="10.00">+ ~SppSolutionLogger()</text>
<text text-anchor="start" x="727.5" y="-24" font-family="Helvetica,sans-Serif" font-size="10.00">+ category()</text>
<text text-anchor="start" x="727.5" y="-13" font-family="Helvetica,sans-Serif" font-size="10.00">+ typeStatic()</text>
</a>
</g>
</g>
<!-- Node1&#45;&gt;Node7 -->
<g id="edge6" class="edge">
<title>Node1&#45;&gt;Node7</title>
<path fill="none" stroke="#63b8ff" d="M575.05,-271.27C617.12,-256.15 670.23,-232.85 710.5,-201 713.4,-198.71 716.25,-196.28 719.04,-193.75"/>
<polygon fill="none" stroke="#63b8ff" points="573.7,-268.03 565.43,-274.65 576.02,-274.63 573.7,-268.03"/>
</g>
<!-- Node8 -->
<g id="node8" class="node">
<title>Node8</title>
<g id="a_node8"><a xlink:href="classNAV_1_1VectorNavDataLogger.html" target="_top" xlink:title="Data Logger for VectorNav observations.">
<polygon fill="white" stroke="#666666" points="871.5,-0.5 871.5,-200.5 1021.5,-200.5 1021.5,-0.5 871.5,-0.5"/>
<text text-anchor="middle" x="946.5" y="-188.5" font-family="Helvetica,sans-Serif" font-size="10.00">NAV::VectorNavDataLogger</text>
<polyline fill="none" stroke="#666666" points="871.5,-181.5 1021.5,-181.5 "/>
<text text-anchor="middle" x="946.5" y="-169.5" font-family="Helvetica,sans-Serif" font-size="10.00"> </text>
<polyline fill="none" stroke="#666666" points="871.5,-162.5 1021.5,-162.5 "/>
<text text-anchor="start" x="879.5" y="-150.5" font-family="Helvetica,sans-Serif" font-size="10.00">+ flush()</text>
<text text-anchor="start" x="879.5" y="-139.5" font-family="Helvetica,sans-Serif" font-size="10.00">+ guiConfig()</text>
<text text-anchor="start" x="879.5" y="-128.5" font-family="Helvetica,sans-Serif" font-size="10.00">+ onCreateLink()</text>
<text text-anchor="start" x="879.5" y="-117.5" font-family="Helvetica,sans-Serif" font-size="10.00">+ operator=()</text>
<text text-anchor="start" x="879.5" y="-106.5" font-family="Helvetica,sans-Serif" font-size="10.00">+ operator=()</text>
<text text-anchor="start" x="879.5" y="-95.5" font-family="Helvetica,sans-Serif" font-size="10.00">+ restore()</text>
<text text-anchor="start" x="879.5" y="-84.5" font-family="Helvetica,sans-Serif" font-size="10.00">+ save()</text>
<text text-anchor="start" x="879.5" y="-73.5" font-family="Helvetica,sans-Serif" font-size="10.00">+ type()</text>
<text text-anchor="start" x="879.5" y="-62.5" font-family="Helvetica,sans-Serif" font-size="10.00">+ VectorNavDataLogger()</text>
<text text-anchor="start" x="879.5" y="-51.5" font-family="Helvetica,sans-Serif" font-size="10.00">+ VectorNavDataLogger()</text>
<text text-anchor="start" x="879.5" y="-40.5" font-family="Helvetica,sans-Serif" font-size="10.00">+ VectorNavDataLogger()</text>
<text text-anchor="start" x="879.5" y="-29.5" font-family="Helvetica,sans-Serif" font-size="10.00">+ ~VectorNavDataLogger()</text>
<text text-anchor="start" x="879.5" y="-18.5" font-family="Helvetica,sans-Serif" font-size="10.00">+ category()</text>
<text text-anchor="start" x="879.5" y="-7.5" font-family="Helvetica,sans-Serif" font-size="10.00">+ typeStatic()</text>
</a>
</g>
</g>
<!-- Node1&#45;&gt;Node8 -->
<g id="edge7" class="edge">
<title>Node1&#45;&gt;Node8</title>
<path fill="none" stroke="#63b8ff" d="M575.53,-287.23C651.34,-278.77 773.33,-256.94 862.5,-201 865.47,-199.14 868.39,-197.14 871.25,-195.02"/>
<polygon fill="none" stroke="#63b8ff" points="574.72,-283.79 565.15,-288.33 575.46,-290.75 574.72,-283.79"/>
</g>
</g>
</svg>
