<?xml version="1.0" encoding="UTF-8" standalone="no"?>
<!DOCTYPE svg PUBLIC "-//W3C//DTD SVG 1.1//EN"
 "http://www.w3.org/Graphics/SVG/1.1/DTD/svg11.dtd">
<!-- Generated by graphviz version 2.43.0 (0)
 -->
<!-- Title: NAV::UartSensor Pages: 1 -->
<svg width="470pt" height="487pt"
 viewBox="0.00 0.00 469.50 487.00" xmlns="http://www.w3.org/2000/svg" xmlns:xlink="http://www.w3.org/1999/xlink">
<g id="graph0" class="graph" transform="scale(1 1) rotate(0) translate(4 483)">
<title>NAV::UartSensor</title>
<!-- Node1 -->
<g id="Node000001" class="node">
<title>Node1</title>
<g id="a_Node000001"><a xlink:title="Abstract Uart Sensor Class.">
<polygon fill="#999999" stroke="transparent" points="279,-479 155,-479 155,-280 279,-280 279,-479"/>
<text text-anchor="start" x="177" y="-466.5" font-family="Helvetica,sans-Serif" font-size="10.00">NAV::UartSensor</text>
<text text-anchor="start" x="159" y="-451.5" font-family="Helvetica,sans-Serif" font-size="10.00">#</text>
<text text-anchor="start" x="172" y="-451.5" font-family="Helvetica,sans-Serif" font-size="10.00">_selectedBaudrate</text>
<text text-anchor="start" x="159" y="-436.5" font-family="Helvetica,sans-Serif" font-size="10.00">#</text>
<text text-anchor="start" x="172" y="-436.5" font-family="Helvetica,sans-Serif" font-size="10.00">_sensorPort</text>
<text text-anchor="start" x="159" y="-421.5" font-family="Helvetica,sans-Serif" font-size="10.00">+</text>
<text text-anchor="start" x="172" y="-421.5" font-family="Helvetica,sans-Serif" font-size="10.00">operator=()</text>
<text text-anchor="start" x="159" y="-406.5" font-family="Helvetica,sans-Serif" font-size="10.00">+</text>
<text text-anchor="start" x="172" y="-406.5" font-family="Helvetica,sans-Serif" font-size="10.00">operator=()</text>
<text text-anchor="start" x="159" y="-391.5" font-family="Helvetica,sans-Serif" font-size="10.00">+</text>
<text text-anchor="start" x="172" y="-391.5" font-family="Helvetica,sans-Serif" font-size="10.00">UartSensor()</text>
<text text-anchor="start" x="159" y="-376.5" font-family="Helvetica,sans-Serif" font-size="10.00">+</text>
<text text-anchor="start" x="172" y="-376.5" font-family="Helvetica,sans-Serif" font-size="10.00">UartSensor()</text>
<text text-anchor="start" x="159" y="-361.5" font-family="Helvetica,sans-Serif" font-size="10.00">+</text>
<text text-anchor="start" x="172" y="-361.5" font-family="Helvetica,sans-Serif" font-size="10.00">~UartSensor()</text>
<text text-anchor="start" x="159" y="-346.5" font-family="Helvetica,sans-Serif" font-size="10.00">#</text>
<text text-anchor="start" x="172" y="-346.5" font-family="Helvetica,sans-Serif" font-size="10.00">restore()</text>
<text text-anchor="start" x="159" y="-331.5" font-family="Helvetica,sans-Serif" font-size="10.00">#</text>
<text text-anchor="start" x="172" y="-331.5" font-family="Helvetica,sans-Serif" font-size="10.00">save()</text>
<text text-anchor="start" x="159" y="-316.5" font-family="Helvetica,sans-Serif" font-size="10.00">#</text>
<text text-anchor="start" x="172" y="-316.5" font-family="Helvetica,sans-Serif" font-size="10.00">sensorBaudrate()</text>
<text text-anchor="start" x="159" y="-301.5" font-family="Helvetica,sans-Serif" font-size="10.00">#</text>
<text text-anchor="start" x="172" y="-301.5" font-family="Helvetica,sans-Serif" font-size="10.00">UartSensor()</text>
<text text-anchor="start" x="159" y="-286.5" font-family="Helvetica,sans-Serif" font-size="10.00">#</text>
<text text-anchor="start" x="172" y="-286.5" font-family="Helvetica,sans-Serif" font-size="10.00">baudrate2Selection()</text>
<polygon fill="#666666" stroke="#666666" points="155,-461.5 155,-461.5 279,-461.5 279,-461.5 155,-461.5"/>
<polygon fill="#666666" stroke="#666666" points="155,-431.5 155,-431.5 170,-431.5 170,-431.5 155,-431.5"/>
<polygon fill="#666666" stroke="#666666" points="170,-431.5 170,-431.5 279,-431.5 279,-431.5 170,-431.5"/>
<polygon fill="none" stroke="#666666" points="155,-280 155,-479 279,-479 279,-280 155,-280"/>
</a>
</g>
</g>
<!-- Node2 -->
<g id="Node000002" class="node">
<title>Node2</title>
<g id="a_Node000002"><a xlink:href="classNAV_1_1EmlidSensor.html" target="_top" xlink:title="Emlid Sensor Class.">
<polygon fill="white" stroke="transparent" points="98,-236.5 0,-236.5 0,-7.5 98,-7.5 98,-236.5"/>
<text text-anchor="start" x="5.5" y="-224" font-family="Helvetica,sans-Serif" font-size="10.00">NAV::EmlidSensor</text>
<text text-anchor="start" x="47" y="-209" font-family="Helvetica,sans-Serif" font-size="10.00"> </text>
<text text-anchor="start" x="4" y="-194" font-family="Helvetica,sans-Serif" font-size="10.00">+</text>
<text text-anchor="start" x="17" y="-194" font-family="Helvetica,sans-Serif" font-size="10.00">EmlidSensor()</text>
<text text-anchor="start" x="4" y="-179" font-family="Helvetica,sans-Serif" font-size="10.00">+</text>
<text text-anchor="start" x="17" y="-179" font-family="Helvetica,sans-Serif" font-size="10.00">EmlidSensor()</text>
<text text-anchor="start" x="4" y="-164" font-family="Helvetica,sans-Serif" font-size="10.00">+</text>
<text text-anchor="start" x="17" y="-164" font-family="Helvetica,sans-Serif" font-size="10.00">EmlidSensor()</text>
<text text-anchor="start" x="4" y="-149" font-family="Helvetica,sans-Serif" font-size="10.00">+</text>
<text text-anchor="start" x="17" y="-149" font-family="Helvetica,sans-Serif" font-size="10.00">guiConfig()</text>
<text text-anchor="start" x="4" y="-134" font-family="Helvetica,sans-Serif" font-size="10.00">+</text>
<text text-anchor="start" x="17" y="-134" font-family="Helvetica,sans-Serif" font-size="10.00">operator=()</text>
<text text-anchor="start" x="4" y="-119" font-family="Helvetica,sans-Serif" font-size="10.00">+</text>
<text text-anchor="start" x="17" y="-119" font-family="Helvetica,sans-Serif" font-size="10.00">operator=()</text>
<text text-anchor="start" x="4" y="-104" font-family="Helvetica,sans-Serif" font-size="10.00">+</text>
<text text-anchor="start" x="17" y="-104" font-family="Helvetica,sans-Serif" font-size="10.00">resetNode()</text>
<text text-anchor="start" x="4" y="-89" font-family="Helvetica,sans-Serif" font-size="10.00">+</text>
<text text-anchor="start" x="17" y="-89" font-family="Helvetica,sans-Serif" font-size="10.00">restore()</text>
<text text-anchor="start" x="4" y="-74" font-family="Helvetica,sans-Serif" font-size="10.00">+</text>
<text text-anchor="start" x="17" y="-74" font-family="Helvetica,sans-Serif" font-size="10.00">save()</text>
<text text-anchor="start" x="4" y="-59" font-family="Helvetica,sans-Serif" font-size="10.00">+</text>
<text text-anchor="start" x="17" y="-59" font-family="Helvetica,sans-Serif" font-size="10.00">type()</text>
<text text-anchor="start" x="4" y="-44" font-family="Helvetica,sans-Serif" font-size="10.00">+</text>
<text text-anchor="start" x="17" y="-44" font-family="Helvetica,sans-Serif" font-size="10.00">~EmlidSensor()</text>
<text text-anchor="start" x="4" y="-29" font-family="Helvetica,sans-Serif" font-size="10.00">+</text>
<text text-anchor="start" x="17" y="-29" font-family="Helvetica,sans-Serif" font-size="10.00">category()</text>
<text text-anchor="start" x="4" y="-14" font-family="Helvetica,sans-Serif" font-size="10.00">+</text>
<text text-anchor="start" x="17" y="-14" font-family="Helvetica,sans-Serif" font-size="10.00">typeStatic()</text>
<polygon fill="#666666" stroke="#666666" points="0,-219 0,-219 98,-219 98,-219 0,-219"/>
<polygon fill="#666666" stroke="#666666" points="0,-204 0,-204 98,-204 98,-204 0,-204"/>
<polygon fill="none" stroke="#666666" points="0,-7.5 0,-236.5 98,-236.5 98,-7.5 0,-7.5"/>
</a>
</g>
</g>
<!-- Node1&#45;&gt;Node2 -->
<g id="edge1_Node000001_Node000002" class="edge">
<title>Node1&#45;&gt;Node2</title>
<g id="a_edge1_Node000001_Node000002"><a xlink:title=" ">
<path fill="none" stroke="#63b8ff" d="M148.25,-300.82C133.78,-282.77 119.21,-263.21 107,-244 104,-239.28 101.05,-234.38 98.18,-229.38"/>
<polygon fill="none" stroke="#63b8ff" points="145.87,-303.44 154.89,-309 151.3,-299.03 145.87,-303.44"/>
</a>
</g>
</g>
<!-- Node3 -->
<g id="Node000003" class="node">
<title>Node3</title>
<g id="a_Node000003"><a xlink:href="classNAV_1_1KvhSensor.html" target="_top" xlink:title="KVH Sensor Class.">
<polygon fill="white" stroke="transparent" points="205.5,-236.5 116.5,-236.5 116.5,-7.5 205.5,-7.5 205.5,-236.5"/>
<text text-anchor="start" x="122.5" y="-224" font-family="Helvetica,sans-Serif" font-size="10.00">NAV::KvhSensor</text>
<text text-anchor="start" x="159.5" y="-209" font-family="Helvetica,sans-Serif" font-size="10.00"> </text>
<text text-anchor="start" x="121" y="-194" font-family="Helvetica,sans-Serif" font-size="10.00">+</text>
<text text-anchor="start" x="134" y="-194" font-family="Helvetica,sans-Serif" font-size="10.00">guiConfig()</text>
<text text-anchor="start" x="121" y="-179" font-family="Helvetica,sans-Serif" font-size="10.00">+</text>
<text text-anchor="start" x="134" y="-179" font-family="Helvetica,sans-Serif" font-size="10.00">KvhSensor()</text>
<text text-anchor="start" x="121" y="-164" font-family="Helvetica,sans-Serif" font-size="10.00">+</text>
<text text-anchor="start" x="134" y="-164" font-family="Helvetica,sans-Serif" font-size="10.00">KvhSensor()</text>
<text text-anchor="start" x="121" y="-149" font-family="Helvetica,sans-Serif" font-size="10.00">+</text>
<text text-anchor="start" x="134" y="-149" font-family="Helvetica,sans-Serif" font-size="10.00">KvhSensor()</text>
<text text-anchor="start" x="121" y="-134" font-family="Helvetica,sans-Serif" font-size="10.00">+</text>
<text text-anchor="start" x="134" y="-134" font-family="Helvetica,sans-Serif" font-size="10.00">operator=()</text>
<text text-anchor="start" x="121" y="-119" font-family="Helvetica,sans-Serif" font-size="10.00">+</text>
<text text-anchor="start" x="134" y="-119" font-family="Helvetica,sans-Serif" font-size="10.00">operator=()</text>
<text text-anchor="start" x="121" y="-104" font-family="Helvetica,sans-Serif" font-size="10.00">+</text>
<text text-anchor="start" x="134" y="-104" font-family="Helvetica,sans-Serif" font-size="10.00">resetNode()</text>
<text text-anchor="start" x="121" y="-89" font-family="Helvetica,sans-Serif" font-size="10.00">+</text>
<text text-anchor="start" x="134" y="-89" font-family="Helvetica,sans-Serif" font-size="10.00">restore()</text>
<text text-anchor="start" x="121" y="-74" font-family="Helvetica,sans-Serif" font-size="10.00">+</text>
<text text-anchor="start" x="134" y="-74" font-family="Helvetica,sans-Serif" font-size="10.00">save()</text>
<text text-anchor="start" x="121" y="-59" font-family="Helvetica,sans-Serif" font-size="10.00">+</text>
<text text-anchor="start" x="134" y="-59" font-family="Helvetica,sans-Serif" font-size="10.00">type()</text>
<text text-anchor="start" x="121" y="-44" font-family="Helvetica,sans-Serif" font-size="10.00">+</text>
<text text-anchor="start" x="134" y="-44" font-family="Helvetica,sans-Serif" font-size="10.00">~KvhSensor()</text>
<text text-anchor="start" x="121" y="-29" font-family="Helvetica,sans-Serif" font-size="10.00">+</text>
<text text-anchor="start" x="134" y="-29" font-family="Helvetica,sans-Serif" font-size="10.00">category()</text>
<text text-anchor="start" x="121" y="-14" font-family="Helvetica,sans-Serif" font-size="10.00">+</text>
<text text-anchor="start" x="134" y="-14" font-family="Helvetica,sans-Serif" font-size="10.00">typeStatic()</text>
<polygon fill="#666666" stroke="#666666" points="117,-219 117,-219 206,-219 206,-219 117,-219"/>
<polygon fill="#666666" stroke="#666666" points="117,-204 117,-204 206,-204 206,-204 117,-204"/>
<polygon fill="none" stroke="#666666" points="116.5,-7.5 116.5,-236.5 205.5,-236.5 205.5,-7.5 116.5,-7.5"/>
</a>
</g>
</g>
<!-- Node1&#45;&gt;Node3 -->
<g id="edge2_Node000001_Node000003" class="edge">
<title>Node1&#45;&gt;Node3</title>
<g id="a_edge2_Node000001_Node000003"><a xlink:title=" ">
<path fill="none" stroke="#63b8ff" d="M193.17,-269.77C190.78,-258.87 188.35,-247.79 185.95,-236.84"/>
<polygon fill="none" stroke="#63b8ff" points="189.79,-270.7 195.35,-279.72 196.63,-269.2 189.79,-270.7"/>
</a>
</g>
</g>
<!-- Node4 -->
<g id="Node000004" class="node">
<title>Node4</title>
<g id="a_Node000004"><a xlink:href="classNAV_1_1UbloxSensor.html" target="_top" xlink:title="Ublox Sensor Class.">
<polygon fill="white" stroke="transparent" points="322.5,-236.5 223.5,-236.5 223.5,-7.5 322.5,-7.5 322.5,-236.5"/>
<text text-anchor="start" x="229.5" y="-224" font-family="Helvetica,sans-Serif" font-size="10.00">NAV::UbloxSensor</text>
<text text-anchor="start" x="271.5" y="-209" font-family="Helvetica,sans-Serif" font-size="10.00"> </text>
<text text-anchor="start" x="228" y="-194" font-family="Helvetica,sans-Serif" font-size="10.00">+</text>
<text text-anchor="start" x="241" y="-194" font-family="Helvetica,sans-Serif" font-size="10.00">guiConfig()</text>
<text text-anchor="start" x="228" y="-179" font-family="Helvetica,sans-Serif" font-size="10.00">+</text>
<text text-anchor="start" x="241" y="-179" font-family="Helvetica,sans-Serif" font-size="10.00">operator=()</text>
<text text-anchor="start" x="228" y="-164" font-family="Helvetica,sans-Serif" font-size="10.00">+</text>
<text text-anchor="start" x="241" y="-164" font-family="Helvetica,sans-Serif" font-size="10.00">operator=()</text>
<text text-anchor="start" x="228" y="-149" font-family="Helvetica,sans-Serif" font-size="10.00">+</text>
<text text-anchor="start" x="241" y="-149" font-family="Helvetica,sans-Serif" font-size="10.00">resetNode()</text>
<text text-anchor="start" x="228" y="-134" font-family="Helvetica,sans-Serif" font-size="10.00">+</text>
<text text-anchor="start" x="241" y="-134" font-family="Helvetica,sans-Serif" font-size="10.00">restore()</text>
<text text-anchor="start" x="228" y="-119" font-family="Helvetica,sans-Serif" font-size="10.00">+</text>
<text text-anchor="start" x="241" y="-119" font-family="Helvetica,sans-Serif" font-size="10.00">save()</text>
<text text-anchor="start" x="228" y="-104" font-family="Helvetica,sans-Serif" font-size="10.00">+</text>
<text text-anchor="start" x="241" y="-104" font-family="Helvetica,sans-Serif" font-size="10.00">type()</text>
<text text-anchor="start" x="228" y="-89" font-family="Helvetica,sans-Serif" font-size="10.00">+</text>
<text text-anchor="start" x="241" y="-89" font-family="Helvetica,sans-Serif" font-size="10.00">UbloxSensor()</text>
<text text-anchor="start" x="228" y="-74" font-family="Helvetica,sans-Serif" font-size="10.00">+</text>
<text text-anchor="start" x="241" y="-74" font-family="Helvetica,sans-Serif" font-size="10.00">UbloxSensor()</text>
<text text-anchor="start" x="228" y="-59" font-family="Helvetica,sans-Serif" font-size="10.00">+</text>
<text text-anchor="start" x="241" y="-59" font-family="Helvetica,sans-Serif" font-size="10.00">UbloxSensor()</text>
<text text-anchor="start" x="228" y="-44" font-family="Helvetica,sans-Serif" font-size="10.00">+</text>
<text text-anchor="start" x="241" y="-44" font-family="Helvetica,sans-Serif" font-size="10.00">~UbloxSensor()</text>
<text text-anchor="start" x="228" y="-29" font-family="Helvetica,sans-Serif" font-size="10.00">+</text>
<text text-anchor="start" x="241" y="-29" font-family="Helvetica,sans-Serif" font-size="10.00">category()</text>
<text text-anchor="start" x="228" y="-14" font-family="Helvetica,sans-Serif" font-size="10.00">+</text>
<text text-anchor="start" x="241" y="-14" font-family="Helvetica,sans-Serif" font-size="10.00">typeStatic()</text>
<polygon fill="#666666" stroke="#666666" points="224,-219 224,-219 323,-219 323,-219 224,-219"/>
<polygon fill="#666666" stroke="#666666" points="224,-204 224,-204 323,-204 323,-204 224,-204"/>
<polygon fill="none" stroke="#666666" points="223.5,-7.5 223.5,-236.5 322.5,-236.5 322.5,-7.5 223.5,-7.5"/>
</a>
</g>
</g>
<!-- Node1&#45;&gt;Node4 -->
<g id="edge3_Node000001_Node000004" class="edge">
<title>Node1&#45;&gt;Node4</title>
<g id="a_edge3_Node000001_Node000004"><a xlink:title=" ">
<path fill="none" stroke="#63b8ff" d="M240.83,-269.77C243.22,-258.87 245.65,-247.79 248.05,-236.84"/>
<polygon fill="none" stroke="#63b8ff" points="237.37,-269.2 238.65,-279.72 244.21,-270.7 237.37,-269.2"/>
</a>
</g>
</g>
<!-- Node5 -->
<g id="Node000005" class="node">
<title>Node5</title>
<g id="a_Node000005"><a xlink:href="classNAV_1_1VectorNavSensor.html" target="_top" xlink:title="Vector Nav Sensor Class.">
<polygon fill="white" stroke="transparent" points="461.5,-244 340.5,-244 340.5,0 461.5,0 461.5,-244"/>
<text text-anchor="start" x="347" y="-232" font-family="Helvetica,sans-Serif" font-size="10.00">NAV::VectorNavSensor</text>
<text text-anchor="start" x="345" y="-217" font-family="Helvetica,sans-Serif" font-size="10.00">+</text>
<text text-anchor="start" x="358" y="-217" font-family="Helvetica,sans-Serif" font-size="10.00">lastGnssTime</text>
<text text-anchor="start" x="345" y="-202" font-family="Helvetica,sans-Serif" font-size="10.00">+</text>
<text text-anchor="start" x="358" y="-202" font-family="Helvetica,sans-Serif" font-size="10.00">timeSinceStartup</text>
<text text-anchor="start" x="345" y="-187" font-family="Helvetica,sans-Serif" font-size="10.00">+</text>
<text text-anchor="start" x="358" y="-187" font-family="Helvetica,sans-Serif" font-size="10.00">guiConfig()</text>
<text text-anchor="start" x="345" y="-172" font-family="Helvetica,sans-Serif" font-size="10.00">+</text>
<text text-anchor="start" x="358" y="-172" font-family="Helvetica,sans-Serif" font-size="10.00">operator=()</text>
<text text-anchor="start" x="345" y="-157" font-family="Helvetica,sans-Serif" font-size="10.00">+</text>
<text text-anchor="start" x="358" y="-157" font-family="Helvetica,sans-Serif" font-size="10.00">operator=()</text>
<text text-anchor="start" x="345" y="-142" font-family="Helvetica,sans-Serif" font-size="10.00">+</text>
<text text-anchor="start" x="358" y="-142" font-family="Helvetica,sans-Serif" font-size="10.00">resetNode()</text>
<text text-anchor="start" x="345" y="-127" font-family="Helvetica,sans-Serif" font-size="10.00">+</text>
<text text-anchor="start" x="358" y="-127" font-family="Helvetica,sans-Serif" font-size="10.00">restore()</text>
<text text-anchor="start" x="345" y="-112" font-family="Helvetica,sans-Serif" font-size="10.00">+</text>
<text text-anchor="start" x="358" y="-112" font-family="Helvetica,sans-Serif" font-size="10.00">save()</text>
<text text-anchor="start" x="345" y="-97" font-family="Helvetica,sans-Serif" font-size="10.00">+</text>
<text text-anchor="start" x="358" y="-97" font-family="Helvetica,sans-Serif" font-size="10.00">type()</text>
<text text-anchor="start" x="345" y="-82" font-family="Helvetica,sans-Serif" font-size="10.00">+</text>
<text text-anchor="start" x="358" y="-82" font-family="Helvetica,sans-Serif" font-size="10.00">VectorNavSensor()</text>
<text text-anchor="start" x="345" y="-67" font-family="Helvetica,sans-Serif" font-size="10.00">+</text>
<text text-anchor="start" x="358" y="-67" font-family="Helvetica,sans-Serif" font-size="10.00">VectorNavSensor()</text>
<text text-anchor="start" x="345" y="-52" font-family="Helvetica,sans-Serif" font-size="10.00">+</text>
<text text-anchor="start" x="358" y="-52" font-family="Helvetica,sans-Serif" font-size="10.00">VectorNavSensor()</text>
<text text-anchor="start" x="345" y="-37" font-family="Helvetica,sans-Serif" font-size="10.00">+</text>
<text text-anchor="start" x="358" y="-37" font-family="Helvetica,sans-Serif" font-size="10.00">~VectorNavSensor()</text>
<text text-anchor="start" x="345" y="-22" font-family="Helvetica,sans-Serif" font-size="10.00">+</text>
<text text-anchor="start" x="358" y="-22" font-family="Helvetica,sans-Serif" font-size="10.00">category()</text>
<text text-anchor="start" x="345" y="-7" font-family="Helvetica,sans-Serif" font-size="10.00">+</text>
<text text-anchor="start" x="358" y="-7" font-family="Helvetica,sans-Serif" font-size="10.00">typeStatic()</text>
<polygon fill="#666666" stroke="#666666" points="341,-227 341,-227 462,-227 462,-227 341,-227"/>
<polygon fill="#666666" stroke="#666666" points="341,-197 341,-197 356,-197 356,-197 341,-197"/>
<polygon fill="#666666" stroke="#666666" points="356,-197 356,-197 462,-197 462,-197 356,-197"/>
<polygon fill="none" stroke="#666666" points="340.5,0 340.5,-244 461.5,-244 461.5,0 340.5,0"/>
</a>
</g>
</g>
<!-- Node1&#45;&gt;Node5 -->
<g id="edge4_Node000001_Node000005" class="edge">
<title>Node1&#45;&gt;Node5</title>
<g id="a_edge4_Node000001_Node000005"><a xlink:title=" ">
<path fill="none" stroke="#63b8ff" d="M286.03,-302.82C301.85,-284.13 318.08,-263.79 332,-244 334.85,-239.94 337.69,-235.76 340.5,-231.5"/>
<polygon fill="none" stroke="#63b8ff" points="283.12,-300.84 279.29,-310.71 288.45,-305.38 283.12,-300.84"/>
</a>
</g>
</g>
</g>
</svg>
