<?xml version="1.0" encoding="UTF-8" standalone="no"?>
<!DOCTYPE svg PUBLIC "-//W3C//DTD SVG 1.1//EN"
 "http://www.w3.org/Graphics/SVG/1.1/DTD/svg11.dtd">
<!-- Generated by graphviz version 2.43.0 (0)
 -->
<!-- Title: NAV::FileWriter Pages: 1 -->
<svg width="1170pt" height="457pt"
 viewBox="0.00 0.00 1169.50 457.00" xmlns="http://www.w3.org/2000/svg" xmlns:xlink="http://www.w3.org/1999/xlink">
<g id="graph0" class="graph" transform="scale(1 1) rotate(0) translate(4 453)">
<title>NAV::FileWriter</title>
<!-- Node1 -->
<g id="node1" class="node">
<title>Node1</title>
<g id="a_node1"><a xlink:title="Parent class for other data loggers which manages the output filestream.">
<polygon fill="#999999" stroke="#666666" points="527,-237.5 527,-448.5 618,-448.5 618,-237.5 527,-237.5"/>
<text text-anchor="middle" x="572.5" y="-436.5" font-family="Helvetica,sans-Serif" font-size="10.00">NAV::FileWriter</text>
<polyline fill="none" stroke="#666666" points="527,-429.5 618,-429.5 "/>
<text text-anchor="start" x="535" y="-417.5" font-family="Helvetica,sans-Serif" font-size="10.00"># _filestream</text>
<text text-anchor="start" x="535" y="-406.5" font-family="Helvetica,sans-Serif" font-size="10.00"># _fileType</text>
<text text-anchor="start" x="535" y="-395.5" font-family="Helvetica,sans-Serif" font-size="10.00"># _path</text>
<polyline fill="none" stroke="#666666" points="527,-388.5 618,-388.5 "/>
<text text-anchor="start" x="535" y="-376.5" font-family="Helvetica,sans-Serif" font-size="10.00">+ FileWriter()</text>
<text text-anchor="start" x="535" y="-365.5" font-family="Helvetica,sans-Serif" font-size="10.00">+ FileWriter()</text>
<text text-anchor="start" x="535" y="-354.5" font-family="Helvetica,sans-Serif" font-size="10.00">+ operator=()</text>
<text text-anchor="start" x="535" y="-343.5" font-family="Helvetica,sans-Serif" font-size="10.00">+ operator=()</text>
<text text-anchor="start" x="535" y="-332.5" font-family="Helvetica,sans-Serif" font-size="10.00">+ ~FileWriter()</text>
<text text-anchor="start" x="535" y="-321.5" font-family="Helvetica,sans-Serif" font-size="10.00">+ to_string()</text>
<text text-anchor="start" x="535" y="-310.5" font-family="Helvetica,sans-Serif" font-size="10.00"># deinitialize()</text>
<text text-anchor="start" x="535" y="-299.5" font-family="Helvetica,sans-Serif" font-size="10.00"># FileWriter()</text>
<text text-anchor="start" x="535" y="-288.5" font-family="Helvetica,sans-Serif" font-size="10.00"># getFilepath()</text>
<text text-anchor="start" x="535" y="-277.5" font-family="Helvetica,sans-Serif" font-size="10.00"># guiConfig()</text>
<text text-anchor="start" x="535" y="-266.5" font-family="Helvetica,sans-Serif" font-size="10.00"># initialize()</text>
<text text-anchor="start" x="535" y="-255.5" font-family="Helvetica,sans-Serif" font-size="10.00"># restore()</text>
<text text-anchor="start" x="535" y="-244.5" font-family="Helvetica,sans-Serif" font-size="10.00"># save()</text>
</a>
</g>
</g>
<!-- Node2 -->
<g id="node2" class="node">
<title>Node2</title>
<g id="a_node2"><a xlink:href="classNAV_1_1ImuDataLogger.html" target="_top" xlink:title="Data Logger for IMU observations.">
<polygon fill="white" stroke="#666666" points="0,-6 0,-195 119,-195 119,-6 0,-6"/>
<text text-anchor="middle" x="59.5" y="-183" font-family="Helvetica,sans-Serif" font-size="10.00">NAV::ImuDataLogger</text>
<polyline fill="none" stroke="#666666" points="0,-176 119,-176 "/>
<text text-anchor="middle" x="59.5" y="-164" font-family="Helvetica,sans-Serif" font-size="10.00"> </text>
<polyline fill="none" stroke="#666666" points="0,-157 119,-157 "/>
<text text-anchor="start" x="8" y="-145" font-family="Helvetica,sans-Serif" font-size="10.00">+ flush()</text>
<text text-anchor="start" x="8" y="-134" font-family="Helvetica,sans-Serif" font-size="10.00">+ guiConfig()</text>
<text text-anchor="start" x="8" y="-123" font-family="Helvetica,sans-Serif" font-size="10.00">+ ImuDataLogger()</text>
<text text-anchor="start" x="8" y="-112" font-family="Helvetica,sans-Serif" font-size="10.00">+ ImuDataLogger()</text>
<text text-anchor="start" x="8" y="-101" font-family="Helvetica,sans-Serif" font-size="10.00">+ ImuDataLogger()</text>
<text text-anchor="start" x="8" y="-90" font-family="Helvetica,sans-Serif" font-size="10.00">+ operator=()</text>
<text text-anchor="start" x="8" y="-79" font-family="Helvetica,sans-Serif" font-size="10.00">+ operator=()</text>
<text text-anchor="start" x="8" y="-68" font-family="Helvetica,sans-Serif" font-size="10.00">+ restore()</text>
<text text-anchor="start" x="8" y="-57" font-family="Helvetica,sans-Serif" font-size="10.00">+ save()</text>
<text text-anchor="start" x="8" y="-46" font-family="Helvetica,sans-Serif" font-size="10.00">+ type()</text>
<text text-anchor="start" x="8" y="-35" font-family="Helvetica,sans-Serif" font-size="10.00">+ ~ImuDataLogger()</text>
<text text-anchor="start" x="8" y="-24" font-family="Helvetica,sans-Serif" font-size="10.00">+ category()</text>
<text text-anchor="start" x="8" y="-13" font-family="Helvetica,sans-Serif" font-size="10.00">+ typeStatic()</text>
</a>
</g>
</g>
<!-- Node1&#45;&gt;Node2 -->
<g id="edge1" class="edge">
<title>Node1&#45;&gt;Node2</title>
<path fill="none" stroke="#63b8ff" d="M516.74,-336.14C426.87,-324.28 247.92,-290.48 127.5,-201 124.65,-198.88 121.87,-196.6 119.18,-194.19"/>
<polygon fill="none" stroke="#63b8ff" points="516.36,-339.62 526.72,-337.41 517.25,-332.67 516.36,-339.62"/>
</g>
<!-- Node3 -->
<g id="node3" class="node">
<title>Node3</title>
<g id="a_node3"><a xlink:href="classNAV_1_1KvhDataLogger.html" target="_top" xlink:title="Data Logger for KVH observations.">
<polygon fill="white" stroke="#666666" points="137,-6 137,-195 256,-195 256,-6 137,-6"/>
<text text-anchor="middle" x="196.5" y="-183" font-family="Helvetica,sans-Serif" font-size="10.00">NAV::KvhDataLogger</text>
<polyline fill="none" stroke="#666666" points="137,-176 256,-176 "/>
<text text-anchor="middle" x="196.5" y="-164" font-family="Helvetica,sans-Serif" font-size="10.00"> </text>
<polyline fill="none" stroke="#666666" points="137,-157 256,-157 "/>
<text text-anchor="start" x="145" y="-145" font-family="Helvetica,sans-Serif" font-size="10.00">+ flush()</text>
<text text-anchor="start" x="145" y="-134" font-family="Helvetica,sans-Serif" font-size="10.00">+ guiConfig()</text>
<text text-anchor="start" x="145" y="-123" font-family="Helvetica,sans-Serif" font-size="10.00">+ KvhDataLogger()</text>
<text text-anchor="start" x="145" y="-112" font-family="Helvetica,sans-Serif" font-size="10.00">+ KvhDataLogger()</text>
<text text-anchor="start" x="145" y="-101" font-family="Helvetica,sans-Serif" font-size="10.00">+ KvhDataLogger()</text>
<text text-anchor="start" x="145" y="-90" font-family="Helvetica,sans-Serif" font-size="10.00">+ operator=()</text>
<text text-anchor="start" x="145" y="-79" font-family="Helvetica,sans-Serif" font-size="10.00">+ operator=()</text>
<text text-anchor="start" x="145" y="-68" font-family="Helvetica,sans-Serif" font-size="10.00">+ restore()</text>
<text text-anchor="start" x="145" y="-57" font-family="Helvetica,sans-Serif" font-size="10.00">+ save()</text>
<text text-anchor="start" x="145" y="-46" font-family="Helvetica,sans-Serif" font-size="10.00">+ type()</text>
<text text-anchor="start" x="145" y="-35" font-family="Helvetica,sans-Serif" font-size="10.00">+ ~KvhDataLogger()</text>
<text text-anchor="start" x="145" y="-24" font-family="Helvetica,sans-Serif" font-size="10.00">+ category()</text>
<text text-anchor="start" x="145" y="-13" font-family="Helvetica,sans-Serif" font-size="10.00">+ typeStatic()</text>
</a>
</g>
</g>
<!-- Node1&#45;&gt;Node3 -->
<g id="edge2" class="edge">
<title>Node1&#45;&gt;Node3</title>
<path fill="none" stroke="#63b8ff" d="M517.21,-326.69C451.4,-306.36 340.85,-265.35 264.5,-201 261.62,-198.57 258.81,-196 256.07,-193.3"/>
<polygon fill="none" stroke="#63b8ff" points="516.39,-330.1 526.98,-329.66 518.43,-323.4 516.39,-330.1"/>
</g>
<!-- Node4 -->
<g id="node4" class="node">
<title>Node4</title>
<g id="a_node4"><a xlink:href="classNAV_1_1LcKfInsGnssErrorLogger.html" target="_top" xlink:title="Data Logger for INS/GNSS LCKF Errors.">
<polygon fill="white" stroke="#666666" points="274,-6 274,-195 433,-195 433,-6 274,-6"/>
<text text-anchor="middle" x="353.5" y="-183" font-family="Helvetica,sans-Serif" font-size="10.00">NAV::LcKfInsGnssErrorLogger</text>
<polyline fill="none" stroke="#666666" points="274,-176 433,-176 "/>
<text text-anchor="middle" x="353.5" y="-164" font-family="Helvetica,sans-Serif" font-size="10.00"> </text>
<polyline fill="none" stroke="#666666" points="274,-157 433,-157 "/>
<text text-anchor="start" x="282" y="-145" font-family="Helvetica,sans-Serif" font-size="10.00">+ flush()</text>
<text text-anchor="start" x="282" y="-134" font-family="Helvetica,sans-Serif" font-size="10.00">+ guiConfig()</text>
<text text-anchor="start" x="282" y="-123" font-family="Helvetica,sans-Serif" font-size="10.00">+ LcKfInsGnssErrorLogger()</text>
<text text-anchor="start" x="282" y="-112" font-family="Helvetica,sans-Serif" font-size="10.00">+ LcKfInsGnssErrorLogger()</text>
<text text-anchor="start" x="282" y="-101" font-family="Helvetica,sans-Serif" font-size="10.00">+ LcKfInsGnssErrorLogger()</text>
<text text-anchor="start" x="282" y="-90" font-family="Helvetica,sans-Serif" font-size="10.00">+ operator=()</text>
<text text-anchor="start" x="282" y="-79" font-family="Helvetica,sans-Serif" font-size="10.00">+ operator=()</text>
<text text-anchor="start" x="282" y="-68" font-family="Helvetica,sans-Serif" font-size="10.00">+ restore()</text>
<text text-anchor="start" x="282" y="-57" font-family="Helvetica,sans-Serif" font-size="10.00">+ save()</text>
<text text-anchor="start" x="282" y="-46" font-family="Helvetica,sans-Serif" font-size="10.00">+ type()</text>
<text text-anchor="start" x="282" y="-35" font-family="Helvetica,sans-Serif" font-size="10.00">+ ~LcKfInsGnssErrorLogger()</text>
<text text-anchor="start" x="282" y="-24" font-family="Helvetica,sans-Serif" font-size="10.00">+ category()</text>
<text text-anchor="start" x="282" y="-13" font-family="Helvetica,sans-Serif" font-size="10.00">+ typeStatic()</text>
</a>
</g>
</g>
<!-- Node1&#45;&gt;Node4 -->
<g id="edge3" class="edge">
<title>Node1&#45;&gt;Node4</title>
<path fill="none" stroke="#63b8ff" d="M520,-285.45C496.25,-259.76 467.86,-228.93 442.5,-201 439.38,-197.57 436.21,-194.07 433.01,-190.52"/>
<polygon fill="none" stroke="#63b8ff" points="517.53,-287.94 526.89,-292.9 522.67,-283.18 517.53,-287.94"/>
</g>
<!-- Node5 -->
<g id="node5" class="node">
<title>Node5</title>
<g id="a_node5"><a xlink:href="classNAV_1_1MatrixLogger.html" target="_top" xlink:title="Data Logger for PosVelAtt observations.">
<polygon fill="white" stroke="#666666" points="451.5,-6 451.5,-195 559.5,-195 559.5,-6 451.5,-6"/>
<text text-anchor="middle" x="505.5" y="-183" font-family="Helvetica,sans-Serif" font-size="10.00">NAV::MatrixLogger</text>
<polyline fill="none" stroke="#666666" points="451.5,-176 559.5,-176 "/>
<text text-anchor="middle" x="505.5" y="-164" font-family="Helvetica,sans-Serif" font-size="10.00"> </text>
<polyline fill="none" stroke="#666666" points="451.5,-157 559.5,-157 "/>
<text text-anchor="start" x="459.5" y="-145" font-family="Helvetica,sans-Serif" font-size="10.00">+ flush()</text>
<text text-anchor="start" x="459.5" y="-134" font-family="Helvetica,sans-Serif" font-size="10.00">+ guiConfig()</text>
<text text-anchor="start" x="459.5" y="-123" font-family="Helvetica,sans-Serif" font-size="10.00">+ MatrixLogger()</text>
<text text-anchor="start" x="459.5" y="-112" font-family="Helvetica,sans-Serif" font-size="10.00">+ MatrixLogger()</text>
<text text-anchor="start" x="459.5" y="-101" font-family="Helvetica,sans-Serif" font-size="10.00">+ MatrixLogger()</text>
<text text-anchor="start" x="459.5" y="-90" font-family="Helvetica,sans-Serif" font-size="10.00">+ operator=()</text>
<text text-anchor="start" x="459.5" y="-79" font-family="Helvetica,sans-Serif" font-size="10.00">+ operator=()</text>
<text text-anchor="start" x="459.5" y="-68" font-family="Helvetica,sans-Serif" font-size="10.00">+ restore()</text>
<text text-anchor="start" x="459.5" y="-57" font-family="Helvetica,sans-Serif" font-size="10.00">+ save()</text>
<text text-anchor="start" x="459.5" y="-46" font-family="Helvetica,sans-Serif" font-size="10.00">+ type()</text>
<text text-anchor="start" x="459.5" y="-35" font-family="Helvetica,sans-Serif" font-size="10.00">+ ~MatrixLogger()</text>
<text text-anchor="start" x="459.5" y="-24" font-family="Helvetica,sans-Serif" font-size="10.00">+ category()</text>
<text text-anchor="start" x="459.5" y="-13" font-family="Helvetica,sans-Serif" font-size="10.00">+ typeStatic()</text>
</a>
</g>
</g>
<!-- Node1&#45;&gt;Node5 -->
<g id="edge4" class="edge">
<title>Node1&#45;&gt;Node5</title>
<path fill="none" stroke="#63b8ff" d="M540.57,-227.39C537.58,-216.66 534.58,-205.87 531.65,-195.36"/>
<polygon fill="none" stroke="#63b8ff" points="537.25,-228.52 543.31,-237.21 544,-226.64 537.25,-228.52"/>
</g>
<!-- Node6 -->
<g id="node6" class="node">
<title>Node6</title>
<g id="a_node6"><a xlink:href="classNAV_1_1PosVelAttLogger.html" target="_top" xlink:title="Data Logger for PosVelAtt observations.">
<polygon fill="white" stroke="#666666" points="578,-6 578,-195 701,-195 701,-6 578,-6"/>
<text text-anchor="middle" x="639.5" y="-183" font-family="Helvetica,sans-Serif" font-size="10.00">NAV::PosVelAttLogger</text>
<polyline fill="none" stroke="#666666" points="578,-176 701,-176 "/>
<text text-anchor="middle" x="639.5" y="-164" font-family="Helvetica,sans-Serif" font-size="10.00"> </text>
<polyline fill="none" stroke="#666666" points="578,-157 701,-157 "/>
<text text-anchor="start" x="586" y="-145" font-family="Helvetica,sans-Serif" font-size="10.00">+ flush()</text>
<text text-anchor="start" x="586" y="-134" font-family="Helvetica,sans-Serif" font-size="10.00">+ guiConfig()</text>
<text text-anchor="start" x="586" y="-123" font-family="Helvetica,sans-Serif" font-size="10.00">+ operator=()</text>
<text text-anchor="start" x="586" y="-112" font-family="Helvetica,sans-Serif" font-size="10.00">+ operator=()</text>
<text text-anchor="start" x="586" y="-101" font-family="Helvetica,sans-Serif" font-size="10.00">+ PosVelAttLogger()</text>
<text text-anchor="start" x="586" y="-90" font-family="Helvetica,sans-Serif" font-size="10.00">+ PosVelAttLogger()</text>
<text text-anchor="start" x="586" y="-79" font-family="Helvetica,sans-Serif" font-size="10.00">+ PosVelAttLogger()</text>
<text text-anchor="start" x="586" y="-68" font-family="Helvetica,sans-Serif" font-size="10.00">+ restore()</text>
<text text-anchor="start" x="586" y="-57" font-family="Helvetica,sans-Serif" font-size="10.00">+ save()</text>
<text text-anchor="start" x="586" y="-46" font-family="Helvetica,sans-Serif" font-size="10.00">+ type()</text>
<text text-anchor="start" x="586" y="-35" font-family="Helvetica,sans-Serif" font-size="10.00">+ ~PosVelAttLogger()</text>
<text text-anchor="start" x="586" y="-24" font-family="Helvetica,sans-Serif" font-size="10.00">+ category()</text>
<text text-anchor="start" x="586" y="-13" font-family="Helvetica,sans-Serif" font-size="10.00">+ typeStatic()</text>
</a>
</g>
</g>
<!-- Node1&#45;&gt;Node6 -->
<g id="edge5" class="edge">
<title>Node1&#45;&gt;Node6</title>
<path fill="none" stroke="#63b8ff" d="M604.43,-227.39C607.42,-216.66 610.42,-205.87 613.35,-195.36"/>
<polygon fill="none" stroke="#63b8ff" points="601,-226.64 601.69,-237.21 607.75,-228.52 601,-226.64"/>
</g>
<!-- Node7 -->
<g id="node7" class="node">
<title>Node7</title>
<g id="a_node7"><a xlink:href="classNAV_1_1SppSolutionLogger.html" target="_top" xlink:title="Data Logger for SppSolution observations.">
<polygon fill="white" stroke="#666666" points="719.5,-6 719.5,-195 853.5,-195 853.5,-6 719.5,-6"/>
<text text-anchor="middle" x="786.5" y="-183" font-family="Helvetica,sans-Serif" font-size="10.00">NAV::SppSolutionLogger</text>
<polyline fill="none" stroke="#666666" points="719.5,-176 853.5,-176 "/>
<text text-anchor="middle" x="786.5" y="-164" font-family="Helvetica,sans-Serif" font-size="10.00"> </text>
<polyline fill="none" stroke="#666666" points="719.5,-157 853.5,-157 "/>
<text text-anchor="start" x="727.5" y="-145" font-family="Helvetica,sans-Serif" font-size="10.00">+ flush()</text>
<text text-anchor="start" x="727.5" y="-134" font-family="Helvetica,sans-Serif" font-size="10.00">+ guiConfig()</text>
<text text-anchor="start" x="727.5" y="-123" font-family="Helvetica,sans-Serif" font-size="10.00">+ operator=()</text>
<text text-anchor="start" x="727.5" y="-112" font-family="Helvetica,sans-Serif" font-size="10.00">+ operator=()</text>
<text text-anchor="start" x="727.5" y="-101" font-family="Helvetica,sans-Serif" font-size="10.00">+ restore()</text>
<text text-anchor="start" x="727.5" y="-90" font-family="Helvetica,sans-Serif" font-size="10.00">+ save()</text>
<text text-anchor="start" x="727.5" y="-79" font-family="Helvetica,sans-Serif" font-size="10.00">+ SppSolutionLogger()</text>
<text text-anchor="start" x="727.5" y="-68" font-family="Helvetica,sans-Serif" font-size="10.00">+ SppSolutionLogger()</text>
<text text-anchor="start" x="727.5" y="-57" font-family="Helvetica,sans-Serif" font-size="10.00">+ SppSolutionLogger()</text>
<text text-anchor="start" x="727.5" y="-46" font-family="Helvetica,sans-Serif" font-size="10.00">+ type()</text>
<text text-anchor="start" x="727.5" y="-35" font-family="Helvetica,sans-Serif" font-size="10.00">+ ~SppSolutionLogger()</text>
<text text-anchor="start" x="727.5" y="-24" font-family="Helvetica,sans-Serif" font-size="10.00">+ category()</text>
<text text-anchor="start" x="727.5" y="-13" font-family="Helvetica,sans-Serif" font-size="10.00">+ typeStatic()</text>
</a>
</g>
</g>
<!-- Node1&#45;&gt;Node7 -->
<g id="edge6" class="edge">
<title>Node1&#45;&gt;Node7</title>
<path fill="none" stroke="#63b8ff" d="M625.35,-291.04C651.73,-264.86 683.66,-232.01 710.5,-201 713.42,-197.63 716.35,-194.16 719.29,-190.63"/>
<polygon fill="none" stroke="#63b8ff" points="622.72,-288.72 618.07,-298.24 627.64,-293.7 622.72,-288.72"/>
</g>
<!-- Node8 -->
<g id="node8" class="node">
<title>Node8</title>
<g id="a_node8"><a xlink:href="classNAV_1_1UartDataLogger.html" target="_top" xlink:title="Data Logger for Ublox observations.">
<polygon fill="white" stroke="#666666" points="872,-6 872,-195 993,-195 993,-6 872,-6"/>
<text text-anchor="middle" x="932.5" y="-183" font-family="Helvetica,sans-Serif" font-size="10.00">NAV::UartDataLogger</text>
<polyline fill="none" stroke="#666666" points="872,-176 993,-176 "/>
<text text-anchor="middle" x="932.5" y="-164" font-family="Helvetica,sans-Serif" font-size="10.00"> </text>
<polyline fill="none" stroke="#666666" points="872,-157 993,-157 "/>
<text text-anchor="start" x="880" y="-145" font-family="Helvetica,sans-Serif" font-size="10.00">+ flush()</text>
<text text-anchor="start" x="880" y="-134" font-family="Helvetica,sans-Serif" font-size="10.00">+ guiConfig()</text>
<text text-anchor="start" x="880" y="-123" font-family="Helvetica,sans-Serif" font-size="10.00">+ operator=()</text>
<text text-anchor="start" x="880" y="-112" font-family="Helvetica,sans-Serif" font-size="10.00">+ operator=()</text>
<text text-anchor="start" x="880" y="-101" font-family="Helvetica,sans-Serif" font-size="10.00">+ restore()</text>
<text text-anchor="start" x="880" y="-90" font-family="Helvetica,sans-Serif" font-size="10.00">+ save()</text>
<text text-anchor="start" x="880" y="-79" font-family="Helvetica,sans-Serif" font-size="10.00">+ type()</text>
<text text-anchor="start" x="880" y="-68" font-family="Helvetica,sans-Serif" font-size="10.00">+ UartDataLogger()</text>
<text text-anchor="start" x="880" y="-57" font-family="Helvetica,sans-Serif" font-size="10.00">+ UartDataLogger()</text>
<text text-anchor="start" x="880" y="-46" font-family="Helvetica,sans-Serif" font-size="10.00">+ UartDataLogger()</text>
<text text-anchor="start" x="880" y="-35" font-family="Helvetica,sans-Serif" font-size="10.00">+ ~UartDataLogger()</text>
<text text-anchor="start" x="880" y="-24" font-family="Helvetica,sans-Serif" font-size="10.00">+ category()</text>
<text text-anchor="start" x="880" y="-13" font-family="Helvetica,sans-Serif" font-size="10.00">+ typeStatic()</text>
</a>
</g>
</g>
<!-- Node1&#45;&gt;Node8 -->
<g id="edge7" class="edge">
<title>Node1&#45;&gt;Node8</title>
<path fill="none" stroke="#63b8ff" d="M627.66,-324.63C689.8,-303.05 791.38,-261.53 862.5,-201 865.72,-198.26 868.86,-195.34 871.92,-192.29"/>
<polygon fill="none" stroke="#63b8ff" points="626.37,-321.37 618.04,-327.92 628.63,-327.99 626.37,-321.37"/>
</g>
<!-- Node9 -->
<g id="node9" class="node">
<title>Node9</title>
<g id="a_node9"><a xlink:href="classNAV_1_1VectorNavDataLogger.html" target="_top" xlink:title="Data Logger for VectorNav observations.">
<polygon fill="white" stroke="#666666" points="1011.5,-0.5 1011.5,-200.5 1161.5,-200.5 1161.5,-0.5 1011.5,-0.5"/>
<text text-anchor="middle" x="1086.5" y="-188.5" font-family="Helvetica,sans-Serif" font-size="10.00">NAV::VectorNavDataLogger</text>
<polyline fill="none" stroke="#666666" points="1011.5,-181.5 1161.5,-181.5 "/>
<text text-anchor="middle" x="1086.5" y="-169.5" font-family="Helvetica,sans-Serif" font-size="10.00"> </text>
<polyline fill="none" stroke="#666666" points="1011.5,-162.5 1161.5,-162.5 "/>
<text text-anchor="start" x="1019.5" y="-150.5" font-family="Helvetica,sans-Serif" font-size="10.00">+ flush()</text>
<text text-anchor="start" x="1019.5" y="-139.5" font-family="Helvetica,sans-Serif" font-size="10.00">+ guiConfig()</text>
<text text-anchor="start" x="1019.5" y="-128.5" font-family="Helvetica,sans-Serif" font-size="10.00">+ onCreateLink()</text>
<text text-anchor="start" x="1019.5" y="-117.5" font-family="Helvetica,sans-Serif" font-size="10.00">+ operator=()</text>
<text text-anchor="start" x="1019.5" y="-106.5" font-family="Helvetica,sans-Serif" font-size="10.00">+ operator=()</text>
<text text-anchor="start" x="1019.5" y="-95.5" font-family="Helvetica,sans-Serif" font-size="10.00">+ restore()</text>
<text text-anchor="start" x="1019.5" y="-84.5" font-family="Helvetica,sans-Serif" font-size="10.00">+ save()</text>
<text text-anchor="start" x="1019.5" y="-73.5" font-family="Helvetica,sans-Serif" font-size="10.00">+ type()</text>
<text text-anchor="start" x="1019.5" y="-62.5" font-family="Helvetica,sans-Serif" font-size="10.00">+ VectorNavDataLogger()</text>
<text text-anchor="start" x="1019.5" y="-51.5" font-family="Helvetica,sans-Serif" font-size="10.00">+ VectorNavDataLogger()</text>
<text text-anchor="start" x="1019.5" y="-40.5" font-family="Helvetica,sans-Serif" font-size="10.00">+ VectorNavDataLogger()</text>
<text text-anchor="start" x="1019.5" y="-29.5" font-family="Helvetica,sans-Serif" font-size="10.00">+ ~VectorNavDataLogger()</text>
<text text-anchor="start" x="1019.5" y="-18.5" font-family="Helvetica,sans-Serif" font-size="10.00">+ category()</text>
<text text-anchor="start" x="1019.5" y="-7.5" font-family="Helvetica,sans-Serif" font-size="10.00">+ typeStatic()</text>
</a>
</g>
</g>
<!-- Node1&#45;&gt;Node9 -->
<g id="edge8" class="edge">
<title>Node1&#45;&gt;Node9</title>
<path fill="none" stroke="#63b8ff" d="M628.29,-333.76C714.68,-318.92 883.26,-281.4 1002.5,-201 1005.5,-198.98 1008.45,-196.82 1011.35,-194.55"/>
<polygon fill="none" stroke="#63b8ff" points="627.46,-330.36 618.17,-335.46 628.62,-337.26 627.46,-330.36"/>
</g>
</g>
</svg>
