<?xml version="1.0" encoding="UTF-8" standalone="no"?>
<!DOCTYPE svg PUBLIC "-//W3C//DTD SVG 1.1//EN"
 "http://www.w3.org/Graphics/SVG/1.1/DTD/svg11.dtd">
<!-- Generated by graphviz version 2.43.0 (0)
 -->
<!-- Title: NAV::KeyedMatrix&lt; Scalar, RowKeyType, ColKeyType, Rows, Cols &gt; Pages: 1 -->
<svg width="362pt" height="931pt"
 viewBox="0.00 0.00 361.50 931.00" xmlns="http://www.w3.org/2000/svg" xmlns:xlink="http://www.w3.org/1999/xlink">
<g id="graph0" class="graph" transform="scale(1 1) rotate(0) translate(4 927)">
<title>NAV::KeyedMatrix&lt; Scalar, RowKeyType, ColKeyType, Rows, Cols &gt;</title>
<!-- Node1 -->
<g id="Node000001" class="node">
<title>Node1</title>
<g id="a_Node000001"><a xlink:title="Static sized KeyedMatrix.">
<polygon fill="#999999" stroke="transparent" points="249.5,-266 107.5,-266 107.5,0 249.5,0 249.5,-266"/>
<text text-anchor="start" x="112.5" y="-254" font-family="Helvetica,sans-Serif" font-size="10.00">NAV::KeyedMatrix&lt; Scalar,</text>
<text text-anchor="start" x="112.5" y="-243" font-family="Helvetica,sans-Serif" font-size="10.00"> RowKeyType, ColKeyType,</text>
<text text-anchor="start" x="144.5" y="-232" font-family="Helvetica,sans-Serif" font-size="10.00"> Rows, Cols &gt;</text>
<text text-anchor="start" x="176.5" y="-217" font-family="Helvetica,sans-Serif" font-size="10.00"> </text>
<text text-anchor="start" x="122" y="-202" font-family="Helvetica,sans-Serif" font-size="10.00">+</text>
<text text-anchor="start" x="145.5" y="-202" font-family="Helvetica,sans-Serif" font-size="10.00">getSubMatrix()</text>
<text text-anchor="start" x="122" y="-187" font-family="Helvetica,sans-Serif" font-size="10.00">+</text>
<text text-anchor="start" x="145.5" y="-187" font-family="Helvetica,sans-Serif" font-size="10.00">inverse()</text>
<text text-anchor="start" x="122" y="-172" font-family="Helvetica,sans-Serif" font-size="10.00">+</text>
<text text-anchor="start" x="145.5" y="-172" font-family="Helvetica,sans-Serif" font-size="10.00">KeyedMatrix()</text>
<text text-anchor="start" x="122" y="-157" font-family="Helvetica,sans-Serif" font-size="10.00">+</text>
<text text-anchor="start" x="145.5" y="-157" font-family="Helvetica,sans-Serif" font-size="10.00">KeyedMatrix()</text>
<text text-anchor="start" x="122" y="-142" font-family="Helvetica,sans-Serif" font-size="10.00">+</text>
<text text-anchor="start" x="145.5" y="-142" font-family="Helvetica,sans-Serif" font-size="10.00">KeyedMatrix()</text>
<text text-anchor="start" x="122" y="-127" font-family="Helvetica,sans-Serif" font-size="10.00">+</text>
<text text-anchor="start" x="145.5" y="-127" font-family="Helvetica,sans-Serif" font-size="10.00">KeyedMatrix()</text>
<text text-anchor="start" x="122" y="-112" font-family="Helvetica,sans-Serif" font-size="10.00">+</text>
<text text-anchor="start" x="145.5" y="-112" font-family="Helvetica,sans-Serif" font-size="10.00">KeyedMatrix()</text>
<text text-anchor="start" x="122" y="-97" font-family="Helvetica,sans-Serif" font-size="10.00">+</text>
<text text-anchor="start" x="145.5" y="-97" font-family="Helvetica,sans-Serif" font-size="10.00">KeyedMatrix()</text>
<text text-anchor="start" x="122" y="-82" font-family="Helvetica,sans-Serif" font-size="10.00">+</text>
<text text-anchor="start" x="145.5" y="-82" font-family="Helvetica,sans-Serif" font-size="10.00">operator=()</text>
<text text-anchor="start" x="122" y="-67" font-family="Helvetica,sans-Serif" font-size="10.00">+</text>
<text text-anchor="start" x="145.5" y="-67" font-family="Helvetica,sans-Serif" font-size="10.00">operator=()</text>
<text text-anchor="start" x="122" y="-52" font-family="Helvetica,sans-Serif" font-size="10.00">+</text>
<text text-anchor="start" x="145.5" y="-52" font-family="Helvetica,sans-Serif" font-size="10.00">operator=()</text>
<text text-anchor="start" x="122" y="-37" font-family="Helvetica,sans-Serif" font-size="10.00">+</text>
<text text-anchor="start" x="145.5" y="-37" font-family="Helvetica,sans-Serif" font-size="10.00">operator=()</text>
<text text-anchor="start" x="122" y="-22" font-family="Helvetica,sans-Serif" font-size="10.00">+</text>
<text text-anchor="start" x="145.5" y="-22" font-family="Helvetica,sans-Serif" font-size="10.00">transposed()</text>
<text text-anchor="start" x="122" y="-7" font-family="Helvetica,sans-Serif" font-size="10.00">+</text>
<text text-anchor="start" x="145.5" y="-7" font-family="Helvetica,sans-Serif" font-size="10.00">~KeyedMatrix()</text>
<polygon fill="#666666" stroke="#666666" points="107.5,-227 107.5,-227 249.5,-227 249.5,-227 107.5,-227"/>
<polygon fill="#666666" stroke="#666666" points="107.5,-212 107.5,-212 249.5,-212 249.5,-212 107.5,-212"/>
<polygon fill="none" stroke="#666666" points="107.5,0 107.5,-266 249.5,-266 249.5,0 107.5,0"/>
</a>
</g>
</g>
<!-- Node2 -->
<g id="Node000002" class="node">
<title>Node2</title>
<g id="a_Node000002"><a xlink:href="classNAV_1_1internal_1_1KeyedMatrixBase.html" target="_top" xlink:title="Class to inherit common methods for static and dynamic sized matrices.">
<polygon fill="white" stroke="transparent" points="251.5,-523 105.5,-523 105.5,-302 251.5,-302 251.5,-523"/>
<text text-anchor="start" x="110.5" y="-510.5" font-family="Helvetica,sans-Serif" font-size="10.00">NAV::internal::KeyedMatrix</text>
<text text-anchor="start" x="110.5" y="-499.5" font-family="Helvetica,sans-Serif" font-size="10.00">Base&lt; Scalar, RowKeyType,</text>
<text text-anchor="start" x="113.5" y="-488.5" font-family="Helvetica,sans-Serif" font-size="10.00"> ColKeyType, Rows, Cols &gt;</text>
<text text-anchor="start" x="176.5" y="-473.5" font-family="Helvetica,sans-Serif" font-size="10.00"> </text>
<text text-anchor="start" x="123" y="-458.5" font-family="Helvetica,sans-Serif" font-size="10.00">+</text>
<text text-anchor="start" x="149.5" y="-458.5" font-family="Helvetica,sans-Serif" font-size="10.00">block()</text>
<text text-anchor="start" x="123" y="-443.5" font-family="Helvetica,sans-Serif" font-size="10.00">+</text>
<text text-anchor="start" x="149.5" y="-443.5" font-family="Helvetica,sans-Serif" font-size="10.00">block()</text>
<text text-anchor="start" x="123" y="-428.5" font-family="Helvetica,sans-Serif" font-size="10.00">+</text>
<text text-anchor="start" x="149.5" y="-428.5" font-family="Helvetica,sans-Serif" font-size="10.00">block()</text>
<text text-anchor="start" x="123" y="-413.5" font-family="Helvetica,sans-Serif" font-size="10.00">+</text>
<text text-anchor="start" x="149.5" y="-413.5" font-family="Helvetica,sans-Serif" font-size="10.00">block()</text>
<text text-anchor="start" x="123" y="-398.5" font-family="Helvetica,sans-Serif" font-size="10.00">+</text>
<text text-anchor="start" x="149.5" y="-398.5" font-family="Helvetica,sans-Serif" font-size="10.00">block()</text>
<text text-anchor="start" x="123" y="-383.5" font-family="Helvetica,sans-Serif" font-size="10.00">+</text>
<text text-anchor="start" x="149.5" y="-383.5" font-family="Helvetica,sans-Serif" font-size="10.00">block()</text>
<text text-anchor="start" x="123" y="-368.5" font-family="Helvetica,sans-Serif" font-size="10.00">+</text>
<text text-anchor="start" x="149.5" y="-368.5" font-family="Helvetica,sans-Serif" font-size="10.00">block()</text>
<text text-anchor="start" x="123" y="-353.5" font-family="Helvetica,sans-Serif" font-size="10.00">+</text>
<text text-anchor="start" x="149.5" y="-353.5" font-family="Helvetica,sans-Serif" font-size="10.00">block()</text>
<text text-anchor="start" x="123" y="-338.5" font-family="Helvetica,sans-Serif" font-size="10.00">+</text>
<text text-anchor="start" x="149.5" y="-338.5" font-family="Helvetica,sans-Serif" font-size="10.00">block()</text>
<text text-anchor="start" x="123" y="-323.5" font-family="Helvetica,sans-Serif" font-size="10.00">+</text>
<text text-anchor="start" x="149.5" y="-323.5" font-family="Helvetica,sans-Serif" font-size="10.00">block()</text>
<text text-anchor="start" x="149.5" y="-308.5" font-family="Helvetica,sans-Serif" font-size="10.00">and 48 more...</text>
<polygon fill="#666666" stroke="#666666" points="105.5,-483.5 105.5,-483.5 251.5,-483.5 251.5,-483.5 105.5,-483.5"/>
<polygon fill="#666666" stroke="#666666" points="105.5,-468.5 105.5,-468.5 251.5,-468.5 251.5,-468.5 105.5,-468.5"/>
<polygon fill="none" stroke="#666666" points="105.5,-302 105.5,-523 251.5,-523 251.5,-302 105.5,-302"/>
</a>
</g>
</g>
<!-- Node2&#45;&gt;Node1 -->
<g id="edge1_Node000001_Node000002" class="edge">
<title>Node2&#45;&gt;Node1</title>
<g id="a_edge1_Node000001_Node000002"><a xlink:title=" ">
<path fill="none" stroke="#63b8ff" d="M178.5,-291.65C178.5,-283.25 178.5,-274.77 178.5,-266.32"/>
<polygon fill="none" stroke="#63b8ff" points="175,-291.82 178.5,-301.82 182,-291.82 175,-291.82"/>
</a>
</g>
</g>
<!-- Node3 -->
<g id="Node000003" class="node">
<title>Node3</title>
<g id="a_Node000003"><a xlink:href="classNAV_1_1internal_1_1KeyedMatrixRows.html" target="_top" xlink:title="Base class for Keyed matrices with multiple rows of static size.">
<polygon fill="white" stroke="transparent" points="172,-630 23,-630 23,-559 172,-559 172,-630"/>
<text text-anchor="start" x="28.5" y="-617.5" font-family="Helvetica,sans-Serif" font-size="10.00">NAV::internal::KeyedMatrix</text>
<text text-anchor="start" x="28.5" y="-606.5" font-family="Helvetica,sans-Serif" font-size="10.00">Rows&lt; Scalar, RowKeyType,</text>
<text text-anchor="start" x="64" y="-595.5" font-family="Helvetica,sans-Serif" font-size="10.00"> Rows, Cols &gt;</text>
<text text-anchor="start" x="96" y="-580.5" font-family="Helvetica,sans-Serif" font-size="10.00"> </text>
<text text-anchor="start" x="96" y="-565.5" font-family="Helvetica,sans-Serif" font-size="10.00"> </text>
<polygon fill="#666666" stroke="#666666" points="23.5,-590.5 23.5,-590.5 172.5,-590.5 172.5,-590.5 23.5,-590.5"/>
<polygon fill="#666666" stroke="#666666" points="23.5,-575.5 23.5,-575.5 172.5,-575.5 172.5,-575.5 23.5,-575.5"/>
<polygon fill="none" stroke="#666666" points="23,-559 23,-630 172,-630 172,-559 23,-559"/>
</a>
</g>
</g>
<!-- Node3&#45;&gt;Node2 -->
<g id="edge2_Node000002_Node000003" class="edge">
<title>Node3&#45;&gt;Node2</title>
<g id="a_edge2_Node000002_Node000003"><a xlink:title=" ">
<path fill="none" stroke="#63b8ff" d="M117.32,-549.46C121.03,-541.2 125.06,-532.25 129.22,-523"/>
<polygon fill="none" stroke="#63b8ff" points="114.03,-548.24 113.12,-558.79 120.41,-551.11 114.03,-548.24"/>
</a>
</g>
</g>
<!-- Node4 -->
<g id="Node000004" class="node">
<title>Node4</title>
<g id="a_Node000004"><a xlink:href="classNAV_1_1internal_1_1KeyedMatrixRowsBase.html" target="_top" xlink:title="Base class for Keyed matrices with multiple rows.">
<polygon fill="white" stroke="transparent" points="173,-827 0,-827 0,-666 173,-666 173,-827"/>
<text text-anchor="start" x="5.5" y="-814.5" font-family="Helvetica,sans-Serif" font-size="10.00">NAV::internal::KeyedMatrix</text>
<text text-anchor="start" x="5.5" y="-803.5" font-family="Helvetica,sans-Serif" font-size="10.00">RowsBase&lt; Scalar, RowKeyType,</text>
<text text-anchor="start" x="53" y="-792.5" font-family="Helvetica,sans-Serif" font-size="10.00"> Rows, Cols &gt;</text>
<text text-anchor="start" x="24" y="-777.5" font-family="Helvetica,sans-Serif" font-size="10.00">#</text>
<text text-anchor="start" x="56.5" y="-777.5" font-family="Helvetica,sans-Serif" font-size="10.00">rowIndices</text>
<text text-anchor="start" x="24" y="-762.5" font-family="Helvetica,sans-Serif" font-size="10.00">#</text>
<text text-anchor="start" x="56.5" y="-762.5" font-family="Helvetica,sans-Serif" font-size="10.00">rowKeysVector</text>
<text text-anchor="start" x="24" y="-747.5" font-family="Helvetica,sans-Serif" font-size="10.00">#</text>
<text text-anchor="start" x="56.5" y="-747.5" font-family="Helvetica,sans-Serif" font-size="10.00">rowSlice</text>
<text text-anchor="start" x="24" y="-732.5" font-family="Helvetica,sans-Serif" font-size="10.00">+</text>
<text text-anchor="start" x="56.5" y="-732.5" font-family="Helvetica,sans-Serif" font-size="10.00">hasAnyRows()</text>
<text text-anchor="start" x="24" y="-717.5" font-family="Helvetica,sans-Serif" font-size="10.00">+</text>
<text text-anchor="start" x="56.5" y="-717.5" font-family="Helvetica,sans-Serif" font-size="10.00">hasRow()</text>
<text text-anchor="start" x="24" y="-702.5" font-family="Helvetica,sans-Serif" font-size="10.00">+</text>
<text text-anchor="start" x="56.5" y="-702.5" font-family="Helvetica,sans-Serif" font-size="10.00">hasRows()</text>
<text text-anchor="start" x="24" y="-687.5" font-family="Helvetica,sans-Serif" font-size="10.00">+</text>
<text text-anchor="start" x="56.5" y="-687.5" font-family="Helvetica,sans-Serif" font-size="10.00">rowKeys()</text>
<text text-anchor="start" x="24" y="-672.5" font-family="Helvetica,sans-Serif" font-size="10.00">+</text>
<text text-anchor="start" x="56.5" y="-672.5" font-family="Helvetica,sans-Serif" font-size="10.00">rows()</text>
<polygon fill="#666666" stroke="#666666" points="0.5,-787.5 0.5,-787.5 173.5,-787.5 173.5,-787.5 0.5,-787.5"/>
<polygon fill="#666666" stroke="#666666" points="0.5,-742.5 0.5,-742.5 54.5,-742.5 54.5,-742.5 0.5,-742.5"/>
<polygon fill="#666666" stroke="#666666" points="54.5,-742.5 54.5,-742.5 173.5,-742.5 173.5,-742.5 54.5,-742.5"/>
<polygon fill="none" stroke="#666666" points="0,-666 0,-827 173,-827 173,-666 0,-666"/>
</a>
</g>
</g>
<!-- Node4&#45;&gt;Node3 -->
<g id="edge3_Node000003_Node000004" class="edge">
<title>Node4&#45;&gt;Node3</title>
<g id="a_edge3_Node000003_Node000004"><a xlink:title=" ">
<path fill="none" stroke="#63b8ff" d="M93.1,-655.52C93.75,-646.62 94.38,-638.01 94.95,-630.22"/>
<polygon fill="none" stroke="#63b8ff" points="89.6,-655.44 92.35,-665.67 96.58,-655.95 89.6,-655.44"/>
</a>
</g>
</g>
<!-- Node5 -->
<g id="Node000005" class="node">
<title>Node5</title>
<g id="a_Node000005"><a xlink:href="classNAV_1_1internal_1_1KeyedMatrixStorage.html" target="_top" xlink:title="KeyedMatrix storage class.">
<polygon fill="white" stroke="transparent" points="259.5,-923 99.5,-923 99.5,-863 259.5,-863 259.5,-923"/>
<text text-anchor="start" x="104.5" y="-911" font-family="Helvetica,sans-Serif" font-size="10.00">NAV::internal::KeyedMatrix</text>
<text text-anchor="start" x="104.5" y="-900" font-family="Helvetica,sans-Serif" font-size="10.00">Storage&lt; Scalar, Rows, Cols &gt;</text>
<text text-anchor="start" x="130" y="-885" font-family="Helvetica,sans-Serif" font-size="10.00">#</text>
<text text-anchor="start" x="169.5" y="-885" font-family="Helvetica,sans-Serif" font-size="10.00">matrix</text>
<text text-anchor="start" x="177.5" y="-870" font-family="Helvetica,sans-Serif" font-size="10.00"> </text>
<polygon fill="#666666" stroke="#666666" points="99.5,-895 99.5,-895 259.5,-895 259.5,-895 99.5,-895"/>
<polygon fill="#666666" stroke="#666666" points="99.5,-880 99.5,-880 167.5,-880 167.5,-880 99.5,-880"/>
<polygon fill="#666666" stroke="#666666" points="167.5,-880 167.5,-880 259.5,-880 259.5,-880 167.5,-880"/>
<polygon fill="none" stroke="#666666" points="99.5,-863 99.5,-923 259.5,-923 259.5,-863 99.5,-863"/>
</a>
</g>
</g>
<!-- Node5&#45;&gt;Node4 -->
<g id="edge4_Node000004_Node000005" class="edge">
<title>Node5&#45;&gt;Node4</title>
<g id="a_edge4_Node000004_Node000005"><a xlink:title=" ">
<path fill="none" stroke="#63b8ff" d="M155.24,-854.31C149.82,-845.89 143.87,-836.65 137.82,-827.24"/>
<polygon fill="none" stroke="#63b8ff" points="152.32,-856.24 160.68,-862.76 158.21,-852.46 152.32,-856.24"/>
</a>
</g>
</g>
<!-- Node7 -->
<g id="Node000007" class="node">
<title>Node7</title>
<g id="a_Node000007"><a xlink:href="classNAV_1_1internal_1_1KeyedMatrixColsBase.html" target="_top" xlink:title="Base class for Keyed matrices with multiple columns.">
<polygon fill="white" stroke="transparent" points="353.5,-827 191.5,-827 191.5,-666 353.5,-666 353.5,-827"/>
<text text-anchor="start" x="196.5" y="-814.5" font-family="Helvetica,sans-Serif" font-size="10.00">NAV::internal::KeyedMatrix</text>
<text text-anchor="start" x="196.5" y="-803.5" font-family="Helvetica,sans-Serif" font-size="10.00">ColsBase&lt; Scalar, ColKeyType,</text>
<text text-anchor="start" x="238.5" y="-792.5" font-family="Helvetica,sans-Serif" font-size="10.00"> Rows, Cols &gt;</text>
<text text-anchor="start" x="213.5" y="-777.5" font-family="Helvetica,sans-Serif" font-size="10.00">#</text>
<text text-anchor="start" x="244.5" y="-777.5" font-family="Helvetica,sans-Serif" font-size="10.00">colIndices</text>
<text text-anchor="start" x="213.5" y="-762.5" font-family="Helvetica,sans-Serif" font-size="10.00">#</text>
<text text-anchor="start" x="244.5" y="-762.5" font-family="Helvetica,sans-Serif" font-size="10.00">colKeysVector</text>
<text text-anchor="start" x="213.5" y="-747.5" font-family="Helvetica,sans-Serif" font-size="10.00">#</text>
<text text-anchor="start" x="244.5" y="-747.5" font-family="Helvetica,sans-Serif" font-size="10.00">colSlice</text>
<text text-anchor="start" x="213.5" y="-732.5" font-family="Helvetica,sans-Serif" font-size="10.00">+</text>
<text text-anchor="start" x="244.5" y="-732.5" font-family="Helvetica,sans-Serif" font-size="10.00">colKeys()</text>
<text text-anchor="start" x="213.5" y="-717.5" font-family="Helvetica,sans-Serif" font-size="10.00">+</text>
<text text-anchor="start" x="244.5" y="-717.5" font-family="Helvetica,sans-Serif" font-size="10.00">cols()</text>
<text text-anchor="start" x="213.5" y="-702.5" font-family="Helvetica,sans-Serif" font-size="10.00">+</text>
<text text-anchor="start" x="244.5" y="-702.5" font-family="Helvetica,sans-Serif" font-size="10.00">hasAnyCols()</text>
<text text-anchor="start" x="213.5" y="-687.5" font-family="Helvetica,sans-Serif" font-size="10.00">+</text>
<text text-anchor="start" x="244.5" y="-687.5" font-family="Helvetica,sans-Serif" font-size="10.00">hasCol()</text>
<text text-anchor="start" x="213.5" y="-672.5" font-family="Helvetica,sans-Serif" font-size="10.00">+</text>
<text text-anchor="start" x="244.5" y="-672.5" font-family="Helvetica,sans-Serif" font-size="10.00">hasCols()</text>
<polygon fill="#666666" stroke="#666666" points="191.5,-787.5 191.5,-787.5 353.5,-787.5 353.5,-787.5 191.5,-787.5"/>
<polygon fill="#666666" stroke="#666666" points="191.5,-742.5 191.5,-742.5 242.5,-742.5 242.5,-742.5 191.5,-742.5"/>
<polygon fill="#666666" stroke="#666666" points="242.5,-742.5 242.5,-742.5 353.5,-742.5 353.5,-742.5 242.5,-742.5"/>
<polygon fill="none" stroke="#666666" points="191.5,-666 191.5,-827 353.5,-827 353.5,-666 191.5,-666"/>
</a>
</g>
</g>
<!-- Node5&#45;&gt;Node7 -->
<g id="edge7_Node000007_Node000005" class="edge">
<title>Node5&#45;&gt;Node7</title>
<g id="a_edge7_Node000007_Node000005"><a xlink:title=" ">
<path fill="none" stroke="#63b8ff" d="M203.76,-854.31C209.18,-845.89 215.13,-836.65 221.18,-827.24"/>
<polygon fill="none" stroke="#63b8ff" points="200.79,-852.46 198.32,-862.76 206.68,-856.24 200.79,-852.46"/>
</a>
</g>
</g>
<!-- Node6 -->
<g id="Node000006" class="node">
<title>Node6</title>
<g id="a_Node000006"><a xlink:href="classNAV_1_1internal_1_1KeyedMatrixCols.html" target="_top" xlink:title="Base class for Keyed matrices with multiple columns of static size.">
<polygon fill="white" stroke="transparent" points="337,-630 196,-630 196,-559 337,-559 337,-630"/>
<text text-anchor="start" x="201.5" y="-617.5" font-family="Helvetica,sans-Serif" font-size="10.00">NAV::internal::KeyedMatrix</text>
<text text-anchor="start" x="201.5" y="-606.5" font-family="Helvetica,sans-Serif" font-size="10.00">Cols&lt; Scalar, ColKeyType,</text>
<text text-anchor="start" x="233" y="-595.5" font-family="Helvetica,sans-Serif" font-size="10.00"> Rows, Cols &gt;</text>
<text text-anchor="start" x="265" y="-580.5" font-family="Helvetica,sans-Serif" font-size="10.00"> </text>
<text text-anchor="start" x="265" y="-565.5" font-family="Helvetica,sans-Serif" font-size="10.00"> </text>
<polygon fill="#666666" stroke="#666666" points="196.5,-590.5 196.5,-590.5 337.5,-590.5 337.5,-590.5 196.5,-590.5"/>
<polygon fill="#666666" stroke="#666666" points="196.5,-575.5 196.5,-575.5 337.5,-575.5 337.5,-575.5 196.5,-575.5"/>
<polygon fill="none" stroke="#666666" points="196,-559 196,-630 337,-630 337,-559 196,-559"/>
</a>
</g>
</g>
<!-- Node6&#45;&gt;Node2 -->
<g id="edge5_Node000002_Node000006" class="edge">
<title>Node6&#45;&gt;Node2</title>
<g id="a_edge5_Node000002_Node000006"><a xlink:title=" ">
<path fill="none" stroke="#63b8ff" d="M245.1,-549.73C241.03,-541.4 236.6,-532.35 232.04,-523"/>
<polygon fill="none" stroke="#63b8ff" points="242,-551.35 249.53,-558.79 248.28,-548.27 242,-551.35"/>
</a>
</g>
</g>
<!-- Node7&#45;&gt;Node6 -->
<g id="edge6_Node000006_Node000007" class="edge">
<title>Node7&#45;&gt;Node6</title>
<g id="a_edge6_Node000006_Node000007"><a xlink:title=" ">
<path fill="none" stroke="#63b8ff" d="M268.9,-655.52C268.54,-646.62 268.2,-638.01 267.89,-630.22"/>
<polygon fill="none" stroke="#63b8ff" points="265.41,-655.82 269.31,-665.67 272.4,-655.54 265.41,-655.82"/>
</a>
</g>
</g>
</g>
</svg>
