<?xml version="1.0" encoding="UTF-8" standalone="no"?>
<!DOCTYPE svg PUBLIC "-//W3C//DTD SVG 1.1//EN"
 "http://www.w3.org/Graphics/SVG/1.1/DTD/svg11.dtd">
<!-- Generated by graphviz version 2.43.0 (0)
 -->
<!-- Title: NAV::UartSensor Pages: 1 -->
<svg width="494pt" height="413pt"
 viewBox="0.00 0.00 493.50 413.00" xmlns="http://www.w3.org/2000/svg" xmlns:xlink="http://www.w3.org/1999/xlink">
<g id="graph0" class="graph" transform="scale(1 1) rotate(0) translate(4 409)">
<title>NAV::UartSensor</title>
<!-- Node1 -->
<g id="node1" class="node">
<title>Node1</title>
<g id="a_node1"><a xlink:title="Abstract Uart Sensor Class.">
<polygon fill="#999999" stroke="#666666" points="164,-237.5 164,-404.5 294,-404.5 294,-237.5 164,-237.5"/>
<text text-anchor="middle" x="229" y="-392.5" font-family="Helvetica,sans-Serif" font-size="10.00">NAV::UartSensor</text>
<polyline fill="none" stroke="#666666" points="164,-385.5 294,-385.5 "/>
<text text-anchor="start" x="172" y="-373.5" font-family="Helvetica,sans-Serif" font-size="10.00"># _selectedBaudrate</text>
<text text-anchor="start" x="172" y="-362.5" font-family="Helvetica,sans-Serif" font-size="10.00"># _sensorPort</text>
<polyline fill="none" stroke="#666666" points="164,-355.5 294,-355.5 "/>
<text text-anchor="start" x="172" y="-343.5" font-family="Helvetica,sans-Serif" font-size="10.00">+ operator=()</text>
<text text-anchor="start" x="172" y="-332.5" font-family="Helvetica,sans-Serif" font-size="10.00">+ operator=()</text>
<text text-anchor="start" x="172" y="-321.5" font-family="Helvetica,sans-Serif" font-size="10.00">+ UartSensor()</text>
<text text-anchor="start" x="172" y="-310.5" font-family="Helvetica,sans-Serif" font-size="10.00">+ UartSensor()</text>
<text text-anchor="start" x="172" y="-299.5" font-family="Helvetica,sans-Serif" font-size="10.00">+ ~UartSensor()</text>
<text text-anchor="start" x="172" y="-288.5" font-family="Helvetica,sans-Serif" font-size="10.00"># restore()</text>
<text text-anchor="start" x="172" y="-277.5" font-family="Helvetica,sans-Serif" font-size="10.00"># save()</text>
<text text-anchor="start" x="172" y="-266.5" font-family="Helvetica,sans-Serif" font-size="10.00"># sensorBaudrate()</text>
<text text-anchor="start" x="172" y="-255.5" font-family="Helvetica,sans-Serif" font-size="10.00"># UartSensor()</text>
<text text-anchor="start" x="172" y="-244.5" font-family="Helvetica,sans-Serif" font-size="10.00"># baudrate2Selection()</text>
</a>
</g>
</g>
<!-- Node2 -->
<g id="node2" class="node">
<title>Node2</title>
<g id="a_node2"><a xlink:href="classNAV_1_1EmlidSensor.html" target="_top" xlink:title="Emlid Sensor Class.">
<polygon fill="white" stroke="#666666" points="0,-6 0,-195 104,-195 104,-6 0,-6"/>
<text text-anchor="middle" x="52" y="-183" font-family="Helvetica,sans-Serif" font-size="10.00">NAV::EmlidSensor</text>
<polyline fill="none" stroke="#666666" points="0,-176 104,-176 "/>
<text text-anchor="middle" x="52" y="-164" font-family="Helvetica,sans-Serif" font-size="10.00"> </text>
<polyline fill="none" stroke="#666666" points="0,-157 104,-157 "/>
<text text-anchor="start" x="8" y="-145" font-family="Helvetica,sans-Serif" font-size="10.00">+ EmlidSensor()</text>
<text text-anchor="start" x="8" y="-134" font-family="Helvetica,sans-Serif" font-size="10.00">+ EmlidSensor()</text>
<text text-anchor="start" x="8" y="-123" font-family="Helvetica,sans-Serif" font-size="10.00">+ EmlidSensor()</text>
<text text-anchor="start" x="8" y="-112" font-family="Helvetica,sans-Serif" font-size="10.00">+ guiConfig()</text>
<text text-anchor="start" x="8" y="-101" font-family="Helvetica,sans-Serif" font-size="10.00">+ operator=()</text>
<text text-anchor="start" x="8" y="-90" font-family="Helvetica,sans-Serif" font-size="10.00">+ operator=()</text>
<text text-anchor="start" x="8" y="-79" font-family="Helvetica,sans-Serif" font-size="10.00">+ resetNode()</text>
<text text-anchor="start" x="8" y="-68" font-family="Helvetica,sans-Serif" font-size="10.00">+ restore()</text>
<text text-anchor="start" x="8" y="-57" font-family="Helvetica,sans-Serif" font-size="10.00">+ save()</text>
<text text-anchor="start" x="8" y="-46" font-family="Helvetica,sans-Serif" font-size="10.00">+ type()</text>
<text text-anchor="start" x="8" y="-35" font-family="Helvetica,sans-Serif" font-size="10.00">+ ~EmlidSensor()</text>
<text text-anchor="start" x="8" y="-24" font-family="Helvetica,sans-Serif" font-size="10.00">+ category()</text>
<text text-anchor="start" x="8" y="-13" font-family="Helvetica,sans-Serif" font-size="10.00">+ typeStatic()</text>
</a>
</g>
</g>
<!-- Node1&#45;&gt;Node2 -->
<g id="edge1" class="edge">
<title>Node1&#45;&gt;Node2</title>
<path fill="none" stroke="#63b8ff" d="M156.97,-251.27C141.75,-235.37 126.29,-218.08 113,-201 110.01,-197.16 107.05,-193.17 104.13,-189.08"/>
<polygon fill="none" stroke="#63b8ff" points="154.47,-253.72 163.94,-258.48 159.5,-248.86 154.47,-253.72"/>
</g>
<!-- Node3 -->
<g id="node3" class="node">
<title>Node3</title>
<g id="a_node3"><a xlink:href="classNAV_1_1KvhSensor.html" target="_top" xlink:title="KVH Sensor Class.">
<polygon fill="white" stroke="#666666" points="122.5,-6 122.5,-195 217.5,-195 217.5,-6 122.5,-6"/>
<text text-anchor="middle" x="170" y="-183" font-family="Helvetica,sans-Serif" font-size="10.00">NAV::KvhSensor</text>
<polyline fill="none" stroke="#666666" points="122.5,-176 217.5,-176 "/>
<text text-anchor="middle" x="170" y="-164" font-family="Helvetica,sans-Serif" font-size="10.00"> </text>
<polyline fill="none" stroke="#666666" points="122.5,-157 217.5,-157 "/>
<text text-anchor="start" x="130.5" y="-145" font-family="Helvetica,sans-Serif" font-size="10.00">+ guiConfig()</text>
<text text-anchor="start" x="130.5" y="-134" font-family="Helvetica,sans-Serif" font-size="10.00">+ KvhSensor()</text>
<text text-anchor="start" x="130.5" y="-123" font-family="Helvetica,sans-Serif" font-size="10.00">+ KvhSensor()</text>
<text text-anchor="start" x="130.5" y="-112" font-family="Helvetica,sans-Serif" font-size="10.00">+ KvhSensor()</text>
<text text-anchor="start" x="130.5" y="-101" font-family="Helvetica,sans-Serif" font-size="10.00">+ operator=()</text>
<text text-anchor="start" x="130.5" y="-90" font-family="Helvetica,sans-Serif" font-size="10.00">+ operator=()</text>
<text text-anchor="start" x="130.5" y="-79" font-family="Helvetica,sans-Serif" font-size="10.00">+ resetNode()</text>
<text text-anchor="start" x="130.5" y="-68" font-family="Helvetica,sans-Serif" font-size="10.00">+ restore()</text>
<text text-anchor="start" x="130.5" y="-57" font-family="Helvetica,sans-Serif" font-size="10.00">+ save()</text>
<text text-anchor="start" x="130.5" y="-46" font-family="Helvetica,sans-Serif" font-size="10.00">+ type()</text>
<text text-anchor="start" x="130.5" y="-35" font-family="Helvetica,sans-Serif" font-size="10.00">+ ~KvhSensor()</text>
<text text-anchor="start" x="130.5" y="-24" font-family="Helvetica,sans-Serif" font-size="10.00">+ category()</text>
<text text-anchor="start" x="130.5" y="-13" font-family="Helvetica,sans-Serif" font-size="10.00">+ typeStatic()</text>
</a>
</g>
</g>
<!-- Node1&#45;&gt;Node3 -->
<g id="edge2" class="edge">
<title>Node1&#45;&gt;Node3</title>
<path fill="none" stroke="#63b8ff" d="M204.06,-227.62C201.16,-216.9 198.2,-205.95 195.3,-195.21"/>
<polygon fill="none" stroke="#63b8ff" points="200.71,-228.65 206.69,-237.39 207.47,-226.83 200.71,-228.65"/>
</g>
<!-- Node4 -->
<g id="node4" class="node">
<title>Node4</title>
<g id="a_node4"><a xlink:href="classNAV_1_1UbloxSensor.html" target="_top" xlink:title="Ublox Sensor Class.">
<polygon fill="white" stroke="#666666" points="235.5,-6 235.5,-195 340.5,-195 340.5,-6 235.5,-6"/>
<text text-anchor="middle" x="288" y="-183" font-family="Helvetica,sans-Serif" font-size="10.00">NAV::UbloxSensor</text>
<polyline fill="none" stroke="#666666" points="235.5,-176 340.5,-176 "/>
<text text-anchor="middle" x="288" y="-164" font-family="Helvetica,sans-Serif" font-size="10.00"> </text>
<polyline fill="none" stroke="#666666" points="235.5,-157 340.5,-157 "/>
<text text-anchor="start" x="243.5" y="-145" font-family="Helvetica,sans-Serif" font-size="10.00">+ guiConfig()</text>
<text text-anchor="start" x="243.5" y="-134" font-family="Helvetica,sans-Serif" font-size="10.00">+ operator=()</text>
<text text-anchor="start" x="243.5" y="-123" font-family="Helvetica,sans-Serif" font-size="10.00">+ operator=()</text>
<text text-anchor="start" x="243.5" y="-112" font-family="Helvetica,sans-Serif" font-size="10.00">+ resetNode()</text>
<text text-anchor="start" x="243.5" y="-101" font-family="Helvetica,sans-Serif" font-size="10.00">+ restore()</text>
<text text-anchor="start" x="243.5" y="-90" font-family="Helvetica,sans-Serif" font-size="10.00">+ save()</text>
<text text-anchor="start" x="243.5" y="-79" font-family="Helvetica,sans-Serif" font-size="10.00">+ type()</text>
<text text-anchor="start" x="243.5" y="-68" font-family="Helvetica,sans-Serif" font-size="10.00">+ UbloxSensor()</text>
<text text-anchor="start" x="243.5" y="-57" font-family="Helvetica,sans-Serif" font-size="10.00">+ UbloxSensor()</text>
<text text-anchor="start" x="243.5" y="-46" font-family="Helvetica,sans-Serif" font-size="10.00">+ UbloxSensor()</text>
<text text-anchor="start" x="243.5" y="-35" font-family="Helvetica,sans-Serif" font-size="10.00">+ ~UbloxSensor()</text>
<text text-anchor="start" x="243.5" y="-24" font-family="Helvetica,sans-Serif" font-size="10.00">+ category()</text>
<text text-anchor="start" x="243.5" y="-13" font-family="Helvetica,sans-Serif" font-size="10.00">+ typeStatic()</text>
</a>
</g>
</g>
<!-- Node1&#45;&gt;Node4 -->
<g id="edge3" class="edge">
<title>Node1&#45;&gt;Node4</title>
<path fill="none" stroke="#63b8ff" d="M253.94,-227.62C256.84,-216.9 259.8,-205.95 262.7,-195.21"/>
<polygon fill="none" stroke="#63b8ff" points="250.53,-226.83 251.31,-237.39 257.29,-228.65 250.53,-226.83"/>
</g>
<!-- Node5 -->
<g id="node5" class="node">
<title>Node5</title>
<g id="a_node5"><a xlink:href="classNAV_1_1VectorNavSensor.html" target="_top" xlink:title="Vector Nav Sensor Class.">
<polygon fill="white" stroke="#666666" points="358.5,-0.5 358.5,-200.5 485.5,-200.5 485.5,-0.5 358.5,-0.5"/>
<text text-anchor="middle" x="422" y="-188.5" font-family="Helvetica,sans-Serif" font-size="10.00">NAV::VectorNavSensor</text>
<polyline fill="none" stroke="#666666" points="358.5,-181.5 485.5,-181.5 "/>
<text text-anchor="start" x="366.5" y="-169.5" font-family="Helvetica,sans-Serif" font-size="10.00">+ lastGnssTime</text>
<text text-anchor="start" x="366.5" y="-158.5" font-family="Helvetica,sans-Serif" font-size="10.00">+ timeSinceStartup</text>
<polyline fill="none" stroke="#666666" points="358.5,-151.5 485.5,-151.5 "/>
<text text-anchor="start" x="366.5" y="-139.5" font-family="Helvetica,sans-Serif" font-size="10.00">+ guiConfig()</text>
<text text-anchor="start" x="366.5" y="-128.5" font-family="Helvetica,sans-Serif" font-size="10.00">+ operator=()</text>
<text text-anchor="start" x="366.5" y="-117.5" font-family="Helvetica,sans-Serif" font-size="10.00">+ operator=()</text>
<text text-anchor="start" x="366.5" y="-106.5" font-family="Helvetica,sans-Serif" font-size="10.00">+ resetNode()</text>
<text text-anchor="start" x="366.5" y="-95.5" font-family="Helvetica,sans-Serif" font-size="10.00">+ restore()</text>
<text text-anchor="start" x="366.5" y="-84.5" font-family="Helvetica,sans-Serif" font-size="10.00">+ save()</text>
<text text-anchor="start" x="366.5" y="-73.5" font-family="Helvetica,sans-Serif" font-size="10.00">+ type()</text>
<text text-anchor="start" x="366.5" y="-62.5" font-family="Helvetica,sans-Serif" font-size="10.00">+ VectorNavSensor()</text>
<text text-anchor="start" x="366.5" y="-51.5" font-family="Helvetica,sans-Serif" font-size="10.00">+ VectorNavSensor()</text>
<text text-anchor="start" x="366.5" y="-40.5" font-family="Helvetica,sans-Serif" font-size="10.00">+ VectorNavSensor()</text>
<text text-anchor="start" x="366.5" y="-29.5" font-family="Helvetica,sans-Serif" font-size="10.00">+ ~VectorNavSensor()</text>
<text text-anchor="start" x="366.5" y="-18.5" font-family="Helvetica,sans-Serif" font-size="10.00">+ category()</text>
<text text-anchor="start" x="366.5" y="-7.5" font-family="Helvetica,sans-Serif" font-size="10.00">+ typeStatic()</text>
</a>
</g>
</g>
<!-- Node1&#45;&gt;Node5 -->
<g id="edge4" class="edge">
<title>Node1&#45;&gt;Node5</title>
<path fill="none" stroke="#63b8ff" d="M301.66,-252.44C318.1,-236.11 335.09,-218.34 350,-201 352.78,-197.77 355.57,-194.43 358.34,-191.03"/>
<polygon fill="none" stroke="#63b8ff" points="298.82,-250.33 294.16,-259.84 303.74,-255.31 298.82,-250.33"/>
</g>
</g>
</svg>
