<?xml version="1.0" encoding="UTF-8" standalone="no"?>
<!DOCTYPE svg PUBLIC "-//W3C//DTD SVG 1.1//EN"
 "http://www.w3.org/Graphics/SVG/1.1/DTD/svg11.dtd">
<!-- Generated by graphviz version 2.43.0 (0)
 -->
<!-- Title: NAV::internal::KeyedRowVectorBase&lt; Scalar, ColKeyType, Cols &gt; Pages: 1 -->
<svg width="170pt" height="897pt"
 viewBox="0.00 0.00 170.00 897.00" xmlns="http://www.w3.org/2000/svg" xmlns:xlink="http://www.w3.org/1999/xlink">
<g id="graph0" class="graph" transform="scale(1 1) rotate(0) translate(4 893)">
<title>NAV::internal::KeyedRowVectorBase&lt; Scalar, ColKeyType, Cols &gt;</title>
<!-- Node1 -->
<g id="Node000001" class="node">
<title>Node1</title>
<g id="a_Node000001"><a xlink:title="Class to inherit common methods for static and dynamic sized row vectors.">
<polygon fill="#999999" stroke="transparent" points="161.5,-489 0.5,-489 0.5,-257 161.5,-257 161.5,-489"/>
<text text-anchor="start" x="6" y="-477" font-family="Helvetica,sans-Serif" font-size="10.00">NAV::internal::KeyedRowVector</text>
<text text-anchor="start" x="6" y="-466" font-family="Helvetica,sans-Serif" font-size="10.00">Base&lt; Scalar, ColKeyType,</text>
<text text-anchor="start" x="63.5" y="-455" font-family="Helvetica,sans-Serif" font-size="10.00"> Cols &gt;</text>
<text text-anchor="start" x="79.5" y="-440" font-family="Helvetica,sans-Serif" font-size="10.00"> </text>
<text text-anchor="start" x="7.5" y="-425" font-family="Helvetica,sans-Serif" font-size="10.00">+</text>
<text text-anchor="start" x="23" y="-425" font-family="Helvetica,sans-Serif" font-size="10.00">KeyedRowVectorBase()</text>
<text text-anchor="start" x="7.5" y="-410" font-family="Helvetica,sans-Serif" font-size="10.00">+</text>
<text text-anchor="start" x="23" y="-410" font-family="Helvetica,sans-Serif" font-size="10.00">KeyedRowVectorBase()</text>
<text text-anchor="start" x="7.5" y="-395" font-family="Helvetica,sans-Serif" font-size="10.00">+</text>
<text text-anchor="start" x="23" y="-395" font-family="Helvetica,sans-Serif" font-size="10.00">KeyedRowVectorBase()</text>
<text text-anchor="start" x="7.5" y="-380" font-family="Helvetica,sans-Serif" font-size="10.00">+</text>
<text text-anchor="start" x="23" y="-380" font-family="Helvetica,sans-Serif" font-size="10.00">KeyedRowVectorBase()</text>
<text text-anchor="start" x="7.5" y="-365" font-family="Helvetica,sans-Serif" font-size="10.00">+</text>
<text text-anchor="start" x="23" y="-365" font-family="Helvetica,sans-Serif" font-size="10.00">KeyedRowVectorBase()</text>
<text text-anchor="start" x="7.5" y="-350" font-family="Helvetica,sans-Serif" font-size="10.00">+</text>
<text text-anchor="start" x="23" y="-350" font-family="Helvetica,sans-Serif" font-size="10.00">KeyedRowVectorBase()</text>
<text text-anchor="start" x="7.5" y="-335" font-family="Helvetica,sans-Serif" font-size="10.00">+</text>
<text text-anchor="start" x="23" y="-335" font-family="Helvetica,sans-Serif" font-size="10.00">operator Eigen::RowVector</text>
<text text-anchor="start" x="23" y="-324" font-family="Helvetica,sans-Serif" font-size="10.00">&lt; Scalar, Cols &gt;()</text>
<text text-anchor="start" x="7.5" y="-309" font-family="Helvetica,sans-Serif" font-size="10.00">+</text>
<text text-anchor="start" x="23" y="-309" font-family="Helvetica,sans-Serif" font-size="10.00">operator()()</text>
<text text-anchor="start" x="7.5" y="-294" font-family="Helvetica,sans-Serif" font-size="10.00">+</text>
<text text-anchor="start" x="23" y="-294" font-family="Helvetica,sans-Serif" font-size="10.00">operator()()</text>
<text text-anchor="start" x="7.5" y="-279" font-family="Helvetica,sans-Serif" font-size="10.00">+</text>
<text text-anchor="start" x="23" y="-279" font-family="Helvetica,sans-Serif" font-size="10.00">operator()()</text>
<text text-anchor="start" x="23" y="-264" font-family="Helvetica,sans-Serif" font-size="10.00">and 13 more...</text>
<polygon fill="#666666" stroke="#666666" points="1,-450 1,-450 162,-450 162,-450 1,-450"/>
<polygon fill="#666666" stroke="#666666" points="1,-435 1,-435 162,-435 162,-435 1,-435"/>
<polygon fill="none" stroke="#666666" points="0.5,-257 0.5,-489 161.5,-489 161.5,-257 0.5,-257"/>
</a>
</g>
</g>
<!-- Node5 -->
<g id="Node000005" class="node">
<title>Node5</title>
<g id="a_Node000005"><a xlink:href="classNAV_1_1KeyedRowVector.html" target="_top" xlink:title="Static sized KeyedRowVector.">
<polygon fill="white" stroke="transparent" points="140.5,-221 21.5,-221 21.5,0 140.5,0 140.5,-221"/>
<text text-anchor="start" x="27.5" y="-208.5" font-family="Helvetica,sans-Serif" font-size="10.00">NAV::KeyedRowVector</text>
<text text-anchor="start" x="27.5" y="-197.5" font-family="Helvetica,sans-Serif" font-size="10.00">&lt; Scalar, ColKeyType,</text>
<text text-anchor="start" x="63.5" y="-186.5" font-family="Helvetica,sans-Serif" font-size="10.00"> Cols &gt;</text>
<text text-anchor="start" x="79.5" y="-171.5" font-family="Helvetica,sans-Serif" font-size="10.00"> </text>
<text text-anchor="start" x="26" y="-156.5" font-family="Helvetica,sans-Serif" font-size="10.00">+</text>
<text text-anchor="start" x="39" y="-156.5" font-family="Helvetica,sans-Serif" font-size="10.00">KeyedRowVector()</text>
<text text-anchor="start" x="26" y="-141.5" font-family="Helvetica,sans-Serif" font-size="10.00">+</text>
<text text-anchor="start" x="39" y="-141.5" font-family="Helvetica,sans-Serif" font-size="10.00">KeyedRowVector()</text>
<text text-anchor="start" x="26" y="-126.5" font-family="Helvetica,sans-Serif" font-size="10.00">+</text>
<text text-anchor="start" x="39" y="-126.5" font-family="Helvetica,sans-Serif" font-size="10.00">KeyedRowVector()</text>
<text text-anchor="start" x="26" y="-111.5" font-family="Helvetica,sans-Serif" font-size="10.00">+</text>
<text text-anchor="start" x="39" y="-111.5" font-family="Helvetica,sans-Serif" font-size="10.00">KeyedRowVector()</text>
<text text-anchor="start" x="26" y="-96.5" font-family="Helvetica,sans-Serif" font-size="10.00">+</text>
<text text-anchor="start" x="39" y="-96.5" font-family="Helvetica,sans-Serif" font-size="10.00">KeyedRowVector()</text>
<text text-anchor="start" x="26" y="-81.5" font-family="Helvetica,sans-Serif" font-size="10.00">+</text>
<text text-anchor="start" x="39" y="-81.5" font-family="Helvetica,sans-Serif" font-size="10.00">operator=()</text>
<text text-anchor="start" x="26" y="-66.5" font-family="Helvetica,sans-Serif" font-size="10.00">+</text>
<text text-anchor="start" x="39" y="-66.5" font-family="Helvetica,sans-Serif" font-size="10.00">operator=()</text>
<text text-anchor="start" x="26" y="-51.5" font-family="Helvetica,sans-Serif" font-size="10.00">+</text>
<text text-anchor="start" x="39" y="-51.5" font-family="Helvetica,sans-Serif" font-size="10.00">operator=()</text>
<text text-anchor="start" x="26" y="-36.5" font-family="Helvetica,sans-Serif" font-size="10.00">+</text>
<text text-anchor="start" x="39" y="-36.5" font-family="Helvetica,sans-Serif" font-size="10.00">operator=()</text>
<text text-anchor="start" x="26" y="-21.5" font-family="Helvetica,sans-Serif" font-size="10.00">+</text>
<text text-anchor="start" x="39" y="-21.5" font-family="Helvetica,sans-Serif" font-size="10.00">transposed()</text>
<text text-anchor="start" x="26" y="-6.5" font-family="Helvetica,sans-Serif" font-size="10.00">+</text>
<text text-anchor="start" x="39" y="-6.5" font-family="Helvetica,sans-Serif" font-size="10.00">~KeyedRowVector()</text>
<polygon fill="#666666" stroke="#666666" points="22,-181.5 22,-181.5 141,-181.5 141,-181.5 22,-181.5"/>
<polygon fill="#666666" stroke="#666666" points="22,-166.5 22,-166.5 141,-166.5 141,-166.5 22,-166.5"/>
<polygon fill="none" stroke="#666666" points="21.5,0 21.5,-221 140.5,-221 140.5,0 21.5,0"/>
</a>
</g>
</g>
<!-- Node1&#45;&gt;Node5 -->
<g id="edge4_Node000001_Node000005" class="edge">
<title>Node1&#45;&gt;Node5</title>
<g id="a_edge4_Node000001_Node000005"><a xlink:title=" ">
<path fill="none" stroke="#63b8ff" d="M81,-246.95C81,-238.38 81,-229.78 81,-221.3"/>
<polygon fill="none" stroke="#63b8ff" points="77.5,-246.98 81,-256.98 84.5,-246.98 77.5,-246.98"/>
</a>
</g>
</g>
<!-- Node2 -->
<g id="Node000002" class="node">
<title>Node2</title>
<g id="a_Node000002"><a xlink:href="classNAV_1_1internal_1_1KeyedMatrixCols.html" target="_top" xlink:title=" ">
<polygon fill="white" stroke="transparent" points="151.5,-596 10.5,-596 10.5,-525 151.5,-525 151.5,-596"/>
<text text-anchor="start" x="16" y="-583.5" font-family="Helvetica,sans-Serif" font-size="10.00">NAV::internal::KeyedMatrix</text>
<text text-anchor="start" x="16" y="-572.5" font-family="Helvetica,sans-Serif" font-size="10.00">Cols&lt; Scalar, ColKeyType,</text>
<text text-anchor="start" x="57.5" y="-561.5" font-family="Helvetica,sans-Serif" font-size="10.00"> 1, Cols &gt;</text>
<text text-anchor="start" x="79.5" y="-546.5" font-family="Helvetica,sans-Serif" font-size="10.00"> </text>
<text text-anchor="start" x="79.5" y="-531.5" font-family="Helvetica,sans-Serif" font-size="10.00"> </text>
<polygon fill="#666666" stroke="#666666" points="11,-556.5 11,-556.5 152,-556.5 152,-556.5 11,-556.5"/>
<polygon fill="#666666" stroke="#666666" points="11,-541.5 11,-541.5 152,-541.5 152,-541.5 11,-541.5"/>
<polygon fill="none" stroke="#666666" points="10.5,-525 10.5,-596 151.5,-596 151.5,-525 10.5,-525"/>
</a>
</g>
</g>
<!-- Node2&#45;&gt;Node1 -->
<g id="edge1_Node000001_Node000002" class="edge">
<title>Node2&#45;&gt;Node1</title>
<g id="a_edge1_Node000001_Node000002"><a xlink:title=" ">
<path fill="none" stroke="#63b8ff" d="M81,-514.59C81,-506.66 81,-498.09 81,-489.23"/>
<polygon fill="none" stroke="#63b8ff" points="77.5,-514.61 81,-524.61 84.5,-514.61 77.5,-514.61"/>
</a>
</g>
</g>
<!-- Node3 -->
<g id="Node000003" class="node">
<title>Node3</title>
<g id="a_Node000003"><a xlink:href="classNAV_1_1internal_1_1KeyedMatrixColsBase.html" target="_top" xlink:title="Base class for Keyed matrices with multiple columns.">
<polygon fill="white" stroke="transparent" points="162,-793 0,-793 0,-632 162,-632 162,-793"/>
<text text-anchor="start" x="5" y="-780.5" font-family="Helvetica,sans-Serif" font-size="10.00">NAV::internal::KeyedMatrix</text>
<text text-anchor="start" x="5" y="-769.5" font-family="Helvetica,sans-Serif" font-size="10.00">ColsBase&lt; Scalar, ColKeyType,</text>
<text text-anchor="start" x="47" y="-758.5" font-family="Helvetica,sans-Serif" font-size="10.00"> Rows, Cols &gt;</text>
<text text-anchor="start" x="22" y="-743.5" font-family="Helvetica,sans-Serif" font-size="10.00">#</text>
<text text-anchor="start" x="53" y="-743.5" font-family="Helvetica,sans-Serif" font-size="10.00">colIndices</text>
<text text-anchor="start" x="22" y="-728.5" font-family="Helvetica,sans-Serif" font-size="10.00">#</text>
<text text-anchor="start" x="53" y="-728.5" font-family="Helvetica,sans-Serif" font-size="10.00">colKeysVector</text>
<text text-anchor="start" x="22" y="-713.5" font-family="Helvetica,sans-Serif" font-size="10.00">#</text>
<text text-anchor="start" x="53" y="-713.5" font-family="Helvetica,sans-Serif" font-size="10.00">colSlice</text>
<text text-anchor="start" x="22" y="-698.5" font-family="Helvetica,sans-Serif" font-size="10.00">+</text>
<text text-anchor="start" x="53" y="-698.5" font-family="Helvetica,sans-Serif" font-size="10.00">colKeys()</text>
<text text-anchor="start" x="22" y="-683.5" font-family="Helvetica,sans-Serif" font-size="10.00">+</text>
<text text-anchor="start" x="53" y="-683.5" font-family="Helvetica,sans-Serif" font-size="10.00">cols()</text>
<text text-anchor="start" x="22" y="-668.5" font-family="Helvetica,sans-Serif" font-size="10.00">+</text>
<text text-anchor="start" x="53" y="-668.5" font-family="Helvetica,sans-Serif" font-size="10.00">hasAnyCols()</text>
<text text-anchor="start" x="22" y="-653.5" font-family="Helvetica,sans-Serif" font-size="10.00">+</text>
<text text-anchor="start" x="53" y="-653.5" font-family="Helvetica,sans-Serif" font-size="10.00">hasCol()</text>
<text text-anchor="start" x="22" y="-638.5" font-family="Helvetica,sans-Serif" font-size="10.00">+</text>
<text text-anchor="start" x="53" y="-638.5" font-family="Helvetica,sans-Serif" font-size="10.00">hasCols()</text>
<polygon fill="#666666" stroke="#666666" points="0,-753.5 0,-753.5 162,-753.5 162,-753.5 0,-753.5"/>
<polygon fill="#666666" stroke="#666666" points="0,-708.5 0,-708.5 51,-708.5 51,-708.5 0,-708.5"/>
<polygon fill="#666666" stroke="#666666" points="51,-708.5 51,-708.5 162,-708.5 162,-708.5 51,-708.5"/>
<polygon fill="none" stroke="#666666" points="0,-632 0,-793 162,-793 162,-632 0,-632"/>
</a>
</g>
</g>
<!-- Node3&#45;&gt;Node2 -->
<g id="edge2_Node000002_Node000003" class="edge">
<title>Node3&#45;&gt;Node2</title>
<g id="a_edge2_Node000002_Node000003"><a xlink:title=" ">
<path fill="none" stroke="#63b8ff" d="M81,-621.52C81,-612.62 81,-604.01 81,-596.22"/>
<polygon fill="none" stroke="#63b8ff" points="77.5,-621.67 81,-631.67 84.5,-621.67 77.5,-621.67"/>
</a>
</g>
</g>
<!-- Node4 -->
<g id="Node000004" class="node">
<title>Node4</title>
<g id="a_Node000004"><a xlink:href="classNAV_1_1internal_1_1KeyedMatrixStorage.html" target="_top" xlink:title="KeyedMatrix storage class.">
<polygon fill="white" stroke="transparent" points="161,-889 1,-889 1,-829 161,-829 161,-889"/>
<text text-anchor="start" x="6" y="-877" font-family="Helvetica,sans-Serif" font-size="10.00">NAV::internal::KeyedMatrix</text>
<text text-anchor="start" x="6" y="-866" font-family="Helvetica,sans-Serif" font-size="10.00">Storage&lt; Scalar, Rows, Cols &gt;</text>
<text text-anchor="start" x="31.5" y="-851" font-family="Helvetica,sans-Serif" font-size="10.00">#</text>
<text text-anchor="start" x="71" y="-851" font-family="Helvetica,sans-Serif" font-size="10.00">matrix</text>
<text text-anchor="start" x="79" y="-836" font-family="Helvetica,sans-Serif" font-size="10.00"> </text>
<polygon fill="#666666" stroke="#666666" points="1,-861 1,-861 161,-861 161,-861 1,-861"/>
<polygon fill="#666666" stroke="#666666" points="1,-846 1,-846 69,-846 69,-846 1,-846"/>
<polygon fill="#666666" stroke="#666666" points="69,-846 69,-846 161,-846 161,-846 69,-846"/>
<polygon fill="none" stroke="#666666" points="1,-829 1,-889 161,-889 161,-829 1,-829"/>
</a>
</g>
</g>
<!-- Node4&#45;&gt;Node3 -->
<g id="edge3_Node000003_Node000004" class="edge">
<title>Node4&#45;&gt;Node3</title>
<g id="a_edge3_Node000003_Node000004"><a xlink:title=" ">
<path fill="none" stroke="#63b8ff" d="M81,-818.7C81,-810.72 81,-802.05 81,-793.24"/>
<polygon fill="none" stroke="#63b8ff" points="77.5,-818.76 81,-828.76 84.5,-818.76 77.5,-818.76"/>
</a>
</g>
</g>
</g>
</svg>
