<?xml version="1.0" encoding="UTF-8" standalone="no"?>
<!DOCTYPE svg PUBLIC "-//W3C//DTD SVG 1.1//EN"
 "http://www.w3.org/Graphics/SVG/1.1/DTD/svg11.dtd">
<!-- Generated by graphviz version 2.43.0 (0)
 -->
<!-- Title: NAV::RinexObsFile Pages: 1 -->
<svg width="334pt" height="622pt"
 viewBox="0.00 0.00 334.00 622.00" xmlns="http://www.w3.org/2000/svg" xmlns:xlink="http://www.w3.org/1999/xlink">
<g id="graph0" class="graph" transform="scale(1 1) rotate(0) translate(4 618)">
<title>NAV::RinexObsFile</title>
<!-- Node1 -->
<g id="Node000001" class="node">
<title>Node1</title>
<g id="a_Node000001"><a xlink:title="File reader Node for RINEX Observation messages.">
<polygon fill="#999999" stroke="transparent" points="220.5,-229 119.5,-229 119.5,0 220.5,0 220.5,-229"/>
<text text-anchor="start" x="125.5" y="-216.5" font-family="Helvetica,sans-Serif" font-size="10.00">NAV::RinexObsFile</text>
<text text-anchor="start" x="168.5" y="-201.5" font-family="Helvetica,sans-Serif" font-size="10.00"> </text>
<text text-anchor="start" x="124" y="-186.5" font-family="Helvetica,sans-Serif" font-size="10.00">+</text>
<text text-anchor="start" x="137" y="-186.5" font-family="Helvetica,sans-Serif" font-size="10.00">guiConfig()</text>
<text text-anchor="start" x="124" y="-171.5" font-family="Helvetica,sans-Serif" font-size="10.00">+</text>
<text text-anchor="start" x="137" y="-171.5" font-family="Helvetica,sans-Serif" font-size="10.00">operator=()</text>
<text text-anchor="start" x="124" y="-156.5" font-family="Helvetica,sans-Serif" font-size="10.00">+</text>
<text text-anchor="start" x="137" y="-156.5" font-family="Helvetica,sans-Serif" font-size="10.00">operator=()</text>
<text text-anchor="start" x="124" y="-141.5" font-family="Helvetica,sans-Serif" font-size="10.00">+</text>
<text text-anchor="start" x="137" y="-141.5" font-family="Helvetica,sans-Serif" font-size="10.00">resetNode()</text>
<text text-anchor="start" x="124" y="-126.5" font-family="Helvetica,sans-Serif" font-size="10.00">+</text>
<text text-anchor="start" x="137" y="-126.5" font-family="Helvetica,sans-Serif" font-size="10.00">restore()</text>
<text text-anchor="start" x="124" y="-111.5" font-family="Helvetica,sans-Serif" font-size="10.00">+</text>
<text text-anchor="start" x="137" y="-111.5" font-family="Helvetica,sans-Serif" font-size="10.00">RinexObsFile()</text>
<text text-anchor="start" x="124" y="-96.5" font-family="Helvetica,sans-Serif" font-size="10.00">+</text>
<text text-anchor="start" x="137" y="-96.5" font-family="Helvetica,sans-Serif" font-size="10.00">RinexObsFile()</text>
<text text-anchor="start" x="124" y="-81.5" font-family="Helvetica,sans-Serif" font-size="10.00">+</text>
<text text-anchor="start" x="137" y="-81.5" font-family="Helvetica,sans-Serif" font-size="10.00">RinexObsFile()</text>
<text text-anchor="start" x="124" y="-66.5" font-family="Helvetica,sans-Serif" font-size="10.00">+</text>
<text text-anchor="start" x="137" y="-66.5" font-family="Helvetica,sans-Serif" font-size="10.00">save()</text>
<text text-anchor="start" x="124" y="-51.5" font-family="Helvetica,sans-Serif" font-size="10.00">+</text>
<text text-anchor="start" x="137" y="-51.5" font-family="Helvetica,sans-Serif" font-size="10.00">type()</text>
<text text-anchor="start" x="124" y="-36.5" font-family="Helvetica,sans-Serif" font-size="10.00">+</text>
<text text-anchor="start" x="137" y="-36.5" font-family="Helvetica,sans-Serif" font-size="10.00">~RinexObsFile()</text>
<text text-anchor="start" x="124" y="-21.5" font-family="Helvetica,sans-Serif" font-size="10.00">+</text>
<text text-anchor="start" x="137" y="-21.5" font-family="Helvetica,sans-Serif" font-size="10.00">category()</text>
<text text-anchor="start" x="124" y="-6.5" font-family="Helvetica,sans-Serif" font-size="10.00">+</text>
<text text-anchor="start" x="137" y="-6.5" font-family="Helvetica,sans-Serif" font-size="10.00">typeStatic()</text>
<polygon fill="#666666" stroke="#666666" points="120,-211.5 120,-211.5 221,-211.5 221,-211.5 120,-211.5"/>
<polygon fill="#666666" stroke="#666666" points="120,-196.5 120,-196.5 221,-196.5 221,-196.5 120,-196.5"/>
<polygon fill="none" stroke="#666666" points="119.5,0 119.5,-229 220.5,-229 220.5,0 119.5,0"/>
</a>
</g>
</g>
<!-- Node2 -->
<g id="Node000002" class="node">
<title>Node2</title>
<g id="a_Node000002"><a xlink:href="classNAV_1_1Node.html" target="_top" xlink:title="Abstract parent class for all nodes.">
<polygon fill="white" stroke="transparent" points="168,-614 0,-614 0,-265 168,-265 168,-614"/>
<text text-anchor="start" x="58" y="-601.5" font-family="Helvetica,sans-Serif" font-size="10.00">NAV::Node</text>
<text text-anchor="start" x="4" y="-586.5" font-family="Helvetica,sans-Serif" font-size="10.00">+</text>
<text text-anchor="start" x="17" y="-586.5" font-family="Helvetica,sans-Serif" font-size="10.00">callbacksEnabled</text>
<text text-anchor="start" x="4" y="-571.5" font-family="Helvetica,sans-Serif" font-size="10.00">+</text>
<text text-anchor="start" x="17" y="-571.5" font-family="Helvetica,sans-Serif" font-size="10.00">id</text>
<text text-anchor="start" x="4" y="-556.5" font-family="Helvetica,sans-Serif" font-size="10.00">+</text>
<text text-anchor="start" x="17" y="-556.5" font-family="Helvetica,sans-Serif" font-size="10.00">inputPins</text>
<text text-anchor="start" x="4" y="-541.5" font-family="Helvetica,sans-Serif" font-size="10.00">+</text>
<text text-anchor="start" x="17" y="-541.5" font-family="Helvetica,sans-Serif" font-size="10.00">kind</text>
<text text-anchor="start" x="4" y="-526.5" font-family="Helvetica,sans-Serif" font-size="10.00">+</text>
<text text-anchor="start" x="17" y="-526.5" font-family="Helvetica,sans-Serif" font-size="10.00">name</text>
<text text-anchor="start" x="4" y="-511.5" font-family="Helvetica,sans-Serif" font-size="10.00">+</text>
<text text-anchor="start" x="17" y="-511.5" font-family="Helvetica,sans-Serif" font-size="10.00">outputPins</text>
<text text-anchor="start" x="4" y="-496.5" font-family="Helvetica,sans-Serif" font-size="10.00">+</text>
<text text-anchor="start" x="17" y="-496.5" font-family="Helvetica,sans-Serif" font-size="10.00">pollEvents</text>
<text text-anchor="start" x="4" y="-481.5" font-family="Helvetica,sans-Serif" font-size="10.00">#</text>
<text text-anchor="start" x="17" y="-481.5" font-family="Helvetica,sans-Serif" font-size="10.00">_guiConfigDefaultWindowSize</text>
<text text-anchor="start" x="4" y="-466.5" font-family="Helvetica,sans-Serif" font-size="10.00">#</text>
<text text-anchor="start" x="17" y="-466.5" font-family="Helvetica,sans-Serif" font-size="10.00">_hasConfig</text>
<text text-anchor="start" x="4" y="-451.5" font-family="Helvetica,sans-Serif" font-size="10.00">#</text>
<text text-anchor="start" x="17" y="-451.5" font-family="Helvetica,sans-Serif" font-size="10.00">_lockConfigDuringRun</text>
<text text-anchor="start" x="4" y="-436.5" font-family="Helvetica,sans-Serif" font-size="10.00">+</text>
<text text-anchor="start" x="17" y="-436.5" font-family="Helvetica,sans-Serif" font-size="10.00">afterCreateLink()</text>
<text text-anchor="start" x="4" y="-421.5" font-family="Helvetica,sans-Serif" font-size="10.00">+</text>
<text text-anchor="start" x="17" y="-421.5" font-family="Helvetica,sans-Serif" font-size="10.00">afterDeleteLink()</text>
<text text-anchor="start" x="4" y="-406.5" font-family="Helvetica,sans-Serif" font-size="10.00">+</text>
<text text-anchor="start" x="17" y="-406.5" font-family="Helvetica,sans-Serif" font-size="10.00">deinitialize()</text>
<text text-anchor="start" x="4" y="-391.5" font-family="Helvetica,sans-Serif" font-size="10.00">+</text>
<text text-anchor="start" x="17" y="-391.5" font-family="Helvetica,sans-Serif" font-size="10.00">doDeinitialize()</text>
<text text-anchor="start" x="4" y="-376.5" font-family="Helvetica,sans-Serif" font-size="10.00">+</text>
<text text-anchor="start" x="17" y="-376.5" font-family="Helvetica,sans-Serif" font-size="10.00">doDisable()</text>
<text text-anchor="start" x="4" y="-361.5" font-family="Helvetica,sans-Serif" font-size="10.00">+</text>
<text text-anchor="start" x="17" y="-361.5" font-family="Helvetica,sans-Serif" font-size="10.00">doEnable()</text>
<text text-anchor="start" x="4" y="-346.5" font-family="Helvetica,sans-Serif" font-size="10.00">+</text>
<text text-anchor="start" x="17" y="-346.5" font-family="Helvetica,sans-Serif" font-size="10.00">doInitialize()</text>
<text text-anchor="start" x="4" y="-331.5" font-family="Helvetica,sans-Serif" font-size="10.00">+</text>
<text text-anchor="start" x="17" y="-331.5" font-family="Helvetica,sans-Serif" font-size="10.00">doReinitialize()</text>
<text text-anchor="start" x="4" y="-316.5" font-family="Helvetica,sans-Serif" font-size="10.00">+</text>
<text text-anchor="start" x="17" y="-316.5" font-family="Helvetica,sans-Serif" font-size="10.00">flush()</text>
<text text-anchor="start" x="4" y="-301.5" font-family="Helvetica,sans-Serif" font-size="10.00">+</text>
<text text-anchor="start" x="17" y="-301.5" font-family="Helvetica,sans-Serif" font-size="10.00">getInputValue()</text>
<text text-anchor="start" x="17" y="-286.5" font-family="Helvetica,sans-Serif" font-size="10.00">and 32 more...</text>
<text text-anchor="start" x="4" y="-271.5" font-family="Helvetica,sans-Serif" font-size="10.00">+</text>
<text text-anchor="start" x="17" y="-271.5" font-family="Helvetica,sans-Serif" font-size="10.00">toString()</text>
<polygon fill="#666666" stroke="#666666" points="0,-596.5 0,-596.5 168,-596.5 168,-596.5 0,-596.5"/>
<polygon fill="#666666" stroke="#666666" points="0,-446.5 0,-446.5 15,-446.5 15,-446.5 0,-446.5"/>
<polygon fill="#666666" stroke="#666666" points="15,-446.5 15,-446.5 168,-446.5 168,-446.5 15,-446.5"/>
<polygon fill="none" stroke="#666666" points="0,-265 0,-614 168,-614 168,-265 0,-265"/>
</a>
</g>
</g>
<!-- Node2&#45;&gt;Node1 -->
<g id="edge1_Node000001_Node000002" class="edge">
<title>Node2&#45;&gt;Node1</title>
<g id="a_edge1_Node000001_Node000002"><a xlink:title=" ">
<path fill="none" stroke="#63b8ff" d="M132.87,-254.94C135.17,-246.31 137.45,-237.76 139.67,-229.41"/>
<polygon fill="none" stroke="#63b8ff" points="129.46,-254.14 130.27,-264.71 136.23,-255.95 129.46,-254.14"/>
</a>
</g>
</g>
<!-- Node3 -->
<g id="Node000003" class="node">
<title>Node3</title>
<g id="a_Node000003"><a xlink:href="classNAV_1_1FileReader.html" target="_top" xlink:title="Abstract File Reader class.">
<polygon fill="white" stroke="transparent" points="326,-591.5 186,-591.5 186,-287.5 326,-287.5 326,-591.5"/>
<text text-anchor="start" x="217" y="-579.5" font-family="Helvetica,sans-Serif" font-size="10.00">NAV::FileReader</text>
<text text-anchor="start" x="190" y="-564.5" font-family="Helvetica,sans-Serif" font-size="10.00">#</text>
<text text-anchor="start" x="203" y="-564.5" font-family="Helvetica,sans-Serif" font-size="10.00">_fileType</text>
<text text-anchor="start" x="190" y="-549.5" font-family="Helvetica,sans-Serif" font-size="10.00">#</text>
<text text-anchor="start" x="203" y="-549.5" font-family="Helvetica,sans-Serif" font-size="10.00">_headerColumns</text>
<text text-anchor="start" x="190" y="-534.5" font-family="Helvetica,sans-Serif" font-size="10.00">#</text>
<text text-anchor="start" x="203" y="-534.5" font-family="Helvetica,sans-Serif" font-size="10.00">_path</text>
<text text-anchor="start" x="190" y="-519.5" font-family="Helvetica,sans-Serif" font-size="10.00">+</text>
<text text-anchor="start" x="203" y="-519.5" font-family="Helvetica,sans-Serif" font-size="10.00">FileReader()</text>
<text text-anchor="start" x="190" y="-504.5" font-family="Helvetica,sans-Serif" font-size="10.00">+</text>
<text text-anchor="start" x="203" y="-504.5" font-family="Helvetica,sans-Serif" font-size="10.00">FileReader()</text>
<text text-anchor="start" x="190" y="-489.5" font-family="Helvetica,sans-Serif" font-size="10.00">+</text>
<text text-anchor="start" x="203" y="-489.5" font-family="Helvetica,sans-Serif" font-size="10.00">operator=()</text>
<text text-anchor="start" x="190" y="-474.5" font-family="Helvetica,sans-Serif" font-size="10.00">+</text>
<text text-anchor="start" x="203" y="-474.5" font-family="Helvetica,sans-Serif" font-size="10.00">operator=()</text>
<text text-anchor="start" x="190" y="-459.5" font-family="Helvetica,sans-Serif" font-size="10.00">+</text>
<text text-anchor="start" x="203" y="-459.5" font-family="Helvetica,sans-Serif" font-size="10.00">~FileReader()</text>
<text text-anchor="start" x="190" y="-444.5" font-family="Helvetica,sans-Serif" font-size="10.00">#</text>
<text text-anchor="start" x="203" y="-444.5" font-family="Helvetica,sans-Serif" font-size="10.00">deinitialize()</text>
<text text-anchor="start" x="190" y="-429.5" font-family="Helvetica,sans-Serif" font-size="10.00">#</text>
<text text-anchor="start" x="203" y="-429.5" font-family="Helvetica,sans-Serif" font-size="10.00">determineFileType()</text>
<text text-anchor="start" x="190" y="-414.5" font-family="Helvetica,sans-Serif" font-size="10.00">#</text>
<text text-anchor="start" x="203" y="-414.5" font-family="Helvetica,sans-Serif" font-size="10.00">eof()</text>
<text text-anchor="start" x="190" y="-399.5" font-family="Helvetica,sans-Serif" font-size="10.00">#</text>
<text text-anchor="start" x="203" y="-399.5" font-family="Helvetica,sans-Serif" font-size="10.00">FileReader()</text>
<text text-anchor="start" x="190" y="-384.5" font-family="Helvetica,sans-Serif" font-size="10.00">#</text>
<text text-anchor="start" x="203" y="-384.5" font-family="Helvetica,sans-Serif" font-size="10.00">getCurrentLineNumber()</text>
<text text-anchor="start" x="190" y="-369.5" font-family="Helvetica,sans-Serif" font-size="10.00">#</text>
<text text-anchor="start" x="203" y="-369.5" font-family="Helvetica,sans-Serif" font-size="10.00">getFilepath()</text>
<text text-anchor="start" x="190" y="-354.5" font-family="Helvetica,sans-Serif" font-size="10.00">#</text>
<text text-anchor="start" x="203" y="-354.5" font-family="Helvetica,sans-Serif" font-size="10.00">getline()</text>
<text text-anchor="start" x="190" y="-339.5" font-family="Helvetica,sans-Serif" font-size="10.00">#</text>
<text text-anchor="start" x="203" y="-339.5" font-family="Helvetica,sans-Serif" font-size="10.00">good()</text>
<text text-anchor="start" x="190" y="-324.5" font-family="Helvetica,sans-Serif" font-size="10.00">#</text>
<text text-anchor="start" x="203" y="-324.5" font-family="Helvetica,sans-Serif" font-size="10.00">guiConfig()</text>
<text text-anchor="start" x="190" y="-309.5" font-family="Helvetica,sans-Serif" font-size="10.00">#</text>
<text text-anchor="start" x="203" y="-309.5" font-family="Helvetica,sans-Serif" font-size="10.00">ignore()</text>
<text text-anchor="start" x="203" y="-294.5" font-family="Helvetica,sans-Serif" font-size="10.00">and 10 more...</text>
<polygon fill="#666666" stroke="#666666" points="186,-574.5 186,-574.5 326,-574.5 326,-574.5 186,-574.5"/>
<polygon fill="#666666" stroke="#666666" points="186,-529.5 186,-529.5 201,-529.5 201,-529.5 186,-529.5"/>
<polygon fill="#666666" stroke="#666666" points="201,-529.5 201,-529.5 326,-529.5 326,-529.5 201,-529.5"/>
<polygon fill="none" stroke="#666666" points="186,-287.5 186,-591.5 326,-591.5 326,-287.5 186,-287.5"/>
</a>
</g>
</g>
<!-- Node3&#45;&gt;Node1 -->
<g id="edge2_Node000001_Node000003" class="edge">
<title>Node3&#45;&gt;Node1</title>
<g id="a_edge2_Node000001_Node000003"><a xlink:title=" ">
<path fill="none" stroke="#63b8ff" d="M213.08,-277.32C208.77,-261.11 204.45,-244.89 200.31,-229.33"/>
<polygon fill="none" stroke="#63b8ff" points="209.81,-278.64 215.77,-287.4 216.58,-276.84 209.81,-278.64"/>
</a>
</g>
</g>
</g>
</svg>
