<?xml version="1.0" encoding="UTF-8" standalone="no"?>
<!DOCTYPE svg PUBLIC "-//W3C//DTD SVG 1.1//EN"
 "http://www.w3.org/Graphics/SVG/1.1/DTD/svg11.dtd">
<!-- Generated by graphviz version 2.43.0 (0)
 -->
<!-- Title: NAV::ImuObsWDelta Pages: 1 -->
<svg width="118pt" height="542pt"
 viewBox="0.00 0.00 118.00 542.00" xmlns="http://www.w3.org/2000/svg" xmlns:xlink="http://www.w3.org/1999/xlink">
<g id="graph0" class="graph" transform="scale(1 1) rotate(0) translate(4 538)">
<title>NAV::ImuObsWDelta</title>
<!-- Node1 -->
<g id="Node000001" class="node">
<title>Node1</title>
<g id="a_Node000001"><a xlink:title="VectorNav Observation storage Class.">
<polygon fill="#999999" stroke="transparent" points="110,-109 0,-109 0,0 110,0 110,-109"/>
<text text-anchor="start" x="5" y="-96.5" font-family="Helvetica,sans-Serif" font-size="10.00">NAV::ImuObsWDelta</text>
<text text-anchor="start" x="5.5" y="-81.5" font-family="Helvetica,sans-Serif" font-size="10.00">+</text>
<text text-anchor="start" x="20" y="-81.5" font-family="Helvetica,sans-Serif" font-size="10.00">dtheta</text>
<text text-anchor="start" x="5.5" y="-66.5" font-family="Helvetica,sans-Serif" font-size="10.00">+</text>
<text text-anchor="start" x="20" y="-66.5" font-family="Helvetica,sans-Serif" font-size="10.00">dtime</text>
<text text-anchor="start" x="5.5" y="-51.5" font-family="Helvetica,sans-Serif" font-size="10.00">+</text>
<text text-anchor="start" x="20" y="-51.5" font-family="Helvetica,sans-Serif" font-size="10.00">dvel</text>
<text text-anchor="start" x="5.5" y="-36.5" font-family="Helvetica,sans-Serif" font-size="10.00">+</text>
<text text-anchor="start" x="20" y="-36.5" font-family="Helvetica,sans-Serif" font-size="10.00">ImuObsWDelta()</text>
<text text-anchor="start" x="5.5" y="-21.5" font-family="Helvetica,sans-Serif" font-size="10.00">+</text>
<text text-anchor="start" x="20" y="-21.5" font-family="Helvetica,sans-Serif" font-size="10.00">parentTypes()</text>
<text text-anchor="start" x="5.5" y="-6.5" font-family="Helvetica,sans-Serif" font-size="10.00">+</text>
<text text-anchor="start" x="20" y="-6.5" font-family="Helvetica,sans-Serif" font-size="10.00">type()</text>
<polygon fill="#666666" stroke="#666666" points="0,-91.5 0,-91.5 110,-91.5 110,-91.5 0,-91.5"/>
<polygon fill="#666666" stroke="#666666" points="0,-46.5 0,-46.5 18,-46.5 18,-46.5 0,-46.5"/>
<polygon fill="#666666" stroke="#666666" points="18,-46.5 18,-46.5 110,-46.5 110,-46.5 18,-46.5"/>
<polygon fill="none" stroke="#666666" points="0,0 0,-109 110,-109 110,0 0,0"/>
</a>
</g>
</g>
<!-- Node2 -->
<g id="Node000002" class="node">
<title>Node2</title>
<g id="a_Node000002"><a xlink:href="classNAV_1_1ImuObs.html" target="_top" xlink:title="IMU Observation storage class.">
<polygon fill="white" stroke="transparent" points="108.5,-344 1.5,-344 1.5,-145 108.5,-145 108.5,-344"/>
<text text-anchor="start" x="23.5" y="-331.5" font-family="Helvetica,sans-Serif" font-size="10.00">NAV::ImuObs</text>
<text text-anchor="start" x="6" y="-316.5" font-family="Helvetica,sans-Serif" font-size="10.00">+</text>
<text text-anchor="start" x="19" y="-316.5" font-family="Helvetica,sans-Serif" font-size="10.00">accelCompXYZ</text>
<text text-anchor="start" x="6" y="-301.5" font-family="Helvetica,sans-Serif" font-size="10.00">+</text>
<text text-anchor="start" x="19" y="-301.5" font-family="Helvetica,sans-Serif" font-size="10.00">accelUncompXYZ</text>
<text text-anchor="start" x="6" y="-286.5" font-family="Helvetica,sans-Serif" font-size="10.00">+</text>
<text text-anchor="start" x="19" y="-286.5" font-family="Helvetica,sans-Serif" font-size="10.00">gyroCompXYZ</text>
<text text-anchor="start" x="6" y="-271.5" font-family="Helvetica,sans-Serif" font-size="10.00">+</text>
<text text-anchor="start" x="19" y="-271.5" font-family="Helvetica,sans-Serif" font-size="10.00">gyroUncompXYZ</text>
<text text-anchor="start" x="6" y="-256.5" font-family="Helvetica,sans-Serif" font-size="10.00">+</text>
<text text-anchor="start" x="19" y="-256.5" font-family="Helvetica,sans-Serif" font-size="10.00">imuPos</text>
<text text-anchor="start" x="6" y="-241.5" font-family="Helvetica,sans-Serif" font-size="10.00">+</text>
<text text-anchor="start" x="19" y="-241.5" font-family="Helvetica,sans-Serif" font-size="10.00">magCompXYZ</text>
<text text-anchor="start" x="6" y="-226.5" font-family="Helvetica,sans-Serif" font-size="10.00">+</text>
<text text-anchor="start" x="19" y="-226.5" font-family="Helvetica,sans-Serif" font-size="10.00">magUncompXYZ</text>
<text text-anchor="start" x="6" y="-211.5" font-family="Helvetica,sans-Serif" font-size="10.00">+</text>
<text text-anchor="start" x="19" y="-211.5" font-family="Helvetica,sans-Serif" font-size="10.00">temperature</text>
<text text-anchor="start" x="6" y="-196.5" font-family="Helvetica,sans-Serif" font-size="10.00">+</text>
<text text-anchor="start" x="19" y="-196.5" font-family="Helvetica,sans-Serif" font-size="10.00">timeSinceStartup</text>
<text text-anchor="start" x="6" y="-181.5" font-family="Helvetica,sans-Serif" font-size="10.00">+</text>
<text text-anchor="start" x="19" y="-181.5" font-family="Helvetica,sans-Serif" font-size="10.00">ImuObs()</text>
<text text-anchor="start" x="6" y="-166.5" font-family="Helvetica,sans-Serif" font-size="10.00">+</text>
<text text-anchor="start" x="19" y="-166.5" font-family="Helvetica,sans-Serif" font-size="10.00">parentTypes()</text>
<text text-anchor="start" x="6" y="-151.5" font-family="Helvetica,sans-Serif" font-size="10.00">+</text>
<text text-anchor="start" x="19" y="-151.5" font-family="Helvetica,sans-Serif" font-size="10.00">type()</text>
<polygon fill="#666666" stroke="#666666" points="2,-326.5 2,-326.5 109,-326.5 109,-326.5 2,-326.5"/>
<polygon fill="#666666" stroke="#666666" points="2,-191.5 2,-191.5 17,-191.5 17,-191.5 2,-191.5"/>
<polygon fill="#666666" stroke="#666666" points="17,-191.5 17,-191.5 109,-191.5 109,-191.5 17,-191.5"/>
<polygon fill="none" stroke="#666666" points="1.5,-145 1.5,-344 108.5,-344 108.5,-145 1.5,-145"/>
</a>
</g>
</g>
<!-- Node2&#45;&gt;Node1 -->
<g id="edge1_Node000001_Node000002" class="edge">
<title>Node2&#45;&gt;Node1</title>
<g id="a_edge1_Node000001_Node000002"><a xlink:title=" ">
<path fill="none" stroke="#63b8ff" d="M55,-134.54C55,-125.84 55,-117.31 55,-109.27"/>
<polygon fill="none" stroke="#63b8ff" points="51.5,-134.82 55,-144.82 58.5,-134.82 51.5,-134.82"/>
</a>
</g>
</g>
<!-- Node3 -->
<g id="Node000003" class="node">
<title>Node3</title>
<g id="a_Node000003"><a xlink:href="classNAV_1_1NodeData.html" target="_top" xlink:title="Parent class for all data transmitted over Flow pins.">
<polygon fill="white" stroke="transparent" points="99,-534 11,-534 11,-380 99,-380 99,-534"/>
<text text-anchor="start" x="17.5" y="-522" font-family="Helvetica,sans-Serif" font-size="10.00">NAV::NodeData</text>
<text text-anchor="start" x="15" y="-507" font-family="Helvetica,sans-Serif" font-size="10.00">+</text>
<text text-anchor="start" x="28" y="-507" font-family="Helvetica,sans-Serif" font-size="10.00">insTime</text>
<text text-anchor="start" x="15" y="-492" font-family="Helvetica,sans-Serif" font-size="10.00">+</text>
<text text-anchor="start" x="28" y="-492" font-family="Helvetica,sans-Serif" font-size="10.00">NodeData()</text>
<text text-anchor="start" x="15" y="-477" font-family="Helvetica,sans-Serif" font-size="10.00">+</text>
<text text-anchor="start" x="28" y="-477" font-family="Helvetica,sans-Serif" font-size="10.00">NodeData()</text>
<text text-anchor="start" x="15" y="-462" font-family="Helvetica,sans-Serif" font-size="10.00">+</text>
<text text-anchor="start" x="28" y="-462" font-family="Helvetica,sans-Serif" font-size="10.00">NodeData()</text>
<text text-anchor="start" x="15" y="-447" font-family="Helvetica,sans-Serif" font-size="10.00">+</text>
<text text-anchor="start" x="28" y="-447" font-family="Helvetica,sans-Serif" font-size="10.00">operator=()</text>
<text text-anchor="start" x="15" y="-432" font-family="Helvetica,sans-Serif" font-size="10.00">+</text>
<text text-anchor="start" x="28" y="-432" font-family="Helvetica,sans-Serif" font-size="10.00">operator=()</text>
<text text-anchor="start" x="15" y="-417" font-family="Helvetica,sans-Serif" font-size="10.00">+</text>
<text text-anchor="start" x="28" y="-417" font-family="Helvetica,sans-Serif" font-size="10.00">~NodeData()</text>
<text text-anchor="start" x="15" y="-402" font-family="Helvetica,sans-Serif" font-size="10.00">+</text>
<text text-anchor="start" x="28" y="-402" font-family="Helvetica,sans-Serif" font-size="10.00">parentTypes()</text>
<text text-anchor="start" x="15" y="-387" font-family="Helvetica,sans-Serif" font-size="10.00">+</text>
<text text-anchor="start" x="28" y="-387" font-family="Helvetica,sans-Serif" font-size="10.00">type()</text>
<polygon fill="#666666" stroke="#666666" points="11,-517 11,-517 99,-517 99,-517 11,-517"/>
<polygon fill="#666666" stroke="#666666" points="11,-502 11,-502 26,-502 26,-502 11,-502"/>
<polygon fill="#666666" stroke="#666666" points="26,-502 26,-502 99,-502 99,-502 26,-502"/>
<polygon fill="none" stroke="#666666" points="11,-380 11,-534 99,-534 99,-380 11,-380"/>
</a>
</g>
</g>
<!-- Node3&#45;&gt;Node2 -->
<g id="edge2_Node000002_Node000003" class="edge">
<title>Node3&#45;&gt;Node2</title>
<g id="a_edge2_Node000002_Node000003"><a xlink:title=" ">
<path fill="none" stroke="#63b8ff" d="M55,-369.6C55,-361.23 55,-352.7 55,-344.22"/>
<polygon fill="none" stroke="#63b8ff" points="51.5,-369.71 55,-379.71 58.5,-369.71 51.5,-369.71"/>
</a>
</g>
</g>
</g>
</svg>
