<?xml version="1.0" encoding="UTF-8" standalone="no"?>
<!DOCTYPE svg PUBLIC "-//W3C//DTD SVG 1.1//EN"
 "http://www.w3.org/Graphics/SVG/1.1/DTD/svg11.dtd">
<!-- Generated by graphviz version 2.43.0 (0)
 -->
<!-- Title: NAV::KvhDataLogger Pages: 1 -->
<svg width="411pt" height="622pt"
 viewBox="0.00 0.00 410.50 622.00" xmlns="http://www.w3.org/2000/svg" xmlns:xlink="http://www.w3.org/1999/xlink">
<g id="graph0" class="graph" transform="scale(1 1) rotate(0) translate(4 618)">
<title>NAV::KvhDataLogger</title>
<!-- Node1 -->
<g id="Node000001" class="node">
<title>Node1</title>
<g id="a_Node000001"><a xlink:title="Data Logger for KVH observations.">
<polygon fill="#999999" stroke="transparent" points="285,-229 173,-229 173,0 285,0 285,-229"/>
<text text-anchor="start" x="178.5" y="-216.5" font-family="Helvetica,sans-Serif" font-size="10.00">NAV::KvhDataLogger</text>
<text text-anchor="start" x="227" y="-201.5" font-family="Helvetica,sans-Serif" font-size="10.00"> </text>
<text text-anchor="start" x="177" y="-186.5" font-family="Helvetica,sans-Serif" font-size="10.00">+</text>
<text text-anchor="start" x="190" y="-186.5" font-family="Helvetica,sans-Serif" font-size="10.00">flush()</text>
<text text-anchor="start" x="177" y="-171.5" font-family="Helvetica,sans-Serif" font-size="10.00">+</text>
<text text-anchor="start" x="190" y="-171.5" font-family="Helvetica,sans-Serif" font-size="10.00">guiConfig()</text>
<text text-anchor="start" x="177" y="-156.5" font-family="Helvetica,sans-Serif" font-size="10.00">+</text>
<text text-anchor="start" x="190" y="-156.5" font-family="Helvetica,sans-Serif" font-size="10.00">KvhDataLogger()</text>
<text text-anchor="start" x="177" y="-141.5" font-family="Helvetica,sans-Serif" font-size="10.00">+</text>
<text text-anchor="start" x="190" y="-141.5" font-family="Helvetica,sans-Serif" font-size="10.00">KvhDataLogger()</text>
<text text-anchor="start" x="177" y="-126.5" font-family="Helvetica,sans-Serif" font-size="10.00">+</text>
<text text-anchor="start" x="190" y="-126.5" font-family="Helvetica,sans-Serif" font-size="10.00">KvhDataLogger()</text>
<text text-anchor="start" x="177" y="-111.5" font-family="Helvetica,sans-Serif" font-size="10.00">+</text>
<text text-anchor="start" x="190" y="-111.5" font-family="Helvetica,sans-Serif" font-size="10.00">operator=()</text>
<text text-anchor="start" x="177" y="-96.5" font-family="Helvetica,sans-Serif" font-size="10.00">+</text>
<text text-anchor="start" x="190" y="-96.5" font-family="Helvetica,sans-Serif" font-size="10.00">operator=()</text>
<text text-anchor="start" x="177" y="-81.5" font-family="Helvetica,sans-Serif" font-size="10.00">+</text>
<text text-anchor="start" x="190" y="-81.5" font-family="Helvetica,sans-Serif" font-size="10.00">restore()</text>
<text text-anchor="start" x="177" y="-66.5" font-family="Helvetica,sans-Serif" font-size="10.00">+</text>
<text text-anchor="start" x="190" y="-66.5" font-family="Helvetica,sans-Serif" font-size="10.00">save()</text>
<text text-anchor="start" x="177" y="-51.5" font-family="Helvetica,sans-Serif" font-size="10.00">+</text>
<text text-anchor="start" x="190" y="-51.5" font-family="Helvetica,sans-Serif" font-size="10.00">type()</text>
<text text-anchor="start" x="177" y="-36.5" font-family="Helvetica,sans-Serif" font-size="10.00">+</text>
<text text-anchor="start" x="190" y="-36.5" font-family="Helvetica,sans-Serif" font-size="10.00">~KvhDataLogger()</text>
<text text-anchor="start" x="177" y="-21.5" font-family="Helvetica,sans-Serif" font-size="10.00">+</text>
<text text-anchor="start" x="190" y="-21.5" font-family="Helvetica,sans-Serif" font-size="10.00">category()</text>
<text text-anchor="start" x="177" y="-6.5" font-family="Helvetica,sans-Serif" font-size="10.00">+</text>
<text text-anchor="start" x="190" y="-6.5" font-family="Helvetica,sans-Serif" font-size="10.00">typeStatic()</text>
<polygon fill="#666666" stroke="#666666" points="173,-211.5 173,-211.5 285,-211.5 285,-211.5 173,-211.5"/>
<polygon fill="#666666" stroke="#666666" points="173,-196.5 173,-196.5 285,-196.5 285,-196.5 173,-196.5"/>
<polygon fill="none" stroke="#666666" points="173,0 173,-229 285,-229 285,0 173,0"/>
</a>
</g>
</g>
<!-- Node2 -->
<g id="Node000002" class="node">
<title>Node2</title>
<g id="a_Node000002"><a xlink:href="classNAV_1_1Node.html" target="_top" xlink:title="Abstract parent class for all nodes.">
<polygon fill="white" stroke="transparent" points="168,-614 0,-614 0,-265 168,-265 168,-614"/>
<text text-anchor="start" x="58" y="-601.5" font-family="Helvetica,sans-Serif" font-size="10.00">NAV::Node</text>
<text text-anchor="start" x="4" y="-586.5" font-family="Helvetica,sans-Serif" font-size="10.00">+</text>
<text text-anchor="start" x="17" y="-586.5" font-family="Helvetica,sans-Serif" font-size="10.00">callbacksEnabled</text>
<text text-anchor="start" x="4" y="-571.5" font-family="Helvetica,sans-Serif" font-size="10.00">+</text>
<text text-anchor="start" x="17" y="-571.5" font-family="Helvetica,sans-Serif" font-size="10.00">id</text>
<text text-anchor="start" x="4" y="-556.5" font-family="Helvetica,sans-Serif" font-size="10.00">+</text>
<text text-anchor="start" x="17" y="-556.5" font-family="Helvetica,sans-Serif" font-size="10.00">inputPins</text>
<text text-anchor="start" x="4" y="-541.5" font-family="Helvetica,sans-Serif" font-size="10.00">+</text>
<text text-anchor="start" x="17" y="-541.5" font-family="Helvetica,sans-Serif" font-size="10.00">kind</text>
<text text-anchor="start" x="4" y="-526.5" font-family="Helvetica,sans-Serif" font-size="10.00">+</text>
<text text-anchor="start" x="17" y="-526.5" font-family="Helvetica,sans-Serif" font-size="10.00">name</text>
<text text-anchor="start" x="4" y="-511.5" font-family="Helvetica,sans-Serif" font-size="10.00">+</text>
<text text-anchor="start" x="17" y="-511.5" font-family="Helvetica,sans-Serif" font-size="10.00">outputPins</text>
<text text-anchor="start" x="4" y="-496.5" font-family="Helvetica,sans-Serif" font-size="10.00">+</text>
<text text-anchor="start" x="17" y="-496.5" font-family="Helvetica,sans-Serif" font-size="10.00">pollEvents</text>
<text text-anchor="start" x="4" y="-481.5" font-family="Helvetica,sans-Serif" font-size="10.00">#</text>
<text text-anchor="start" x="17" y="-481.5" font-family="Helvetica,sans-Serif" font-size="10.00">_guiConfigDefaultWindowSize</text>
<text text-anchor="start" x="4" y="-466.5" font-family="Helvetica,sans-Serif" font-size="10.00">#</text>
<text text-anchor="start" x="17" y="-466.5" font-family="Helvetica,sans-Serif" font-size="10.00">_hasConfig</text>
<text text-anchor="start" x="4" y="-451.5" font-family="Helvetica,sans-Serif" font-size="10.00">#</text>
<text text-anchor="start" x="17" y="-451.5" font-family="Helvetica,sans-Serif" font-size="10.00">_lockConfigDuringRun</text>
<text text-anchor="start" x="4" y="-436.5" font-family="Helvetica,sans-Serif" font-size="10.00">+</text>
<text text-anchor="start" x="17" y="-436.5" font-family="Helvetica,sans-Serif" font-size="10.00">afterCreateLink()</text>
<text text-anchor="start" x="4" y="-421.5" font-family="Helvetica,sans-Serif" font-size="10.00">+</text>
<text text-anchor="start" x="17" y="-421.5" font-family="Helvetica,sans-Serif" font-size="10.00">afterDeleteLink()</text>
<text text-anchor="start" x="4" y="-406.5" font-family="Helvetica,sans-Serif" font-size="10.00">+</text>
<text text-anchor="start" x="17" y="-406.5" font-family="Helvetica,sans-Serif" font-size="10.00">deinitialize()</text>
<text text-anchor="start" x="4" y="-391.5" font-family="Helvetica,sans-Serif" font-size="10.00">+</text>
<text text-anchor="start" x="17" y="-391.5" font-family="Helvetica,sans-Serif" font-size="10.00">doDeinitialize()</text>
<text text-anchor="start" x="4" y="-376.5" font-family="Helvetica,sans-Serif" font-size="10.00">+</text>
<text text-anchor="start" x="17" y="-376.5" font-family="Helvetica,sans-Serif" font-size="10.00">doDisable()</text>
<text text-anchor="start" x="4" y="-361.5" font-family="Helvetica,sans-Serif" font-size="10.00">+</text>
<text text-anchor="start" x="17" y="-361.5" font-family="Helvetica,sans-Serif" font-size="10.00">doEnable()</text>
<text text-anchor="start" x="4" y="-346.5" font-family="Helvetica,sans-Serif" font-size="10.00">+</text>
<text text-anchor="start" x="17" y="-346.5" font-family="Helvetica,sans-Serif" font-size="10.00">doInitialize()</text>
<text text-anchor="start" x="4" y="-331.5" font-family="Helvetica,sans-Serif" font-size="10.00">+</text>
<text text-anchor="start" x="17" y="-331.5" font-family="Helvetica,sans-Serif" font-size="10.00">doReinitialize()</text>
<text text-anchor="start" x="4" y="-316.5" font-family="Helvetica,sans-Serif" font-size="10.00">+</text>
<text text-anchor="start" x="17" y="-316.5" font-family="Helvetica,sans-Serif" font-size="10.00">flush()</text>
<text text-anchor="start" x="4" y="-301.5" font-family="Helvetica,sans-Serif" font-size="10.00">+</text>
<text text-anchor="start" x="17" y="-301.5" font-family="Helvetica,sans-Serif" font-size="10.00">getInputValue()</text>
<text text-anchor="start" x="17" y="-286.5" font-family="Helvetica,sans-Serif" font-size="10.00">and 32 more...</text>
<text text-anchor="start" x="4" y="-271.5" font-family="Helvetica,sans-Serif" font-size="10.00">+</text>
<text text-anchor="start" x="17" y="-271.5" font-family="Helvetica,sans-Serif" font-size="10.00">toString()</text>
<polygon fill="#666666" stroke="#666666" points="0,-596.5 0,-596.5 168,-596.5 168,-596.5 0,-596.5"/>
<polygon fill="#666666" stroke="#666666" points="0,-446.5 0,-446.5 15,-446.5 15,-446.5 0,-446.5"/>
<polygon fill="#666666" stroke="#666666" points="15,-446.5 15,-446.5 168,-446.5 168,-446.5 15,-446.5"/>
<polygon fill="none" stroke="#666666" points="0,-265 0,-614 168,-614 168,-265 0,-265"/>
</a>
</g>
</g>
<!-- Node2&#45;&gt;Node1 -->
<g id="edge1_Node000001_Node000002" class="edge">
<title>Node2&#45;&gt;Node1</title>
<g id="a_edge1_Node000001_Node000002"><a xlink:title=" ">
<path fill="none" stroke="#63b8ff" d="M166.16,-255.49C170.11,-246.67 174.03,-237.94 177.87,-229.41"/>
<polygon fill="none" stroke="#63b8ff" points="162.92,-254.15 162.02,-264.71 169.31,-257.02 162.92,-254.15"/>
</a>
</g>
</g>
<!-- Node3 -->
<g id="Node000003" class="node">
<title>Node3</title>
<g id="a_Node000003"><a xlink:href="classNAV_1_1FileWriter.html" target="_top" xlink:title="Parent class for other data loggers which manages the output filestream.">
<polygon fill="white" stroke="transparent" points="271.5,-569 186.5,-569 186.5,-310 271.5,-310 271.5,-569"/>
<text text-anchor="start" x="193" y="-556.5" font-family="Helvetica,sans-Serif" font-size="10.00">NAV::FileWriter</text>
<text text-anchor="start" x="191" y="-541.5" font-family="Helvetica,sans-Serif" font-size="10.00">#</text>
<text text-anchor="start" x="204" y="-541.5" font-family="Helvetica,sans-Serif" font-size="10.00">_filestream</text>
<text text-anchor="start" x="191" y="-526.5" font-family="Helvetica,sans-Serif" font-size="10.00">#</text>
<text text-anchor="start" x="204" y="-526.5" font-family="Helvetica,sans-Serif" font-size="10.00">_fileType</text>
<text text-anchor="start" x="191" y="-511.5" font-family="Helvetica,sans-Serif" font-size="10.00">#</text>
<text text-anchor="start" x="204" y="-511.5" font-family="Helvetica,sans-Serif" font-size="10.00">_path</text>
<text text-anchor="start" x="191" y="-496.5" font-family="Helvetica,sans-Serif" font-size="10.00">+</text>
<text text-anchor="start" x="204" y="-496.5" font-family="Helvetica,sans-Serif" font-size="10.00">FileWriter()</text>
<text text-anchor="start" x="191" y="-481.5" font-family="Helvetica,sans-Serif" font-size="10.00">+</text>
<text text-anchor="start" x="204" y="-481.5" font-family="Helvetica,sans-Serif" font-size="10.00">FileWriter()</text>
<text text-anchor="start" x="191" y="-466.5" font-family="Helvetica,sans-Serif" font-size="10.00">+</text>
<text text-anchor="start" x="204" y="-466.5" font-family="Helvetica,sans-Serif" font-size="10.00">operator=()</text>
<text text-anchor="start" x="191" y="-451.5" font-family="Helvetica,sans-Serif" font-size="10.00">+</text>
<text text-anchor="start" x="204" y="-451.5" font-family="Helvetica,sans-Serif" font-size="10.00">operator=()</text>
<text text-anchor="start" x="191" y="-436.5" font-family="Helvetica,sans-Serif" font-size="10.00">+</text>
<text text-anchor="start" x="204" y="-436.5" font-family="Helvetica,sans-Serif" font-size="10.00">~FileWriter()</text>
<text text-anchor="start" x="191" y="-421.5" font-family="Helvetica,sans-Serif" font-size="10.00">+</text>
<text text-anchor="start" x="204" y="-421.5" font-family="Helvetica,sans-Serif" font-size="10.00">to_string()</text>
<text text-anchor="start" x="191" y="-406.5" font-family="Helvetica,sans-Serif" font-size="10.00">#</text>
<text text-anchor="start" x="204" y="-406.5" font-family="Helvetica,sans-Serif" font-size="10.00">deinitialize()</text>
<text text-anchor="start" x="191" y="-391.5" font-family="Helvetica,sans-Serif" font-size="10.00">#</text>
<text text-anchor="start" x="204" y="-391.5" font-family="Helvetica,sans-Serif" font-size="10.00">FileWriter()</text>
<text text-anchor="start" x="191" y="-376.5" font-family="Helvetica,sans-Serif" font-size="10.00">#</text>
<text text-anchor="start" x="204" y="-376.5" font-family="Helvetica,sans-Serif" font-size="10.00">getFilepath()</text>
<text text-anchor="start" x="191" y="-361.5" font-family="Helvetica,sans-Serif" font-size="10.00">#</text>
<text text-anchor="start" x="204" y="-361.5" font-family="Helvetica,sans-Serif" font-size="10.00">guiConfig()</text>
<text text-anchor="start" x="191" y="-346.5" font-family="Helvetica,sans-Serif" font-size="10.00">#</text>
<text text-anchor="start" x="204" y="-346.5" font-family="Helvetica,sans-Serif" font-size="10.00">initialize()</text>
<text text-anchor="start" x="191" y="-331.5" font-family="Helvetica,sans-Serif" font-size="10.00">#</text>
<text text-anchor="start" x="204" y="-331.5" font-family="Helvetica,sans-Serif" font-size="10.00">restore()</text>
<text text-anchor="start" x="191" y="-316.5" font-family="Helvetica,sans-Serif" font-size="10.00">#</text>
<text text-anchor="start" x="204" y="-316.5" font-family="Helvetica,sans-Serif" font-size="10.00">save()</text>
<polygon fill="#666666" stroke="#666666" points="187,-551.5 187,-551.5 272,-551.5 272,-551.5 187,-551.5"/>
<polygon fill="#666666" stroke="#666666" points="187,-506.5 187,-506.5 202,-506.5 202,-506.5 187,-506.5"/>
<polygon fill="#666666" stroke="#666666" points="202,-506.5 202,-506.5 272,-506.5 272,-506.5 202,-506.5"/>
<polygon fill="none" stroke="#666666" points="186.5,-310 186.5,-569 271.5,-569 271.5,-310 186.5,-310"/>
</a>
</g>
</g>
<!-- Node3&#45;&gt;Node1 -->
<g id="edge2_Node000001_Node000003" class="edge">
<title>Node3&#45;&gt;Node1</title>
<g id="a_edge2_Node000001_Node000003"><a xlink:title=" ">
<path fill="none" stroke="#63b8ff" d="M229,-299.83C229,-276.2 229,-251.91 229,-229.02"/>
<polygon fill="none" stroke="#63b8ff" points="225.5,-299.91 229,-309.91 232.5,-299.91 225.5,-299.91"/>
</a>
</g>
</g>
<!-- Node4 -->
<g id="Node000004" class="node">
<title>Node4</title>
<g id="a_Node000004"><a xlink:href="classNAV_1_1CommonLog.html" target="_top" xlink:title="Common logging variables like time into run and local positions.">
<polygon fill="white" stroke="transparent" points="402.5,-501.5 289.5,-501.5 289.5,-377.5 402.5,-377.5 402.5,-501.5"/>
<text text-anchor="start" x="302.5" y="-489.5" font-family="Helvetica,sans-Serif" font-size="10.00">NAV::CommonLog</text>
<text text-anchor="start" x="294" y="-474.5" font-family="Helvetica,sans-Serif" font-size="10.00">#</text>
<text text-anchor="start" x="307" y="-474.5" font-family="Helvetica,sans-Serif" font-size="10.00">_originLatitude</text>
<text text-anchor="start" x="294" y="-459.5" font-family="Helvetica,sans-Serif" font-size="10.00">#</text>
<text text-anchor="start" x="307" y="-459.5" font-family="Helvetica,sans-Serif" font-size="10.00">_originLongitude</text>
<text text-anchor="start" x="294" y="-444.5" font-family="Helvetica,sans-Serif" font-size="10.00">#</text>
<text text-anchor="start" x="307" y="-444.5" font-family="Helvetica,sans-Serif" font-size="10.00">_startTime</text>
<text text-anchor="start" x="294" y="-429.5" font-family="Helvetica,sans-Serif" font-size="10.00">+</text>
<text text-anchor="start" x="307" y="-429.5" font-family="Helvetica,sans-Serif" font-size="10.00">calcLocalPosition()</text>
<text text-anchor="start" x="294" y="-414.5" font-family="Helvetica,sans-Serif" font-size="10.00">+</text>
<text text-anchor="start" x="307" y="-414.5" font-family="Helvetica,sans-Serif" font-size="10.00">calcTimeIntoRun()</text>
<text text-anchor="start" x="294" y="-399.5" font-family="Helvetica,sans-Serif" font-size="10.00">+</text>
<text text-anchor="start" x="307" y="-399.5" font-family="Helvetica,sans-Serif" font-size="10.00">initialize()</text>
<text text-anchor="start" x="294" y="-384.5" font-family="Helvetica,sans-Serif" font-size="10.00">#</text>
<text text-anchor="start" x="307" y="-384.5" font-family="Helvetica,sans-Serif" font-size="10.00">CommonLog()</text>
<polygon fill="#666666" stroke="#666666" points="290,-484.5 290,-484.5 403,-484.5 403,-484.5 290,-484.5"/>
<polygon fill="#666666" stroke="#666666" points="290,-439.5 290,-439.5 305,-439.5 305,-439.5 290,-439.5"/>
<polygon fill="#666666" stroke="#666666" points="305,-439.5 305,-439.5 403,-439.5 403,-439.5 305,-439.5"/>
<polygon fill="none" stroke="#666666" points="289.5,-377.5 289.5,-501.5 402.5,-501.5 402.5,-377.5 289.5,-377.5"/>
</a>
</g>
</g>
<!-- Node4&#45;&gt;Node1 -->
<g id="edge3_Node000001_Node000004" class="edge">
<title>Node4&#45;&gt;Node1</title>
<g id="a_edge3_Node000001_Node000004"><a xlink:title=" ">
<path fill="none" stroke="#63b8ff" d="M320.4,-367.82C305.69,-327.2 286.86,-275.22 270.12,-229.01"/>
<polygon fill="none" stroke="#63b8ff" points="317.16,-369.16 323.86,-377.37 323.74,-366.77 317.16,-369.16"/>
</a>
</g>
</g>
</g>
</svg>
