<?xml version="1.0" encoding="UTF-8" standalone="no"?>
<!DOCTYPE svg PUBLIC "-//W3C//DTD SVG 1.1//EN"
 "http://www.w3.org/Graphics/SVG/1.1/DTD/svg11.dtd">
<!-- Generated by graphviz version 2.43.0 (0)
 -->
<!-- Title: NAV::NodeData Pages: 1 -->
<svg width="1137pt" height="827pt"
 viewBox="0.00 0.00 1136.50 827.00" xmlns="http://www.w3.org/2000/svg" xmlns:xlink="http://www.w3.org/1999/xlink">
<g id="graph0" class="graph" transform="scale(1 1) rotate(0) translate(4 823)">
<title>NAV::NodeData</title>
<!-- Node1 -->
<g id="node1" class="node">
<title>Node1</title>
<g id="a_node1"><a xlink:title="Parent class for all data transmitted over Flow pins.">
<polygon fill="#999999" stroke="#666666" points="507.5,-684.5 507.5,-818.5 602.5,-818.5 602.5,-684.5 507.5,-684.5"/>
<text text-anchor="middle" x="555" y="-806.5" font-family="Helvetica,sans-Serif" font-size="10.00">NAV::NodeData</text>
<polyline fill="none" stroke="#666666" points="507.5,-799.5 602.5,-799.5 "/>
<text text-anchor="start" x="515.5" y="-787.5" font-family="Helvetica,sans-Serif" font-size="10.00">+ insTime</text>
<polyline fill="none" stroke="#666666" points="507.5,-780.5 602.5,-780.5 "/>
<text text-anchor="start" x="515.5" y="-768.5" font-family="Helvetica,sans-Serif" font-size="10.00">+ NodeData()</text>
<text text-anchor="start" x="515.5" y="-757.5" font-family="Helvetica,sans-Serif" font-size="10.00">+ NodeData()</text>
<text text-anchor="start" x="515.5" y="-746.5" font-family="Helvetica,sans-Serif" font-size="10.00">+ NodeData()</text>
<text text-anchor="start" x="515.5" y="-735.5" font-family="Helvetica,sans-Serif" font-size="10.00">+ operator=()</text>
<text text-anchor="start" x="515.5" y="-724.5" font-family="Helvetica,sans-Serif" font-size="10.00">+ operator=()</text>
<text text-anchor="start" x="515.5" y="-713.5" font-family="Helvetica,sans-Serif" font-size="10.00">+ ~NodeData()</text>
<text text-anchor="start" x="515.5" y="-702.5" font-family="Helvetica,sans-Serif" font-size="10.00">+ parentTypes()</text>
<text text-anchor="start" x="515.5" y="-691.5" font-family="Helvetica,sans-Serif" font-size="10.00">+ type()</text>
</a>
</g>
</g>
<!-- Node2 -->
<g id="node2" class="node">
<title>Node2</title>
<g id="a_node2"><a xlink:href="classNAV_1_1EmlidObs.html" target="_top" xlink:title="Emlid Observation Class.">
<polygon fill="white" stroke="#666666" points="0,-519 0,-609 100,-609 100,-519 0,-519"/>
<text text-anchor="middle" x="50" y="-597" font-family="Helvetica,sans-Serif" font-size="10.00">NAV::EmlidObs</text>
<polyline fill="none" stroke="#666666" points="0,-590 100,-590 "/>
<text text-anchor="start" x="8" y="-578" font-family="Helvetica,sans-Serif" font-size="10.00">+ data</text>
<text text-anchor="start" x="8" y="-567" font-family="Helvetica,sans-Serif" font-size="10.00">+ msgId</text>
<text text-anchor="start" x="8" y="-556" font-family="Helvetica,sans-Serif" font-size="10.00">+ payloadLength</text>
<polyline fill="none" stroke="#666666" points="0,-549 100,-549 "/>
<text text-anchor="start" x="8" y="-537" font-family="Helvetica,sans-Serif" font-size="10.00">+ parentTypes()</text>
<text text-anchor="start" x="8" y="-526" font-family="Helvetica,sans-Serif" font-size="10.00">+ type()</text>
</a>
</g>
</g>
<!-- Node1&#45;&gt;Node2 -->
<g id="edge1" class="edge">
<title>Node1&#45;&gt;Node2</title>
<path fill="none" stroke="#63b8ff" d="M497.36,-750C407.13,-746.6 230.31,-729.11 109,-648 94.45,-638.27 82.33,-623.65 72.94,-609.39"/>
<polygon fill="none" stroke="#63b8ff" points="497.29,-753.5 507.4,-750.33 497.52,-746.5 497.29,-753.5"/>
</g>
<!-- Node3 -->
<g id="node3" class="node">
<title>Node3</title>
<g id="a_node3"><a xlink:href="classNAV_1_1GnssObs.html" target="_top" xlink:title="GNSS Observation message information.">
<polygon fill="white" stroke="#666666" points="118.5,-524.5 118.5,-603.5 203.5,-603.5 203.5,-524.5 118.5,-524.5"/>
<text text-anchor="middle" x="161" y="-591.5" font-family="Helvetica,sans-Serif" font-size="10.00">NAV::GnssObs</text>
<polyline fill="none" stroke="#666666" points="118.5,-584.5 203.5,-584.5 "/>
<text text-anchor="start" x="126.5" y="-572.5" font-family="Helvetica,sans-Serif" font-size="10.00">+ data</text>
<polyline fill="none" stroke="#666666" points="118.5,-565.5 203.5,-565.5 "/>
<text text-anchor="start" x="126.5" y="-553.5" font-family="Helvetica,sans-Serif" font-size="10.00">+ operator()()</text>
<text text-anchor="start" x="126.5" y="-542.5" font-family="Helvetica,sans-Serif" font-size="10.00">+ operator()()</text>
<text text-anchor="start" x="126.5" y="-531.5" font-family="Helvetica,sans-Serif" font-size="10.00">+ type()</text>
</a>
</g>
</g>
<!-- Node1&#45;&gt;Node3 -->
<g id="edge2" class="edge">
<title>Node1&#45;&gt;Node3</title>
<path fill="none" stroke="#63b8ff" d="M497.54,-745.87C424.44,-737.38 297.43,-713.64 212,-648 197.11,-636.56 185.55,-619.44 177.22,-603.71"/>
<polygon fill="none" stroke="#63b8ff" points="497.16,-749.35 507.49,-746.97 497.93,-742.39 497.16,-749.35"/>
</g>
<!-- Node4 -->
<g id="node4" class="node">
<title>Node4</title>
<g id="a_node4"><a xlink:href="classNAV_1_1ImuObs.html" target="_top" xlink:title="IMU Observation storage class.">
<polygon fill="white" stroke="#666666" points="221.5,-480.5 221.5,-647.5 334.5,-647.5 334.5,-480.5 221.5,-480.5"/>
<text text-anchor="middle" x="278" y="-635.5" font-family="Helvetica,sans-Serif" font-size="10.00">NAV::ImuObs</text>
<polyline fill="none" stroke="#666666" points="221.5,-628.5 334.5,-628.5 "/>
<text text-anchor="start" x="229.5" y="-616.5" font-family="Helvetica,sans-Serif" font-size="10.00">+ accelCompXYZ</text>
<text text-anchor="start" x="229.5" y="-605.5" font-family="Helvetica,sans-Serif" font-size="10.00">+ accelUncompXYZ</text>
<text text-anchor="start" x="229.5" y="-594.5" font-family="Helvetica,sans-Serif" font-size="10.00">+ gyroCompXYZ</text>
<text text-anchor="start" x="229.5" y="-583.5" font-family="Helvetica,sans-Serif" font-size="10.00">+ gyroUncompXYZ</text>
<text text-anchor="start" x="229.5" y="-572.5" font-family="Helvetica,sans-Serif" font-size="10.00">+ imuPos</text>
<text text-anchor="start" x="229.5" y="-561.5" font-family="Helvetica,sans-Serif" font-size="10.00">+ magCompXYZ</text>
<text text-anchor="start" x="229.5" y="-550.5" font-family="Helvetica,sans-Serif" font-size="10.00">+ magUncompXYZ</text>
<text text-anchor="start" x="229.5" y="-539.5" font-family="Helvetica,sans-Serif" font-size="10.00">+ temperature</text>
<text text-anchor="start" x="229.5" y="-528.5" font-family="Helvetica,sans-Serif" font-size="10.00">+ timeSinceStartup</text>
<polyline fill="none" stroke="#666666" points="221.5,-521.5 334.5,-521.5 "/>
<text text-anchor="start" x="229.5" y="-509.5" font-family="Helvetica,sans-Serif" font-size="10.00">+ ImuObs()</text>
<text text-anchor="start" x="229.5" y="-498.5" font-family="Helvetica,sans-Serif" font-size="10.00">+ parentTypes()</text>
<text text-anchor="start" x="229.5" y="-487.5" font-family="Helvetica,sans-Serif" font-size="10.00">+ type()</text>
</a>
</g>
</g>
<!-- Node1&#45;&gt;Node4 -->
<g id="edge3" class="edge">
<title>Node1&#45;&gt;Node4</title>
<path fill="none" stroke="#63b8ff" d="M497.55,-730.68C452.73,-713.4 390.48,-685.25 344,-648 340.84,-645.47 337.73,-642.76 334.7,-639.92"/>
<polygon fill="none" stroke="#63b8ff" points="496.53,-734.04 507.12,-734.31 499.01,-727.49 496.53,-734.04"/>
</g>
<!-- Node7 -->
<g id="node7" class="node">
<title>Node7</title>
<g id="a_node7"><a xlink:href="classNAV_1_1LcKfInsGnssErrors.html" target="_top" xlink:title="Loosely&#45;coupled Kalman Filter INS/GNSS errors.">
<polygon fill="white" stroke="#666666" points="353,-502.5 353,-625.5 483,-625.5 483,-502.5 353,-502.5"/>
<text text-anchor="middle" x="418" y="-613.5" font-family="Helvetica,sans-Serif" font-size="10.00">NAV::LcKfInsGnssErrors</text>
<polyline fill="none" stroke="#666666" points="353,-606.5 483,-606.5 "/>
<text text-anchor="start" x="361" y="-594.5" font-family="Helvetica,sans-Serif" font-size="10.00">+ attitudeError</text>
<text text-anchor="start" x="361" y="-583.5" font-family="Helvetica,sans-Serif" font-size="10.00">+ b_biasAccel</text>
<text text-anchor="start" x="361" y="-572.5" font-family="Helvetica,sans-Serif" font-size="10.00">+ b_biasGyro</text>
<text text-anchor="start" x="361" y="-561.5" font-family="Helvetica,sans-Serif" font-size="10.00">+ frame</text>
<text text-anchor="start" x="361" y="-550.5" font-family="Helvetica,sans-Serif" font-size="10.00">+ positionError</text>
<text text-anchor="start" x="361" y="-539.5" font-family="Helvetica,sans-Serif" font-size="10.00">+ velocityError</text>
<polyline fill="none" stroke="#666666" points="353,-532.5 483,-532.5 "/>
<text text-anchor="start" x="361" y="-520.5" font-family="Helvetica,sans-Serif" font-size="10.00">+ parentTypes()</text>
<text text-anchor="start" x="361" y="-509.5" font-family="Helvetica,sans-Serif" font-size="10.00">+ type()</text>
</a>
</g>
</g>
<!-- Node1&#45;&gt;Node7 -->
<g id="edge6" class="edge">
<title>Node1&#45;&gt;Node7</title>
<path fill="none" stroke="#63b8ff" d="M501.26,-677.74C488.49,-660.45 475,-642.18 462.68,-625.5"/>
<polygon fill="none" stroke="#63b8ff" points="498.71,-680.18 507.47,-686.14 504.34,-676.02 498.71,-680.18"/>
</g>
<!-- Node8 -->
<g id="node8" class="node">
<title>Node8</title>
<g id="a_node8"><a xlink:href="classNAV_1_1Pos.html" target="_top" xlink:title="Position, Velocity and Attitude Storage Class.">
<polygon fill="white" stroke="#666666" points="501.5,-480.5 501.5,-647.5 608.5,-647.5 608.5,-480.5 501.5,-480.5"/>
<text text-anchor="middle" x="555" y="-635.5" font-family="Helvetica,sans-Serif" font-size="10.00">NAV::Pos</text>
<polyline fill="none" stroke="#666666" points="501.5,-628.5 608.5,-628.5 "/>
<text text-anchor="middle" x="555" y="-616.5" font-family="Helvetica,sans-Serif" font-size="10.00"> </text>
<polyline fill="none" stroke="#666666" points="501.5,-609.5 608.5,-609.5 "/>
<text text-anchor="start" x="509.5" y="-597.5" font-family="Helvetica,sans-Serif" font-size="10.00">+ altitude()</text>
<text text-anchor="start" x="509.5" y="-586.5" font-family="Helvetica,sans-Serif" font-size="10.00">+ e_position()</text>
<text text-anchor="start" x="509.5" y="-575.5" font-family="Helvetica,sans-Serif" font-size="10.00">+ e_Quat_n()</text>
<text text-anchor="start" x="509.5" y="-564.5" font-family="Helvetica,sans-Serif" font-size="10.00">+ latitude()</text>
<text text-anchor="start" x="509.5" y="-553.5" font-family="Helvetica,sans-Serif" font-size="10.00">+ lla_position()</text>
<text text-anchor="start" x="509.5" y="-542.5" font-family="Helvetica,sans-Serif" font-size="10.00">+ longitude()</text>
<text text-anchor="start" x="509.5" y="-531.5" font-family="Helvetica,sans-Serif" font-size="10.00">+ n_Quat_e()</text>
<text text-anchor="start" x="509.5" y="-520.5" font-family="Helvetica,sans-Serif" font-size="10.00">+ setPosition_e()</text>
<text text-anchor="start" x="509.5" y="-509.5" font-family="Helvetica,sans-Serif" font-size="10.00">+ setPosition_lla()</text>
<text text-anchor="start" x="509.5" y="-498.5" font-family="Helvetica,sans-Serif" font-size="10.00">+ parentTypes()</text>
<text text-anchor="start" x="509.5" y="-487.5" font-family="Helvetica,sans-Serif" font-size="10.00">+ type()</text>
</a>
</g>
</g>
<!-- Node1&#45;&gt;Node8 -->
<g id="edge7" class="edge">
<title>Node1&#45;&gt;Node8</title>
<path fill="none" stroke="#63b8ff" d="M555,-674.18C555,-665.44 555,-656.51 555,-647.7"/>
<polygon fill="none" stroke="#63b8ff" points="551.5,-674.32 555,-684.32 558.5,-674.32 551.5,-674.32"/>
</g>
<!-- Node14 -->
<g id="node14" class="node">
<title>Node14</title>
<g id="a_node14"><a xlink:href="classNAV_1_1StringObs.html" target="_top" xlink:title="IMU Observation storage class.">
<polygon fill="white" stroke="#666666" points="626.5,-524.5 626.5,-603.5 721.5,-603.5 721.5,-524.5 626.5,-524.5"/>
<text text-anchor="middle" x="674" y="-591.5" font-family="Helvetica,sans-Serif" font-size="10.00">NAV::StringObs</text>
<polyline fill="none" stroke="#666666" points="626.5,-584.5 721.5,-584.5 "/>
<text text-anchor="start" x="634.5" y="-572.5" font-family="Helvetica,sans-Serif" font-size="10.00">+ data</text>
<polyline fill="none" stroke="#666666" points="626.5,-565.5 721.5,-565.5 "/>
<text text-anchor="start" x="634.5" y="-553.5" font-family="Helvetica,sans-Serif" font-size="10.00">+ StringObs()</text>
<text text-anchor="start" x="634.5" y="-542.5" font-family="Helvetica,sans-Serif" font-size="10.00">+ parentTypes()</text>
<text text-anchor="start" x="634.5" y="-531.5" font-family="Helvetica,sans-Serif" font-size="10.00">+ type()</text>
</a>
</g>
</g>
<!-- Node1&#45;&gt;Node14 -->
<g id="edge13" class="edge">
<title>Node1&#45;&gt;Node14</title>
<path fill="none" stroke="#63b8ff" d="M603.01,-675.66C618.87,-650.94 635.86,-624.46 649.24,-603.6"/>
<polygon fill="none" stroke="#63b8ff" points="599.91,-674.01 597.46,-684.32 605.8,-677.79 599.91,-674.01"/>
</g>
<!-- Node15 -->
<g id="node15" class="node">
<title>Node15</title>
<g id="a_node15"><a xlink:href="classNAV_1_1UartPacket.html" target="_top" xlink:title="UART Packet storage class.">
<polygon fill="white" stroke="#666666" points="739.5,-524.5 739.5,-603.5 834.5,-603.5 834.5,-524.5 739.5,-524.5"/>
<text text-anchor="middle" x="787" y="-591.5" font-family="Helvetica,sans-Serif" font-size="10.00">NAV::UartPacket</text>
<polyline fill="none" stroke="#666666" points="739.5,-584.5 834.5,-584.5 "/>
<text text-anchor="start" x="747.5" y="-572.5" font-family="Helvetica,sans-Serif" font-size="10.00">+ raw</text>
<polyline fill="none" stroke="#666666" points="739.5,-565.5 834.5,-565.5 "/>
<text text-anchor="start" x="747.5" y="-553.5" font-family="Helvetica,sans-Serif" font-size="10.00">+ UartPacket()</text>
<text text-anchor="start" x="747.5" y="-542.5" font-family="Helvetica,sans-Serif" font-size="10.00">+ parentTypes()</text>
<text text-anchor="start" x="747.5" y="-531.5" font-family="Helvetica,sans-Serif" font-size="10.00">+ type()</text>
</a>
</g>
</g>
<!-- Node1&#45;&gt;Node15 -->
<g id="edge14" class="edge">
<title>Node1&#45;&gt;Node15</title>
<path fill="none" stroke="#63b8ff" d="M611.64,-725.7C648.43,-707.73 695.9,-680.86 731,-648 744.58,-635.29 756.59,-618.71 765.97,-603.7"/>
<polygon fill="none" stroke="#63b8ff" points="610.02,-722.59 602.53,-730.08 613.06,-728.9 610.02,-722.59"/>
</g>
<!-- Node16 -->
<g id="node16" class="node">
<title>Node16</title>
<g id="a_node16"><a xlink:href="classNAV_1_1UbloxObs.html" target="_top" xlink:title="ublox Observation Class">
<polygon fill="white" stroke="#666666" points="853,-513.5 853,-614.5 953,-614.5 953,-513.5 853,-513.5"/>
<text text-anchor="middle" x="903" y="-602.5" font-family="Helvetica,sans-Serif" font-size="10.00">NAV::UbloxObs</text>
<polyline fill="none" stroke="#666666" points="853,-595.5 953,-595.5 "/>
<text text-anchor="start" x="861" y="-583.5" font-family="Helvetica,sans-Serif" font-size="10.00">+ data</text>
<text text-anchor="start" x="861" y="-572.5" font-family="Helvetica,sans-Serif" font-size="10.00">+ msgClass</text>
<text text-anchor="start" x="861" y="-561.5" font-family="Helvetica,sans-Serif" font-size="10.00">+ msgId</text>
<text text-anchor="start" x="861" y="-550.5" font-family="Helvetica,sans-Serif" font-size="10.00">+ payloadLength</text>
<polyline fill="none" stroke="#666666" points="853,-543.5 953,-543.5 "/>
<text text-anchor="start" x="861" y="-531.5" font-family="Helvetica,sans-Serif" font-size="10.00">+ parentTypes()</text>
<text text-anchor="start" x="861" y="-520.5" font-family="Helvetica,sans-Serif" font-size="10.00">+ type()</text>
</a>
</g>
</g>
<!-- Node1&#45;&gt;Node16 -->
<g id="edge15" class="edge">
<title>Node1&#45;&gt;Node16</title>
<path fill="none" stroke="#63b8ff" d="M612.75,-740.77C674.9,-728 774.18,-700.73 844,-648 855.99,-638.94 866.52,-626.75 875.25,-614.5"/>
<polygon fill="none" stroke="#63b8ff" points="611.85,-737.38 602.73,-742.77 613.22,-744.24 611.85,-737.38"/>
</g>
<!-- Node17 -->
<g id="node17" class="node">
<title>Node17</title>
<g id="a_node17"><a xlink:href="classNAV_1_1VectorNavBinaryOutput.html" target="_top" xlink:title="IMU Observation storage class.">
<polygon fill="white" stroke="#666666" points="971.5,-491.5 971.5,-636.5 1128.5,-636.5 1128.5,-491.5 971.5,-491.5"/>
<text text-anchor="middle" x="1050" y="-624.5" font-family="Helvetica,sans-Serif" font-size="10.00">NAV::VectorNavBinaryOutput</text>
<polyline fill="none" stroke="#666666" points="971.5,-617.5 1128.5,-617.5 "/>
<text text-anchor="start" x="979.5" y="-605.5" font-family="Helvetica,sans-Serif" font-size="10.00">+ attitudeOutputs</text>
<text text-anchor="start" x="979.5" y="-594.5" font-family="Helvetica,sans-Serif" font-size="10.00">+ gnss1Outputs</text>
<text text-anchor="start" x="979.5" y="-583.5" font-family="Helvetica,sans-Serif" font-size="10.00">+ gnss2Outputs</text>
<text text-anchor="start" x="979.5" y="-572.5" font-family="Helvetica,sans-Serif" font-size="10.00">+ imuOutputs</text>
<text text-anchor="start" x="979.5" y="-561.5" font-family="Helvetica,sans-Serif" font-size="10.00">+ imuPos</text>
<text text-anchor="start" x="979.5" y="-550.5" font-family="Helvetica,sans-Serif" font-size="10.00">+ insOutputs</text>
<text text-anchor="start" x="979.5" y="-539.5" font-family="Helvetica,sans-Serif" font-size="10.00">+ timeOutputs</text>
<polyline fill="none" stroke="#666666" points="971.5,-532.5 1128.5,-532.5 "/>
<text text-anchor="start" x="979.5" y="-520.5" font-family="Helvetica,sans-Serif" font-size="10.00">+ VectorNavBinaryOutput()</text>
<text text-anchor="start" x="979.5" y="-509.5" font-family="Helvetica,sans-Serif" font-size="10.00">+ parentTypes()</text>
<text text-anchor="start" x="979.5" y="-498.5" font-family="Helvetica,sans-Serif" font-size="10.00">+ type()</text>
</a>
</g>
</g>
<!-- Node1&#45;&gt;Node17 -->
<g id="edge16" class="edge">
<title>Node1&#45;&gt;Node17</title>
<path fill="none" stroke="#63b8ff" d="M612.81,-745.21C694.88,-735.72 847.88,-710.56 962,-648 968.08,-644.67 974.05,-640.82 979.84,-636.63"/>
<polygon fill="none" stroke="#63b8ff" points="612.22,-741.76 602.67,-746.35 613,-748.71 612.22,-741.76"/>
</g>
<!-- Node5 -->
<g id="node5" class="node">
<title>Node5</title>
<g id="a_node5"><a xlink:href="classNAV_1_1ImuObsWDelta.html" target="_top" xlink:title="VectorNav Observation storage Class.">
<polygon fill="white" stroke="#666666" points="154,-337 154,-438 270,-438 270,-337 154,-337"/>
<text text-anchor="middle" x="212" y="-426" font-family="Helvetica,sans-Serif" font-size="10.00">NAV::ImuObsWDelta</text>
<polyline fill="none" stroke="#666666" points="154,-419 270,-419 "/>
<text text-anchor="start" x="162" y="-407" font-family="Helvetica,sans-Serif" font-size="10.00">+ dtheta</text>
<text text-anchor="start" x="162" y="-396" font-family="Helvetica,sans-Serif" font-size="10.00">+ dtime</text>
<text text-anchor="start" x="162" y="-385" font-family="Helvetica,sans-Serif" font-size="10.00">+ dvel</text>
<polyline fill="none" stroke="#666666" points="154,-378 270,-378 "/>
<text text-anchor="start" x="162" y="-366" font-family="Helvetica,sans-Serif" font-size="10.00">+ ImuObsWDelta()</text>
<text text-anchor="start" x="162" y="-355" font-family="Helvetica,sans-Serif" font-size="10.00">+ parentTypes()</text>
<text text-anchor="start" x="162" y="-344" font-family="Helvetica,sans-Serif" font-size="10.00">+ type()</text>
</a>
</g>
</g>
<!-- Node4&#45;&gt;Node5 -->
<g id="edge4" class="edge">
<title>Node4&#45;&gt;Node5</title>
<path fill="none" stroke="#63b8ff" d="M243.15,-470.86C238.88,-459.58 234.66,-448.4 230.76,-438.09"/>
<polygon fill="none" stroke="#63b8ff" points="239.93,-472.23 246.74,-480.35 246.48,-469.76 239.93,-472.23"/>
</g>
<!-- Node6 -->
<g id="node6" class="node">
<title>Node6</title>
<g id="a_node6"><a xlink:href="classNAV_1_1KvhObs.html" target="_top" xlink:title="Kvh Observation storage Class.">
<polygon fill="white" stroke="#666666" points="288.5,-331.5 288.5,-443.5 401.5,-443.5 401.5,-331.5 288.5,-331.5"/>
<text text-anchor="middle" x="345" y="-431.5" font-family="Helvetica,sans-Serif" font-size="10.00">NAV::KvhObs</text>
<polyline fill="none" stroke="#666666" points="288.5,-424.5 401.5,-424.5 "/>
<text text-anchor="start" x="296.5" y="-412.5" font-family="Helvetica,sans-Serif" font-size="10.00">+ raw</text>
<text text-anchor="start" x="296.5" y="-401.5" font-family="Helvetica,sans-Serif" font-size="10.00">+ sequenceNumber</text>
<text text-anchor="start" x="296.5" y="-390.5" font-family="Helvetica,sans-Serif" font-size="10.00">+ status</text>
<polyline fill="none" stroke="#666666" points="288.5,-383.5 401.5,-383.5 "/>
<text text-anchor="start" x="296.5" y="-371.5" font-family="Helvetica,sans-Serif" font-size="10.00">+ KvhObs()</text>
<text text-anchor="start" x="296.5" y="-360.5" font-family="Helvetica,sans-Serif" font-size="10.00">+ KvhObs()</text>
<text text-anchor="start" x="296.5" y="-349.5" font-family="Helvetica,sans-Serif" font-size="10.00">+ parentTypes()</text>
<text text-anchor="start" x="296.5" y="-338.5" font-family="Helvetica,sans-Serif" font-size="10.00">+ type()</text>
</a>
</g>
</g>
<!-- Node4&#45;&gt;Node6 -->
<g id="edge5" class="edge">
<title>Node4&#45;&gt;Node6</title>
<path fill="none" stroke="#63b8ff" d="M313.4,-470.8C316.91,-461.65 320.4,-452.57 323.7,-443.97"/>
<polygon fill="none" stroke="#63b8ff" points="310.05,-469.76 309.73,-480.35 316.59,-472.27 310.05,-469.76"/>
</g>
<!-- Node9 -->
<g id="node9" class="node">
<title>Node9</title>
<g id="a_node9"><a xlink:href="classNAV_1_1PosVel.html" target="_top" xlink:title="Position, Velocity and Attitude Storage Class.">
<polygon fill="white" stroke="#666666" points="504.5,-331.5 504.5,-443.5 605.5,-443.5 605.5,-331.5 504.5,-331.5"/>
<text text-anchor="middle" x="555" y="-431.5" font-family="Helvetica,sans-Serif" font-size="10.00">NAV::PosVel</text>
<polyline fill="none" stroke="#666666" points="504.5,-424.5 605.5,-424.5 "/>
<text text-anchor="middle" x="555" y="-412.5" font-family="Helvetica,sans-Serif" font-size="10.00"> </text>
<polyline fill="none" stroke="#666666" points="504.5,-405.5 605.5,-405.5 "/>
<text text-anchor="start" x="512.5" y="-393.5" font-family="Helvetica,sans-Serif" font-size="10.00">+ e_velocity()</text>
<text text-anchor="start" x="512.5" y="-382.5" font-family="Helvetica,sans-Serif" font-size="10.00">+ n_velocity()</text>
<text text-anchor="start" x="512.5" y="-371.5" font-family="Helvetica,sans-Serif" font-size="10.00">+ setVelocity_e()</text>
<text text-anchor="start" x="512.5" y="-360.5" font-family="Helvetica,sans-Serif" font-size="10.00">+ setVelocity_n()</text>
<text text-anchor="start" x="512.5" y="-349.5" font-family="Helvetica,sans-Serif" font-size="10.00">+ parentTypes()</text>
<text text-anchor="start" x="512.5" y="-338.5" font-family="Helvetica,sans-Serif" font-size="10.00">+ type()</text>
</a>
</g>
</g>
<!-- Node8&#45;&gt;Node9 -->
<g id="edge8" class="edge">
<title>Node8&#45;&gt;Node9</title>
<path fill="none" stroke="#63b8ff" d="M555,-470.23C555,-461.27 555,-452.39 555,-443.97"/>
<polygon fill="none" stroke="#63b8ff" points="551.5,-470.35 555,-480.35 558.5,-470.35 551.5,-470.35"/>
</g>
<!-- Node10 -->
<g id="node10" class="node">
<title>Node10</title>
<g id="a_node10"><a xlink:href="classNAV_1_1PosVelAtt.html" target="_top" xlink:title="Position, Velocity and Attitude Storage Class.">
<polygon fill="white" stroke="#666666" points="343,-116.5 343,-283.5 483,-283.5 483,-116.5 343,-116.5"/>
<text text-anchor="middle" x="413" y="-271.5" font-family="Helvetica,sans-Serif" font-size="10.00">NAV::PosVelAtt</text>
<polyline fill="none" stroke="#666666" points="343,-264.5 483,-264.5 "/>
<text text-anchor="middle" x="413" y="-252.5" font-family="Helvetica,sans-Serif" font-size="10.00"> </text>
<polyline fill="none" stroke="#666666" points="343,-245.5 483,-245.5 "/>
<text text-anchor="start" x="351" y="-233.5" font-family="Helvetica,sans-Serif" font-size="10.00">+ b_Quat_e()</text>
<text text-anchor="start" x="351" y="-222.5" font-family="Helvetica,sans-Serif" font-size="10.00">+ b_Quat_n()</text>
<text text-anchor="start" x="351" y="-211.5" font-family="Helvetica,sans-Serif" font-size="10.00">+ e_Quat_b()</text>
<text text-anchor="start" x="351" y="-200.5" font-family="Helvetica,sans-Serif" font-size="10.00">+ n_Quat_b()</text>
<text text-anchor="start" x="351" y="-189.5" font-family="Helvetica,sans-Serif" font-size="10.00">+ rollPitchYaw()</text>
<text text-anchor="start" x="351" y="-178.5" font-family="Helvetica,sans-Serif" font-size="10.00">+ setAttitude_e_Quat_b()</text>
<text text-anchor="start" x="351" y="-167.5" font-family="Helvetica,sans-Serif" font-size="10.00">+ setAttitude_n_Quat_b()</text>
<text text-anchor="start" x="351" y="-156.5" font-family="Helvetica,sans-Serif" font-size="10.00">+ setState_e()</text>
<text text-anchor="start" x="351" y="-145.5" font-family="Helvetica,sans-Serif" font-size="10.00">+ setState_n()</text>
<text text-anchor="start" x="351" y="-134.5" font-family="Helvetica,sans-Serif" font-size="10.00">+ parentTypes()</text>
<text text-anchor="start" x="351" y="-123.5" font-family="Helvetica,sans-Serif" font-size="10.00">+ type()</text>
</a>
</g>
</g>
<!-- Node9&#45;&gt;Node10 -->
<g id="edge9" class="edge">
<title>Node9&#45;&gt;Node10</title>
<path fill="none" stroke="#63b8ff" d="M506.5,-323.15C496.8,-310.47 486.47,-296.98 476.35,-283.76"/>
<polygon fill="none" stroke="#63b8ff" points="503.92,-325.53 512.78,-331.35 509.48,-321.28 503.92,-325.53"/>
</g>
<!-- Node12 -->
<g id="node12" class="node">
<title>Node12</title>
<g id="a_node12"><a xlink:href="classNAV_1_1RtklibPosObs.html" target="_top" xlink:title="RTKLIB Observation Class.">
<polygon fill="white" stroke="#666666" points="501.5,-111 501.5,-289 608.5,-289 608.5,-111 501.5,-111"/>
<text text-anchor="middle" x="555" y="-277" font-family="Helvetica,sans-Serif" font-size="10.00">NAV::RtklibPosObs</text>
<polyline fill="none" stroke="#666666" points="501.5,-270 608.5,-270 "/>
<text text-anchor="start" x="509.5" y="-258" font-family="Helvetica,sans-Serif" font-size="10.00">+ age</text>
<text text-anchor="start" x="509.5" y="-247" font-family="Helvetica,sans-Serif" font-size="10.00">+ ns</text>
<text text-anchor="start" x="509.5" y="-236" font-family="Helvetica,sans-Serif" font-size="10.00">+ Q</text>
<text text-anchor="start" x="509.5" y="-225" font-family="Helvetica,sans-Serif" font-size="10.00">+ ratio</text>
<text text-anchor="start" x="509.5" y="-214" font-family="Helvetica,sans-Serif" font-size="10.00">+ sddn</text>
<text text-anchor="start" x="509.5" y="-203" font-family="Helvetica,sans-Serif" font-size="10.00">+ sded</text>
<text text-anchor="start" x="509.5" y="-192" font-family="Helvetica,sans-Serif" font-size="10.00">+ sdne</text>
<text text-anchor="start" x="509.5" y="-181" font-family="Helvetica,sans-Serif" font-size="10.00">+ sdNED</text>
<text text-anchor="start" x="509.5" y="-170" font-family="Helvetica,sans-Serif" font-size="10.00">+ sdvdn</text>
<text text-anchor="start" x="509.5" y="-159" font-family="Helvetica,sans-Serif" font-size="10.00">+ sdved</text>
<text text-anchor="start" x="509.5" y="-148" font-family="Helvetica,sans-Serif" font-size="10.00">and 6 more...</text>
<polyline fill="none" stroke="#666666" points="501.5,-141 608.5,-141 "/>
<text text-anchor="start" x="509.5" y="-129" font-family="Helvetica,sans-Serif" font-size="10.00">+ parentTypes()</text>
<text text-anchor="start" x="509.5" y="-118" font-family="Helvetica,sans-Serif" font-size="10.00">+ type()</text>
</a>
</g>
</g>
<!-- Node9&#45;&gt;Node12 -->
<g id="edge11" class="edge">
<title>Node9&#45;&gt;Node12</title>
<path fill="none" stroke="#63b8ff" d="M555,-321.2C555,-310.88 555,-300.05 555,-289.3"/>
<polygon fill="none" stroke="#63b8ff" points="551.5,-321.35 555,-331.35 558.5,-321.35 551.5,-321.35"/>
</g>
<!-- Node13 -->
<g id="node13" class="node">
<title>Node13</title>
<g id="a_node13"><a xlink:href="classNAV_1_1SppSolution.html" target="_top" xlink:title="SPP Algorithm output.">
<polygon fill="white" stroke="#666666" points="626.5,-105.5 626.5,-294.5 781.5,-294.5 781.5,-105.5 626.5,-105.5"/>
<text text-anchor="middle" x="704" y="-282.5" font-family="Helvetica,sans-Serif" font-size="10.00">NAV::SppSolution</text>
<polyline fill="none" stroke="#666666" points="626.5,-275.5 781.5,-275.5 "/>
<text text-anchor="start" x="634.5" y="-263.5" font-family="Helvetica,sans-Serif" font-size="10.00">+ clkBias</text>
<text text-anchor="start" x="634.5" y="-252.5" font-family="Helvetica,sans-Serif" font-size="10.00">+ clkBiasStdev</text>
<text text-anchor="start" x="634.5" y="-241.5" font-family="Helvetica,sans-Serif" font-size="10.00">+ clkDrift</text>
<text text-anchor="start" x="634.5" y="-230.5" font-family="Helvetica,sans-Serif" font-size="10.00">+ clkDriftStdev</text>
<text text-anchor="start" x="634.5" y="-219.5" font-family="Helvetica,sans-Serif" font-size="10.00">+ nSatellitesPosition</text>
<text text-anchor="start" x="634.5" y="-208.5" font-family="Helvetica,sans-Serif" font-size="10.00">+ nSatellitesVelocity</text>
<polyline fill="none" stroke="#666666" points="626.5,-201.5 781.5,-201.5 "/>
<text text-anchor="start" x="634.5" y="-189.5" font-family="Helvetica,sans-Serif" font-size="10.00">+ e_positionStdev()</text>
<text text-anchor="start" x="634.5" y="-178.5" font-family="Helvetica,sans-Serif" font-size="10.00">+ e_velocityStdev()</text>
<text text-anchor="start" x="634.5" y="-167.5" font-family="Helvetica,sans-Serif" font-size="10.00">+ n_positionStdev()</text>
<text text-anchor="start" x="634.5" y="-156.5" font-family="Helvetica,sans-Serif" font-size="10.00">+ n_velocityStdev()</text>
<text text-anchor="start" x="634.5" y="-145.5" font-family="Helvetica,sans-Serif" font-size="10.00">+ setPositionAndStdDev_e()</text>
<text text-anchor="start" x="634.5" y="-134.5" font-family="Helvetica,sans-Serif" font-size="10.00">+ setVelocityAndStdDev_e()</text>
<text text-anchor="start" x="634.5" y="-123.5" font-family="Helvetica,sans-Serif" font-size="10.00">+ parentTypes()</text>
<text text-anchor="start" x="634.5" y="-112.5" font-family="Helvetica,sans-Serif" font-size="10.00">+ type()</text>
</a>
</g>
</g>
<!-- Node9&#45;&gt;Node13 -->
<g id="edge12" class="edge">
<title>Node9&#45;&gt;Node13</title>
<path fill="none" stroke="#63b8ff" d="M605.77,-323.3C613.24,-314 621.06,-304.26 628.9,-294.5"/>
<polygon fill="none" stroke="#63b8ff" points="602.84,-321.36 599.3,-331.35 608.29,-325.74 602.84,-321.36"/>
</g>
<!-- Node11 -->
<g id="node11" class="node">
<title>Node11</title>
<g id="a_node11"><a xlink:href="classNAV_1_1InertialNavSol.html" target="_top" xlink:title="Position, Velocity and Attitude Storage Class.">
<polygon fill="white" stroke="#666666" points="357.5,-0.5 357.5,-68.5 468.5,-68.5 468.5,-0.5 357.5,-0.5"/>
<text text-anchor="middle" x="413" y="-56.5" font-family="Helvetica,sans-Serif" font-size="10.00">NAV::InertialNavSol</text>
<polyline fill="none" stroke="#666666" points="357.5,-49.5 468.5,-49.5 "/>
<text text-anchor="start" x="365.5" y="-37.5" font-family="Helvetica,sans-Serif" font-size="10.00">+ imuObs</text>
<polyline fill="none" stroke="#666666" points="357.5,-30.5 468.5,-30.5 "/>
<text text-anchor="start" x="365.5" y="-18.5" font-family="Helvetica,sans-Serif" font-size="10.00">+ parentTypes()</text>
<text text-anchor="start" x="365.5" y="-7.5" font-family="Helvetica,sans-Serif" font-size="10.00">+ type()</text>
</a>
</g>
</g>
<!-- Node10&#45;&gt;Node11 -->
<g id="edge10" class="edge">
<title>Node10&#45;&gt;Node11</title>
<path fill="none" stroke="#63b8ff" d="M413,-105.99C413,-92.6 413,-79.62 413,-68.52"/>
<polygon fill="none" stroke="#63b8ff" points="409.5,-106.29 413,-116.29 416.5,-106.29 409.5,-106.29"/>
</g>
</g>
</svg>
