<?xml version="1.0" encoding="UTF-8"?>
<svg xmlns="http://www.w3.org/2000/svg" xmlns:xlink="http://www.w3.org/1999/xlink" width="6" height="8" viewBox="0 0 6 8">
<defs>
<g>
<g id="glyph-0-0">
<path d="M 4.453125 -6.375 L 5.25 -6.375 L 5.25 -6.84375 C 4.90625 -6.8125 4.0625 -6.8125 3.671875 -6.8125 C 3.140625 -6.8125 2.15625 -6.8125 1.6875 -6.84375 L 1.6875 -6.375 L 3.09375 -6.375 L 3.09375 -1.484375 C 3.09375 -1.296875 3.09375 -0.25 2.109375 -0.25 C 1.9375 -0.25 1.609375 -0.28125 1.3125 -0.40625 L 1.3125 -0.421875 C 1.3125 -0.421875 1.75 -0.609375 1.75 -1.140625 C 1.75 -1.671875 1.328125 -1.90625 1 -1.90625 C 0.625 -1.90625 0.234375 -1.65625 0.234375 -1.140625 C 0.234375 -0.375 1.015625 0.109375 2.15625 0.109375 C 3.484375 0.109375 4.453125 -0.453125 4.453125 -1.5 Z M 4.453125 -6.375 "/>
</g>
</g>
</defs>
<g fill="rgb(0%, 0%, 0%)" fill-opacity="1">
<use xlink:href="#glyph-0-0" x="0.04" y="7.06"/>
</g>
</svg>
