<?xml version="1.0" encoding="UTF-8"?>
<svg xmlns="http://www.w3.org/2000/svg" xmlns:xlink="http://www.w3.org/1999/xlink" width="379" height="13" viewBox="0 0 379 13">
<defs>
<g>
<g id="glyph-0-0">
<path d="M 5.8125 -4.015625 C 5.921875 -4.125 5.921875 -4.140625 5.921875 -4.171875 C 5.921875 -4.234375 5.875 -4.296875 5.796875 -4.296875 C 5.734375 -4.296875 5.703125 -4.25 5.640625 -4.171875 L 3.359375 -1.640625 C 2.953125 -2.90625 2.875 -3.15625 2.65625 -3.671875 C 2.546875 -3.90625 2.328125 -4.40625 1.453125 -4.40625 C 0.875 -4.40625 0.609375 -3.890625 0.609375 -3.75 C 0.609375 -3.734375 0.609375 -3.65625 0.734375 -3.65625 C 0.8125 -3.65625 0.84375 -3.703125 0.859375 -3.765625 C 1 -4.140625 1.328125 -4.1875 1.390625 -4.1875 C 1.6875 -4.1875 1.984375 -3.421875 2.15625 -2.984375 C 2.46875 -2.203125 2.796875 -1.046875 2.796875 -1.015625 C 2.796875 -1 2.796875 -0.984375 2.71875 -0.90625 L 0.421875 1.65625 C 0.3125 1.765625 0.3125 1.78125 0.3125 1.8125 C 0.3125 1.875 0.375 1.9375 0.421875 1.9375 C 0.5 1.9375 0.546875 1.859375 0.59375 1.828125 L 2.875 -0.734375 C 3.1875 0.296875 3.3125 0.6875 3.546875 1.25 C 3.671875 1.546875 3.890625 2.046875 4.78125 2.046875 C 5.359375 2.046875 5.625 1.53125 5.625 1.390625 C 5.625 1.34375 5.609375 1.28125 5.515625 1.28125 C 5.40625 1.28125 5.40625 1.328125 5.375 1.421875 C 5.28125 1.671875 5.03125 1.828125 4.84375 1.828125 C 4.34375 1.828125 3.65625 -0.59375 3.4375 -1.359375 Z M 5.8125 -4.015625 "/>
</g>
<g id="glyph-1-0">
<path d="M 3.515625 -1.265625 L 3.28125 -1.265625 C 3.265625 -1.109375 3.1875 -0.703125 3.09375 -0.640625 C 3.046875 -0.59375 2.515625 -0.59375 2.40625 -0.59375 L 1.125 -0.59375 C 1.859375 -1.234375 2.109375 -1.4375 2.515625 -1.765625 C 3.03125 -2.171875 3.515625 -2.609375 3.515625 -3.265625 C 3.515625 -4.109375 2.78125 -4.625 1.890625 -4.625 C 1.03125 -4.625 0.4375 -4.015625 0.4375 -3.375 C 0.4375 -3.03125 0.734375 -2.984375 0.8125 -2.984375 C 0.96875 -2.984375 1.171875 -3.109375 1.171875 -3.359375 C 1.171875 -3.484375 1.125 -3.734375 0.765625 -3.734375 C 0.984375 -4.21875 1.453125 -4.375 1.78125 -4.375 C 2.484375 -4.375 2.84375 -3.828125 2.84375 -3.265625 C 2.84375 -2.65625 2.40625 -2.1875 2.1875 -1.9375 L 0.515625 -0.265625 C 0.4375 -0.203125 0.4375 -0.1875 0.4375 0 L 3.3125 0 Z M 3.515625 -1.265625 "/>
</g>
<g id="glyph-1-1">
<path d="M 2.328125 -4.4375 C 2.328125 -4.625 2.328125 -4.625 2.125 -4.625 C 1.671875 -4.1875 1.046875 -4.1875 0.765625 -4.1875 L 0.765625 -3.9375 C 0.921875 -3.9375 1.390625 -3.9375 1.765625 -4.125 L 1.765625 -0.578125 C 1.765625 -0.34375 1.765625 -0.25 1.078125 -0.25 L 0.8125 -0.25 L 0.8125 0 C 0.9375 0 1.796875 -0.03125 2.046875 -0.03125 C 2.265625 -0.03125 3.140625 0 3.296875 0 L 3.296875 -0.25 L 3.03125 -0.25 C 2.328125 -0.25 2.328125 -0.34375 2.328125 -0.578125 Z M 2.328125 -4.4375 "/>
</g>
<g id="glyph-2-0">
<path d="M 6.84375 -3.265625 C 7 -3.265625 7.1875 -3.265625 7.1875 -3.453125 C 7.1875 -3.65625 7 -3.65625 6.859375 -3.65625 L 0.890625 -3.65625 C 0.75 -3.65625 0.5625 -3.65625 0.5625 -3.453125 C 0.5625 -3.265625 0.75 -3.265625 0.890625 -3.265625 Z M 6.859375 -1.328125 C 7 -1.328125 7.1875 -1.328125 7.1875 -1.53125 C 7.1875 -1.71875 7 -1.71875 6.84375 -1.71875 L 0.890625 -1.71875 C 0.75 -1.71875 0.5625 -1.71875 0.5625 -1.53125 C 0.5625 -1.328125 0.75 -1.328125 0.890625 -1.328125 Z M 6.859375 -1.328125 "/>
</g>
<g id="glyph-2-1">
<path d="M 3.296875 2.390625 C 3.296875 2.359375 3.296875 2.34375 3.125 2.171875 C 1.890625 0.921875 1.5625 -0.96875 1.5625 -2.5 C 1.5625 -4.234375 1.9375 -5.96875 3.171875 -7.203125 C 3.296875 -7.328125 3.296875 -7.34375 3.296875 -7.375 C 3.296875 -7.453125 3.265625 -7.484375 3.203125 -7.484375 C 3.09375 -7.484375 2.203125 -6.796875 1.609375 -5.53125 C 1.109375 -4.4375 0.984375 -3.328125 0.984375 -2.5 C 0.984375 -1.71875 1.09375 -0.515625 1.640625 0.625 C 2.25 1.84375 3.09375 2.5 3.203125 2.5 C 3.265625 2.5 3.296875 2.46875 3.296875 2.390625 Z M 3.296875 2.390625 "/>
</g>
<g id="glyph-2-2">
<path d="M 2.875 -2.5 C 2.875 -3.265625 2.765625 -4.46875 2.21875 -5.609375 C 1.625 -6.828125 0.765625 -7.484375 0.671875 -7.484375 C 0.609375 -7.484375 0.5625 -7.4375 0.5625 -7.375 C 0.5625 -7.34375 0.5625 -7.328125 0.75 -7.140625 C 1.734375 -6.15625 2.296875 -4.578125 2.296875 -2.5 C 2.296875 -0.78125 1.9375 0.96875 0.703125 2.21875 C 0.5625 2.34375 0.5625 2.359375 0.5625 2.390625 C 0.5625 2.453125 0.609375 2.5 0.671875 2.5 C 0.765625 2.5 1.671875 1.8125 2.25 0.546875 C 2.765625 -0.546875 2.875 -1.65625 2.875 -2.5 Z M 2.875 -2.5 "/>
</g>
<g id="glyph-2-3">
<path d="M 1.265625 -0.765625 L 2.328125 -1.796875 C 3.875 -3.171875 4.46875 -3.703125 4.46875 -4.703125 C 4.46875 -5.84375 3.578125 -6.640625 2.359375 -6.640625 C 1.234375 -6.640625 0.5 -5.71875 0.5 -4.828125 C 0.5 -4.28125 1 -4.28125 1.03125 -4.28125 C 1.203125 -4.28125 1.546875 -4.390625 1.546875 -4.8125 C 1.546875 -5.0625 1.359375 -5.328125 1.015625 -5.328125 C 0.9375 -5.328125 0.921875 -5.328125 0.890625 -5.3125 C 1.109375 -5.96875 1.65625 -6.328125 2.234375 -6.328125 C 3.140625 -6.328125 3.5625 -5.515625 3.5625 -4.703125 C 3.5625 -3.90625 3.078125 -3.125 2.515625 -2.5 L 0.609375 -0.375 C 0.5 -0.265625 0.5 -0.234375 0.5 0 L 4.203125 0 L 4.46875 -1.734375 L 4.234375 -1.734375 C 4.171875 -1.4375 4.109375 -1 4 -0.84375 C 3.9375 -0.765625 3.28125 -0.765625 3.0625 -0.765625 Z M 1.265625 -0.765625 "/>
</g>
<g id="glyph-2-4">
<path d="M 1.3125 -3.265625 L 1.3125 -3.515625 C 1.3125 -6.03125 2.546875 -6.390625 3.0625 -6.390625 C 3.296875 -6.390625 3.71875 -6.328125 3.9375 -5.984375 C 3.78125 -5.984375 3.390625 -5.984375 3.390625 -5.546875 C 3.390625 -5.234375 3.625 -5.078125 3.84375 -5.078125 C 4 -5.078125 4.3125 -5.171875 4.3125 -5.5625 C 4.3125 -6.15625 3.875 -6.640625 3.046875 -6.640625 C 1.765625 -6.640625 0.421875 -5.359375 0.421875 -3.15625 C 0.421875 -0.484375 1.578125 0.21875 2.5 0.21875 C 3.609375 0.21875 4.5625 -0.71875 4.5625 -2.03125 C 4.5625 -3.296875 3.671875 -4.25 2.5625 -4.25 C 1.890625 -4.25 1.515625 -3.75 1.3125 -3.265625 Z M 2.5 -0.0625 C 1.875 -0.0625 1.578125 -0.65625 1.515625 -0.8125 C 1.328125 -1.28125 1.328125 -2.078125 1.328125 -2.25 C 1.328125 -3.03125 1.65625 -4.03125 2.546875 -4.03125 C 2.71875 -4.03125 3.171875 -4.03125 3.484375 -3.40625 C 3.65625 -3.046875 3.65625 -2.53125 3.65625 -2.046875 C 3.65625 -1.5625 3.65625 -1.0625 3.484375 -0.703125 C 3.1875 -0.109375 2.734375 -0.0625 2.5 -0.0625 Z M 2.5 -0.0625 "/>
</g>
<g id="glyph-3-0">
<path d="M 1.578125 -7.125 C 1.578125 -7.296875 1.578125 -7.484375 1.390625 -7.484375 C 1.1875 -7.484375 1.1875 -7.296875 1.1875 -7.125 L 1.1875 2.140625 C 1.1875 2.3125 1.1875 2.5 1.390625 2.5 C 1.578125 2.5 1.578125 2.3125 1.578125 2.140625 Z M 1.578125 -7.125 "/>
</g>
<g id="glyph-3-1">
<path d="M 6.5625 -2.296875 C 6.734375 -2.296875 6.921875 -2.296875 6.921875 -2.5 C 6.921875 -2.6875 6.734375 -2.6875 6.5625 -2.6875 L 1.171875 -2.6875 C 1 -2.6875 0.828125 -2.6875 0.828125 -2.5 C 0.828125 -2.296875 1 -2.296875 1.171875 -2.296875 Z M 6.5625 -2.296875 "/>
</g>
<g id="glyph-4-0">
<path d="M 2.859375 -6.921875 L 1.296875 -5.65625 L 1.578125 -5.28125 L 2.859375 -6.09375 L 4.140625 -5.28125 L 4.421875 -5.65625 Z M 2.859375 -6.921875 "/>
</g>
<g id="glyph-4-1">
<path d="M 2.859375 -5.984375 L 1.546875 -6.515625 L 1.328125 -6.09375 L 2.859375 -5.15625 L 4.390625 -6.09375 L 4.171875 -6.515625 Z M 2.859375 -5.984375 "/>
</g>
<g id="glyph-4-2">
<path d="M 5.90625 -0.171875 C 7.53125 -0.8125 7.96875 -2.296875 7.96875 -3.375 C 7.96875 -5.53125 6.515625 -6.953125 4.3125 -6.953125 C 2.03125 -6.953125 0.640625 -5.46875 0.640625 -3.375 C 0.640625 -1.34375 2 0.109375 4.3125 0.109375 C 4.53125 0.109375 4.859375 0.09375 5.25 0.015625 C 5.53125 1.140625 5.734375 1.9375 6.65625 1.9375 C 7.671875 1.9375 8.03125 0.75 8.03125 0.078125 C 8.03125 0 8.03125 -0.171875 7.84375 -0.171875 C 7.703125 -0.171875 7.671875 -0.046875 7.671875 0.015625 C 7.609375 0.40625 6.984375 0.40625 6.8125 0.40625 C 6.59375 0.40625 6.296875 0.40625 5.90625 -0.171875 Z M 3.359375 -0.515625 C 2.140625 -1.09375 2.109375 -2.609375 2.109375 -3.390625 C 2.109375 -3.78125 2.109375 -4.734375 2.46875 -5.4375 C 2.984375 -6.40625 3.84375 -6.546875 4.296875 -6.546875 C 4.828125 -6.546875 5.609375 -6.34375 6.09375 -5.5 C 6.46875 -4.828125 6.5 -3.984375 6.5 -3.390625 C 6.5 -2.828125 6.5 -1.34375 5.546875 -0.6875 C 5.328125 -1.015625 4.96875 -1.546875 4.296875 -1.546875 C 3.78125 -1.546875 3.328125 -1.203125 3.328125 -0.734375 C 3.328125 -0.671875 3.34375 -0.5625 3.359375 -0.515625 Z M 5.125 -0.453125 C 4.875 -0.34375 4.578125 -0.296875 4.3125 -0.296875 C 3.765625 -0.296875 3.6875 -0.609375 3.6875 -0.734375 C 3.6875 -1 3.984375 -1.1875 4.3125 -1.1875 C 4.578125 -1.1875 4.921875 -1.078125 5.125 -0.453125 Z M 5.125 -0.453125 "/>
</g>
<g id="glyph-5-0">
<path d="M 2.40625 -3.40625 C 2.546875 -3.40625 2.671875 -3.40625 2.8125 -3.40625 C 3.203125 -3.421875 3.703125 -3.453125 4.09375 -3.46875 C 3.8125 -3.203125 3.65625 -3.046875 2.65625 -2.28125 C 0.640625 -0.75 0.421875 -0.09375 0.421875 -0.0625 C 0.421875 0.078125 0.5625 0.078125 0.640625 0.078125 C 0.8125 0.078125 0.8125 0.0625 0.890625 -0.03125 C 1.25 -0.53125 1.609375 -0.59375 1.78125 -0.59375 C 2.046875 -0.59375 2.265625 -0.421875 2.421875 -0.3125 C 2.734375 -0.09375 2.984375 0.078125 3.359375 0.078125 C 4.46875 0.078125 5.203125 -1.140625 5.203125 -1.515625 C 5.203125 -1.65625 5.03125 -1.65625 4.96875 -1.65625 C 4.890625 -1.65625 4.78125 -1.65625 4.75 -1.5625 C 4.671875 -1.375 4.5625 -1.125 3.890625 -1.046875 C 3.84375 -1.03125 1.890625 -0.953125 1.671875 -0.953125 C 1.953125 -1.21875 2.109375 -1.375 3.125 -2.140625 C 5.140625 -3.671875 5.359375 -4.328125 5.359375 -4.359375 C 5.359375 -4.5 5.21875 -4.5 5.140625 -4.5 C 4.984375 -4.5 4.96875 -4.5 4.90625 -4.40625 C 4.671875 -4.0625 4.46875 -3.828125 4.234375 -3.828125 C 3.984375 -3.828125 3.765625 -3.984375 3.53125 -4.140625 C 3.296875 -4.328125 3.046875 -4.5 2.671875 -4.5 C 1.796875 -4.5 1.21875 -3.625 1.21875 -3.3125 C 1.21875 -3.171875 1.390625 -3.171875 1.46875 -3.171875 C 1.5625 -3.171875 1.671875 -3.171875 1.6875 -3.296875 C 1.828125 -3.375 1.90625 -3.375 2.203125 -3.40625 Z M 2.40625 -3.40625 "/>
</g>
<g id="glyph-6-0">
<path d="M 1.328125 -0.546875 C 1.265625 -0.3125 1.25 -0.25 0.703125 -0.25 C 0.59375 -0.25 0.5 -0.25 0.5 -0.109375 C 0.5 0 0.578125 0 0.703125 0 L 3.40625 0 C 4.578125 0 5.484375 -0.796875 5.484375 -1.484375 C 5.484375 -1.984375 5.03125 -2.40625 4.28125 -2.484375 C 5.125 -2.640625 5.828125 -3.171875 5.828125 -3.765625 C 5.828125 -4.296875 5.296875 -4.765625 4.390625 -4.765625 L 1.859375 -4.765625 C 1.71875 -4.765625 1.625 -4.765625 1.625 -4.609375 C 1.625 -4.515625 1.71875 -4.515625 1.859375 -4.515625 C 1.859375 -4.515625 2 -4.515625 2.125 -4.5 C 2.265625 -4.484375 2.28125 -4.46875 2.28125 -4.390625 C 2.28125 -4.390625 2.28125 -4.34375 2.25 -4.25 Z M 2.4375 -2.578125 L 2.859375 -4.265625 C 2.921875 -4.484375 2.921875 -4.515625 3.21875 -4.515625 L 4.28125 -4.515625 C 4.984375 -4.515625 5.15625 -4.046875 5.15625 -3.78125 C 5.15625 -3.21875 4.515625 -2.578125 3.578125 -2.578125 Z M 2.109375 -0.25 C 1.890625 -0.25 1.875 -0.265625 1.875 -0.328125 C 1.875 -0.328125 1.875 -0.359375 1.90625 -0.46875 L 2.390625 -2.375 L 3.875 -2.375 C 4.515625 -2.375 4.78125 -1.9375 4.78125 -1.546875 C 4.78125 -0.84375 4.0625 -0.25 3.21875 -0.25 Z M 2.109375 -0.25 "/>
</g>
<g id="glyph-6-1">
<path d="M 3.390625 -4.21875 C 3.4375 -4.421875 3.453125 -4.4375 3.609375 -4.453125 C 3.640625 -4.453125 3.875 -4.453125 4.015625 -4.453125 C 4.453125 -4.453125 4.625 -4.453125 4.796875 -4.40625 C 5.109375 -4.3125 5.125 -4.109375 5.125 -3.859375 C 5.125 -3.75 5.125 -3.65625 5.078125 -3.296875 L 5.0625 -3.21875 C 5.0625 -3.140625 5.109375 -3.109375 5.1875 -3.109375 C 5.296875 -3.109375 5.296875 -3.171875 5.3125 -3.28125 L 5.5 -4.609375 C 5.5 -4.703125 5.421875 -4.703125 5.296875 -4.703125 L 1.015625 -4.703125 C 0.84375 -4.703125 0.828125 -4.703125 0.78125 -4.5625 L 0.328125 -3.328125 C 0.328125 -3.296875 0.296875 -3.234375 0.296875 -3.203125 C 0.296875 -3.171875 0.3125 -3.109375 0.421875 -3.109375 C 0.515625 -3.109375 0.515625 -3.140625 0.5625 -3.28125 C 0.96875 -4.390625 1.203125 -4.453125 2.265625 -4.453125 L 2.546875 -4.453125 C 2.765625 -4.453125 2.765625 -4.453125 2.765625 -4.390625 C 2.765625 -4.390625 2.765625 -4.34375 2.734375 -4.25 L 1.8125 -0.578125 C 1.75 -0.328125 1.734375 -0.25 1 -0.25 C 0.75 -0.25 0.6875 -0.25 0.6875 -0.09375 C 0.6875 -0.078125 0.703125 0 0.8125 0 C 1 0 1.21875 -0.015625 1.40625 -0.015625 C 1.609375 -0.015625 1.8125 -0.03125 2 -0.03125 C 2.203125 -0.03125 2.4375 -0.03125 2.640625 -0.015625 C 2.828125 -0.015625 3.03125 0 3.21875 0 C 3.28125 0 3.375 0 3.375 -0.15625 C 3.375 -0.25 3.3125 -0.25 3.09375 -0.25 C 2.96875 -0.25 2.828125 -0.265625 2.6875 -0.265625 C 2.453125 -0.28125 2.4375 -0.3125 2.4375 -0.390625 C 2.4375 -0.453125 2.4375 -0.453125 2.46875 -0.5625 Z M 3.390625 -4.21875 "/>
</g>
<g id="glyph-6-2">
<path d="M 1.171875 -0.609375 C 1.359375 -0.796875 1.484375 -0.921875 2.0625 -1.40625 C 2.21875 -1.515625 2.734375 -1.9375 2.9375 -2.125 C 3.359375 -2.546875 3.625 -2.90625 3.625 -2.984375 C 3.625 -3.078125 3.546875 -3.078125 3.515625 -3.078125 C 3.453125 -3.078125 3.421875 -3.0625 3.390625 -3 C 3.171875 -2.6875 3.03125 -2.578125 2.859375 -2.578125 C 2.78125 -2.578125 2.671875 -2.578125 2.46875 -2.78125 C 2.234375 -3.03125 2.078125 -3.078125 1.921875 -3.078125 C 1.359375 -3.078125 0.984375 -2.46875 0.984375 -2.265625 C 0.984375 -2.1875 1.046875 -2.171875 1.09375 -2.171875 C 1.1875 -2.171875 1.203125 -2.1875 1.21875 -2.265625 C 1.328125 -2.515625 1.71875 -2.53125 1.828125 -2.53125 C 2 -2.53125 2.171875 -2.484375 2.265625 -2.46875 C 2.65625 -2.390625 2.703125 -2.390625 2.875 -2.390625 C 2.703125 -2.1875 2.578125 -2.0625 1.90625 -1.546875 C 1.359375 -1.109375 1.171875 -0.9375 1.046875 -0.796875 C 0.625 -0.390625 0.421875 -0.078125 0.421875 -0.015625 C 0.421875 0.0625 0.515625 0.0625 0.546875 0.0625 C 0.609375 0.0625 0.625 0.0625 0.65625 0 C 0.84375 -0.265625 1.0625 -0.421875 1.296875 -0.421875 C 1.390625 -0.421875 1.484375 -0.421875 1.671875 -0.25 C 1.890625 -0.03125 2.03125 0.0625 2.265625 0.0625 C 3 0.0625 3.46875 -0.78125 3.46875 -1.015625 C 3.46875 -1.09375 3.390625 -1.09375 3.359375 -1.09375 C 3.265625 -1.09375 3.25 -1.0625 3.21875 -0.984375 C 3.09375 -0.640625 2.6875 -0.46875 2.34375 -0.46875 C 2.1875 -0.46875 2 -0.515625 1.828125 -0.546875 C 1.515625 -0.625 1.453125 -0.625 1.328125 -0.625 C 1.3125 -0.625 1.21875 -0.625 1.171875 -0.609375 Z M 1.171875 -0.609375 "/>
</g>
<g id="glyph-7-0">
<path d="M 4.65625 -0.125 C 5.9375 -0.609375 6.21875 -1.671875 6.21875 -2.359375 C 6.21875 -3.734375 5.25 -4.859375 3.375 -4.859375 C 1.453125 -4.859375 0.515625 -3.703125 0.515625 -2.359375 C 0.515625 -1.015625 1.5 0.078125 3.359375 0.078125 C 3.53125 0.078125 3.8125 0.078125 4.09375 0.015625 C 4.296875 0.703125 4.5 1.359375 5.203125 1.359375 C 5.90625 1.359375 6.265625 0.59375 6.265625 0.046875 C 6.265625 0 6.265625 -0.15625 6.109375 -0.15625 C 5.984375 -0.15625 5.96875 -0.03125 5.953125 0.015625 C 5.9375 0.140625 5.796875 0.21875 5.34375 0.21875 C 5.15625 0.21875 4.9375 0.21875 4.65625 -0.125 Z M 2.59375 -0.421875 C 1.65625 -0.8125 1.609375 -1.828125 1.609375 -2.359375 C 1.609375 -2.65625 1.625 -3.359375 1.953125 -3.828125 C 2.359375 -4.390625 2.953125 -4.515625 3.359375 -4.515625 C 3.84375 -4.515625 4.421875 -4.34375 4.78125 -3.828125 C 5.09375 -3.359375 5.125 -2.765625 5.125 -2.359375 C 5.125 -1.8125 5.0625 -0.953125 4.34375 -0.515625 C 4.078125 -0.8125 3.8125 -1.109375 3.359375 -1.109375 C 2.96875 -1.109375 2.59375 -0.890625 2.59375 -0.515625 C 2.59375 -0.453125 2.59375 -0.453125 2.59375 -0.421875 Z M 3.9375 -0.34375 C 3.90625 -0.328125 3.65625 -0.265625 3.375 -0.265625 C 3.296875 -0.265625 2.90625 -0.265625 2.90625 -0.515625 C 2.90625 -0.71875 3.1875 -0.796875 3.359375 -0.796875 C 3.609375 -0.796875 3.796875 -0.671875 3.9375 -0.34375 Z M 3.9375 -0.34375 "/>
</g>
<g id="glyph-8-0">
<path d="M 1.140625 -0.453125 C 1.34375 -0.640625 1.59375 -0.828125 1.875 -1.03125 C 2.21875 -1.265625 2.421875 -1.4375 2.640625 -1.625 C 2.890625 -1.859375 3.0625 -2.078125 3.0625 -2.140625 C 3.0625 -2.203125 2.984375 -2.203125 2.953125 -2.203125 C 2.875 -2.203125 2.875 -2.203125 2.84375 -2.140625 C 2.640625 -1.875 2.53125 -1.859375 2.453125 -1.859375 C 2.375 -1.859375 2.296875 -1.875 2.140625 -1.984375 C 1.96875 -2.125 1.859375 -2.203125 1.671875 -2.203125 C 1.21875 -2.203125 0.921875 -1.765625 0.921875 -1.609375 C 0.921875 -1.53125 0.984375 -1.53125 1.03125 -1.53125 C 1.078125 -1.53125 1.109375 -1.546875 1.125 -1.59375 C 1.15625 -1.65625 1.203125 -1.78125 1.59375 -1.78125 C 1.734375 -1.78125 1.84375 -1.765625 2.109375 -1.71875 C 2.28125 -1.6875 2.34375 -1.6875 2.4375 -1.6875 C 2.28125 -1.5625 2.140625 -1.4375 1.765625 -1.15625 C 1.40625 -0.90625 1.1875 -0.75 0.953125 -0.53125 C 0.75 -0.359375 0.515625 -0.078125 0.515625 -0.015625 C 0.515625 0.0625 0.59375 0.0625 0.625 0.0625 C 0.6875 0.0625 0.703125 0.046875 0.734375 0.015625 C 0.875 -0.1875 1.0625 -0.296875 1.234375 -0.296875 C 1.375 -0.296875 1.4375 -0.234375 1.625 -0.09375 C 1.765625 0 1.875 0.0625 2.015625 0.0625 C 2.609375 0.0625 2.984375 -0.53125 2.984375 -0.734375 C 2.984375 -0.8125 2.90625 -0.8125 2.875 -0.8125 C 2.796875 -0.8125 2.796875 -0.78125 2.765625 -0.734375 C 2.65625 -0.421875 2.265625 -0.375 2.078125 -0.375 C 1.96875 -0.375 1.84375 -0.390625 1.6875 -0.40625 C 1.421875 -0.453125 1.328125 -0.453125 1.265625 -0.453125 C 1.1875 -0.453125 1.171875 -0.453125 1.140625 -0.453125 Z M 1.140625 -0.453125 "/>
</g>
<g id="glyph-9-0">
<path d="M 5.1875 -1.578125 C 5.296875 -1.578125 5.46875 -1.578125 5.46875 -1.734375 C 5.46875 -1.921875 5.296875 -1.921875 5.1875 -1.921875 L 1.03125 -1.921875 C 0.921875 -1.921875 0.75 -1.921875 0.75 -1.75 C 0.75 -1.578125 0.90625 -1.578125 1.03125 -1.578125 Z M 5.1875 -1.578125 "/>
</g>
</g>
</defs>
<g fill="rgb(0%, 0%, 0%)" fill-opacity="1">
<use xlink:href="#glyph-0-0" x="0.44" y="9.06"/>
</g>
<g fill="rgb(0%, 0%, 0%)" fill-opacity="1">
<use xlink:href="#glyph-1-0" x="6.68023" y="4.86"/>
</g>
<g fill="rgb(0%, 0%, 0%)" fill-opacity="1">
<use xlink:href="#glyph-2-0" x="13.88023" y="9.06"/>
</g>
<g fill="rgb(0%, 0%, 0%)" fill-opacity="1">
<use xlink:href="#glyph-3-0" x="24.44043" y="9.06"/>
<use xlink:href="#glyph-3-0" x="27.200081" y="9.06"/>
</g>
<g fill="rgb(0%, 0%, 0%)" fill-opacity="1">
<use xlink:href="#glyph-4-0" x="30.68027" y="9.06"/>
</g>
<g fill="rgb(0%, 0%, 0%)" fill-opacity="1">
<use xlink:href="#glyph-5-0" x="29.960348" y="9.06"/>
</g>
<g fill="rgb(0%, 0%, 0%)" fill-opacity="1">
<use xlink:href="#glyph-3-1" x="38.120508" y="9.06"/>
</g>
<g fill="rgb(0%, 0%, 0%)" fill-opacity="1">
<use xlink:href="#glyph-4-1" x="48.800608" y="9.06"/>
</g>
<g fill="rgb(0%, 0%, 0%)" fill-opacity="1">
<use xlink:href="#glyph-5-0" x="48.080686" y="9.06"/>
</g>
<g fill="rgb(0%, 0%, 0%)" fill-opacity="1">
<use xlink:href="#glyph-6-0" x="53.959986" y="10.50023"/>
</g>
<g fill="rgb(0%, 0%, 0%)" fill-opacity="1">
<use xlink:href="#glyph-3-0" x="60.920146" y="9.06"/>
<use xlink:href="#glyph-3-0" x="63.679797" y="9.06"/>
</g>
<g fill="rgb(0%, 0%, 0%)" fill-opacity="1">
<use xlink:href="#glyph-1-0" x="66.440066" y="4.86"/>
</g>
<g fill="rgb(0%, 0%, 0%)" fill-opacity="1">
<use xlink:href="#glyph-7-0" x="66.440066" y="11.46"/>
</g>
<g fill="rgb(0%, 0%, 0%)" fill-opacity="1">
<use xlink:href="#glyph-8-0" x="73.159986" y="12.420156"/>
</g>
<g fill="rgb(0%, 0%, 0%)" fill-opacity="1">
<use xlink:href="#glyph-2-0" x="80.480296" y="9.059996"/>
</g>
<g fill="rgb(0%, 0%, 0%)" fill-opacity="1">
<use xlink:href="#glyph-2-1" x="91.040405" y="9.059996"/>
</g>
<g fill="rgb(0%, 0%, 0%)" fill-opacity="1">
<use xlink:href="#glyph-4-0" x="95.600596" y="9.059996"/>
</g>
<g fill="rgb(0%, 0%, 0%)" fill-opacity="1">
<use xlink:href="#glyph-5-0" x="94.880674" y="9.059996"/>
</g>
<g fill="rgb(0%, 0%, 0%)" fill-opacity="1">
<use xlink:href="#glyph-3-1" x="103.040834" y="9.059996"/>
</g>
<g fill="rgb(0%, 0%, 0%)" fill-opacity="1">
<use xlink:href="#glyph-4-1" x="113.840834" y="9.059996"/>
</g>
<g fill="rgb(0%, 0%, 0%)" fill-opacity="1">
<use xlink:href="#glyph-5-0" x="113.00099" y="9.059996"/>
</g>
<g fill="rgb(0%, 0%, 0%)" fill-opacity="1">
<use xlink:href="#glyph-6-0" x="119.00021" y="10.500226"/>
</g>
<g fill="rgb(0%, 0%, 0%)" fill-opacity="1">
<use xlink:href="#glyph-2-2" x="125.84005" y="9.059996"/>
</g>
<g fill="rgb(0%, 0%, 0%)" fill-opacity="1">
<use xlink:href="#glyph-6-1" x="129.68028" y="4.859996"/>
</g>
<g fill="rgb(0%, 0%, 0%)" fill-opacity="1">
<use xlink:href="#glyph-4-2" x="136.04005" y="9.059996"/>
</g>
<g fill="rgb(0%, 0%, 0%)" fill-opacity="1">
<use xlink:href="#glyph-9-0" x="144.68028" y="4.859996"/>
</g>
<g fill="rgb(0%, 0%, 0%)" fill-opacity="1">
<use xlink:href="#glyph-1-1" x="150.92012" y="4.859996"/>
</g>
<g fill="rgb(0%, 0%, 0%)" fill-opacity="1">
<use xlink:href="#glyph-6-2" x="144.68028" y="11.459996"/>
</g>
<g fill="rgb(0%, 0%, 0%)" fill-opacity="1">
<use xlink:href="#glyph-2-1" x="155.36038" y="9.059996"/>
</g>
<g fill="rgb(0%, 0%, 0%)" fill-opacity="1">
<use xlink:href="#glyph-4-0" x="159.92054" y="9.059996"/>
</g>
<g fill="rgb(0%, 0%, 0%)" fill-opacity="1">
<use xlink:href="#glyph-5-0" x="159.200618" y="9.059996"/>
</g>
<g fill="rgb(0%, 0%, 0%)" fill-opacity="1">
<use xlink:href="#glyph-3-1" x="167.360778" y="9.059996"/>
</g>
<g fill="rgb(0%, 0%, 0%)" fill-opacity="1">
<use xlink:href="#glyph-4-1" x="178.040878" y="9.059996"/>
</g>
<g fill="rgb(0%, 0%, 0%)" fill-opacity="1">
<use xlink:href="#glyph-5-0" x="177.320956" y="9.059996"/>
</g>
<g fill="rgb(0%, 0%, 0%)" fill-opacity="1">
<use xlink:href="#glyph-6-0" x="183.200256" y="10.500226"/>
</g>
<g fill="rgb(0%, 0%, 0%)" fill-opacity="1">
<use xlink:href="#glyph-2-2" x="190.160416" y="9.059996"/>
</g>
<g fill="rgb(0%, 0%, 0%)" fill-opacity="1">
<use xlink:href="#glyph-2-1" x="361.520813" y="9.059996"/>
</g>
<g fill="rgb(0%, 0%, 0%)" fill-opacity="1">
<use xlink:href="#glyph-2-3" x="365.360927" y="9.059996"/>
</g>
<g fill="rgb(0%, 0%, 0%)" fill-opacity="1">
<use xlink:href="#glyph-2-4" x="370.401036" y="9.059996"/>
</g>
<g fill="rgb(0%, 0%, 0%)" fill-opacity="1">
<use xlink:href="#glyph-2-2" x="375.440949" y="9.059996"/>
</g>
</svg>
