<?xml version="1.0" encoding="UTF-8"?>
<svg xmlns="http://www.w3.org/2000/svg" xmlns:xlink="http://www.w3.org/1999/xlink" width="9" height="8" viewBox="0 0 9 8">
<defs>
<g>
<g id="glyph-0-0">
<path d="M 7.5 -6.375 L 8.578125 -6.375 L 8.578125 -6.84375 C 8.1875 -6.8125 7.21875 -6.8125 6.78125 -6.8125 C 6.359375 -6.8125 5.390625 -6.8125 5 -6.84375 L 5 -6.375 L 6.078125 -6.375 L 6.078125 -3.78125 L 2.875 -3.78125 L 2.875 -6.375 L 3.953125 -6.375 L 3.953125 -6.84375 C 3.578125 -6.8125 2.609375 -6.8125 2.171875 -6.8125 C 1.75 -6.8125 0.765625 -6.8125 0.390625 -6.84375 L 0.390625 -6.375 L 1.46875 -6.375 L 1.46875 -0.46875 L 0.390625 -0.46875 L 0.390625 0 C 0.765625 -0.03125 1.75 -0.03125 2.171875 -0.03125 C 2.609375 -0.03125 3.578125 -0.03125 3.953125 0 L 3.953125 -0.46875 L 2.875 -0.46875 L 2.875 -3.3125 L 6.078125 -3.3125 L 6.078125 -0.46875 L 5 -0.46875 L 5 0 C 5.390625 -0.03125 6.359375 -0.03125 6.78125 -0.03125 C 7.21875 -0.03125 8.1875 -0.03125 8.578125 0 L 8.578125 -0.46875 L 7.5 -0.46875 Z M 7.5 -6.375 "/>
</g>
</g>
</defs>
<g fill="rgb(0%, 0%, 0%)" fill-opacity="1">
<use xlink:href="#glyph-0-0" x="0.04" y="7.06"/>
</g>
</svg>
