<?xml version="1.0" encoding="UTF-8" standalone="no"?>
<!DOCTYPE svg PUBLIC "-//W3C//DTD SVG 1.1//EN"
 "http://www.w3.org/Graphics/SVG/1.1/DTD/svg11.dtd">
<!-- Generated by graphviz version 2.43.0 (0)
 -->
<!-- Title: cmrc::memstream Pages: 1 -->
<svg width="109pt" height="232pt"
 viewBox="0.00 0.00 109.00 232.00" xmlns="http://www.w3.org/2000/svg" xmlns:xlink="http://www.w3.org/1999/xlink">
<g id="graph0" class="graph" transform="scale(1 1) rotate(0) translate(4 228)">
<title>cmrc::memstream</title>
<!-- Node1 -->
<g id="Node000001" class="node">
<title>Node1</title>
<g id="a_Node000001"><a xlink:title=" ">
<polygon fill="#999999" stroke="transparent" points="101,-64 0,-64 0,0 101,0 101,-64"/>
<text text-anchor="start" x="5.5" y="-52" font-family="Helvetica,sans-Serif" font-size="10.00">cmrc::memstream</text>
<text text-anchor="start" x="49" y="-37" font-family="Helvetica,sans-Serif" font-size="10.00"> </text>
<text text-anchor="start" x="7.5" y="-22" font-family="Helvetica,sans-Serif" font-size="10.00">+</text>
<text text-anchor="start" x="23.5" y="-22" font-family="Helvetica,sans-Serif" font-size="10.00">memstream()</text>
<text text-anchor="start" x="7.5" y="-7" font-family="Helvetica,sans-Serif" font-size="10.00">+</text>
<text text-anchor="start" x="23.5" y="-7" font-family="Helvetica,sans-Serif" font-size="10.00">memstream()</text>
<polygon fill="#666666" stroke="#666666" points="0.5,-47 0.5,-47 101.5,-47 101.5,-47 0.5,-47"/>
<polygon fill="#666666" stroke="#666666" points="0.5,-32 0.5,-32 101.5,-32 101.5,-32 0.5,-32"/>
<polygon fill="none" stroke="#666666" points="0,0 0,-64 101,-64 101,0 0,0"/>
</a>
</g>
</g>
<!-- Node2 -->
<g id="Node000002" class="node">
<title>Node2</title>
<g id="a_Node000002"><a xlink:href="structcmrc_1_1membuf.html" target="_top" xlink:title=" ">
<polygon fill="white" stroke="transparent" points="91.5,-224 9.5,-224 9.5,-100 91.5,-100 91.5,-224"/>
<text text-anchor="start" x="14.5" y="-212" font-family="Helvetica,sans-Serif" font-size="10.00">cmrc::membuf</text>
<text text-anchor="start" x="48.5" y="-197" font-family="Helvetica,sans-Serif" font-size="10.00"> </text>
<text text-anchor="start" x="14" y="-182" font-family="Helvetica,sans-Serif" font-size="10.00">+</text>
<text text-anchor="start" x="27.5" y="-182" font-family="Helvetica,sans-Serif" font-size="10.00">membuf()</text>
<text text-anchor="start" x="14" y="-167" font-family="Helvetica,sans-Serif" font-size="10.00">+</text>
<text text-anchor="start" x="27.5" y="-167" font-family="Helvetica,sans-Serif" font-size="10.00">membuf()</text>
<text text-anchor="start" x="14" y="-152" font-family="Helvetica,sans-Serif" font-size="10.00">+</text>
<text text-anchor="start" x="27.5" y="-152" font-family="Helvetica,sans-Serif" font-size="10.00">membuf()</text>
<text text-anchor="start" x="14" y="-137" font-family="Helvetica,sans-Serif" font-size="10.00">+</text>
<text text-anchor="start" x="27.5" y="-137" font-family="Helvetica,sans-Serif" font-size="10.00">operator=()</text>
<text text-anchor="start" x="14" y="-122" font-family="Helvetica,sans-Serif" font-size="10.00">+</text>
<text text-anchor="start" x="27.5" y="-122" font-family="Helvetica,sans-Serif" font-size="10.00">operator=()</text>
<text text-anchor="start" x="14" y="-107" font-family="Helvetica,sans-Serif" font-size="10.00">+</text>
<text text-anchor="start" x="27.5" y="-107" font-family="Helvetica,sans-Serif" font-size="10.00">~membuf()</text>
<polygon fill="#666666" stroke="#666666" points="9.5,-207 9.5,-207 91.5,-207 91.5,-207 9.5,-207"/>
<polygon fill="#666666" stroke="#666666" points="9.5,-192 9.5,-192 91.5,-192 91.5,-192 9.5,-192"/>
<polygon fill="none" stroke="#666666" points="9.5,-100 9.5,-224 91.5,-224 91.5,-100 9.5,-100"/>
</a>
</g>
</g>
<!-- Node2&#45;&gt;Node1 -->
<g id="edge1_Node000001_Node000002" class="edge">
<title>Node2&#45;&gt;Node1</title>
<g id="a_edge1_Node000001_Node000002"><a xlink:title=" ">
<path fill="none" stroke="#63b8ff" d="M50.5,-89.86C50.5,-80.92 50.5,-72.17 50.5,-64.31"/>
<polygon fill="none" stroke="#63b8ff" points="47,-90 50.5,-100 54,-90 47,-90"/>
</a>
</g>
</g>
</g>
</svg>
