<?xml version="1.0" encoding="UTF-8" standalone="no"?>
<!DOCTYPE svg PUBLIC "-//W3C//DTD SVG 1.1//EN"
 "http://www.w3.org/Graphics/SVG/1.1/DTD/svg11.dtd">
<!-- Generated by graphviz version 2.43.0 (0)
 -->
<!-- Title: NAV::Pin::Link Pages: 1 -->
<svg width="352pt" height="203pt"
 viewBox="0.00 0.00 352.00 203.00" xmlns="http://www.w3.org/2000/svg" xmlns:xlink="http://www.w3.org/1999/xlink">
<g id="graph0" class="graph" transform="scale(1 1) rotate(0) translate(4 199)">
<title>NAV::Pin::Link</title>
<!-- Node1 -->
<g id="node1" class="node">
<title>Node1</title>
<g id="a_node1"><a xlink:title="Link between two pins.">
<polygon fill="#999999" stroke="#666666" points="223,-195 116,-195 116,-110 223,-110 223,-195"/>
<text text-anchor="middle" x="169.5" y="-183" font-family="Helvetica,sans-Serif" font-size="10.00">{NAV::Pin::Link</text>
<text text-anchor="start" x="124" y="-172" font-family="Helvetica,sans-Serif" font-size="10.00">|+ connectedNode</text>
<text text-anchor="start" x="124" y="-161" font-family="Helvetica,sans-Serif" font-size="10.00">+ connectedPinId</text>
<text text-anchor="start" x="124" y="-150" font-family="Helvetica,sans-Serif" font-size="10.00">+ linkId</text>
<text text-anchor="start" x="124" y="-139" font-family="Helvetica,sans-Serif" font-size="10.00">|# Link()</text>
<text text-anchor="start" x="124" y="-128" font-family="Helvetica,sans-Serif" font-size="10.00"># Link()</text>
<text text-anchor="middle" x="169.5" y="-117" font-family="Helvetica,sans-Serif" font-size="10.00">}</text>
</a>
</g>
</g>
<!-- Node2 -->
<g id="node2" class="node">
<title>Node2</title>
<g id="a_node2"><a xlink:href="structNAV_1_1InputPin_1_1IncomingLink.html" target="_top" xlink:title="Collection of information about the connected node and pin.">
<polygon fill="white" stroke="#666666" points="159,-74 0,-74 0,0 159,0 159,-74"/>
<text text-anchor="middle" x="79.5" y="-62" font-family="Helvetica,sans-Serif" font-size="10.00">{NAV::InputPin::IncomingLink</text>
<text text-anchor="start" x="8" y="-51" font-family="Helvetica,sans-Serif" font-size="10.00">||+ getConnectedPin()</text>
<text text-anchor="start" x="8" y="-40" font-family="Helvetica,sans-Serif" font-size="10.00">+ getValue()</text>
<text text-anchor="start" x="8" y="-29" font-family="Helvetica,sans-Serif" font-size="10.00">+ IncomingLink()</text>
<text text-anchor="start" x="8" y="-18" font-family="Helvetica,sans-Serif" font-size="10.00">+ IncomingLink()</text>
<text text-anchor="middle" x="79.5" y="-7" font-family="Helvetica,sans-Serif" font-size="10.00">}</text>
</a>
</g>
</g>
<!-- Node1&#45;&gt;Node2 -->
<g id="edge1" class="edge">
<title>Node1&#45;&gt;Node2</title>
<path fill="none" stroke="#63b8ff" d="M130.06,-101.76C122.66,-92.42 115.04,-82.82 108.05,-74"/>
<polygon fill="none" stroke="#63b8ff" points="127.54,-104.22 136.5,-109.88 133.03,-99.87 127.54,-104.22"/>
</g>
<!-- Node3 -->
<g id="node3" class="node">
<title>Node3</title>
<g id="a_node3"><a xlink:href="structNAV_1_1OutputPin_1_1OutgoingLink.html" target="_top" xlink:title="Collection of information about the connected node and pin.">
<polygon fill="white" stroke="#666666" points="344,-68.5 177,-68.5 177,-5.5 344,-5.5 344,-68.5"/>
<text text-anchor="middle" x="260.5" y="-56.5" font-family="Helvetica,sans-Serif" font-size="10.00">{NAV::OutputPin::OutgoingLink</text>
<text text-anchor="start" x="185" y="-45.5" font-family="Helvetica,sans-Serif" font-size="10.00">||+ getConnectedPin()</text>
<text text-anchor="start" x="185" y="-34.5" font-family="Helvetica,sans-Serif" font-size="10.00">+ OutgoingLink()</text>
<text text-anchor="start" x="185" y="-23.5" font-family="Helvetica,sans-Serif" font-size="10.00">+ OutgoingLink()</text>
<text text-anchor="middle" x="260.5" y="-12.5" font-family="Helvetica,sans-Serif" font-size="10.00">}</text>
</a>
</g>
</g>
<!-- Node1&#45;&gt;Node3 -->
<g id="edge2" class="edge">
<title>Node1&#45;&gt;Node3</title>
<path fill="none" stroke="#63b8ff" d="M209.38,-101.76C218.43,-90.47 227.78,-78.81 235.97,-68.59"/>
<polygon fill="none" stroke="#63b8ff" points="206.39,-99.89 202.87,-109.88 211.85,-104.27 206.39,-99.89"/>
</g>
</g>
</svg>
