<?xml version="1.0" encoding="UTF-8" standalone="no"?>
<!DOCTYPE svg PUBLIC "-//W3C//DTD SVG 1.1//EN"
 "http://www.w3.org/Graphics/SVG/1.1/DTD/svg11.dtd">
<!-- Generated by graphviz version 2.43.0 (0)
 -->
<!-- Title: NAV::InputPin::IncomingLink Pages: 1 -->
<svg width="161pt" height="226pt"
 viewBox="0.00 0.00 161.00 226.00" xmlns="http://www.w3.org/2000/svg" xmlns:xlink="http://www.w3.org/1999/xlink">
<g id="graph0" class="graph" transform="scale(1 1) rotate(0) translate(4 222)">
<title>NAV::InputPin::IncomingLink</title>
<!-- Node1 -->
<g id="node1" class="node">
<title>Node1</title>
<g id="a_node1"><a xlink:title="Collection of information about the connected node and pin.">
<polygon fill="#999999" stroke="#666666" points="0,-0.5 0,-90.5 153,-90.5 153,-0.5 0,-0.5"/>
<text text-anchor="middle" x="76.5" y="-78.5" font-family="Helvetica,sans-Serif" font-size="10.00">NAV::InputPin::IncomingLink</text>
<polyline fill="none" stroke="#666666" points="0,-71.5 153,-71.5 "/>
<text text-anchor="middle" x="76.5" y="-59.5" font-family="Helvetica,sans-Serif" font-size="10.00"> </text>
<polyline fill="none" stroke="#666666" points="0,-52.5 153,-52.5 "/>
<text text-anchor="start" x="8" y="-40.5" font-family="Helvetica,sans-Serif" font-size="10.00">+ getConnectedPin()</text>
<text text-anchor="start" x="8" y="-29.5" font-family="Helvetica,sans-Serif" font-size="10.00">+ getValue()</text>
<text text-anchor="start" x="8" y="-18.5" font-family="Helvetica,sans-Serif" font-size="10.00">+ IncomingLink()</text>
<text text-anchor="start" x="8" y="-7.5" font-family="Helvetica,sans-Serif" font-size="10.00">+ IncomingLink()</text>
</a>
</g>
</g>
<!-- Node2 -->
<g id="node2" class="node">
<title>Node2</title>
<g id="a_node2"><a xlink:href="structNAV_1_1Pin_1_1Link.html" target="_top" xlink:title="Link between two pins.">
<polygon fill="white" stroke="#666666" points="24.5,-127.5 24.5,-217.5 128.5,-217.5 128.5,-127.5 24.5,-127.5"/>
<text text-anchor="middle" x="76.5" y="-205.5" font-family="Helvetica,sans-Serif" font-size="10.00">NAV::Pin::Link</text>
<polyline fill="none" stroke="#666666" points="24.5,-198.5 128.5,-198.5 "/>
<text text-anchor="start" x="32.5" y="-186.5" font-family="Helvetica,sans-Serif" font-size="10.00">+ connectedNode</text>
<text text-anchor="start" x="32.5" y="-175.5" font-family="Helvetica,sans-Serif" font-size="10.00">+ connectedPinId</text>
<text text-anchor="start" x="32.5" y="-164.5" font-family="Helvetica,sans-Serif" font-size="10.00">+ linkId</text>
<polyline fill="none" stroke="#666666" points="24.5,-157.5 128.5,-157.5 "/>
<text text-anchor="start" x="32.5" y="-145.5" font-family="Helvetica,sans-Serif" font-size="10.00"># Link()</text>
<text text-anchor="start" x="32.5" y="-134.5" font-family="Helvetica,sans-Serif" font-size="10.00"># Link()</text>
</a>
</g>
</g>
<!-- Node2&#45;&gt;Node1 -->
<g id="edge1" class="edge">
<title>Node2&#45;&gt;Node1</title>
<path fill="none" stroke="#63b8ff" d="M76.5,-117.16C76.5,-108.28 76.5,-99.18 76.5,-90.59"/>
<polygon fill="none" stroke="#63b8ff" points="73,-117.43 76.5,-127.43 80,-117.43 73,-117.43"/>
</g>
</g>
</svg>
