<?xml version="1.0" encoding="UTF-8" standalone="no"?>
<!DOCTYPE svg PUBLIC "-//W3C//DTD SVG 1.1//EN"
 "http://www.w3.org/Graphics/SVG/1.1/DTD/svg11.dtd">
<!-- Generated by graphviz version 2.43.0 (0)
 -->
<!-- Title: NAV::OutputPin::OutgoingLink Pages: 1 -->
<svg width="163pt" height="217pt"
 viewBox="0.00 0.00 163.00 217.00" xmlns="http://www.w3.org/2000/svg" xmlns:xlink="http://www.w3.org/1999/xlink">
<g id="graph0" class="graph" transform="scale(1 1) rotate(0) translate(4 213)">
<title>NAV::OutputPin::OutgoingLink</title>
<!-- Node1 -->
<g id="Node000001" class="node">
<title>Node1</title>
<g id="a_Node000001"><a xlink:title="Collection of information about the connected node and pin.">
<polygon fill="#999999" stroke="transparent" points="155,-79 0,-79 0,0 155,0 155,-79"/>
<text text-anchor="start" x="5.5" y="-66.5" font-family="Helvetica,sans-Serif" font-size="10.00">NAV::OutputPin::OutgoingLink</text>
<text text-anchor="start" x="76" y="-51.5" font-family="Helvetica,sans-Serif" font-size="10.00"> </text>
<text text-anchor="start" x="15" y="-36.5" font-family="Helvetica,sans-Serif" font-size="10.00">+</text>
<text text-anchor="start" x="38.5" y="-36.5" font-family="Helvetica,sans-Serif" font-size="10.00">getConnectedPin()</text>
<text text-anchor="start" x="15" y="-21.5" font-family="Helvetica,sans-Serif" font-size="10.00">+</text>
<text text-anchor="start" x="38.5" y="-21.5" font-family="Helvetica,sans-Serif" font-size="10.00">OutgoingLink()</text>
<text text-anchor="start" x="15" y="-6.5" font-family="Helvetica,sans-Serif" font-size="10.00">+</text>
<text text-anchor="start" x="38.5" y="-6.5" font-family="Helvetica,sans-Serif" font-size="10.00">OutgoingLink()</text>
<polygon fill="#666666" stroke="#666666" points="0.5,-61.5 0.5,-61.5 155.5,-61.5 155.5,-61.5 0.5,-61.5"/>
<polygon fill="#666666" stroke="#666666" points="0.5,-46.5 0.5,-46.5 155.5,-46.5 155.5,-46.5 0.5,-46.5"/>
<polygon fill="none" stroke="#666666" points="0,0 0,-79 155,-79 155,0 0,0"/>
</a>
</g>
</g>
<!-- Node2 -->
<g id="Node000002" class="node">
<title>Node2</title>
<g id="a_Node000002"><a xlink:href="structNAV_1_1Pin_1_1Link.html" target="_top" xlink:title="Link between two pins.">
<polygon fill="white" stroke="transparent" points="126,-209 29,-209 29,-115 126,-115 126,-209"/>
<text text-anchor="start" x="44.5" y="-197" font-family="Helvetica,sans-Serif" font-size="10.00">NAV::Pin::Link</text>
<text text-anchor="start" x="33.5" y="-182" font-family="Helvetica,sans-Serif" font-size="10.00">+</text>
<text text-anchor="start" x="46.5" y="-182" font-family="Helvetica,sans-Serif" font-size="10.00">connectedNode</text>
<text text-anchor="start" x="33.5" y="-167" font-family="Helvetica,sans-Serif" font-size="10.00">+</text>
<text text-anchor="start" x="46.5" y="-167" font-family="Helvetica,sans-Serif" font-size="10.00">connectedPinId</text>
<text text-anchor="start" x="33.5" y="-152" font-family="Helvetica,sans-Serif" font-size="10.00">+</text>
<text text-anchor="start" x="46.5" y="-152" font-family="Helvetica,sans-Serif" font-size="10.00">linkId</text>
<text text-anchor="start" x="33.5" y="-137" font-family="Helvetica,sans-Serif" font-size="10.00">#</text>
<text text-anchor="start" x="46.5" y="-137" font-family="Helvetica,sans-Serif" font-size="10.00">Link()</text>
<text text-anchor="start" x="33.5" y="-122" font-family="Helvetica,sans-Serif" font-size="10.00">#</text>
<text text-anchor="start" x="46.5" y="-122" font-family="Helvetica,sans-Serif" font-size="10.00">Link()</text>
<polygon fill="#666666" stroke="#666666" points="29.5,-192 29.5,-192 126.5,-192 126.5,-192 29.5,-192"/>
<polygon fill="#666666" stroke="#666666" points="29.5,-147 29.5,-147 44.5,-147 44.5,-147 29.5,-147"/>
<polygon fill="#666666" stroke="#666666" points="44.5,-147 44.5,-147 126.5,-147 126.5,-147 44.5,-147"/>
<polygon fill="none" stroke="#666666" points="29,-115 29,-209 126,-209 126,-115 29,-115"/>
</a>
</g>
</g>
<!-- Node2&#45;&gt;Node1 -->
<g id="edge1_Node000001_Node000002" class="edge">
<title>Node2&#45;&gt;Node1</title>
<g id="a_edge1_Node000001_Node000002"><a xlink:title=" ">
<path fill="none" stroke="#63b8ff" d="M77.5,-104.49C77.5,-95.99 77.5,-87.39 77.5,-79.37"/>
<polygon fill="none" stroke="#63b8ff" points="74,-104.76 77.5,-114.76 81,-104.76 74,-104.76"/>
</a>
</g>
</g>
</g>
</svg>
