<?xml version="1.0" encoding="UTF-8" standalone="no"?>
<!DOCTYPE svg PUBLIC "-//W3C//DTD SVG 1.1//EN"
 "http://www.w3.org/Graphics/SVG/1.1/DTD/svg11.dtd">
<!-- Generated by graphviz version 2.43.0 (0)
 -->
<!-- Title: NAV::OutputPin::OutgoingLink Pages: 1 -->
<svg width="169pt" height="215pt"
 viewBox="0.00 0.00 169.00 215.00" xmlns="http://www.w3.org/2000/svg" xmlns:xlink="http://www.w3.org/1999/xlink">
<g id="graph0" class="graph" transform="scale(1 1) rotate(0) translate(4 211)">
<title>NAV::OutputPin::OutgoingLink</title>
<!-- Node1 -->
<g id="node1" class="node">
<title>Node1</title>
<g id="a_node1"><a xlink:title="Collection of information about the connected node and pin.">
<polygon fill="#999999" stroke="#666666" points="0,-0.5 0,-79.5 161,-79.5 161,-0.5 0,-0.5"/>
<text text-anchor="middle" x="80.5" y="-67.5" font-family="Helvetica,sans-Serif" font-size="10.00">NAV::OutputPin::OutgoingLink</text>
<polyline fill="none" stroke="#666666" points="0,-60.5 161,-60.5 "/>
<text text-anchor="middle" x="80.5" y="-48.5" font-family="Helvetica,sans-Serif" font-size="10.00"> </text>
<polyline fill="none" stroke="#666666" points="0,-41.5 161,-41.5 "/>
<text text-anchor="start" x="8" y="-29.5" font-family="Helvetica,sans-Serif" font-size="10.00">+ getConnectedPin()</text>
<text text-anchor="start" x="8" y="-18.5" font-family="Helvetica,sans-Serif" font-size="10.00">+ OutgoingLink()</text>
<text text-anchor="start" x="8" y="-7.5" font-family="Helvetica,sans-Serif" font-size="10.00">+ OutgoingLink()</text>
</a>
</g>
</g>
<!-- Node2 -->
<g id="node2" class="node">
<title>Node2</title>
<g id="a_node2"><a xlink:href="structNAV_1_1Pin_1_1Link.html" target="_top" xlink:title="Link between two pins.">
<polygon fill="white" stroke="#666666" points="28.5,-116.5 28.5,-206.5 132.5,-206.5 132.5,-116.5 28.5,-116.5"/>
<text text-anchor="middle" x="80.5" y="-194.5" font-family="Helvetica,sans-Serif" font-size="10.00">NAV::Pin::Link</text>
<polyline fill="none" stroke="#666666" points="28.5,-187.5 132.5,-187.5 "/>
<text text-anchor="start" x="36.5" y="-175.5" font-family="Helvetica,sans-Serif" font-size="10.00">+ connectedNode</text>
<text text-anchor="start" x="36.5" y="-164.5" font-family="Helvetica,sans-Serif" font-size="10.00">+ connectedPinId</text>
<text text-anchor="start" x="36.5" y="-153.5" font-family="Helvetica,sans-Serif" font-size="10.00">+ linkId</text>
<polyline fill="none" stroke="#666666" points="28.5,-146.5 132.5,-146.5 "/>
<text text-anchor="start" x="36.5" y="-134.5" font-family="Helvetica,sans-Serif" font-size="10.00"># Link()</text>
<text text-anchor="start" x="36.5" y="-123.5" font-family="Helvetica,sans-Serif" font-size="10.00"># Link()</text>
</a>
</g>
</g>
<!-- Node2&#45;&gt;Node1 -->
<g id="edge1" class="edge">
<title>Node2&#45;&gt;Node1</title>
<path fill="none" stroke="#63b8ff" d="M80.5,-106.08C80.5,-97.23 80.5,-88.23 80.5,-79.86"/>
<polygon fill="none" stroke="#63b8ff" points="77,-106.34 80.5,-116.34 84,-106.34 77,-106.34"/>
</g>
</g>
</svg>
