<?xml version="1.0" encoding="UTF-8" standalone="no"?>
<!DOCTYPE svg PUBLIC "-//W3C//DTD SVG 1.1//EN"
 "http://www.w3.org/Graphics/SVG/1.1/DTD/svg11.dtd">
<!-- Generated by graphviz version 2.43.0 (0)
 -->
<!-- Title: cmrc::memstream Pages: 1 -->
<svg width="115pt" height="226pt"
 viewBox="0.00 0.00 115.00 226.00" xmlns="http://www.w3.org/2000/svg" xmlns:xlink="http://www.w3.org/1999/xlink">
<g id="graph0" class="graph" transform="scale(1 1) rotate(0) translate(4 222)">
<title>cmrc::memstream</title>
<!-- Node1 -->
<g id="node1" class="node">
<title>Node1</title>
<g id="a_node1"><a xlink:title=" ">
<polygon fill="#999999" stroke="#666666" points="0,-0.5 0,-68.5 107,-68.5 107,-0.5 0,-0.5"/>
<text text-anchor="middle" x="53.5" y="-56.5" font-family="Helvetica,sans-Serif" font-size="10.00">cmrc::memstream</text>
<polyline fill="none" stroke="#666666" points="0,-49.5 107,-49.5 "/>
<text text-anchor="middle" x="53.5" y="-37.5" font-family="Helvetica,sans-Serif" font-size="10.00"> </text>
<polyline fill="none" stroke="#666666" points="0,-30.5 107,-30.5 "/>
<text text-anchor="start" x="8" y="-18.5" font-family="Helvetica,sans-Serif" font-size="10.00">+ memstream()</text>
<text text-anchor="start" x="8" y="-7.5" font-family="Helvetica,sans-Serif" font-size="10.00">+ memstream()</text>
</a>
</g>
</g>
<!-- Node2 -->
<g id="node2" class="node">
<title>Node2</title>
<g id="a_node2"><a xlink:href="structcmrc_1_1membuf.html" target="_top" xlink:title=" ">
<polygon fill="white" stroke="#666666" points="9.5,-105.5 9.5,-217.5 97.5,-217.5 97.5,-105.5 9.5,-105.5"/>
<text text-anchor="middle" x="53.5" y="-205.5" font-family="Helvetica,sans-Serif" font-size="10.00">cmrc::membuf</text>
<polyline fill="none" stroke="#666666" points="9.5,-198.5 97.5,-198.5 "/>
<text text-anchor="middle" x="53.5" y="-186.5" font-family="Helvetica,sans-Serif" font-size="10.00"> </text>
<polyline fill="none" stroke="#666666" points="9.5,-179.5 97.5,-179.5 "/>
<text text-anchor="start" x="17.5" y="-167.5" font-family="Helvetica,sans-Serif" font-size="10.00">+ membuf()</text>
<text text-anchor="start" x="17.5" y="-156.5" font-family="Helvetica,sans-Serif" font-size="10.00">+ membuf()</text>
<text text-anchor="start" x="17.5" y="-145.5" font-family="Helvetica,sans-Serif" font-size="10.00">+ membuf()</text>
<text text-anchor="start" x="17.5" y="-134.5" font-family="Helvetica,sans-Serif" font-size="10.00">+ operator=()</text>
<text text-anchor="start" x="17.5" y="-123.5" font-family="Helvetica,sans-Serif" font-size="10.00">+ operator=()</text>
<text text-anchor="start" x="17.5" y="-112.5" font-family="Helvetica,sans-Serif" font-size="10.00">+ ~membuf()</text>
</a>
</g>
</g>
<!-- Node2&#45;&gt;Node1 -->
<g id="edge1" class="edge">
<title>Node2&#45;&gt;Node1</title>
<path fill="none" stroke="#63b8ff" d="M53.5,-95.26C53.5,-85.99 53.5,-76.8 53.5,-68.51"/>
<polygon fill="none" stroke="#63b8ff" points="50,-95.31 53.5,-105.31 57,-95.31 50,-95.31"/>
</g>
</g>
</svg>
