<?xml version="1.0" encoding="UTF-8" standalone="no"?>
<!DOCTYPE svg PUBLIC "-//W3C//DTD SVG 1.1//EN"
 "http://www.w3.org/Graphics/SVG/1.1/DTD/svg11.dtd">
<!-- Generated by graphviz version 2.43.0 (0)
 -->
<!-- Title: NAV::InputPin::IncomingLink Pages: 1 -->
<svg width="155pt" height="232pt"
 viewBox="0.00 0.00 155.00 232.00" xmlns="http://www.w3.org/2000/svg" xmlns:xlink="http://www.w3.org/1999/xlink">
<g id="graph0" class="graph" transform="scale(1 1) rotate(0) translate(4 228)">
<title>NAV::InputPin::IncomingLink</title>
<!-- Node1 -->
<g id="Node000001" class="node">
<title>Node1</title>
<g id="a_Node000001"><a xlink:title="Collection of information about the connected node and pin.">
<polygon fill="#999999" stroke="transparent" points="147,-94 0,-94 0,0 147,0 147,-94"/>
<text text-anchor="start" x="5.5" y="-82" font-family="Helvetica,sans-Serif" font-size="10.00">NAV::InputPin::IncomingLink</text>
<text text-anchor="start" x="72" y="-67" font-family="Helvetica,sans-Serif" font-size="10.00"> </text>
<text text-anchor="start" x="13" y="-52" font-family="Helvetica,sans-Serif" font-size="10.00">+</text>
<text text-anchor="start" x="34.5" y="-52" font-family="Helvetica,sans-Serif" font-size="10.00">getConnectedPin()</text>
<text text-anchor="start" x="13" y="-37" font-family="Helvetica,sans-Serif" font-size="10.00">+</text>
<text text-anchor="start" x="34.5" y="-37" font-family="Helvetica,sans-Serif" font-size="10.00">getValue()</text>
<text text-anchor="start" x="13" y="-22" font-family="Helvetica,sans-Serif" font-size="10.00">+</text>
<text text-anchor="start" x="34.5" y="-22" font-family="Helvetica,sans-Serif" font-size="10.00">IncomingLink()</text>
<text text-anchor="start" x="13" y="-7" font-family="Helvetica,sans-Serif" font-size="10.00">+</text>
<text text-anchor="start" x="34.5" y="-7" font-family="Helvetica,sans-Serif" font-size="10.00">IncomingLink()</text>
<polygon fill="#666666" stroke="#666666" points="0.5,-77 0.5,-77 147.5,-77 147.5,-77 0.5,-77"/>
<polygon fill="#666666" stroke="#666666" points="0.5,-62 0.5,-62 147.5,-62 147.5,-62 0.5,-62"/>
<polygon fill="none" stroke="#666666" points="0,0 0,-94 147,-94 147,0 0,0"/>
</a>
</g>
</g>
<!-- Node2 -->
<g id="Node000002" class="node">
<title>Node2</title>
<g id="a_Node000002"><a xlink:href="structNAV_1_1Pin_1_1Link.html" target="_top" xlink:title="Link between two pins.">
<polygon fill="white" stroke="transparent" points="122,-224 25,-224 25,-130 122,-130 122,-224"/>
<text text-anchor="start" x="40.5" y="-212" font-family="Helvetica,sans-Serif" font-size="10.00">NAV::Pin::Link</text>
<text text-anchor="start" x="29.5" y="-197" font-family="Helvetica,sans-Serif" font-size="10.00">+</text>
<text text-anchor="start" x="42.5" y="-197" font-family="Helvetica,sans-Serif" font-size="10.00">connectedNode</text>
<text text-anchor="start" x="29.5" y="-182" font-family="Helvetica,sans-Serif" font-size="10.00">+</text>
<text text-anchor="start" x="42.5" y="-182" font-family="Helvetica,sans-Serif" font-size="10.00">connectedPinId</text>
<text text-anchor="start" x="29.5" y="-167" font-family="Helvetica,sans-Serif" font-size="10.00">+</text>
<text text-anchor="start" x="42.5" y="-167" font-family="Helvetica,sans-Serif" font-size="10.00">linkId</text>
<text text-anchor="start" x="29.5" y="-152" font-family="Helvetica,sans-Serif" font-size="10.00">#</text>
<text text-anchor="start" x="42.5" y="-152" font-family="Helvetica,sans-Serif" font-size="10.00">Link()</text>
<text text-anchor="start" x="29.5" y="-137" font-family="Helvetica,sans-Serif" font-size="10.00">#</text>
<text text-anchor="start" x="42.5" y="-137" font-family="Helvetica,sans-Serif" font-size="10.00">Link()</text>
<polygon fill="#666666" stroke="#666666" points="25.5,-207 25.5,-207 122.5,-207 122.5,-207 25.5,-207"/>
<polygon fill="#666666" stroke="#666666" points="25.5,-162 25.5,-162 40.5,-162 40.5,-162 25.5,-162"/>
<polygon fill="#666666" stroke="#666666" points="40.5,-162 40.5,-162 122.5,-162 122.5,-162 40.5,-162"/>
<polygon fill="none" stroke="#666666" points="25,-130 25,-224 122,-224 122,-130 25,-130"/>
</a>
</g>
</g>
<!-- Node2&#45;&gt;Node1 -->
<g id="edge1_Node000001_Node000002" class="edge">
<title>Node2&#45;&gt;Node1</title>
<g id="a_edge1_Node000001_Node000002"><a xlink:title=" ">
<path fill="none" stroke="#63b8ff" d="M73.5,-119.56C73.5,-111.06 73.5,-102.39 73.5,-94.14"/>
<polygon fill="none" stroke="#63b8ff" points="70,-119.79 73.5,-129.79 77,-119.79 70,-119.79"/>
</a>
</g>
</g>
</g>
</svg>
