<?xml version="1.0" encoding="UTF-8" standalone="no"?>
<!DOCTYPE svg PUBLIC "-//W3C//DTD SVG 1.1//EN"
 "http://www.w3.org/Graphics/SVG/1.1/DTD/svg11.dtd">
<!-- Generated by graphviz version 2.43.0 (0)
 -->
<!-- Title: NAV::Pin::Link Pages: 1 -->
<svg width="340pt" height="226pt"
 viewBox="0.00 0.00 340.00 226.00" xmlns="http://www.w3.org/2000/svg" xmlns:xlink="http://www.w3.org/1999/xlink">
<g id="graph0" class="graph" transform="scale(1 1) rotate(0) translate(4 222)">
<title>NAV::Pin::Link</title>
<!-- Node1 -->
<g id="node1" class="node">
<title>Node1</title>
<g id="a_node1"><a xlink:title="Link between two pins.">
<polygon fill="#999999" stroke="#666666" points="111.5,-127.5 111.5,-217.5 215.5,-217.5 215.5,-127.5 111.5,-127.5"/>
<text text-anchor="middle" x="163.5" y="-205.5" font-family="Helvetica,sans-Serif" font-size="10.00">NAV::Pin::Link</text>
<polyline fill="none" stroke="#666666" points="111.5,-198.5 215.5,-198.5 "/>
<text text-anchor="start" x="119.5" y="-186.5" font-family="Helvetica,sans-Serif" font-size="10.00">+ connectedNode</text>
<text text-anchor="start" x="119.5" y="-175.5" font-family="Helvetica,sans-Serif" font-size="10.00">+ connectedPinId</text>
<text text-anchor="start" x="119.5" y="-164.5" font-family="Helvetica,sans-Serif" font-size="10.00">+ linkId</text>
<polyline fill="none" stroke="#666666" points="111.5,-157.5 215.5,-157.5 "/>
<text text-anchor="start" x="119.5" y="-145.5" font-family="Helvetica,sans-Serif" font-size="10.00"># Link()</text>
<text text-anchor="start" x="119.5" y="-134.5" font-family="Helvetica,sans-Serif" font-size="10.00"># Link()</text>
</a>
</g>
</g>
<!-- Node2 -->
<g id="node2" class="node">
<title>Node2</title>
<g id="a_node2"><a xlink:href="structNAV_1_1InputPin_1_1IncomingLink.html" target="_top" xlink:title="Collection of information about the connected node and pin.">
<polygon fill="white" stroke="#666666" points="0,-0.5 0,-90.5 153,-90.5 153,-0.5 0,-0.5"/>
<text text-anchor="middle" x="76.5" y="-78.5" font-family="Helvetica,sans-Serif" font-size="10.00">NAV::InputPin::IncomingLink</text>
<polyline fill="none" stroke="#666666" points="0,-71.5 153,-71.5 "/>
<text text-anchor="middle" x="76.5" y="-59.5" font-family="Helvetica,sans-Serif" font-size="10.00"> </text>
<polyline fill="none" stroke="#666666" points="0,-52.5 153,-52.5 "/>
<text text-anchor="start" x="8" y="-40.5" font-family="Helvetica,sans-Serif" font-size="10.00">+ getConnectedPin()</text>
<text text-anchor="start" x="8" y="-29.5" font-family="Helvetica,sans-Serif" font-size="10.00">+ getValue()</text>
<text text-anchor="start" x="8" y="-18.5" font-family="Helvetica,sans-Serif" font-size="10.00">+ IncomingLink()</text>
<text text-anchor="start" x="8" y="-7.5" font-family="Helvetica,sans-Serif" font-size="10.00">+ IncomingLink()</text>
</a>
</g>
</g>
<!-- Node1&#45;&gt;Node2 -->
<g id="edge1" class="edge">
<title>Node1&#45;&gt;Node2</title>
<path fill="none" stroke="#63b8ff" d="M127.08,-119.18C120.47,-109.67 113.62,-99.84 107.19,-90.59"/>
<polygon fill="none" stroke="#63b8ff" points="124.24,-121.22 132.83,-127.43 129.99,-117.22 124.24,-121.22"/>
</g>
<!-- Node3 -->
<g id="node3" class="node">
<title>Node3</title>
<g id="a_node3"><a xlink:href="structNAV_1_1OutputPin_1_1OutgoingLink.html" target="_top" xlink:title="Collection of information about the connected node and pin.">
<polygon fill="white" stroke="#666666" points="171,-6 171,-85 332,-85 332,-6 171,-6"/>
<text text-anchor="middle" x="251.5" y="-73" font-family="Helvetica,sans-Serif" font-size="10.00">NAV::OutputPin::OutgoingLink</text>
<polyline fill="none" stroke="#666666" points="171,-66 332,-66 "/>
<text text-anchor="middle" x="251.5" y="-54" font-family="Helvetica,sans-Serif" font-size="10.00"> </text>
<polyline fill="none" stroke="#666666" points="171,-47 332,-47 "/>
<text text-anchor="start" x="179" y="-35" font-family="Helvetica,sans-Serif" font-size="10.00">+ getConnectedPin()</text>
<text text-anchor="start" x="179" y="-24" font-family="Helvetica,sans-Serif" font-size="10.00">+ OutgoingLink()</text>
<text text-anchor="start" x="179" y="-13" font-family="Helvetica,sans-Serif" font-size="10.00">+ OutgoingLink()</text>
</a>
</g>
</g>
<!-- Node1&#45;&gt;Node3 -->
<g id="edge2" class="edge">
<title>Node1&#45;&gt;Node3</title>
<path fill="none" stroke="#63b8ff" d="M200.3,-119.23C208.33,-107.82 216.69,-95.95 224.26,-85.19"/>
<polygon fill="none" stroke="#63b8ff" points="197.42,-117.24 194.53,-127.43 203.14,-121.27 197.42,-117.24"/>
</g>
</g>
</svg>
