<?xml version="1.0" encoding="UTF-8" standalone="no"?>
<!DOCTYPE svg PUBLIC "-//W3C//DTD SVG 1.1//EN"
 "http://www.w3.org/Graphics/SVG/1.1/DTD/svg11.dtd">
<!-- Generated by graphviz version 2.43.0 (0)
 -->
<!-- Title: NAV::Pin::Link Pages: 1 -->
<svg width="328pt" height="232pt"
 viewBox="0.00 0.00 328.00 232.00" xmlns="http://www.w3.org/2000/svg" xmlns:xlink="http://www.w3.org/1999/xlink">
<g id="graph0" class="graph" transform="scale(1 1) rotate(0) translate(4 228)">
<title>NAV::Pin::Link</title>
<!-- Node1 -->
<g id="Node000001" class="node">
<title>Node1</title>
<g id="a_Node000001"><a xlink:title="Link between two pins.">
<polygon fill="#999999" stroke="transparent" points="206,-224 109,-224 109,-130 206,-130 206,-224"/>
<text text-anchor="start" x="124.5" y="-212" font-family="Helvetica,sans-Serif" font-size="10.00">NAV::Pin::Link</text>
<text text-anchor="start" x="113.5" y="-197" font-family="Helvetica,sans-Serif" font-size="10.00">+</text>
<text text-anchor="start" x="126.5" y="-197" font-family="Helvetica,sans-Serif" font-size="10.00">connectedNode</text>
<text text-anchor="start" x="113.5" y="-182" font-family="Helvetica,sans-Serif" font-size="10.00">+</text>
<text text-anchor="start" x="126.5" y="-182" font-family="Helvetica,sans-Serif" font-size="10.00">connectedPinId</text>
<text text-anchor="start" x="113.5" y="-167" font-family="Helvetica,sans-Serif" font-size="10.00">+</text>
<text text-anchor="start" x="126.5" y="-167" font-family="Helvetica,sans-Serif" font-size="10.00">linkId</text>
<text text-anchor="start" x="113.5" y="-152" font-family="Helvetica,sans-Serif" font-size="10.00">#</text>
<text text-anchor="start" x="126.5" y="-152" font-family="Helvetica,sans-Serif" font-size="10.00">Link()</text>
<text text-anchor="start" x="113.5" y="-137" font-family="Helvetica,sans-Serif" font-size="10.00">#</text>
<text text-anchor="start" x="126.5" y="-137" font-family="Helvetica,sans-Serif" font-size="10.00">Link()</text>
<polygon fill="#666666" stroke="#666666" points="109.5,-207 109.5,-207 206.5,-207 206.5,-207 109.5,-207"/>
<polygon fill="#666666" stroke="#666666" points="109.5,-162 109.5,-162 124.5,-162 124.5,-162 109.5,-162"/>
<polygon fill="#666666" stroke="#666666" points="124.5,-162 124.5,-162 206.5,-162 206.5,-162 124.5,-162"/>
<polygon fill="none" stroke="#666666" points="109,-130 109,-224 206,-224 206,-130 109,-130"/>
</a>
</g>
</g>
<!-- Node2 -->
<g id="Node000002" class="node">
<title>Node2</title>
<g id="a_Node000002"><a xlink:href="structNAV_1_1InputPin_1_1IncomingLink.html" target="_top" xlink:title="Collection of information about the connected node and pin.">
<polygon fill="white" stroke="transparent" points="147,-94 0,-94 0,0 147,0 147,-94"/>
<text text-anchor="start" x="5.5" y="-82" font-family="Helvetica,sans-Serif" font-size="10.00">NAV::InputPin::IncomingLink</text>
<text text-anchor="start" x="72" y="-67" font-family="Helvetica,sans-Serif" font-size="10.00"> </text>
<text text-anchor="start" x="13" y="-52" font-family="Helvetica,sans-Serif" font-size="10.00">+</text>
<text text-anchor="start" x="34.5" y="-52" font-family="Helvetica,sans-Serif" font-size="10.00">getConnectedPin()</text>
<text text-anchor="start" x="13" y="-37" font-family="Helvetica,sans-Serif" font-size="10.00">+</text>
<text text-anchor="start" x="34.5" y="-37" font-family="Helvetica,sans-Serif" font-size="10.00">getValue()</text>
<text text-anchor="start" x="13" y="-22" font-family="Helvetica,sans-Serif" font-size="10.00">+</text>
<text text-anchor="start" x="34.5" y="-22" font-family="Helvetica,sans-Serif" font-size="10.00">IncomingLink()</text>
<text text-anchor="start" x="13" y="-7" font-family="Helvetica,sans-Serif" font-size="10.00">+</text>
<text text-anchor="start" x="34.5" y="-7" font-family="Helvetica,sans-Serif" font-size="10.00">IncomingLink()</text>
<polygon fill="#666666" stroke="#666666" points="0.5,-77 0.5,-77 147.5,-77 147.5,-77 0.5,-77"/>
<polygon fill="#666666" stroke="#666666" points="0.5,-62 0.5,-62 147.5,-62 147.5,-62 0.5,-62"/>
<polygon fill="none" stroke="#666666" points="0,0 0,-94 147,-94 147,0 0,0"/>
</a>
</g>
</g>
<!-- Node1&#45;&gt;Node2 -->
<g id="edge1_Node000001_Node000002" class="edge">
<title>Node1&#45;&gt;Node2</title>
<g id="a_edge1_Node000001_Node000002"><a xlink:title=" ">
<path fill="none" stroke="#63b8ff" d="M121.56,-121.24C115.64,-112.21 109.55,-102.93 103.78,-94.14"/>
<polygon fill="none" stroke="#63b8ff" points="118.76,-123.35 127.17,-129.79 124.61,-119.51 118.76,-123.35"/>
</a>
</g>
</g>
<!-- Node3 -->
<g id="Node000003" class="node">
<title>Node3</title>
<g id="a_Node000003"><a xlink:href="structNAV_1_1OutputPin_1_1OutgoingLink.html" target="_top" xlink:title="Collection of information about the connected node and pin.">
<polygon fill="white" stroke="transparent" points="320,-86.5 165,-86.5 165,-7.5 320,-7.5 320,-86.5"/>
<text text-anchor="start" x="170.5" y="-74" font-family="Helvetica,sans-Serif" font-size="10.00">NAV::OutputPin::OutgoingLink</text>
<text text-anchor="start" x="241" y="-59" font-family="Helvetica,sans-Serif" font-size="10.00"> </text>
<text text-anchor="start" x="180" y="-44" font-family="Helvetica,sans-Serif" font-size="10.00">+</text>
<text text-anchor="start" x="203.5" y="-44" font-family="Helvetica,sans-Serif" font-size="10.00">getConnectedPin()</text>
<text text-anchor="start" x="180" y="-29" font-family="Helvetica,sans-Serif" font-size="10.00">+</text>
<text text-anchor="start" x="203.5" y="-29" font-family="Helvetica,sans-Serif" font-size="10.00">OutgoingLink()</text>
<text text-anchor="start" x="180" y="-14" font-family="Helvetica,sans-Serif" font-size="10.00">+</text>
<text text-anchor="start" x="203.5" y="-14" font-family="Helvetica,sans-Serif" font-size="10.00">OutgoingLink()</text>
<polygon fill="#666666" stroke="#666666" points="165.5,-69 165.5,-69 320.5,-69 320.5,-69 165.5,-69"/>
<polygon fill="#666666" stroke="#666666" points="165.5,-54 165.5,-54 320.5,-54 320.5,-54 165.5,-54"/>
<polygon fill="none" stroke="#666666" points="165,-7.5 165,-86.5 320,-86.5 320,-7.5 165,-7.5"/>
</a>
</g>
</g>
<!-- Node1&#45;&gt;Node3 -->
<g id="edge2_Node000001_Node000003" class="edge">
<title>Node1&#45;&gt;Node3</title>
<g id="a_edge2_Node000001_Node000003"><a xlink:title=" ">
<path fill="none" stroke="#63b8ff" d="M193.78,-121.36C201.56,-109.65 209.62,-97.51 216.9,-86.56"/>
<polygon fill="none" stroke="#63b8ff" points="190.8,-119.52 188.19,-129.79 196.63,-123.39 190.8,-119.52"/>
</a>
</g>
</g>
</g>
</svg>
